<svg xmlns="http://www.w3.org/2000/svg" width="123.015" height="299" viewBox="0 0 123.015 299">
  <g id="Groupe_2620" data-name="Groupe 2620" transform="translate(-2181.23 -609.219)">
    <g id="noun-thinking-man-pictogram-2735758" transform="translate(2166.819 710.547)">
      <g id="Groupe_2369" data-name="Groupe 2369" transform="translate(14.411 3)">
        <path id="Tracé_1103" data-name="Tracé 1103" d="M73.375,33.466a23.445,23.445,0,1,1-4.412-22.095C63.392,22.078,72.042,30.129,73.375,33.466Z" transform="translate(13.594 -3)"/>
        <path id="Tracé_1104" data-name="Tracé 1104" d="M49.889,116.746l-14.243-25.6a3.265,3.265,0,0,1,1.427-4.12l13.5-7.689v103a11.048,11.048,0,0,0,11.048,11.048h0a11.048,11.048,0,0,0,11.048-11.048V135.889a3.254,3.254,0,0,1,3.244-3.244,1.859,1.859,0,0,1,.422.032,3.229,3.229,0,0,1,2.823,3.212v46.446A11.047,11.047,0,0,0,90.2,193.382h.811a11.048,11.048,0,0,0,11.048-11.048v-103l7.43-.779c22.738-2.44,35.487-28.055,23.1-47.727L119.062,9.417A9.336,9.336,0,0,0,111.081,5a9.235,9.235,0,0,0-5.775,1.979A9.462,9.462,0,0,0,103,19.345l11.615,19.143c4.872,7.85-.791,18.494-11.044,18.494H60.791a42.57,42.57,0,0,0-19.3,4.575L25.361,69.6A19.866,19.866,0,0,0,16.114,95.4l16.352,28.746a9.478,9.478,0,0,0,17.1.422A9.588,9.588,0,0,0,49.889,116.746Z" transform="translate(-14.411 1.29)"/>
      </g>
    </g>
    <text id="_" data-name="?" transform="translate(2251.738 690.219)" font-size="72" font-family="Marianne-Bold, Marianne" font-weight="700" letter-spacing="0.033em"><tspan x="0" y="0">?</tspan></text>
  </g>
</svg>
