<svg width="443" height="331" viewBox="0 0 443 331" fill="none" xmlns="http://www.w3.org/2000/svg">
<path d="M424 0H19C8.50659 0 0 8.50659 0 19V312C0 322.493 8.50659 331 19 331H424C434.493 331 443 322.493 443 312V19C443 8.50659 434.493 0 424 0Z" fill="#F7FBFF"/>
<path d="M424 0.5H19C8.78273 0.5 0.5 8.78273 0.5 19V312C0.5 322.217 8.78273 330.5 19 330.5H424C434.217 330.5 442.5 322.217 442.5 312V19C442.5 8.78273 434.217 0.5 424 0.5Z" stroke="#60D174"/>
<path d="M238 22H39C28.5066 22 20 30.5066 20 41V155C20 165.493 28.5066 174 39 174H238C248.493 174 257 165.493 257 155V41C257 30.5066 248.493 22 238 22Z" fill="white"/>
<path d="M238 22.5H39C28.7827 22.5 20.5 30.7827 20.5 41V155C20.5 165.217 28.7827 173.5 39 173.5H238C248.217 173.5 256.5 165.217 256.5 155V41C256.5 30.7827 248.217 22.5 238 22.5Z" stroke="#685CB9"/>
<path d="M237 35H206C203.791 35 202 36.7909 202 39V54C202 56.2091 203.791 58 206 58H237C239.209 58 241 56.2091 241 54V39C241 36.7909 239.209 35 237 35Z" fill="#E9E6FE"/>
<path d="M237 35.5H206C204.067 35.5 202.5 37.067 202.5 39V54C202.5 55.933 204.067 57.5 206 57.5H237C238.933 57.5 240.5 55.933 240.5 54V39C240.5 37.067 238.933 35.5 237 35.5Z" stroke="#B6ABFC"/>
<path d="M299 22H443V174H299C293.961 174 289.128 171.998 285.565 168.435C282.002 164.872 280 160.039 280 155V41C280 35.9609 282.002 31.1282 285.565 27.565C289.128 24.0018 293.961 22 299 22Z" fill="white"/>
<path d="M299 22.5H442.5V173.5H299C296.571 173.5 294.165 173.021 291.92 172.092C289.676 171.162 287.636 169.799 285.919 168.081C282.449 164.612 280.5 159.907 280.5 155V41C280.5 36.0935 282.449 31.3879 285.919 27.9185C289.388 24.4491 294.093 22.5 299 22.5Z" stroke="#685CB9"/>
<path d="M299 194H443V312C443 317.039 440.998 321.872 437.435 325.435C433.872 328.998 429.039 331 424 331H280V213C280 207.961 282.002 203.128 285.565 199.565C289.128 196.002 293.961 194 299 194Z" fill="white"/>
<path d="M299 194.5H442.5V312C442.5 316.907 440.551 321.612 437.081 325.081C433.612 328.551 428.907 330.5 424 330.5H280.5V213C280.5 208.093 282.449 203.388 285.919 199.919C289.388 196.449 294.093 194.5 299 194.5Z" stroke="#685CB9"/>
<path d="M39 194H238C243.039 194 247.872 196.002 251.435 199.565C254.998 203.128 257 207.961 257 213V331H20V213C20 207.961 22.0018 203.128 25.565 199.565C29.1282 196.002 33.9609 194 39 194Z" fill="white"/>
<path d="M39 194.5H238C240.429 194.5 242.835 194.979 245.08 195.908C247.324 196.838 249.364 198.201 251.081 199.919C252.799 201.636 254.162 203.676 255.092 205.92C256.021 208.165 256.5 210.571 256.5 213V330.5H20.5V213C20.5 208.093 22.4491 203.388 25.9185 199.919C29.3879 196.449 34.0935 194.5 39 194.5Z" stroke="#685CB9"/>
<path d="M208.26 48.879H211.77V50.478H208.26V48.879ZM213.803 52.987V45.694L211.918 46.76L211.047 45.512L213.855 43.887H215.558V52.987H213.803ZM220.926 43.64C223.318 43.64 224.436 45.72 224.436 48.45C224.436 51.18 223.318 53.26 220.926 53.26C218.534 53.26 217.416 51.18 217.416 48.45C217.416 45.72 218.534 43.64 220.926 43.64ZM220.926 45.265C219.769 45.265 219.21 46.539 219.21 48.45C219.21 50.374 219.769 51.635 220.926 51.635C222.07 51.635 222.629 50.361 222.629 48.45C222.629 46.526 222.07 45.265 220.926 45.265ZM227.473 43.614C228.786 43.614 229.683 44.563 229.683 45.785C229.683 47.007 228.786 47.956 227.473 47.956C226.147 47.956 225.237 47.007 225.237 45.785C225.237 44.563 226.147 43.614 227.473 43.614ZM226.004 52.987L232.686 43.887H234.376L227.694 52.987H226.004ZM227.473 46.851C228.045 46.851 228.461 46.409 228.461 45.785C228.461 45.148 228.045 44.719 227.473 44.719C226.888 44.719 226.472 45.148 226.472 45.785C226.472 46.422 226.888 46.851 227.473 46.851ZM232.959 48.905C234.272 48.905 235.169 49.854 235.169 51.076C235.169 52.298 234.272 53.247 232.959 53.247C231.633 53.247 230.723 52.298 230.723 51.076C230.723 49.854 231.633 48.905 232.959 48.905ZM232.959 52.142C233.531 52.142 233.947 51.7 233.947 51.076C233.947 50.439 233.531 50.01 232.959 50.01C232.374 50.01 231.958 50.439 231.958 51.076C231.958 51.713 232.374 52.142 232.959 52.142Z" fill="#685CB9"/>
<path d="M237 203H206C203.791 203 202 204.791 202 207V222C202 224.209 203.791 226 206 226H237C239.209 226 241 224.209 241 222V207C241 204.791 239.209 203 237 203Z" fill="#E9E6FE"/>
<path d="M237 203.5H206C204.067 203.5 202.5 205.067 202.5 207V222C202.5 223.933 204.067 225.5 206 225.5H237C238.933 225.5 240.5 223.933 240.5 222V207C240.5 205.067 238.933 203.5 237 203.5Z" stroke="#B6ABFC"/>
<path d="M164.5 89H36.5C35.1193 89 34 90.1193 34 91.5C34 92.8807 35.1193 94 36.5 94H164.5C165.881 94 167 92.8807 167 91.5C167 90.1193 165.881 89 164.5 89Z" fill="#B6ABFC"/>
<path d="M424.5 89H296.5C295.119 89 294 90.1193 294 91.5C294 92.8807 295.119 94 296.5 94H424.5C425.881 94 427 92.8807 427 91.5C427 90.1193 425.881 89 424.5 89Z" fill="#B6ABFC"/>
<path d="M424.5 263H296.5C295.119 263 294 264.119 294 265.5C294 266.881 295.119 268 296.5 268H424.5C425.881 268 427 266.881 427 265.5C427 264.119 425.881 263 424.5 263Z" fill="#B6ABFC"/>
<path d="M164.5 263H36.5C35.1193 263 34 264.119 34 265.5C34 266.881 35.1193 268 36.5 268H164.5C165.881 268 167 266.881 167 265.5C167 264.119 165.881 263 164.5 263Z" fill="#B6ABFC"/>
<path d="M145.5 105H36.5C35.1193 105 34 106.119 34 107.5C34 108.881 35.1193 110 36.5 110H145.5C146.881 110 148 108.881 148 107.5C148 106.119 146.881 105 145.5 105Z" fill="#B6ABFC"/>
<path d="M405.5 105H296.5C295.119 105 294 106.119 294 107.5C294 108.881 295.119 110 296.5 110H405.5C406.881 110 408 108.881 408 107.5C408 106.119 406.881 105 405.5 105Z" fill="#B6ABFC"/>
<path d="M405.5 279H296.5C295.119 279 294 280.119 294 281.5C294 282.881 295.119 284 296.5 284H405.5C406.881 284 408 282.881 408 281.5C408 280.119 406.881 279 405.5 279Z" fill="#B6ABFC"/>
<path d="M145.5 279H36.5C35.1193 279 34 280.119 34 281.5C34 282.881 35.1193 284 36.5 284H145.5C146.881 284 148 282.881 148 281.5C148 280.119 146.881 279 145.5 279Z" fill="#B6ABFC"/>
<path d="M78 134H38C35.7909 134 34 135.791 34 138V158C34 160.209 35.7909 162 38 162H78C80.2091 162 82 160.209 82 158V138C82 135.791 80.2091 134 78 134Z" fill="#B6ABFC"/>
<path d="M338 134H298C295.791 134 294 135.791 294 138V158C294 160.209 295.791 162 298 162H338C340.209 162 342 160.209 342 158V138C342 135.791 340.209 134 338 134Z" fill="#B6ABFC"/>
<path d="M298 308H338C339.061 308 340.078 308.421 340.828 309.172C341.579 309.922 342 310.939 342 312V331H294V312C294 310.939 294.421 309.922 295.172 309.172C295.922 308.421 296.939 308 298 308Z" fill="#B6ABFC"/>
<path d="M38 308H78C79.0609 308 80.0783 308.421 80.8284 309.172C81.5786 309.922 82 310.939 82 312V331H34V312C34 310.939 34.4214 309.922 35.1716 309.172C35.9217 308.421 36.9391 308 38 308Z" fill="#B6ABFC"/>
<path d="M211.26 216.879H214.77V218.478H211.26V216.879ZM219.115 211.64C221.156 211.64 222.196 212.81 222.196 214.097C222.196 214.929 221.793 215.644 221 216.073C222.04 216.502 222.599 217.347 222.599 218.452C222.599 220.038 221.377 221.26 219.115 221.26C216.866 221.26 215.631 220.038 215.631 218.452C215.631 217.347 216.19 216.502 217.243 216.073C216.437 215.644 216.034 214.929 216.034 214.097C216.034 212.81 217.087 211.64 219.115 211.64ZM219.141 215.41C219.895 215.41 220.389 214.968 220.389 214.292C220.389 213.603 219.895 213.148 219.141 213.148C218.322 213.148 217.841 213.603 217.841 214.292C217.841 214.968 218.335 215.41 219.141 215.41ZM219.128 219.739C220.155 219.739 220.792 219.193 220.792 218.361C220.792 217.503 220.155 216.918 219.128 216.918C218.088 216.918 217.438 217.503 217.438 218.361C217.438 219.206 218.088 219.739 219.128 219.739ZM225.662 211.614C226.975 211.614 227.872 212.563 227.872 213.785C227.872 215.007 226.975 215.956 225.662 215.956C224.336 215.956 223.426 215.007 223.426 213.785C223.426 212.563 224.336 211.614 225.662 211.614ZM224.193 220.987L230.875 211.887H232.565L225.883 220.987H224.193ZM225.662 214.851C226.234 214.851 226.65 214.409 226.65 213.785C226.65 213.148 226.234 212.719 225.662 212.719C225.077 212.719 224.661 213.148 224.661 213.785C224.661 214.422 225.077 214.851 225.662 214.851ZM231.148 216.905C232.461 216.905 233.358 217.854 233.358 219.076C233.358 220.298 232.461 221.247 231.148 221.247C229.822 221.247 228.912 220.298 228.912 219.076C228.912 217.854 229.822 216.905 231.148 216.905ZM231.148 220.142C231.72 220.142 232.136 219.7 232.136 219.076C232.136 218.439 231.72 218.01 231.148 218.01C230.563 218.01 230.147 218.439 230.147 219.076C230.147 219.713 230.563 220.142 231.148 220.142Z" fill="#685CB9"/>
<path d="M52.8535 147.977L56.3535 151.73L61.8926 144.27" stroke="white" stroke-width="3" stroke-linecap="round" stroke-linejoin="round"/>
<path d="M312.854 147.977L316.354 151.73L321.893 144.27" stroke="white" stroke-width="3" stroke-linecap="round" stroke-linejoin="round"/>
<path d="M312.854 321.977L316.354 325.73L321.893 318.27" stroke="white" stroke-width="3" stroke-linecap="round" stroke-linejoin="round"/>
<path d="M52.8535 321.977L56.3535 325.73L61.8926 318.27" stroke="white" stroke-width="3" stroke-linecap="round" stroke-linejoin="round"/>
<path d="M424 0.5H19C8.78273 0.5 0.5 8.78273 0.5 19V312C0.5 322.217 8.78273 330.5 19 330.5H424C434.217 330.5 442.5 322.217 442.5 312V19C442.5 8.78273 434.217 0.5 424 0.5Z" stroke="#685CB9"/>
<path d="M323 48.5C323 55.9557 316.956 62 309.5 62C302.044 62 296 55.9557 296 48.5C296 41.0443 302.044 35 309.5 35C316.956 35 323 41.0443 323 48.5Z" fill="#E1E8ED"/>
<path d="M318.5 48.5C318.5 53.471 314.471 57.5 309.5 57.5C304.529 57.5 300.5 53.471 300.5 48.5C300.5 43.529 304.529 39.5 309.5 39.5C314.471 39.5 318.5 43.529 318.5 48.5Z" fill="#CCD6DD"/>
<path d="M317.75 48.5C317.75 53.0562 314.056 56.75 309.5 56.75C304.943 56.75 301.25 53.0562 301.25 48.5C301.25 43.943 304.944 40.25 309.5 40.25C314.056 40.25 317.75 43.943 317.75 48.5Z" fill="#E1E8ED"/>
<path d="M296.75 36.5C297.164 36.5 297.5 36.1642 297.5 35.75C297.5 35.3358 297.164 35 296.75 35C296.336 35 296 35.3358 296 35.75C296 36.1642 296.336 36.5 296.75 36.5Z" fill="#99AAB5"/>
<path d="M296 35.75H297.5V41H296V35.75Z" fill="#99AAB5"/>
<path d="M299.75 36.5C300.164 36.5 300.5 36.1642 300.5 35.75C300.5 35.3358 300.164 35 299.75 35C299.336 35 299 35.3358 299 35.75C299 36.1642 299.336 36.5 299.75 36.5Z" fill="#99AAB5"/>
<path d="M299 35.75H300.5V41H299V35.75Z" fill="#99AAB5"/>
<path d="M302.75 36.5C303.164 36.5 303.5 36.1642 303.5 35.75C303.5 35.3358 303.164 35 302.75 35C302.336 35 302 35.3358 302 35.75C302 36.1642 302.336 36.5 302.75 36.5Z" fill="#99AAB5"/>
<path d="M302 35.75H303.5V41H302V35.75ZM298.25 45.5H301.25V60.5H298.25V45.5Z" fill="#99AAB5"/>
<path d="M299.75 62C300.578 62 301.25 61.3284 301.25 60.5C301.25 59.6716 300.578 59 299.75 59C298.922 59 298.25 59.6716 298.25 60.5C298.25 61.3284 298.922 62 299.75 62Z" fill="#99AAB5"/>
<path d="M302 41C302 41.414 301.664 41.75 301.25 41.75C300.836 41.75 300.5 41.414 300.5 41H299C299 41.414 298.664 41.75 298.25 41.75C297.836 41.75 297.5 41.414 297.5 41H296C296 43.8995 296.75 46.25 299.75 46.25C302.75 46.25 303.5 43.8995 303.5 41H302Z" fill="#99AAB5"/>
<path d="M296.75 41.75C297.164 41.75 297.5 41.4142 297.5 41C297.5 40.5858 297.164 40.25 296.75 40.25C296.336 40.25 296 40.5858 296 41C296 41.4142 296.336 41.75 296.75 41.75Z" fill="#99AAB5"/>
<path d="M299.75 41.75C300.164 41.75 300.5 41.4142 300.5 41C300.5 40.5858 300.164 40.25 299.75 40.25C299.336 40.25 299 40.5858 299 41C299 41.4142 299.336 41.75 299.75 41.75Z" fill="#99AAB5"/>
<path d="M302.75 41.75C303.164 41.75 303.5 41.4142 303.5 41C303.5 40.5858 303.164 40.25 302.75 40.25C302.336 40.25 302 40.5858 302 41C302 41.4142 302.336 41.75 302.75 41.75Z" fill="#99AAB5"/>
<path d="M318.5 45.5H321.5V60.5H318.5V45.5Z" fill="#99AAB5"/>
<path d="M320 62C320.828 62 321.5 61.3284 321.5 60.5C321.5 59.6716 320.828 59 320 59C319.172 59 318.5 59.6716 318.5 60.5C318.5 61.3284 319.172 62 320 62Z" fill="#99AAB5"/>
<path d="M320 35C320.75 35 321.5 35.75 321.5 37.25V49.25C321.5 49.25 316.25 50.75 316.25 43.25C316.25 38.75 318.5 35 320 35Z" fill="#99AAB5"/>
<path d="M302.6 217.393H300.963C300.737 217.393 300.554 217.209 300.554 216.983V211.256C300.554 211.03 300.737 210.847 300.963 210.847H302.6C302.825 210.847 303.009 211.03 303.009 211.256V216.983C303.009 217.209 302.825 217.393 302.6 217.393Z" fill="#A0041E"/>
<path d="M299.045 218.455L309.682 207.818L320.318 218.455V232.364H299.045V218.455Z" fill="#FFE8B6"/>
<path d="M309.682 218.455H310.5V231.546H309.682V218.455Z" fill="#FFCC4D"/>
<path d="M320.318 219.273C320.109 219.273 319.899 219.193 319.74 219.033L309.682 208.975L299.624 219.033C299.304 219.353 298.787 219.353 298.467 219.033C298.147 218.713 298.147 218.196 298.467 217.876L309.103 207.24C309.423 206.92 309.94 206.92 310.26 207.24L320.896 217.876C321.216 218.196 321.216 218.713 320.896 219.033C320.737 219.193 320.527 219.273 320.318 219.273Z" fill="#66757F"/>
<path d="M309.682 219.273C309.472 219.273 309.263 219.193 309.103 219.033C308.783 218.713 308.783 218.196 309.103 217.876L314.421 212.558C314.741 212.238 315.258 212.238 315.578 212.558C315.898 212.878 315.898 213.395 315.578 213.715L310.26 219.033C310.101 219.193 309.891 219.273 309.682 219.273Z" fill="#66757F"/>
<path d="M303.136 226.636H306.409V231.545H303.136V226.636Z" fill="#C1694F"/>
<path d="M303.136 219.273H306.409V222.545H303.136V219.273ZM313.364 219.273H316.636V222.545H313.364V219.273ZM313.364 226.636H316.636V229.909H313.364V226.636Z" fill="#55ACEE"/>
<path d="M322.363 232.773C322.363 233.45 321.814 234 321.136 234H298.227C297.55 234 297 233.45 297 232.773C297 232.095 297.55 231.545 298.227 231.545H321.136C321.814 231.545 322.363 232.095 322.363 232.773Z" fill="#5C913B"/>
<path d="M38.4 214.486H55.3715V228.371H38.4V214.486Z" fill="#292F33"/>
<path d="M39.1714 228.371C39.1714 229.223 38.7109 229.914 38.1431 229.914H37.114C36.5462 229.914 36.0857 229.223 36.0857 228.371V214.486C36.0857 213.634 36.5462 212.943 37.114 212.943H38.1423C38.7109 212.943 39.1714 213.634 39.1714 214.486V228.371ZM57.6857 228.371C57.6857 229.223 57.2252 229.914 56.6574 229.914H55.6283C55.0605 229.914 54.6 229.223 54.6 228.371V214.486C54.6 213.634 55.0605 212.943 55.6283 212.943H56.6574C57.2252 212.943 57.6857 213.634 57.6857 214.486V228.371ZM45.3428 228.371C45.3428 229.223 44.8823 229.914 44.3145 229.914H43.2862C42.7177 229.914 42.2571 229.223 42.2571 228.371V214.486C42.2571 213.634 42.7177 212.943 43.2854 212.943H44.3138C44.8823 212.943 45.3428 213.634 45.3428 214.486V228.371ZM51.5143 228.371C51.5143 229.223 51.053 229.914 50.4852 229.914H49.4576C48.8899 229.914 48.4286 229.223 48.4286 228.371V214.486C48.4286 213.634 48.8899 212.943 49.4576 212.943H50.4852C51.053 212.943 51.5143 213.634 51.5143 214.486V228.371Z" fill="#CCD6DD"/>
<path d="M58.4571 229.143C58.4571 229.995 57.7659 230.686 56.9143 230.686H36.8571C36.0055 230.686 35.3143 229.995 35.3143 229.143C35.3143 228.291 36.0055 227.6 36.8571 227.6H56.9143C57.7659 227.6 58.4571 228.291 58.4571 229.143Z" fill="#9AAAB4"/>
<path d="M60 230.686C60 231.537 59.3088 232.229 58.4571 232.229H35.3143C34.4626 232.229 33.7714 231.537 33.7714 230.686C33.7714 229.834 34.4626 229.143 35.3143 229.143H58.4571C59.3088 229.143 60 229.834 60 230.686Z" fill="#CCD6DD"/>
<path d="M60.7714 231.843C60.7714 232.482 60.253 233 59.6143 233H34.1571C33.5176 233 33 232.482 33 231.843C33 231.204 33.5176 230.686 34.1571 230.686H59.6143C60.253 230.686 60.7714 231.204 60.7714 231.843Z" fill="#E1E8ED"/>
<path d="M58.4571 213.714C58.4571 212.863 57.7196 212.171 56.8117 212.171H36.8571C35.9476 212.171 35.3143 212.863 35.3143 213.714C35.3143 214.294 35.612 214.793 36.0857 215.057V216.029H39.1714V215.257H42.2571V216.029H45.3428V215.257H48.4286V216.029H51.5143V215.257H54.6V216.029H57.6857V215.016C58.1478 214.743 58.4571 214.264 58.4571 213.714Z" fill="#9AAAB4"/>
<path d="M34.5428 212.514C34.5428 211.719 35.3235 211.4 35.3235 211.4L46.8209 206L58.4286 211.4C58.4286 211.4 59.2286 211.578 59.2286 212.519V212.943H34.5428V212.514Z" fill="#CCD6DD"/>
<path d="M46.8857 207.961C46.8857 207.961 38.9253 211.714 38.13 212.051C37.3346 212.388 37.6008 212.943 38.1307 212.943H55.6005C56.4198 212.943 56.2269 212.316 55.5766 211.979C54.9255 211.641 46.8857 207.961 46.8857 207.961Z" fill="#9AAAB4"/>
<path d="M59.2286 212.943C59.2286 213.369 58.8837 213.714 58.4571 213.714H35.3143C34.8884 213.714 34.5428 213.369 34.5428 212.943C34.5428 212.517 34.8884 212.171 35.3143 212.171L58.4571 212.176C58.8837 212.176 59.2286 212.517 59.2286 212.943Z" fill="#CCD6DD"/>
<path d="M36.0004 42.2854V51.6427C36.0004 53.1867 36.8268 53.5209 36.8268 53.5209L45.5784 60.4011C46.9561 61.4839 46.5864 59.2041 46.5864 59.2041V50.603L36.0004 42.2854Z" fill="#662113"/>
<path d="M57.1724 42.2854V51.6427C57.1724 53.1867 56.3686 53.5209 56.3686 53.5209C56.3686 53.5209 48.9834 59.3183 47.6064 60.4011C46.228 61.4839 46.5864 59.2041 46.5864 59.2041V50.603L57.1724 42.2854Z" fill="#C1694F"/>
<path d="M47.5611 34.3459C46.9917 33.8847 46.0578 33.8847 45.4877 34.3459L36.4276 41.5512C35.8575 42.0125 35.8575 42.7664 36.4276 43.2268L45.5187 50.5206C46.0888 50.9811 47.0227 50.9811 47.5928 50.5206L56.7452 43.1633C57.3153 42.7028 57.3153 41.949 56.7452 41.4877L47.5611 34.3459Z" fill="#D99E82"/>
<path d="M46.5864 60.9999C46.169 60.9999 45.8303 60.6354 45.8303 60.1848V50.4101C45.8303 49.9594 46.169 49.595 46.5864 49.595C47.0046 49.595 47.3425 49.9594 47.3425 50.4101V60.1848C47.3425 60.6354 47.0046 60.9999 46.5864 60.9999Z" fill="#D99E82"/>
<path d="M54.1478 48.2106C54.1478 49.0453 54.2264 49.4552 53.3917 50.0571L51.5247 51.4771C50.69 52.0797 50.3671 51.5625 50.3671 50.727V48.4881C50.3671 48.3421 50.3474 48.1856 50.1569 48.0283C48.2075 46.4215 40.6385 40.4094 39.2593 39.2994L42.7565 36.5183C43.7138 37.2185 50.8873 42.758 53.8884 45.121C54.0374 45.2389 54.1478 45.369 54.1478 45.5111V48.2106Z" fill="#99AAB5"/>
<path d="M53.8877 45.121C50.8873 42.758 43.7138 37.2185 42.7565 36.5183L41.4552 37.5527L39.2593 39.2994C40.6393 40.4094 48.2075 46.4215 50.1569 48.0283C50.2711 48.1228 50.321 48.2174 50.3444 48.3089L54.0745 45.31C54.0291 45.2442 53.9641 45.1807 53.8877 45.121Z" fill="#CCD6DD"/>
<path d="M54.1478 48.2106V45.5111C54.1478 45.369 54.0374 45.2397 53.8877 45.121C50.8873 42.758 43.7138 37.2185 42.7565 36.5183L41.189 37.7652C43.7546 39.7833 50.6265 45.0854 52.4253 46.516C52.6189 46.6703 52.6355 46.8298 52.6355 46.9758V50.6325L53.3917 50.0571C54.2265 49.4544 54.1478 49.0453 54.1478 48.2106Z" fill="#CCD6DD"/>
<path d="M53.8877 45.121C50.8873 42.758 43.7138 37.2185 42.7565 36.5183L41.189 37.7652C43.7546 39.7833 50.6265 45.0854 52.4253 46.516C52.4533 46.538 52.4707 46.5607 52.4911 46.5826L54.0745 45.31C54.0291 45.2442 53.9641 45.1807 53.8877 45.121Z" fill="#E1E8ED"/>
</svg>
