<svg width="443" height="331" viewBox="0 0 443 331" fill="none" xmlns="http://www.w3.org/2000/svg">
<path d="M424 0H19C8.50659 0 0 8.50659 0 19V312C0 322.493 8.50659 331 19 331H424C434.493 331 443 322.493 443 312V19C443 8.50659 434.493 0 424 0Z" fill="#F7FBFF"/>
<path d="M424 0.5H19C8.78273 0.5 0.5 8.78273 0.5 19V312C0.5 322.217 8.78273 330.5 19 330.5H424C434.217 330.5 442.5 322.217 442.5 312V19C442.5 8.78273 434.217 0.5 424 0.5Z" stroke="#99CBF8"/>
<path d="M385 14H58C47.5066 14 39 22.5066 39 33V172C39 182.493 47.5066 191 58 191H385C395.493 191 404 182.493 404 172V33C404 22.5066 395.493 14 385 14Z" fill="white"/>
<path d="M385 14.5H58C47.7827 14.5 39.5 22.7827 39.5 33V172C39.5 182.217 47.7827 190.5 58 190.5H385C395.217 190.5 403.5 182.217 403.5 172V33C403.5 22.7827 395.217 14.5 385 14.5Z" stroke="#99CBF8"/>
<path d="M292.612 57.838V55.764L297.712 49.1H300.398V55.764H301.605V57.838H300.398V61H298.103V57.838H292.612ZM294.975 55.764H298.103V51.701L294.975 55.764ZM304.339 63.72H302.333L303.88 58.637H306.311L304.339 63.72ZM307.512 61V58.926L311.592 54.914C312.51 53.979 313.088 53.333 313.088 52.364C313.088 51.378 312.408 50.8 311.473 50.8C310.334 50.8 309.637 51.497 309.008 52.551L307.138 51.412C308.141 49.78 309.62 48.76 311.694 48.76C313.768 48.76 315.434 50.086 315.434 52.126C315.434 53.758 314.363 55.016 313.19 56.155L310.317 58.926H315.74V61H307.512ZM323.138 57.872V54.37H321.54V52.432H323.138V50.29H325.314V52.432H327.932V54.37H325.314V57.872C325.314 58.824 325.824 59.198 326.674 59.198C327.269 59.198 327.66 59.13 327.949 59.011V60.898C327.524 61.085 327.014 61.17 326.3 61.17C324.158 61.17 323.138 59.963 323.138 57.872ZM333.779 52.092C336.567 52.092 338.471 54.149 338.471 56.716C338.471 59.283 336.567 61.34 333.779 61.34C330.991 61.34 329.087 59.283 329.087 56.716C329.087 54.149 330.991 52.092 333.779 52.092ZM333.813 59.3C335.19 59.3 336.227 58.195 336.227 56.716C336.227 55.22 335.19 54.132 333.813 54.132C332.385 54.132 331.331 55.22 331.331 56.716C331.331 58.212 332.385 59.3 333.813 59.3ZM340.44 61V52.432H342.599V53.112C343.194 52.534 343.993 52.092 345.132 52.092C346.985 52.092 348.464 53.367 348.464 55.9V61H346.288V55.985C346.288 54.846 345.642 54.132 344.588 54.132C343.5 54.132 342.922 54.863 342.599 55.407V61H340.44ZM350.916 61V52.432H353.075V53.112C353.67 52.534 354.469 52.092 355.608 52.092C357.461 52.092 358.94 53.367 358.94 55.9V61H356.764V55.985C356.764 54.846 356.118 54.132 355.064 54.132C353.976 54.132 353.398 54.863 353.075 55.407V61H350.916ZM369.28 59.606C368.481 60.677 367.155 61.34 365.54 61.34C362.497 61.34 360.78 59.215 360.78 56.716C360.78 54.183 362.378 52.092 365.183 52.092C367.563 52.092 369.127 53.707 369.127 55.951C369.127 56.427 369.059 56.869 368.991 57.158H362.99C363.194 58.756 364.18 59.402 365.523 59.402C366.458 59.402 367.274 58.994 367.733 58.382L369.28 59.606ZM365.132 53.86C364.027 53.86 363.296 54.472 363.058 55.594H367.002C366.968 54.727 366.339 53.86 365.132 53.86ZM370.372 59.759L371.8 58.467C372.327 59.13 372.956 59.606 373.772 59.606C374.469 59.606 374.826 59.198 374.826 58.688C374.826 57.192 370.729 57.753 370.729 54.744C370.729 53.231 372.004 52.092 373.789 52.092C375.098 52.092 376.288 52.721 376.9 53.554L375.472 54.812C375.03 54.268 374.469 53.826 373.806 53.826C373.126 53.826 372.803 54.2 372.803 54.642C372.803 56.104 376.9 55.594 376.9 58.552C376.866 60.354 375.421 61.34 373.806 61.34C372.276 61.34 371.188 60.728 370.372 59.759Z" fill="black"/>
<path d="M293.53 105.73L293.887 99.1H300.976V101.174H296.08L295.944 103.656H296.862C300.024 103.656 301.418 105.101 301.418 107.413C301.418 109.844 299.514 111.34 297.066 111.34C294.856 111.34 293.394 110.371 292.408 108.654L294.414 107.413C295.094 108.722 295.91 109.3 297.066 109.3C298.239 109.3 299.072 108.603 299.072 107.498C299.072 106.376 298.239 105.73 296.76 105.73H293.53ZM303.908 113.72H301.902L303.449 108.637H305.88L303.908 113.72ZM307.542 105.73L307.899 99.1H314.988V101.174H310.092L309.956 103.656H310.874C314.036 103.656 315.43 105.101 315.43 107.413C315.43 109.844 313.526 111.34 311.078 111.34C308.868 111.34 307.406 110.371 306.42 108.654L308.426 107.413C309.106 108.722 309.922 109.3 311.078 109.3C312.251 109.3 313.084 108.603 313.084 107.498C313.084 106.376 312.251 105.73 310.772 105.73H307.542ZM322.623 107.872V104.37H321.025V102.432H322.623V100.29H324.799V102.432H327.417V104.37H324.799V107.872C324.799 108.824 325.309 109.198 326.159 109.198C326.754 109.198 327.145 109.13 327.434 109.011V110.898C327.009 111.085 326.499 111.17 325.785 111.17C323.643 111.17 322.623 109.963 322.623 107.872ZM333.265 102.092C336.053 102.092 337.957 104.149 337.957 106.716C337.957 109.283 336.053 111.34 333.265 111.34C330.477 111.34 328.573 109.283 328.573 106.716C328.573 104.149 330.477 102.092 333.265 102.092ZM333.299 109.3C334.676 109.3 335.713 108.195 335.713 106.716C335.713 105.22 334.676 104.132 333.299 104.132C331.871 104.132 330.817 105.22 330.817 106.716C330.817 108.212 331.871 109.3 333.299 109.3ZM339.926 111V102.432H342.085V103.112C342.68 102.534 343.479 102.092 344.618 102.092C346.471 102.092 347.95 103.367 347.95 105.9V111H345.774V105.985C345.774 104.846 345.128 104.132 344.074 104.132C342.986 104.132 342.408 104.863 342.085 105.407V111H339.926ZM350.401 111V102.432H352.56V103.112C353.155 102.534 353.954 102.092 355.093 102.092C356.946 102.092 358.425 103.367 358.425 105.9V111H356.249V105.985C356.249 104.846 355.603 104.132 354.549 104.132C353.461 104.132 352.883 104.863 352.56 105.407V111H350.401ZM368.765 109.606C367.966 110.677 366.64 111.34 365.025 111.34C361.982 111.34 360.265 109.215 360.265 106.716C360.265 104.183 361.863 102.092 364.668 102.092C367.048 102.092 368.612 103.707 368.612 105.951C368.612 106.427 368.544 106.869 368.476 107.158H362.475C362.679 108.756 363.665 109.402 365.008 109.402C365.943 109.402 366.759 108.994 367.218 108.382L368.765 109.606ZM364.617 103.86C363.512 103.86 362.781 104.472 362.543 105.594H366.487C366.453 104.727 365.824 103.86 364.617 103.86ZM369.857 109.759L371.285 108.467C371.812 109.13 372.441 109.606 373.257 109.606C373.954 109.606 374.311 109.198 374.311 108.688C374.311 107.192 370.214 107.753 370.214 104.744C370.214 103.231 371.489 102.092 373.274 102.092C374.583 102.092 375.773 102.721 376.385 103.554L374.957 104.812C374.515 104.268 373.954 103.826 373.291 103.826C372.611 103.826 372.288 104.2 372.288 104.642C372.288 106.104 376.385 105.594 376.385 108.552C376.351 110.354 374.906 111.34 373.291 111.34C371.761 111.34 370.673 110.728 369.857 109.759Z" fill="black"/>
<path d="M297.712 147.76C299.701 147.76 300.942 148.661 301.724 149.698L299.956 151.16C299.344 150.344 298.647 149.834 297.712 149.834C295.995 149.834 295.077 151.075 294.924 153.404C295.689 152.741 296.658 152.367 297.831 152.367C300.194 152.367 301.69 154.05 301.69 156.226C301.69 158.47 300.075 160.34 297.355 160.34C294.261 160.34 292.544 158.079 292.544 154.101C292.544 150.395 294.074 147.76 297.712 147.76ZM297.406 154.407C296.437 154.407 295.604 154.781 294.992 155.58C295.264 157.518 296.097 158.266 297.304 158.266C298.562 158.266 299.327 157.433 299.327 156.311C299.327 155.206 298.545 154.407 297.406 154.407ZM304.041 162.72H302.035L303.582 157.637H306.013L304.041 162.72ZM309.853 160H307.201L313.185 150.174H307.048V148.1H315.616V150.174L309.853 160ZM322.64 156.872V153.37H321.042V151.432H322.64V149.29H324.816V151.432H327.434V153.37H324.816V156.872C324.816 157.824 325.326 158.198 326.176 158.198C326.771 158.198 327.162 158.13 327.451 158.011V159.898C327.026 160.085 326.516 160.17 325.802 160.17C323.66 160.17 322.64 158.963 322.64 156.872ZM333.281 151.092C336.069 151.092 337.973 153.149 337.973 155.716C337.973 158.283 336.069 160.34 333.281 160.34C330.493 160.34 328.589 158.283 328.589 155.716C328.589 153.149 330.493 151.092 333.281 151.092ZM333.315 158.3C334.692 158.3 335.729 157.195 335.729 155.716C335.729 154.22 334.692 153.132 333.315 153.132C331.887 153.132 330.833 154.22 330.833 155.716C330.833 157.212 331.887 158.3 333.315 158.3ZM339.942 160V151.432H342.101V152.112C342.696 151.534 343.495 151.092 344.634 151.092C346.487 151.092 347.966 152.367 347.966 154.9V160H345.79V154.985C345.79 153.846 345.144 153.132 344.09 153.132C343.002 153.132 342.424 153.863 342.101 154.407V160H339.942ZM350.418 160V151.432H352.577V152.112C353.172 151.534 353.971 151.092 355.11 151.092C356.963 151.092 358.442 152.367 358.442 154.9V160H356.266V154.985C356.266 153.846 355.62 153.132 354.566 153.132C353.478 153.132 352.9 153.863 352.577 154.407V160H350.418ZM368.782 158.606C367.983 159.677 366.657 160.34 365.042 160.34C361.999 160.34 360.282 158.215 360.282 155.716C360.282 153.183 361.88 151.092 364.685 151.092C367.065 151.092 368.629 152.707 368.629 154.951C368.629 155.427 368.561 155.869 368.493 156.158H362.492C362.696 157.756 363.682 158.402 365.025 158.402C365.96 158.402 366.776 157.994 367.235 157.382L368.782 158.606ZM364.634 152.86C363.529 152.86 362.798 153.472 362.56 154.594H366.504C366.47 153.727 365.841 152.86 364.634 152.86ZM369.874 158.759L371.302 157.467C371.829 158.13 372.458 158.606 373.274 158.606C373.971 158.606 374.328 158.198 374.328 157.688C374.328 156.192 370.231 156.753 370.231 153.744C370.231 152.231 371.506 151.092 373.291 151.092C374.6 151.092 375.79 151.721 376.402 152.554L374.974 153.812C374.532 153.268 373.971 152.826 373.308 152.826C372.628 152.826 372.305 153.2 372.305 153.642C372.305 155.104 376.402 154.594 376.402 157.552C376.368 159.354 374.923 160.34 373.308 160.34C371.778 160.34 370.69 159.728 369.874 158.759Z" fill="black"/>
<path d="M241.5 54H113.5C112.119 54 111 55.1193 111 56.5C111 57.8807 112.119 59 113.5 59H241.5C242.881 59 244 57.8807 244 56.5C244 55.1193 242.881 54 241.5 54Z" fill="#99CBF8"/>
<path d="M211.5 102H113.5C112.119 102 111 103.119 111 104.5C111 105.881 112.119 107 113.5 107H211.5C212.881 107 214 105.881 214 104.5C214 103.119 212.881 102 211.5 102Z" fill="#99CBF8"/>
<path d="M220.5 152H113.5C112.119 152 111 153.119 111 154.5C111 155.881 112.119 157 113.5 157H220.5C221.881 157 223 155.881 223 154.5C223 153.119 221.881 152 220.5 152Z" fill="#99CBF8"/>
<path d="M86 274.5V208.683C86 205.922 83.7614 203.683 81 203.683C78.2386 203.683 76 205.922 76 208.683V274.5C76 277.262 78.2386 279.5 81 279.5C83.7614 279.5 86 277.262 86 274.5Z" fill="#326FA3"/>
<path d="M145 274.5V222.683C145 219.922 142.761 217.683 140 217.683C137.239 217.683 135 219.922 135 222.683V274.5C135 277.262 137.239 279.5 140 279.5C142.761 279.5 145 277.262 145 274.5Z" fill="#326FA3"/>
<path d="M204 274.5V252.683C204 249.922 201.761 247.683 199 247.683C196.239 247.683 194 249.922 194 252.683V274.5C194 277.262 196.239 279.5 199 279.5C201.761 279.5 204 277.262 204 274.5Z" fill="#326FA3"/>
<path d="M265 274.5V256.683C265 253.922 262.761 251.683 260 251.683C257.239 251.683 255 253.922 255 256.683V274.5C255 277.262 257.239 279.5 260 279.5C262.761 279.5 265 277.262 265 274.5Z" fill="#326FA3"/>
<path d="M326 274.5V270.591C326 267.829 323.761 265.591 321 265.591C318.239 265.591 316 267.829 316 270.591V274.5C316 277.261 318.239 279.5 321 279.5C323.761 279.5 326 277.261 326 274.5Z" fill="#326FA3"/>
<path d="M80.5 49L75.25 43H67L77.5 55.75L86.1408 52.1875L80.5 49Z" fill="#55ACEE"/>
<path d="M85.75 43L80.5 49L84.5425 54.484L85.4628 53.3673L94 43H85.75Z" fill="#3B88C3"/>
<path d="M84.4038 55.0195C84.4638 54.8568 84.502 54.6835 84.502 54.4998C84.502 53.6718 83.83 52.9998 83.002 52.9998H78.0018C77.173 52.9998 76.5018 53.6718 76.5018 54.4998C76.5018 54.6835 76.5393 54.8568 76.6 55.0195C74.1565 56.389 72.502 58.9998 72.502 61.9998C72.5013 66.418 76.0833 70 80.5015 70C84.9198 70 88.5018 66.418 88.5018 61.9998C88.5018 58.9998 86.8473 56.389 84.4038 55.0195Z" fill="#FFAC33"/>
<path d="M81.553 56.95H80.2623L78.2148 58.549C78.1728 58.591 78.1308 58.7035 78.1308 58.759V59.6425C78.1308 59.782 78.2433 59.908 78.3835 59.908H79.7298V66.2185C79.7298 66.3595 79.8423 66.4847 79.996 66.4847H81.553C81.6925 66.4847 81.805 66.3587 81.805 66.2185V57.2155C81.805 57.076 81.6933 56.95 81.553 56.95Z" fill="#9E5200"/>
<path d="M79.5 100L74.25 94H66L76.5 106.75L85.1407 103.188L79.5 100Z" fill="#55ACEE"/>
<path d="M84.75 94L79.5 100L83.5425 105.484L84.4628 104.367L93 94H84.75Z" fill="#3B88C3"/>
<path d="M83.4038 106.02C83.4638 105.857 83.502 105.684 83.502 105.5C83.502 104.672 82.83 104 82.002 104H77.0018C76.173 104 75.5018 104.672 75.5018 105.5C75.5018 105.684 75.5393 105.857 75.6 106.02C73.1565 107.389 71.502 110 71.502 113C71.5013 117.418 75.0833 121 79.5015 121C83.9198 121 87.5018 117.418 87.5018 113C87.5018 110 85.8473 107.389 83.4038 106.02Z" fill="#CCD6DD"/>
<path d="M82.5015 115.691H79.8442C80.5027 114.765 81.6532 113.265 82.1017 112.465C82.4385 111.806 82.6485 111.386 82.6485 110.643C82.6485 109.086 81.471 107.81 79.4655 107.81C77.7967 107.81 76.6605 109.184 76.6605 109.184C76.5622 109.296 76.5765 109.464 76.6747 109.549L77.5305 110.418C77.6422 110.531 77.811 110.531 77.9227 110.418C78.189 110.124 78.708 109.717 79.2825 109.717C80.0677 109.717 80.517 110.193 80.517 110.727C80.517 111.119 80.3347 111.512 80.1525 111.792C79.3245 113.054 77.2492 115.873 76.4362 116.939V117.219C76.4362 117.36 76.548 117.486 76.7025 117.486H82.5015C82.641 117.486 82.7677 117.36 82.7677 117.219V115.958C82.7685 115.817 82.641 115.691 82.5015 115.691Z" fill="#627077"/>
<path d="M79.5 147L74.25 141H66L76.5 153.75L85.1407 150.188L79.5 147Z" fill="#55ACEE"/>
<path d="M84.75 141L79.5 147L83.5425 152.484L84.4628 151.367L93 141H84.75Z" fill="#3B88C3"/>
<path d="M83.4038 153.02C83.4638 152.857 83.502 152.684 83.502 152.5C83.502 151.672 82.83 151 82.002 151H77.0018C76.173 151 75.5018 151.672 75.5018 152.5C75.5018 152.684 75.5393 152.857 75.6 153.02C73.1565 154.389 71.502 157 71.502 160C71.5013 164.418 75.0833 168 79.5015 168C83.9198 168 87.5018 164.418 87.5018 160C87.5018 157 85.8473 154.389 83.4038 153.02Z" fill="#FF8A3B"/>
<path d="M76.5907 163.013L77.4742 162.129C77.5717 162.03 77.7127 162.017 77.8245 162.101C77.8245 162.101 78.6937 162.746 79.3665 162.746C79.9702 162.746 80.5875 162.242 80.5875 161.624C80.5875 161.007 79.956 160.489 78.9187 160.489H78.4395C78.3 160.489 78.174 160.363 78.174 160.223V159.059C78.174 158.904 78.3 158.792 78.4395 158.792H78.9187C79.9005 158.792 80.4187 158.316 80.4187 157.713C80.4187 157.109 79.9005 156.662 79.2967 156.662C78.6795 156.662 78.2872 156.984 78.0772 157.222C77.9782 157.334 77.811 157.334 77.6992 157.237L76.8435 156.395C76.7302 156.296 76.7445 156.129 76.8435 156.031C76.8435 156.031 77.9932 154.796 79.521 154.796C81.1477 154.796 82.5502 155.792 82.5502 157.363C82.5502 158.442 81.7365 159.242 81.1057 159.536V159.578C81.765 159.859 82.8022 160.728 82.8022 161.934C82.8022 163.463 81.4702 164.613 79.5345 164.613C77.769 164.613 76.8705 163.743 76.5765 163.365C76.4917 163.265 76.5067 163.11 76.5907 163.013Z" fill="#7C4119"/>
<path d="M87.5 313C87.5 314.657 86.1567 316 84.5 316H77C75.3432 316 74 314.657 74 313V292C74 290.343 75.3432 289 77 289H84.5C86.1567 289 87.5 290.343 87.5 292V313Z" fill="#31373D"/>
<path d="M80.7493 307.75C82.406 307.75 83.7493 309.093 83.7493 310.75C83.7493 312.407 82.406 313.75 80.7493 313.75C79.0925 313.75 77.7493 312.407 77.7493 310.75C77.7493 309.093 79.0925 307.75 80.7493 307.75Z" fill="#77B255"/>
<path d="M80.7493 299.5C82.406 299.5 83.7493 300.843 83.7493 302.5C83.7493 304.157 82.406 305.5 80.7493 305.5C79.0925 305.5 77.7493 304.157 77.7493 302.5C77.7493 300.843 79.0925 299.5 80.7493 299.5Z" fill="#FFCC4D"/>
<path d="M80.7493 291.25C82.406 291.25 83.7493 292.593 83.7493 294.25C83.7493 295.907 82.406 297.25 80.7493 297.25C79.0925 297.25 77.7493 295.907 77.7493 294.25C77.7493 292.593 79.0925 291.25 80.7493 291.25Z" fill="#DD2E44"/>
<path d="M153 302.5C153 309.956 146.956 316 139.5 316C132.044 316 126 309.956 126 302.5C126 295.044 132.044 289 139.5 289C146.956 289 153 295.044 153 302.5Z" fill="#E1E8ED"/>
<path d="M148.5 302.5C148.5 307.471 144.471 311.5 139.5 311.5C134.529 311.5 130.5 307.471 130.5 302.5C130.5 297.529 134.529 293.5 139.5 293.5C144.471 293.5 148.5 297.529 148.5 302.5Z" fill="#CCD6DD"/>
<path d="M147.75 302.5C147.75 307.056 144.056 310.75 139.5 310.75C134.943 310.75 131.25 307.056 131.25 302.5C131.25 297.943 134.944 294.25 139.5 294.25C144.056 294.25 147.75 297.943 147.75 302.5Z" fill="#E1E8ED"/>
<path d="M126.75 290.5C127.164 290.5 127.5 290.164 127.5 289.75C127.5 289.336 127.164 289 126.75 289C126.336 289 126 289.336 126 289.75C126 290.164 126.336 290.5 126.75 290.5Z" fill="#99AAB5"/>
<path d="M126 289.75H127.5V295H126V289.75Z" fill="#99AAB5"/>
<path d="M129.75 290.5C130.164 290.5 130.5 290.164 130.5 289.75C130.5 289.336 130.164 289 129.75 289C129.336 289 129 289.336 129 289.75C129 290.164 129.336 290.5 129.75 290.5Z" fill="#99AAB5"/>
<path d="M129 289.75H130.5V295H129V289.75Z" fill="#99AAB5"/>
<path d="M132.75 290.5C133.164 290.5 133.5 290.164 133.5 289.75C133.5 289.336 133.164 289 132.75 289C132.336 289 132 289.336 132 289.75C132 290.164 132.336 290.5 132.75 290.5Z" fill="#99AAB5"/>
<path d="M132 289.75H133.5V295H132V289.75ZM128.25 299.5H131.25V314.5H128.25V299.5Z" fill="#99AAB5"/>
<path d="M129.75 316C130.578 316 131.25 315.328 131.25 314.5C131.25 313.672 130.578 313 129.75 313C128.922 313 128.25 313.672 128.25 314.5C128.25 315.328 128.922 316 129.75 316Z" fill="#99AAB5"/>
<path d="M132 295C132 295.414 131.664 295.75 131.25 295.75C130.836 295.75 130.5 295.414 130.5 295H129C129 295.414 128.664 295.75 128.25 295.75C127.836 295.75 127.5 295.414 127.5 295H126C126 297.9 126.75 300.25 129.75 300.25C132.75 300.25 133.5 297.9 133.5 295H132Z" fill="#99AAB5"/>
<path d="M126.75 295.75C127.164 295.75 127.5 295.414 127.5 295C127.5 294.586 127.164 294.25 126.75 294.25C126.336 294.25 126 294.586 126 295C126 295.414 126.336 295.75 126.75 295.75Z" fill="#99AAB5"/>
<path d="M129.75 295.75C130.164 295.75 130.5 295.414 130.5 295C130.5 294.586 130.164 294.25 129.75 294.25C129.336 294.25 129 294.586 129 295C129 295.414 129.336 295.75 129.75 295.75Z" fill="#99AAB5"/>
<path d="M132.75 295.75C133.164 295.75 133.5 295.414 133.5 295C133.5 294.586 133.164 294.25 132.75 294.25C132.336 294.25 132 294.586 132 295C132 295.414 132.336 295.75 132.75 295.75Z" fill="#99AAB5"/>
<path d="M148.5 299.5H151.5V314.5H148.5V299.5Z" fill="#99AAB5"/>
<path d="M150 316C150.828 316 151.5 315.328 151.5 314.5C151.5 313.672 150.828 313 150 313C149.172 313 148.5 313.672 148.5 314.5C148.5 315.328 149.172 316 150 316Z" fill="#99AAB5"/>
<path d="M150 289C150.75 289 151.5 289.75 151.5 291.25V303.25C151.5 303.25 146.25 304.75 146.25 297.25C146.25 292.75 148.5 289 150 289Z" fill="#99AAB5"/>
<path d="M191.6 299.393H189.963C189.737 299.393 189.554 299.209 189.554 298.983V293.256C189.554 293.03 189.737 292.847 189.963 292.847H191.6C191.825 292.847 192.009 293.03 192.009 293.256V298.983C192.009 299.209 191.825 299.393 191.6 299.393Z" fill="#A0041E"/>
<path d="M188.045 300.455L198.682 289.818L209.318 300.455V314.364H188.045V300.455Z" fill="#FFE8B6"/>
<path d="M198.682 300.455H199.5V313.546H198.682V300.455Z" fill="#FFCC4D"/>
<path d="M209.318 301.273C209.109 301.273 208.899 301.193 208.74 301.033L198.682 290.975L188.624 301.033C188.304 301.353 187.787 301.353 187.467 301.033C187.147 300.713 187.147 300.196 187.467 299.876L198.103 289.24C198.423 288.92 198.94 288.92 199.26 289.24L209.896 299.876C210.216 300.196 210.216 300.713 209.896 301.033C209.737 301.193 209.527 301.273 209.318 301.273Z" fill="#66757F"/>
<path d="M198.682 301.273C198.472 301.273 198.263 301.193 198.103 301.033C197.783 300.713 197.783 300.196 198.103 299.876L203.421 294.558C203.741 294.238 204.258 294.238 204.578 294.558C204.898 294.878 204.898 295.395 204.578 295.715L199.26 301.033C199.101 301.193 198.891 301.273 198.682 301.273Z" fill="#66757F"/>
<path d="M192.136 308.636H195.409V313.545H192.136V308.636Z" fill="#C1694F"/>
<path d="M192.136 301.273H195.409V304.545H192.136V301.273ZM202.364 301.273H205.636V304.545H202.364V301.273ZM202.364 308.636H205.636V311.909H202.364V308.636Z" fill="#55ACEE"/>
<path d="M211.363 314.773C211.363 315.45 210.814 316 210.136 316H187.227C186.55 316 186 315.45 186 314.773C186 314.095 186.55 313.545 187.227 313.545H210.136C210.814 313.545 211.363 314.095 211.363 314.773Z" fill="#5C913B"/>
<path d="M251.4 296.486H268.371V310.371H251.4V296.486Z" fill="#292F33"/>
<path d="M252.171 310.371C252.171 311.223 251.711 311.914 251.143 311.914H250.114C249.546 311.914 249.086 311.223 249.086 310.371V296.486C249.086 295.634 249.546 294.943 250.114 294.943H251.142C251.711 294.943 252.171 295.634 252.171 296.486V310.371ZM270.686 310.371C270.686 311.223 270.225 311.914 269.657 311.914H268.628C268.061 311.914 267.6 311.223 267.6 310.371V296.486C267.6 295.634 268.061 294.943 268.628 294.943H269.657C270.225 294.943 270.686 295.634 270.686 296.486V310.371ZM258.343 310.371C258.343 311.223 257.882 311.914 257.315 311.914H256.286C255.718 311.914 255.257 311.223 255.257 310.371V296.486C255.257 295.634 255.718 294.943 256.285 294.943H257.314C257.882 294.943 258.343 295.634 258.343 296.486V310.371ZM264.514 310.371C264.514 311.223 264.053 311.914 263.485 311.914H262.458C261.89 311.914 261.429 311.223 261.429 310.371V296.486C261.429 295.634 261.89 294.943 262.458 294.943H263.485C264.053 294.943 264.514 295.634 264.514 296.486V310.371Z" fill="#CCD6DD"/>
<path d="M271.457 311.143C271.457 311.995 270.766 312.686 269.914 312.686H249.857C249.005 312.686 248.314 311.995 248.314 311.143C248.314 310.291 249.005 309.6 249.857 309.6H269.914C270.766 309.6 271.457 310.291 271.457 311.143Z" fill="#9AAAB4"/>
<path d="M273 312.686C273 313.537 272.309 314.229 271.457 314.229H248.314C247.463 314.229 246.771 313.537 246.771 312.686C246.771 311.834 247.463 311.143 248.314 311.143H271.457C272.309 311.143 273 311.834 273 312.686Z" fill="#CCD6DD"/>
<path d="M273.771 313.843C273.771 314.482 273.253 315 272.614 315H247.157C246.518 315 246 314.482 246 313.843C246 313.204 246.518 312.686 247.157 312.686H272.614C273.253 312.686 273.771 313.204 273.771 313.843Z" fill="#E1E8ED"/>
<path d="M271.457 295.714C271.457 294.863 270.72 294.171 269.812 294.171H249.857C248.948 294.171 248.314 294.863 248.314 295.714C248.314 296.294 248.612 296.793 249.086 297.057V298.029H252.171V297.257H255.257V298.029H258.343V297.257H261.429V298.029H264.514V297.257H267.6V298.029H270.686V297.016C271.148 296.743 271.457 296.264 271.457 295.714Z" fill="#9AAAB4"/>
<path d="M247.543 294.514C247.543 293.719 248.324 293.4 248.324 293.4L259.821 288L271.429 293.4C271.429 293.4 272.229 293.578 272.229 294.519V294.943H247.543V294.514Z" fill="#CCD6DD"/>
<path d="M259.886 289.961C259.886 289.961 251.925 293.714 251.13 294.051C250.335 294.388 250.601 294.943 251.131 294.943H268.601C269.42 294.943 269.227 294.316 268.577 293.979C267.926 293.641 259.886 289.961 259.886 289.961Z" fill="#9AAAB4"/>
<path d="M272.229 294.943C272.229 295.369 271.884 295.714 271.457 295.714H248.314C247.888 295.714 247.543 295.369 247.543 294.943C247.543 294.517 247.888 294.171 248.314 294.171L271.457 294.176C271.884 294.176 272.229 294.517 272.229 294.943Z" fill="#CCD6DD"/>
<path d="M310 296.285V305.643C310 307.187 310.827 307.521 310.827 307.521L319.578 314.401C320.956 315.484 320.586 313.204 320.586 313.204V304.603L310 296.285Z" fill="#662113"/>
<path d="M331.172 296.285V305.643C331.172 307.187 330.369 307.521 330.369 307.521C330.369 307.521 322.983 313.318 321.606 314.401C320.228 315.484 320.586 313.204 320.586 313.204V304.603L331.172 296.285Z" fill="#C1694F"/>
<path d="M321.561 288.346C320.992 287.885 320.058 287.885 319.488 288.346L310.428 295.551C309.857 296.012 309.857 296.766 310.428 297.227L319.519 304.521C320.089 304.981 321.023 304.981 321.593 304.521L330.745 297.163C331.315 296.703 331.315 295.949 330.745 295.488L321.561 288.346Z" fill="#D99E82"/>
<path d="M320.586 315C320.169 315 319.83 314.635 319.83 314.185V304.41C319.83 303.959 320.169 303.595 320.586 303.595C321.005 303.595 321.343 303.959 321.343 304.41V314.185C321.343 314.635 321.005 315 320.586 315Z" fill="#D99E82"/>
<path d="M328.148 302.211C328.148 303.045 328.227 303.455 327.392 304.057L325.525 305.477C324.69 306.08 324.367 305.563 324.367 304.727V302.488C324.367 302.342 324.347 302.186 324.157 302.028C322.208 300.422 314.639 294.409 313.259 293.299L316.757 290.518C317.714 291.218 324.887 296.758 327.889 299.121C328.037 299.239 328.148 299.369 328.148 299.511V302.211Z" fill="#99AAB5"/>
<path d="M327.888 299.121C324.887 296.758 317.714 291.218 316.757 290.518L315.455 291.553L313.259 293.299C314.639 294.409 322.208 300.422 324.157 302.028C324.271 302.123 324.321 302.217 324.344 302.309L328.075 299.31C328.029 299.244 327.964 299.181 327.888 299.121Z" fill="#CCD6DD"/>
<path d="M328.148 302.211V299.511C328.148 299.369 328.037 299.24 327.888 299.121C324.887 296.758 317.714 291.218 316.757 290.518L315.189 291.765C317.755 293.783 324.626 299.085 326.425 300.516C326.619 300.67 326.636 300.83 326.636 300.976V304.632L327.392 304.057C328.226 303.454 328.148 303.045 328.148 302.211Z" fill="#CCD6DD"/>
<path d="M327.888 299.121C324.887 296.758 317.714 291.218 316.757 290.518L315.189 291.765C317.755 293.783 324.626 299.085 326.425 300.516C326.453 300.538 326.471 300.561 326.491 300.583L328.074 299.31C328.029 299.244 327.964 299.181 327.888 299.121Z" fill="#E1E8ED"/>
</svg>
