<svg width="277" height="305" viewBox="0 0 277 305" fill="none" xmlns="http://www.w3.org/2000/svg">
<g filter="url(#filter0_dddd_191_3502)">
<rect x="26" y="5.86646" width="225" height="207" rx="16" fill="#F0F2FB" style="fill:#F0F2FB;fill:color(display-p3 0.9412 0.9490 0.9843);fill-opacity:1;"/>
<path d="M30 29.8665H249V196.866C249 203.494 243.627 208.866 237 208.866H42C35.3726 208.866 30 203.494 30 196.866V29.8665Z" fill="white" style="fill:white;fill-opacity:1;"/>
<rect x="85" y="45.8665" width="109" height="24" rx="10" fill="#F0F2FB" style="fill:#F0F2FB;fill:color(display-p3 0.9412 0.9490 0.9843);fill-opacity:1;"/>
<path d="M94.0686 60.8665V53.8665H98.3886V55.3365H95.8486V56.5665H97.9886V58.0365H95.8486V59.3965H98.3886V60.8665H94.0686ZM99.7252 60.8665V55.8265H101.315V56.0865C101.615 55.8265 102.015 55.6265 102.555 55.6265C103.145 55.6265 103.665 55.8665 104.005 56.3565C104.335 55.9665 104.795 55.6265 105.625 55.6265C106.635 55.6265 107.475 56.3465 107.475 57.8065V60.8665H105.875V57.8765C105.875 57.4265 105.645 57.1165 105.195 57.1165C104.685 57.1165 104.485 57.5565 104.405 57.6865C104.405 57.7265 104.405 57.7665 104.405 57.8065V60.8665H102.805V57.8765C102.805 57.4265 102.575 57.1165 102.125 57.1165C101.625 57.1165 101.425 57.5565 101.315 57.7265V60.8665H99.7252ZM108.729 63.3265V55.8265H110.319V56.1065C110.659 55.7965 111.099 55.6265 111.719 55.6265C113.329 55.6265 114.259 56.8765 114.259 58.3465C114.259 59.8165 113.329 61.0665 111.719 61.0665C111.099 61.0665 110.659 60.8965 110.319 60.5865V63.3265H108.729ZM111.489 57.1165C110.979 57.1165 110.599 57.3365 110.319 57.7165V58.9765C110.619 59.3665 110.989 59.5765 111.489 59.5765C112.189 59.5765 112.619 59.0865 112.619 58.3465C112.619 57.6065 112.189 57.1165 111.489 57.1165ZM115.253 60.8665V55.8265H116.843V56.2365C117.153 55.9465 117.543 55.7265 118.063 55.7265C118.243 55.7265 118.403 55.7565 118.523 55.7965V57.3665C118.353 57.3265 118.163 57.2965 117.903 57.2965C117.323 57.2965 116.943 57.6365 116.843 57.8065V60.8665H115.253ZM123.997 60.0565C123.517 60.6865 122.727 61.0665 121.757 61.0665C119.907 61.0665 118.927 59.8165 118.927 58.3465C118.927 56.8865 119.837 55.6265 121.547 55.6265C122.977 55.6265 123.917 56.5765 123.917 57.9465C123.917 58.2865 123.867 58.6065 123.817 58.7865H120.557C120.707 59.4665 121.147 59.6465 121.747 59.6465C122.227 59.6465 122.647 59.4565 122.877 59.1665L123.997 60.0565ZM121.507 56.9065C120.997 56.9065 120.687 57.1565 120.567 57.6665H122.377C122.357 57.3265 122.097 56.9065 121.507 56.9065ZM125.809 55.2765C125.259 55.2765 124.799 54.8065 124.799 54.2665C124.799 53.7265 125.259 53.2665 125.809 53.2665C126.339 53.2665 126.799 53.7265 126.799 54.2665C126.799 54.8065 126.339 55.2765 125.809 55.2765ZM124.999 60.8665V55.8265H126.589V60.8665H124.999ZM127.889 60.8665V55.8265H129.479V56.1065C129.809 55.8265 130.229 55.6265 130.819 55.6265C131.889 55.6265 132.769 56.3765 132.769 57.9065V60.8665H131.169V57.9765C131.169 57.4665 130.899 57.1165 130.389 57.1165C129.829 57.1165 129.579 57.5565 129.479 57.7265V60.8665H127.889ZM134.372 58.9065V57.2465H133.432V55.8265H134.372V54.5665H135.972V55.8265H137.352V57.2465H135.972V58.9065C135.972 59.3065 136.182 59.5265 136.602 59.5265C136.972 59.5265 137.212 59.4765 137.362 59.4165V60.7865C137.092 60.9065 136.782 60.9665 136.312 60.9665C134.942 60.9665 134.372 60.1465 134.372 58.9065ZM143.03 60.0565C142.55 60.6865 141.76 61.0665 140.79 61.0665C138.94 61.0665 137.96 59.8165 137.96 58.3465C137.96 56.8865 138.87 55.6265 140.58 55.6265C142.01 55.6265 142.95 56.5765 142.95 57.9465C142.95 58.2865 142.9 58.6065 142.85 58.7865H139.59C139.74 59.4665 140.18 59.6465 140.78 59.6465C141.26 59.6465 141.68 59.4565 141.91 59.1665L143.03 60.0565ZM140.54 56.9065C140.03 56.9065 139.72 57.1565 139.6 57.6665H141.41C141.39 57.3265 141.13 56.9065 140.54 56.9065ZM149.237 59.5765C149.637 59.5765 149.957 59.3765 150.137 59.1165L151.377 60.0565C150.907 60.6765 150.157 61.0665 149.227 61.0665C147.447 61.0665 146.427 59.8165 146.427 58.3465C146.427 56.8765 147.447 55.6265 149.227 55.6265C150.157 55.6265 150.907 56.0165 151.377 56.6365L150.137 57.5765C149.957 57.3165 149.647 57.1165 149.207 57.1165C148.557 57.1165 148.077 57.6065 148.077 58.3465C148.077 59.0965 148.557 59.5765 149.237 59.5765ZM153.519 61.0165C152.499 61.0165 151.789 60.4265 151.789 59.4465C151.789 58.6765 152.379 58.0865 153.479 57.9065L154.899 57.6665C154.889 57.2865 154.559 56.9965 154.089 56.9965C153.669 56.9965 153.359 57.1965 153.129 57.5265L151.969 56.6465C152.429 56.0065 153.199 55.6265 154.139 55.6265C155.739 55.6265 156.479 56.5865 156.479 57.6865V60.8665H154.899V60.4865C154.619 60.7965 154.049 61.0165 153.519 61.0165ZM153.359 59.3665C153.359 59.6265 153.559 59.7865 153.869 59.7865C154.379 59.7865 154.699 59.5465 154.899 59.2465V58.7465L153.909 58.9165C153.499 58.9865 153.359 59.1365 153.359 59.3665ZM157.733 60.8665V55.8265H159.323V56.2365C159.633 55.9465 160.023 55.7265 160.543 55.7265C160.723 55.7265 160.883 55.7565 161.003 55.7965V57.3665C160.833 57.3265 160.643 57.2965 160.383 57.2965C159.803 57.2965 159.423 57.6365 159.323 57.8065V60.8665H157.733ZM167.384 58.3465C167.384 59.8165 166.454 61.0665 164.844 61.0665C164.224 61.0665 163.784 60.8965 163.444 60.5865V60.8665H161.854V53.3665H163.444V56.1065C163.784 55.7965 164.224 55.6265 164.844 55.6265C166.454 55.6265 167.384 56.8765 167.384 58.3465ZM164.614 57.1165C164.104 57.1165 163.714 57.3365 163.444 57.7065V58.9865C163.744 59.3665 164.124 59.5765 164.614 59.5765C165.314 59.5765 165.744 59.0865 165.744 58.3465C165.744 57.6065 165.314 57.1165 164.614 57.1165ZM170.868 55.6265C172.518 55.6265 173.648 56.8065 173.648 58.3465C173.648 59.8865 172.518 61.0665 170.868 61.0665C169.208 61.0665 168.078 59.8865 168.078 58.3465C168.078 56.8065 169.208 55.6265 170.868 55.6265ZM170.878 59.5765C171.518 59.5765 172.008 59.0865 172.008 58.3465C172.008 57.5865 171.518 57.1165 170.878 57.1165C170.218 57.1165 169.728 57.5965 169.728 58.3465C169.728 59.0965 170.218 59.5765 170.878 59.5765ZM174.647 60.8665V55.8265H176.237V56.1065C176.567 55.8265 176.987 55.6265 177.577 55.6265C178.647 55.6265 179.527 56.3765 179.527 57.9065V60.8665H177.927V57.9765C177.927 57.4665 177.657 57.1165 177.147 57.1165C176.587 57.1165 176.337 57.5565 176.237 57.7265V60.8665H174.647ZM185.55 60.0565C185.07 60.6865 184.28 61.0665 183.31 61.0665C181.46 61.0665 180.48 59.8165 180.48 58.3465C180.48 56.8865 181.39 55.6265 183.1 55.6265C184.53 55.6265 185.47 56.5765 185.47 57.9465C185.47 58.2865 185.42 58.6065 185.37 58.7865H182.11C182.26 59.4665 182.7 59.6465 183.3 59.6465C183.78 59.6465 184.2 59.4565 184.43 59.1665L185.55 60.0565ZM183.06 56.9065C182.55 56.9065 182.24 57.1565 182.12 57.6665H183.93C183.91 57.3265 183.65 56.9065 183.06 56.9065Z" fill="#AEB7E9" style="fill:#AEB7E9;fill:color(display-p3 0.6824 0.7176 0.9137);fill-opacity:1;"/>
<path d="M99.8736 89.4065C102.7 89.4065 104.14 91.0265 104.14 92.8085C104.14 93.9605 103.582 94.9505 102.484 95.5445C103.924 96.1385 104.698 97.3085 104.698 98.8385C104.698 101.034 103.006 102.726 99.8736 102.726C96.7596 102.726 95.0496 101.034 95.0496 98.8385C95.0496 97.3085 95.8236 96.1385 97.2816 95.5445C96.1656 94.9505 95.6076 93.9605 95.6076 92.8085C95.6076 91.0265 97.0656 89.4065 99.8736 89.4065ZM99.9096 94.6265C100.954 94.6265 101.638 94.0145 101.638 93.0785C101.638 92.1245 100.954 91.4945 99.9096 91.4945C98.7756 91.4945 98.1096 92.1245 98.1096 93.0785C98.1096 94.0145 98.7936 94.6265 99.9096 94.6265ZM99.8916 100.62C101.314 100.62 102.196 99.8645 102.196 98.7125C102.196 97.5245 101.314 96.7145 99.8916 96.7145C98.4516 96.7145 97.5516 97.5245 97.5516 98.7125C97.5516 99.8825 98.4516 100.62 99.8916 100.62ZM107.627 105.246H105.503L107.141 99.8645H109.715L107.627 105.246ZM109.922 99.0185V96.8225L115.322 89.7665H118.166V96.8225H119.444V99.0185H118.166V102.366H115.736V99.0185H109.922ZM112.424 96.8225H115.736V92.5205L112.424 96.8225ZM126.863 99.0545V95.3465H125.171V93.2945H126.863V91.0265H129.167V93.2945H131.939V95.3465H129.167V99.0545C129.167 100.062 129.707 100.458 130.607 100.458C131.237 100.458 131.651 100.386 131.957 100.26V102.258C131.507 102.456 130.967 102.546 130.211 102.546C127.943 102.546 126.863 101.268 126.863 99.0545ZM138.13 92.9345C141.082 92.9345 143.098 95.1125 143.098 97.8305C143.098 100.548 141.082 102.726 138.13 102.726C135.178 102.726 133.162 100.548 133.162 97.8305C133.162 95.1125 135.178 92.9345 138.13 92.9345ZM138.166 100.566C139.624 100.566 140.722 99.3965 140.722 97.8305C140.722 96.2465 139.624 95.0945 138.166 95.0945C136.654 95.0945 135.538 96.2465 135.538 97.8305C135.538 99.4145 136.654 100.566 138.166 100.566ZM145.183 102.366V93.2945H147.469V94.0145C148.099 93.4025 148.945 92.9345 150.151 92.9345C152.113 92.9345 153.679 94.2845 153.679 96.9665V102.366H151.375V97.0565C151.375 95.8505 150.691 95.0945 149.575 95.0945C148.423 95.0945 147.811 95.8685 147.469 96.4445V102.366H145.183ZM156.275 102.366V93.2945H158.561V94.0145C159.191 93.4025 160.037 92.9345 161.243 92.9345C163.205 92.9345 164.771 94.2845 164.771 96.9665V102.366H162.467V97.0565C162.467 95.8505 161.783 95.0945 160.667 95.0945C159.515 95.0945 158.903 95.8685 158.561 96.4445V102.366H156.275ZM175.719 100.89C174.873 102.024 173.469 102.726 171.759 102.726C168.537 102.726 166.719 100.476 166.719 97.8305C166.719 95.1485 168.411 92.9345 171.381 92.9345C173.901 92.9345 175.557 94.6445 175.557 97.0205C175.557 97.5245 175.485 97.9925 175.413 98.2985H169.059C169.275 99.9905 170.319 100.674 171.741 100.674C172.731 100.674 173.595 100.242 174.081 99.5945L175.719 100.89ZM171.327 94.8065C170.157 94.8065 169.383 95.4545 169.131 96.6425H173.307C173.271 95.7245 172.605 94.8065 171.327 94.8065ZM176.876 101.052L178.388 99.6845C178.946 100.386 179.612 100.89 180.476 100.89C181.214 100.89 181.592 100.458 181.592 99.9185C181.592 98.3345 177.254 98.9285 177.254 95.7425C177.254 94.1405 178.604 92.9345 180.494 92.9345C181.88 92.9345 183.14 93.6005 183.788 94.4825L182.276 95.8145C181.808 95.2385 181.214 94.7705 180.512 94.7705C179.792 94.7705 179.45 95.1665 179.45 95.6345C179.45 97.1825 183.788 96.6425 183.788 99.7745C183.752 101.682 182.222 102.726 180.512 102.726C178.892 102.726 177.74 102.078 176.876 101.052ZM90.9939 119.838C90.9939 117.78 92.4079 116.03 94.6199 116.03C95.6699 116.03 96.4959 116.436 97.1259 117.15V112.866H98.3159V123.366H97.1259V122.526C96.4959 123.24 95.6699 123.646 94.6199 123.646C92.4079 123.646 90.9939 121.896 90.9939 119.838ZM92.2539 119.838C92.2539 121.336 93.2619 122.526 94.7599 122.526C95.7399 122.526 96.6079 122.05 97.1259 121.224V118.452C96.5799 117.612 95.7259 117.15 94.7599 117.15C93.2619 117.15 92.2539 118.34 92.2539 119.838ZM107.096 122.204C106.438 123.086 105.388 123.646 104.072 123.646C101.692 123.646 100.222 121.896 100.222 119.838C100.222 117.696 101.594 116.03 103.778 116.03C105.696 116.03 106.942 117.374 106.942 119.11C106.942 119.39 106.9 119.656 106.858 119.852H101.44C101.482 121.546 102.56 122.568 104.072 122.568C104.982 122.568 105.752 122.148 106.214 121.518L107.096 122.204ZM103.75 117.038C102.588 117.038 101.776 117.724 101.524 118.942H105.752C105.71 117.906 104.996 117.038 103.75 117.038ZM117.339 122.414C118.655 122.414 119.733 121.77 120.391 120.818L121.441 121.63C120.545 122.848 119.103 123.646 117.339 123.646C114.273 123.646 112.187 121.266 112.187 118.466C112.187 115.666 114.273 113.286 117.339 113.286C119.103 113.286 120.545 114.098 121.441 115.302L120.391 116.114C119.733 115.162 118.655 114.518 117.339 114.518C115.127 114.518 113.545 116.282 113.545 118.466C113.545 120.65 115.127 122.414 117.339 122.414ZM127.77 113.286C130.822 113.286 132.908 115.666 132.908 118.466C132.908 121.266 130.822 123.646 127.77 123.646C124.704 123.646 122.618 121.266 122.618 118.466C122.618 115.666 124.704 113.286 127.77 113.286ZM127.77 122.414C129.968 122.414 131.55 120.65 131.55 118.466C131.55 116.282 129.968 114.518 127.77 114.518C125.558 114.518 123.976 116.282 123.976 118.466C123.976 120.65 125.558 122.414 127.77 122.414ZM134.573 123.366V122.232L137.891 118.816C139.039 117.612 139.557 117.066 139.557 116.03C139.557 115.008 138.815 114.42 137.821 114.42C136.785 114.42 136.113 114.938 135.539 115.89L134.503 115.26C135.301 114.014 136.393 113.286 137.919 113.286C139.557 113.286 140.859 114.35 140.859 115.946C140.859 117.276 139.991 118.27 138.815 119.502L136.127 122.232H141.125V123.366H134.573ZM147.049 126.81V116.31H148.239V117.15C148.869 116.436 149.695 116.03 150.745 116.03C152.957 116.03 154.371 117.78 154.371 119.838C154.371 121.896 152.957 123.646 150.745 123.646C149.695 123.646 148.869 123.24 148.239 122.526V126.81H147.049ZM150.605 117.15C149.625 117.15 148.771 117.626 148.239 118.466V121.21C148.785 122.064 149.639 122.526 150.605 122.526C152.103 122.526 153.125 121.336 153.125 119.838C153.125 118.34 152.103 117.15 150.605 117.15ZM158.086 123.562C156.7 123.562 155.762 122.792 155.762 121.588C155.762 120.524 156.574 119.768 158.072 119.516L160.452 119.124V118.634C160.452 117.654 159.752 117.094 158.744 117.094C157.932 117.094 157.274 117.472 156.84 118.074L155.944 117.388C156.56 116.548 157.554 116.03 158.786 116.03C160.578 116.03 161.642 117.08 161.642 118.634V123.366H160.452V122.47C159.92 123.156 158.996 123.562 158.086 123.562ZM156.966 121.546C156.966 122.148 157.456 122.582 158.282 122.582C159.22 122.582 159.99 122.134 160.452 121.378V119.992L158.366 120.342C157.4 120.51 156.966 120.944 156.966 121.546ZM164.03 123.366V116.31H165.22V117.192C165.738 116.576 166.382 116.17 167.278 116.17C167.502 116.17 167.712 116.198 167.88 116.254V117.416C167.67 117.36 167.46 117.332 167.18 117.332C166.256 117.332 165.654 117.808 165.22 118.522V123.366H164.03ZM175.285 123.562C173.899 123.562 172.961 122.792 172.961 121.588C172.961 120.524 173.773 119.768 175.271 119.516L177.651 119.124V118.634C177.651 117.654 176.951 117.094 175.943 117.094C175.131 117.094 174.473 117.472 174.039 118.074L173.143 117.388C173.759 116.548 174.753 116.03 175.985 116.03C177.777 116.03 178.841 117.08 178.841 118.634V123.366H177.651V122.47C177.119 123.156 176.195 123.562 175.285 123.562ZM174.165 121.546C174.165 122.148 174.655 122.582 175.481 122.582C176.419 122.582 177.189 122.134 177.651 121.378V119.992L175.565 120.342C174.599 120.51 174.165 120.944 174.165 121.546ZM181.229 123.366V116.31H182.419V117.108C182.993 116.478 183.721 116.03 184.771 116.03C186.353 116.03 187.529 117.094 187.529 119.096V123.366H186.339V119.138C186.339 117.878 185.625 117.15 184.533 117.15C183.511 117.15 182.867 117.738 182.419 118.48V123.366H181.229Z" fill="#4949BA" style="fill:#4949BA;fill:color(display-p3 0.2863 0.2863 0.7294);fill-opacity:1;"/>
<path d="M166 155.866L161.67 147.616L170.33 147.616L166 155.866Z" fill="#4949BA" style="fill:#4949BA;fill:color(display-p3 0.2863 0.2863 0.7294);fill-opacity:1;"/>
<rect x="46" y="155.866" width="187" height="12" rx="6" fill="url(#paint0_linear_191_3502)" style=""/>
<circle cx="46" cy="17.8665" r="4" fill="#AEB7E9" style="fill:#AEB7E9;fill:color(display-p3 0.6824 0.7176 0.9137);fill-opacity:1;"/>
<circle cx="62" cy="17.8665" r="4" fill="#AEB7E9" style="fill:#AEB7E9;fill:color(display-p3 0.6824 0.7176 0.9137);fill-opacity:1;"/>
<circle cx="78" cy="17.8665" r="4" fill="#AEB7E9" style="fill:#AEB7E9;fill:color(display-p3 0.6824 0.7176 0.9137);fill-opacity:1;"/>
</g>
<defs>
<filter id="filter0_dddd_191_3502" x="0" y="0.866455" width="277" height="304" filterUnits="userSpaceOnUse" color-interpolation-filters="sRGB">
<feFlood flood-opacity="0" result="BackgroundImageFix"/>
<feColorMatrix in="SourceAlpha" type="matrix" values="0 0 0 0 0 0 0 0 0 0 0 0 0 0 0 0 0 0 127 0" result="hardAlpha"/>
<feOffset dy="4"/>
<feGaussianBlur stdDeviation="4.5"/>
<feColorMatrix type="matrix" values="0 0 0 0 0.298039 0 0 0 0 0.247059 0 0 0 0 0.203922 0 0 0 0.1 0"/>
<feBlend mode="normal" in2="BackgroundImageFix" result="effect1_dropShadow_191_3502"/>
<feColorMatrix in="SourceAlpha" type="matrix" values="0 0 0 0 0 0 0 0 0 0 0 0 0 0 0 0 0 0 127 0" result="hardAlpha"/>
<feOffset dy="16"/>
<feGaussianBlur stdDeviation="8"/>
<feColorMatrix type="matrix" values="0 0 0 0 0.298039 0 0 0 0 0.247059 0 0 0 0 0.203922 0 0 0 0.09 0"/>
<feBlend mode="normal" in2="effect1_dropShadow_191_3502" result="effect2_dropShadow_191_3502"/>
<feColorMatrix in="SourceAlpha" type="matrix" values="0 0 0 0 0 0 0 0 0 0 0 0 0 0 0 0 0 0 127 0" result="hardAlpha"/>
<feOffset dy="37"/>
<feGaussianBlur stdDeviation="11"/>
<feColorMatrix type="matrix" values="0 0 0 0 0.298039 0 0 0 0 0.247059 0 0 0 0 0.203922 0 0 0 0.05 0"/>
<feBlend mode="normal" in2="effect2_dropShadow_191_3502" result="effect3_dropShadow_191_3502"/>
<feColorMatrix in="SourceAlpha" type="matrix" values="0 0 0 0 0 0 0 0 0 0 0 0 0 0 0 0 0 0 127 0" result="hardAlpha"/>
<feOffset dy="66"/>
<feGaussianBlur stdDeviation="13"/>
<feColorMatrix type="matrix" values="0 0 0 0 0.298039 0 0 0 0 0.247059 0 0 0 0 0.203922 0 0 0 0.01 0"/>
<feBlend mode="normal" in2="effect3_dropShadow_191_3502" result="effect4_dropShadow_191_3502"/>
<feBlend mode="normal" in="SourceGraphic" in2="effect4_dropShadow_191_3502" result="shape"/>
</filter>
<linearGradient id="paint0_linear_191_3502" x1="46" y1="161.866" x2="233" y2="161.866" gradientUnits="userSpaceOnUse">
<stop stop-color="#CEF1D5" style="stop-color:#CEF1D5;stop-color:color(display-p3 0.8078 0.9451 0.8353);stop-opacity:1;"/>
<stop offset="1" stop-color="#FDA354" style="stop-color:#FDA354;stop-color:color(display-p3 0.9922 0.6392 0.3294);stop-opacity:1;"/>
</linearGradient>
</defs>
</svg>
