<svg width="64" height="64" viewBox="0 0 64 64" fill="none" xmlns="http://www.w3.org/2000/svg">
<path d="M31 3C23.5739 3 16.452 5.94999 11.201 11.201C5.94999 16.452 3 23.5739 3 31C3 38.4261 5.94999 45.548 11.201 50.799C16.452 56.05 23.5739 59 31 59C38.4261 59 45.548 56.05 50.799 50.799C56.05 45.548 59 38.4261 59 31C59 23.5739 56.05 16.452 50.799 11.201C45.548 5.94999 38.4261 3 31 3Z" fill="#85CBF8"/>
<path d="M31 3V59C38.4261 59 45.548 56.05 50.799 50.799C56.05 45.548 59 38.4261 59 31C59 23.5739 56.05 16.452 50.799 11.201C45.548 5.94999 38.4261 3 31 3Z" fill="#7BBEEB"/>
<path d="M16.0001 31C16.0001 19.95 19.8801 10.06 26.0001 3.45996C19.5585 4.64223 13.735 8.04518 9.54275 13.0769C5.35049 18.1086 3.05469 24.4507 3.05469 31C3.05469 37.5492 5.35049 43.8913 9.54275 48.923C13.735 53.9547 19.5585 57.3577 26.0001 58.54C19.8801 51.94 16.0001 42.05 16.0001 31Z" fill="#9FDDFF"/>
<path d="M46 31C46 42.05 42.12 51.94 36 58.54C42.4417 57.3577 48.2651 53.9547 52.4574 48.923C56.6497 43.8913 58.9455 37.5492 58.9455 31C58.9455 24.4507 56.6497 18.1086 52.4574 13.0769C48.2651 8.04518 42.4417 4.64223 36 3.45996C42.1 10.06 46 19.95 46 31Z" fill="#75B8E5"/>
<path d="M58.6698 28.35C57.2728 29.8714 55.9925 31.496 54.8398 33.21C54.5423 34.635 54.5972 36.1111 54.9998 37.51C55.4576 38.1703 56.0026 38.7657 56.6198 39.28L58.9998 35L58.6698 28.35ZM57.8298 27.19C56.8055 27.0783 55.8515 26.6154 55.1298 25.88C55.0244 25.6878 54.9585 25.4763 54.9362 25.2582C54.9138 25.04 54.9355 24.8196 54.9998 24.61C55.2304 23.5606 55.746 22.5952 56.4898 21.82C56.5546 21.7373 56.6468 21.6806 56.7498 21.66L58.9998 25L57.8298 27.19ZM9.31982 13.51C11.5598 14.29 12.1498 17.09 12.7098 19.39C13.5798 22.92 16.9998 28 16.9998 28L17.9998 26C18.658 27.3393 19.4593 28.6033 20.3898 29.77C21.4061 31.039 22.626 32.1305 23.9998 33C26.3498 34.12 28.6498 34.28 30.9998 35.4C31.2764 35.501 31.5189 35.6777 31.6998 35.91C32.0898 36.52 31.5298 37.25 31.1498 37.91C30.741 38.6016 30.5422 39.3972 30.5778 40.1997C30.6133 41.0023 30.8815 41.7772 31.3498 42.43C32.3498 43.79 34.2098 44.54 34.6998 46.16C34.8484 46.8168 34.8654 47.4966 34.7498 48.16C34.3965 51.3533 33.9032 54.53 33.2698 57.69C33.2174 57.8594 33.2174 58.0406 33.2698 58.21C33.3998 58.51 33.8098 58.56 34.1398 58.51C35.0813 58.2415 35.9251 57.7068 36.5698 56.97C39.4698 54.21 42.3365 51.42 45.1698 48.6C46.0935 47.7952 46.8452 46.8123 47.3798 45.71C47.6015 44.9012 47.8892 44.1119 48.2398 43.35C48.5198 42.9 48.9198 42.53 49.1698 42.07C49.3212 41.8511 49.4023 41.5912 49.4023 41.325C49.4023 41.0588 49.3212 40.799 49.1698 40.58C48.9225 40.359 48.6172 40.2133 48.2898 40.16L42.8998 38.72C43.4098 37.43 42.1198 36.15 40.8998 35.53C38.4178 34.3148 35.5944 33.9866 32.8998 34.6C32.2577 34.8119 31.6353 35.0796 31.0398 35.4L29.3498 34.73C29.3498 34.73 29.4798 32.82 29.0698 32.51C28.6598 32.2 27.8398 32.42 27.6198 31.93C27.3998 31.44 28.1698 30.93 28.0198 30.37C27.8698 29.81 26.4998 30.37 26.0698 30.42C25.7532 30.4755 25.4276 30.4475 25.1251 30.3388C24.8226 30.2301 24.5537 30.0445 24.3447 29.8003C24.1358 29.556 23.9941 29.2615 23.9336 28.9459C23.8732 28.6302 23.896 28.3042 23.9998 28C24.3198 26.71 25.1898 26.43 26.4998 26.22C28.0598 25.96 29.9098 26.46 30.5698 27.9C30.5915 26.061 31.2647 24.2893 32.4698 22.9C33.6298 21.48 34.6098 21.1 36.1698 20.13C35.9898 20 38.5998 19.66 39.6898 19.27C40.2298 19.08 40.8998 18.63 40.6898 18.1C40.4798 17.57 39.5898 17.75 39.1798 18.2C38.7698 18.65 36.4498 18.26 35.9398 17.91C35.4298 17.56 35.7598 16.91 36.7498 16.91C37.2953 16.8988 37.8181 16.6898 38.221 16.3219C38.6239 15.954 38.8793 15.4522 38.9398 14.91C38.9398 14.53 37.9398 11.97 36.9398 11.97C36.1998 11.97 34.4998 13.5 33.8198 12.39C33.7399 12.1698 33.5853 11.9846 33.3828 11.8668C33.1804 11.7489 32.943 11.7059 32.7121 11.7452C32.4811 11.7845 32.2713 11.9036 32.1192 12.0817C31.9671 12.2599 31.8824 12.4858 31.8798 12.72C31.9796 13.9011 31.6216 15.0754 30.8798 16L25.8798 13.14C25.5548 12.992 25.2802 12.7522 25.0898 12.45C24.7298 11.73 25.4098 10.95 26.0898 10.45C27.6298 9.33 29.0898 8.16 30.5598 7.08C32.0298 6 33.5598 6.74 33.3298 9.08C36.6298 9.47 36.8398 8.08 35.9798 7.03C36.8798 7.36 39.7498 8.1 40.9798 11.03C41.1798 11.52 41.6498 15.25 43.7398 15.76C44.8998 16.04 45.5998 14.52 46.1298 13.76C47.3081 12.4824 48.8765 11.6314 50.5898 11.34L40.9998 5L32.9998 3L26.8098 3.56L25.3698 5.06L27.2298 5.38C27.2298 5.38 24.7498 6.69 24.3698 6.87C24.2798 6.87 24.0398 8.15 23.7698 8.15C21.7989 8.06522 19.8527 7.67734 17.9998 7L9.31982 13.51Z" fill="#72CAAF"/>
<path d="M31 2C25.2644 2 19.6575 3.70082 14.8885 6.88738C10.1195 10.0739 6.40245 14.6031 4.20751 19.9022C2.01257 25.2012 1.43827 31.0322 2.55724 36.6576C3.67621 42.2831 6.43819 47.4504 10.4939 51.5061C14.5496 55.5618 19.7169 58.3238 25.3424 59.4428C30.9678 60.5617 36.7988 59.9874 42.0978 57.7925C47.3969 55.5976 51.9261 51.8806 55.1126 47.1115C58.2992 42.3425 60 36.7357 60 31C60 27.1917 59.2499 23.4206 57.7925 19.9022C56.3351 16.3837 54.199 13.1868 51.5061 10.4939C48.8132 7.801 45.6163 5.66488 42.0978 4.20749C38.5794 2.75011 34.8083 2 31 2ZM57.56 26.16C56.971 26.0022 56.4244 25.7152 55.96 25.32C55.9144 25.1565 55.9144 24.9835 55.96 24.82C56.1105 24.1616 56.3966 23.5417 56.8 23C57.1171 24.037 57.3709 25.0923 57.56 26.16ZM24.43 5.38C24.4617 5.4801 24.5089 5.57459 24.57 5.66L23.93 6C23.7514 6.1058 23.5992 6.25079 23.4849 6.42402C23.3706 6.59726 23.2971 6.79421 23.27 7L23.21 7.19C22.0353 7.09062 20.875 6.86259 19.75 6.51C21.2459 5.81808 22.8025 5.26573 24.4 4.86C24.3639 5.03294 24.3743 5.21236 24.43 5.38ZM17.37 7.71C17.4759 7.80932 17.6022 7.8844 17.74 7.93C19.6647 8.64655 21.6886 9.06144 23.74 9.16C24.63 9.16 24.93 8.26 25.14 7.59L27.7 6.27C27.8848 6.17235 28.0343 6.01929 28.1275 5.83231C28.2208 5.64533 28.2532 5.43382 28.2201 5.2275C28.187 5.02118 28.0901 4.83042 27.943 4.682C27.7959 4.53358 27.606 4.43496 27.4 4.4L27.54 4.26C31.362 3.75232 35.2484 4.07463 38.9345 5.20496C42.6206 6.33529 46.0197 8.24708 48.9 10.81C47.4846 11.2441 46.2266 12.0816 45.28 13.22C45.18 13.36 45.08 13.52 44.97 13.69C44.72 14.08 44.21 14.89 43.97 14.82C42.84 14.54 42.29 12.22 42.08 11.35C42.0308 11.1229 41.9673 10.8991 41.89 10.68C41.39 9.59579 40.6565 8.63553 39.7419 7.86795C38.8274 7.10037 37.7545 6.54445 36.6 6.24L36.35 6.15C36.1426 6.06242 35.9117 6.04739 35.6947 6.10733C35.4777 6.16728 35.2873 6.29869 35.1543 6.48031C35.0212 6.66193 34.9534 6.88313 34.9617 7.10811C34.97 7.33309 35.054 7.54868 35.2 7.72C35.35 7.91 35.41 8.07 35.43 8.04C35.0879 8.21436 34.6997 8.2773 34.32 8.22C34.2935 7.77137 34.1599 7.33564 33.9302 6.94936C33.7005 6.56308 33.3815 6.23752 33 6C32.5176 5.76571 31.9776 5.67598 31.4453 5.74163C30.913 5.80729 30.4111 6.02551 30 6.37C29.27 6.91 28.53 7.47 27.79 8.03C27.05 8.59 26.29 9.17 25.53 9.73C24.23 10.73 23.74 11.92 24.26 12.96C24.537 13.4124 24.9402 13.7739 25.42 14L30.42 16.86C30.6248 16.9779 30.8646 17.0194 31.0971 16.9773C31.3295 16.9352 31.5396 16.8122 31.69 16.63C32.5725 15.551 33.0217 14.1821 32.95 12.79L33.03 12.9C33.96 14.4 35.65 13.59 36.46 13.21L36.94 12.98C37.4046 13.5725 37.7448 14.2528 37.94 14.98C37.9021 15.2086 37.781 15.4152 37.6 15.56C37.3999 15.7729 37.1304 15.9076 36.84 15.94C36.4335 15.8691 36.015 15.9346 35.6497 16.1263C35.2843 16.318 34.9926 16.6252 34.82 17C34.7144 17.3085 34.715 17.6436 34.822 17.9517C34.9289 18.2598 35.1359 18.5232 35.41 18.7C35.6513 18.843 35.9101 18.9539 36.18 19.03C35.9117 19.0822 35.6627 19.2066 35.46 19.39L34.78 19.8C33.6289 20.4076 32.6093 21.2368 31.78 22.24C30.9138 23.2748 30.2765 24.4812 29.91 25.78C28.8309 25.2309 27.6033 25.045 26.41 25.25C25.41 25.42 23.61 25.72 23.11 27.78C22.9881 28.2589 22.9863 28.7606 23.105 29.2403C23.2236 29.7201 23.4589 30.1631 23.79 30.53C24.0942 30.8659 24.4781 31.1198 24.9063 31.2684C25.3344 31.4169 25.7931 31.4553 26.24 31.38L26.64 31.3C26.5471 31.6314 26.5719 31.9848 26.71 32.3C26.8499 32.5901 27.0663 32.8366 27.3359 33.0128C27.6056 33.189 27.9181 33.2883 28.24 33.3H28.32V33.38L27.79 33.23C26.6449 32.9505 25.5271 32.569 24.45 32.09C23.3119 31.3565 22.2989 30.4449 21.45 29.39L21.17 29.09C20.3036 27.9922 19.556 26.8056 18.94 25.55C18.8532 25.3773 18.7183 25.2334 18.5515 25.1358C18.3846 25.0382 18.1931 24.991 18 25C17.8153 25.0006 17.6344 25.0522 17.4773 25.1493C17.3203 25.2464 17.1931 25.3851 17.11 25.55L16.9 26C15.535 23.8776 14.4557 21.5845 13.69 19.18L13.62 18.89C13.13 16.89 12.52 14.46 10.76 13.19C12.6591 11.0247 14.8903 9.17491 17.37 7.71ZM4.00001 31C3.9961 25.1152 5.92492 19.392 9.49001 14.71C10.74 15.53 11.24 17.53 11.67 19.33L11.74 19.62C12.64 23.29 16.02 28.34 16.17 28.56C16.2677 28.7041 16.4014 28.8202 16.5577 28.8968C16.7141 28.9733 16.8877 29.0078 17.0615 28.9967C17.2352 28.9856 17.403 28.9293 17.5484 28.8334C17.6937 28.7375 17.8114 28.6054 17.89 28.45L18.04 28.16C18.5045 28.9741 19.047 29.741 19.66 30.45L19.93 30.75C20.9463 32.0109 22.1788 33.0809 23.57 33.91C24.7501 34.438 25.975 34.8597 27.23 35.17C27.82 35.33 28.39 35.49 28.95 35.67L30.6 36.32L30.81 36.43C30.7067 36.6753 30.5794 36.9097 30.43 37.13L30.3 37.34C29.7823 38.2036 29.5292 39.2 29.5718 40.206C29.6145 41.2119 29.9511 42.1833 30.54 43C31.0137 43.5936 31.5577 44.1275 32.16 44.59C32.8453 45.0399 33.3896 45.6742 33.73 46.42C33.8347 46.9583 33.8347 47.5117 33.73 48.05C33.38 51.21 32.88 54.38 32.26 57.49C32.2232 57.6542 32.2031 57.8217 32.2 57.99C31.8 57.99 31.39 57.99 30.98 57.99C23.8244 57.9847 16.9635 55.1391 11.9046 50.0784C6.84572 45.0176 4.00266 38.1556 4.00001 31ZM32.71 35.7L33.08 35.57C35.5554 35.0101 38.1477 35.3099 40.43 36.42C41.35 36.88 42.21 37.74 41.97 38.35C41.9189 38.4815 41.8962 38.6223 41.9034 38.7632C41.9106 38.9041 41.9475 39.0419 42.0117 39.1675C42.0759 39.2931 42.166 39.4037 42.276 39.4921C42.386 39.5804 42.5135 39.6444 42.65 39.68L48 41.09L48.37 41.18C48.3796 41.3097 48.3481 41.4392 48.28 41.55C48.1618 41.7439 48.028 41.9278 47.88 42.1C47.6947 42.3218 47.5243 42.5556 47.37 42.8C47.0741 43.3271 46.852 43.8924 46.71 44.48C46.6347 44.7612 46.5446 45.0383 46.44 45.31C45.9452 46.2818 45.2659 47.1479 44.44 47.86C41.61 50.67 38.72 53.48 35.85 56.21C35.41 56.6786 34.8924 57.0676 34.32 57.36C34.91 54.36 35.38 51.29 35.72 48.25C35.8529 47.4455 35.8223 46.6224 35.63 45.83C35.2049 44.6859 34.4409 43.6986 33.44 43C32.9639 42.6375 32.531 42.2214 32.15 41.76C31.802 41.2671 31.6029 40.6847 31.5763 40.082C31.5497 39.4793 31.6968 38.8816 32 38.36L32.12 38.17C32.404 37.8327 32.6052 37.4337 32.7076 37.0049C32.8101 36.5761 32.8109 36.1292 32.71 35.7ZM37.78 57.14C40.48 54.56 43.2 51.92 45.86 49.28C46.8789 48.3816 47.7055 47.2863 48.29 46.06C48.4205 45.7328 48.534 45.399 48.63 45.06C48.7287 44.6458 48.88 44.2459 49.08 43.87C49.1893 43.6991 49.3096 43.5354 49.44 43.38C49.661 43.1179 49.8584 42.8368 50.03 42.54C50.2782 42.137 50.3961 41.6672 50.3674 41.1947C50.3388 40.7222 50.1651 40.2701 49.87 39.9C49.497 39.5339 49.0236 39.2868 48.51 39.19L44 38C43.8666 37.2614 43.5493 36.5682 43.0774 35.9845C42.6056 35.4008 41.9943 34.9453 41.3 34.66C38.6058 33.3329 35.5352 32.9795 32.61 33.66C32.0363 33.829 31.4803 34.0534 30.95 34.33L30.34 34C30.34 32.22 29.84 31.84 29.64 31.68C29.3886 31.4954 29.0975 31.3721 28.79 31.32C29.0072 30.9528 29.0819 30.5187 29 30.1C28.66 28.86 27.13 29.18 26.23 29.37L25.94 29.43C25.8188 29.4539 25.6936 29.4462 25.5762 29.4076C25.4589 29.3691 25.3534 29.3011 25.27 29.21C25.162 29.0858 25.0863 28.9368 25.0497 28.7763C25.013 28.6158 25.0166 28.4488 25.06 28.29C25.21 27.67 25.44 27.47 26.75 27.29C27.87 27.1 29.3 27.43 29.75 28.4C29.8457 28.611 30.0117 28.7822 30.2196 28.8844C30.4276 28.9865 30.6645 29.0134 30.89 28.9602C31.1155 28.9071 31.3156 28.7773 31.456 28.5931C31.5965 28.4088 31.6686 28.1815 31.66 27.95C31.6775 26.3359 32.2736 24.7817 33.34 23.57C34.0285 22.7401 34.8792 22.0595 35.84 21.57L36.84 21L37.74 20.81C38.5585 20.6698 39.3669 20.476 40.16 20.23C40.8215 20.024 41.3795 19.5733 41.72 18.97C41.8025 18.7772 41.8451 18.5697 41.8451 18.36C41.8451 18.1503 41.8025 17.9428 41.72 17.75C41.6239 17.5049 41.4653 17.2892 41.2601 17.1243C41.0548 16.9595 40.8101 16.8511 40.55 16.81C40.2133 16.7651 39.8709 16.7956 39.5474 16.8994C39.224 17.0031 38.9277 17.1776 38.68 17.41H38.61C38.7502 17.2834 38.8806 17.1463 39 17C39.3077 16.7401 39.5562 16.4173 39.7287 16.0534C39.9011 15.6894 39.9937 15.2927 40 14.89C40 14.42 39 11 37 11C36.5027 11.045 36.0214 11.1986 35.59 11.45C35.3002 11.6043 34.9952 11.7282 34.68 11.82C34.4506 11.4236 34.092 11.1179 33.6643 10.9541C33.2366 10.7903 32.7656 10.7782 32.33 10.92C31.9239 11.05 31.57 11.3065 31.3199 11.6519C31.0699 11.9973 30.9368 12.4136 30.94 12.84C30.9894 13.48 30.8686 14.1217 30.59 14.7L26.41 12.3C26.276 12.2266 26.1459 12.1465 26.02 12.06C26.1537 11.743 26.3849 11.4768 26.68 11.3C27.46 10.73 28.22 10.15 28.98 9.57C29.74 8.99 30.44 8.46 31.16 7.93C31.5 7.68 31.84 7.59 32.03 7.69C32.22 7.79 32.41 8.27 32.34 9.05C32.3174 9.30911 32.3967 9.56682 32.561 9.76845C32.7253 9.97008 32.9617 10.0998 33.22 10.13C35.3 10.38 36.63 10 37.22 9.02C37.2814 8.91205 37.3317 8.79813 37.37 8.68C38.5523 9.24095 39.4879 10.2158 40 11.42C40 11.5 40.06 11.63 40.1 11.81C40.41 13.12 41.1 16.19 43.46 16.81C45.12 17.21 46.12 15.65 46.65 14.81L46.9 14.42C47.8659 13.3939 49.1278 12.6947 50.51 12.42L50.6 12.49C52.9076 14.9367 54.7389 17.7921 56 20.91C55.9107 20.9763 55.8271 21.0498 55.75 21.13C54.875 22.0368 54.2691 23.1689 54 24.4C53.9096 24.7341 53.8861 25.0827 53.9307 25.4259C53.9753 25.7691 54.0872 26.1001 54.26 26.4C55.1001 27.3205 56.2288 27.9272 57.46 28.12C56.1444 29.5587 54.9503 31.104 53.89 32.74C53.49 33.58 53.47 37 54.1 37.99C54.6096 38.7359 55.2185 39.4088 55.91 39.99C56.0323 40.0888 56.1762 40.1573 56.33 40.19C54.8348 44.3022 52.3667 47.9915 49.1365 50.943C45.9064 53.8946 42.01 56.0207 37.78 57.14ZM57 38.28C56.5633 37.9015 56.1738 37.4717 55.84 37C55.6141 35.9148 55.5701 34.7996 55.71 33.7C56.3921 32.6431 57.1543 31.6402 57.99 30.7C57.99 30.81 57.99 30.93 57.99 31.04C57.9906 33.4871 57.6575 35.9229 57 38.28Z" fill="#8D6C9F"/>
<path d="M16.8602 43.73L15.4502 45.15C15.2632 45.3383 15.1587 45.5931 15.1597 45.8585C15.1601 45.9899 15.1865 46.1199 15.2372 46.2411C15.2879 46.3623 15.362 46.4724 15.4552 46.565C15.5485 46.6575 15.659 46.7309 15.7806 46.7807C15.9022 46.8306 16.0324 46.856 16.1638 46.8555C16.4291 46.8546 16.6833 46.7483 16.8702 46.56L18.2802 45.14C18.4672 44.9517 18.5717 44.6968 18.5708 44.4314C18.5698 44.1661 18.4635 43.9119 18.2752 43.725C18.0869 43.538 17.8321 43.4335 17.5667 43.4344C17.3013 43.4353 17.0472 43.5417 16.8602 43.73ZM22.1002 46.67C21.9861 46.6038 21.86 46.561 21.7292 46.5438C21.5984 46.5266 21.4656 46.5355 21.3382 46.5698C21.2109 46.6042 21.0916 46.6635 20.9873 46.7442C20.8829 46.8248 20.7956 46.9254 20.7302 47.04L19.7302 48.77C19.6579 48.8838 19.6093 49.0111 19.5874 49.1441C19.5655 49.2772 19.5708 49.4134 19.6029 49.5444C19.6349 49.6754 19.6932 49.7985 19.7741 49.9064C19.855 50.0143 19.9569 50.1047 20.0737 50.1722C20.1905 50.2397 20.3197 50.2829 20.4536 50.2991C20.5874 50.3154 20.7232 50.3044 20.8528 50.2668C20.9823 50.2293 21.1029 50.1659 21.2073 50.0805C21.3117 49.9951 21.3977 49.8895 21.4602 49.77L22.4602 48.04C22.5268 47.9264 22.5702 47.8009 22.5881 47.6705C22.6061 47.5401 22.5981 47.4075 22.5646 47.2802C22.5312 47.153 22.4729 47.0335 22.3932 46.9288C22.3136 46.8241 22.214 46.7361 22.1002 46.67ZM13.4802 35.43C13.4122 35.1743 13.2455 34.956 13.0169 34.823C12.7882 34.6899 12.5161 34.6529 12.2602 34.72L10.3302 35.24C10.1995 35.2704 10.0763 35.3269 9.96785 35.406C9.85942 35.485 9.76802 35.5851 9.69909 35.7003C9.63016 35.8154 9.58512 35.9433 9.56665 36.0762C9.54817 36.2092 9.55665 36.3445 9.59156 36.474C9.62648 36.6036 9.68712 36.7249 9.76987 36.8305C9.85263 36.9362 9.95581 37.0241 10.0733 37.089C10.1907 37.154 10.32 37.1946 10.4535 37.2085C10.587 37.2224 10.7219 37.2093 10.8502 37.17L12.7802 36.65C13.034 36.5798 13.2499 36.4123 13.381 36.1838C13.512 35.9554 13.5477 35.6845 13.4802 35.43ZM26.5702 48.52C26.3143 48.4529 26.0422 48.4899 25.8136 48.623C25.5849 48.756 25.4183 48.9743 25.3502 49.23L24.8302 51.16C24.7909 51.2883 24.7778 51.4232 24.7917 51.5567C24.8056 51.6902 24.8462 51.8195 24.9112 51.9369C24.9761 52.0544 25.064 52.1576 25.1697 52.2403C25.2753 52.3231 25.3966 52.3837 25.5262 52.4186C25.6557 52.4535 25.791 52.462 25.924 52.4435C26.0569 52.4251 26.1847 52.38 26.2999 52.3111C26.4151 52.2422 26.5152 52.1508 26.5942 52.0423C26.6733 51.9339 26.7298 51.8107 26.7602 51.68L27.2802 49.75C27.315 49.6226 27.3241 49.4896 27.3072 49.3586C27.2902 49.2277 27.2475 49.1014 27.1815 48.987C27.1155 48.8727 27.0275 48.7725 26.9226 48.6924C26.8177 48.6122 26.6979 48.5536 26.5702 48.52ZM15.3302 39.9C15.1986 39.6792 14.987 39.5175 14.7393 39.4486C14.4917 39.3797 14.227 39.4089 14.0002 39.53L12.2702 40.53C12.0526 40.6683 11.8968 40.8855 11.8354 41.136C11.7741 41.3865 11.8119 41.651 11.9409 41.8743C12.07 42.0976 12.2804 42.2624 12.5281 42.3343C12.7758 42.4061 13.0417 42.3795 13.2702 42.26L15.0002 41.26C15.2222 41.1215 15.3811 40.9016 15.4428 40.6473C15.5045 40.3931 15.4641 40.1248 15.3302 39.9Z" fill="#8D6C9F"/>
</svg>
