<svg width="80" height="81" viewBox="0 0 80 81" fill="none" xmlns="http://www.w3.org/2000/svg">
<path d="M65.9836 10.8982L52.887 4.4098C52.6356 4.29009 52.3603 4.21826 52.073 4.21826H28.9205C28.6452 4.21826 28.3579 4.27812 28.1065 4.4098L15.0099 10.8982C14.6747 11.0658 14.3994 11.3292 14.2198 11.6524L3.94846 30.4353C3.44566 31.3571 3.81677 32.5183 4.77447 32.9613L19.0562 39.7131C19.6907 40.0124 20.0977 40.6588 20.0977 41.3651V74.8727C20.0977 75.8783 20.9117 76.7043 21.9293 76.7043H59.1001C60.1057 76.7043 60.9317 75.8903 60.9317 74.8727V41.3651C60.9317 40.6588 61.3387 40.0124 61.9732 39.7131L76.2549 32.9613C77.2006 32.5064 77.5837 31.3571 77.0809 30.4353L66.7856 11.6524C66.6061 11.3292 66.3307 11.0658 65.9955 10.8982H65.9836Z" fill="#A2D2FD" style="fill:#A2D2FD;fill:color(display-p3 0.6353 0.8235 0.9922);fill-opacity:1;"/>
<path d="M50.1288 24.2951L46.1333 28.2905L50.1288 32.286L54.1242 28.2905L50.1288 24.2951Z" fill="white" style="fill:white;fill-opacity:1;"/>
<path d="M67.5399 11.5567C67.2047 10.9342 66.678 10.4433 66.0555 10.1321L53.2103 3.76337C52.8631 3.59577 52.4681 3.5 52.085 3.5H28.9326C28.5495 3.5 28.1544 3.59577 27.8073 3.76337L14.9621 10.1321C14.3276 10.4433 13.8128 10.9461 13.4776 11.5567L3.31404 30.0882C2.97885 30.6987 2.90702 31.429 3.1225 32.0994C3.33799 32.7578 3.82881 33.3204 4.45131 33.6077L18.733 40.3595C19.1041 40.5391 19.3436 40.8982 19.3555 41.3053V43.7953V73.9749C19.3555 75.8783 20.8998 77.4106 22.7913 77.4106H58.1664C60.0698 77.4106 61.6021 75.8663 61.6021 73.9749V41.3651C61.6021 40.9342 61.8535 40.5511 62.2366 40.3595L76.5183 33.6077C77.1528 33.3085 77.6317 32.7578 77.8472 32.0994C78.0626 31.4409 77.9908 30.6987 77.6556 30.0882L67.492 11.5567H67.5399ZM51.0555 4.94852C51.6421 4.94852 52.061 5.4992 51.9294 6.07382C50.84 10.4912 46.3148 13.8073 40.9158 13.8073C35.5168 13.8073 30.9916 10.4792 29.9022 6.06185C29.7586 5.4992 30.1895 4.93655 30.7761 4.93655C34.5591 4.93655 47.2725 4.93655 51.0555 4.93655V4.94852ZM19.3675 24.9405V38.9709C19.3675 38.9709 19.3316 39.0547 19.2837 39.0307C18.0986 38.4681 5.07382 32.3148 5.07382 32.3148C4.79848 32.1832 4.583 31.9437 4.4992 31.6564C4.40343 31.3571 4.42737 31.0579 4.583 30.7825L13.729 14.0826C14.0642 13.4721 14.9022 13.4122 15.3332 13.9509C19.6309 19.2901 19.3675 24.8328 19.3675 24.9405ZM60.2015 24.9405V73.9868C60.2015 75.0882 59.3037 75.986 58.2023 75.986H24.2159C22.3364 75.986 20.828 74.4657 20.828 72.5982V41.3771C20.828 41.3771 20.828 41.3412 20.828 41.3172V24.9884C20.84 24.7011 21.1512 18.5 16.0994 12.5982C13.6931 10.8264 27.2326 5.6668 27.2326 5.6668C27.7474 5.4154 28.3579 5.70271 28.4896 6.25339C29.6628 11.3771 34.7985 15.2318 40.9278 15.2318C47.0571 15.2318 51.9653 11.5327 53.2821 6.57662C53.4258 6.03791 54.0363 5.76257 54.5391 6.01397C54.5391 6.01397 66.6301 10.8863 65.4689 12.0116C59.8783 18.069 60.2135 24.6891 60.2255 24.9286L60.2015 24.9405ZM76.5183 31.6564C76.4226 31.9557 76.2191 32.1832 75.9437 32.3148C75.9437 32.3148 64.3915 37.7737 62.0571 38.8871C61.8655 38.9828 61.65 38.8392 61.65 38.6237V24.9046C61.65 24.9046 61.4106 19.7091 65.2175 14.5615C65.84 13.7115 67.1568 13.8432 67.6596 14.765L76.4465 30.7945C76.5902 31.0698 76.6261 31.3691 76.5303 31.6684L76.5183 31.6564Z" fill="#433F40" style="fill:#433F40;fill:color(display-p3 0.2627 0.2471 0.2510);fill-opacity:1;"/>
<path d="M45.4289 28.5918L49.8343 32.9972C50.0019 33.1648 50.2773 33.1648 50.4449 32.9972L54.8503 28.5918C55.0179 28.4242 55.0179 28.1489 54.8503 27.9813L50.7322 23.8631C50.409 23.5399 49.8822 23.5399 49.547 23.8631L45.4289 27.9813C45.2613 28.1489 45.2613 28.4242 45.4289 28.5918ZM49.8343 30.9621L47.4521 28.5798C47.2845 28.4122 47.2845 28.1369 47.4521 27.9693L50.1336 25.2877L52.8152 27.9693C52.9828 28.1369 52.9828 28.4122 52.8152 28.5798L50.4329 30.9621C50.2653 31.1297 49.99 31.1297 49.8224 30.9621H49.8343Z" fill="#433F40" style="fill:#433F40;fill:color(display-p3 0.2627 0.2471 0.2510);fill-opacity:1;"/>
</svg>
