<svg width="694" height="340" viewBox="0 0 694 340" fill="none" xmlns="http://www.w3.org/2000/svg">
<g filter="url(#filter0_dddd_0_1523)">
<rect x="26" y="5" width="642" height="243" rx="16" fill="#F0F2FB" style="fill:#F0F2FB;fill:color(display-p3 0.9412 0.9490 0.9843);fill-opacity:1;"/>
<path d="M30 29H345V232C345 238.627 339.627 244 333 244H42C35.3726 244 30 238.627 30 232V29Z" fill="white" style="fill:white;fill-opacity:1;"/>
<rect x="133" y="45" width="109" height="24" rx="10" fill="#F0F2FB" style="fill:#F0F2FB;fill:color(display-p3 0.9412 0.9490 0.9843);fill-opacity:1;"/>
<path d="M142.069 60V53H146.389V54.47H143.849V55.7H145.989V57.17H143.849V58.53H146.389V60H142.069ZM147.725 60V54.96H149.315V55.22C149.615 54.96 150.015 54.76 150.555 54.76C151.145 54.76 151.665 55 152.005 55.49C152.335 55.1 152.795 54.76 153.625 54.76C154.635 54.76 155.475 55.48 155.475 56.94V60H153.875V57.01C153.875 56.56 153.645 56.25 153.195 56.25C152.685 56.25 152.485 56.69 152.405 56.82C152.405 56.86 152.405 56.9 152.405 56.94V60H150.805V57.01C150.805 56.56 150.575 56.25 150.125 56.25C149.625 56.25 149.425 56.69 149.315 56.86V60H147.725ZM156.729 62.46V54.96H158.319V55.24C158.659 54.93 159.099 54.76 159.719 54.76C161.329 54.76 162.259 56.01 162.259 57.48C162.259 58.95 161.329 60.2 159.719 60.2C159.099 60.2 158.659 60.03 158.319 59.72V62.46H156.729ZM159.489 56.25C158.979 56.25 158.599 56.47 158.319 56.85V58.11C158.619 58.5 158.989 58.71 159.489 58.71C160.189 58.71 160.619 58.22 160.619 57.48C160.619 56.74 160.189 56.25 159.489 56.25ZM163.253 60V54.96H164.843V55.37C165.153 55.08 165.543 54.86 166.063 54.86C166.243 54.86 166.403 54.89 166.523 54.93V56.5C166.353 56.46 166.163 56.43 165.903 56.43C165.323 56.43 164.943 56.77 164.843 56.94V60H163.253ZM171.997 59.19C171.517 59.82 170.727 60.2 169.757 60.2C167.907 60.2 166.927 58.95 166.927 57.48C166.927 56.02 167.837 54.76 169.547 54.76C170.977 54.76 171.917 55.71 171.917 57.08C171.917 57.42 171.867 57.74 171.817 57.92H168.557C168.707 58.6 169.147 58.78 169.747 58.78C170.227 58.78 170.647 58.59 170.877 58.3L171.997 59.19ZM169.507 56.04C168.997 56.04 168.687 56.29 168.567 56.8H170.377C170.357 56.46 170.097 56.04 169.507 56.04ZM173.809 54.41C173.259 54.41 172.799 53.94 172.799 53.4C172.799 52.86 173.259 52.4 173.809 52.4C174.339 52.4 174.799 52.86 174.799 53.4C174.799 53.94 174.339 54.41 173.809 54.41ZM172.999 60V54.96H174.589V60H172.999ZM175.889 60V54.96H177.479V55.24C177.809 54.96 178.229 54.76 178.819 54.76C179.889 54.76 180.769 55.51 180.769 57.04V60H179.169V57.11C179.169 56.6 178.899 56.25 178.389 56.25C177.829 56.25 177.579 56.69 177.479 56.86V60H175.889ZM182.372 58.04V56.38H181.432V54.96H182.372V53.7H183.972V54.96H185.352V56.38H183.972V58.04C183.972 58.44 184.182 58.66 184.602 58.66C184.972 58.66 185.212 58.61 185.362 58.55V59.92C185.092 60.04 184.782 60.1 184.312 60.1C182.942 60.1 182.372 59.28 182.372 58.04ZM191.03 59.19C190.55 59.82 189.76 60.2 188.79 60.2C186.94 60.2 185.96 58.95 185.96 57.48C185.96 56.02 186.87 54.76 188.58 54.76C190.01 54.76 190.95 55.71 190.95 57.08C190.95 57.42 190.9 57.74 190.85 57.92H187.59C187.74 58.6 188.18 58.78 188.78 58.78C189.26 58.78 189.68 58.59 189.91 58.3L191.03 59.19ZM188.54 56.04C188.03 56.04 187.72 56.29 187.6 56.8H189.41C189.39 56.46 189.13 56.04 188.54 56.04ZM197.237 58.71C197.637 58.71 197.957 58.51 198.137 58.25L199.377 59.19C198.907 59.81 198.157 60.2 197.227 60.2C195.447 60.2 194.427 58.95 194.427 57.48C194.427 56.01 195.447 54.76 197.227 54.76C198.157 54.76 198.907 55.15 199.377 55.77L198.137 56.71C197.957 56.45 197.647 56.25 197.207 56.25C196.557 56.25 196.077 56.74 196.077 57.48C196.077 58.23 196.557 58.71 197.237 58.71ZM201.519 60.15C200.499 60.15 199.789 59.56 199.789 58.58C199.789 57.81 200.379 57.22 201.479 57.04L202.899 56.8C202.889 56.42 202.559 56.13 202.089 56.13C201.669 56.13 201.359 56.33 201.129 56.66L199.969 55.78C200.429 55.14 201.199 54.76 202.139 54.76C203.739 54.76 204.479 55.72 204.479 56.82V60H202.899V59.62C202.619 59.93 202.049 60.15 201.519 60.15ZM201.359 58.5C201.359 58.76 201.559 58.92 201.869 58.92C202.379 58.92 202.699 58.68 202.899 58.38V57.88L201.909 58.05C201.499 58.12 201.359 58.27 201.359 58.5ZM205.733 60V54.96H207.323V55.37C207.633 55.08 208.023 54.86 208.543 54.86C208.723 54.86 208.883 54.89 209.003 54.93V56.5C208.833 56.46 208.643 56.43 208.383 56.43C207.803 56.43 207.423 56.77 207.323 56.94V60H205.733ZM215.384 57.48C215.384 58.95 214.454 60.2 212.844 60.2C212.224 60.2 211.784 60.03 211.444 59.72V60H209.854V52.5H211.444V55.24C211.784 54.93 212.224 54.76 212.844 54.76C214.454 54.76 215.384 56.01 215.384 57.48ZM212.614 56.25C212.104 56.25 211.714 56.47 211.444 56.84V58.12C211.744 58.5 212.124 58.71 212.614 58.71C213.314 58.71 213.744 58.22 213.744 57.48C213.744 56.74 213.314 56.25 212.614 56.25ZM218.868 54.76C220.518 54.76 221.648 55.94 221.648 57.48C221.648 59.02 220.518 60.2 218.868 60.2C217.208 60.2 216.078 59.02 216.078 57.48C216.078 55.94 217.208 54.76 218.868 54.76ZM218.878 58.71C219.518 58.71 220.008 58.22 220.008 57.48C220.008 56.72 219.518 56.25 218.878 56.25C218.218 56.25 217.728 56.73 217.728 57.48C217.728 58.23 218.218 58.71 218.878 58.71ZM222.647 60V54.96H224.237V55.24C224.567 54.96 224.987 54.76 225.577 54.76C226.647 54.76 227.527 55.51 227.527 57.04V60H225.927V57.11C225.927 56.6 225.657 56.25 225.147 56.25C224.587 56.25 224.337 56.69 224.237 56.86V60H222.647ZM233.55 59.19C233.07 59.82 232.28 60.2 231.31 60.2C229.46 60.2 228.48 58.95 228.48 57.48C228.48 56.02 229.39 54.76 231.1 54.76C232.53 54.76 233.47 55.71 233.47 57.08C233.47 57.42 233.42 57.74 233.37 57.92H230.11C230.26 58.6 230.7 58.78 231.3 58.78C231.78 58.78 232.2 58.59 232.43 58.3L233.55 59.19ZM231.06 56.04C230.55 56.04 230.24 56.29 230.12 56.8H231.93C231.91 56.46 231.65 56.04 231.06 56.04Z" fill="#AEB7E9" style="fill:#AEB7E9;fill:color(display-p3 0.6824 0.7176 0.9137);fill-opacity:1;"/>
<path d="M134.665 108.22C138.433 108.22 140.353 110.38 140.353 112.756C140.353 114.292 139.609 115.612 138.145 116.404C140.065 117.196 141.097 118.756 141.097 120.796C141.097 123.724 138.841 125.98 134.665 125.98C130.513 125.98 128.233 123.724 128.233 120.796C128.233 118.756 129.265 117.196 131.209 116.404C129.721 115.612 128.977 114.292 128.977 112.756C128.977 110.38 130.921 108.22 134.665 108.22ZM134.713 115.18C136.105 115.18 137.017 114.364 137.017 113.116C137.017 111.844 136.105 111.004 134.713 111.004C133.201 111.004 132.313 111.844 132.313 113.116C132.313 114.364 133.225 115.18 134.713 115.18ZM134.689 123.172C136.585 123.172 137.761 122.164 137.761 120.628C137.761 119.044 136.585 117.964 134.689 117.964C132.769 117.964 131.569 119.044 131.569 120.628C131.569 122.188 132.769 123.172 134.689 123.172ZM145.002 129.34H142.17L144.354 122.164H147.786L145.002 129.34ZM148.063 121.036V118.108L155.263 108.7H159.055V118.108H160.759V121.036H159.055V125.5H155.815V121.036H148.063ZM151.399 118.108H155.815V112.372L151.399 118.108ZM170.651 121.084V116.14H168.395V113.404H170.651V110.38H173.723V113.404H177.419V116.14H173.723V121.084C173.723 122.428 174.443 122.956 175.643 122.956C176.483 122.956 177.035 122.86 177.443 122.692V125.356C176.843 125.62 176.123 125.74 175.115 125.74C172.091 125.74 170.651 124.036 170.651 121.084ZM185.674 112.924C189.61 112.924 192.298 115.828 192.298 119.452C192.298 123.076 189.61 125.98 185.674 125.98C181.738 125.98 179.05 123.076 179.05 119.452C179.05 115.828 181.738 112.924 185.674 112.924ZM185.722 123.1C187.666 123.1 189.13 121.54 189.13 119.452C189.13 117.34 187.666 115.804 185.722 115.804C183.706 115.804 182.218 117.34 182.218 119.452C182.218 121.564 183.706 123.1 185.722 123.1ZM195.078 125.5V113.404H198.126V114.364C198.966 113.548 200.094 112.924 201.702 112.924C204.318 112.924 206.406 114.724 206.406 118.3V125.5H203.334V118.42C203.334 116.812 202.422 115.804 200.934 115.804C199.398 115.804 198.582 116.836 198.126 117.604V125.5H195.078ZM209.867 125.5V113.404H212.915V114.364C213.755 113.548 214.883 112.924 216.491 112.924C219.107 112.924 221.195 114.724 221.195 118.3V125.5H218.123V118.42C218.123 116.812 217.211 115.804 215.723 115.804C214.187 115.804 213.371 116.836 212.915 117.604V125.5H209.867ZM235.792 123.532C234.664 125.044 232.792 125.98 230.512 125.98C226.216 125.98 223.792 122.98 223.792 119.452C223.792 115.876 226.048 112.924 230.008 112.924C233.368 112.924 235.576 115.204 235.576 118.372C235.576 119.044 235.48 119.668 235.384 120.076H226.912C227.2 122.332 228.592 123.244 230.488 123.244C231.808 123.244 232.96 122.668 233.608 121.804L235.792 123.532ZM229.936 115.42C228.376 115.42 227.344 116.284 227.008 117.868H232.576C232.528 116.644 231.64 115.42 229.936 115.42ZM237.334 123.748L239.35 121.924C240.094 122.86 240.982 123.532 242.134 123.532C243.118 123.532 243.622 122.956 243.622 122.236C243.622 120.124 237.838 120.916 237.838 116.668C237.838 114.532 239.638 112.924 242.158 112.924C244.006 112.924 245.686 113.812 246.55 114.988L244.534 116.764C243.91 115.996 243.118 115.372 242.182 115.372C241.222 115.372 240.766 115.9 240.766 116.524C240.766 118.588 246.55 117.868 246.55 122.044C246.502 124.588 244.462 125.98 242.182 125.98C240.022 125.98 238.486 125.116 237.334 123.748ZM138.994 139.972C138.994 137.914 140.408 136.164 142.62 136.164C143.67 136.164 144.496 136.57 145.126 137.284V133H146.316V143.5H145.126V142.66C144.496 143.374 143.67 143.78 142.62 143.78C140.408 143.78 138.994 142.03 138.994 139.972ZM140.254 139.972C140.254 141.47 141.262 142.66 142.76 142.66C143.74 142.66 144.608 142.184 145.126 141.358V138.586C144.58 137.746 143.726 137.284 142.76 137.284C141.262 137.284 140.254 138.474 140.254 139.972ZM155.096 142.338C154.438 143.22 153.388 143.78 152.072 143.78C149.692 143.78 148.222 142.03 148.222 139.972C148.222 137.83 149.594 136.164 151.778 136.164C153.696 136.164 154.942 137.508 154.942 139.244C154.942 139.524 154.9 139.79 154.858 139.986H149.44C149.482 141.68 150.56 142.702 152.072 142.702C152.982 142.702 153.752 142.282 154.214 141.652L155.096 142.338ZM151.75 137.172C150.588 137.172 149.776 137.858 149.524 139.076H153.752C153.71 138.04 152.996 137.172 151.75 137.172ZM165.339 142.548C166.655 142.548 167.733 141.904 168.391 140.952L169.441 141.764C168.545 142.982 167.103 143.78 165.339 143.78C162.273 143.78 160.187 141.4 160.187 138.6C160.187 135.8 162.273 133.42 165.339 133.42C167.103 133.42 168.545 134.232 169.441 135.436L168.391 136.248C167.733 135.296 166.655 134.652 165.339 134.652C163.127 134.652 161.545 136.416 161.545 138.6C161.545 140.784 163.127 142.548 165.339 142.548ZM175.77 133.42C178.822 133.42 180.908 135.8 180.908 138.6C180.908 141.4 178.822 143.78 175.77 143.78C172.704 143.78 170.618 141.4 170.618 138.6C170.618 135.8 172.704 133.42 175.77 133.42ZM175.77 142.548C177.968 142.548 179.55 140.784 179.55 138.6C179.55 136.416 177.968 134.652 175.77 134.652C173.558 134.652 171.976 136.416 171.976 138.6C171.976 140.784 173.558 142.548 175.77 142.548ZM182.573 143.5V142.366L185.891 138.95C187.039 137.746 187.557 137.2 187.557 136.164C187.557 135.142 186.815 134.554 185.821 134.554C184.785 134.554 184.113 135.072 183.539 136.024L182.503 135.394C183.301 134.148 184.393 133.42 185.919 133.42C187.557 133.42 188.859 134.484 188.859 136.08C188.859 137.41 187.991 138.404 186.815 139.636L184.127 142.366H189.125V143.5H182.573ZM195.049 146.944V136.444H196.239V137.284C196.869 136.57 197.695 136.164 198.745 136.164C200.957 136.164 202.371 137.914 202.371 139.972C202.371 142.03 200.957 143.78 198.745 143.78C197.695 143.78 196.869 143.374 196.239 142.66V146.944H195.049ZM198.605 137.284C197.625 137.284 196.771 137.76 196.239 138.6V141.344C196.785 142.198 197.639 142.66 198.605 142.66C200.103 142.66 201.125 141.47 201.125 139.972C201.125 138.474 200.103 137.284 198.605 137.284ZM206.086 143.696C204.7 143.696 203.762 142.926 203.762 141.722C203.762 140.658 204.574 139.902 206.072 139.65L208.452 139.258V138.768C208.452 137.788 207.752 137.228 206.744 137.228C205.932 137.228 205.274 137.606 204.84 138.208L203.944 137.522C204.56 136.682 205.554 136.164 206.786 136.164C208.578 136.164 209.642 137.214 209.642 138.768V143.5H208.452V142.604C207.92 143.29 206.996 143.696 206.086 143.696ZM204.966 141.68C204.966 142.282 205.456 142.716 206.282 142.716C207.22 142.716 207.99 142.268 208.452 141.512V140.126L206.366 140.476C205.4 140.644 204.966 141.078 204.966 141.68ZM212.03 143.5V136.444H213.22V137.326C213.738 136.71 214.382 136.304 215.278 136.304C215.502 136.304 215.712 136.332 215.88 136.388V137.55C215.67 137.494 215.46 137.466 215.18 137.466C214.256 137.466 213.654 137.942 213.22 138.656V143.5H212.03ZM223.285 143.696C221.899 143.696 220.961 142.926 220.961 141.722C220.961 140.658 221.773 139.902 223.271 139.65L225.651 139.258V138.768C225.651 137.788 224.951 137.228 223.943 137.228C223.131 137.228 222.473 137.606 222.039 138.208L221.143 137.522C221.759 136.682 222.753 136.164 223.985 136.164C225.777 136.164 226.841 137.214 226.841 138.768V143.5H225.651V142.604C225.119 143.29 224.195 143.696 223.285 143.696ZM222.165 141.68C222.165 142.282 222.655 142.716 223.481 142.716C224.419 142.716 225.189 142.268 225.651 141.512V140.126L223.565 140.476C222.599 140.644 222.165 141.078 222.165 141.68ZM229.229 143.5V136.444H230.419V137.242C230.993 136.612 231.721 136.164 232.771 136.164C234.353 136.164 235.529 137.228 235.529 139.23V143.5H234.339V139.272C234.339 138.012 233.625 137.284 232.533 137.284C231.511 137.284 230.867 137.872 230.419 138.614V143.5H229.229Z" fill="#4949BA" style="fill:#4949BA;fill:color(display-p3 0.2863 0.2863 0.7294);fill-opacity:1;"/>
<path d="M262 174L257.67 165.75L266.33 165.75L262 174Z" fill="#4949BA" style="fill:#4949BA;fill:color(display-p3 0.2863 0.2863 0.7294);fill-opacity:1;"/>
<rect x="46" y="174" width="283" height="12" rx="6" fill="url(#paint0_linear_0_1523)" style=""/>
<path d="M349 29H664V232C664 238.627 658.627 244 652 244H361C354.373 244 349 238.627 349 232V29Z" fill="white" style="fill:white;fill-opacity:1;"/>
<rect x="463" y="45" width="87" height="24" rx="10" fill="#F0F2FB" style="fill:#F0F2FB;fill:color(display-p3 0.9412 0.9490 0.9843);fill-opacity:1;"/>
<path d="M472.314 60V53H476.634V54.47H474.094V55.7H476.234V57.17H474.094V58.53H476.634V60H472.314ZM477.97 60V54.96H479.56V55.22C479.86 54.96 480.26 54.76 480.8 54.76C481.39 54.76 481.91 55 482.25 55.49C482.58 55.1 483.04 54.76 483.87 54.76C484.88 54.76 485.72 55.48 485.72 56.94V60H484.12V57.01C484.12 56.56 483.89 56.25 483.44 56.25C482.93 56.25 482.73 56.69 482.65 56.82C482.65 56.86 482.65 56.9 482.65 56.94V60H481.05V57.01C481.05 56.56 480.82 56.25 480.37 56.25C479.87 56.25 479.67 56.69 479.56 56.86V60H477.97ZM486.974 62.46V54.96H488.564V55.24C488.904 54.93 489.344 54.76 489.964 54.76C491.574 54.76 492.504 56.01 492.504 57.48C492.504 58.95 491.574 60.2 489.964 60.2C489.344 60.2 488.904 60.03 488.564 59.72V62.46H486.974ZM489.734 56.25C489.224 56.25 488.844 56.47 488.564 56.85V58.11C488.864 58.5 489.234 58.71 489.734 58.71C490.434 58.71 490.864 58.22 490.864 57.48C490.864 56.74 490.434 56.25 489.734 56.25ZM493.498 60V54.96H495.088V55.37C495.398 55.08 495.788 54.86 496.308 54.86C496.488 54.86 496.648 54.89 496.768 54.93V56.5C496.598 56.46 496.408 56.43 496.148 56.43C495.568 56.43 495.188 56.77 495.088 56.94V60H493.498ZM502.242 59.19C501.762 59.82 500.972 60.2 500.002 60.2C498.152 60.2 497.172 58.95 497.172 57.48C497.172 56.02 498.082 54.76 499.792 54.76C501.222 54.76 502.162 55.71 502.162 57.08C502.162 57.42 502.112 57.74 502.062 57.92H498.802C498.952 58.6 499.392 58.78 499.992 58.78C500.472 58.78 500.892 58.59 501.122 58.3L502.242 59.19ZM499.752 56.04C499.242 56.04 498.932 56.29 498.812 56.8H500.622C500.602 56.46 500.342 56.04 499.752 56.04ZM504.054 54.41C503.504 54.41 503.044 53.94 503.044 53.4C503.044 52.86 503.504 52.4 504.054 52.4C504.584 52.4 505.044 52.86 505.044 53.4C505.044 53.94 504.584 54.41 504.054 54.41ZM503.244 60V54.96H504.834V60H503.244ZM506.134 60V54.96H507.724V55.24C508.054 54.96 508.474 54.76 509.064 54.76C510.134 54.76 511.014 55.51 511.014 57.04V60H509.414V57.11C509.414 56.6 509.144 56.25 508.634 56.25C508.074 56.25 507.824 56.69 507.724 56.86V60H506.134ZM512.617 58.04V56.38H511.677V54.96H512.617V53.7H514.217V54.96H515.597V56.38H514.217V58.04C514.217 58.44 514.427 58.66 514.847 58.66C515.217 58.66 515.457 58.61 515.607 58.55V59.92C515.337 60.04 515.027 60.1 514.557 60.1C513.187 60.1 512.617 59.28 512.617 58.04ZM521.275 59.19C520.795 59.82 520.005 60.2 519.035 60.2C517.185 60.2 516.205 58.95 516.205 57.48C516.205 56.02 517.115 54.76 518.825 54.76C520.255 54.76 521.195 55.71 521.195 57.08C521.195 57.42 521.145 57.74 521.095 57.92H517.835C517.985 58.6 518.425 58.78 519.025 58.78C519.505 58.78 519.925 58.59 520.155 58.3L521.275 59.19ZM518.785 56.04C518.275 56.04 517.965 56.29 517.845 56.8H519.655C519.635 56.46 519.375 56.04 518.785 56.04ZM529.742 59.19C529.262 59.82 528.472 60.2 527.502 60.2C525.652 60.2 524.672 58.95 524.672 57.48C524.672 56.02 525.582 54.76 527.292 54.76C528.722 54.76 529.662 55.71 529.662 57.08C529.662 57.42 529.612 57.74 529.562 57.92H526.302C526.452 58.6 526.892 58.78 527.492 58.78C527.972 58.78 528.392 58.59 528.622 58.3L529.742 59.19ZM527.252 56.04C526.742 56.04 526.432 56.29 526.312 56.8H528.122C528.102 56.46 527.842 56.04 527.252 56.04ZM532.106 60.15C531.086 60.15 530.376 59.56 530.376 58.58C530.376 57.81 530.966 57.22 532.066 57.04L533.486 56.8C533.476 56.42 533.146 56.13 532.676 56.13C532.256 56.13 531.946 56.33 531.716 56.66L530.556 55.78C531.016 55.14 531.786 54.76 532.726 54.76C534.326 54.76 535.066 55.72 535.066 56.82V60H533.486V59.62C533.206 59.93 532.636 60.15 532.106 60.15ZM531.946 58.5C531.946 58.76 532.146 58.92 532.456 58.92C532.966 58.92 533.286 58.68 533.486 58.38V57.88L532.496 58.05C532.086 58.12 531.946 58.27 531.946 58.5ZM539.51 57.81V54.96H541.11V57.72C541.11 59.23 540.21 60.2 538.66 60.2C537.09 60.2 536.22 59.23 536.22 57.72V54.96H537.82V57.81C537.82 58.34 538.08 58.71 538.67 58.71C539.24 58.71 539.51 58.34 539.51 57.81Z" fill="#AEB7E9" style="fill:#AEB7E9;fill:color(display-p3 0.6824 0.7176 0.9137);fill-opacity:1;"/>
<path d="M452.809 108.22C456.577 108.22 458.497 110.38 458.497 112.756C458.497 114.292 457.753 115.612 456.289 116.404C458.209 117.196 459.241 118.756 459.241 120.796C459.241 123.724 456.985 125.98 452.809 125.98C448.657 125.98 446.377 123.724 446.377 120.796C446.377 118.756 447.409 117.196 449.353 116.404C447.865 115.612 447.121 114.292 447.121 112.756C447.121 110.38 449.065 108.22 452.809 108.22ZM452.857 115.18C454.249 115.18 455.161 114.364 455.161 113.116C455.161 111.844 454.249 111.004 452.857 111.004C451.345 111.004 450.457 111.844 450.457 113.116C450.457 114.364 451.369 115.18 452.857 115.18ZM452.833 123.172C454.729 123.172 455.905 122.164 455.905 120.628C455.905 119.044 454.729 117.964 452.833 117.964C450.913 117.964 449.713 119.044 449.713 120.628C449.713 122.188 450.913 123.172 452.833 123.172ZM466.919 108.22C471.335 108.22 473.399 112.06 473.399 117.1C473.399 122.14 471.335 125.98 466.919 125.98C462.503 125.98 460.439 122.14 460.439 117.1C460.439 112.06 462.503 108.22 466.919 108.22ZM466.919 111.22C464.783 111.22 463.751 113.572 463.751 117.1C463.751 120.652 464.783 122.98 466.919 122.98C469.031 122.98 470.063 120.628 470.063 117.1C470.063 113.548 469.031 111.22 466.919 111.22ZM481.52 108.22C485.936 108.22 488 112.06 488 117.1C488 122.14 485.936 125.98 481.52 125.98C477.104 125.98 475.04 122.14 475.04 117.1C475.04 112.06 477.104 108.22 481.52 108.22ZM481.52 111.22C479.384 111.22 478.352 113.572 478.352 117.1C478.352 120.652 479.384 122.98 481.52 122.98C483.632 122.98 484.664 120.628 484.664 117.1C484.664 113.548 483.632 111.22 481.52 111.22ZM496.122 108.22C500.538 108.22 502.602 112.06 502.602 117.1C502.602 122.14 500.538 125.98 496.122 125.98C491.706 125.98 489.642 122.14 489.642 117.1C489.642 112.06 491.706 108.22 496.122 108.22ZM496.122 111.22C493.986 111.22 492.954 113.572 492.954 117.1C492.954 120.652 493.986 122.98 496.122 122.98C498.234 122.98 499.266 120.628 499.266 117.1C499.266 113.548 498.234 111.22 496.122 111.22ZM511.605 125.5V107.5H514.653V125.5H511.605ZM519.844 111.292C518.764 111.292 517.852 110.38 517.852 109.3C517.852 108.22 518.764 107.308 519.844 107.308C520.924 107.308 521.812 108.22 521.812 109.3C521.812 110.38 520.924 111.292 519.844 111.292ZM518.308 125.5V113.404H521.356V125.5H518.308ZM525.78 121.084V116.14H523.524V113.404H525.78V110.38H528.852V113.404H532.548V116.14H528.852V121.084C528.852 122.428 529.572 122.956 530.772 122.956C531.612 122.956 532.164 122.86 532.572 122.692V125.356C531.972 125.62 531.252 125.74 530.243 125.74C527.22 125.74 525.78 124.036 525.78 121.084ZM535.277 125.5V113.404H538.325V114.604C539.117 113.788 540.149 113.164 541.517 113.164C541.925 113.164 542.285 113.236 542.573 113.332V116.332C542.189 116.236 541.781 116.164 541.229 116.164C539.741 116.164 538.781 116.98 538.325 117.748V125.5H535.277ZM555.648 123.532C554.52 125.044 552.648 125.98 550.368 125.98C546.072 125.98 543.648 122.98 543.648 119.452C543.648 115.876 545.904 112.924 549.864 112.924C553.224 112.924 555.432 115.204 555.432 118.372C555.432 119.044 555.336 119.668 555.24 120.076H546.768C547.056 122.332 548.448 123.244 550.344 123.244C551.664 123.244 552.816 122.668 553.464 121.804L555.648 123.532ZM549.792 115.42C548.232 115.42 547.2 116.284 546.864 117.868H552.432C552.384 116.644 551.496 115.42 549.792 115.42ZM557.19 123.748L559.206 121.924C559.95 122.86 560.838 123.532 561.99 123.532C562.974 123.532 563.478 122.956 563.478 122.236C563.478 120.124 557.694 120.916 557.694 116.668C557.694 114.532 559.494 112.924 562.014 112.924C563.862 112.924 565.542 113.812 566.406 114.988L564.39 116.764C563.766 115.996 562.974 115.372 562.038 115.372C561.078 115.372 560.622 115.9 560.622 116.524C560.622 118.588 566.406 117.868 566.406 122.044C566.358 124.588 564.318 125.98 562.038 125.98C559.878 125.98 558.342 125.116 557.19 123.748ZM460.496 139.972C460.496 137.914 461.91 136.164 464.122 136.164C465.172 136.164 465.998 136.57 466.628 137.284V133H467.818V143.5H466.628V142.66C465.998 143.374 465.172 143.78 464.122 143.78C461.91 143.78 460.496 142.03 460.496 139.972ZM461.756 139.972C461.756 141.47 462.764 142.66 464.262 142.66C465.242 142.66 466.11 142.184 466.628 141.358V138.586C466.082 137.746 465.228 137.284 464.262 137.284C462.764 137.284 461.756 138.474 461.756 139.972ZM470.843 137.452H469.737L470.927 133.7H472.285L470.843 137.452ZM479.538 142.338C478.88 143.22 477.83 143.78 476.514 143.78C474.134 143.78 472.664 142.03 472.664 139.972C472.664 137.83 474.036 136.164 476.22 136.164C478.138 136.164 479.384 137.508 479.384 139.244C479.384 139.524 479.342 139.79 479.3 139.986H473.882C473.924 141.68 475.002 142.702 476.514 142.702C477.424 142.702 478.194 142.282 478.656 141.652L479.538 142.338ZM476.192 137.172C475.03 137.172 474.218 137.858 473.966 139.076H478.194C478.152 138.04 477.438 137.172 476.192 137.172ZM483.264 143.696C481.878 143.696 480.94 142.926 480.94 141.722C480.94 140.658 481.752 139.902 483.25 139.65L485.63 139.258V138.768C485.63 137.788 484.93 137.228 483.922 137.228C483.11 137.228 482.452 137.606 482.018 138.208L481.122 137.522C481.738 136.682 482.732 136.164 483.964 136.164C485.756 136.164 486.82 137.214 486.82 138.768V143.5H485.63V142.604C485.098 143.29 484.174 143.696 483.264 143.696ZM482.144 141.68C482.144 142.282 482.634 142.716 483.46 142.716C484.398 142.716 485.168 142.268 485.63 141.512V140.126L483.544 140.476C482.578 140.644 482.144 141.078 482.144 141.68ZM494.121 140.476V136.444H495.311V140.434C495.311 142.548 494.093 143.78 492.175 143.78C490.271 143.78 489.053 142.548 489.053 140.434V136.444H490.243V140.476C490.243 141.862 490.985 142.66 492.189 142.66C493.365 142.66 494.121 141.862 494.121 140.476ZM501.43 146.944V136.444H502.62V137.284C503.25 136.57 504.076 136.164 505.126 136.164C507.338 136.164 508.752 137.914 508.752 139.972C508.752 142.03 507.338 143.78 505.126 143.78C504.076 143.78 503.25 143.374 502.62 142.66V146.944H501.43ZM504.986 137.284C504.006 137.284 503.152 137.76 502.62 138.6V141.344C503.166 142.198 504.02 142.66 504.986 142.66C506.484 142.66 507.506 141.47 507.506 139.972C507.506 138.474 506.484 137.284 504.986 137.284ZM512.467 143.696C511.081 143.696 510.143 142.926 510.143 141.722C510.143 140.658 510.955 139.902 512.453 139.65L514.833 139.258V138.768C514.833 137.788 514.133 137.228 513.125 137.228C512.313 137.228 511.655 137.606 511.221 138.208L510.325 137.522C510.941 136.682 511.935 136.164 513.167 136.164C514.959 136.164 516.023 137.214 516.023 138.768V143.5H514.833V142.604C514.301 143.29 513.377 143.696 512.467 143.696ZM511.347 141.68C511.347 142.282 511.837 142.716 512.663 142.716C513.601 142.716 514.371 142.268 514.833 141.512V140.126L512.747 140.476C511.781 140.644 511.347 141.078 511.347 141.68ZM518.41 143.5V136.444H519.6V137.326C520.118 136.71 520.762 136.304 521.658 136.304C521.882 136.304 522.092 136.332 522.26 136.388V137.55C522.05 137.494 521.84 137.466 521.56 137.466C520.636 137.466 520.034 137.942 519.6 138.656V143.5H518.41ZM528.336 134.61C527.874 134.61 527.496 134.232 527.496 133.77C527.496 133.322 527.874 132.944 528.336 132.944C528.784 132.944 529.162 133.322 529.162 133.77C529.162 134.232 528.784 134.61 528.336 134.61ZM528.938 144.424C528.938 146.216 528.07 147 526.488 147C525.984 147 525.606 146.944 525.284 146.804V145.74C525.536 145.852 525.872 145.908 526.334 145.908C527.174 145.908 527.748 145.586 527.748 144.424V136.444H528.938V144.424ZM534.673 136.164C536.941 136.164 538.495 137.914 538.495 139.972C538.495 142.03 536.941 143.78 534.673 143.78C532.391 143.78 530.851 142.03 530.851 139.972C530.851 137.914 532.391 136.164 534.673 136.164ZM534.687 142.66C536.157 142.66 537.235 141.428 537.235 139.972C537.235 138.502 536.157 137.284 534.687 137.284C533.175 137.284 532.097 138.502 532.097 139.972C532.097 141.442 533.175 142.66 534.687 142.66ZM545.322 140.476V136.444H546.512V140.434C546.512 142.548 545.294 143.78 543.376 143.78C541.472 143.78 540.254 142.548 540.254 140.434V136.444H541.444V140.476C541.444 141.862 542.186 142.66 543.39 142.66C544.566 142.66 545.322 141.862 545.322 140.476ZM548.858 143.5V136.444H550.048V137.326C550.566 136.71 551.21 136.304 552.106 136.304C552.33 136.304 552.54 136.332 552.708 136.388V137.55C552.498 137.494 552.288 137.466 552.008 137.466C551.084 137.466 550.482 137.942 550.048 138.656V143.5H548.858Z" fill="#4949BA" style="fill:#4949BA;fill:color(display-p3 0.2863 0.2863 0.7294);fill-opacity:1;"/>
<mask id="mask0_0_1523" style="mask-type:alpha" maskUnits="userSpaceOnUse" x="490" y="154" width="31" height="45">
<path d="M502.821 156.425C503.357 155.325 504.429 154.5 505.5 154.5C506.571 154.5 507.643 155.325 507.911 156.425C511.929 170.175 520.5 173.75 520.5 183.375C520.5 191.9 513.804 198.5 505.5 198.5C497.196 198.5 490.5 191.9 490.5 183.375C490.5 173.75 498.804 170.175 502.821 156.425Z" fill="#71ABE7" style="fill:#71ABE7;fill:color(display-p3 0.4431 0.6706 0.9059);fill-opacity:1;"/>
</mask>
<g mask="url(#mask0_0_1523)">
<rect x="483.5" y="154.5" width="44" height="25" fill="#F0F2FB" style="fill:#F0F2FB;fill:color(display-p3 0.9412 0.9490 0.9843);fill-opacity:1;"/>
<path d="M504.5 173.5C501.5 171.5 496 169.5 490 173.5C488.333 175.667 484.9 180.2 484.5 181C484 182 488 197 489 197C490 197 506 204.5 509.5 205C512.3 205.4 522.667 200.5 527.5 198L529 177.5C525.667 173.667 518.4 166.9 516 170.5C513 175 507.5 175.5 504.5 173.5Z" fill="#BFDFFE" style="fill:#BFDFFE;fill:color(display-p3 0.7490 0.8745 0.9961);fill-opacity:1;"/>
</g>
<path d="M486.5 171.5L478.25 175.83L478.25 167.17L486.5 171.5Z" fill="#4949BA" style="fill:#4949BA;fill:color(display-p3 0.2863 0.2863 0.7294);fill-opacity:1;"/>
<circle cx="46" cy="17" r="4" fill="#AEB7E9" style="fill:#AEB7E9;fill:color(display-p3 0.6824 0.7176 0.9137);fill-opacity:1;"/>
<circle cx="62" cy="17" r="4" fill="#AEB7E9" style="fill:#AEB7E9;fill:color(display-p3 0.6824 0.7176 0.9137);fill-opacity:1;"/>
<circle cx="78" cy="17" r="4" fill="#AEB7E9" style="fill:#AEB7E9;fill:color(display-p3 0.6824 0.7176 0.9137);fill-opacity:1;"/>
</g>
<defs>
<filter id="filter0_dddd_0_1523" x="0" y="0" width="694" height="340" filterUnits="userSpaceOnUse" color-interpolation-filters="sRGB">
<feFlood flood-opacity="0" result="BackgroundImageFix"/>
<feColorMatrix in="SourceAlpha" type="matrix" values="0 0 0 0 0 0 0 0 0 0 0 0 0 0 0 0 0 0 127 0" result="hardAlpha"/>
<feOffset dy="4"/>
<feGaussianBlur stdDeviation="4.5"/>
<feColorMatrix type="matrix" values="0 0 0 0 0.298039 0 0 0 0 0.247059 0 0 0 0 0.203922 0 0 0 0.1 0"/>
<feBlend mode="normal" in2="BackgroundImageFix" result="effect1_dropShadow_0_1523"/>
<feColorMatrix in="SourceAlpha" type="matrix" values="0 0 0 0 0 0 0 0 0 0 0 0 0 0 0 0 0 0 127 0" result="hardAlpha"/>
<feOffset dy="16"/>
<feGaussianBlur stdDeviation="8"/>
<feColorMatrix type="matrix" values="0 0 0 0 0.298039 0 0 0 0 0.247059 0 0 0 0 0.203922 0 0 0 0.09 0"/>
<feBlend mode="normal" in2="effect1_dropShadow_0_1523" result="effect2_dropShadow_0_1523"/>
<feColorMatrix in="SourceAlpha" type="matrix" values="0 0 0 0 0 0 0 0 0 0 0 0 0 0 0 0 0 0 127 0" result="hardAlpha"/>
<feOffset dy="37"/>
<feGaussianBlur stdDeviation="11"/>
<feColorMatrix type="matrix" values="0 0 0 0 0.298039 0 0 0 0 0.247059 0 0 0 0 0.203922 0 0 0 0.05 0"/>
<feBlend mode="normal" in2="effect2_dropShadow_0_1523" result="effect3_dropShadow_0_1523"/>
<feColorMatrix in="SourceAlpha" type="matrix" values="0 0 0 0 0 0 0 0 0 0 0 0 0 0 0 0 0 0 127 0" result="hardAlpha"/>
<feOffset dy="66"/>
<feGaussianBlur stdDeviation="13"/>
<feColorMatrix type="matrix" values="0 0 0 0 0.298039 0 0 0 0 0.247059 0 0 0 0 0.203922 0 0 0 0.01 0"/>
<feBlend mode="normal" in2="effect3_dropShadow_0_1523" result="effect4_dropShadow_0_1523"/>
<feBlend mode="normal" in="SourceGraphic" in2="effect4_dropShadow_0_1523" result="shape"/>
</filter>
<linearGradient id="paint0_linear_0_1523" x1="46" y1="180" x2="329" y2="180" gradientUnits="userSpaceOnUse">
<stop stop-color="#CEF1D5" style="stop-color:#CEF1D5;stop-color:color(display-p3 0.8078 0.9451 0.8353);stop-opacity:1;"/>
<stop offset="1" stop-color="#FDA354" style="stop-color:#FDA354;stop-color:color(display-p3 0.9922 0.6392 0.3294);stop-opacity:1;"/>
</linearGradient>
</defs>
</svg>
