<svg width="111" height="133" viewBox="0 0 111 133" fill="none" xmlns="http://www.w3.org/2000/svg">
<path d="M23.7302 119.106C20.3805 120.19 15.5903 124.156 11.3045 129.708C7.01871 135.26 4.39582 140.898 4.19561 144.413L3.06122 145.883L5.16307 147.505L5.18089 147.482C7.80965 149.511 14.8135 144.843 20.8244 137.057C26.8355 129.269 29.5772 121.312 26.9484 119.282L24.8466 117.66L23.7302 119.106Z" fill="#F9A65D"/>
<path d="M24.8692 117.678C27.4982 119.707 24.7564 127.665 18.7455 135.452C12.7346 143.239 5.73084 147.906 3.10198 145.878C0.473153 143.848 3.21478 135.89 9.22564 128.103C15.2366 120.316 22.2404 115.649 24.8692 117.678Z" fill="#FEC463"/>
<path d="M23.0273 120.063C25.2113 121.749 22.9337 128.36 17.9397 134.83C12.9462 141.299 7.1274 145.177 4.94336 143.491C2.75952 141.805 5.0372 135.194 10.0311 128.725C15.0247 122.255 20.8432 118.377 23.0273 120.063Z" fill="#FFD686"/>
<path d="M10.0525 144.073C12.9291 135.706 15.8037 127.341 18.7036 118.958C18.1498 119.31 17.5787 119.709 16.9944 120.156C14.1067 128.491 11.2339 136.815 8.37634 145.13C8.9155 144.829 9.47622 144.475 10.0525 144.073Z" fill="#FFDA67"/>
<path d="M21.2005 117.664C20.6009 117.895 19.9621 118.206 19.2917 118.599C16.4017 126.952 13.5372 135.29 10.67 143.629C11.4 143.087 12.1517 142.469 12.9139 141.788C15.6854 133.74 18.4509 125.697 21.2005 117.664Z" fill="#FFDA67"/>
<path d="M23.0273 120.063C25.2113 121.749 22.9337 128.36 17.9397 134.83C12.9462 141.299 7.1274 145.177 4.94336 143.491C2.75952 141.805 5.0372 135.194 10.0311 128.725C15.0247 122.255 20.8432 118.377 23.0273 120.063Z" fill="#FFD686"/>
<path d="M15.6052 122.829C13.7813 124.354 11.8516 126.366 10.031 128.725C5.03711 135.194 2.75943 141.805 4.94327 143.491C5.73757 144.104 7.0133 143.978 8.55391 143.263C10.8945 136.458 13.2449 129.647 15.6052 122.829Z" fill="#FFD686"/>
<path d="M14.3777 138.884C15.5723 137.697 16.7783 136.335 17.9396 134.83C22.9337 128.361 25.2111 121.75 23.0271 120.064C22.5151 119.669 21.8019 119.582 20.9477 119.76C18.7653 126.13 16.5739 132.505 14.3777 138.884Z" fill="#FFD686"/>
<path d="M5.60268 143.192C3.41854 141.506 5.69643 134.895 10.6902 128.426C13.7679 124.439 17.1574 121.439 19.8179 120.116C17.0745 121.237 13.3692 124.4 10.031 128.725C5.03714 135.194 2.75946 141.805 4.9433 143.491C5.78145 144.138 7.1556 143.963 8.81217 143.139C7.4516 143.695 6.32651 143.751 5.60268 143.192Z" fill="#FAA955"/>
<path opacity="0.4" d="M10.784 141.946C13.1727 134.997 15.5621 128.048 17.9666 121.089C17.4138 121.437 16.8394 121.843 16.2507 122.304C13.8612 129.205 11.4824 136.099 9.11392 142.986C9.64659 142.702 10.2061 142.353 10.784 141.946Z" fill="#FFF3CE"/>
<path opacity="0.4" d="M20.4368 119.894C19.8567 120.073 19.2238 120.356 18.5515 120.738C16.1589 127.664 13.7811 134.579 11.4042 141.494C12.1435 140.934 12.9082 140.283 13.682 139.556C15.94 132.998 18.1931 126.443 20.4368 119.894Z" fill="#FFF3CE"/>
<path d="M35.9544 12.8816C35.7098 9.36972 33.0149 3.76524 28.6585 -1.73163C24.3024 -7.22866 19.462 -11.1328 16.0991 -12.1739L14.946 -13.6288L12.8653 -11.9796L12.8834 -11.9566C10.2805 -9.89432 13.1234 -1.97204 19.2334 5.73795C25.343 13.4475 32.4055 18.0252 35.0084 15.9629L37.0892 14.3136L35.9544 12.8816Z" fill="#F9A65D"/>
<path d="M37.0666 14.3305C34.464 16.3933 27.4009 11.8152 21.2915 4.10554C15.1816 -3.60445 12.3385 -11.5265 14.9415 -13.5891C17.5443 -15.6517 24.6071 -11.0737 30.7168 -3.36393C36.8266 4.34594 39.6696 12.268 37.0666 14.3305Z" fill="#FEC463"/>
<path d="M35.195 11.9686C33.0328 13.6823 27.1648 9.87891 22.0893 3.4739C17.0136 -2.93123 14.6517 -9.51272 16.8141 -11.2263C18.9765 -12.9397 24.8439 -9.13651 29.9198 -2.73142C34.9956 3.67376 37.3573 10.2549 35.195 11.9686Z" fill="#FFD686"/>
<path d="M15.0175 -6.40806C22.4454 -1.60012 29.8724 3.20495 37.3098 8.03895C37.1015 7.41653 36.8511 6.76603 36.5586 6.0915C29.1649 1.28099 21.7775 -3.51267 14.396 -8.28906C14.5582 -7.69334 14.7666 -7.06398 15.0175 -6.40806Z" fill="#FFDA67"/>
<path d="M37.9639 10.7731C37.8842 10.1356 37.7357 9.4408 37.5164 8.6953C30.1044 3.87798 22.703 -0.910775 15.3003 -5.70215C15.6505 -4.86337 16.0688 -3.98505 16.5464 -3.08087C23.6895 1.54745 30.8298 6.16941 37.9639 10.7731Z" fill="#FFDA67"/>
<path d="M35.195 11.9686C33.0328 13.6823 27.1648 9.87891 22.0893 3.4739C17.0136 -2.93123 14.6517 -9.51272 16.8141 -11.2263C18.9765 -12.9397 24.8439 -9.13651 29.9198 -2.73142C34.9956 3.67376 37.3573 10.2549 35.195 11.9686Z" fill="#FFD686"/>
<path d="M34.2992 4.09901C33.2579 1.96141 31.7701 -0.396473 29.9194 -2.73161C24.8436 -9.1367 18.9762 -12.9399 16.8138 -11.2265C16.0276 -10.6035 15.8421 -9.33477 16.165 -7.66744C22.2056 -3.75665 28.2504 0.165651 34.2992 4.09901Z" fill="#FFD686"/>
<path d="M19.0127 -0.959961C19.8766 0.485084 20.9085 1.98362 22.0892 3.47354C27.1651 9.87845 33.0326 13.6819 35.1949 11.9683C35.7018 11.5665 35.9581 10.8953 35.9908 10.0231C30.3343 6.37051 24.6745 2.70776 19.0127 -0.959961Z" fill="#FFD686"/>
<path d="M16.9452 -10.5145C19.1074 -12.2282 24.9754 -8.42471 30.0509 -2.01979C33.1788 1.92758 35.2742 5.94027 35.9171 8.84112C35.4902 5.90858 33.3128 1.55006 29.9195 -2.73155C24.8437 -9.13664 18.9763 -12.9398 16.8139 -11.2265C15.9841 -10.569 15.8231 -9.19296 16.2229 -7.38713C16.0113 -8.84146 16.2284 -9.94664 16.9452 -10.5145Z" fill="#FAA955"/>
<path opacity="0.4" d="M16.9062 -5.18641C23.075 -1.19402 29.2441 2.79893 35.4194 6.80945C35.2152 6.18921 34.9589 5.53378 34.6528 4.8511C28.5309 0.869826 22.4134 -3.09976 16.2998 -7.05762C16.4472 -6.47215 16.6511 -5.84519 16.9062 -5.18641Z" fill="#FFF3CE"/>
<path opacity="0.4" d="M35.984 9.49579C35.9497 8.88944 35.8272 8.20711 35.6182 7.46234C29.4734 3.47164 23.3344 -0.50187 17.1958 -4.47461C17.5611 -3.62208 18.0082 -2.72315 18.5274 -1.79728C24.3486 1.97423 30.1683 5.74037 35.984 9.49579Z" fill="#FFF3CE"/>
<path d="M106.261 43.395C105.241 40.6262 101.761 36.7472 96.9681 33.3442C92.1752 29.9406 87.3661 27.9326 84.416 27.8824L83.1477 26.9816L81.8591 28.7958L81.8792 28.8099C80.2676 31.0791 84.4103 36.7883 91.1323 41.5616C97.8542 46.335 104.61 48.365 106.221 46.0957L107.509 44.2814L106.261 43.395Z" fill="#F9A65D"/>
<path d="M107.496 44.3016C105.884 46.5709 99.1285 44.5409 92.4068 39.7675C85.685 34.9942 81.5421 29.285 83.1534 27.0157C84.765 24.7465 91.5207 26.7765 98.2423 31.5499C104.964 36.3232 109.107 42.0324 107.496 44.3016Z" fill="#FEC463"/>
<path d="M105.437 42.8386C104.098 44.7238 98.4861 43.0374 92.9018 39.0717C87.3175 35.1061 83.8757 30.3632 85.2146 28.478C86.5535 26.5928 92.1657 28.2793 97.75 32.2449C103.334 36.2103 106.776 40.9532 105.437 42.8386Z" fill="#FFD686"/>
<path d="M84.8978 32.7756C92.0007 34.9049 99.1024 37.0327 106.219 39.1808C105.906 38.7287 105.552 38.2639 105.159 37.7894C98.0826 35.6498 91.0154 33.5225 83.957 31.4072C84.227 31.8488 84.5421 32.3064 84.8978 32.7756Z" fill="#FFDA67"/>
<path d="M107.385 41.2289C107.172 40.7344 106.89 40.2099 106.539 39.6615C99.4461 37.5207 92.3685 35.4004 85.29 33.2783C85.7681 33.8715 86.3104 34.4802 86.9066 35.0959C93.7381 37.1477 100.566 39.1946 107.385 41.2289Z" fill="#FFDA67"/>
<path d="M105.437 42.8386C104.098 44.7238 98.4861 43.0374 92.9018 39.0717C87.3175 35.1061 83.8757 30.3632 85.2146 28.478C86.5535 26.5928 92.1657 28.2793 97.75 32.2449C103.334 36.2103 106.776 40.9532 105.437 42.8386Z" fill="#FFD686"/>
<path d="M102.874 36.716C101.535 35.2395 99.7861 33.6906 97.7501 32.2448C92.1657 28.2792 86.5536 26.5927 85.2147 28.4779C84.728 29.1633 84.8757 30.2276 85.5261 31.4939C91.3024 33.2263 97.0852 34.9669 102.874 36.716Z" fill="#FFD686"/>
<path d="M89.3877 36.2246C90.4214 37.1852 91.603 38.1494 92.9016 39.0718C98.486 43.0374 104.098 44.7239 105.437 42.8387C105.751 42.3966 105.8 41.7965 105.622 41.087C100.215 39.4722 94.8028 37.8504 89.3877 36.2246Z" fill="#FFD686"/>
<path d="M85.4864 29.0201C86.8253 27.1349 92.4378 28.8212 98.0218 32.7867C101.464 35.2307 104.089 37.9692 105.286 40.1529C104.255 37.893 101.483 34.8956 97.7496 32.2448C92.1653 28.2792 86.5531 26.5927 85.2143 28.4779C84.7006 29.2014 84.8931 30.3463 85.6378 31.7058C85.1271 30.5852 85.0429 29.6451 85.4864 29.0201Z" fill="#FAA955"/>
<path opacity="0.4" d="M86.7026 33.317C92.6014 35.0852 98.5008 36.8537 104.409 38.6347C104.099 38.1833 103.74 37.716 103.334 37.2382C97.475 35.4681 91.6226 33.7064 85.7764 31.9531C86.032 32.3895 86.3428 32.8466 86.7026 33.317Z" fill="#FFF3CE"/>
<path opacity="0.4" d="M105.492 40.6634C105.323 40.1835 105.064 39.6632 104.722 39.1128C98.8425 37.3408 92.9722 35.5807 87.1021 33.8213C87.5955 34.4216 88.1657 35.0403 88.8002 35.6638C94.3681 37.3356 99.9329 39.0034 105.492 40.6634Z" fill="#FFF3CE"/>
<path d="M92.6986 94.5038C90.2871 93.6471 85.77 93.815 80.8418 95.1212C75.9133 96.4274 71.9061 98.5189 70.2356 100.458L68.9312 100.803L69.4258 102.669L69.4461 102.663C70.0647 104.997 76.1693 105.403 83.0813 103.571C89.9935 101.739 95.0952 98.3625 94.477 96.0291L93.9825 94.1634L92.6986 94.5038Z" fill="#F9A65D"/>
<path d="M93.9879 94.1837C94.6063 96.517 89.5043 99.8939 82.5921 101.726C75.6803 103.558 69.5756 103.151 68.957 100.818C68.3388 98.4844 73.4405 95.1077 80.3525 93.2756C87.2646 91.4437 93.3693 91.8503 93.9879 94.1837Z" fill="#FEC463"/>
<path d="M91.8698 94.7452C92.3836 96.6837 88.145 99.4891 82.4027 101.011C76.6603 102.533 71.5887 102.195 71.0749 100.257C70.5611 98.3183 74.7996 95.5128 80.5418 93.9909C86.2843 92.4688 91.356 92.8065 91.8698 94.7452Z" fill="#FFD686"/>
<path d="M73.7644 102.853C79.1256 99.2993 84.4849 95.7461 89.8659 92.194C89.3909 92.152 88.8848 92.1299 88.3502 92.1289C82.9972 95.6585 77.6571 99.1891 72.3306 102.72C72.7746 102.786 73.2545 102.829 73.7644 102.853Z" fill="#FFDA67"/>
<path d="M91.8782 92.5525C91.4303 92.4203 90.9241 92.3175 90.364 92.2471C85.0011 95.7868 79.66 99.3282 74.3174 102.869C74.978 102.88 75.6848 102.856 76.426 102.8C81.5848 99.3849 86.7384 95.9693 91.8782 92.5525Z" fill="#FFDA67"/>
<path d="M91.8698 94.7452C92.3836 96.6837 88.145 99.4891 82.4027 101.011C76.6603 102.533 71.5887 102.195 71.0749 100.257C70.5611 98.3183 74.7996 95.5128 80.5418 93.9909C86.2843 92.4688 91.356 92.8065 91.8698 94.7452Z" fill="#FFD686"/>
<path d="M86.3658 93.0557C84.639 93.1288 82.6356 93.4353 80.5419 93.9902C74.7996 95.5121 70.561 98.3175 71.0749 100.256C71.2618 100.961 72.0531 101.453 73.2582 101.722C77.6185 98.8327 81.9878 95.9438 86.3658 93.0557Z" fill="#FFD686"/>
<path d="M78.5547 101.773C79.7686 101.617 81.067 101.364 82.4027 101.011C88.145 99.4885 92.3835 96.6833 91.8698 94.7447C91.7494 94.2901 91.3765 93.9245 90.8048 93.6494C86.7279 96.3577 82.6434 99.0654 78.5547 101.773Z" fill="#FFD686"/>
<path d="M71.5874 100.376C71.0736 98.4375 75.3121 95.6321 81.0545 94.1102C84.5933 93.1722 87.876 92.9414 89.9953 93.3558C87.9174 92.7883 84.3806 92.9735 80.5419 93.991C74.7996 95.5129 70.561 98.3183 71.0749 100.257C71.272 101.001 72.1421 101.508 73.4615 101.766C72.4312 101.484 71.7577 101.019 71.5874 100.376Z" fill="#FAA955"/>
<path opacity="0.4" d="M75.127 101.95C79.5791 98.9982 84.0316 96.0472 88.4974 93.0971C88.0249 93.0531 87.514 93.0334 86.9701 93.039C82.539 95.9621 78.1168 98.8859 73.7041 101.81C74.1369 101.882 74.6139 101.928 75.127 101.95Z" fill="#FFF3CE"/>
<path opacity="0.4" d="M90.4512 93.5013C90.0374 93.348 89.547 93.2315 88.9901 93.1543C84.5461 96.0901 80.1154 99.0267 75.6851 101.964C76.3592 101.968 77.0878 101.931 77.856 101.854C82.0601 99.0699 86.2596 96.2858 90.4512 93.5013Z" fill="#FFF3CE"/>
</svg>
