<svg width="183" height="171" viewBox="0 0 183 171" fill="none" xmlns="http://www.w3.org/2000/svg">
<path d="M45.0479 120.043C42.3707 115.899 35.351 110.898 26.4221 107.191C17.4931 103.484 9.06837 102.074 4.35003 103.147L1.98706 102.166L0.624835 105.648L0.66173 105.663C-1.04164 110.018 7.72855 117.763 20.2519 122.962C32.7751 128.161 44.3083 128.846 46.0122 124.491L47.374 121.009L45.0479 120.043Z" fill="#F9A65D"/>
<path d="M47.3591 121.046C45.655 125.401 34.1223 124.717 21.5988 119.518C9.07593 114.319 0.305431 106.574 2.00955 102.219C3.71293 97.8642 15.2463 98.5483 27.7694 103.747C40.2922 108.946 49.0628 116.691 47.3591 121.046Z" fill="#FEC463"/>
<path d="M43.5232 119.453C42.1074 123.071 32.5258 122.503 22.1223 118.184C11.7185 113.864 4.43193 107.43 5.84777 103.812C7.26317 100.194 16.8444 100.763 27.2482 105.081C37.6521 109.401 44.9386 115.835 43.5232 119.453Z" fill="#FFD686"/>
<path d="M6.97699 110.988C19.1015 111.699 31.223 112.408 43.3767 113.145C42.7059 112.526 41.9658 111.901 41.1583 111.277C29.0731 110.538 17.0058 109.816 4.95801 109.111C5.55577 109.73 6.2321 110.358 6.97699 110.988Z" fill="#FFDA67"/>
<path d="M46.0138 116.048C45.4859 115.321 44.8369 114.571 44.069 113.808C31.9571 113.074 19.8769 112.368 7.79346 111.659C8.78062 112.445 9.87593 113.232 11.0598 114.008C22.7225 114.698 34.3777 115.382 46.0138 116.048Z" fill="#FFDA67"/>
<path d="M43.5232 119.453C42.1074 123.071 32.5258 122.503 22.1223 118.184C11.7185 113.864 4.43193 107.43 5.84777 103.812C7.26317 100.194 16.8444 100.763 27.2482 105.081C37.6521 109.401 44.9386 115.835 43.5232 119.453Z" fill="#FFD686"/>
<path d="M37.1105 110.411C34.4169 108.513 31.0415 106.657 27.248 105.081C16.8442 100.763 7.26295 100.194 5.84756 103.812C5.33299 105.127 5.97303 106.816 7.49029 108.639C17.3515 109.219 27.2244 109.809 37.1105 110.411Z" fill="#FFD686"/>
<path d="M15.4409 114.889C17.4529 116.06 19.7014 117.18 22.1213 118.184C32.5252 122.503 42.1064 123.072 43.5223 119.454C43.8539 118.605 43.7039 117.602 43.1509 116.507C33.9232 115.976 24.6852 115.435 15.4409 114.889Z" fill="#FFD686"/>
<path d="M6.48753 104.595C7.90292 100.977 17.4843 101.545 27.888 105.864C34.2997 108.526 39.5233 111.991 42.2603 115.105C39.7599 111.801 34.2029 107.969 27.2478 105.081C16.844 100.763 7.26274 100.194 5.84734 103.812C5.30395 105.201 6.046 107.004 7.74968 108.943C6.50964 107.304 6.01792 105.794 6.48753 104.595Z" fill="#FAA955"/>
<path opacity="0.4" d="M10.0596 111.17C20.1286 111.76 30.1984 112.351 40.2872 112.958C39.6224 112.339 38.8723 111.713 38.043 111.088C28.0378 110.479 18.0453 109.881 8.06543 109.295C8.6387 109.911 9.30756 110.539 10.0596 111.17Z" fill="#FFF3CE"/>
<path opacity="0.4" d="M42.7846 115.864C42.3317 115.143 41.7224 114.39 40.968 113.621C30.9282 113.016 20.9076 112.429 10.8877 111.842C11.9022 112.634 13.0459 113.425 14.294 114.2C23.7989 114.762 33.2974 115.318 42.7846 115.864Z" fill="#FFF3CE"/>
<path d="M78.2593 149.676C74.2437 150.979 68.5222 155.813 63.4206 162.602C58.3191 169.392 55.2165 176.302 55.0067 180.623L53.6564 182.42L56.1962 184.434L56.2174 184.406C59.394 186.925 67.7694 181.248 74.9243 171.726C82.0795 162.203 85.3046 152.441 82.128 149.922L79.5882 147.908L78.2593 149.676Z" fill="#F9A65D"/>
<path d="M79.6448 147.951C82.8214 150.47 79.5965 160.232 72.4421 169.754C65.2876 179.276 56.9129 184.952 53.7365 182.433C50.56 179.914 53.7848 170.152 60.9392 160.63C68.0937 151.108 76.4685 145.431 79.6448 147.951Z" fill="#FEC463"/>
<path d="M77.4464 150.882C80.0917 152.979 77.4205 161.085 71.4795 168.988C65.5391 176.89 58.5786 181.596 55.9333 179.499C53.2881 177.402 55.9595 169.296 61.9004 161.393C67.8409 153.491 74.801 148.785 77.4464 150.882Z" fill="#FFD686"/>
<path d="M62.0655 180.31C65.4578 170.027 68.8479 159.746 72.2683 149.443C71.6019 149.871 70.9152 150.357 70.2129 150.901C66.8068 161.145 63.4186 171.375 60.0486 181.594C60.6978 181.229 61.3724 180.799 62.0655 180.31Z" fill="#FFDA67"/>
<path d="M75.2504 147.856C74.5275 148.134 73.7581 148.511 72.9513 148.987C69.5433 159.253 66.1661 169.499 62.7854 179.746C63.6628 179.086 64.5655 178.334 65.4803 177.502C68.7482 167.612 72.0088 157.728 75.2504 147.856Z" fill="#FFDA67"/>
<path d="M77.4464 150.882C80.0917 152.979 77.4205 161.085 71.4795 168.988C65.5391 176.89 58.5786 181.596 55.9333 179.499C53.2881 177.402 55.9595 169.296 61.9004 161.393C67.8409 153.491 74.801 148.785 77.4464 150.882Z" fill="#FFD686"/>
<path d="M68.5873 154.229C66.4029 156.087 64.0959 158.544 61.9242 161.429C55.9672 169.341 53.2886 177.458 55.9409 179.558C56.9056 180.321 58.4434 180.18 60.2945 179.317C63.0469 170.962 65.8111 162.599 68.5873 154.229Z" fill="#FFD686"/>
<path d="M67.1935 173.901C68.6231 172.452 70.0645 170.787 71.4506 168.946C77.4112 161.031 80.091 152.913 77.437 150.813C76.8148 150.321 75.953 150.206 74.9237 150.416C72.3561 158.239 69.7777 166.067 67.1935 173.901Z" fill="#FFD686"/>
<path d="M56.735 179.191C54.0811 177.091 56.7612 168.973 62.7207 161.059C66.3936 156.182 70.4532 152.523 73.6505 150.923C70.351 152.274 65.912 156.13 61.9282 161.42C55.9686 169.334 53.2888 177.452 55.9423 179.552C56.9607 180.358 58.6174 180.157 60.6082 179.161C58.9719 179.831 57.6145 179.887 56.735 179.191Z" fill="#FAA955"/>
<path opacity="0.4" d="M62.9187 177.695C65.7409 169.155 68.5639 160.614 71.4051 152.061C70.7409 152.485 70.0511 152.98 69.3446 153.543C66.521 162.024 63.7104 170.496 60.9121 178.96C61.5525 178.615 62.2247 178.19 62.9187 177.695Z" fill="#FFF3CE"/>
<path opacity="0.4" d="M74.3557 150.595C73.6573 150.81 72.896 151.154 72.0881 151.618C69.2616 160.129 66.4529 168.627 63.6454 177.125C64.5327 176.442 65.4497 175.647 66.3771 174.759C69.0442 166.699 71.7056 158.643 74.3557 150.595Z" fill="#FFF3CE"/>
<path d="M92.9768 19.0621C92.6601 14.7592 89.4063 7.8755 84.1714 1.11144C78.937 -5.65281 73.1362 -10.4697 69.1178 -11.7693L67.7323 -13.5597L65.2622 -11.555L65.2839 -11.5268C62.194 -9.02003 65.6409 0.703444 72.9828 10.1908C80.3244 19.6776 88.7804 25.3357 91.8703 22.829L94.3404 20.8243L92.9768 19.0621Z" fill="#F9A65D"/>
<path d="M94.3273 20.8249C91.2378 23.3323 82.781 17.6736 75.4396 8.18649C68.0976 -1.30105 64.6505 -11.0245 67.7406 -13.5315C70.8304 -16.0387 79.2868 -10.3801 86.6286 -0.892912C93.9704 8.59449 97.4174 18.3179 94.3273 20.8249Z" fill="#FEC463"/>
<path d="M92.0854 17.92C89.5198 20.0009 82.4919 15.2974 76.389 7.41498C70.2859 -0.467569 67.4181 -8.54439 69.9839 -10.6252C72.5496 -12.7056 79.5768 -8.00241 85.6801 -0.119906C91.7834 7.76271 94.6509 15.8391 92.0854 17.92Z" fill="#FFD686"/>
<path d="M67.9182 -4.70264C76.7895 1.21342 85.6598 7.12598 94.5426 13.0739C94.29 12.314 93.9872 11.5195 93.6341 10.6955C84.8035 4.77658 75.9805 -1.12177 67.1646 -6.99902C67.362 -6.27202 67.6148 -5.50367 67.9182 -4.70264Z" fill="#FFDA67"/>
<path d="M95.3253 16.4346C95.2257 15.6572 95.0437 14.8094 94.7771 13.8994C85.9239 7.97094 77.0836 2.0774 68.2417 -3.81934C68.6647 -2.79457 69.169 -1.72108 69.7441 -0.615608C78.2759 5.0804 86.8043 10.7686 95.3253 16.4346Z" fill="#FFDA67"/>
<path d="M92.0854 17.92C89.5198 20.0009 82.4919 15.2974 76.389 7.41498C70.2859 -0.467569 67.4181 -8.54439 69.9839 -10.6252C72.5496 -12.7056 79.5768 -8.00241 85.6801 -0.119906C91.7834 7.76271 94.6509 15.8391 92.0854 17.92Z" fill="#FFD686"/>
<path d="M90.9785 8.23028C89.7219 5.6108 87.9318 2.71868 85.7098 -0.148552C79.6154 -8.01312 72.5983 -12.7056 70.0363 -10.6299C69.1048 -9.87513 68.8936 -8.32677 69.2911 -6.28748C76.5152 -1.46214 83.7444 3.3773 90.9785 8.23028Z" fill="#FFD686"/>
<path d="M72.6553 2.01074C73.695 3.78199 74.9352 5.6199 76.3524 7.44846C82.4455 15.3092 89.4608 19.9998 92.0221 17.9247C92.6226 17.4382 92.9225 16.6208 92.9547 15.556C86.1917 11.0513 79.4247 6.53405 72.6553 2.01074Z" fill="#FFD686"/>
<path d="M70.1753 -9.75653C72.7385 -11.8346 79.76 -7.1374 85.8573 0.734081C89.6149 5.58529 92.1427 10.5081 92.9312 14.06C92.3999 10.4711 89.7716 5.12478 85.6953 -0.137202C79.5976 -8.00889 72.5768 -12.7057 70.0134 -10.628C69.0296 -9.8308 68.8484 -8.14967 69.3388 -5.93858C69.0755 -7.7184 69.3256 -9.06793 70.1753 -9.75653Z" fill="#FAA955"/>
<path opacity="0.4" d="M70.1732 -3.19934C77.5407 1.71355 84.9085 6.62712 92.284 11.5622C92.0366 10.8044 91.7271 10.0034 91.3581 9.16873C84.0464 4.26974 76.7401 -0.614971 69.4385 -5.48535C69.618 -4.77041 69.865 -4.00446 70.1732 -3.19934Z" fill="#FFF3CE"/>
<path opacity="0.4" d="M92.9597 14.865C92.9146 14.1252 92.7641 13.2922 92.5102 12.3824C85.1705 7.47076 77.8379 2.58012 70.5059 -2.30957C70.9465 -1.2672 71.4848 -0.167644 72.1092 0.965301C79.0622 5.60726 86.0134 10.2427 92.9597 14.865Z" fill="#FFF3CE"/>
<path d="M176.876 56.5744C175.638 53.1867 171.45 48.4254 165.698 44.2353C159.946 40.0448 154.184 37.5578 150.658 37.4747L149.136 36.3656L147.608 38.5709L147.632 38.5883C145.722 41.3467 150.714 48.3474 158.782 54.2244C166.849 60.1017 174.938 62.6298 176.847 59.8713L178.374 57.6659L176.876 56.5744Z" fill="#F9A65D"/>
<path d="M178.369 57.6694C176.459 60.4279 168.37 57.8997 160.303 52.0225C152.235 46.1454 147.244 39.1448 149.153 36.3863C151.063 33.6279 159.152 36.1561 167.219 42.0333C175.287 47.9104 180.279 54.911 178.369 57.6694Z" fill="#FEC463"/>
<path d="M175.932 55.8747C174.35 58.1532 167.62 56.0391 160.899 51.1527C154.178 46.2662 150.011 40.458 151.593 38.1796C153.174 35.9011 159.905 38.0152 166.626 42.9016C173.347 47.7877 177.513 53.5959 175.932 55.8747Z" fill="#FFD686"/>
<path d="M151.305 43.4514C159.794 46.08 168.282 48.7068 176.788 51.3582C176.409 50.8131 175.983 50.2525 175.509 49.6798C167.052 47.039 158.605 44.4131 150.169 41.8018C150.496 42.3337 150.876 42.8854 151.305 43.4514Z" fill="#FFDA67"/>
<path d="M178.181 53.8756C177.922 53.2804 177.58 52.6486 177.156 51.9872C168.678 49.3429 160.219 46.7233 151.758 44.1016C152.334 44.818 152.987 45.5537 153.705 46.2983C161.87 48.8331 170.031 51.362 178.181 53.8756Z" fill="#FFDA67"/>
<path d="M175.932 55.8747C174.35 58.1532 167.62 56.0391 160.899 51.1527C154.178 46.2662 150.011 40.458 151.593 38.1796C153.174 35.9011 159.905 38.0152 166.626 42.9016C173.347 47.7877 177.513 53.5959 175.932 55.8747Z" fill="#FFD686"/>
<path d="M172.824 48.3274C171.211 46.527 169.106 44.6345 166.661 42.8636C159.952 38.006 153.235 35.9044 151.656 38.1694C151.082 38.9929 151.27 40.2816 152.06 41.8202C158.974 43.9791 165.896 46.1481 172.824 48.3274Z" fill="#FFD686"/>
<path d="M156.634 47.7236C157.878 48.895 159.298 50.0723 160.857 51.2005C167.564 56.0508 174.279 58.1493 175.857 55.8877C176.227 55.3573 176.279 54.6332 176.059 53.7745C169.589 51.7649 163.113 49.7466 156.634 47.7236Z" fill="#FFD686"/>
<path d="M151.96 38.8343C153.539 36.5633 160.262 38.6702 166.974 43.5404C171.112 46.5419 174.277 49.8915 175.729 52.5525C174.475 49.8009 171.131 46.1359 166.643 42.8804C159.93 38.0101 153.208 35.9029 151.629 38.1739C151.023 39.0454 151.265 40.4358 152.169 42.0924C151.547 40.728 151.436 39.5872 151.96 38.8343Z" fill="#FAA955"/>
<path opacity="0.4" d="M153.465 44.1283C160.512 46.3091 167.559 48.4903 174.617 50.6867C174.245 50.1387 173.813 49.5711 173.325 48.9906C166.326 46.8077 159.335 44.635 152.351 42.4727C152.659 43.0021 153.032 43.5569 153.465 44.1283Z" fill="#FFF3CE"/>
<path opacity="0.4" d="M175.911 53.1809C175.706 52.5991 175.394 51.9678 174.982 51.2996C167.958 49.1129 160.944 46.9408 153.931 44.7695C154.524 45.4994 155.208 46.252 155.969 47.0109C162.621 49.074 169.27 51.1321 175.911 53.1809Z" fill="#FFF3CE"/>
<path d="M160.626 119.374C157.748 118.321 152.357 118.527 146.476 120.133C140.594 121.739 135.812 124.31 133.818 126.693L132.262 127.118L132.852 129.412L132.876 129.405C133.615 132.274 140.9 132.773 149.149 130.521C157.398 128.269 163.486 124.118 162.748 121.249L162.158 118.956L160.626 119.374Z" fill="#F9A65D"/>
<path d="M162.165 118.98C162.903 121.849 156.814 126 148.565 128.252C140.317 130.504 133.031 130.005 132.293 127.136C131.555 124.267 137.644 120.116 145.892 117.864C154.141 115.612 161.427 116.112 162.165 118.98Z" fill="#FEC463"/>
<path d="M159.637 119.671C160.25 122.054 155.192 125.503 148.339 127.374C141.486 129.245 135.434 128.83 134.82 126.447C134.207 124.063 139.265 120.615 146.118 118.744C152.971 116.872 159.024 117.288 159.637 119.671Z" fill="#FFD686"/>
<path d="M138.03 129.637C144.428 125.269 150.824 120.901 157.246 116.534C156.679 116.482 156.075 116.455 155.437 116.454C149.048 120.793 142.676 125.134 136.319 129.475C136.849 129.555 137.422 129.609 138.03 129.637Z" fill="#FFDA67"/>
<path d="M159.647 116.975C159.113 116.813 158.509 116.686 157.84 116.6C151.44 120.951 145.066 125.305 138.69 129.658C139.478 129.671 140.322 129.642 141.206 129.573C147.363 125.375 153.513 121.175 159.647 116.975Z" fill="#FFDA67"/>
<path d="M159.637 119.671C160.25 122.054 155.192 125.503 148.339 127.374C141.486 129.245 135.434 128.83 134.82 126.447C134.207 124.063 139.265 120.615 146.118 118.744C152.971 116.872 159.024 117.288 159.637 119.671Z" fill="#FFD686"/>
<path d="M153.069 117.594C151.008 117.684 148.617 118.06 146.118 118.743C139.265 120.614 134.207 124.062 134.82 126.446C135.043 127.312 135.988 127.917 137.426 128.248C142.63 124.696 147.844 121.144 153.069 117.594Z" fill="#FFD686"/>
<path d="M143.747 128.31C145.195 128.118 146.745 127.808 148.339 127.373C155.192 125.502 160.25 122.053 159.637 119.67C159.493 119.111 159.048 118.661 158.366 118.323C153.501 121.653 148.626 124.981 143.747 128.31Z" fill="#FFD686"/>
<path d="M135.432 126.593C134.819 124.21 139.877 120.761 146.73 118.89C150.953 117.737 154.871 117.453 157.4 117.963C154.92 117.265 150.699 117.493 146.118 118.744C139.265 120.614 134.207 124.063 134.82 126.446C135.056 127.361 136.094 127.984 137.669 128.301C136.439 127.955 135.635 127.383 135.432 126.593Z" fill="#FAA955"/>
<path opacity="0.4" d="M139.656 128.528C144.969 124.899 150.283 121.272 155.612 117.645C155.049 117.591 154.439 117.567 153.79 117.573C148.502 121.167 143.224 124.761 137.958 128.356C138.475 128.444 139.044 128.501 139.656 128.528Z" fill="#FFF3CE"/>
<path opacity="0.4" d="M157.944 118.141C157.45 117.953 156.865 117.81 156.201 117.715C150.897 121.324 145.609 124.934 140.322 128.545C141.127 128.55 141.996 128.504 142.913 128.41C147.93 124.987 152.942 121.565 157.944 118.141Z" fill="#FFF3CE"/>
</svg>
