<svg width="40" height="40" viewBox="0 0 40 40" fill="none" xmlns="http://www.w3.org/2000/svg">
<path d="M20 40C31.0457 40 40 31.0457 40 20C40 8.9543 31.0457 0 20 0C8.9543 0 0 8.9543 0 20C0 31.0457 8.9543 40 20 40Z" fill="#88C9F9"/>
<path d="M33.4778 26.3867C32.3478 25.9533 32.5489 26.1111 31.8523 24.63C31.1556 23.15 30.7334 22.6733 29.1667 22.5C27.5989 22.3278 27.6578 22.45 27.2223 21.6667C26.7867 20.8822 25.0201 21.8789 23.8889 22.3156C22.7545 22.7511 23.0345 23.7 22.6856 23.6111C22.3356 23.5245 21.4556 23.2989 20.5823 22.6033C19.7112 21.9056 21.2301 21.3611 21.6667 20.9267C22.1034 20.49 20.8445 20.7278 20.4078 20.4645C19.9712 20.2045 19.1901 20.9878 18.4934 20.2889C17.7956 19.5922 18.2323 18.5467 18.1456 17.6756C18.0578 16.8033 19.2767 16.63 20.0612 16.4556C20.8445 16.2822 21.4534 16.4567 21.4534 17.5011C21.4534 18.5467 22.4123 18.8956 22.1512 17.6745C21.8901 16.4533 22.4123 16.1067 22.7623 15.4967C23.1101 14.8867 23.7201 14.0145 24.5034 12.7078C25.2878 11.4011 25.8112 12.01 26.7689 12.1033C27.7278 12.1978 27.9889 12.0111 28.6856 12.0989C29.3801 12.1867 28.6856 11.2278 28.9478 10.27C29.2078 9.31223 30.1667 9.48557 31.1267 9.74779C32.0845 10.0089 30.1667 8.52668 29.8189 7.74334C29.4689 6.9589 28.5112 7.74334 27.9034 6.43668C27.2889 5.13001 26.4323 4.28445 25.6478 4.16779C24.8634 4.05001 25.8978 5.82779 25.2878 6.78556C24.6756 7.74334 23.7378 7.59334 22.7767 7.59334C21.8201 7.59334 20.9312 6.78556 21.6289 5.56556C22.3245 4.34668 23.6545 4.47223 24.3512 3.42668C25.0489 2.38223 21.8734 2.47779 20.7401 2.13001C19.6067 1.78112 18.2467 1.78445 17.1145 2.65556C15.9812 3.52557 13.5578 3.79779 12.5989 4.14556C11.6412 4.49334 11.4689 3.56779 11.2956 2.87001C11.2178 2.56001 10.8645 2.46223 10.3667 2.47334C7.90006 3.83334 5.76339 5.7089 4.07117 7.94112C4.3345 8.83779 5.61006 7.73112 5.86006 7.48112C6.12117 7.22001 7.42783 7.5689 7.60117 8.52668C7.77561 9.48445 7.68894 10.5322 7.34117 11.4033C6.99228 12.2733 8.21228 13.4933 8.90894 14.7133C9.60672 15.9345 10.3901 15.9333 10.7389 15.9333C11.0867 15.9333 13.0912 16.7178 13.0034 17.6756C12.9167 18.6345 14.8334 19.5045 15.6178 20.1145C16.4023 20.7267 16.8978 21.3278 17.9156 21.5033C18.9345 21.6789 20.1256 23.3445 20.6478 23.52C21.0489 23.6533 21.7278 24.2945 22.1378 24.4933C21.5989 25.1756 20.5556 26.5767 20.5556 27.2222C20.5556 28.0956 21.6945 29.4678 22.1301 29.8156C22.5645 30.1622 23.8156 30.4267 24.0745 31.2967C24.3367 32.1678 23.8923 35.1 23.1101 35.8833C22.3234 36.6667 22.0378 38.5189 22.0378 38.5189C22.0378 38.5189 22.3145 39.12 23.2412 38.5189C24.2656 37.8556 25.9812 35.9667 26.6667 35.5556C27.9734 34.77 29.2434 33.8167 30.4634 32.6856C31.6834 31.5533 31.2412 30.76 31.8523 29.63C32.4623 28.4978 33.2512 28.5489 34.2956 27.5933C35.3423 26.6333 34.6112 26.8233 33.4778 26.3867Z" fill="#5C913B"/>
</svg>
