<svg width="730" height="304" viewBox="0 0 730 304" fill="none" xmlns="http://www.w3.org/2000/svg">
<g filter="url(#filter0_dddd_73_2347)">
<rect x="26" y="5" width="678" height="207" rx="16" fill="#F0F2FB" style="fill:#F0F2FB;fill:color(display-p3 0.9412 0.9490 0.9843);fill-opacity:1;"/>
<path d="M30 29H363V196C363 202.627 357.627 208 351 208H42C35.3726 208 30 202.627 30 196V29Z" fill="white" style="fill:white;fill-opacity:1;"/>
<rect x="142" y="45" width="109" height="24" rx="10" fill="#F0F2FB" style="fill:#F0F2FB;fill:color(display-p3 0.9412 0.9490 0.9843);fill-opacity:1;"/>
<path d="M151.069 60V53H155.389V54.47H152.849V55.7H154.989V57.17H152.849V58.53H155.389V60H151.069ZM156.725 60V54.96H158.315V55.22C158.615 54.96 159.015 54.76 159.555 54.76C160.145 54.76 160.665 55 161.005 55.49C161.335 55.1 161.795 54.76 162.625 54.76C163.635 54.76 164.475 55.48 164.475 56.94V60H162.875V57.01C162.875 56.56 162.645 56.25 162.195 56.25C161.685 56.25 161.485 56.69 161.405 56.82C161.405 56.86 161.405 56.9 161.405 56.94V60H159.805V57.01C159.805 56.56 159.575 56.25 159.125 56.25C158.625 56.25 158.425 56.69 158.315 56.86V60H156.725ZM165.729 62.46V54.96H167.319V55.24C167.659 54.93 168.099 54.76 168.719 54.76C170.329 54.76 171.259 56.01 171.259 57.48C171.259 58.95 170.329 60.2 168.719 60.2C168.099 60.2 167.659 60.03 167.319 59.72V62.46H165.729ZM168.489 56.25C167.979 56.25 167.599 56.47 167.319 56.85V58.11C167.619 58.5 167.989 58.71 168.489 58.71C169.189 58.71 169.619 58.22 169.619 57.48C169.619 56.74 169.189 56.25 168.489 56.25ZM172.253 60V54.96H173.843V55.37C174.153 55.08 174.543 54.86 175.063 54.86C175.243 54.86 175.403 54.89 175.523 54.93V56.5C175.353 56.46 175.163 56.43 174.903 56.43C174.323 56.43 173.943 56.77 173.843 56.94V60H172.253ZM180.997 59.19C180.517 59.82 179.727 60.2 178.757 60.2C176.907 60.2 175.927 58.95 175.927 57.48C175.927 56.02 176.837 54.76 178.547 54.76C179.977 54.76 180.917 55.71 180.917 57.08C180.917 57.42 180.867 57.74 180.817 57.92H177.557C177.707 58.6 178.147 58.78 178.747 58.78C179.227 58.78 179.647 58.59 179.877 58.3L180.997 59.19ZM178.507 56.04C177.997 56.04 177.687 56.29 177.567 56.8H179.377C179.357 56.46 179.097 56.04 178.507 56.04ZM182.809 54.41C182.259 54.41 181.799 53.94 181.799 53.4C181.799 52.86 182.259 52.4 182.809 52.4C183.339 52.4 183.799 52.86 183.799 53.4C183.799 53.94 183.339 54.41 182.809 54.41ZM181.999 60V54.96H183.589V60H181.999ZM184.889 60V54.96H186.479V55.24C186.809 54.96 187.229 54.76 187.819 54.76C188.889 54.76 189.769 55.51 189.769 57.04V60H188.169V57.11C188.169 56.6 187.899 56.25 187.389 56.25C186.829 56.25 186.579 56.69 186.479 56.86V60H184.889ZM191.372 58.04V56.38H190.432V54.96H191.372V53.7H192.972V54.96H194.352V56.38H192.972V58.04C192.972 58.44 193.182 58.66 193.602 58.66C193.972 58.66 194.212 58.61 194.362 58.55V59.92C194.092 60.04 193.782 60.1 193.312 60.1C191.942 60.1 191.372 59.28 191.372 58.04ZM200.03 59.19C199.55 59.82 198.76 60.2 197.79 60.2C195.94 60.2 194.96 58.95 194.96 57.48C194.96 56.02 195.87 54.76 197.58 54.76C199.01 54.76 199.95 55.71 199.95 57.08C199.95 57.42 199.9 57.74 199.85 57.92H196.59C196.74 58.6 197.18 58.78 197.78 58.78C198.26 58.78 198.68 58.59 198.91 58.3L200.03 59.19ZM197.54 56.04C197.03 56.04 196.72 56.29 196.6 56.8H198.41C198.39 56.46 198.13 56.04 197.54 56.04ZM206.237 58.71C206.637 58.71 206.957 58.51 207.137 58.25L208.377 59.19C207.907 59.81 207.157 60.2 206.227 60.2C204.447 60.2 203.427 58.95 203.427 57.48C203.427 56.01 204.447 54.76 206.227 54.76C207.157 54.76 207.907 55.15 208.377 55.77L207.137 56.71C206.957 56.45 206.647 56.25 206.207 56.25C205.557 56.25 205.077 56.74 205.077 57.48C205.077 58.23 205.557 58.71 206.237 58.71ZM210.519 60.15C209.499 60.15 208.789 59.56 208.789 58.58C208.789 57.81 209.379 57.22 210.479 57.04L211.899 56.8C211.889 56.42 211.559 56.13 211.089 56.13C210.669 56.13 210.359 56.33 210.129 56.66L208.969 55.78C209.429 55.14 210.199 54.76 211.139 54.76C212.739 54.76 213.479 55.72 213.479 56.82V60H211.899V59.62C211.619 59.93 211.049 60.15 210.519 60.15ZM210.359 58.5C210.359 58.76 210.559 58.92 210.869 58.92C211.379 58.92 211.699 58.68 211.899 58.38V57.88L210.909 58.05C210.499 58.12 210.359 58.27 210.359 58.5ZM214.733 60V54.96H216.323V55.37C216.633 55.08 217.023 54.86 217.543 54.86C217.723 54.86 217.883 54.89 218.003 54.93V56.5C217.833 56.46 217.643 56.43 217.383 56.43C216.803 56.43 216.423 56.77 216.323 56.94V60H214.733ZM224.384 57.48C224.384 58.95 223.454 60.2 221.844 60.2C221.224 60.2 220.784 60.03 220.444 59.72V60H218.854V52.5H220.444V55.24C220.784 54.93 221.224 54.76 221.844 54.76C223.454 54.76 224.384 56.01 224.384 57.48ZM221.614 56.25C221.104 56.25 220.714 56.47 220.444 56.84V58.12C220.744 58.5 221.124 58.71 221.614 58.71C222.314 58.71 222.744 58.22 222.744 57.48C222.744 56.74 222.314 56.25 221.614 56.25ZM227.868 54.76C229.518 54.76 230.648 55.94 230.648 57.48C230.648 59.02 229.518 60.2 227.868 60.2C226.208 60.2 225.078 59.02 225.078 57.48C225.078 55.94 226.208 54.76 227.868 54.76ZM227.878 58.71C228.518 58.71 229.008 58.22 229.008 57.48C229.008 56.72 228.518 56.25 227.878 56.25C227.218 56.25 226.728 56.73 226.728 57.48C226.728 58.23 227.218 58.71 227.878 58.71ZM231.647 60V54.96H233.237V55.24C233.567 54.96 233.987 54.76 234.577 54.76C235.647 54.76 236.527 55.51 236.527 57.04V60H234.927V57.11C234.927 56.6 234.657 56.25 234.147 56.25C233.587 56.25 233.337 56.69 233.237 56.86V60H231.647ZM242.55 59.19C242.07 59.82 241.28 60.2 240.31 60.2C238.46 60.2 237.48 58.95 237.48 57.48C237.48 56.02 238.39 54.76 240.1 54.76C241.53 54.76 242.47 55.71 242.47 57.08C242.47 57.42 242.42 57.74 242.37 57.92H239.11C239.26 58.6 239.7 58.78 240.3 58.78C240.78 58.78 241.2 58.59 241.43 58.3L242.55 59.19ZM240.06 56.04C239.55 56.04 239.24 56.29 239.12 56.8H240.93C240.91 56.46 240.65 56.04 240.06 56.04Z" fill="#AEB7E9" style="fill:#AEB7E9;fill:color(display-p3 0.6824 0.7176 0.9137);fill-opacity:1;"/>
<path d="M143.665 84.22C147.433 84.22 149.353 86.38 149.353 88.756C149.353 90.292 148.609 91.612 147.145 92.404C149.065 93.196 150.097 94.756 150.097 96.796C150.097 99.724 147.841 101.98 143.665 101.98C139.513 101.98 137.233 99.724 137.233 96.796C137.233 94.756 138.265 93.196 140.209 92.404C138.721 91.612 137.977 90.292 137.977 88.756C137.977 86.38 139.921 84.22 143.665 84.22ZM143.713 91.18C145.105 91.18 146.017 90.364 146.017 89.116C146.017 87.844 145.105 87.004 143.713 87.004C142.201 87.004 141.313 87.844 141.313 89.116C141.313 90.364 142.225 91.18 143.713 91.18ZM143.689 99.172C145.585 99.172 146.761 98.164 146.761 96.628C146.761 95.044 145.585 93.964 143.689 93.964C141.769 93.964 140.569 95.044 140.569 96.628C140.569 98.188 141.769 99.172 143.689 99.172ZM154.002 105.34H151.17L153.354 98.164H156.786L154.002 105.34ZM157.063 97.036V94.108L164.263 84.7H168.055V94.108H169.759V97.036H168.055V101.5H164.815V97.036H157.063ZM160.399 94.108H164.815V88.372L160.399 94.108ZM179.651 97.084V92.14H177.395V89.404H179.651V86.38H182.723V89.404H186.419V92.14H182.723V97.084C182.723 98.428 183.443 98.956 184.643 98.956C185.483 98.956 186.035 98.86 186.443 98.692V101.356C185.843 101.62 185.123 101.74 184.115 101.74C181.091 101.74 179.651 100.036 179.651 97.084ZM194.674 88.924C198.61 88.924 201.298 91.828 201.298 95.452C201.298 99.076 198.61 101.98 194.674 101.98C190.738 101.98 188.05 99.076 188.05 95.452C188.05 91.828 190.738 88.924 194.674 88.924ZM194.722 99.1C196.666 99.1 198.13 97.54 198.13 95.452C198.13 93.34 196.666 91.804 194.722 91.804C192.706 91.804 191.218 93.34 191.218 95.452C191.218 97.564 192.706 99.1 194.722 99.1ZM204.078 101.5V89.404H207.126V90.364C207.966 89.548 209.094 88.924 210.702 88.924C213.318 88.924 215.406 90.724 215.406 94.3V101.5H212.334V94.42C212.334 92.812 211.422 91.804 209.934 91.804C208.398 91.804 207.582 92.836 207.126 93.604V101.5H204.078ZM218.867 101.5V89.404H221.915V90.364C222.755 89.548 223.883 88.924 225.491 88.924C228.107 88.924 230.195 90.724 230.195 94.3V101.5H227.123V94.42C227.123 92.812 226.211 91.804 224.723 91.804C223.187 91.804 222.371 92.836 221.915 93.604V101.5H218.867ZM244.792 99.532C243.664 101.044 241.792 101.98 239.512 101.98C235.216 101.98 232.792 98.98 232.792 95.452C232.792 91.876 235.048 88.924 239.008 88.924C242.368 88.924 244.576 91.204 244.576 94.372C244.576 95.044 244.48 95.668 244.384 96.076H235.912C236.2 98.332 237.592 99.244 239.488 99.244C240.808 99.244 241.96 98.668 242.608 97.804L244.792 99.532ZM238.936 91.42C237.376 91.42 236.344 92.284 236.008 93.868H241.576C241.528 92.644 240.64 91.42 238.936 91.42ZM246.334 99.748L248.35 97.924C249.094 98.86 249.982 99.532 251.134 99.532C252.118 99.532 252.622 98.956 252.622 98.236C252.622 96.124 246.838 96.916 246.838 92.668C246.838 90.532 248.638 88.924 251.158 88.924C253.006 88.924 254.686 89.812 255.55 90.988L253.534 92.764C252.91 91.996 252.118 91.372 251.182 91.372C250.222 91.372 249.766 91.9 249.766 92.524C249.766 94.588 255.55 93.868 255.55 98.044C255.502 100.588 253.462 101.98 251.182 101.98C249.022 101.98 247.486 101.116 246.334 99.748ZM134.135 123.964C134.135 121.318 135.953 119.068 138.797 119.068C140.147 119.068 141.209 119.59 142.019 120.508V115H143.549V128.5H142.019V127.42C141.209 128.338 140.147 128.86 138.797 128.86C135.953 128.86 134.135 126.61 134.135 123.964ZM135.755 123.964C135.755 125.89 137.051 127.42 138.977 127.42C140.237 127.42 141.353 126.808 142.019 125.746V122.182C141.317 121.102 140.219 120.508 138.977 120.508C137.051 120.508 135.755 122.038 135.755 123.964ZM154.838 127.006C153.992 128.14 152.642 128.86 150.95 128.86C147.89 128.86 146 126.61 146 123.964C146 121.21 147.764 119.068 150.572 119.068C153.038 119.068 154.64 120.796 154.64 123.028C154.64 123.388 154.586 123.73 154.532 123.982H147.566C147.62 126.16 149.006 127.474 150.95 127.474C152.12 127.474 153.11 126.934 153.704 126.124L154.838 127.006ZM150.536 120.364C149.042 120.364 147.998 121.246 147.674 122.812H153.11C153.056 121.48 152.138 120.364 150.536 120.364ZM168.007 127.276C169.699 127.276 171.085 126.448 171.931 125.224L173.281 126.268C172.129 127.834 170.275 128.86 168.007 128.86C164.065 128.86 161.383 125.8 161.383 122.2C161.383 118.6 164.065 115.54 168.007 115.54C170.275 115.54 172.129 116.584 173.281 118.132L171.931 119.176C171.085 117.952 169.699 117.124 168.007 117.124C165.163 117.124 163.129 119.392 163.129 122.2C163.129 125.008 165.163 127.276 168.007 127.276ZM181.419 115.54C185.343 115.54 188.025 118.6 188.025 122.2C188.025 125.8 185.343 128.86 181.419 128.86C177.477 128.86 174.795 125.8 174.795 122.2C174.795 118.6 177.477 115.54 181.419 115.54ZM181.419 127.276C184.245 127.276 186.279 125.008 186.279 122.2C186.279 119.392 184.245 117.124 181.419 117.124C178.575 117.124 176.541 119.392 176.541 122.2C176.541 125.008 178.575 127.276 181.419 127.276ZM190.165 128.5V127.042L194.431 122.65C195.907 121.102 196.573 120.4 196.573 119.068C196.573 117.754 195.619 116.998 194.341 116.998C193.009 116.998 192.145 117.664 191.407 118.888L190.075 118.078C191.101 116.476 192.505 115.54 194.467 115.54C196.573 115.54 198.247 116.908 198.247 118.96C198.247 120.67 197.131 121.948 195.619 123.532L192.163 127.042H198.589V128.5H190.165ZM206.206 132.928V119.428H207.736V120.508C208.546 119.59 209.608 119.068 210.958 119.068C213.802 119.068 215.62 121.318 215.62 123.964C215.62 126.61 213.802 128.86 210.958 128.86C209.608 128.86 208.546 128.338 207.736 127.42V132.928H206.206ZM210.778 120.508C209.518 120.508 208.42 121.12 207.736 122.2V125.728C208.438 126.826 209.536 127.42 210.778 127.42C212.704 127.42 214.018 125.89 214.018 123.964C214.018 122.038 212.704 120.508 210.778 120.508ZM220.397 128.752C218.615 128.752 217.409 127.762 217.409 126.214C217.409 124.846 218.453 123.874 220.379 123.55L223.439 123.046V122.416C223.439 121.156 222.539 120.436 221.243 120.436C220.199 120.436 219.353 120.922 218.795 121.696L217.643 120.814C218.435 119.734 219.713 119.068 221.297 119.068C223.601 119.068 224.969 120.418 224.969 122.416V128.5H223.439V127.348C222.755 128.23 221.567 128.752 220.397 128.752ZM218.957 126.16C218.957 126.934 219.587 127.492 220.649 127.492C221.855 127.492 222.845 126.916 223.439 125.944V124.162L220.757 124.612C219.515 124.828 218.957 125.386 218.957 126.16ZM228.038 128.5V119.428H229.568V120.562C230.234 119.77 231.062 119.248 232.214 119.248C232.502 119.248 232.772 119.284 232.988 119.356V120.85C232.718 120.778 232.448 120.742 232.088 120.742C230.9 120.742 230.126 121.354 229.568 122.272V128.5H228.038ZM242.51 128.752C240.728 128.752 239.522 127.762 239.522 126.214C239.522 124.846 240.566 123.874 242.492 123.55L245.552 123.046V122.416C245.552 121.156 244.652 120.436 243.356 120.436C242.312 120.436 241.466 120.922 240.908 121.696L239.756 120.814C240.548 119.734 241.826 119.068 243.41 119.068C245.714 119.068 247.082 120.418 247.082 122.416V128.5H245.552V127.348C244.868 128.23 243.68 128.752 242.51 128.752ZM241.07 126.16C241.07 126.934 241.7 127.492 242.762 127.492C243.968 127.492 244.958 126.916 245.552 125.944V124.162L242.87 124.612C241.628 124.828 241.07 125.386 241.07 126.16ZM250.151 128.5V119.428H251.681V120.454C252.419 119.644 253.355 119.068 254.705 119.068C256.739 119.068 258.251 120.436 258.251 123.01V128.5H256.721V123.064C256.721 121.444 255.803 120.508 254.399 120.508C253.085 120.508 252.257 121.264 251.681 122.218V128.5H250.151Z" fill="#4949BA" style="fill:#4949BA;fill:color(display-p3 0.2863 0.2863 0.7294);fill-opacity:1;"/>
<path d="M280 162L275.67 153.75L284.33 153.75L280 162Z" fill="#4949BA" style="fill:#4949BA;fill:color(display-p3 0.2863 0.2863 0.7294);fill-opacity:1;"/>
<rect x="46" y="162" width="301" height="12" rx="6" fill="url(#paint0_linear_73_2347)" style=""/>
<path d="M367 29H700V196C700 202.627 694.627 208 688 208H379C372.373 208 367 202.627 367 196V29Z" fill="white" style="fill:white;fill-opacity:1;"/>
<rect x="490" y="45" width="87" height="24" rx="10" fill="#F0F2FB" style="fill:#F0F2FB;fill:color(display-p3 0.9412 0.9490 0.9843);fill-opacity:1;"/>
<path d="M499.314 60V53H503.634V54.47H501.094V55.7H503.234V57.17H501.094V58.53H503.634V60H499.314ZM504.97 60V54.96H506.56V55.22C506.86 54.96 507.26 54.76 507.8 54.76C508.39 54.76 508.91 55 509.25 55.49C509.58 55.1 510.04 54.76 510.87 54.76C511.88 54.76 512.72 55.48 512.72 56.94V60H511.12V57.01C511.12 56.56 510.89 56.25 510.44 56.25C509.93 56.25 509.73 56.69 509.65 56.82C509.65 56.86 509.65 56.9 509.65 56.94V60H508.05V57.01C508.05 56.56 507.82 56.25 507.37 56.25C506.87 56.25 506.67 56.69 506.56 56.86V60H504.97ZM513.974 62.46V54.96H515.564V55.24C515.904 54.93 516.344 54.76 516.964 54.76C518.574 54.76 519.504 56.01 519.504 57.48C519.504 58.95 518.574 60.2 516.964 60.2C516.344 60.2 515.904 60.03 515.564 59.72V62.46H513.974ZM516.734 56.25C516.224 56.25 515.844 56.47 515.564 56.85V58.11C515.864 58.5 516.234 58.71 516.734 58.71C517.434 58.71 517.864 58.22 517.864 57.48C517.864 56.74 517.434 56.25 516.734 56.25ZM520.498 60V54.96H522.088V55.37C522.398 55.08 522.788 54.86 523.308 54.86C523.488 54.86 523.648 54.89 523.768 54.93V56.5C523.598 56.46 523.408 56.43 523.148 56.43C522.568 56.43 522.188 56.77 522.088 56.94V60H520.498ZM529.242 59.19C528.762 59.82 527.972 60.2 527.002 60.2C525.152 60.2 524.172 58.95 524.172 57.48C524.172 56.02 525.082 54.76 526.792 54.76C528.222 54.76 529.162 55.71 529.162 57.08C529.162 57.42 529.112 57.74 529.062 57.92H525.802C525.952 58.6 526.392 58.78 526.992 58.78C527.472 58.78 527.892 58.59 528.122 58.3L529.242 59.19ZM526.752 56.04C526.242 56.04 525.932 56.29 525.812 56.8H527.622C527.602 56.46 527.342 56.04 526.752 56.04ZM531.054 54.41C530.504 54.41 530.044 53.94 530.044 53.4C530.044 52.86 530.504 52.4 531.054 52.4C531.584 52.4 532.044 52.86 532.044 53.4C532.044 53.94 531.584 54.41 531.054 54.41ZM530.244 60V54.96H531.834V60H530.244ZM533.134 60V54.96H534.724V55.24C535.054 54.96 535.474 54.76 536.064 54.76C537.134 54.76 538.014 55.51 538.014 57.04V60H536.414V57.11C536.414 56.6 536.144 56.25 535.634 56.25C535.074 56.25 534.824 56.69 534.724 56.86V60H533.134ZM539.617 58.04V56.38H538.677V54.96H539.617V53.7H541.217V54.96H542.597V56.38H541.217V58.04C541.217 58.44 541.427 58.66 541.847 58.66C542.217 58.66 542.457 58.61 542.607 58.55V59.92C542.337 60.04 542.027 60.1 541.557 60.1C540.187 60.1 539.617 59.28 539.617 58.04ZM548.275 59.19C547.795 59.82 547.005 60.2 546.035 60.2C544.185 60.2 543.205 58.95 543.205 57.48C543.205 56.02 544.115 54.76 545.825 54.76C547.255 54.76 548.195 55.71 548.195 57.08C548.195 57.42 548.145 57.74 548.095 57.92H544.835C544.985 58.6 545.425 58.78 546.025 58.78C546.505 58.78 546.925 58.59 547.155 58.3L548.275 59.19ZM545.785 56.04C545.275 56.04 544.965 56.29 544.845 56.8H546.655C546.635 56.46 546.375 56.04 545.785 56.04ZM556.742 59.19C556.262 59.82 555.472 60.2 554.502 60.2C552.652 60.2 551.672 58.95 551.672 57.48C551.672 56.02 552.582 54.76 554.292 54.76C555.722 54.76 556.662 55.71 556.662 57.08C556.662 57.42 556.612 57.74 556.562 57.92H553.302C553.452 58.6 553.892 58.78 554.492 58.78C554.972 58.78 555.392 58.59 555.622 58.3L556.742 59.19ZM554.252 56.04C553.742 56.04 553.432 56.29 553.312 56.8H555.122C555.102 56.46 554.842 56.04 554.252 56.04ZM559.106 60.15C558.086 60.15 557.376 59.56 557.376 58.58C557.376 57.81 557.966 57.22 559.066 57.04L560.486 56.8C560.476 56.42 560.146 56.13 559.676 56.13C559.256 56.13 558.946 56.33 558.716 56.66L557.556 55.78C558.016 55.14 558.786 54.76 559.726 54.76C561.326 54.76 562.066 55.72 562.066 56.82V60H560.486V59.62C560.206 59.93 559.636 60.15 559.106 60.15ZM558.946 58.5C558.946 58.76 559.146 58.92 559.456 58.92C559.966 58.92 560.286 58.68 560.486 58.38V57.88L559.496 58.05C559.086 58.12 558.946 58.27 558.946 58.5ZM566.51 57.81V54.96H568.11V57.72C568.11 59.23 567.21 60.2 565.66 60.2C564.09 60.2 563.22 59.23 563.22 57.72V54.96H564.82V57.81C564.82 58.34 565.08 58.71 565.67 58.71C566.24 58.71 566.51 58.34 566.51 57.81Z" fill="#AEB7E9" style="fill:#AEB7E9;fill:color(display-p3 0.6824 0.7176 0.9137);fill-opacity:1;"/>
<path d="M479.809 84.22C483.577 84.22 485.497 86.38 485.497 88.756C485.497 90.292 484.753 91.612 483.289 92.404C485.209 93.196 486.241 94.756 486.241 96.796C486.241 99.724 483.985 101.98 479.809 101.98C475.657 101.98 473.377 99.724 473.377 96.796C473.377 94.756 474.409 93.196 476.353 92.404C474.865 91.612 474.121 90.292 474.121 88.756C474.121 86.38 476.065 84.22 479.809 84.22ZM479.857 91.18C481.249 91.18 482.161 90.364 482.161 89.116C482.161 87.844 481.249 87.004 479.857 87.004C478.345 87.004 477.457 87.844 477.457 89.116C477.457 90.364 478.369 91.18 479.857 91.18ZM479.833 99.172C481.729 99.172 482.905 98.164 482.905 96.628C482.905 95.044 481.729 93.964 479.833 93.964C477.913 93.964 476.713 95.044 476.713 96.628C476.713 98.188 477.913 99.172 479.833 99.172ZM493.919 84.22C498.335 84.22 500.399 88.06 500.399 93.1C500.399 98.14 498.335 101.98 493.919 101.98C489.503 101.98 487.439 98.14 487.439 93.1C487.439 88.06 489.503 84.22 493.919 84.22ZM493.919 87.22C491.783 87.22 490.751 89.572 490.751 93.1C490.751 96.652 491.783 98.98 493.919 98.98C496.031 98.98 497.063 96.628 497.063 93.1C497.063 89.548 496.031 87.22 493.919 87.22ZM508.52 84.22C512.936 84.22 515 88.06 515 93.1C515 98.14 512.936 101.98 508.52 101.98C504.104 101.98 502.04 98.14 502.04 93.1C502.04 88.06 504.104 84.22 508.52 84.22ZM508.52 87.22C506.384 87.22 505.352 89.572 505.352 93.1C505.352 96.652 506.384 98.98 508.52 98.98C510.632 98.98 511.664 96.628 511.664 93.1C511.664 89.548 510.632 87.22 508.52 87.22ZM523.122 84.22C527.538 84.22 529.602 88.06 529.602 93.1C529.602 98.14 527.538 101.98 523.122 101.98C518.706 101.98 516.642 98.14 516.642 93.1C516.642 88.06 518.706 84.22 523.122 84.22ZM523.122 87.22C520.986 87.22 519.954 89.572 519.954 93.1C519.954 96.652 520.986 98.98 523.122 98.98C525.234 98.98 526.266 96.628 526.266 93.1C526.266 89.548 525.234 87.22 523.122 87.22ZM538.605 101.5V83.5H541.653V101.5H538.605ZM546.844 87.292C545.764 87.292 544.852 86.38 544.852 85.3C544.852 84.22 545.764 83.308 546.844 83.308C547.924 83.308 548.812 84.22 548.812 85.3C548.812 86.38 547.924 87.292 546.844 87.292ZM545.308 101.5V89.404H548.356V101.5H545.308ZM552.78 97.084V92.14H550.524V89.404H552.78V86.38H555.852V89.404H559.548V92.14H555.852V97.084C555.852 98.428 556.572 98.956 557.772 98.956C558.612 98.956 559.164 98.86 559.572 98.692V101.356C558.972 101.62 558.252 101.74 557.243 101.74C554.22 101.74 552.78 100.036 552.78 97.084ZM562.277 101.5V89.404H565.325V90.604C566.117 89.788 567.149 89.164 568.517 89.164C568.925 89.164 569.285 89.236 569.573 89.332V92.332C569.189 92.236 568.781 92.164 568.229 92.164C566.741 92.164 565.781 92.98 565.325 93.748V101.5H562.277ZM582.648 99.532C581.52 101.044 579.648 101.98 577.368 101.98C573.072 101.98 570.648 98.98 570.648 95.452C570.648 91.876 572.904 88.924 576.864 88.924C580.224 88.924 582.432 91.204 582.432 94.372C582.432 95.044 582.336 95.668 582.24 96.076H573.768C574.056 98.332 575.448 99.244 577.344 99.244C578.664 99.244 579.816 98.668 580.464 97.804L582.648 99.532ZM576.792 91.42C575.232 91.42 574.2 92.284 573.864 93.868H579.432C579.384 92.644 578.496 91.42 576.792 91.42ZM584.19 99.748L586.206 97.924C586.95 98.86 587.838 99.532 588.99 99.532C589.974 99.532 590.478 98.956 590.478 98.236C590.478 96.124 584.694 96.916 584.694 92.668C584.694 90.532 586.494 88.924 589.014 88.924C590.862 88.924 592.542 89.812 593.406 90.988L591.39 92.764C590.766 91.996 589.974 91.372 589.038 91.372C588.078 91.372 587.622 91.9 587.622 92.524C587.622 94.588 593.406 93.868 593.406 98.044C593.358 100.588 591.318 101.98 589.038 101.98C586.878 101.98 585.342 101.116 584.19 99.748ZM474.352 123.964C474.352 121.318 476.17 119.068 479.014 119.068C480.364 119.068 481.426 119.59 482.236 120.508V115H483.766V128.5H482.236V127.42C481.426 128.338 480.364 128.86 479.014 128.86C476.17 128.86 474.352 126.61 474.352 123.964ZM475.972 123.964C475.972 125.89 477.268 127.42 479.194 127.42C480.454 127.42 481.57 126.808 482.236 125.746V122.182C481.534 121.102 480.436 120.508 479.194 120.508C477.268 120.508 475.972 122.038 475.972 123.964ZM487.655 120.724H486.233L487.763 115.9H489.509L487.655 120.724ZM498.834 127.006C497.988 128.14 496.638 128.86 494.946 128.86C491.886 128.86 489.996 126.61 489.996 123.964C489.996 121.21 491.76 119.068 494.568 119.068C497.034 119.068 498.636 120.796 498.636 123.028C498.636 123.388 498.582 123.73 498.528 123.982H491.562C491.616 126.16 493.002 127.474 494.946 127.474C496.116 127.474 497.106 126.934 497.7 126.124L498.834 127.006ZM494.532 120.364C493.038 120.364 491.994 121.246 491.67 122.812H497.106C497.052 121.48 496.134 120.364 494.532 120.364ZM503.625 128.752C501.843 128.752 500.637 127.762 500.637 126.214C500.637 124.846 501.681 123.874 503.607 123.55L506.667 123.046V122.416C506.667 121.156 505.767 120.436 504.471 120.436C503.427 120.436 502.581 120.922 502.023 121.696L500.871 120.814C501.663 119.734 502.941 119.068 504.525 119.068C506.829 119.068 508.197 120.418 508.197 122.416V128.5H506.667V127.348C505.983 128.23 504.795 128.752 503.625 128.752ZM502.185 126.16C502.185 126.934 502.815 127.492 503.877 127.492C505.083 127.492 506.073 126.916 506.667 125.944V124.162L503.985 124.612C502.743 124.828 502.185 125.386 502.185 126.16ZM517.584 124.612V119.428H519.114V124.558C519.114 127.276 517.548 128.86 515.082 128.86C512.634 128.86 511.068 127.276 511.068 124.558V119.428H512.598V124.612C512.598 126.394 513.552 127.42 515.1 127.42C516.612 127.42 517.584 126.394 517.584 124.612ZM526.981 132.928V119.428H528.511V120.508C529.321 119.59 530.383 119.068 531.733 119.068C534.577 119.068 536.395 121.318 536.395 123.964C536.395 126.61 534.577 128.86 531.733 128.86C530.383 128.86 529.321 128.338 528.511 127.42V132.928H526.981ZM531.553 120.508C530.293 120.508 529.195 121.12 528.511 122.2V125.728C529.213 126.826 530.311 127.42 531.553 127.42C533.479 127.42 534.793 125.89 534.793 123.964C534.793 122.038 533.479 120.508 531.553 120.508ZM541.172 128.752C539.39 128.752 538.184 127.762 538.184 126.214C538.184 124.846 539.228 123.874 541.154 123.55L544.214 123.046V122.416C544.214 121.156 543.314 120.436 542.018 120.436C540.974 120.436 540.128 120.922 539.57 121.696L538.418 120.814C539.21 119.734 540.488 119.068 542.072 119.068C544.376 119.068 545.744 120.418 545.744 122.416V128.5H544.214V127.348C543.53 128.23 542.342 128.752 541.172 128.752ZM539.732 126.16C539.732 126.934 540.362 127.492 541.424 127.492C542.63 127.492 543.62 126.916 544.214 125.944V124.162L541.532 124.612C540.29 124.828 539.732 125.386 539.732 126.16ZM548.813 128.5V119.428H550.343V120.562C551.009 119.77 551.837 119.248 552.989 119.248C553.277 119.248 553.547 119.284 553.763 119.356V120.85C553.493 120.778 553.223 120.742 552.863 120.742C551.675 120.742 550.901 121.354 550.343 122.272V128.5H548.813ZM561.575 117.07C560.981 117.07 560.495 116.584 560.495 115.99C560.495 115.414 560.981 114.928 561.575 114.928C562.151 114.928 562.637 115.414 562.637 115.99C562.637 116.584 562.151 117.07 561.575 117.07ZM562.349 129.688C562.349 131.992 561.233 133 559.199 133C558.551 133 558.065 132.928 557.651 132.748V131.38C557.975 131.524 558.407 131.596 559.001 131.596C560.081 131.596 560.819 131.182 560.819 129.688V119.428H562.349V129.688ZM569.723 119.068C572.639 119.068 574.637 121.318 574.637 123.964C574.637 126.61 572.639 128.86 569.723 128.86C566.789 128.86 564.809 126.61 564.809 123.964C564.809 121.318 566.789 119.068 569.723 119.068ZM569.741 127.42C571.631 127.42 573.017 125.836 573.017 123.964C573.017 122.074 571.631 120.508 569.741 120.508C567.797 120.508 566.411 122.074 566.411 123.964C566.411 125.854 567.797 127.42 569.741 127.42ZM583.415 124.612V119.428H584.945V124.558C584.945 127.276 583.379 128.86 580.913 128.86C578.465 128.86 576.899 127.276 576.899 124.558V119.428H578.429V124.612C578.429 126.394 579.383 127.42 580.931 127.42C582.443 127.42 583.415 126.394 583.415 124.612ZM587.96 128.5V119.428H589.49V120.562C590.156 119.77 590.984 119.248 592.136 119.248C592.424 119.248 592.694 119.284 592.91 119.356V120.85C592.64 120.778 592.37 120.742 592.01 120.742C590.822 120.742 590.048 121.354 589.49 122.272V128.5H587.96Z" fill="#4949BA" style="fill:#4949BA;fill:color(display-p3 0.2863 0.2863 0.7294);fill-opacity:1;"/>
<mask id="mask0_73_2347" style="mask-type:alpha" maskUnits="userSpaceOnUse" x="517" y="142" width="31" height="45">
<path d="M529.821 144.425C530.357 143.325 531.429 142.5 532.5 142.5C533.571 142.5 534.643 143.325 534.911 144.425C538.929 158.175 547.5 161.75 547.5 171.375C547.5 179.9 540.804 186.5 532.5 186.5C524.196 186.5 517.5 179.9 517.5 171.375C517.5 161.75 525.804 158.175 529.821 144.425Z" fill="#71ABE7" style="fill:#71ABE7;fill:color(display-p3 0.4431 0.6706 0.9059);fill-opacity:1;"/>
</mask>
<g mask="url(#mask0_73_2347)">
<rect x="510.5" y="142.5" width="44" height="25" fill="#F0F2FB" style="fill:#F0F2FB;fill:color(display-p3 0.9412 0.9490 0.9843);fill-opacity:1;"/>
<path d="M531.5 161.5C528.5 159.5 523 157.5 517 161.5C515.333 163.667 511.9 168.2 511.5 169C511 170 515 185 516 185C517 185 533 192.5 536.5 193C539.3 193.4 549.667 188.5 554.5 186L556 165.5C552.667 161.667 545.4 154.9 543 158.5C540 163 534.5 163.5 531.5 161.5Z" fill="#BFDFFE" style="fill:#BFDFFE;fill:color(display-p3 0.7490 0.8745 0.9961);fill-opacity:1;"/>
</g>
<path d="M513.5 159.5L505.25 163.83L505.25 155.17L513.5 159.5Z" fill="#4949BA" style="fill:#4949BA;fill:color(display-p3 0.2863 0.2863 0.7294);fill-opacity:1;"/>
<circle cx="46" cy="17" r="4" fill="#AEB7E9" style="fill:#AEB7E9;fill:color(display-p3 0.6824 0.7176 0.9137);fill-opacity:1;"/>
<circle cx="62" cy="17" r="4" fill="#AEB7E9" style="fill:#AEB7E9;fill:color(display-p3 0.6824 0.7176 0.9137);fill-opacity:1;"/>
<circle cx="78" cy="17" r="4" fill="#AEB7E9" style="fill:#AEB7E9;fill:color(display-p3 0.6824 0.7176 0.9137);fill-opacity:1;"/>
</g>
<defs>
<filter id="filter0_dddd_73_2347" x="0" y="0" width="730" height="304" filterUnits="userSpaceOnUse" color-interpolation-filters="sRGB">
<feFlood flood-opacity="0" result="BackgroundImageFix"/>
<feColorMatrix in="SourceAlpha" type="matrix" values="0 0 0 0 0 0 0 0 0 0 0 0 0 0 0 0 0 0 127 0" result="hardAlpha"/>
<feOffset dy="4"/>
<feGaussianBlur stdDeviation="4.5"/>
<feColorMatrix type="matrix" values="0 0 0 0 0.298039 0 0 0 0 0.247059 0 0 0 0 0.203922 0 0 0 0.1 0"/>
<feBlend mode="normal" in2="BackgroundImageFix" result="effect1_dropShadow_73_2347"/>
<feColorMatrix in="SourceAlpha" type="matrix" values="0 0 0 0 0 0 0 0 0 0 0 0 0 0 0 0 0 0 127 0" result="hardAlpha"/>
<feOffset dy="16"/>
<feGaussianBlur stdDeviation="8"/>
<feColorMatrix type="matrix" values="0 0 0 0 0.298039 0 0 0 0 0.247059 0 0 0 0 0.203922 0 0 0 0.09 0"/>
<feBlend mode="normal" in2="effect1_dropShadow_73_2347" result="effect2_dropShadow_73_2347"/>
<feColorMatrix in="SourceAlpha" type="matrix" values="0 0 0 0 0 0 0 0 0 0 0 0 0 0 0 0 0 0 127 0" result="hardAlpha"/>
<feOffset dy="37"/>
<feGaussianBlur stdDeviation="11"/>
<feColorMatrix type="matrix" values="0 0 0 0 0.298039 0 0 0 0 0.247059 0 0 0 0 0.203922 0 0 0 0.05 0"/>
<feBlend mode="normal" in2="effect2_dropShadow_73_2347" result="effect3_dropShadow_73_2347"/>
<feColorMatrix in="SourceAlpha" type="matrix" values="0 0 0 0 0 0 0 0 0 0 0 0 0 0 0 0 0 0 127 0" result="hardAlpha"/>
<feOffset dy="66"/>
<feGaussianBlur stdDeviation="13"/>
<feColorMatrix type="matrix" values="0 0 0 0 0.298039 0 0 0 0 0.247059 0 0 0 0 0.203922 0 0 0 0.01 0"/>
<feBlend mode="normal" in2="effect3_dropShadow_73_2347" result="effect4_dropShadow_73_2347"/>
<feBlend mode="normal" in="SourceGraphic" in2="effect4_dropShadow_73_2347" result="shape"/>
</filter>
<linearGradient id="paint0_linear_73_2347" x1="46" y1="168" x2="347" y2="168" gradientUnits="userSpaceOnUse">
<stop stop-color="#CEF1D5" style="stop-color:#CEF1D5;stop-color:color(display-p3 0.8078 0.9451 0.8353);stop-opacity:1;"/>
<stop offset="1" stop-color="#FDA354" style="stop-color:#FDA354;stop-color:color(display-p3 0.9922 0.6392 0.3294);stop-opacity:1;"/>
</linearGradient>
</defs>
</svg>
