<svg width="279" height="305" viewBox="0 0 279 305" fill="none" xmlns="http://www.w3.org/2000/svg">
<g filter="url(#filter0_dddd_0_48)">
<rect x="26" y="5.86646" width="227" height="207" rx="16" fill="#F0F2FB"/>
<path d="M30 29.8665H249V196.866C249 203.494 243.627 208.866 237 208.866H42C35.3726 208.866 30 203.494 30 196.866V29.8665Z" fill="white"/>
<rect x="96" y="45.8665" width="87" height="24" rx="10" fill="#F0F2FB"/>
<path d="M105.314 60.8665V53.8665H109.634V55.3365H107.094V56.5665H109.234V58.0365H107.094V59.3965H109.634V60.8665H105.314ZM110.97 60.8665V55.8265H112.56V56.0865C112.86 55.8265 113.26 55.6265 113.8 55.6265C114.39 55.6265 114.91 55.8665 115.25 56.3565C115.58 55.9665 116.04 55.6265 116.87 55.6265C117.88 55.6265 118.72 56.3465 118.72 57.8065V60.8665H117.12V57.8765C117.12 57.4265 116.89 57.1165 116.44 57.1165C115.93 57.1165 115.73 57.5565 115.65 57.6865C115.65 57.7265 115.65 57.7665 115.65 57.8065V60.8665H114.05V57.8765C114.05 57.4265 113.82 57.1165 113.37 57.1165C112.87 57.1165 112.67 57.5565 112.56 57.7265V60.8665H110.97ZM119.974 63.3265V55.8265H121.564V56.1065C121.904 55.7965 122.344 55.6265 122.964 55.6265C124.574 55.6265 125.504 56.8765 125.504 58.3465C125.504 59.8165 124.574 61.0665 122.964 61.0665C122.344 61.0665 121.904 60.8965 121.564 60.5865V63.3265H119.974ZM122.734 57.1165C122.224 57.1165 121.844 57.3365 121.564 57.7165V58.9765C121.864 59.3665 122.234 59.5765 122.734 59.5765C123.434 59.5765 123.864 59.0865 123.864 58.3465C123.864 57.6065 123.434 57.1165 122.734 57.1165ZM126.498 60.8665V55.8265H128.088V56.2365C128.398 55.9465 128.788 55.7265 129.308 55.7265C129.488 55.7265 129.648 55.7565 129.768 55.7965V57.3665C129.598 57.3265 129.408 57.2965 129.148 57.2965C128.568 57.2965 128.188 57.6365 128.088 57.8065V60.8665H126.498ZM135.242 60.0565C134.762 60.6865 133.972 61.0665 133.002 61.0665C131.152 61.0665 130.172 59.8165 130.172 58.3465C130.172 56.8865 131.082 55.6265 132.792 55.6265C134.222 55.6265 135.162 56.5765 135.162 57.9465C135.162 58.2865 135.112 58.6065 135.062 58.7865H131.802C131.952 59.4665 132.392 59.6465 132.992 59.6465C133.472 59.6465 133.892 59.4565 134.122 59.1665L135.242 60.0565ZM132.752 56.9065C132.242 56.9065 131.932 57.1565 131.812 57.6665H133.622C133.602 57.3265 133.342 56.9065 132.752 56.9065ZM137.054 55.2765C136.504 55.2765 136.044 54.8065 136.044 54.2665C136.044 53.7265 136.504 53.2665 137.054 53.2665C137.584 53.2665 138.044 53.7265 138.044 54.2665C138.044 54.8065 137.584 55.2765 137.054 55.2765ZM136.244 60.8665V55.8265H137.834V60.8665H136.244ZM139.134 60.8665V55.8265H140.724V56.1065C141.054 55.8265 141.474 55.6265 142.064 55.6265C143.134 55.6265 144.014 56.3765 144.014 57.9065V60.8665H142.414V57.9765C142.414 57.4665 142.144 57.1165 141.634 57.1165C141.074 57.1165 140.824 57.5565 140.724 57.7265V60.8665H139.134ZM145.617 58.9065V57.2465H144.677V55.8265H145.617V54.5665H147.217V55.8265H148.597V57.2465H147.217V58.9065C147.217 59.3065 147.427 59.5265 147.847 59.5265C148.217 59.5265 148.457 59.4765 148.607 59.4165V60.7865C148.337 60.9065 148.027 60.9665 147.557 60.9665C146.187 60.9665 145.617 60.1465 145.617 58.9065ZM154.275 60.0565C153.795 60.6865 153.005 61.0665 152.035 61.0665C150.185 61.0665 149.205 59.8165 149.205 58.3465C149.205 56.8865 150.115 55.6265 151.825 55.6265C153.255 55.6265 154.195 56.5765 154.195 57.9465C154.195 58.2865 154.145 58.6065 154.095 58.7865H150.835C150.985 59.4665 151.425 59.6465 152.025 59.6465C152.505 59.6465 152.925 59.4565 153.155 59.1665L154.275 60.0565ZM151.785 56.9065C151.275 56.9065 150.965 57.1565 150.845 57.6665H152.655C152.635 57.3265 152.375 56.9065 151.785 56.9065ZM162.742 60.0565C162.262 60.6865 161.472 61.0665 160.502 61.0665C158.652 61.0665 157.672 59.8165 157.672 58.3465C157.672 56.8865 158.582 55.6265 160.292 55.6265C161.722 55.6265 162.662 56.5765 162.662 57.9465C162.662 58.2865 162.612 58.6065 162.562 58.7865H159.302C159.452 59.4665 159.892 59.6465 160.492 59.6465C160.972 59.6465 161.392 59.4565 161.622 59.1665L162.742 60.0565ZM160.252 56.9065C159.742 56.9065 159.432 57.1565 159.312 57.6665H161.122C161.102 57.3265 160.842 56.9065 160.252 56.9065ZM165.106 61.0165C164.086 61.0165 163.376 60.4265 163.376 59.4465C163.376 58.6765 163.966 58.0865 165.066 57.9065L166.486 57.6665C166.476 57.2865 166.146 56.9965 165.676 56.9965C165.256 56.9965 164.946 57.1965 164.716 57.5265L163.556 56.6465C164.016 56.0065 164.786 55.6265 165.726 55.6265C167.326 55.6265 168.066 56.5865 168.066 57.6865V60.8665H166.486V60.4865C166.206 60.7965 165.636 61.0165 165.106 61.0165ZM164.946 59.3665C164.946 59.6265 165.146 59.7865 165.456 59.7865C165.966 59.7865 166.286 59.5465 166.486 59.2465V58.7465L165.496 58.9165C165.086 58.9865 164.946 59.1365 164.946 59.3665ZM172.51 58.6765V55.8265H174.11V58.5865C174.11 60.0965 173.21 61.0665 171.66 61.0665C170.09 61.0665 169.22 60.0965 169.22 58.5865V55.8265H170.82V58.6765C170.82 59.2065 171.08 59.5765 171.67 59.5765C172.24 59.5765 172.51 59.2065 172.51 58.6765Z" fill="#AEB7E9"/>
<path d="M85.8094 85.0865C89.5774 85.0865 91.4974 87.2465 91.4974 89.6225C91.4974 91.1585 90.7534 92.4785 89.2894 93.2705C91.2094 94.0625 92.2414 95.6225 92.2414 97.6625C92.2414 100.59 89.9854 102.846 85.8094 102.846C81.6574 102.846 79.3774 100.59 79.3774 97.6625C79.3774 95.6225 80.4094 94.0625 82.3534 93.2705C80.8654 92.4785 80.1214 91.1585 80.1214 89.6225C80.1214 87.2465 82.0654 85.0865 85.8094 85.0865ZM85.8574 92.0465C87.2494 92.0465 88.1614 91.2305 88.1614 89.9825C88.1614 88.7105 87.2494 87.8705 85.8574 87.8705C84.3454 87.8705 83.4574 88.7105 83.4574 89.9825C83.4574 91.2305 84.3694 92.0465 85.8574 92.0465ZM85.8334 100.038C87.7294 100.038 88.9054 99.0305 88.9054 97.4945C88.9054 95.9105 87.7294 94.8305 85.8334 94.8305C83.9134 94.8305 82.7134 95.9105 82.7134 97.4945C82.7134 99.0545 83.9134 100.038 85.8334 100.038ZM99.9188 85.0865C104.335 85.0865 106.399 88.9265 106.399 93.9665C106.399 99.0065 104.335 102.846 99.9188 102.846C95.5028 102.846 93.4388 99.0065 93.4388 93.9665C93.4388 88.9265 95.5028 85.0865 99.9188 85.0865ZM99.9188 88.0865C97.7828 88.0865 96.7508 90.4385 96.7508 93.9665C96.7508 97.5185 97.7828 99.8465 99.9188 99.8465C102.031 99.8465 103.063 97.4945 103.063 93.9665C103.063 90.4145 102.031 88.0865 99.9188 88.0865ZM114.52 85.0865C118.936 85.0865 121 88.9265 121 93.9665C121 99.0065 118.936 102.846 114.52 102.846C110.104 102.846 108.04 99.0065 108.04 93.9665C108.04 88.9265 110.104 85.0865 114.52 85.0865ZM114.52 88.0865C112.384 88.0865 111.352 90.4385 111.352 93.9665C111.352 97.5185 112.384 99.8465 114.52 99.8465C116.632 99.8465 117.664 97.4945 117.664 93.9665C117.664 90.4145 116.632 88.0865 114.52 88.0865ZM129.122 85.0865C133.538 85.0865 135.602 88.9265 135.602 93.9665C135.602 99.0065 133.538 102.846 129.122 102.846C124.706 102.846 122.642 99.0065 122.642 93.9665C122.642 88.9265 124.706 85.0865 129.122 85.0865ZM129.122 88.0865C126.986 88.0865 125.954 90.4385 125.954 93.9665C125.954 97.5185 126.986 99.8465 129.122 99.8465C131.234 99.8465 132.266 97.4945 132.266 93.9665C132.266 90.4145 131.234 88.0865 129.122 88.0865ZM144.605 102.366V84.3665H147.653V102.366H144.605ZM152.844 88.1585C151.764 88.1585 150.852 87.2465 150.852 86.1665C150.852 85.0865 151.764 84.1745 152.844 84.1745C153.924 84.1745 154.812 85.0865 154.812 86.1665C154.812 87.2465 153.924 88.1585 152.844 88.1585ZM151.308 102.366V90.2705H154.356V102.366H151.308ZM158.78 97.9505V93.0065H156.524V90.2705H158.78V87.2465H161.852V90.2705H165.548V93.0065H161.852V97.9505C161.852 99.2945 162.572 99.8225 163.772 99.8225C164.612 99.8225 165.164 99.7265 165.572 99.5585V102.222C164.972 102.486 164.252 102.606 163.243 102.606C160.22 102.606 158.78 100.902 158.78 97.9505ZM168.277 102.366V90.2705H171.325V91.4705C172.117 90.6545 173.149 90.0305 174.517 90.0305C174.925 90.0305 175.285 90.1025 175.573 90.1985V93.1985C175.189 93.1025 174.781 93.0305 174.229 93.0305C172.741 93.0305 171.781 93.8465 171.325 94.6145V102.366H168.277ZM188.648 100.398C187.52 101.91 185.648 102.846 183.368 102.846C179.072 102.846 176.648 99.8465 176.648 96.3185C176.648 92.7425 178.904 89.7905 182.864 89.7905C186.224 89.7905 188.432 92.0705 188.432 95.2385C188.432 95.9105 188.336 96.5345 188.24 96.9425H179.768C180.056 99.1985 181.448 100.11 183.344 100.11C184.664 100.11 185.816 99.5345 186.464 98.6705L188.648 100.398ZM182.792 92.2865C181.232 92.2865 180.2 93.1505 179.864 94.7345H185.432C185.384 93.5105 184.496 92.2865 182.792 92.2865ZM190.19 100.614L192.206 98.7905C192.95 99.7265 193.838 100.398 194.99 100.398C195.974 100.398 196.478 99.8225 196.478 99.1025C196.478 96.9905 190.694 97.7825 190.694 93.5345C190.694 91.3985 192.494 89.7905 195.014 89.7905C196.862 89.7905 198.542 90.6785 199.406 91.8545L197.39 93.6305C196.766 92.8625 195.974 92.2385 195.038 92.2385C194.078 92.2385 193.622 92.7665 193.622 93.3905C193.622 95.4545 199.406 94.7345 199.406 98.9105C199.358 101.454 197.318 102.846 195.038 102.846C192.878 102.846 191.342 101.982 190.19 100.614ZM80.3519 124.83C80.3519 122.184 82.1699 119.934 85.0139 119.934C86.3639 119.934 87.4259 120.456 88.2359 121.374V115.866H89.7659V129.366H88.2359V128.286C87.4259 129.204 86.3639 129.726 85.0139 129.726C82.1699 129.726 80.3519 127.476 80.3519 124.83ZM81.9719 124.83C81.9719 126.756 83.2679 128.286 85.1939 128.286C86.4539 128.286 87.5699 127.674 88.2359 126.612V123.048C87.5339 121.968 86.4359 121.374 85.1939 121.374C83.2679 121.374 81.9719 122.904 81.9719 124.83ZM93.6554 121.59H92.2334L93.7634 116.766H95.5094L93.6554 121.59ZM104.834 127.872C103.988 129.006 102.638 129.726 100.946 129.726C97.8864 129.726 95.9964 127.476 95.9964 124.83C95.9964 122.076 97.7604 119.934 100.568 119.934C103.034 119.934 104.636 121.662 104.636 123.894C104.636 124.254 104.582 124.596 104.528 124.848H97.5624C97.6164 127.026 99.0024 128.34 100.946 128.34C102.116 128.34 103.106 127.8 103.7 126.99L104.834 127.872ZM100.532 121.23C99.0384 121.23 97.9944 122.112 97.6704 123.678H103.106C103.052 122.346 102.134 121.23 100.532 121.23ZM109.625 129.618C107.843 129.618 106.637 128.628 106.637 127.08C106.637 125.712 107.681 124.74 109.607 124.416L112.667 123.912V123.282C112.667 122.022 111.767 121.302 110.471 121.302C109.427 121.302 108.581 121.788 108.023 122.562L106.871 121.68C107.663 120.6 108.941 119.934 110.525 119.934C112.829 119.934 114.197 121.284 114.197 123.282V129.366H112.667V128.214C111.983 129.096 110.795 129.618 109.625 129.618ZM108.185 127.026C108.185 127.8 108.815 128.358 109.877 128.358C111.083 128.358 112.073 127.782 112.667 126.81V125.028L109.985 125.478C108.743 125.694 108.185 126.252 108.185 127.026ZM123.584 125.478V120.294H125.114V125.424C125.114 128.142 123.548 129.726 121.082 129.726C118.634 129.726 117.068 128.142 117.068 125.424V120.294H118.598V125.478C118.598 127.26 119.552 128.286 121.1 128.286C122.612 128.286 123.584 127.26 123.584 125.478ZM132.981 133.794V120.294H134.511V121.374C135.321 120.456 136.383 119.934 137.733 119.934C140.577 119.934 142.395 122.184 142.395 124.83C142.395 127.476 140.577 129.726 137.733 129.726C136.383 129.726 135.321 129.204 134.511 128.286V133.794H132.981ZM137.553 121.374C136.293 121.374 135.195 121.986 134.511 123.066V126.594C135.213 127.692 136.311 128.286 137.553 128.286C139.479 128.286 140.793 126.756 140.793 124.83C140.793 122.904 139.479 121.374 137.553 121.374ZM147.172 129.618C145.39 129.618 144.184 128.628 144.184 127.08C144.184 125.712 145.228 124.74 147.154 124.416L150.214 123.912V123.282C150.214 122.022 149.314 121.302 148.018 121.302C146.974 121.302 146.128 121.788 145.57 122.562L144.418 121.68C145.21 120.6 146.488 119.934 148.072 119.934C150.376 119.934 151.744 121.284 151.744 123.282V129.366H150.214V128.214C149.53 129.096 148.342 129.618 147.172 129.618ZM145.732 127.026C145.732 127.8 146.362 128.358 147.424 128.358C148.63 128.358 149.62 127.782 150.214 126.81V125.028L147.532 125.478C146.29 125.694 145.732 126.252 145.732 127.026ZM154.813 129.366V120.294H156.343V121.428C157.009 120.636 157.837 120.114 158.989 120.114C159.277 120.114 159.547 120.15 159.763 120.222V121.716C159.493 121.644 159.223 121.608 158.863 121.608C157.675 121.608 156.901 122.22 156.343 123.138V129.366H154.813ZM167.575 117.936C166.981 117.936 166.495 117.45 166.495 116.856C166.495 116.28 166.981 115.794 167.575 115.794C168.151 115.794 168.637 116.28 168.637 116.856C168.637 117.45 168.151 117.936 167.575 117.936ZM168.349 130.554C168.349 132.858 167.233 133.866 165.199 133.866C164.551 133.866 164.065 133.794 163.651 133.614V132.246C163.975 132.39 164.407 132.462 165.001 132.462C166.081 132.462 166.819 132.048 166.819 130.554V120.294H168.349V130.554ZM175.723 119.934C178.639 119.934 180.637 122.184 180.637 124.83C180.637 127.476 178.639 129.726 175.723 129.726C172.789 129.726 170.809 127.476 170.809 124.83C170.809 122.184 172.789 119.934 175.723 119.934ZM175.741 128.286C177.631 128.286 179.017 126.702 179.017 124.83C179.017 122.94 177.631 121.374 175.741 121.374C173.797 121.374 172.411 122.94 172.411 124.83C172.411 126.72 173.797 128.286 175.741 128.286ZM189.415 125.478V120.294H190.945V125.424C190.945 128.142 189.379 129.726 186.913 129.726C184.465 129.726 182.899 128.142 182.899 125.424V120.294H184.429V125.478C184.429 127.26 185.383 128.286 186.931 128.286C188.443 128.286 189.415 127.26 189.415 125.478ZM193.96 129.366V120.294H195.49V121.428C196.156 120.636 196.984 120.114 198.136 120.114C198.424 120.114 198.694 120.15 198.91 120.222V121.716C198.64 121.644 198.37 121.608 198.01 121.608C196.822 121.608 196.048 122.22 195.49 123.138V129.366H193.96Z" fill="#4949BA"/>
<mask id="mask0_0_48" style="mask-type:alpha" maskUnits="userSpaceOnUse" x="123" y="143" width="31" height="45">
<path d="M135.821 145.291C136.357 144.191 137.429 143.366 138.5 143.366C139.571 143.366 140.643 144.191 140.911 145.291C144.929 159.041 153.5 162.616 153.5 172.241C153.5 180.766 146.804 187.366 138.5 187.366C130.196 187.366 123.5 180.766 123.5 172.241C123.5 162.616 131.804 159.041 135.821 145.291Z" fill="#71ABE7"/>
</mask>
<g mask="url(#mask0_0_48)">
<rect x="116.5" y="143.366" width="44" height="25" fill="#F0F2FB"/>
<path d="M137.5 162.366C134.5 160.366 129 158.366 123 162.366C121.333 164.533 117.9 169.066 117.5 169.866C117 170.866 121 185.866 122 185.866C123 185.866 139 193.366 142.5 193.866C145.3 194.266 155.667 189.366 160.5 186.866L162 166.366C158.667 162.533 151.4 155.766 149 159.366C146 163.866 140.5 164.366 137.5 162.366Z" fill="#BFDFFE"/>
</g>
<path d="M119.5 160.366L111.25 164.697L111.25 156.036L119.5 160.366Z" fill="#4949BA"/>
<circle cx="46" cy="17.8665" r="4" fill="#AEB7E9"/>
<circle cx="62" cy="17.8665" r="4" fill="#AEB7E9"/>
<circle cx="78" cy="17.8665" r="4" fill="#AEB7E9"/>
</g>
<defs>
<filter id="filter0_dddd_0_48" x="0" y="0.866455" width="279" height="304" filterUnits="userSpaceOnUse" color-interpolation-filters="sRGB">
<feFlood flood-opacity="0" result="BackgroundImageFix"/>
<feColorMatrix in="SourceAlpha" type="matrix" values="0 0 0 0 0 0 0 0 0 0 0 0 0 0 0 0 0 0 127 0" result="hardAlpha"/>
<feOffset dy="4"/>
<feGaussianBlur stdDeviation="4.5"/>
<feColorMatrix type="matrix" values="0 0 0 0 0.298039 0 0 0 0 0.247059 0 0 0 0 0.203922 0 0 0 0.1 0"/>
<feBlend mode="normal" in2="BackgroundImageFix" result="effect1_dropShadow_0_48"/>
<feColorMatrix in="SourceAlpha" type="matrix" values="0 0 0 0 0 0 0 0 0 0 0 0 0 0 0 0 0 0 127 0" result="hardAlpha"/>
<feOffset dy="16"/>
<feGaussianBlur stdDeviation="8"/>
<feColorMatrix type="matrix" values="0 0 0 0 0.298039 0 0 0 0 0.247059 0 0 0 0 0.203922 0 0 0 0.09 0"/>
<feBlend mode="normal" in2="effect1_dropShadow_0_48" result="effect2_dropShadow_0_48"/>
<feColorMatrix in="SourceAlpha" type="matrix" values="0 0 0 0 0 0 0 0 0 0 0 0 0 0 0 0 0 0 127 0" result="hardAlpha"/>
<feOffset dy="37"/>
<feGaussianBlur stdDeviation="11"/>
<feColorMatrix type="matrix" values="0 0 0 0 0.298039 0 0 0 0 0.247059 0 0 0 0 0.203922 0 0 0 0.05 0"/>
<feBlend mode="normal" in2="effect2_dropShadow_0_48" result="effect3_dropShadow_0_48"/>
<feColorMatrix in="SourceAlpha" type="matrix" values="0 0 0 0 0 0 0 0 0 0 0 0 0 0 0 0 0 0 127 0" result="hardAlpha"/>
<feOffset dy="66"/>
<feGaussianBlur stdDeviation="13"/>
<feColorMatrix type="matrix" values="0 0 0 0 0.298039 0 0 0 0 0.247059 0 0 0 0 0.203922 0 0 0 0.01 0"/>
<feBlend mode="normal" in2="effect3_dropShadow_0_48" result="effect4_dropShadow_0_48"/>
<feBlend mode="normal" in="SourceGraphic" in2="effect4_dropShadow_0_48" result="shape"/>
</filter>
</defs>
</svg>
