<svg width="142" height="36" viewBox="0 0 142 36" fill="none" xmlns="http://www.w3.org/2000/svg">
<g id="Logo_Bon_Pote" clip-path="url(#clip0_7150_2647)">
<path id="Vector" fill-rule="evenodd" clip-rule="evenodd" d="M16.9883 5.94731C17.122 5.66226 17.4673 5.53709 17.7592 5.66773L20.5769 6.92863C20.8688 7.05928 20.997 7.39627 20.8632 7.68133C20.7294 7.96638 20.3843 8.09155 20.0924 7.96091L17.2746 6.70001C16.9827 6.56937 16.8545 6.23236 16.9883 5.94731Z" fill="#181C25"/>
<path id="Vector_2" fill-rule="evenodd" clip-rule="evenodd" d="M21.8293 1.6386C22.1281 1.52358 22.4658 1.66683 22.5836 1.95854L23.8132 5.00345C23.931 5.29516 23.7843 5.62488 23.4855 5.73989C23.1867 5.85491 22.849 5.71167 22.7312 5.41996L21.5016 2.37505C21.3838 2.08334 21.5305 1.75361 21.8293 1.6386Z" fill="#181C25"/>
<path id="Vector_3" fill-rule="evenodd" clip-rule="evenodd" d="M28.457 1.60095C28.7507 1.72785 28.8834 2.06316 28.7534 2.34992L27.4265 5.27772C27.2965 5.56447 26.9531 5.69406 26.6594 5.56716C26.3656 5.44028 26.2329 5.10495 26.3629 4.81821L27.6898 1.8904C27.8199 1.60365 28.1633 1.47406 28.457 1.60095Z" fill="#181C25"/>
<path id="Vector_4" fill-rule="evenodd" clip-rule="evenodd" d="M33.5653 5.72488C33.6845 6.01599 33.5396 6.34644 33.2414 6.46296L30.0296 7.71797C29.7315 7.83448 29.3931 7.69294 29.2737 7.40182C29.1544 7.1107 29.2994 6.78024 29.5976 6.66374L32.8092 5.40872C33.1075 5.29221 33.4459 5.43376 33.5653 5.72488Z" fill="#181C25"/>
<path id="Vector_5" fill-rule="evenodd" clip-rule="evenodd" d="M20.2424 10.8074C20.3574 11.1002 20.2073 11.4286 19.9075 11.5407L16.7533 12.7205C16.4535 12.8326 16.1171 12.6862 16.0023 12.3934C15.8873 12.1006 16.0374 11.7723 16.3372 11.6601L19.4914 10.4804C19.7912 10.3682 20.1275 10.5146 20.2424 10.8074Z" fill="#181C25"/>
<path id="Vector_6" d="M3.36644 15.1241C4.03956 14.426 4.88311 13.8801 5.80599 13.5453L8.04882 12.7318L10.4984 11.8736C11.3267 11.5836 12.2424 12.0054 12.5397 12.8138C12.5959 12.9698 12.627 13.1283 12.6326 13.2877C12.6471 13.6996 12.489 14.1084 12.1991 14.4091C12.0281 14.5864 11.813 14.724 11.577 14.807L10.3283 15.2444L19.3499 14.9427C20.2281 14.9134 20.9675 15.5864 20.9999 16.4433C21 16.4499 21.0008 16.4764 21.0008 16.4764C21.0071 16.8759 20.8536 17.2584 20.569 17.5536C20.2844 17.8489 19.8562 18.0443 19.4245 18.059L15.7947 18.1803C16.3494 18.4096 16.7483 18.9374 16.7702 19.5628L16.7707 19.5925C16.7771 19.992 16.6235 20.3747 16.3389 20.6699C16.0543 20.965 15.626 21.1605 15.1941 21.1749L15.0449 21.1799C15.6031 21.4057 16.0099 21.9214 16.043 22.5319L16.0445 22.5617C16.0589 22.9801 15.905 23.3784 15.6111 23.6833C15.3171 23.9881 14.9272 24.1584 14.504 24.1726L13.9508 24.1911C14.509 24.4169 14.9157 24.9328 14.9485 25.544C14.9491 25.5552 14.9496 25.5668 14.9498 25.5785C14.9629 25.995 14.8091 26.3911 14.5165 26.6947C14.2239 26.9981 13.8329 27.1696 13.4094 27.1838L8.68794 27.3415L8.40892 27.3511C8.40419 27.3514 8.06444 27.359 7.88562 27.3404C5.79649 27.2251 3.98165 26.1492 2.77394 24.3091C2.32562 23.626 2.01484 22.8781 1.85013 22.0864C1.77477 21.7325 1.72946 21.3614 1.71617 20.986L1.66428 19.5095C1.66219 19.4421 1.6609 19.3764 1.66046 19.3112C1.65353 17.7585 2.25948 16.2721 3.36644 15.1241Z" fill="white"/>
<path id="Vector_7" d="M14.1267 26.337C13.9416 26.5289 13.6818 26.6524 13.3907 26.6621L9.74823 26.7838L8.66931 26.82L8.3898 26.8295C8.29633 26.8324 8.02077 26.8323 7.93121 26.8202C5.88613 26.7127 4.27424 25.6276 3.22417 24.0275C2.8213 23.4136 2.52846 22.7243 2.37416 21.9827C2.30419 21.6542 2.26278 21.315 2.25062 20.9683L2.19861 19.4919C2.19659 19.4304 2.19555 19.369 2.1951 19.3077C2.18871 17.8546 2.77457 16.4996 3.75538 15.4825C4.36441 14.8509 5.12537 14.3496 5.99173 14.0353L8.22906 13.2239L10.6786 12.3655C11.2303 12.1723 11.8378 12.4525 12.0358 12.9908C12.0735 13.0951 12.0938 13.2008 12.0976 13.3061C12.1073 13.5834 12.0015 13.8521 11.8092 14.0515C11.6982 14.1665 11.5584 14.2586 11.3955 14.3159L9.33607 15.0373L9.22107 15.0776C9.15673 15.1001 9.10536 15.1338 9.0662 15.1744C8.99601 15.2472 8.96498 15.3425 8.96812 15.4367C8.9749 15.6246 9.11853 15.8081 9.36277 15.7999L19.3679 15.4653C19.9528 15.4457 20.4447 15.8937 20.4649 16.4653C20.4651 16.4719 20.4651 16.4785 20.4655 16.485C20.4698 16.7594 20.3596 17.0089 20.179 17.1961C19.9845 17.3978 19.7084 17.5272 19.4056 17.5373L11.0952 17.8152C10.9681 17.8192 10.8543 17.8734 10.7733 17.9575C10.6968 18.0385 10.6498 18.1466 10.6495 18.2642C10.6495 18.2696 10.6496 18.2744 10.6497 18.2796C10.6585 18.529 10.8913 18.7234 11.149 18.7149L15.138 18.5814C15.7231 18.5618 16.2149 19.0097 16.2351 19.5815C16.235 19.5879 16.2353 19.5946 16.2353 19.601C16.2395 19.8756 16.1295 20.1252 15.9489 20.3123C15.7545 20.514 15.4782 20.6433 15.1753 20.6535L10.6461 20.8049C10.5188 20.8093 10.4055 20.8635 10.3241 20.9474C10.2477 21.0282 10.2007 21.1363 10.2006 21.2544C10.2004 21.2593 10.2004 21.2643 10.2009 21.2694C10.2097 21.5187 10.4425 21.7132 10.6999 21.7046L14.3771 21.5815C14.9608 21.5623 15.4773 21.9911 15.5083 22.5605C15.5086 22.5673 15.5091 22.5738 15.5093 22.5802C15.5193 22.8676 15.4083 23.1318 15.2211 23.3259C15.034 23.52 14.7762 23.6415 14.485 23.6512L10.1047 23.7978C9.97821 23.802 9.86519 23.8557 9.78466 23.9392C9.70412 24.0228 9.65515 24.1385 9.65962 24.2636C9.66827 24.5121 9.88141 24.7069 10.1363 24.698L13.2827 24.593C13.8667 24.5734 14.3832 25.0028 14.4138 25.5723C14.4142 25.5789 14.4145 25.5852 14.4145 25.5916C14.4246 25.8792 14.3139 26.1428 14.1267 26.337ZM14.9058 27.0538C15.2953 26.6496 15.5005 26.1225 15.4842 25.5681C15.4839 25.5454 15.4828 25.5272 15.4823 25.5174C15.464 25.1774 15.3616 24.8545 15.1856 24.5696C15.4919 24.4597 15.7702 24.2809 16.0002 24.0425C16.3926 23.6355 16.5981 23.1038 16.5789 22.5453L16.5785 22.5363L16.578 22.5273L16.5779 22.525V22.5228L16.5777 22.5159L16.5771 22.5055C16.5558 22.1142 16.4232 21.7455 16.1952 21.4318C16.3923 21.3257 16.5729 21.1902 16.7281 21.0292C17.1074 20.6359 17.3123 20.1253 17.3053 19.5909C17.3053 19.5858 17.3053 19.5808 17.3053 19.5757L17.3051 19.5632L17.3045 19.546C17.2932 19.2273 17.2087 18.9276 17.0674 18.6617L19.4421 18.5824C20.0141 18.563 20.5667 18.319 20.9582 17.913C21.3498 17.5069 21.5439 17.0057 21.5355 16.4698L21.5353 16.4504L21.535 16.4444C21.5348 16.4378 21.5345 16.4314 21.5343 16.4248C21.4908 15.2809 20.5037 14.3827 19.3312 14.4219L12.6993 14.6438C13.0154 14.2579 13.1844 13.7662 13.167 13.2711C13.1595 13.0583 13.1184 12.8474 13.0449 12.6439L13.044 12.6412L13.0429 12.6387C12.6459 11.5591 11.4234 10.9958 10.3175 11.383L7.8677 12.2412L7.86206 12.2432L7.85654 12.2453L5.61923 13.0566C4.61943 13.4194 3.70569 14.0108 2.97638 14.7671C1.775 16.013 1.11755 17.6273 1.12506 19.313L1.12512 19.3148L1.12517 19.3164C1.12566 19.3872 1.1271 19.4576 1.12919 19.5253L1.12925 19.5271L1.12931 19.529L1.18132 21.0054C1.19561 21.4095 1.24436 21.8095 1.32614 22.1945C1.50419 23.0489 1.83972 23.8558 2.32332 24.5927C3.62437 26.575 5.58439 27.7357 7.84536 27.8633C8.07327 27.8844 8.42111 27.8752 8.42475 27.8751H8.4262L8.42765 27.875L8.70717 27.8654L9.78512 27.8292L13.4275 27.7078C13.9933 27.6888 14.5181 27.4558 14.9058 27.0538Z" fill="white"/>
<g id="Mask group">
<mask id="mask0_7150_2647" style="mask-type:luminance" maskUnits="userSpaceOnUse" x="1" y="11" width="21" height="17">
<g id="Group">
<path id="Vector_8" d="M14.1267 26.337C13.9416 26.5289 13.6818 26.6524 13.3907 26.6621L9.74823 26.7838L8.66931 26.82L8.3898 26.8295C8.29633 26.8324 8.02077 26.8323 7.93121 26.8202C5.88613 26.7127 4.27424 25.6276 3.22417 24.0275C2.8213 23.4136 2.52846 22.7243 2.37416 21.9827C2.30419 21.6542 2.26278 21.315 2.25062 20.9683L2.19861 19.4919C2.19659 19.4304 2.19555 19.369 2.1951 19.3077C2.18871 17.8546 2.77457 16.4996 3.75538 15.4825C4.36441 14.8509 5.12537 14.3496 5.99173 14.0353L8.22906 13.2239L10.6786 12.3655C11.2303 12.1723 11.8378 12.4525 12.0358 12.9908C12.0735 13.0951 12.0938 13.2008 12.0976 13.3061C12.1073 13.5834 12.0015 13.8521 11.8092 14.0515C11.6982 14.1665 11.5584 14.2586 11.3955 14.3159L9.33607 15.0373L9.22107 15.0776C9.15673 15.1001 9.10536 15.1338 9.0662 15.1744C8.99601 15.2472 8.96498 15.3425 8.96812 15.4367C8.9749 15.6246 9.11853 15.8081 9.36277 15.7999L19.3679 15.4653C19.9528 15.4457 20.4447 15.8937 20.4649 16.4653C20.4651 16.4719 20.4651 16.4785 20.4655 16.485C20.4698 16.7594 20.3596 17.0089 20.179 17.1961C19.9845 17.3978 19.7084 17.5272 19.4056 17.5373L11.0952 17.8152C10.9681 17.8192 10.8543 17.8734 10.7733 17.9575C10.6968 18.0385 10.6498 18.1466 10.6495 18.2642C10.6495 18.2696 10.6496 18.2744 10.6497 18.2796C10.6585 18.529 10.8913 18.7234 11.149 18.7149L15.138 18.5814C15.7231 18.5618 16.2149 19.0097 16.2351 19.5815C16.235 19.5879 16.2353 19.5946 16.2353 19.601C16.2395 19.8756 16.1295 20.1252 15.9489 20.3123C15.7545 20.514 15.4782 20.6433 15.1753 20.6535L10.6461 20.8049C10.5188 20.8093 10.4055 20.8635 10.3241 20.9474C10.2477 21.0282 10.2007 21.1363 10.2006 21.2544C10.2004 21.2593 10.2004 21.2643 10.2009 21.2694C10.2097 21.5187 10.4425 21.7132 10.6999 21.7046L14.3771 21.5815C14.9608 21.5623 15.4773 21.9911 15.5083 22.5605C15.5086 22.5673 15.5091 22.5738 15.5093 22.5802C15.5193 22.8676 15.4083 23.1318 15.2211 23.3259C15.034 23.52 14.7762 23.6415 14.485 23.6512L10.1047 23.7978C9.97821 23.802 9.86519 23.8557 9.78466 23.9392C9.70412 24.0228 9.65515 24.1385 9.65962 24.2636C9.66827 24.5121 9.88141 24.7069 10.1363 24.698L13.2827 24.593C13.8667 24.5734 14.3832 25.0028 14.4138 25.5723C14.4142 25.5789 14.4145 25.5852 14.4145 25.5916C14.4246 25.8792 14.3139 26.1428 14.1267 26.337ZM14.9058 27.0538C15.2953 26.6496 15.5005 26.1225 15.4842 25.5681C15.4839 25.5454 15.4828 25.5272 15.4823 25.5174C15.464 25.1774 15.3616 24.8545 15.1856 24.5696C15.4919 24.4597 15.7702 24.2809 16.0002 24.0425C16.3926 23.6355 16.5981 23.1038 16.5789 22.5453L16.5785 22.5363L16.578 22.5273L16.5779 22.525V22.5228L16.5777 22.5159L16.5771 22.5055C16.5558 22.1142 16.4232 21.7455 16.1952 21.4318C16.3923 21.3257 16.5729 21.1902 16.7281 21.0292C17.1074 20.6359 17.3123 20.1253 17.3053 19.5909C17.3053 19.5858 17.3053 19.5808 17.3053 19.5757L17.3051 19.5632L17.3045 19.546C17.2932 19.2273 17.2087 18.9276 17.0674 18.6617L19.4421 18.5824C20.0141 18.563 20.5667 18.319 20.9582 17.913C21.3498 17.5069 21.5439 17.0057 21.5355 16.4698L21.5353 16.4504L21.535 16.4444C21.5348 16.4378 21.5345 16.4314 21.5343 16.4248C21.4908 15.2809 20.5037 14.3827 19.3312 14.4219L12.6993 14.6438C13.0154 14.2579 13.1844 13.7662 13.167 13.2711C13.1595 13.0583 13.1184 12.8474 13.0449 12.6439L13.044 12.6412L13.0429 12.6387C12.6459 11.5591 11.4234 10.9958 10.3175 11.383L7.8677 12.2412L7.86206 12.2432L7.85654 12.2453L5.61923 13.0566C4.61943 13.4194 3.70569 14.0108 2.97638 14.7671C1.775 16.013 1.11755 17.6273 1.12506 19.313L1.12512 19.3148L1.12517 19.3164C1.12566 19.3872 1.1271 19.4576 1.12919 19.5253L1.12925 19.5271L1.12931 19.529L1.18132 21.0054C1.19561 21.4095 1.24436 21.8095 1.32614 22.1945C1.50419 23.0489 1.83972 23.8558 2.32332 24.5927C3.62437 26.575 5.58439 27.7357 7.84536 27.8633C8.07327 27.8844 8.42111 27.8752 8.42475 27.8751H8.4262L8.42765 27.875L8.70717 27.8654L9.78512 27.8292L13.4275 27.7078C13.9933 27.6888 14.5181 27.4558 14.9058 27.0538Z" fill="white"/>
</g>
</mask>
<g mask="url(#mask0_7150_2647)">
<path id="Vector_9" d="M8.66925 26.8201L8.62938 25.6851L8.62816 25.6852L8.66925 26.8201ZM8.38974 26.8296L8.42629 27.9647L8.43083 27.9646L8.38974 26.8296ZM7.93115 26.8203L8.09151 25.6956L8.04278 25.689L7.99365 25.6864L7.93115 26.8203ZM2.3741 21.9828L3.51385 21.7567L3.51279 21.7517L2.3741 21.9828ZM2.19855 19.492L1.03612 19.5284L1.03621 19.5311L2.19855 19.492ZM2.19505 19.3078L1.03202 19.3127L1.03205 19.3157L2.19505 19.3078ZM8.229 13.224L7.83613 12.1551L7.82403 12.1595L8.229 13.224ZM12.0357 12.9909L13.1326 12.6132L13.1303 12.607L12.0357 12.9909ZM11.3954 14.316L11.7882 15.3847L11.7895 15.3843L11.3954 14.316ZM8.96806 15.4368L7.80566 15.4739L7.80576 15.4767L8.96806 15.4368ZM20.4648 16.4654L19.3023 16.5046L19.3031 16.5203L20.4648 16.4654ZM20.4654 16.4851L21.6283 16.4675L21.6279 16.4489L21.6271 16.4303L20.4654 16.4851ZM11.0952 17.8153L11.1335 18.9502L11.135 18.9501L11.0952 17.8153ZM10.7733 17.9576L9.92643 17.1791L9.91805 17.1879L10.7733 17.9576ZM10.6494 18.2643L9.4863 18.2608L9.48641 18.2733L10.6494 18.2643ZM10.6496 18.2797L9.48663 18.2887L9.48675 18.3037L9.48729 18.3188L10.6496 18.2797ZM16.235 19.5816L17.398 19.5894L17.3982 19.5658L17.3973 19.5424L16.235 19.5816ZM16.2353 19.6011L15.0723 19.5933L15.0721 19.6057L15.0724 19.6182L16.2353 19.6011ZM10.646 20.805L10.6063 19.67L10.6044 19.6701L10.646 20.805ZM10.324 20.9475L9.47951 20.1667L9.47 20.1768L10.324 20.9475ZM10.2005 21.2545L11.3625 21.3032L11.3635 21.2794L11.3636 21.2555L10.2005 21.2545ZM10.2009 21.2695L11.3632 21.2304L11.3619 21.1933L11.3581 21.1564L10.2009 21.2695ZM15.5083 22.5606L16.6708 22.5264L16.6703 22.5133L16.6696 22.5001L15.5083 22.5606ZM15.5092 22.5803L16.6718 22.5419L16.6708 22.5264L15.5092 22.5803ZM10.1362 24.6981L10.0965 23.5633H10.0951L10.1362 24.6981ZM14.4137 25.5724L15.5754 25.5176L15.5752 25.513L14.4137 25.5724ZM14.4145 25.5917L13.2515 25.5839L13.2513 25.6072L13.2522 25.6306L14.4145 25.5917ZM14.9057 27.0539L14.0589 26.2755L13.6605 26.6886L13.7597 27.2478L14.9057 27.0539ZM15.4842 25.5682L14.3211 25.5848L14.3216 25.6008L15.4842 25.5682ZM15.4822 25.5175L16.6443 25.4696L16.6437 25.4581L15.4822 25.5175ZM15.1855 24.5697L14.7842 23.5039L13.462 23.9786L14.1897 25.1563L15.1855 24.5697ZM16.5788 22.5454L15.4163 22.5796L15.4164 22.5837L16.5788 22.5454ZM16.5785 22.5364L17.741 22.5022L17.7405 22.4873L17.7397 22.4724L16.5785 22.5364ZM16.578 22.5274L15.4154 22.5618L15.4159 22.5767L15.4168 22.5915L16.578 22.5274ZM16.5776 22.516L17.7402 22.4818L17.7397 22.4689L17.7391 22.456L16.5776 22.516ZM16.1951 21.4319L15.6334 20.4377L14.4931 21.0519L15.2466 22.089L16.1951 21.4319ZM17.3052 19.591L16.1422 19.5989L16.1423 19.6056L17.3052 19.591ZM17.3052 19.5758L16.1421 19.5775L16.1422 19.5836L17.3052 19.5758ZM17.3051 19.5633L18.4682 19.5616L18.4681 19.5415L18.4674 19.5213L17.3051 19.5633ZM17.3045 19.5461L16.1422 19.5854V19.5882L17.3045 19.5461ZM17.0673 18.6618L17.0275 17.5269L15.1859 17.5885L16.0351 19.185L17.0673 18.6618ZM21.5354 16.4699L20.3726 16.4832V16.487L21.5354 16.4699ZM21.5352 16.4505L22.6982 16.4372L22.698 16.4156L22.6968 16.394L21.5352 16.4505ZM21.535 16.4445L20.3724 16.4787L20.3728 16.4898L20.3734 16.501L21.535 16.4445ZM21.5342 16.4249L20.372 16.4671L20.3724 16.4787L21.5342 16.4249ZM12.6993 14.6439L11.7909 13.9347L10.2114 15.8633L12.7391 15.7787L12.6993 14.6439ZM13.0449 12.644L11.9428 13.0072L11.948 13.0217L13.0449 12.644ZM13.0439 12.6413L14.1458 12.2781L14.1359 12.2494L14.1246 12.2214L13.0439 12.6413ZM13.0428 12.6388L11.948 13.0217L11.955 13.0407L11.9623 13.0586L13.0428 12.6388ZM7.86764 12.2413L8.25454 13.3122L8.26045 13.3102L7.86764 12.2413ZM7.862 12.2433L7.4751 11.1724L7.46101 11.1773L7.44707 11.1825L7.862 12.2433ZM7.85648 12.2454L8.26045 13.3102L8.2714 13.3061L7.85648 12.2454ZM1.125 19.3131L-0.0380112 19.3182L-0.0379443 19.333L-0.0374795 19.3479L1.125 19.3131ZM1.12511 19.3165L2.28811 19.3088L2.28802 19.2953L2.28759 19.2818L1.12511 19.3165ZM1.12925 19.5291L-0.0332793 19.5629L-0.0330942 19.5682L1.12925 19.5291ZM1.32608 22.1946L2.46577 21.9682L2.46487 21.964L1.32608 22.1946ZM7.8453 27.8634L7.95524 26.7329L7.93386 26.7309L7.91243 26.7298L7.8453 27.8634ZM8.42759 27.8751L8.46294 29.0101L8.46869 29.01L8.42759 27.8751ZM8.70711 27.8655L8.66723 26.7306L8.66601 26.7307L8.70711 27.8655ZM14.9057 27.0539L15.7525 27.8331L16.1509 27.42L16.0517 26.8608L14.9057 27.0539ZM13.2798 25.5587C13.2879 25.5503 13.2982 25.5427 13.3111 25.537C13.3246 25.5309 13.3388 25.5277 13.3508 25.5274L13.4305 27.7971C14.0406 27.7766 14.5868 27.5164 14.9734 27.1155L13.2798 25.5587ZM13.3508 25.5274L9.70841 25.6491L9.78793 27.9187L13.4305 27.7971L13.3508 25.5274ZM9.70841 25.6491L8.62938 25.6851L8.70913 27.9549L9.78793 27.9187L9.70841 25.6491ZM8.62816 25.6852L8.34864 25.6948L8.43083 27.9646L8.71035 27.9549L8.62816 25.6852ZM8.35318 25.6947C8.32923 25.6954 8.25531 25.6962 8.17428 25.6952C8.1353 25.6947 8.10187 25.6939 8.07736 25.6928C8.06519 25.6924 8.05885 25.6919 8.05743 25.6918C8.05339 25.6915 8.0673 25.6924 8.09151 25.6956L7.77079 27.945C7.90091 27.9627 8.06768 27.9651 8.14368 27.9661C8.24619 27.9674 8.35679 27.9668 8.42629 27.9647L8.35318 25.6947ZM7.99365 25.6864C6.37909 25.6016 5.08435 24.7574 4.20336 23.415L2.24485 24.6403C3.46402 26.4981 5.39306 27.8241 7.86866 27.9542L7.99365 25.6864ZM4.20336 23.415C3.87597 22.9162 3.63883 22.3573 3.51385 21.7567L1.23436 22.2089C1.41798 23.0914 1.7665 23.9113 2.24485 24.6403L4.20336 23.415ZM3.51279 21.7517C3.45667 21.4882 3.42287 21.2134 3.4129 20.9296L1.08822 21.0073C1.10258 21.4169 1.1516 21.8203 1.23542 22.2139L3.51279 21.7517ZM3.4129 20.9296L3.36089 19.4529L1.03621 19.5311L1.08822 21.0073L3.4129 20.9296ZM3.36098 19.4556C3.35933 19.4057 3.35843 19.354 3.35804 19.2998L1.03205 19.3157C1.03254 19.3842 1.03372 19.4555 1.03612 19.5284L3.36098 19.4556ZM3.35807 19.3029C3.35301 18.1551 3.81529 17.077 4.60211 16.261L2.90853 14.7042C1.73372 15.9226 1.02428 17.5542 1.03202 19.3127L3.35807 19.3029ZM4.60211 16.261C5.0904 15.7547 5.70091 15.3522 6.3968 15.0997L5.58672 12.9709C4.54988 13.347 3.63831 13.9474 2.90853 14.7042L4.60211 16.261ZM6.3968 15.0997L8.63395 14.2884L7.82403 12.1595L5.58672 12.9709L6.3968 15.0997ZM8.62183 14.2927L11.0714 13.4345L10.2858 11.2968L7.83613 12.1551L8.62183 14.2927ZM11.0714 13.4345C11.0183 13.4531 10.9601 13.4261 10.9411 13.3747L13.1303 12.607C12.7153 11.4789 11.4423 10.8918 10.2858 11.2968L11.0714 13.4345ZM10.9389 13.3685C10.9386 13.3677 10.9377 13.365 10.9369 13.3607C10.936 13.3564 10.9354 13.3511 10.9352 13.3455L13.2598 13.2671C13.2519 13.0442 13.2088 12.8243 13.1326 12.6132L10.9389 13.3685ZM10.9352 13.3455C10.9342 13.3165 10.9447 13.2914 10.9624 13.2732L12.6559 14.8299C13.0581 14.4129 13.2804 13.851 13.2598 13.2671L10.9352 13.3455ZM10.9624 13.2732C10.9742 13.2608 10.9885 13.2521 11.0014 13.2475L11.7895 15.3843C12.1281 15.2653 12.4221 15.0724 12.6559 14.8299L10.9624 13.2732ZM11.0027 13.2471L8.94324 13.9685L9.72878 16.1062L11.7882 15.3847L11.0027 13.2471ZM8.94324 13.9685L8.82771 14.0091L9.61328 16.1467L9.72878 16.1062L8.94324 13.9685ZM8.82771 14.0091C8.59728 14.0896 8.38925 14.2199 8.21935 14.3962L9.91293 15.9529C9.82134 16.0479 9.71503 16.1111 9.61328 16.1467L8.82771 14.0091ZM8.21935 14.3962C7.91211 14.7148 7.79367 15.1151 7.80566 15.4739L10.1305 15.3997C10.1362 15.57 10.0798 15.7799 9.91293 15.9529L8.21935 14.3962ZM7.80576 15.4767C7.83078 16.1711 8.40056 16.9687 9.40294 16.9349L9.32289 14.6651C9.5313 14.6581 9.75333 14.741 9.91483 14.9051C10.0596 15.0521 10.1244 15.2311 10.1304 15.3969L7.80576 15.4767ZM9.40294 16.9349L19.4077 16.6003L19.328 14.3305L9.32289 14.6651L9.40294 16.9349ZM19.4077 16.6003C19.3508 16.6022 19.3043 16.5596 19.3023 16.5046L21.6271 16.4263C21.5848 15.2278 20.5548 14.2895 19.328 14.3305L19.4077 16.6003ZM19.3031 16.5203C19.3026 16.5117 19.3025 16.5052 19.3024 16.5021C19.3023 16.4991 19.3023 16.4969 19.3023 16.4993C19.3024 16.5003 19.3024 16.5058 19.3026 16.5119C19.3027 16.5184 19.3031 16.5282 19.3037 16.54L21.6271 16.4303C21.6275 16.4387 21.6278 16.4457 21.6279 16.4489C21.6279 16.4518 21.6279 16.4535 21.6278 16.4513C21.6278 16.4503 21.6277 16.4448 21.6276 16.4387C21.6273 16.4322 21.627 16.4224 21.6265 16.4106L19.3031 16.5203ZM19.3024 16.5021C19.302 16.484 19.306 16.4654 19.3128 16.4487C19.3194 16.4331 19.3269 16.4233 19.3323 16.4178L21.0258 17.9745C21.3981 17.5885 21.6376 17.0588 21.6283 16.4675L19.3024 16.5021ZM19.3323 16.4178C19.3378 16.4121 19.3429 16.4088 19.3476 16.4067C19.3528 16.4043 19.3593 16.4028 19.3657 16.4025L19.4452 18.6723C20.0639 18.6516 20.6273 18.3879 21.0258 17.9745L19.3323 16.4178ZM19.3657 16.4025L11.0554 16.6804L11.135 18.9501L19.4452 18.6723L19.3657 16.4025ZM11.0568 16.6803C10.6085 16.6948 10.2083 16.8867 9.92643 17.1791L11.6201 18.7359C11.5002 18.8602 11.3275 18.9439 11.1335 18.9502L11.0568 16.6803ZM9.91805 17.1879C9.65414 17.4676 9.48761 17.8456 9.4863 18.2608L11.8124 18.2678C11.8118 18.4478 11.7394 18.6095 11.6285 18.7271L9.91805 17.1879ZM9.48641 18.2733C9.48648 18.2829 9.48664 18.2911 9.48668 18.293C9.48674 18.2962 9.48667 18.2929 9.48663 18.2887L11.8126 18.2707C11.8125 18.2613 11.8124 18.2529 11.8123 18.2511C11.8123 18.2479 11.8123 18.2511 11.8124 18.2553L9.48641 18.2733ZM9.48729 18.3188C9.52032 19.256 10.3534 19.8776 11.1883 19.8499L11.1095 17.5802C11.429 17.5696 11.7965 17.8023 11.812 18.2407L9.48729 18.3188ZM11.1883 19.8499L15.1779 19.7163L15.0982 17.4466L11.1095 17.5802L11.1883 19.8499ZM15.1779 19.7163C15.121 19.7182 15.0747 19.6756 15.0726 19.6207L17.3973 19.5424C17.355 18.344 16.325 17.4055 15.0982 17.4466L15.1779 19.7163ZM15.072 19.5738C15.0719 19.5859 15.072 19.5961 15.0721 19.6026C15.0723 19.6088 15.0724 19.6144 15.0724 19.6153C15.0724 19.6176 15.0724 19.6153 15.0723 19.6124C15.0723 19.6091 15.0721 19.6022 15.0723 19.5933L17.3983 19.6089C17.3983 19.5968 17.3982 19.5866 17.3982 19.5801C17.398 19.5739 17.3979 19.5683 17.3979 19.5674C17.3978 19.565 17.3979 19.5672 17.3979 19.5702C17.3979 19.5735 17.398 19.5804 17.398 19.5894L15.072 19.5738ZM15.0724 19.6182C15.072 19.6005 15.0757 19.5817 15.0825 19.5653C15.089 19.5496 15.0966 19.5397 15.1021 19.534L16.7957 21.0908C17.1684 20.7043 17.4072 20.1745 17.3982 19.584L15.0724 19.6182ZM15.1021 19.534C15.1078 19.5282 15.1129 19.5249 15.1176 19.5228C15.1227 19.5205 15.1289 19.5189 15.1351 19.5187L15.2151 21.7885C15.8333 21.7676 16.3972 21.504 16.7957 21.0908L15.1021 19.534ZM15.1351 19.5187L10.6063 19.67L10.6858 21.9398L15.2151 21.7885L15.1351 19.5187ZM10.6044 19.6701C10.1564 19.6858 9.75941 19.878 9.47951 20.1667L11.1685 21.7284C11.0514 21.8491 10.8811 21.933 10.6877 21.9398L10.6044 19.6701ZM9.47 20.1768C9.20433 20.4574 9.03792 20.8372 9.03751 21.2534L11.3636 21.2555C11.3634 21.4357 11.291 21.5991 11.1781 21.7183L9.47 20.1768ZM9.03858 21.2058C9.03671 21.2483 9.03615 21.3097 9.04364 21.3827L11.3581 21.1564C11.3646 21.2192 11.3639 21.2705 11.3625 21.3032L9.03858 21.2058ZM9.03854 21.3086C9.07156 22.2451 9.90415 22.8676 10.7398 22.8395L10.66 20.5698C10.9809 20.559 11.3478 20.7927 11.3632 21.2304L9.03854 21.3086ZM10.7398 22.8395L14.4169 22.7165L14.3376 20.4468L10.66 20.5698L10.7398 22.8395ZM14.4169 22.7165C14.4045 22.7169 14.3934 22.7129 14.384 22.7049C14.3784 22.7001 14.3698 22.6909 14.3619 22.6756C14.3534 22.6593 14.3479 22.6398 14.347 22.6209L16.6696 22.5001C16.6024 21.2651 15.5042 20.4082 14.3376 20.4468L14.4169 22.7165ZM14.3458 22.5947C14.3464 22.6108 14.347 22.624 14.3473 22.6304C14.3474 22.6321 14.3475 22.6336 14.3475 22.6346C14.3477 22.636 14.3477 22.636 14.3477 22.6369C14.3478 22.6378 14.3477 22.6364 14.3475 22.6346L16.6708 22.5264C16.6706 22.5215 16.6705 22.5155 16.6703 22.5133C16.6703 22.5124 16.6702 22.5116 16.6702 22.5113C16.6701 22.5107 16.6702 22.5112 16.6702 22.5113C16.6702 22.5113 16.6702 22.5125 16.6703 22.5151C16.6705 22.5176 16.6707 22.5216 16.6708 22.5264L14.3458 22.5947ZM14.347 22.6188C14.3465 22.607 14.3487 22.5929 14.3541 22.5793C14.3591 22.5665 14.3662 22.556 14.3743 22.5476L16.0679 24.1044C16.4586 23.6992 16.6927 23.1442 16.6718 22.5419L14.347 22.6188ZM14.3743 22.5476C14.3805 22.5412 14.3909 22.533 14.4056 22.5264C14.421 22.5195 14.4355 22.5168 14.4451 22.5165L14.5249 24.7862C15.1336 24.7658 15.678 24.5088 16.0679 24.1044L14.3743 22.5476ZM14.4451 22.5165L10.0649 22.663L10.1442 24.9327L14.5249 24.7862L14.4451 22.5165ZM10.0649 22.663C9.61917 22.6778 9.22006 22.8682 8.93781 23.1609L10.6314 24.7177C10.5102 24.8434 10.3368 24.9264 10.1442 24.9327L10.0649 22.663ZM8.93781 23.1609C8.65403 23.4552 8.48148 23.8621 8.49724 24.3032L10.8219 24.2252C10.8288 24.4161 10.7541 24.5904 10.6314 24.7177L8.93781 23.1609ZM8.49724 24.3032C8.52765 25.1777 9.27835 25.8641 10.1774 25.8329L10.0951 23.5633C10.4843 23.5499 10.8088 23.8477 10.8219 24.2252L8.49724 24.3032ZM10.176 25.8331L13.3223 25.7281L13.2429 23.4583L10.0965 23.5633L10.176 25.8331ZM13.3223 25.7281C13.3099 25.7284 13.2991 25.7243 13.2896 25.7162C13.2838 25.7113 13.2752 25.7022 13.2672 25.6868C13.2589 25.6703 13.2534 25.6508 13.2523 25.6318L15.5752 25.513C15.5089 24.2772 14.4103 23.4192 13.2429 23.4583L13.3223 25.7281ZM13.2521 25.6273C13.2522 25.6297 13.2523 25.6319 13.2524 25.6333C13.2524 25.634 13.2524 25.6347 13.2525 25.6352C13.2525 25.635 13.2525 25.6357 13.2525 25.6352C13.2526 25.6365 13.2525 25.635 13.2523 25.6318C13.2521 25.6255 13.2513 25.6078 13.2515 25.5839L15.5775 25.5995C15.5777 25.5693 15.5768 25.5448 15.5762 25.5322C15.5758 25.5258 15.5756 25.5196 15.5754 25.5176C15.5753 25.5143 15.5753 25.5165 15.5754 25.5176L13.2521 25.6273ZM13.2522 25.6306C13.2517 25.619 13.2538 25.605 13.2592 25.5913C13.2644 25.5784 13.2716 25.5672 13.2798 25.5587L14.9734 27.1155C15.3645 26.7098 15.5979 26.1551 15.5768 25.5528L13.2522 25.6306ZM15.7525 27.8331C16.3532 27.2101 16.6718 26.3905 16.6467 25.5358L14.3216 25.6008C14.329 25.8546 14.2375 26.0903 14.0589 26.2755L15.7525 27.8331ZM16.647 25.5517C16.6467 25.5259 16.6458 25.5041 16.6451 25.4882C16.6448 25.4805 16.6445 25.4733 16.6443 25.4696C16.6441 25.464 16.6442 25.4668 16.6443 25.4696L14.3203 25.5654C14.3204 25.57 14.3207 25.5739 14.3208 25.5764C14.3209 25.5787 14.321 25.5813 14.3211 25.5826C14.3213 25.5857 14.3213 25.5869 14.3214 25.5878C14.3214 25.5892 14.3213 25.5878 14.3211 25.5848L16.647 25.5517ZM16.6437 25.4581C16.6154 24.9319 16.4562 24.4278 16.1814 23.9831L14.1897 25.1563C14.2669 25.2812 14.3125 25.4226 14.3208 25.5764L16.6437 25.4581ZM15.5869 25.6354C16.0632 25.4645 16.4937 25.1872 16.8468 24.821L15.1533 23.2642C15.0465 23.375 14.9205 23.455 14.7842 23.5039L15.5869 25.6354ZM16.8468 24.821C17.4517 24.1938 17.7709 23.3681 17.7411 22.5071L15.4164 22.5837C15.4252 22.8396 15.3335 23.0774 15.1533 23.2642L16.8468 24.821ZM17.7412 22.5112L17.741 22.5022L15.416 22.5706L15.4163 22.5796L17.7412 22.5112ZM17.7397 22.4724L17.7392 22.4634L15.4168 22.5915L15.4174 22.6005L17.7397 22.4724ZM17.7405 22.493L17.7404 22.4907L15.4154 22.559V22.5618L17.7405 22.493ZM17.7404 22.4907V22.4889L15.4153 22.5569L15.4154 22.559L17.7404 22.4907ZM17.7404 22.4889L17.7402 22.4818L15.4151 22.5503L15.4153 22.5569L17.7404 22.4889ZM17.7391 22.456L17.7385 22.4456L15.4157 22.5657L15.4159 22.5767L17.7391 22.456ZM17.7385 22.4456C17.7055 21.8397 17.499 21.2638 17.1438 20.7749L15.2466 22.089C15.3473 22.2275 15.406 22.3891 15.4157 22.5657L17.7385 22.4456ZM16.757 22.4262C17.057 22.2646 17.3345 22.057 17.5748 21.8077L15.8812 20.2509C15.8112 20.3236 15.7274 20.3871 15.6334 20.4377L16.757 22.4262ZM17.5748 21.8077C18.1583 21.2027 18.4791 20.4088 18.4682 19.5765L16.1423 19.6056C16.1454 19.842 16.0565 20.0693 15.8812 20.2509L17.5748 21.8077ZM18.4682 19.5832C18.4682 19.5807 18.4682 19.579 18.4682 19.5765C18.4682 19.5739 18.4682 19.5705 18.4681 19.5679L16.1422 19.5836C16.1422 19.5861 16.1422 19.5887 16.1422 19.5913C16.1422 19.5938 16.1421 19.5963 16.1422 19.5989L18.4682 19.5832ZM18.4682 19.574V19.5616L16.1421 19.565V19.5775L18.4682 19.574ZM18.4674 19.5213L18.4667 19.5041L16.1422 19.5882L16.1423 19.6056L18.4674 19.5213ZM18.4668 19.5069C18.4493 19.0154 18.3187 18.5508 18.0995 18.1385L16.0351 19.185C16.0987 19.3046 16.1369 19.4394 16.1422 19.5854L18.4668 19.5069ZM17.1071 19.7966L19.4819 19.7173L19.4023 17.4475L17.0275 17.5269L17.1071 19.7966ZM19.4819 19.7173C20.3596 19.6876 21.2028 19.3159 21.805 18.6914L20.1113 17.1347C19.9305 17.3222 19.6684 17.4385 19.4023 17.4475L19.4819 19.7173ZM21.805 18.6914C22.4044 18.0698 22.7112 17.2829 22.6983 16.4527L20.3726 16.487C20.3764 16.7286 20.295 16.9443 20.1113 17.1347L21.805 18.6914ZM22.6985 16.4566L22.6982 16.4372L20.3723 16.4639L20.3726 16.4832L22.6985 16.4566ZM22.6968 16.394L22.6965 16.3881L20.3734 16.501L20.3736 16.507L22.6968 16.394ZM22.6974 16.4102C22.6973 16.4053 22.6968 16.3887 22.6958 16.3701L20.3724 16.4787L22.6974 16.4102ZM22.6964 16.3829C22.6293 14.6138 21.1048 13.2264 19.2914 13.2872L19.3711 15.5569C19.9024 15.5391 20.3522 15.9481 20.372 16.4671L22.6964 16.3829ZM19.2914 13.2872L12.6595 13.509L12.7391 15.7787L19.3711 15.5569L19.2914 13.2872ZM13.6077 15.353C14.0953 14.7575 14.3563 14.0012 14.3294 13.2325L12.0047 13.3101C12.0124 13.5314 11.9354 13.7583 11.7909 13.9347L13.6077 15.353ZM14.3294 13.2325C14.3177 12.9027 14.254 12.5772 14.1417 12.2664L11.948 13.0217C11.9828 13.1178 12.0013 13.2143 12.0047 13.3101L14.3294 13.2325ZM14.1468 12.2808L14.1458 12.2781L11.942 13.0045L11.9428 13.0072L14.1468 12.2808ZM14.1246 12.2214L14.1235 12.2189L11.9623 13.0586L11.9633 13.0612L14.1246 12.2214ZM14.1375 12.255C13.5235 10.5853 11.6352 9.71545 9.92492 10.3142L10.7099 12.452C11.2115 12.2764 11.7681 12.5322 11.948 13.0217L14.1375 12.255ZM9.92492 10.3142L7.4751 11.1724L8.26045 13.3102L10.7099 12.452L9.92492 10.3142ZM7.48074 11.1705L7.4751 11.1724L8.2489 13.3141L8.25454 13.3122L7.48074 11.1705ZM7.44707 11.1825L7.44155 11.1845L8.2714 13.3061L8.27693 13.3041L7.44707 11.1825ZM7.45153 11.1809L5.2142 11.9922L6.02413 14.1211L8.26045 13.3102L7.45153 11.1809ZM5.2142 11.9922C4.04706 12.4157 2.98186 13.105 2.12953 13.9888L3.82311 15.5456C4.42939 14.9169 5.19168 14.4232 6.02413 14.1211L5.2142 11.9922ZM2.12953 13.9888C0.727267 15.4431 -0.0468416 17.3365 -0.0380112 19.3182L2.28811 19.3088C2.28192 17.919 2.82261 16.5831 3.82311 15.5456L2.12953 13.9888ZM-0.0374795 19.3479L-0.0374269 19.3495L2.28754 19.2801L2.28748 19.2785L-0.0374795 19.3479ZM-0.0374269 19.3495L-0.0373755 19.3512L2.28759 19.2818L2.28754 19.2801L-0.0374269 19.3495ZM-0.0378917 19.3241C-0.0373373 19.4048 -0.0357014 19.4841 -0.0333701 19.5595L2.29163 19.4912C2.28978 19.4312 2.28854 19.3698 2.28811 19.3088L-0.0378917 19.3241ZM-0.0333701 19.5595L-0.0332793 19.5629L2.2917 19.4935L2.29163 19.4912L-0.0333701 19.5595ZM-0.0333236 19.5611L-0.0332793 19.5629L2.29176 19.4954L2.2917 19.4935L-0.0333236 19.5611ZM-0.0330942 19.5682L0.0189169 21.0446L2.3436 20.9665L2.29163 19.4912L-0.0330942 19.5682ZM0.0189169 21.0446C0.0354283 21.5114 0.0917661 21.9755 0.187285 22.4252L2.46487 21.964C2.39684 21.6438 2.35569 21.3081 2.3436 20.9665L0.0189169 21.0446ZM0.186405 22.421C0.393187 23.4133 0.78332 24.351 1.34402 25.2054L3.30251 23.98C2.89602 23.3607 2.61508 22.6847 2.46577 21.9682L0.186405 22.421ZM1.34402 25.2054C2.83089 27.4708 5.11801 28.8468 7.77817 28.9971L7.91243 26.7298C6.05064 26.6246 4.41772 25.6793 3.30251 23.98L1.34402 25.2054ZM7.73534 28.9938C7.90454 29.0095 8.09218 29.0125 8.21565 29.0128C8.34678 29.0132 8.44859 29.0106 8.4606 29.0102L8.39024 26.7401C8.39861 26.7399 8.32323 26.742 8.22254 26.7418C8.11421 26.7414 8.01396 26.7384 7.95524 26.7329L7.73534 28.9938ZM8.45914 29.0102H8.4606L8.3917 26.7401H8.39024L8.45914 29.0102ZM8.4606 29.0102L8.46294 29.0101L8.3917 26.7401L8.4606 29.0102ZM8.46869 29.01L8.7482 29.0003L8.66601 26.7307L8.38651 26.7403L8.46869 29.01ZM8.74698 29.0003L9.82494 28.9643L9.74533 26.6945L8.66723 26.7306L8.74698 29.0003ZM9.82494 28.9643L13.4671 28.8427L13.3877 26.573L9.74533 26.6945L9.82494 28.9643ZM13.4671 28.8427C14.3395 28.8134 15.1547 28.453 15.7525 27.8331L14.0589 26.2755C13.8814 26.4596 13.6469 26.5643 13.3877 26.573L13.4671 28.8427Z" fill="#181C25"/>
</g>
</g>
<path id="Vector_10" d="M141.432 9.20605V15.0321H135.291V18.5681C136.212 18.2538 137.154 18.0294 138.12 17.8946C139.086 17.7599 139.96 17.7375 140.741 17.8273V23.4849L140.363 23.687C139.719 23.4849 138.96 23.3951 138.086 23.4176C137.212 23.4176 136.281 23.5634 135.291 23.8553V26.9535H141.432V32.7796H128.739V9.20605H141.432Z" fill="#181C25"/>
<path id="Vector_11" d="M127.824 9.20605V15.1331H123.928V32.7796H117.374V15.1331H113.304V9.20605H127.824Z" fill="#181C25"/>
<path id="Vector_12" d="M93.7219 20.9931C93.7219 18.1419 94.1933 15.8181 95.1361 14.0221C96.0789 12.226 97.3207 10.9127 98.8613 10.082C100.402 9.22883 102.058 8.80225 103.828 8.80225C105.622 8.80225 107.277 9.22883 108.795 10.082C110.336 10.9127 111.577 12.226 112.52 14.0221C113.463 15.8181 113.934 18.1419 113.934 20.9931C113.934 23.8445 113.463 26.1681 112.52 27.9642C111.577 29.7603 110.336 31.0849 108.795 31.938C107.277 32.7688 105.622 33.1841 103.828 33.1841C102.058 33.1841 100.402 32.7688 98.8613 31.938C97.3207 31.0849 96.0789 29.7603 95.1361 27.9642C94.1933 26.1681 93.7219 23.8445 93.7219 20.9931ZM100.517 20.9931C100.517 22.9689 100.839 24.4843 101.483 25.5395C102.126 26.5946 102.908 27.1223 103.828 27.1223C104.771 27.1223 105.564 26.5946 106.208 25.5395C106.875 24.4843 107.208 22.9689 107.208 20.9931C107.208 18.9501 106.875 17.4235 106.208 16.4131C105.541 15.3804 104.748 14.864 103.828 14.864C102.908 14.864 102.126 15.3916 101.483 16.4469C100.839 17.4796 100.517 18.995 100.517 20.9931Z" fill="#181C25"/>
<path id="Vector_13" d="M77.4866 32.7796V9.20605H86.558C88.7424 9.20605 90.49 9.82345 91.8007 11.0583C93.1345 12.2931 93.8012 14.3136 93.8012 17.1201C93.8012 18.9611 93.4564 20.499 92.7666 21.7338C92.0997 22.946 91.2144 23.8553 90.1106 24.4615C89.0069 25.0452 87.8227 25.3371 86.558 25.3371H84.0401V32.7796H77.4866ZM84.0401 19.8478H85.4543C86.0521 19.8478 86.466 19.6009 86.6959 19.107C86.9489 18.5905 87.0753 18.018 87.0753 17.3894C87.0753 16.7608 86.9489 16.2108 86.6959 15.7393C86.466 15.2679 86.0521 15.0321 85.4543 15.0321H84.0401V19.8478Z" fill="#181C25"/>
<path id="Vector_14" d="M69.1816 9.20605H75.5627V32.7796H69.2507L65.56 22.3736H65.2496L65.56 32.7796H59.179V9.20605H65.5255L69.2161 19.9826H69.492L69.1816 9.20605Z" fill="#181C25"/>
<path id="Vector_15" d="M37.8887 20.9931C37.8887 18.1419 38.3601 15.8181 39.3029 14.0221C40.2456 12.226 41.4874 10.9127 43.028 10.082C44.5686 9.22883 46.2243 8.80225 47.9949 8.80225C49.7885 8.80225 51.444 9.22883 52.9617 10.082C54.5023 10.9127 55.7441 12.226 56.6868 14.0221C57.6296 15.8181 58.101 18.1419 58.101 20.9931C58.101 23.8445 57.6296 26.1681 56.6868 27.9642C55.7441 29.7603 54.5023 31.0849 52.9617 31.938C51.444 32.7688 49.7885 33.1841 47.9949 33.1841C46.2243 33.1841 44.5686 32.7688 43.028 31.938C41.4874 31.0849 40.2456 29.7603 39.3029 27.9642C38.3601 26.1681 37.8887 23.8445 37.8887 20.9931ZM44.6837 20.9931C44.6837 22.9689 45.0056 24.4843 45.6494 25.5395C46.2932 26.5946 47.0751 27.1223 47.9949 27.1223C48.9376 27.1223 49.731 26.5946 50.3748 25.5395C51.0417 24.4843 51.3751 22.9689 51.3751 20.9931C51.3751 18.9501 51.0417 17.4235 50.3748 16.4131C49.7079 15.3804 48.9146 14.864 47.9949 14.864C47.0751 14.864 46.2932 15.3916 45.6494 16.4469C45.0056 17.4796 44.6837 18.995 44.6837 20.9931Z" fill="#181C25"/>
<path id="Vector_16" d="M19.0898 30.8687L24.0329 7.79443L33.5536 9.73869C35.3317 10.1018 36.6437 10.8858 37.4897 12.0908C38.3405 13.2737 38.5987 14.6453 38.2645 16.2055C38.062 17.1505 37.7102 17.9158 37.2088 18.5015C36.73 19.0918 36.1893 19.5319 35.587 19.8218C35.0071 20.1163 34.4394 20.2985 33.8841 20.3686L33.8276 20.6323C34.3799 20.9057 34.9258 21.3727 35.4656 22.0334C36.0278 22.6987 36.4422 23.5058 36.7088 24.4548C36.9978 25.4083 37.0176 26.4675 36.7681 27.6322C36.3255 29.6979 35.3493 31.1843 33.8394 32.0917C32.3342 32.977 30.5125 33.2014 28.3742 32.7647L19.0898 30.8687ZM28.5198 18.1033L29.7014 18.3447C30.1291 18.432 30.5269 18.3298 30.8948 18.0379C31.2851 17.7506 31.5393 17.3323 31.6569 16.7829C31.7746 16.2335 31.7089 15.7728 31.4597 15.4009C31.2105 15.0288 30.8833 14.8014 30.4782 14.7187L29.2966 14.4775L28.5198 18.1033ZM26.7191 26.5089L28.1033 26.7916C28.531 26.879 28.9602 26.7946 29.3909 26.5386C29.8216 26.2825 30.0935 25.8907 30.2065 25.3633C30.3335 24.7699 30.2702 24.2982 30.0163 23.9482C29.767 23.5762 29.3949 23.3397 28.8997 23.2385L27.4817 22.949L26.7191 26.5089Z" fill="#181C25"/>
</g>
<defs>
<clipPath id="clip0_7150_2647">
<rect width="141" height="35" fill="white" transform="translate(0.634033 0.0800781)"/>
</clipPath>
</defs>
</svg>
