<?xml version="1.0" encoding="iso-8859-1"?>
<!-- Generator: Adobe Illustrator 19.0.0, SVG Export Plug-In . SVG Version: 6.00 Build 0)  -->
<svg version="1.1" id="Capa_1" xmlns="http://www.w3.org/2000/svg" xmlns:xlink="http://www.w3.org/1999/xlink" x="0px" y="0px"
	 viewBox="0 0 512 512" style="enable-background:new 0 0 512 512;" xml:space="preserve">
<g>
	<g>
		<g>
			<path d="M106.667,277.333h192v21.333h42.667v-192c0-35.346,28.654-64,64-64c35.346,0,64,28.654,64,64H512
				C512,47.756,464.244,0,405.333,0c-58.91,0-106.667,47.756-106.667,106.667v42.667h-192v-42.667c0-35.346,28.654-64,64-64
				c35.346,0,64,28.654,64,64h42.667C277.333,47.756,229.577,0,170.667,0C111.756,0,64,47.756,64,106.667v192h42.667V277.333z
				 M106.667,192h192v42.667h-192V192z"/>
			<path d="M426.667,448c-15.752,0.008-30.95-5.813-42.667-16.341c-24.294,21.73-61.039,21.73-85.333,0
				c-24.294,21.73-61.039,21.73-85.333,0c-24.294,21.73-61.039,21.73-85.333,0c-24.294,21.73-61.039,21.73-85.333,0
				C30.95,442.187,15.752,448.008,0,448v64h512v-64c-15.752,0.008-30.95-5.813-42.667-16.341
				C457.617,442.187,442.419,448.008,426.667,448z"/>
			<path d="M426.667,357.675c-15.752,0.008-30.95-5.813-42.667-16.341c-24.294,21.73-61.039,21.73-85.333,0
				c-24.294,21.73-61.039,21.73-85.333,0c-24.294,21.73-61.039,21.73-85.333,0c-24.294,21.73-61.039,21.73-85.333,0
				C30.95,351.862,15.752,357.683,0,357.675v64c15.752,0.008,30.95-5.813,42.667-16.341c24.294,21.73,61.039,21.73,85.333,0
				c24.294,21.73,61.039,21.73,85.333,0c24.294,21.73,61.039,21.73,85.333,0c24.294,21.73,61.039,21.73,85.333,0
				c24.294,21.73,61.039,21.73,85.333,0c11.717,10.529,26.915,16.349,42.667,16.341v-64c-15.752,0.008-30.95-5.813-42.667-16.341
				C457.617,351.862,442.419,357.683,426.667,357.675z"/>
		</g>
	</g>
</g>
<g>
</g>
<g>
</g>
<g>
</g>
<g>
</g>
<g>
</g>
<g>
</g>
<g>
</g>
<g>
</g>
<g>
</g>
<g>
</g>
<g>
</g>
<g>
</g>
<g>
</g>
<g>
</g>
<g>
</g>
</svg>
