<?xml version="1.0" encoding="iso-8859-1"?>
<!-- Generator: Adobe Illustrator 19.0.0, SVG Export Plug-In . SVG Version: 6.00 Build 0)  -->
<svg version="1.1" id="Layer_1" xmlns="http://www.w3.org/2000/svg" xmlns:xlink="http://www.w3.org/1999/xlink" x="0px" y="0px"
	 viewBox="0 0 512 512" style="enable-background:new 0 0 512 512;" xml:space="preserve">
<g>
	<g>
		<path d="M461.913,72.663H150.261c-27.619,0-50.087,22.468-50.087,50.087v217.043H16.696C7.479,339.793,0,347.266,0,356.489
			s7.479,16.696,16.696,16.696h294.638c0.441,36.548,30.276,66.153,66.926,66.153c36.65,0,66.475-29.604,66.916-66.153h16.737
			c27.619,0,50.087-22.468,50.087-50.087V122.75C512,95.131,489.532,72.663,461.913,72.663z M267.13,339.793h-66.783V172.837h66.783
			V339.793z M378.261,405.946c-18.511,0-33.576-15.059-33.576-33.57s15.065-33.57,33.576-33.57c18.511,0,33.565,15.059,33.565,33.57
			S396.772,405.946,378.261,405.946z M478.609,239.619H378.435v-66.783h100.174V239.619z"/>
	</g>
</g>
<g>
</g>
<g>
</g>
<g>
</g>
<g>
</g>
<g>
</g>
<g>
</g>
<g>
</g>
<g>
</g>
<g>
</g>
<g>
</g>
<g>
</g>
<g>
</g>
<g>
</g>
<g>
</g>
<g>
</g>
</svg>
