<svg width="22" height="19" viewBox="0 0 22 19" fill="none" xmlns="http://www.w3.org/2000/svg">
<path fill-rule="evenodd" clip-rule="evenodd" d="M11.3536 2.14645C11.1583 1.95118 10.8417 1.95118 10.6464 2.14645C10.4512 2.34171 10.4512 2.65829 10.6464 2.85355C10.8417 3.04882 11.1583 3.04882 11.3536 2.85355C11.5488 2.65829 11.5488 2.34171 11.3536 2.14645ZM9.23223 0.732233C10.2085 -0.244078 11.7915 -0.244078 12.7678 0.732233C13.2224 1.18686 13.4653 1.77301 13.4965 2.3682L17.2057 3.75914C17.2145 3.75012 17.2233 3.74115 17.2322 3.73223C18.2085 2.75592 19.7915 2.75592 20.7678 3.73223C21.7441 4.70854 21.7441 6.29146 20.7678 7.26777C19.7915 8.24408 18.2085 8.24408 17.2322 7.26777C16.7776 6.81314 16.5347 6.22699 16.5035 5.6318L12.7943 4.24086C12.7855 4.24988 12.7767 4.25885 12.7678 4.26777C11.9545 5.08105 10.7203 5.21685 9.76642 4.67519L5.43333 7.925C5.62507 8.73989 5.40322 9.63232 4.76777 10.2678C3.79146 11.2441 2.20854 11.2441 1.23223 10.2678C0.255922 9.29146 0.255922 7.70854 1.23223 6.73223C2.04551 5.91895 3.27972 5.78315 4.23358 6.32481L8.56667 3.075C8.37493 2.26011 8.59678 1.36768 9.23223 0.732233ZM19.3536 5.14645C19.1583 4.95118 18.8417 4.95118 18.6464 5.14645C18.4512 5.34171 18.4512 5.65829 18.6464 5.85355C18.8417 6.04882 19.1583 6.04882 19.3536 5.85355C19.5488 5.65829 19.5488 5.34171 19.3536 5.14645ZM3.35355 8.14645C3.15829 7.95118 2.84171 7.95118 2.64645 8.14645C2.45118 8.34171 2.45118 8.65829 2.64645 8.85355C2.84171 9.04882 3.15829 9.04882 3.35355 8.85355C3.54882 8.65829 3.54882 8.34171 3.35355 8.14645ZM11 7C11.5523 7 12 7.44772 12 8V18C12 18.5523 11.5523 19 11 19C10.4477 19 10 18.5523 10 18V8C10 7.44772 10.4477 7 11 7ZM19 10C19.5523 10 20 10.4477 20 11V18C20 18.5523 19.5523 19 19 19C18.4477 19 18 18.5523 18 18V11C18 10.4477 18.4477 10 19 10ZM3 13C3.55228 13 4 13.4477 4 14L4 18C4 18.5523 3.55228 19 3 19C2.44772 19 2 18.5523 2 18L2 14C2 13.4477 2.44772 13 3 13Z" fill="black"/>
</svg>
