<svg width="81" height="80" viewBox="0 0 81 80" fill="none" xmlns="http://www.w3.org/2000/svg">
<path d="M66.1986 70.2289C58.4414 77.9861 45.8614 77.9861 38.1042 70.2289C30.3469 62.4717 30.3469 49.8917 38.1042 42.1345C49.0766 31.1621 67.2193 25.5993 74.9765 33.3566C77.5027 35.8828 78.5872 38.511 78.5872 42.8872C78.5872 51.6524 73.5986 62.8289 66.1986 70.2289Z" fill="white" style="fill:white;fill-opacity:1;"/>
<path d="M53.0701 32.2855C61.58 28.8661 70.2304 28.611 74.9766 33.3699C77.5028 35.8961 78.5873 38.5244 78.5873 42.9006C78.5873 51.6658 73.5986 62.8423 66.1987 70.2423C61.2483 75.1926 54.3332 76.9916 47.9539 75.6137" fill="white" style="fill:white;fill-opacity:1;"/>
<path d="M52.177 76.7619C50.7225 76.7619 49.268 76.6088 47.8135 76.2899C47.4308 76.2133 47.1884 75.8306 47.2777 75.4478C47.3542 75.0651 47.7498 74.8354 48.1198 74.9119C54.5118 76.2899 61.0952 74.3506 65.7139 69.732C72.8842 62.5616 77.8983 51.5127 77.8983 42.8879C77.8983 38.8434 76.2269 36.9934 73.7773 34.5437C69.567 30.3334 62.3711 29.3 53.3508 32.9362C52.9935 33.0765 52.5853 32.9106 52.4322 32.5406C52.2918 32.1834 52.4577 31.7751 52.8277 31.622C62.3966 27.7689 70.8683 28.2282 75.4997 32.8596C78.2556 35.6027 79.3145 38.4224 79.3145 42.8879C79.3145 51.8572 74.1856 63.863 66.7601 71.2885C62.8559 75.1926 57.5866 76.7619 52.1897 76.7619H52.177Z" fill="#433F40" style="fill:#433F40;fill:color(display-p3 0.2627 0.2471 0.2510);fill-opacity:1;"/>
<path d="M7.25391 36.0106C7.25391 20.3558 16.2232 3.46338 27.2849 3.46338C38.3466 3.46338 47.3032 20.3558 47.3032 35.9978" fill="white" style="fill:white;fill-opacity:1;"/>
<path d="M47.3032 36.7124C46.9076 36.7124 46.6014 36.3934 46.6014 36.0106C46.6014 21.2872 38.168 4.17792 27.2849 4.17792C16.4018 4.17792 7.9684 21.2872 7.9684 36.0106C7.9684 36.4061 7.64943 36.7124 7.26668 36.7124C6.88392 36.7124 6.56495 36.3934 6.56495 36.0106C6.55219 16.9748 17.4991 2.76172 27.2849 2.76172C37.0708 2.76172 48.0176 16.9748 48.0176 36.0106C48.0176 36.4061 47.6987 36.7124 47.3159 36.7124H47.3032Z" fill="#433F40" style="fill:#433F40;fill:color(display-p3 0.2627 0.2471 0.2510);fill-opacity:1;"/>
<path d="M37.3388 21.6955C37.0708 21.6955 36.8539 21.5041 36.6881 21.2617C32.567 15.1631 30.3088 11.0548 27.285 11.0548C26.8895 11.0548 26.5833 10.7358 26.5833 10.3531C26.5833 9.97033 26.9022 9.65137 27.285 9.65137C30.9212 9.65137 35.1188 13.9893 37.9894 20.7131C38.1425 21.0703 37.9767 21.4913 37.6194 21.6444C37.5301 21.6827 37.4408 21.6955 37.3388 21.6955Z" fill="#433F40" style="fill:#433F40;fill:color(display-p3 0.2627 0.2471 0.2510);fill-opacity:1;"/>
<path d="M37.4536 56.1051C44.7898 52.3924 49.8167 44.7882 49.8167 35.9976H4.7533C4.7533 44.7755 9.78018 52.3796 17.1164 56.1051C19.1705 57.1513 20.4081 59.3075 20.4081 61.6168V62.293C20.4081 65.7506 17.6012 68.5447 14.1564 68.5447C12.434 68.5447 11.0305 69.9482 11.0305 71.6706V76.0468H43.565V71.6706C43.565 69.9482 42.1615 68.5447 40.4391 68.5447C36.9815 68.5447 34.1874 65.7379 34.1874 62.293V61.6168C34.1874 59.3203 35.425 57.1513 37.4791 56.1051H37.4536Z" fill="#9E8EF5" style="fill:#9E8EF5;fill:color(display-p3 0.6196 0.5569 0.9608);fill-opacity:1;"/>
<path d="M43.5521 76.7618H11.0177C10.6222 76.7618 10.316 76.4429 10.316 76.0601V69.936C10.316 68.4943 11.6556 67.4736 13.0718 67.7415C16.606 68.4177 19.7063 65.7001 19.7063 62.2936V61.6174C19.7063 59.525 18.5836 57.6367 16.7718 56.7181C8.91254 52.7246 4.05151 44.7888 4.05151 35.9981C4.05151 35.6154 4.37048 35.2964 4.75324 35.2964H48.2601C49.5232 35.2964 50.5438 36.3554 50.4673 37.6185C49.9059 45.7457 45.1725 52.967 37.8235 56.7181C36.0118 57.6367 34.889 59.5122 34.889 61.6174V62.1532C34.889 65.2153 37.3004 67.9074 40.3497 67.8436C42.5059 67.7925 44.2666 69.5277 44.2666 71.6712V76.0473C44.2666 76.4429 43.9477 76.7491 43.5649 76.7491L43.5521 76.7618ZM11.7194 75.3456H42.1359C42.5315 75.3456 42.8504 75.0267 42.8504 74.6311V71.6712C42.8504 70.3315 41.7787 69.247 40.439 69.247C36.5987 69.247 33.4601 66.1339 33.4601 62.2808V61.6046C33.4601 58.9763 34.8763 56.616 37.1728 55.455C43.5777 52.2015 47.8645 46.1284 48.8852 39.175C49.0766 37.8609 48.0176 36.6998 46.6908 36.6998H7.68771C6.46289 36.6998 5.49324 37.7716 5.6591 38.9836C6.61599 46.0136 10.9284 52.1633 17.397 55.455C19.6808 56.616 21.1098 58.9763 21.1098 61.6046V62.2808C21.1098 66.1212 17.9839 69.247 14.1308 69.247C12.7912 69.247 11.7194 70.3315 11.7194 71.6712V75.3456Z" fill="#433F40" style="fill:#433F40;fill:color(display-p3 0.2627 0.2471 0.2510);fill-opacity:1;"/>
<path d="M27.2849 59.2444C23.5722 59.2444 20.038 58.4023 16.7591 56.7309C16.4146 56.5523 16.2743 56.1313 16.4529 55.7868C16.6315 55.4423 17.0525 55.302 17.397 55.4806C21.1991 57.4199 25.4349 58.1854 29.7346 57.7133C30.1173 57.6751 30.4746 57.9558 30.5129 58.3385C30.5511 58.7213 30.2704 59.0785 29.8877 59.1168C29.0201 59.2061 28.1398 59.2571 27.2849 59.2571V59.2444Z" fill="#433F40" style="fill:#433F40;fill:color(display-p3 0.2627 0.2471 0.2510);fill-opacity:1;"/>
<path d="M40.4262 69.2471L35.1697 69.4257C34.2 69.4257 33.2304 69.4002 32.2607 69.3874C29.9769 69.3619 27.6932 69.3236 25.4094 69.2471C25.0138 69.2471 24.7076 68.9281 24.7076 68.5454C24.7076 68.1626 25.0266 67.8436 25.4094 67.8436C26.4811 67.7926 27.54 67.7288 28.6118 67.6778C29.9642 67.6012 31.3166 67.5119 32.6562 67.4609C34.0214 67.4099 35.3738 67.563 36.7262 67.6395L39.8521 67.8181C40.0435 67.8181 40.2221 67.8564 40.4135 67.8564C40.809 67.8564 41.1152 68.1754 41.1152 68.5581C41.1152 68.9409 40.7962 69.2598 40.4135 69.2598L40.4262 69.2471Z" fill="#433F40" style="fill:#433F40;fill:color(display-p3 0.2627 0.2471 0.2510);fill-opacity:1;"/>
<path d="M69.7455 53.4129C69.6562 53.4129 69.5669 53.4001 69.4776 53.3619C69.1204 53.2215 69.031 52.826 69.0821 52.4432C70.1028 45.8088 71.6593 41.0243 69.6179 38.6512C69.3628 38.3578 69.401 37.9112 69.6945 37.656C69.9879 37.4009 70.4345 37.4391 70.6897 37.7326C73.101 40.5395 72.9862 46.5233 70.3962 52.9663C70.2814 53.247 70.0262 53.4129 69.7455 53.4129Z" fill="#433F40" style="fill:#433F40;fill:color(display-p3 0.2627 0.2471 0.2510);fill-opacity:1;"/>
</svg>
