<svg width="24" height="24" viewBox="0 0 24 24" fill="none" xmlns="http://www.w3.org/2000/svg">
<path fill-rule="evenodd" clip-rule="evenodd" d="M3 2C3 1.44772 3.44772 1 4 1H20C20.5523 1 21 1.44772 21 2C21 2.55228 20.5523 3 20 3H19V4.7518C19 4.79074 19 4.82916 19 4.8671C19.0004 5.58144 19.0007 6.12093 18.8626 6.63409C18.7409 7.08643 18.5407 7.51388 18.2711 7.89696C17.9653 8.33154 17.5507 8.67669 17.0017 9.13372C16.9725 9.15798 16.943 9.18256 16.9131 9.20748L13.562 12L16.9131 14.7925C16.943 14.8174 16.9725 14.842 17.0017 14.8663C17.5507 15.3233 17.9653 15.6685 18.2711 16.103C18.5407 16.4861 18.7409 16.9136 18.8626 17.3659C19.0007 17.8791 19.0004 18.4186 19 19.1329C19 19.1708 19 19.2093 19 19.2482V21H20C20.5523 21 21 21.4477 21 22C21 22.5523 20.5523 23 20 23H4C3.44772 23 3 22.5523 3 22C3 21.4477 3.44772 21 4 21H5V19.2482C5 19.2093 4.99998 19.1708 4.99996 19.1329C4.99958 18.4186 4.99929 17.8791 5.13735 17.3659C5.25905 16.9136 5.45926 16.4861 5.72885 16.103C6.03469 15.6685 6.44932 15.3233 6.99834 14.8663C7.02749 14.842 7.05702 14.8174 7.08693 14.7925L10.438 12L7.08693 9.20748C7.05702 9.18256 7.02749 9.15797 6.99833 9.13371C6.44932 8.67669 6.03469 8.33153 5.72885 7.89696C5.45926 7.51388 5.25905 7.08643 5.13735 6.63408C4.99929 6.12093 4.99958 5.58144 4.99996 4.86709C4.99998 4.82916 5 4.79074 5 4.7518V3H4C3.44772 3 3 2.55228 3 2ZM7 3V4.7518C7 5.63231 7.00804 5.88909 7.06868 6.11448C7.12953 6.34065 7.22963 6.55438 7.36443 6.74592C7.49875 6.93679 7.69087 7.10735 8.3673 7.67104L12 10.6983L15.6327 7.67104C16.3091 7.10735 16.5012 6.93679 16.6356 6.74592C16.7704 6.55438 16.8705 6.34065 16.9313 6.11448C16.992 5.88909 17 5.63231 17 4.7518V3H7ZM12 13.3017L8.3673 16.329C7.69087 16.8926 7.49875 17.0632 7.36443 17.2541C7.22963 17.4456 7.12953 17.6593 7.06868 17.8855C7.00804 18.1109 7 18.3677 7 19.2482V21H17V19.2482C17 18.3677 16.992 18.1109 16.9313 17.8855C16.8705 17.6593 16.7704 17.4456 16.6356 17.2541C16.5012 17.0632 16.3091 16.8926 15.6327 16.329L12 13.3017Z" fill="black"/>
</svg>
