<svg width="81" height="80" viewBox="0 0 81 80" fill="none" xmlns="http://www.w3.org/2000/svg">
<path d="M50.4151 19.0357L46.0328 17.7111C46.4414 16.4608 46.429 15.1486 45.4882 14.1335C44.3616 12.8708 42.4181 12.7842 41.1554 13.9107L39.5832 15.6314L34.3716 13.9602C35.201 12.7842 35.0029 11.2244 34.0373 10.4074C32.9232 9.14467 30.9673 9.05802 29.7046 10.1845L27.9096 11.8805L21.8561 10.0855C21.0267 9.73888 20.3211 10.0731 19.8259 10.4321L14.1934 15.9038C13.661 16.4856 13.3887 16.8817 13.5001 17.5502C13.6115 18.2187 13.9705 18.7139 14.5771 19.0233L37.6397 31.0684L50.4027 19.0357H50.4151Z" fill="#A2D2FD" style="fill:#A2D2FD;fill:color(display-p3 0.6353 0.8235 0.9922);fill-opacity:1;"/>
<path d="M61.5068 30.7837C65.6786 26.4014 69.3553 22.3658 72.1035 18.652C74.0965 15.6686 75.7553 13.3041 76.7333 11.2739C77.1047 10.2465 78.454 7.16403 76.7581 5.38141C74.8517 3.56166 71.8435 4.62628 70.6798 5.10907C68.8106 5.91372 66.2109 7.26306 63.0294 9.40468C59.3776 11.9053 54.9458 15.161 50.415 19.0481L37.6519 31.0808C32.2422 36.3791 27.5009 41.7641 24.1833 46.2825C23.4158 47.0377 22.8587 47.8299 22.5121 48.647L30.5834 57.3125C31.3261 56.7678 32.0689 56.2355 33.0097 55.7155C37.6519 52.4969 43.3464 48.127 48.9171 43.0763L61.5068 30.7961V30.7837Z" fill="#D7D8D8" style="fill:#D7D8D8;fill:color(display-p3 0.8431 0.8471 0.8471);fill-opacity:1;"/>
<path d="M48.9172 43.064L59.712 66.7827C59.712 66.7827 59.8853 67.0303 60.071 67.2779C60.2443 67.5254 60.6404 67.7978 61.0737 67.8721C61.7174 67.9711 62.423 67.6369 62.7077 67.2531L68.5631 61.8062C69.0583 61.4472 69.1821 60.593 69.0707 59.9246L67.6099 53.7968L69.3926 52.1009C70.4448 50.9496 70.5191 49.006 69.4049 47.731C68.4641 46.7159 66.9786 46.4807 65.7778 47.1739L64.3913 41.9375L66.1492 40.452C67.4119 39.3378 67.4985 37.3819 66.1492 36.0821C65.2084 35.067 63.9333 34.8689 62.7696 35.3517L61.507 30.7838L48.9172 43.064Z" fill="#A2D2FD" style="fill:#A2D2FD;fill:color(display-p3 0.6353 0.8235 0.9922);fill-opacity:1;"/>
<path d="M22.3512 48.548L8.37503 44.2277C7.97889 43.943 7.50848 44.0915 7.23614 44.4876L4.19084 47.2977C3.90611 47.6939 3.88135 47.9043 3.81946 48.3376C3.78232 48.5481 4.17846 48.8328 4.36415 49.0804L18.5632 56.2727C18.3651 57.5602 18.4146 58.6619 19.3802 59.4666C20.0982 60.4445 21.3856 60.6426 22.4874 60.5931L29.036 74.9283C29.0113 75.0686 29.0732 75.147 29.2217 75.1635C29.1846 75.3863 29.3703 75.6215 29.5807 75.6587C30.014 75.7206 30.2492 75.5472 30.4968 75.3616L33.7897 72.3782C34.0744 71.982 34.0992 71.7716 33.9506 71.3135L30.4225 57.2259L22.3512 48.5604V48.548Z" fill="#D7D8D8" style="fill:#D7D8D8;fill:color(display-p3 0.8431 0.8471 0.8471);fill-opacity:1;"/>
<path d="M77.1543 4.72551C75.6069 3.25238 73.2301 3.10383 70.2714 4.30462C68.6126 5.01023 65.9263 6.33482 62.4848 8.64974C58.4492 11.4103 54.6116 14.3442 51.034 17.3895C50.4893 17.8475 49.7589 18.0085 49.0905 17.8104L48.2982 17.5752C47.5802 17.3647 47.0231 16.7334 46.986 15.9907C46.9489 15.0746 46.6146 14.2699 46.008 13.6014C44.6339 12.054 42.2324 11.9302 40.6107 13.3786L40.1155 13.9233C39.6575 14.4309 38.9518 14.6166 38.2957 14.4061L36.7483 13.9109C36.1046 13.7005 35.6218 13.0939 35.659 12.413C35.6961 11.4351 35.3371 10.4819 34.6067 9.88767C33.2326 8.32788 30.8187 8.19171 29.2094 9.60294C28.2933 10.4695 26.9935 10.779 25.7803 10.42L22.1656 9.34298C21.5342 9.08302 20.5439 8.94684 19.3431 9.83815L13.6734 15.3345C13.0915 15.9783 12.6335 16.5849 12.8068 17.6C12.9554 18.5036 13.4753 19.1969 14.28 19.6054L33.3069 29.5831C34.8914 30.4125 35.2381 32.5294 34.0001 33.8168C30.0016 37.9886 26.4116 42.1233 23.7501 45.6885C23.5768 45.8495 23.4159 46.0228 23.2673 46.1837C22.4874 47.0379 21.2619 47.3226 20.1601 46.9636L8.72166 43.4231C8.41218 43.2498 8.06556 43.1879 7.71894 43.2498C7.3228 43.3241 6.97618 43.5469 6.70384 43.8812L3.69567 46.6789C3.69567 46.6789 3.6214 46.7531 3.59664 46.8027C3.21288 47.3474 3.16336 47.7064 3.08909 48.1644C3.01481 48.6719 3.36143 49.0309 3.59664 49.2785C3.65853 49.3404 3.72043 49.3899 3.75757 49.4518C3.83184 49.5509 3.9185 49.6251 4.01753 49.6747L16.5949 56.05C17.2386 56.3842 17.6595 57.0156 17.7214 57.7459C17.7957 58.5382 18.0804 59.3057 18.8108 59.9371C19.2069 60.4446 19.7392 60.8284 20.4077 61.076C21.4599 61.4597 22.3636 62.2025 22.8217 63.23L28.2685 75.1512C28.2685 75.2998 28.3057 75.4731 28.4295 75.6464C28.4666 75.6959 28.5161 75.7454 28.5656 75.7825C28.6028 75.8568 28.6523 75.9311 28.7018 76.0054C28.8875 76.253 29.1598 76.4263 29.4569 76.4758C29.556 76.4882 29.655 76.5005 29.754 76.5005C30.3359 76.5129 30.7196 76.253 31.0044 76.0425L34.3591 73.3191C34.3591 73.3191 34.4334 73.2448 34.4705 73.2077C34.9038 72.6753 34.9781 72.2544 34.78 71.6479L32.0813 60.6056C31.7347 59.1572 32.4032 57.7336 33.7278 57.1146C37.9244 54.4407 42.1705 51.0859 46.0204 47.434C47.4935 46.0351 49.7837 46.5056 50.6255 48.3996L59.1424 67.4142C59.1424 67.4142 59.192 67.5008 59.2167 67.5379L59.5633 68.0084C59.8109 68.3302 60.3308 68.7264 61.0241 68.813C61.1355 68.8254 61.2469 68.8254 61.3707 68.8254C62.1135 68.8006 62.8934 68.4293 63.3143 67.8846L69.0459 62.4872C69.8134 61.9178 69.9867 60.7665 69.8258 59.8257L68.5507 54.5892C68.4764 54.2797 68.5631 53.9455 68.7983 53.7227L69.9248 52.6333C71.2617 51.1354 71.237 48.7462 69.8753 47.1988C69.0335 46.2827 67.8327 45.8742 66.6814 46.0351C66.4091 46.0723 66.1491 45.9237 66.0748 45.6514L65.4559 43.3984C65.2454 42.6185 65.493 41.8014 66.0872 41.2815L66.5081 40.9225C67.2632 40.2293 67.6965 39.2884 67.7089 38.2733C67.7213 37.2087 67.288 36.206 66.5205 35.4632C65.8273 34.7081 64.9483 34.2996 64.0199 34.2501C63.4628 34.2253 62.98 33.8663 62.8315 33.334L62.5715 32.3932C62.3115 31.4524 62.5467 30.4373 63.2152 29.7193C66.5576 26.1045 69.9 22.366 72.4749 18.8874L73.4529 17.4514C75.0127 15.1736 76.362 13.2053 77.2286 11.4103L77.3276 11.1627C77.8351 9.85053 79.0359 6.78047 77.1295 4.77503L77.1543 4.72551ZM14.9732 18.2932C14.5771 18.0827 14.3542 17.798 14.28 17.3524C14.2304 17.0429 14.28 16.882 14.7504 16.362L20.3087 10.9647C20.6553 10.7047 20.94 10.6304 21.1876 10.6304C21.3733 10.6304 21.5342 10.6799 21.6828 10.7418L26.7459 12.2521C27.6124 12.5121 28.5533 12.2892 29.2094 11.6703L30.2245 10.7047C31.2024 9.85053 32.6756 9.92481 33.5916 10.9523C34.2849 11.5341 34.3715 12.673 33.7897 13.5024C33.6535 13.7005 33.6164 13.9357 33.6907 14.1709C33.7649 14.3937 33.9382 14.567 34.1734 14.6413L39.088 16.2259C39.5337 16.3744 40.0288 16.2259 40.3383 15.8916L41.6505 14.4432C42.6161 13.5891 44.0769 13.651 44.931 14.6042C45.5748 15.2974 45.6985 16.2506 45.3148 17.439C45.2529 17.6247 45.2653 17.8352 45.3643 18.0085C45.4633 18.1818 45.6119 18.318 45.7976 18.3675L46.4042 18.5532C47.5307 18.8874 47.8649 20.3234 47.0107 21.1404L40.9202 27.0206L39.4099 28.4813C38.3576 29.4964 36.7731 29.7193 35.4733 29.0384L14.9732 18.2932ZM33.3564 71.9697C33.4059 72.1307 33.4059 72.1678 33.4059 72.1678C33.4059 72.1678 33.4059 72.2049 33.3317 72.2916L30.0883 74.916C30.014 74.9655 29.9645 75.0026 29.915 75.0274C29.8778 74.9531 29.8283 74.8912 29.7664 74.8293C29.7664 74.8046 29.754 74.7922 29.7417 74.7674L23.1807 60.3703C23.0569 60.0856 22.7969 59.9123 22.4627 59.8999C21.2619 59.8999 20.4201 59.6028 19.9744 58.9839C19.9373 58.9344 19.9001 58.8848 19.8506 58.8477C19.5411 58.5877 19.3555 58.2782 19.2688 57.8697C18.9717 56.4337 18.167 55.1587 16.8672 54.4902L4.85932 48.3996C4.85932 48.3996 4.74791 48.2758 4.68601 48.2139C4.66126 48.1891 4.6365 48.1644 4.61174 48.1396C4.64888 47.9539 4.68601 47.8549 4.78505 47.7063L7.79321 44.921C7.79321 44.921 7.86749 44.8467 7.89225 44.7972C7.94176 44.7353 7.96652 44.6982 7.99128 44.7106C8.05318 44.7601 8.12745 44.7848 8.20173 44.8096L22.017 49.1176L29.9397 58.0802L33.344 71.9326L33.3564 71.9697ZM62.9181 35.9089C63.8589 35.5128 64.7874 35.7108 65.493 36.4784C65.9882 36.9611 66.2605 37.5801 66.2481 38.2114C66.2481 38.818 65.9882 39.3751 65.5549 39.7589L63.5371 41.5043C63.5371 41.5043 63.5123 41.591 63.4999 41.6405L65.0597 47.3102C65.1216 47.533 65.2826 47.7187 65.493 47.8054C65.7035 47.892 65.9387 47.8797 66.1367 47.7559C67.0157 47.2359 68.1298 47.4092 68.823 48.1644C69.6648 49.13 69.6772 50.665 68.8973 51.5439L66.8919 53.4999C66.8919 53.4999 66.8671 53.5865 66.8547 53.6236L68.4145 60.0856C68.5012 60.6179 68.3774 61.1255 68.1422 61.3112L62.3239 66.8571C62.3239 66.8571 62.2496 66.9314 62.2249 66.9809C62.1258 67.1294 61.705 67.3646 61.3212 67.3275C61.1107 67.3027 60.8879 67.1542 60.8136 67.0552L60.5042 66.6466L51.3311 46.1961C50.576 44.5249 50.8607 42.5194 52.0615 41.1949L59.4643 33.5321C60.1452 32.8512 61.3088 33.1607 61.5812 34.1015L61.9402 35.3766C62.0021 35.587 62.1382 35.748 62.3239 35.847C62.5096 35.946 62.7324 35.946 62.9305 35.8718L62.9181 35.9089ZM75.9535 10.5933L75.8792 10.7914C75.0869 12.4254 73.7624 14.3442 72.2397 16.5849L71.2865 18.0085C68.4393 21.8584 64.2056 25.956 60.4546 29.9669L48.6324 42.7546C43.9531 47.5454 38.37 52.2743 32.9603 55.79C32.6013 55.951 32.2794 56.1243 31.9699 56.2976C31.3386 56.6442 30.5216 56.4833 30.0264 55.9014L24.79 49.9346C23.9605 49.0186 23.9977 47.5826 24.8519 46.7531L24.889 46.716C28.2809 42.1852 33.0346 36.8126 38.2586 31.6257L50.8112 19.5187C54.6488 16.1763 58.8206 13.4281 63.2524 10.3828C66.5948 8.14219 69.4049 6.6443 70.9894 5.97582C72.6358 5.30734 74.7156 4.4903 76.0773 5.77775C77.3152 7.08995 76.362 9.55343 75.9535 10.6057V10.5933Z" fill="#433F40" style="fill:#433F40;fill:color(display-p3 0.2627 0.2471 0.2510);fill-opacity:1;"/>
</svg>
