<svg width="81" height="80" viewBox="0 0 81 80" fill="none" xmlns="http://www.w3.org/2000/svg">
<path d="M66.1521 50.1949C66.1521 37.7255 46.6773 11.6151 40.9544 4.2149C35.2439 11.6151 15.769 37.7255 15.769 50.1949C15.769 64.5266 26.8324 75.7503 40.9668 75.7503C55.1012 75.7503 66.1645 64.5143 66.1645 50.1949H66.1521Z" fill="#A2D2FD" style="fill:#A2D2FD;fill:color(display-p3 0.6353 0.8235 0.9922);fill-opacity:1;"/>
<path d="M40.9668 76.5024C26.4254 76.5024 15.0291 64.9458 15.0291 50.1947C15.0291 37.5403 34.4299 11.4669 40.3748 3.7707C40.6585 3.41302 41.2628 3.41302 41.5465 3.7707C47.4913 11.4669 66.8922 37.5403 66.8922 50.1947C66.8922 64.9458 55.4959 76.4901 40.9545 76.4901L40.9668 76.5024ZM44.3216 9.91287C42.6565 7.64348 39.2771 7.64348 37.5997 9.91287C29.7678 20.5568 16.5091 40.0687 16.5091 50.1947C16.5091 64.1194 27.2517 75.0101 40.9668 75.0101C54.6819 75.0101 65.4245 64.1071 65.4245 50.1947C65.4245 40.0564 52.1658 20.5568 44.3339 9.90054L44.3216 9.91287Z" fill="#222A42" style="fill:#222A42;fill:color(display-p3 0.1333 0.1647 0.2588);fill-opacity:1;"/>
</svg>
