<?xml version="1.0" encoding="UTF-8"?><svg id="Vecto" xmlns="http://www.w3.org/2000/svg" viewBox="0 0 90.56 59.2"><defs><style>.cls-1{fill:#9e8ef5;}.cls-2{fill:#d7d8d8;}.cls-3{fill:#fff;}.cls-4{fill:#433f40;}</style></defs><circle class="cls-3" cx="74.55" cy="43.19" r="15.41"/><path class="cls-4" d="M76.64,59.07c-10.46,1.33-19.29-7.51-17.96-17.96.91-7.13,6.66-12.88,13.79-13.79,10.46-1.33,19.29,7.51,17.96,17.96-.91,7.13-6.66,12.88-13.79,13.79ZM76.49,28.51c-6.63-1.96-17.85,6.94-16.62,16.62.84,6.59,6.16,11.92,12.76,12.75,9.67,1.23,16.73-7.08,16.61-16.61-.08-6.65-6.38-10.87-12.75-12.76Z"/><circle class="cls-3" cx="16.01" cy="43.19" r="15.41"/><path class="cls-4" d="M18.09,59.07C7.64,60.4-1.2,51.56.13,41.11c.91-7.13,6.66-12.88,13.79-13.79,10.46-1.33,19.29,7.5,17.96,17.96-.91,7.13-6.66,12.88-13.79,13.79ZM17.92,28.99C8.25,27.77.09,35.45,1.32,45.12c.84,6.59,6.06,11.72,12.76,12.76,9.66,1.49,17.84-6.94,16.61-16.61-.84-6.59-6.18-11.43-12.77-12.27Z"/><path class="cls-1" d="M54.85,2.13c-.84-1.55-3.32-1.64-4.12.72-.08.25-.04.52.08.75l6.11,11.34c.36.67-.12,1.47-.88,1.47h-27.67c-.55,0-1-.45-1-1v-6.73c0-.26-.09-.52-.28-.7-1.82-1.71-3.97-.45-3.97,1.31v6.93c0,1.28-.23,2.55-.68,3.74l-8.43,22.48c-.24.65-.15,1.38.24,1.96.4.57,1.05.91,1.75.91h25.27c.26,0,.52-.09.7-.28,1.71-1.82.45-3.97-1.31-3.97h-20.14c-.7,0-1.18-.7-.94-1.35l5.8-15.48c.27-.71,1.2-.88,1.7-.3l15.38,17.95c.19.22.47.35.76.35h6.68c.76,0,1.46-.41,1.84-1.07l8.45-14.79c.98-1.72,1.97-1.71,2.34-1.02l10.14,18.84c.38.71,1.12,1.12,1.87,1.12.34,0,.68-.08,1.01-.25,1.03-.56,1.42-1.84.86-2.88L54.85,2.13ZM48.09,37.99h-2.91c-.29,0-.57-.13-.76-.35l-13.13-15.32c-.56-.65-.1-1.65.76-1.65h24.8c.77,0,1.25.83.87,1.5l-8.75,15.32c-.18.31-.51.5-.87.5Z"/><path class="cls-4" d="M58.57,20.07h-28.69c-.23,0-.45.14-.54.35s-.06.46.09.64l14.72,17.18c.19.22.47.35.76.35h3.54c.36,0,.69-.19.87-.5l9.78-17.12c.11-.19.11-.41,0-.6-.11-.19-.3-.3-.52-.3ZM47.74,37.39h-2.29c-.29,0-.57-.13-.76-.35l-12.1-14.12c-.56-.65-.1-1.65.76-1.65h20.85c1.49,0,2.42,1.61,1.68,2.9l-7.27,12.72c-.18.31-.51.5-.87.5Z"/><path class="cls-4" d="M76.95,41.9L55.38,1.84c-1.08-2.01-4.34-2.11-5.32,1.03-.08.25-.04.52.09.75l5.51,10.23c.48.89-1.47,1.95-2.48,1.95l-23.3-.32c-1.02,0-1.91-.49-1.91-1.5v-5.58c0-.26-.09-.51-.27-.7-2.34-2.34-5.18-.7-5.18,1.59v8.57c0,.12-.65,1.23-.7,1.34l-8.38,23.03c-.31.84-.2,1.78.31,2.51.51.73,1.34,1.17,2.24,1.17l25.51.26c.26,0,.64-.35.82-.54.81-.85,1.15-1.91,1.02-2.83.13.02.25.03.38.03h7.16c.36,0,.69-.19.87-.5l9-15.76c.39-.68,1.38-.67,1.75.02l9.63,17.89c.48.88,1.4,1.43,2.4,1.43.45,0,.89-.11,1.29-.33,1.32-.71,1.82-2.37,1.11-3.69ZM75.28,44.53c-.73.39-1.68.1-2.07-.62l-11-20.42c-.1-.19-.3-.31-.52-.32h0c-.21,0-.41.12-.52.3l-9.94,17.39c-.27.47-.78.77-1.32.77h-6.16c-.45,0-.87-.19-1.16-.53l-16.15-18.84c-.14-.16-.34-.24-.56-.2-.21.04-.38.18-.46.38l-6.91,18.41c-.07.18-.04.39.07.55s.3.26.49.26h21.9c.26,0,.53.09.7.29,1.12,1.28.22,2.76-1.02,2.76h-24.65c-.5,0-.97-.25-1.25-.66-.29-.41-.35-.94-.18-1.4l9.08-24.22.06-.35v-9.1c0-.26.09-.53.29-.7,1.28-1.12,2.76-.22,2.76,1.01v6.72c0,.55.45,1,1,1h29.95c.21,0,.41-.11.51-.29.11-.18.11-.41.01-.59l-6.75-12.54c-.15-.28-.16-.62-.03-.91.65-1.44,2.29-1.33,2.86-.27l21.57,40.06c.4.74.12,1.67-.62,2.07ZM38.28,40.47h-15.07c-1.58,0-2.68-1.58-2.12-3.06l4.5-12c.27-.71,1.2-.88,1.7-.3l11.76,13.72c.56.65.1,1.65-.76,1.65Z"/><circle class="cls-2" cx="46.82" cy="43.19" r="6.16"/><path class="cls-4" d="M48.15,49.83c-4.76.91-8.87-3.2-7.96-7.96.51-2.66,2.65-4.8,5.31-5.31,4.76-.91,8.87,3.2,7.96,7.96-.51,2.66-2.65,4.8-5.31,5.31ZM48.22,37.53c-4.05-.91-7.73,2.89-6.82,6.94.46,2.04,2.05,3.57,4.1,4.03,4.05.91,7.31-2.59,6.4-6.64-.46-2.04-1.63-3.87-3.68-4.33Z"/><circle class="cls-2" cx="16.01" cy="43.19" r="3.08"/><path class="cls-4" d="M16.73,46.8c-2.59.5-4.83-1.74-4.33-4.33.27-1.44,1.45-2.62,2.89-2.89,2.59-.49,4.83,1.75,4.33,4.33-.28,1.44-1.45,2.62-2.89,2.89ZM16.61,41.03c-1.84-.45-3.47,1.18-3.02,3.02.21.87.92,1.58,1.79,1.79,1.84.45,3.47-1.18,3.03-3.03-.21-.87-.92-1.58-1.79-1.79Z"/><circle class="cls-2" cx="74.55" cy="43.19" r="3.08"/><path class="cls-4" d="M75.28,46.8c-2.59.5-4.83-1.74-4.33-4.33.27-1.44,1.45-2.62,2.89-2.89,2.59-.49,4.83,1.75,4.33,4.33-.28,1.44-1.45,2.62-2.89,2.89ZM75.17,40.79c-1.84-.45-3.47,1.18-3.02,3.02.21.87.92,1.58,1.79,1.79,1.84.45,3.47-1.18,3.03-3.03-.21-.87-.92-1.58-1.79-1.79Z"/><path class="cls-2" d="M33.59,11.78l-15.85.59c-2.08.08-3.59-1.54-3.38-3.61v-.07c.22-2.07,2.07-3.58,4.15-3.37l15.55,1.59c2.07.21,3.65,1.35,3.52,2.55-.12,1.2-1.9,2.24-3.98,2.31Z"/><path class="cls-4" d="M17.59,12.98c-1.11,0-2.11-.42-2.83-1.19-.76-.81-1.11-1.91-.99-3.09.25-2.46,2.41-4.22,4.8-3.97l15.55,1.59c1.5.15,2.82.76,3.53,1.62.4.49.58,1.04.53,1.59-.15,1.51-2.16,2.77-4.55,2.85l-15.85.59c-.06,0-.12,0-.17,0ZM18.12,5.91c-1.61,0-2.99,1.22-3.16,2.85-.09.89.15,1.66.67,2.21.52.55,1.26.84,2.08.81l15.86-.59h0c1.91-.07,3.32-.99,3.4-1.78.02-.23-.07-.46-.26-.71-.5-.62-1.5-.75-2.68-.87l-15.59-1.9c-.11-.01-.22-.02-.32-.02Z"/><path class="cls-2" d="M51.46,5.17c-.99-.35-1.66-1.35-1.55-2.45.12-1.29,1.27-2.24,2.57-2.11l9.27.91c1.27.13,2.24,1.27,2.11,2.57-.13,1.3-1.28,2.24-2.57,2.11l-9.27-.91c-.2-.02-.38-.07-.56-.13Z"/><path class="cls-4" d="M61.53,6.82c-.1,0-.2,0-.3-.02l-9.27-.91c-.24-.03-.47-.08-.7-.16l-1.11-1.11c-.69-.69-1.01-1.72-.69-2.64.17-.5.48-.95.91-1.3.61-.5,1.38-.74,2.17-.67l9.16.9c.51.05,1.01.18,1.43.47.95.65,1.43,1.69,1.32,2.76-.16,1.53-1.44,2.67-2.93,2.67ZM51.67,4.6c.14.05.28.08.43.1l8.05.74c1.76.4,3.03-.44,3.13-1.41.05-.46-.09-.92-.4-1.28-.3-.36-3.1-.7-3.56-.75l-6.89-.8c-.47-.04-.93.1-1.29.4-.36.3-.58.71-.62,1.17-.08.81.39,1.55,1.15,1.82Z"/></svg>