<?xml version="1.0" encoding="UTF-8"?><svg id="Vecto" xmlns="http://www.w3.org/2000/svg" viewBox="0 0 58.97 59.45"><defs><style>.cls-1{fill:#f9cd49;}.cls-2{fill:#433f40;}</style></defs><path class="cls-1" d="M33.32,9.21s.04,0,.12,0c1.6.14,2.3,2.11,1.21,3.28l-5.67,5.21c-.37.4-.89.63-1.44.63h-6.26l.6-.87-.57.62c-.34.36-.52.84-.52,1.33v15.76s2.31-1.92,7.45-1.92c3.19,0,6.46.97,6.46.97l.58-1.4c4.82-12.49,13.87-10.86,15.72-10.23,7.12,2.39,7.48,10.8,7.48,16.1h0c0,7.63-4.44,14.67-11.48,17.63-16.89,7.11-36.18-2.15-43.49-6.32-1.87-1.07-3.01-3.06-3.01-5.21H.5c0-5.22.91-10.4,2.68-15.31C10.71,8.58,17.71,2.6,19.65,1.27c.32-.22.7-.33,1.09-.33h5.33c.44,0,.87.15,1.22.42l6.01,4.76c.9.71,1,2.03.22,2.87l-5.29,4.57c-.78.84-2.1.84-2.88,0l-1.15-1.25c-.7-.75-.7-1.91,0-2.67l1.5-1.62"/><path class="cls-2" d="M51.15,22.14c-.44-.15-10.94-3.49-16.34,10.52l-.41.99c-.58-.15-1.71-.42-3.05-.62-1.76-.3-3.7-.4-5.68-.08-.8.11-1.5.26-2.1.43-1.15.33-2.29-.58-2.29-1.77v-12.17c0-.2.04-.4.12-.58h6.14c.68,0,1.34-.29,1.78-.76l5.7-5.24c.65-.7.83-1.69.49-2.58-.24-.63-.71-1.11-1.3-1.36.25-.43.37-.93.33-1.43-.05-.68-.39-1.32-.93-1.74l-5.38-4.26c-.84-.66-1.85-1.31-2.92-1.31l-1.79-.13c-.62-.05-1.25,0-1.86.13-.9.21-2.02.53-2.27.7-2,1.37-9.1,7.45-16.66,28.48-1.8,5-2.71,10.2-2.71,15.47,0,2.33,1.25,4.5,3.27,5.65,5.54,3.16,17.49,8.99,30.2,8.99,4.56,0,9.22-.75,13.72-2.64,7.16-3.01,11.78-10.11,11.78-18.09,0-4.17,0-13.95-7.82-16.58ZM46.8,55.88c-2.82,1.27-5.93,2-9.01,2.32-11.14,1.16-22.31-2.42-32.25-7.59-1.15-.6-2.32-1.24-3.15-2.24-.72-.86-1.14-1.91-1.32-3.01s-.15-2.31-.02-3.46c.07-.59.16-1.16.25-1.75.04-.23.03-.45,0-.69-.03-.26,0-.5.05-.75.27-1.3.56-2.6.89-3.88s.68-2.57,1.07-3.84.8-2.53,1.24-3.79.91-2.49,1.41-3.73,1.03-2.45,1.58-3.66,1.14-2.4,1.75-3.58,1.25-2.35,1.91-3.5c.08-.14.16-.28.24-.41,1.83-3.14,3.89-6.19,6.52-8.7.63-.61,1.31-1.18,2.08-1.59,2.13-1.14,4.8-.88,7,.12s4.03,2.66,5.77,4.34c.27.26.56.54.64.91.17.7-.43,1.33-.97,1.8-1.31,1.15-2.61,2.29-3.92,3.44-.44.38-.9.78-1.47.89-1.02.19-2.02-.69-2.24-1.7s.2-2.07.81-2.91c.31-.43.62-1.17.12-1.38-.34-.15-.69.18-.89.49-.86,1.29-1.35,2.92-.87,4.39s2.13,2.59,3.6,2.09c.63-.21,1.15-.68,1.64-1.13.97-.89,1.94-1.78,2.9-2.67.59-.54,1.46-1.11,2.12-.65.85.6.11,1.92-.64,2.64-1.05,1-2.1,2-3.15,3-.57.54-1.15,1.09-1.83,1.48-1.87,1.07-4.18.83-6.32.54.16-.34-.26-.73-.63-.67s-.64.39-.82.72c-.65,1.2-.66,2.64-.65,4,.02,2.94.04,5.88.06,8.82,0,1.25.01,2.54-.45,3.7-1.02,2.58-4.07,3.96-5.02,6.57-.04.11-.07.22-.06.34.04.34.53.47.83.3s.46-.51.62-.82c1.87-3.73,5.83-6.18,9.96-6.76s8.39.57,12.01,2.64c.46.26,1.24.41,1.34-.11.07-.36-.32-.62-.65-.78-.92-.42-1.84-.85-2.77-1.27-.23-.1-.48-.24-.55-.48-.05-.17,0-.36.06-.53,1.25-3.73,3.52-7.26,6.92-9.23s8.03-2.07,11.08.42c2.45,2,3.52,5.25,4.02,8.38,1,6.26.03,13.13-4.07,17.96-1.84,2.17-4.18,3.79-6.77,4.95Z"/></svg>