<?xml version="1.0" encoding="UTF-8"?><svg id="Vecto" xmlns="http://www.w3.org/2000/svg" viewBox="0 0 59.17 42.66"><defs><style>.cls-1{fill:none;}.cls-2{fill:#fff;}.cls-3{fill:#fda354;}.cls-4{fill:#433f40;}</style></defs><path class="cls-2" d="M18.52,38.52s-4.36,2.75-8.99,3.41c-5.82.83-10.33-4.97-8.52-10.85C3.04,24.47,10.56,14.46,35.31,5.15c4.07-1.53,8.53-1.69,12.63-.26,2.97,1.04,6.05,2.99,8.26,6.58,3.11,5.06,3.09,11.61.19,16.81-1.87,3.35-5.07,7.19-10.56,10.52-2.61,1.58-5.71,2-8.64,1.24-5.39-1.4-11.07-6.86-18.67-1.53Z"/><path class="cls-3" d="M18.54,33.36s-4.72,2.83-9.56,3.31c-5.45.54-9.64-4.78-8.08-10.03C2.76,20.37,10.08,10.67,35.25,1.66,39.35.19,43.85,0,47.98,1.38c3.11,1.04,6.35,3.02,8.58,6.76,2.72,4.57,2.74,10.32.18,14.97-1.82,3.3-5.07,7.18-10.87,10.52-2.61,1.51-5.72,1.9-8.65,1.18-5.4-1.33-11.09-6.52-18.68-1.45Z"/><path class="cls-1" d="M46.17,34.26c-2.73,1.57-5.96,2.01-9.09,1.24-1.41-.35-2.8-.93-4.26-1.55-4.19-1.77-8.53-3.59-13.94.01,0,0-.02.01-.02.02-.18.11-4.53,2.69-9.22,3.33-.39.05-.78.08-1.17.08-2.5,0-4.85-1.08-6.47-3.01-.29-.35-.54-.72-.77-1.1-.12,2.06.53,4.07,1.87,5.63,1.62,1.89,3.93,2.78,6.36,2.43,4.34-.62,8.5-3.17,8.74-3.32,5.94-4.16,10.79-2.01,15.07-.12,1.42.63,2.76,1.22,4.08,1.57,2.82.73,5.73.31,8.18-1.17,4.62-2.8,8.1-6.27,10.35-10.3.95-1.71,1.57-3.56,1.87-5.45-.23.51-.48,1.01-.77,1.5-2.36,4.01-5.99,7.45-10.79,10.22Z"/><path class="cls-1" d="M47.74,5.46c-1.81-.64-3.73-.95-5.67-.95-2.19,0-4.41.4-6.54,1.21C11.16,14.87,3.62,24.64,1.59,31.23c.28.85.72,1.66,1.32,2.37,1.6,1.91,4.05,2.86,6.56,2.51,4.34-.58,8.51-3.01,8.76-3.16,5.94-3.95,10.79-1.91,15.06-.11,1.42.6,2.77,1.17,4.09,1.49,2.83.7,5.75.3,8.2-1.12,4.62-2.66,8.1-5.96,10.35-9.79.99-1.68,1.61-3.51,1.89-5.37-.26-2.22-.96-4.37-2.13-6.27-1.84-3-4.52-5.13-7.95-6.33Z"/><path class="cls-1" d="M35.1,4.59c4.29-1.61,8.92-1.71,13.04-.26,3.7,1.3,6.58,3.6,8.57,6.84.39.64.74,1.31,1.04,1.99-.33-1.8-.99-3.53-1.99-5.08-1.84-2.85-4.52-4.87-7.96-6.02-1.82-.61-3.74-.91-5.69-.91-2.2,0-4.42.38-6.56,1.15C11.14,11.02,3.6,20.31,1.58,26.57c-.24.74-.35,1.49-.36,2.23,2.98-6.72,11.45-15.79,33.87-24.22Z"/><path class="cls-4" d="M56.74,7.47c-2-3.08-4.88-5.27-8.58-6.5-4.12-1.37-8.75-1.28-13.03.25C10.26,10.1,2.53,19.74.42,26.25c-.39,1.2-.5,2.44-.37,3.64.11.94.12,1.89.01,2.83-.29,2.54.44,5.07,2.1,7.01,1.62,1.9,3.85,2.93,6.24,2.93.4,0,.8-.03,1.2-.09,4.7-.67,9.04-3.38,9.22-3.5,0,0,.02,0,.02-.02,5.39-3.79,9.72-1.87,13.91-.01,1.47.65,2.85,1.27,4.26,1.63,3.14.81,6.37.35,9.1-1.31,4.79-2.91,8.42-6.52,10.77-10.74,1.62-2.9,2.34-6.19,2.2-9.41-.03-.71-.02-1.43.03-2.14.25-3.36-.54-6.76-2.38-9.6ZM1.57,26.62C3.59,20.36,15.29,9.26,35.53,2.69c2.16-.7,4.37-1.15,6.56-1.15,1.95,0,3.87.3,5.69.91,3.44,1.15,6.11,2.83,7.96,5.68,1,1.55,1.66,3.28,1.99,5.08.3,1.61.32,3.27.07,4.9-.28,1.86-.91,3.69-1.89,5.37-2.25,3.83-5.87,6.55-10.49,9.21-2.46,1.42-5.24,2.39-8.07,1.69-1.32-.32-2.66-.89-4.09-1.49-4.28-1.8-9.12-3.84-15.06.11-.24.14-4.47,2.29-8.81,2.88-2.51.34-4.9-.32-6.5-2.23-.59-.71-1.03-1.52-1.32-2.37-.26-.78-.38-1.6-.36-2.43.01-.74.12-1.5.36-2.23ZM55.85,28.04c-2.25,4.03-5.73,7.5-10.35,10.3-2.45,1.49-5.36,1.9-8.18,1.17-1.32-.34-2.66-.94-4.08-1.57-4.28-1.9-9.13-4.05-15.07.12-.25.15-4.35,2.31-8.69,2.92-2.43.34-4.8-.15-6.42-2.04-1.34-1.57-2.43-5.55-1.87-5.63.26-.04.64.89.93,1.24,1.61,1.93,3.81,2.87,6.31,2.87.39,0,.78-.03,1.17-.08,4.7-.63,9.04-3.22,9.22-3.33,0,0,.02,0,.02-.02,5.41-3.61,9.75-1.78,13.94-.01,1.47.62,2.85,1.2,4.26,1.55,3.14.77,6.36.33,9.09-1.24,4.8-2.77,8.43-6.21,10.79-10.22.29-.49.62-1.46.77-1.5,1.1-.31-.91,3.75-1.87,5.45Z"/><ellipse class="cls-2" cx="45.77" cy="11.94" rx="5.7" ry="3.8"/><path class="cls-4" d="M45.77,16.34c-3.53,0-6.3-1.93-6.3-4.4s2.77-4.4,6.3-4.4,6.3,1.97,6.3,4.4-2.77,4.4-6.3,4.4ZM45.77,8.74c-2.76,0-4.76,1.43-4.76,3.17s1.99,3.23,4.76,3.23,4.93-.99,4.93-2.73-2.16-3.67-4.93-3.67Z"/><path class="cls-4" d="M6.41,24.19c-.09,0-.18-.02-.27-.06-.29-.15-.42-.51-.27-.8.12-.25,3.11-6.06,11.95-9,.31-.1.65.06.76.38.1.31-.07.63-.38.76-7.12,2.92-11.22,8.34-11.25,8.4-.11.21-.32.33-.54.33Z"/></svg>