<svg width="41" height="42" viewBox="0 0 41 42" fill="none" xmlns="http://www.w3.org/2000/svg">
<path d="M19.9301 33.3275L29.8666 23.1426C29.8666 23.0372 29.8769 22.9214 29.8769 22.8161C29.8769 22.3316 29.846 21.8681 29.7844 21.4258C29.62 21.4521 29.4658 21.3362 29.435 21.1677C29.0291 18.7558 27.6779 16.9863 25.2939 15.7698C24.698 15.4644 23.434 15.2958 21.7334 15.2958C20.7367 15.2958 19.853 15.3854 19.1388 15.4538C18.6148 15.5065 18.1626 15.5486 17.7876 15.5486C17.4125 15.5486 16.9604 15.5065 16.4363 15.4538C15.7222 15.3854 14.8385 15.2958 13.8417 15.2958C12.1411 15.2958 10.8721 15.4644 10.2812 15.7698C7.4092 17.2444 6.01172 19.5457 6.01172 22.8161C6.01172 26.8079 8.69366 33.2169 12.023 35.1812C12.8142 35.6499 13.6157 35.8974 14.335 35.8974C15.157 35.8974 15.8866 35.7342 16.5288 35.592C17.0118 35.4867 17.4279 35.3919 17.7876 35.3919C18.1472 35.3919 18.5634 35.4867 19.0464 35.592C19.37 35.6657 19.7348 35.7447 20.1202 35.8079C20.2846 35.8342 20.3976 35.987 20.377 36.1608C20.6545 36.1924 20.9371 36.2187 21.2351 36.2187C21.7951 36.2187 22.3757 36.0765 22.9408 35.8343C21.8413 35.3761 20.8086 34.6915 19.9198 33.7751C19.8016 33.654 19.8016 33.4539 19.9198 33.3275H19.9301ZM13.9651 18.0817C12.1771 18.0817 11.6119 18.2976 11.6068 18.3029C9.6647 19.2982 8.86321 20.62 8.86321 22.8529C8.86321 23.0267 8.72448 23.1689 8.55494 23.1689C8.38539 23.1689 8.24667 23.0267 8.24667 22.8529C8.24667 20.4094 9.20744 18.8295 11.355 17.7236C11.4886 17.6709 12.1206 17.4497 13.9702 17.4497C14.1397 17.4497 14.2785 17.5919 14.2785 17.7657C14.2785 17.9395 14.1397 18.0817 13.9702 18.0817H13.9651Z" fill="#FDA354" style="fill:#FDA354;fill:color(display-p3 0.9922 0.6392 0.3294);fill-opacity:1;"/>
<path d="M15.7125 10.7723L14.3304 9.16608C13.981 8.76057 13.7858 8.23395 13.7858 7.69152C13.7858 7.26496 13.6214 6.86472 13.3285 6.55928L13.0665 6.2907C13.0082 6.23101 12.9397 6.20117 12.861 6.20117C12.7531 6.20117 12.7017 6.2433 12.5065 6.44342L10.9754 8.01277C10.9754 8.01277 10.9548 8.06016 10.9548 8.07596C10.9548 8.09176 10.9651 8.11282 10.9908 8.12862C14.4177 10.0982 15.584 13.2843 15.9539 14.7799C16.144 14.7957 16.329 14.8168 16.5037 14.8326C16.591 14.8431 16.6681 14.8484 16.7503 14.8589V13.4897C16.7503 13.0157 16.8119 12.5417 16.9147 12.0889C16.6784 11.6518 16.4163 11.2252 16.1389 10.8197C16.0104 10.9197 15.8255 10.9092 15.7176 10.7828L15.7125 10.7723Z" fill="#95CD87" style="fill:#95CD87;fill:color(display-p3 0.5843 0.8039 0.5294);fill-opacity:1;"/>
<path d="M17.7925 14.922C18.1368 14.922 18.5786 14.8799 19.0873 14.8272C19.4932 14.7851 19.9658 14.7429 20.4745 14.7114C21.2914 14.4744 22.0518 14.0373 22.6735 13.4474C23.7627 12.41 24.3895 10.9354 24.3895 9.40823V7.96527H22.7351C21.3736 7.96527 20.0737 8.48663 19.077 9.43982C17.9878 10.4773 17.361 11.9518 17.361 13.479V14.9009C17.5151 14.9115 17.6641 14.9167 17.7925 14.9167V14.922Z" fill="#95CD87" style="fill:#95CD87;fill:color(display-p3 0.5843 0.8039 0.5294);fill-opacity:1;"/>
<path d="M20.1256 35.808C19.7403 35.7501 19.3755 35.6658 19.0518 35.5921C18.5689 35.4868 18.1527 35.392 17.793 35.392C17.4334 35.392 17.0172 35.4868 16.5343 35.5921C15.8921 35.7343 15.1676 35.8975 14.3404 35.8975C13.6211 35.8975 12.8196 35.65 12.0284 35.1813C8.69911 33.217 6.01717 26.808 6.01717 22.8161C6.01717 19.5458 7.41466 17.2392 10.2867 15.7699C10.8827 15.4644 12.1466 15.2959 13.8472 15.2959C14.8439 15.2959 15.7276 15.3854 16.4418 15.4539C16.9659 15.5066 17.418 15.5487 17.793 15.5487C18.1681 15.5487 18.6202 15.5066 19.1443 15.4539C19.8584 15.3854 20.7421 15.2959 21.7389 15.2959C23.4395 15.2959 24.7085 15.4644 25.2994 15.7699C27.6782 16.9916 29.0346 18.7558 29.4405 21.1678C29.4662 21.3363 29.6254 21.4522 29.7898 21.4258C29.7898 21.4258 29.795 21.4258 29.8001 21.4258C29.9697 21.3942 30.0827 21.231 30.0519 21.0625C29.61 18.4346 28.1457 16.5177 25.582 15.2064C24.7907 14.8009 23.3111 14.6903 22.0934 14.6692C22.453 14.448 22.7921 14.2005 23.0953 13.9056C24.3129 12.747 25.0117 11.1092 25.0117 9.40296V7.74936C25.0117 7.51764 24.8319 7.33332 24.6058 7.33332H22.7459C21.2302 7.33332 19.7814 7.91788 18.6665 8.9764C17.7879 9.80847 17.1868 10.8986 16.9145 12.073C16.8117 12.5311 16.7501 12.9998 16.7501 13.4738V14.5902C16.6524 14.6798 16.6011 14.7272 16.5035 14.8219C16.5035 14.8219 16.4983 14.8219 16.4932 14.8219C16.1798 14.7903 15.9075 14.5744 15.8098 14.2637C15.3166 12.6364 14.0681 9.88746 10.9906 8.118C10.9649 8.1022 10.9598 8.08113 10.9546 8.06533C10.9546 8.04953 10.9546 8.02847 10.9752 8.00214L12.5062 6.43279C12.7015 6.22741 12.7528 6.19054 12.8607 6.19054C12.9395 6.19054 13.008 6.22039 13.0663 6.28007L13.2666 6.48546C13.58 6.8067 13.7804 7.23326 13.7855 7.69143C13.7855 8.23385 13.9808 8.74995 14.3302 9.15545L15.7122 10.7617C15.8201 10.888 16.0051 10.8986 16.1335 10.7985C16.1335 10.7985 16.1438 10.7985 16.1489 10.788C16.2774 10.6721 16.2877 10.472 16.1746 10.3404L14.8594 8.81314C14.5819 8.4919 14.4072 8.08113 14.4021 7.65457C14.3969 7.06474 14.1709 6.51705 13.765 6.10102L13.503 5.83244C13.3488 5.67445 13.2101 5.55859 12.8607 5.55859C12.4857 5.55859 12.2853 5.76398 12.0695 5.98516L10.5384 7.55451C10.3843 7.71249 10.3124 7.92841 10.3432 8.14959C10.374 8.37078 10.4973 8.5551 10.6874 8.66569C12.9224 9.94539 14.1298 11.778 14.7771 13.2526C15.07 13.9214 14.5768 14.664 13.8626 14.6587C13.8575 14.6587 13.8523 14.6587 13.8472 14.6587C12.5782 14.6587 10.8775 14.7535 10.0093 15.1959C6.90601 16.7968 5.40063 19.2877 5.40063 22.8214C5.40063 27.066 8.15964 33.633 11.7201 35.7343C12.609 36.2556 13.5132 36.5347 14.3404 36.5347C15.2293 36.5347 16.0256 36.3557 16.6627 36.2135C17.1097 36.1134 17.4951 36.0292 17.793 36.0292C18.091 36.0292 18.4764 36.1134 18.9234 36.2135C19.2573 36.2872 19.6324 36.3715 20.0383 36.4347C20.2027 36.4557 20.362 36.3399 20.3876 36.1714C20.3876 36.1714 20.3876 36.1661 20.3876 36.1608C20.4082 35.9923 20.2952 35.8343 20.1307 35.808H20.1256ZM18.4764 10.1192C19.5194 8.74468 21.0812 7.97054 22.7356 7.97054H24.2924C24.3489 7.97054 24.39 8.01794 24.39 8.0706V9.40823C24.39 10.9354 23.7632 12.41 22.674 13.4475C22.0574 14.0373 21.3022 14.4691 20.4904 14.7061C20.4801 14.7061 20.475 14.7061 20.4647 14.7061C19.9612 14.7377 19.4937 14.7798 19.0878 14.8219C18.5791 14.8693 18.1373 14.9167 17.793 14.9167C17.6646 14.9167 17.5156 14.9115 17.3615 14.9009V13.6686C17.3615 12.3942 17.716 11.1198 18.4764 10.1139V10.1192Z" fill="#433F40" style="fill:#433F40;fill:color(display-p3 0.2627 0.2471 0.2510);fill-opacity:1;"/>
<path d="M13.9657 17.4498C12.1161 17.4498 11.4841 17.671 11.3506 17.7236C9.20296 18.8243 8.24219 20.4094 8.24219 22.853C8.24219 23.0267 8.38091 23.1689 8.55046 23.1689C8.72 23.1689 8.85873 23.0267 8.85873 22.853C8.85873 20.6201 9.66022 19.2982 11.6023 18.3029C11.6075 18.3029 12.1726 18.0817 13.9606 18.0817C14.1301 18.0817 14.2688 17.9395 14.2688 17.7657C14.2688 17.592 14.1301 17.4498 13.9606 17.4498H13.9657Z" fill="#433F40" style="fill:#433F40;fill:color(display-p3 0.2627 0.2471 0.2510);fill-opacity:1;"/>
<path d="M32.698 21.1361L20.5881 33.5487C23.9431 36.7506 29.2197 36.6769 32.4873 33.3275C35.755 29.9782 35.8269 24.5697 32.7031 21.1309L32.698 21.1361ZM27.1645 33.5013C26.3168 33.5013 25.6232 32.7904 25.6232 31.9214C25.6232 31.4053 26.0137 30.5785 26.1832 30.252C26.7792 29.0829 27.0412 29.0829 27.1645 29.0829C27.2878 29.0829 27.5499 29.0829 28.1459 30.252C28.3154 30.5838 28.7059 31.4053 28.7059 31.9214C28.7059 32.7904 28.0174 33.5013 27.1645 33.5013ZM31.1104 29.4568C30.6069 29.4568 29.8002 29.0566 29.4817 28.8828C28.3411 28.2719 28.3411 28.0033 28.3411 27.8769C28.3411 27.7505 28.3411 27.482 29.4817 26.8711C29.8054 26.6973 30.6069 26.2971 31.1104 26.2971C31.9581 26.2971 32.6517 27.008 32.6517 27.8769C32.6517 28.7459 31.9581 29.4568 31.1104 29.4568Z" fill="white" style="fill:white;fill-opacity:1;"/>
<path d="M32.9188 20.4621C32.8058 20.3409 32.6003 20.3409 32.4821 20.4621L29.8618 23.1479L19.9253 33.3328C19.8071 33.4539 19.8071 33.654 19.9253 33.7804C20.8193 34.6968 21.8468 35.3814 22.9463 35.8395C24.0561 36.303 25.2378 36.5347 26.4195 36.5347C28.7726 36.5347 31.1257 35.6184 32.9137 33.7804C36.4948 30.1098 36.4948 24.1379 32.9137 20.4621H32.9188ZM21.7441 32.3638L31.8707 21.984C32.3383 21.5048 33.1141 21.589 33.4891 22.1473C35.7806 25.5651 35.4466 30.2942 32.4821 33.3328C29.6563 36.2292 25.3251 36.6769 22.0369 34.6704C21.2303 34.1807 21.0762 33.0484 21.7389 32.3691L21.7441 32.3638Z" fill="#433F40" style="fill:#433F40;fill:color(display-p3 0.2627 0.2471 0.2510);fill-opacity:1;"/>
<path d="M27.1648 29.8043C26.8514 30.2204 26.2399 31.4319 26.2399 31.9217C26.2399 32.4432 26.6561 32.8698 27.1648 32.8698C27.6736 32.8698 28.0898 32.4432 28.0898 31.9217C28.0898 31.4371 27.4783 30.2204 27.1648 29.8043Z" fill="#A2D2FD" style="fill:#A2D2FD;fill:color(display-p3 0.6353 0.8235 0.9922);fill-opacity:1;"/>
<path d="M27.165 29.0776C27.0417 29.0776 26.7796 29.0776 26.1835 30.2469C26.014 30.5788 25.6234 31.4005 25.6234 31.9166C25.6234 32.7857 26.3171 33.4968 27.165 33.4968C28.0129 33.4968 28.7066 32.7857 28.7066 31.9166C28.7066 31.4005 28.3161 30.5735 28.1465 30.2469C27.5504 29.0776 27.2883 29.0776 27.165 29.0776ZM27.165 32.87C26.6563 32.87 26.2401 32.4434 26.2401 31.9219C26.2401 31.4321 26.8516 30.2206 27.165 29.8045C27.4785 30.2206 28.09 31.4321 28.09 31.9219C28.09 32.4434 27.6737 32.87 27.165 32.87Z" fill="#433F40" style="fill:#433F40;fill:color(display-p3 0.2627 0.2471 0.2510);fill-opacity:1;"/>
<path d="M31.1109 26.9291C30.6382 26.9291 29.4511 27.5559 29.0452 27.8772C29.4511 28.1985 30.633 28.8253 31.1109 28.8253C31.6196 28.8253 32.0359 28.3986 32.0359 27.8772C32.0359 27.3557 31.6196 26.9291 31.1109 26.9291Z" fill="#A2D2FD" style="fill:#A2D2FD;fill:color(display-p3 0.6353 0.8235 0.9922);fill-opacity:1;"/>
<path d="M31.1108 26.297C30.6072 26.297 29.8005 26.6973 29.4819 26.8711C28.3411 27.4821 28.3411 27.7507 28.3411 27.8771C28.3411 28.0036 28.3411 28.2722 29.4819 28.8832C29.8056 29.057 30.6072 29.4573 31.1108 29.4573C31.9587 29.4573 32.6524 28.7462 32.6524 27.8771C32.6524 27.0081 31.9587 26.297 31.1108 26.297ZM31.1108 28.8252C30.6329 28.8252 29.451 28.1984 29.0451 27.8771C29.451 27.5558 30.6329 26.9291 31.1108 26.9291C31.6195 26.9291 32.0358 27.3557 32.0358 27.8771C32.0358 28.3986 31.6195 28.8252 31.1108 28.8252Z" fill="#433F40" style="fill:#433F40;fill:color(display-p3 0.2627 0.2471 0.2510);fill-opacity:1;"/>
</svg>
