<?xml version="1.0" encoding="UTF-8"?><svg id="Vecto" xmlns="http://www.w3.org/2000/svg" viewBox="0 0 91.47 59.2"><defs><style>.cls-1{fill:none;}.cls-2{fill:#fff;}.cls-3{fill:#fda354;}.cls-4{fill:#433f40;}</style></defs><rect class="cls-3" x=".98" y="32.5" width="58" height="26.1" rx="13.05" ry="13.05"/><circle class="cls-2" cx="14.03" cy="45.55" r="13.05"/><circle class="cls-2" cx="13.05" cy="45.09" r="13.05"/><path class="cls-2" d="M3.88,45.55c0-5.61,4.54-10.15,10.15-10.15"/><rect class="cls-3" x="12.58" y="9.3" width="58" height="26.1" rx="13.05" ry="13.05"/><circle class="cls-2" cx="25.63" cy="22.35" r="13.05"/><path class="cls-2" d="M35.78,22.35c0,5.61-4.54,10.15-10.15,10.15"/><rect class="cls-3" x="27.08" y="32.5" width="63.8" height="26.1" rx="13.05" ry="13.05"/><circle class="cls-2" cx="40.13" cy="45.55" r="13.05"/><path class="cls-2" d="M40.13,35.4c5.61,0,10.15,4.54,10.15,10.15"/><polygon class="cls-3" points="37.23 .6 37.23 9.3 45.93 9.3 41.58 .6 37.23 .6"/><polygon class="cls-3" points="63.23 28.25 63.23 36.95 54.53 36.95 58.88 28.25 63.23 28.25"/><path class="cls-1" d="M19.59,58h14.97c-3.56-1.6-6.32-4.68-7.48-8.45-1.16,3.78-3.92,6.85-7.48,8.45Z"/><path class="cls-1" d="M20.73,35.08c-.82-.32-1.6-.71-2.34-1.17-1.36-.51-2.83-.81-4.37-.81-6.87,0-12.45,5.58-12.45,12.45s5.58,12.45,12.45,12.45,12.45-5.58,12.45-12.45c0-4.39-2.29-8.25-5.74-10.47ZM14.02,36c-5.27,0-9.55,4.28-9.55,9.55,0,.33-.27.6-.6.6s-.6-.27-.6-.6c0-5.93,4.82-10.75,10.75-10.75.33,0,.6.27.6.6s-.27.6-.6.6Z"/><path class="cls-1" d="M23.6,35.83c1.6,1.57,2.81,3.53,3.48,5.72.65-2.12,1.8-4.01,3.31-5.55h-4.76c-.69,0-1.37-.07-2.03-.17Z"/><polygon class="cls-1" points="41.2 1.2 37.82 1.2 37.82 8.7 44.95 8.7 41.2 1.2"/><path class="cls-1" d="M35.18,22.35c0-.33.27-.6.6-.6s.6.27.6.6c0,4.16-2.38,7.76-5.84,9.55h3.06c2.73-2.29,4.48-5.72,4.48-9.55,0-6.87-5.58-12.45-12.45-12.45s-12.45,5.58-12.45,12.45c0,3.83,1.74,7.26,4.48,9.55h7.97c5.27,0,9.55-4.29,9.55-9.55Z"/><path class="cls-1" d="M19.59,33.1c.58.26,1.13.56,1.66.89,1.36.51,2.83.81,4.37.81,2.28,0,4.41-.63,6.25-1.7h-12.29Z"/><path class="cls-1" d="M63.83,36.95c0,.33-.27.6-.6.6h-6.27c1.64,2.25,2.62,5.01,2.62,8,0,5.54-3.33,10.31-8.08,12.45h26.33c6.87,0,12.45-5.58,12.45-12.45s-5.58-12.45-12.45-12.45h-11.92c-.65.51-1.34.96-2.08,1.34v2.5ZM82.18,47.6h-11.6c-.33,0-.6-.27-.6-.6s.27-.6.6-.6h11.6c.33,0,.6.27.6.6s-.27.6-.6.6ZM82.77,41.2c0,.33-.27.6-.6.6h-20.3c-.33,0-.6-.27-.6-.6s.27-.6.6-.6h20.3c.33,0,.6.27.6.6Z"/><path class="cls-1" d="M55.68,36h0c.11.12.2.24.31.35h6.66v-1.35c-1.58.64-3.3,1-5.11,1h-1.85Z"/><path class="cls-1" d="M62.63,33.69v-.59h-5.51l-.85,1.7h1.25c1.82,0,3.55-.4,5.11-1.11Z"/><polygon class="cls-1" points="62.63 28.85 59.25 28.85 57.73 31.9 62.63 31.9 62.63 28.85"/><path class="cls-1" d="M69.98,22.35c0-6.87-5.58-12.45-12.45-12.45h-26.33c4.76,2.14,8.08,6.91,8.08,12.45,0,3.72-1.5,7.09-3.91,9.55h21.02l1.96-3.92c.1-.2.31-.33.54-.33h4.35c.33,0,.6.27.6.6v3.65h1.67c2.73-2.29,4.48-5.72,4.48-9.55ZM61.88,20.17h-11.6c-.33,0-.6-.27-.6-.6s.27-.6.6-.6h11.6c.33,0,.6.27.6.6s-.27.6-.6.6ZM61.88,15.7h-20.3c-.33,0-.6-.27-.6-.6s.27-.6.6-.6h20.3c.33,0,.6.27.6.6s-.27.6-.6.6Z"/><path class="cls-1" d="M31.19,34.8h.55c.86-.67,1.81-1.25,2.82-1.7h-.55c-.86.67-1.81,1.25-2.82,1.7Z"/><path class="cls-1" d="M45.93,33.1h-.23c1.01.45,1.95,1.03,2.82,1.7h3.67c-1.84-1.07-3.97-1.7-6.25-1.7Z"/><path class="cls-1" d="M54.31,34.8h.63l.85-1.7h-4.29c1.01.45,1.95,1.03,2.82,1.7Z"/><path class="cls-1" d="M58.38,45.55c0-3.05-1.1-5.84-2.93-8h-.92c-.21,0-.4-.11-.51-.28s-.12-.4-.03-.58l.2-.41c-.1-.09-.2-.19-.3-.27h-4.04c2.42,2.46,3.91,5.83,3.91,9.55,0,5.54-3.33,10.31-8.08,12.45h.23c6.87,0,12.45-5.58,12.45-12.45Z"/><path class="cls-1" d="M47.44,37.7h2.33c-.5-.62-1.07-1.19-1.68-1.7h-3.06c.88.46,1.69,1.03,2.41,1.7Z"/><path class="cls-1" d="M40.13,36h-7.97c-.61.51-1.17,1.08-1.68,1.7h15.08c-1.54-1.07-3.41-1.7-5.43-1.7Z"/><path class="cls-1" d="M46.38,34.8c-1.84-1.07-3.97-1.7-6.25-1.7s-4.41.63-6.25,1.7h12.5Z"/><path class="cls-1" d="M52.58,45.55c0-2.49-.74-4.8-2-6.74-.09.05-.19.09-.3.09h-1.72c1.45,1.83,2.32,4.14,2.32,6.65,0,.33-.27.6-.6.6s-.6-.27-.6-.6c0-2.58-1.04-4.93-2.71-6.65h-16.99c-.11,0-.21-.04-.3-.09-1.26,1.95-2,4.26-2,6.74,0,6.87,5.58,12.45,12.45,12.45s12.45-5.58,12.45-12.45ZM38.68,50.5c-.33,0-.6-.27-.6-.6s.27-.6.6-.6h11.6c.33,0,.6.27.6.6s-.27.6-.6.6h-11.6Z"/><path class="cls-4" d="M14.62,35.4c0-.33-.27-.6-.6-.6-5.93,0-10.75,4.82-10.75,10.75,0,.33.27.6.6.6s.6-.27.6-.6c0-5.27,3.73-8.25,9.55-9.55.32-.07.6-.27.6-.6Z"/><path class="cls-4" d="M25.63,33.1c1.77,0,3.44-.44,4.91-1.2,3.46-1.79,5.84-5.39,5.84-9.55,0-.33-.27-.6-.6-.6s-.54.27-.6.6c-1.03,5.33-4.28,9.55-9.55,9.55-.33,0-.6.27-.6.6s.27.6.6.6Z"/><path class="cls-4" d="M41.58,15.7h20.3c.33,0,.6-.27.6-.6s-.27-.6-.6-.6h-20.3c-.33,0-.6.27-.6.6s.27.6.6.6Z"/><path class="cls-4" d="M61.88,18.97h-11.6c-.33,0-.6.27-.6.6s.27.6.6.6h11.6c.33,0,.6-.27.6-.6s-.27-.6-.6-.6Z"/><path class="cls-4" d="M77.46,31.9h-10.2c2.82-2.88,4.39-7,3.78-11.46-.93-6.81-6.99-11.74-13.86-11.74h-9.69c-.73,0-1.41-.41-1.73-1.07l-3.65-7.3c-.1-.2-.31-.33-.54-.33h-4.35c-.33,0-.6.27-.6.6v6.71c0,.77-.62,1.39-1.39,1.39h-9.27c-6.87,0-12.93,4.94-13.86,11.74-.61,4.46.96,8.58,3.78,11.46h-1.5c-7,0-13.14,5.11-13.93,12.06-.93,8.23,5.51,15.24,13.56,15.24h63.8c8.05,0,14.49-7,13.56-15.24-.79-6.95-6.93-12.06-13.93-12.06ZM39.2,1.2h1.27c.45,0,.87.26,1.07.66l2.68,5.36c.34.68-.16,1.49-.92,1.49h-4.6c-.48,0-.87-.39-.87-.87V2.57c0-.76.62-1.37,1.37-1.37ZM37.22,10.1h9.34l11.28-.2c6.18,0,11.03,4.37,11.97,10.47.62,4-.68,7.72-3.12,10.38-.69.75-1.69,1.15-2.71,1.15h-.16v-3.65c0-.33-.27-.6-.6-.6h-4.35c-.23,0-.43.13-.54.33l-1.1,2.2c-.53,1.05-1.6,1.72-2.78,1.72h-16.7c-.92,0-1.45-1.03-.92-1.79,1.53-2.2,2.43-4.88,2.43-7.76,0-4.43-2.12-8.37-5.4-10.86-.68-.52-.33-1.59.53-1.59l2.83.2ZM55.76,36c-.04-.16.01-.35.08-.5.37-.82.88-1.59,1.28-2.39l.6-1.2,1.16-2.32c.23-.45.69-.74,1.19-.74h1.41c.63,0,1.14.51,1.14,1.14v5.01c0,.22-.02.43,0,.64s.07.42-.07.6c-.36.44-1.41.11-1.89.11-.52,0-1.04,0-1.56,0-.59,0-1.17,0-1.76,0-.38,0-1.1.13-1.44-.11-.09-.07-.14-.15-.16-.24ZM34.56,33.1c-1.01.45-1.95,1.03-2.82,1.7-.48.37-.93.77-1.35,1.2-1.16,1.18-2.1,2.56-2.77,4.09-.21.48-.87.48-1.09,0-.7-1.6-1.71-3.05-2.94-4.26.66.1,1.34.17,2.03.17,1.98,0,3.86-.43,5.57-1.2,1.01-.45,2.51-1.04,3.37-1.72v.02ZM13.18,22.35c1.01-7.48,6.37-13.21,13.87-12.37,5.78.64,10.43,5.39,10.97,11.18.4,4.31-1.41,8.22-4.42,10.74-.54.45-1.11.84-1.72,1.2-1.84,1.07-3.97,1.7-6.25,1.7-1.54,0-3.01-.29-4.37-.81-.53-.33-1.09-.63-1.66-.89-.22-.1-.45-.19-.68-.28-.44-.28-.87-.59-1.27-.92-2.73-2.29-4.99-5.75-4.48-9.55ZM1.63,44.35c.52-5.46,4.7-10,10.09-11.03,2.38-.45,4.64-.18,6.67.59.74.46,1.52.85,2.34,1.17,3.84,2.47,6.25,6.98,5.65,12-.66,5.55-5.1,10.06-10.64,10.81-8.04,1.08-14.87-5.56-14.11-13.54ZM21.35,57.05c2.04-1.3,3.72-3.13,4.83-5.3.38-.74,1.41-.74,1.79,0,1.09,2.12,2.71,3.91,4.69,5.21.47.31.24,1.04-.32,1.04h-10.7c-.51,0-.73-.67-.29-.95ZM27.76,47.04c-.36-3.05.4-5.9,1.91-8.23.25-.38.51-.75.8-1.11.5-.62,1.07-1.19,1.68-1.7.54-.45,1.11-.84,1.72-1.2,1.84-1.07,3.97-1.7,6.25-1.7s4.41.63,6.25,1.7c.61.35,1.19.75,1.72,1.2.61.51,1.17,1.08,1.68,1.7.29.35.55.72.8,1.11,1.26,1.95,2,4.26,2,6.74,0,7.32-6.35,13.18-13.83,12.38-5.69-.61-10.32-5.2-10.99-10.88ZM77.27,57.53l-25.78.47h-5.8c4.76-2.14,8.08-6.91,8.08-12.45,0-3.72-1.5-7.09-3.91-9.55-.42-.43-.88-.83-1.35-1.2-.86-.67-1.81-1.25-2.82-1.7h10.09l-.85,1.7-.6,1.2-.14.27-.2.41c-.09.19-.08.41.03.58s.3.28.51.28h9.19c.06,0,.11-.05.11-.11v-4.34h13.99c7.24,0,13.06,6.22,12.4,13.59-.58,6.49-6.44,10.83-12.95,10.83Z"/><path class="cls-4" d="M45.39,38.01c.51.35.98.76,1.41,1.2,1.67,1.72,2.87,3.75,2.87,6.34,0,.33.27.6.6.6s.6-.27.6-.6c0-2.51-.87-4.82-2.32-6.65-.34-.43-.71-.83-1.11-1.2-.72-.67-1.53-1.25-2.41-1.7-1.47-.76-3.14-1.2-4.91-1.2-.33,0-.6.27-.6.6s.27.6.6.6c2.01,0,3.72.94,5.27,2.01Z"/><path class="cls-4" d="M82.18,40.6h-20.3c-.33,0-.6.27-.6.6s.27.6.6.6h20.3c.33,0,.6-.27.6-.6s-.27-.6-.6-.6Z"/><path class="cls-4" d="M82.18,46.4h-11.6c-.33,0-.6.27-.6.6s.27.6.6.6h11.6c.33,0,.6-.27.6-.6s-.27-.6-.6-.6Z"/><path class="cls-4" d="M31.5,34.41s.94-.18.56.58,1.2-.94,1.2-.94l1.52-1.06-2.96.76-.32.66Z"/><path class="cls-4" d="M60.72,36.34s1.91.32,1.91-1.23l.64-.14-.05,1.3-.2.98-2.3-.91Z"/><path class="cls-4" d="M23.47,36.65s.79-.22.87-1.04-1.06-.34-1.06-.34l-.36.27.55,1.11Z"/></svg>