<?xml version="1.0" encoding="UTF-8"?><svg id="Vecto" xmlns="http://www.w3.org/2000/svg" viewBox="0 0 93.63 59.3"><defs><style>.cls-1{fill:none;}.cls-2{fill:#f9cd49;}.cls-3{fill:#d7d8d8;}.cls-4{fill:#cef1d5;}.cls-5{fill:#433f40;}</style></defs><path class="cls-2" d="M49.22,53.09l-6.92,3.74c-1.77.96-4,.27-4.97-1.53-.98-1.81-.33-4.05,1.44-5l10.07-5.45-.05-.1-13.04,7.06c-1.77.96-4,.27-4.97-1.53-.98-1.81-.33-4.05,1.44-5l13.04-7.06-.05-.1-16.36,8.85c-1.77.96-4,.27-4.97-1.53-.98-1.81-.33-4.05,1.44-5l16.36-8.85-13.33,7.08-3.09,1.67c-1.77.96-4,.27-4.97-1.53-.98-1.81-.33-4.05,1.44-5l3.09-1.67,11.36-5.78v-1.96s8.56-13.36,8.56-13.36c10-.56,31.93,2.75,31.93,2.75l-2.96,1.48,5.11,24.1c-2.95,1.6-4.89,3.49-6.13,5.11-2.07,2.69-4.6,4.99-7.59,6.61l-4.79,2.46-11.05-.43"/><rect class="cls-3" x="59.03" y="15.95" width="37.08" height="15.09" transform="translate(93.82 102.9) rotate(-118.42)"/><path class="cls-2" d="M54.12,43.56h0c-1.49,1.01-1.88,3.05-.87,4.54l5.62,8.2c1.01,1.49,3.05,1.88,4.54.87h0c1.49-1.01,1.88-3.05.87-4.54l-5.62-8.2c-1.01-1.49-3.05-1.88-4.54-.87Z"/><path class="cls-2" d="M59.53,39.89h0c-1.49,1.01-1.88,3.05-.87,4.54l5.62,8.2c1.01,1.49,3.05,1.88,4.54.87h0c1.49-1.01,1.88-3.05.87-4.54l-5.62-8.2c-1.01-1.49-3.05-1.88-4.54-.87Z"/><path class="cls-2" d="M66.78,38.93h0c-1.49,1.01-1.88,3.05-.87,4.54l1.95,2.79c1.01,1.49,3.05,1.88,4.54.87h0c1.49-1.01,1.88-3.05.87-4.54l-1.95-2.79c-1.01-1.49-3.05-1.88-4.54-.87Z"/><path class="cls-2" d="M50.55,49.94h0c-1.49,1.01-1.88,3.05-.87,4.54l1.95,2.79c1.01,1.49,3.05,1.88,4.54.87h0c1.49-1.01,1.88-3.05.87-4.54l-1.95-2.79c-1.01-1.49-3.05-1.88-4.54-.87Z"/><path class="cls-2" d="M27.72,13.02c3.39-.38,6.78-.76,10.17-1.14,5.27-.59,10.84-1.95,15.88.31,2.72,1.23,5.09,3.14,7.15,5.3,2.61,2.74,3.03,5.37,2.36,9.02-.22,1.2-.7,2.41-1.65,3.18-2.21,1.8-3.81.33-4.88-1.79-1.47-2.92-2.18-5.53-5.68-6.64-3.59-1.14-6.4.74-9.42,2.39-2.62,1.44-5.35,2.71-8.02,4.06-3.41,1.73-6.82,3.46-10.23,5.19,0,0-7.03-2.59-6.39-5.9"/><rect class="cls-4" x=".97" y="9.57" width="30.18" height="15.09" transform="translate(39.5 15.75) rotate(129.84)"/><path class="cls-1" d="M23.33,32.23l1.17-.63,11.04-5.62v-1.59c0-.11.03-.23.09-.32l7.88-12.3c-.95.1-1.9.23-2.84.36-.91.12-1.82.25-2.72.35l-8.18.92-12.14,14.56c.57,1.89,3.98,3.61,5.7,4.28Z"/><path class="cls-1" d="M36.74,25.49c1.54-.76,3.11-1.54,4.61-2.36l.81-.45c2.74-1.52,5.56-3.1,9.08-1.99,3.22,1.02,4.29,3.28,5.42,5.66.2.42.4.85.62,1.28.66,1.31,1.4,2.08,2.13,2.24.55.11,1.16-.1,1.83-.64.71-.58,1.2-1.53,1.44-2.82.7-3.78.1-6.08-2.21-8.5-2.29-2.4-4.56-4.09-6.96-5.17-1.67-.75-3.43-1.07-5.21-1.17-1.04-.02-2.01,0-2.91.03-.12,0-.25.02-.37.03l-8.29,12.94v.93Z"/><path class="cls-1" d="M55.53,52.49l-.94-1.34c-.83-1.22-2.5-1.54-3.71-.72-.72.49-1.12,1.27-1.16,2.08l5.98.23-.17-.25Z"/><path class="cls-1" d="M64.57,51.99l.21.3c.83,1.22,2.49,1.54,3.71.71,1.22-.83,1.54-2.49.71-3.71l-.15-.23c-1.17.97-2.4,1.82-3.69,2.52l-.78.4Z"/><path class="cls-1" d="M61.35,17.08c2.97,3.12,3.16,6.07,2.52,9.54-.29,1.58-.92,2.77-1.86,3.53-.96.79-1.92,1.09-2.84.89-1.12-.24-2.11-1.21-2.96-2.87-.22-.44-.43-.88-.63-1.31-1.1-2.33-1.97-4.17-4.69-5.03-3.02-.96-5.5.43-8.13,1.89l-.82.45c-1.74.95-3.54,1.84-5.29,2.7-.92.45-1.84.91-2.75,1.37l-10.23,5.19s-.03,0-.04.01l-1.64.88c-1.48.8-2.01,2.68-1.2,4.19.82,1.51,2.68,2.09,4.16,1.29l3.09-1.67,13.33-7.08c.29-.15.65-.04.81.25.16.29.05.65-.24.81l-16.36,8.85c-.71.39-1.23,1.03-1.46,1.82-.23.79-.13,1.63.26,2.37.4.74,1.05,1.27,1.84,1.52.78.24,1.61.16,2.32-.22l16.36-8.85c.29-.16.65-.05.81.24l.05.1c.08.14.09.3.05.46-.04.15-.15.28-.29.36l-13.04,7.06c-.71.39-1.23,1.03-1.46,1.82-.23.79-.13,1.63.26,2.37.82,1.51,2.68,2.09,4.16,1.29l13.04-7.06c.09-.05.19-.07.29-.07.06,0,.12,0,.17.02.15.05.28.15.36.29l.05.1c.16.29.05.66-.24.81l-10.07,5.45c-1.48.8-2.01,2.68-1.2,4.19.82,1.51,2.69,2.09,4.16,1.29l6.52-3.53c-.05-1.29.54-2.57,1.68-3.34.86-.58,1.87-.77,2.82-.6l-.27-.4c-.58-.85-.79-1.88-.59-2.9.19-1.02.77-1.9,1.62-2.47.85-.58,1.88-.79,2.9-.59.29.06.56.15.83.26,0-.29,0-.58.06-.87.19-1.02.77-1.9,1.62-2.47.85-.58,1.88-.79,2.9-.59,1.02.19,1.9.77,2.47,1.62l.27.4c.21-.98.77-1.83,1.6-2.39.85-.58,1.88-.79,2.9-.59,1.02.19,1.9.77,2.47,1.62l1.94,2.79s.02.03.03.05c.97-.96,2.07-1.83,3.29-2.61l-14.67-27.11c-2.61-.28-5.33-.53-7.94-.72,2.38,1.15,4.64,2.85,6.89,5.22Z"/><path class="cls-1" d="M60.25,54.12l-2.2-.09,1.32,1.93c.83,1.22,2.49,1.54,3.71.71.59-.4.98-1,1.12-1.71.13-.7-.01-1.41-.41-2l-.29-.43-2.95,1.51c-.09.05-.19.07-.3.07Z"/><path class="cls-1" d="M61.87,39.98c-.17-.03-.34-.05-.51-.05-.53,0-1.04.16-1.49.46-.59.4-.98,1-1.12,1.71-.13.7,0,1.41.41,2l4.72,6.9.9-.46c1.25-.68,2.44-1.5,3.57-2.45l-1.98-2.89-.96-1.38s-.04-.08-.07-.12l-1.77-2.59c-.4-.59-1.01-.99-1.71-1.12Z"/><path class="cls-1" d="M56.46,43.65c-.17-.03-.34-.05-.51-.05-.53,0-1.04.16-1.49.46-.59.4-.98,1-1.12,1.71-.13.7.01,1.41.41,2l2.79,4.07.68.97,2.92.11,2.67-1.37-4.64-6.77c-.4-.59-1.01-.99-1.71-1.12Z"/><path class="cls-1" d="M56.55,53.98l-6.6-.26c.06.14.13.28.23.42l1.94,2.79c.4.59,1.01.99,1.71,1.12.7.14,1.41-.01,2-.41,1.18-.8,1.5-2.38.77-3.59l-.05-.08Z"/><path class="cls-1" d="M16.41,26.88c.06-.33.38-.54.7-.48.07.01.13.04.19.08l10.76-12.9-.27.03c-.34.03-.63-.2-.66-.53s.2-.63.53-.66l1.52-.17,1.51-1.81L20.01,1.54,1.44,23.8l10.67,8.9,4.25-5.1c-.01-.23,0-.47.04-.72Z"/><path class="cls-1" d="M71.28,46.98c.27-.08.54-.19.78-.35.66-.45,1.05-1.15,1.14-1.89-.02.03-.05.05-.07.08-.59.76-1.21,1.48-1.84,2.16Z"/><path class="cls-1" d="M72.92,43.21c-.05-.1-.09-.2-.16-.29l-1.94-2.79c-.4-.59-1.01-.99-1.71-1.12-.17-.03-.34-.05-.51-.05-.53,0-1.04.16-1.49.46-1.18.8-1.5,2.38-.77,3.59l1.04,1.52.96,1.38c.32.47.78.82,1.31,1.01.88-.86,1.73-1.8,2.52-2.83.23-.3.5-.59.75-.87Z"/><path class="cls-1" d="M62.93,11.02l.23.43c7.27.79,13.45,1.71,13.56,1.73.26.04.46.24.5.5s-.09.51-.32.63l-2.54,1.27,5.01,23.65c.05.26-.07.53-.3.65-.14.07-.26.16-.4.24l1.33,2.46,12.22-6.61-17.08-31.56-12.22,6.61Z"/><path class="cls-1" d="M73.09,15.37c-.06-.27.07-.54.32-.66l1.24-.62c-2.25-.32-6.27-.86-10.8-1.36l14.24,26.31s0,0,.01,0l-5.01-23.67Z"/><path class="cls-5" d="M93.56,35.93L75.91,3.31c-.16-.29-.52-.4-.81-.24l-13.27,7.18c-.14.08-.24.2-.29.36-.04.15-.03.32.05.46l.12.23c-4.4-.45-9.08-.83-12.97-.92-1.19-.08-2.39-.06-3.59.03-.16,0-.33.01-.48.02-.03,0-.05.02-.07.02-1.37.12-2.73.3-4.08.49-.9.12-1.8.25-2.69.34l-6.93.78,1.09-1.31c.21-.25.18-.63-.08-.85L20.14.08c-.15-.13-.38-.11-.51.05L.14,23.49c-.1.12-.15.28-.14.44.01.16.09.3.21.41l11.59,9.67c.11.09.25.14.38.14.17,0,.34-.07.46-.21l3.35-4.02c.36-.43,1.04-.47,1.41-.04,1.23,1.42,3.26,2.5,4.58,3.09l-.57.31c-2.06,1.11-2.81,3.72-1.68,5.82.77,1.42,2.22,2.25,3.71,2.28-.21.33-.37.7-.48,1.09-.32,1.1-.19,2.26.36,3.27.87,1.61,2.65,2.54,4.65,2.24.31-.05.6-.17.87-.31l1.11-.6c-.03.08-.06.16-.08.25-.32,1.1-.19,2.26.36,3.27,1.13,2.09,3.73,2.89,5.79,1.78l.5-.27c-.39,1.11-.33,2.39.28,3.52.79,1.45,2.27,2.28,3.8,2.28.67,0,1.36-.16,1.99-.5l6.19-3.35c.1.28.23.55.41.81l1.94,2.79c.58.85,1.46,1.43,2.47,1.62.25.05.49.07.74.07.77,0,1.51-.23,2.16-.67.86-.58,1.4-1.45,1.6-2.39l.24.36c.34.5,1.04,1.15,1.6,1.38.55.23,1.1.35,1.65.35.77,0,1.51-.23,2.16-.67.85-.58,1.43-1.46,1.62-2.47.06-.29.07-.59.06-.88.49.22,1.02.35,1.56.35,1.25,0,2.51-.6,3.35-1.89.81-1.25.71-2.89-.13-4.13l-.25-.37s.03-.03.05-.05c.19.03.38.06.57.06.77,0,1.51-.23,2.16-.67.85-.58,1.43-1.46,1.62-2.47.06-.33.08-.67.05-.99-.04-.46.11-.92.44-1.24.6-.57,1.25-1.11,1.95-1.61.44-.32,1.07-.16,1.32.32l1.11,2.05c.11.2.31.32.53.32.1,0,.19-.02.28-.07l13.27-7.18c.14-.08.24-.2.29-.36.04-.15.03-.32-.05-.46ZM17.3,26.48l-.93,1.12-3.76,4.5c-.27.33-.76.37-1.09.1l-9.15-7.63c-.51-.43-.58-1.19-.15-1.7L19.25,2.45c.42-.5,1.17-.57,1.67-.15l9.1,7.59c.36.3.41.84.11,1.2l-.96,1.15-1.11,1.33-10.76,12.9ZM18.51,29.3c-.62-.64-.61-1.67-.04-2.35l9.7-11.63c1.04-1.24,2.51-2.04,4.12-2.22l5.67-.64c.9-.1,1.81-.22,2.72-.35.94-.13,1.89-.25,2.84-.36.5-.06,1.01-.1,1.51-.14.12,0,.25-.02.37-.03.89-.03,1.87-.04,2.91-.03,1.79.09,3.54.41,5.21,1.17,2.4,1.08,4.67,2.77,6.96,5.17,2.3,2.42,2.9,4.72,2.21,8.5-.24,1.29-.72,2.24-1.44,2.82-.67.54-1.29.76-1.83.64-.74-.16-1.47-.93-2.13-2.24-.22-.43-.42-.86-.62-1.28-1.13-2.39-2.19-4.64-5.42-5.66-3.51-1.11-6.34.47-9.08,1.99l-.82.45c-1.37.76-2.75,1.49-4.16,2.14-.34.16-.72.35-1.07.53-.92.46-1.85.91-2.76,1.37l-10,5.07s-.02,0-.02,0c-1.29-.51-3.55-1.61-4.83-2.93ZM55.83,57.64c-.59.4-1.3.54-2,.41-.7-.13-1.31-.53-1.71-1.12l-1.94-2.79c-.09-.13-.16-.27-.23-.42-.17-.39-.24-.8-.22-1.21.04-.81.44-1.59,1.16-2.08,1.22-.82,2.88-.51,3.71.72l.94,1.34.17.25.85,1.23.05.08c.73,1.2.4,2.79-.77,3.59ZM64.19,54.97c-.13.7-.53,1.31-1.12,1.71-1.22.83-2.88.51-3.71-.71l-1.32-1.93-.45-.66s-.04-.08-.06-.12l-.31-.45-.68-.97-2.79-4.07c-.4-.59-.54-1.3-.41-2,.13-.7.53-1.31,1.12-1.71.44-.3.96-.46,1.49-.46.17,0,.34.02.51.05.7.13,1.31.53,1.71,1.12l4.64,6.77.68,1,.29.43c.4.59.54,1.3.41,2ZM67.24,53.48c-.94.14-1.87-.32-2.4-1.1l-.27-.39-.68-1-4.72-6.9c-.4-.59-.54-1.3-.41-2,.13-.7.53-1.31,1.12-1.71.44-.3.96-.46,1.49-.46.17,0,.34.02.51.05.7.13,1.31.53,1.71,1.12l1.77,2.59s.04.08.07.12l.96,1.38,1.98,2.89.68.99.15.23c1.06,1.56.23,3.86-1.96,4.18ZM73.19,44.74c-.09.74-.47,1.44-1.14,1.89-.24.16-.51.27-.78.35-.39.11-.81.14-1.22.06-.14-.03-.27-.07-.4-.12-.53-.19-.98-.53-1.31-1.01l-.96-1.38-1.04-1.52c-.73-1.21-.4-2.79.77-3.59.44-.3.96-.46,1.49-.46.17,0,.34.02.51.05.7.13,1.31.53,1.71,1.12l1.94,2.79c.06.09.11.19.16.29.25.48.33,1.01.27,1.52ZM76.04,40.39c-.81.59-1.57,1.22-2.25,1.91-.01-.02-.02-.04-.03-.05l-1.94-2.79c-.58-.85-1.46-1.43-2.47-1.62-1.02-.2-2.05.02-2.9.59-.83.56-1.39,1.41-1.6,2.39l-.28-.41c-.29-.43-.65-.81-1.09-1.07-1.41-.85-3.03-.78-4.27.06-.85.58-1.43,1.46-1.62,2.47-.06.29-.07.58-.06.87-.26-.11-.54-.21-.83-.26-1.02-.2-2.05.02-2.9.59-1.22.83-1.88,2.27-1.65,3.85.08.57.33,1.1.66,1.57l.24.35c-.95-.16-1.96.02-2.82.6-.69.47-1.17,1.12-1.44,1.84-.43,1.16-1.32,2.08-2.4,2.67l-4.35,2.35c-1.48.8-3.34.22-4.16-1.29-.82-1.51-.28-3.39,1.2-4.19l10.07-5.45c.29-.16.4-.52.24-.81l-.05-.1c-.08-.14-.2-.24-.36-.29-.06-.02-.11-.02-.17-.02-.1,0-.2.02-.29.07l-13.04,7.06c-1.48.8-3.34.22-4.16-1.29-.4-.73-.49-1.58-.26-2.37.23-.79.74-1.44,1.46-1.82l13.04-7.06c.14-.08.25-.2.29-.36.04-.15.03-.32-.05-.46l-.05-.1c-.16-.29-.52-.4-.81-.24l-16.36,8.85c-.72.39-1.54.46-2.32.22-.79-.24-1.44-.78-1.84-1.52-.4-.73-.49-1.57-.26-2.37.23-.79.74-1.44,1.46-1.82l16.36-8.85c.29-.16.4-.52.24-.81-.16-.29-.52-.4-.81-.25l-13.33,7.08-3.09,1.67c-1.48.8-3.34.22-4.16-1.29-.82-1.51-.28-3.39,1.2-4.19l1.64-.88s.03,0,.04-.01l10.23-5.19c.91-.46,1.83-.92,2.75-1.37,1.75-.86,3.55-1.75,5.29-2.7l.82-.45c2.63-1.46,5.11-2.85,8.13-1.89,2.72.86,3.59,2.7,4.69,5.03.2.43.41.86.63,1.31.84,1.67,1.83,2.63,2.96,2.87.93.2,1.88-.1,2.84-.89.94-.76,1.57-1.95,1.86-3.53.64-3.47.46-6.42-2.52-9.54-1.42-1.49-2.84-2.72-4.3-3.71-.59-.4-.28-1.33.43-1.27,1.25.11,2.5.23,3.74.35.74.08,1.39.51,1.74,1.17l13.48,24.91c.34.64.18,1.44-.41,1.86ZM89.39,37.5l-7.24,3.91c-1.19.64-2.67.2-3.32-.99l-.17-.31-.58-1.07-14.24-26.31c-.21-.39-.39-.73-.6-1.09-.09-.54.19-.87.42-1.04.23-.12.45-.23.68-.35,1.12-.59,2.24-1.21,3.35-1.81.99-.54,1.98-1.07,2.98-1.61.72-.39,1.44-.78,2.16-1.17.17-.09.34-.19.52-.28.99-.53,2.22-.17,2.75.82l14.58,26.94c.85,1.56.26,3.51-1.3,4.36Z"/></svg>