<svg width="40" height="42" viewBox="0 0 40 42" fill="none" xmlns="http://www.w3.org/2000/svg">
<path d="M16.0512 32.6175V22.3464C16.0512 19.9457 17.7126 18.8754 17.7126 18.8754V14.9668C17.7126 14.9668 8.85156 14.955 8.85156 24.9009V32.5407" fill="#D7D8D8" style="fill:#D7D8D8;fill:color(display-p3 0.8431 0.8471 0.8471);fill-opacity:1;"/>
<path d="M37.0967 5.60059H21.5898V18.6568H37.0967V5.60059Z" fill="#9E8EF5" style="fill:#9E8EF5;fill:color(display-p3 0.6196 0.5569 0.9608);fill-opacity:1;"/>
<path d="M19.9275 3.89746H19.3737C18.4561 3.89746 17.7123 4.65991 17.7123 5.60045V18.6567C17.7123 19.5972 18.4561 20.3597 19.3737 20.3597H19.9275C20.8451 20.3597 21.589 19.5972 21.589 18.6567V5.60045C21.589 4.65991 20.8451 3.89746 19.9275 3.89746Z" fill="#9E8EF5" style="fill:#9E8EF5;fill:color(display-p3 0.6196 0.5569 0.9608);fill-opacity:1;"/>
<path d="M28.3739 37.5374C26.424 36.7096 24.0357 36.6741 22.0858 37.5019L21.907 37.5788C19.9051 38.4244 17.6553 38.4244 15.6534 37.5788L15.4746 37.5019C13.4728 36.6504 11.2229 36.6504 9.22109 37.5019L9.04225 37.5788C7.09236 38.4066 4.84248 38.3712 2.89258 37.5433V32.4344C4.84248 33.2622 7.09236 33.2977 9.04225 32.4698L9.22109 32.393C11.2229 31.5474 13.4728 31.5474 15.4746 32.393L15.6534 32.4698C17.6553 33.3213 19.9051 33.3213 21.907 32.4698L22.0858 32.393C24.0357 31.5651 26.424 31.6065 28.3739 32.4285V37.5374Z" fill="#A2D2FD" style="fill:#A2D2FD;fill:color(display-p3 0.6353 0.8235 0.9922);fill-opacity:1;"/>
<path d="M36.8425 5.12486H22.1202C21.9933 5.12486 21.8894 5.03025 21.8491 4.90608C21.6068 4.04867 20.8395 3.42188 19.928 3.42188H19.6511C18.3877 3.42188 17.3666 4.4685 17.3666 5.76348V14.2489C17.3666 14.3967 17.2628 14.5149 17.1185 14.5327C15.9417 14.645 13.2361 15.1358 11.1477 17.2764C9.39395 19.074 8.50553 21.5989 8.50553 24.7861V31.9587C8.50553 32.0829 8.42477 32.1953 8.30939 32.2367C6.61333 32.7807 4.72112 32.7038 3.03082 31.9824C2.92121 31.9351 2.80007 31.9528 2.70776 32.0179C2.60969 32.077 2.552 32.1893 2.552 32.3076V37.2273C2.552 37.4816 2.70199 37.7241 2.93275 37.8187C4.95764 38.6229 7.22483 38.6169 9.17473 37.7891L9.24973 37.7595C11.2342 36.9199 13.4668 36.9199 15.4513 37.7595L15.5205 37.7891C16.5416 38.2208 17.6608 38.4395 18.78 38.4395C19.8992 38.4395 21.0183 38.2208 22.0394 37.7891L22.2183 37.7122C24.047 36.9376 26.3546 36.9494 28.241 37.7536C28.3506 37.8009 28.4718 37.7832 28.5641 37.7181C28.6622 37.6531 28.7199 37.5407 28.7199 37.4225V32.5027C28.7199 32.2485 28.5699 32.006 28.3391 31.9173C26.32 31.1191 23.897 31.125 21.9587 31.9469L21.7798 32.0238C20.1703 32.7097 18.2896 32.7984 16.6051 32.3076C16.484 32.2721 16.4032 32.1598 16.4032 32.0297V22.2375C16.4032 21.0017 16.8705 20.1561 17.2858 19.6535C17.4012 19.5116 17.6147 19.5352 17.7127 19.6889C18.0704 20.2448 18.6877 20.6055 19.38 20.6055H19.9338C20.8453 20.6055 21.6125 19.9787 21.8548 19.1213C21.8894 18.9971 21.9933 18.9025 22.126 18.9025H36.8252C37.1713 18.9025 37.4482 18.6187 37.4482 18.2639V5.74574C37.4482 5.40278 37.1771 5.12486 36.8425 5.12486ZM22.0394 32.6683L22.2183 32.5914C23.747 31.941 25.6046 31.8464 27.2776 32.2958C27.7218 32.414 28.0276 32.8339 28.0276 33.3069V36.5119C28.0276 36.7011 27.8487 36.8312 27.6699 36.778C25.8008 36.2221 23.6836 36.3049 21.9529 37.0381L21.8779 37.0677C19.8934 37.9074 17.6666 37.9133 15.6821 37.0677L15.6071 37.0322C14.586 36.6006 13.4668 36.3818 12.3476 36.3818C11.2285 36.3818 10.1093 36.6006 9.0882 37.0322L8.90936 37.1091C7.3979 37.7536 5.67876 37.8541 4.05769 37.4284C3.5731 37.2983 3.2385 36.8489 3.2385 36.3345V33.5198C3.2385 33.1768 3.5558 32.9107 3.87886 32.9994C5.55761 33.4488 7.34021 33.3542 8.9382 32.7393C8.96128 32.7334 8.98436 32.7274 9.00166 32.7156C9.05935 32.692 9.11704 32.6742 9.17473 32.6506L9.24973 32.621C11.2342 31.7813 13.461 31.7813 15.4456 32.621L15.5205 32.6506C15.6359 32.6979 15.7628 32.7393 15.884 32.7807C15.9128 32.7984 15.9475 32.8102 15.9821 32.8161C17.9204 33.5021 20.1472 33.4488 22.0394 32.6506V32.6683ZM17.3666 18.5714C16.9166 18.9262 15.7052 20.0851 15.7052 22.2257C15.7052 22.2257 15.8898 30.2971 15.7167 31.9351C15.7109 32.006 15.6071 31.9351 15.6071 31.9351C13.8014 31.1723 11.69 31.0836 9.81508 31.6749C9.50933 31.7695 9.19781 31.5271 9.19781 31.2018V24.7802C9.19781 16.9807 14.7533 15.532 16.8936 15.26C17.1474 15.2304 17.3666 15.4315 17.3666 15.6917V18.5359V18.5714ZM19.6511 19.8841C18.7742 19.8841 18.0589 19.1509 18.0589 18.2521V14.8461V5.76348C18.0589 4.86468 18.7742 4.13145 19.6511 4.13145C21.2433 4.13145 21.2433 4.86468 21.2433 5.76348V18.2521C21.2433 19.1509 20.528 19.8841 19.6511 19.8841ZM36.4791 18.1811H23.2048C22.5067 18.1811 21.9414 17.6016 21.9414 16.8861V6.11827C21.9414 5.95862 22.0625 5.83444 22.2183 5.83444H36.4791C36.6348 5.83444 36.756 5.95862 36.756 6.11827V17.8973C36.756 18.0569 36.6348 18.1811 36.4791 18.1811Z" fill="#222A42" style="fill:#222A42;fill:color(display-p3 0.1333 0.1647 0.2588);fill-opacity:1;"/>
</svg>
