<?xml version="1.0" encoding="UTF-8"?><svg id="Vecto" xmlns="http://www.w3.org/2000/svg" viewBox="0 0 59.52 59.2"><defs><style>.cls-1{fill:#9e8ef5;}.cls-2{fill:#d7d8d8;}.cls-3{fill:#fff;}.cls-4{fill:#433f40;}.cls-5{fill:#a2d2fd;}</style></defs><rect class="cls-3" x=".66" y=".6" width="58" height="58"/><path class="cls-4" d="M57.1,59.2H3.08c-1.67,0-3.02-1.35-3.01-3.02L0,1.79C.01.8.83,0,1.83,0h54.41c1.67,0,3.02,1.35,3.02,3.02l.26,53.83c-.06,1.3-1.14,2.35-2.42,2.35ZM7.07,58h48.24c1.65,0,3.05-1.35,3.14-3.02l-.38-48.39c0-2.98-2.41-5.39-5.39-5.39H3.69c-1.36,0-2.48,1.1-2.5,2.45l.15,48.54c-.06,3.2,2.52,5.8,5.73,5.8Z"/><rect class="cls-2" x="6.46" y="6.4" width="46.4" height="20.3"/><path class="cls-4" d="M52.43,27.3H7.44c-.87,0-1.57-.7-1.57-1.57V6.71c0-.5.41-.91.91-.91h45.12c.87,0,1.57.7,1.57,1.57v18.89c0,.57-.46,1.04-1.04,1.04ZM9.45,26.1h40.3c1.39,0,2.52-1.13,2.52-2.52v-14.62c0-1.08-.88-1.96-1.96-1.96H8.64c-.87,0-1.57.7-1.57,1.57v15.14c0,1.32,1.07,2.39,2.39,2.39Z"/><rect class="cls-1" x="41.26" y="32.5" width="11.6" height="20.3"/><path class="cls-4" d="M51.76,53.4h-9.4c-.94,0-1.7-.76-1.7-1.7v-18.1c0-.94.76-1.7,1.7-1.7h9.4c.94,0,1.7.76,1.7,1.7v18.1c0,.94-.76,1.7-1.7,1.7ZM44.24,52.2h5.45c1.43,0,2.58-1.16,2.58-2.58v-15.78c0-.41-.33-.74-.74-.74h-7.18c-1.37,0-2.48,1.11-2.48,2.48v14.25c0,1.31,1.06,2.37,2.37,2.37Z"/><rect class="cls-5" x="6.46" y="32.5" width="8.7" height="8.7"/><path class="cls-4" d="M14.75,41.8h-7.31c-.87,0-1.57-.7-1.57-1.57v-6.75c0-.87.7-1.57,1.57-1.57h6.75c.87,0,1.57.7,1.57,1.57v7.31c0,.56-.45,1.01-1.01,1.01ZM8.64,40.6h3.76c1.2,0,2.17-.97,2.17-2.17v-3.76c0-.87-.7-1.57-1.57-1.57h-3.55c-1.31,0-2.38,1.06-2.38,2.38v3.55c0,.87.7,1.57,1.57,1.57Z"/><rect class="cls-5" x="18.06" y="32.5" width="8.7" height="8.7"/><path class="cls-4" d="M25.95,41.8h-7.07c-.78,0-1.41-.63-1.41-1.41v-7.65c0-.46.37-.83.83-.83h7.9c.64,0,1.16.52,1.16,1.16v7.32c0,.78-.63,1.41-1.41,1.41ZM20.08,40.6h4.67c.78,0,1.41-.63,1.41-1.41v-3.94c0-1.19-.96-2.15-2.15-2.15h-3.94c-.78,0-1.41.63-1.41,1.41v4.67c0,.78.63,1.41,1.41,1.41Z"/><rect class="cls-5" x="29.7" y="32.77" width="8.7" height="8.7"/><path class="cls-4" d="M37.39,41.8h-6.75c-.87,0-1.57-.7-1.57-1.57v-6.75c0-.87.7-1.57,1.57-1.57h7.4c.51,0,.92.41.92.92v7.4c0,.87-.7,1.57-1.57,1.57ZM32.02,40.6h4.17c.87,0,1.57-.7,1.57-1.57v-3.9c0-1.12-.91-2.03-2.03-2.03h-3.9c-.87,0-1.57.7-1.57,1.57v4.17c0,.97.78,1.75,1.75,1.75Z"/><rect class="cls-5" x="6.46" y="44.1" width="8.7" height="8.7"/><path class="cls-4" d="M14.19,53.4h-6.75c-.87,0-1.57-.7-1.57-1.57v-6.34c0-1.09.89-1.98,1.98-1.98h6.68c.69,0,1.24.56,1.24,1.24v7.08c0,.87-.7,1.57-1.57,1.57ZM9.23,52.2h3.51c1.01,0,1.82-.82,1.82-1.82v-4.11c0-.87-.7-1.57-1.57-1.57h-4.35c-.87,0-1.57.7-1.57,1.57v3.76c0,1.2.97,2.17,2.17,2.17Z"/><rect class="cls-5" x="18.06" y="44.1" width="8.7" height="8.7"/><path class="cls-4" d="M25.79,53.4h-6.75c-.87,0-1.57-.7-1.57-1.57v-6.22c0-1.16.94-2.1,2.1-2.1h6.63c.65,0,1.17.52,1.17,1.17v7.16c0,.87-.7,1.57-1.57,1.57ZM20.24,52.2h3.33c1.43,0,2.59-1.16,2.59-2.59v-3.33c0-.87-.7-1.57-1.57-1.57h-3.25c-1.48,0-2.68,1.2-2.68,2.68v3.25c0,.87.7,1.57,1.57,1.57Z"/><rect class="cls-5" x="29.66" y="44.1" width="8.7" height="8.7"/><path class="cls-4" d="M37.39,53.4h-6.75c-.87,0-1.57-.7-1.57-1.57v-6.75c0-.87.7-1.57,1.57-1.57h6.75c.87,0,1.57.7,1.57,1.57v6.75c0,.87-.7,1.57-1.57,1.57ZM31.84,52.2h4.35c.87,0,1.57-.7,1.57-1.57v-4.35c0-.87-.7-1.57-1.57-1.57h-4.35c-.87,0-1.57.7-1.57,1.57v4.35c0,.87.7,1.57,1.57,1.57Z"/></svg>