<svg width="41" height="42" viewBox="0 0 41 42" fill="none" xmlns="http://www.w3.org/2000/svg">
<path d="M31.2804 8.58178L25.5339 5.69158C25.4236 5.63826 25.3028 5.60626 25.1767 5.60626H15.0179C14.8971 5.60626 14.7711 5.63292 14.6608 5.69158L8.91425 8.58178C8.76717 8.65644 8.64636 8.77375 8.56757 8.91773L4.06071 17.2844C3.8401 17.695 4.00293 18.2122 4.42315 18.4095L10.6897 21.417C10.9681 21.5504 11.1467 21.8383 11.1467 22.1529V37.0785C11.1467 37.5265 11.5039 37.8944 11.9503 37.8944H28.2601C28.7013 37.8944 29.0638 37.5318 29.0638 37.0785V22.1529C29.0638 21.8383 29.2424 21.5504 29.5208 21.417L35.7873 18.4095C36.2023 18.2069 36.3703 17.695 36.1497 17.2844L31.6324 8.91773C31.5536 8.77375 31.4328 8.65644 31.2857 8.58178H31.2804Z" fill="#A2D2FD" style="fill:#A2D2FD;fill:color(display-p3 0.6353 0.8235 0.9922);fill-opacity:1;"/>
<path d="M24.3241 14.5493L22.5709 16.329L24.324 18.1088L26.0772 16.329L24.3241 14.5493Z" fill="white" style="fill:white;fill-opacity:1;"/>
<path d="M31.9638 8.87525C31.8167 8.59797 31.5856 8.37933 31.3125 8.24069L25.6763 5.40381C25.5239 5.32916 25.3506 5.2865 25.1825 5.2865H15.0237C14.8556 5.2865 14.6823 5.32916 14.5299 5.40381L8.89374 8.24069C8.61534 8.37933 8.38947 8.6033 8.2424 8.87525L3.78281 17.1299C3.63574 17.4019 3.60422 17.7272 3.69877 18.0258C3.79332 18.3191 4.00868 18.5697 4.28183 18.6977L10.5484 21.7052C10.7112 21.7852 10.8162 21.9452 10.8215 22.1265V23.2356V36.6788C10.8215 37.5266 11.4991 38.2092 12.329 38.2092H27.8509C28.6861 38.2092 29.3584 37.5213 29.3584 36.6788V22.1531C29.3584 21.9611 29.4687 21.7905 29.6368 21.7052L35.9034 18.6977C36.1817 18.5644 36.3919 18.3191 36.4864 18.0258C36.581 17.7325 36.5494 17.4019 36.4024 17.1299L31.9428 8.87525H31.9638ZM24.7308 5.93173C24.9881 5.93173 25.172 6.17702 25.1142 6.43298C24.6362 8.40066 22.6507 9.87776 20.2817 9.87776C17.9127 9.87776 15.9272 8.39533 15.4492 6.42765C15.3861 6.17702 15.5752 5.9264 15.8326 5.9264C17.4925 5.9264 23.0709 5.9264 24.7308 5.9264V5.93173ZM10.8267 14.837V21.0866C10.8267 21.0866 10.811 21.124 10.79 21.1133C10.27 20.8627 4.55497 18.1218 4.55497 18.1218C4.43416 18.0631 4.33961 17.9565 4.30284 17.8285C4.26081 17.6952 4.27132 17.5619 4.33961 17.4392L8.3527 10.0004C8.49978 9.72845 8.86747 9.70179 9.05657 9.94175C10.9423 12.32 10.8267 14.789 10.8267 14.837ZM28.7439 14.837V36.6841C28.7439 37.1747 28.3499 37.5746 27.8667 37.5746H12.9541C12.1294 37.5746 11.4676 36.8974 11.4676 36.0655V22.1585C11.4676 22.1585 11.4676 22.1425 11.4676 22.1318V14.8583C11.4728 14.7303 11.6094 11.9681 9.39275 9.33918C8.33694 8.54997 14.2778 6.25168 14.2778 6.25168C14.5037 6.1397 14.7716 6.26767 14.8293 6.51297C15.3441 8.79527 17.5975 10.5123 20.2869 10.5123C22.9763 10.5123 25.13 8.86459 25.7078 6.65695C25.7708 6.41698 26.0387 6.29434 26.2593 6.40632C26.2593 6.40632 31.5646 8.57664 31.0551 9.07789C28.602 11.7761 28.7491 14.725 28.7544 14.8316L28.7439 14.837ZM35.9034 17.8285C35.8613 17.9618 35.772 18.0631 35.6512 18.1218C35.6512 18.1218 30.5823 20.5534 29.558 21.0493C29.474 21.092 29.3794 21.028 29.3794 20.932V14.821C29.3794 14.821 29.2744 12.5067 30.9448 10.2137C31.2179 9.8351 31.7957 9.89376 32.0163 10.3044L35.8718 17.4445C35.9349 17.5672 35.9506 17.7005 35.9086 17.8338L35.9034 17.8285Z" fill="#433F40" style="fill:#433F40;fill:color(display-p3 0.2627 0.2471 0.2510);fill-opacity:1;"/>
<path d="M22.2617 16.4635L24.1947 18.4258C24.2682 18.5005 24.3891 18.5005 24.4626 18.4258L26.3956 16.4635C26.4691 16.3888 26.4691 16.2662 26.3956 16.1915L24.5887 14.3571C24.4468 14.2132 24.2157 14.2132 24.0686 14.3571L22.2617 16.1915C22.1882 16.2662 22.1882 16.3888 22.2617 16.4635ZM24.1947 17.5193L23.1494 16.4581C23.0759 16.3835 23.0759 16.2608 23.1494 16.1862L24.326 14.9917L25.5026 16.1862C25.5762 16.2608 25.5762 16.3835 25.5026 16.4581L24.4573 17.5193C24.3838 17.5939 24.263 17.5939 24.1895 17.5193H24.1947Z" fill="#433F40" style="fill:#433F40;fill:color(display-p3 0.2627 0.2471 0.2510);fill-opacity:1;"/>
</svg>
