<svg width="81" height="80" viewBox="0 0 81 80" fill="none" xmlns="http://www.w3.org/2000/svg">
<path d="M69.0506 72.5057L59.2631 10.705L58.6505 3.20166H43.312H36.1915H20.853L20.3298 10.1946L13.49 72.5057L35.949 75.8107L39.7518 28.902L46.5916 75.8107L69.0506 72.5057Z" fill="#9E8EF5" style="fill:#9E8EF5;fill:color(display-p3 0.6196 0.5569 0.9608);fill-opacity:1;"/>
<path d="M59.9521 10.5904L59.4544 4.41412C59.3651 3.32945 58.4591 2.5 57.3744 2.5H21.4272C20.7253 2.5 20.1511 3.03595 20.1001 3.72504L19.6152 10.1182L12.9157 71.1022C12.7881 72.2124 13.5793 73.2332 14.6895 73.3864L35.8342 76.5C35.8342 76.5 35.898 76.5 35.9362 76.5C36.0894 76.5 36.2553 76.449 36.3701 76.3469C36.5232 76.2193 36.6253 76.0406 36.6381 75.8492L39.6496 38.779C39.6879 38.2941 40.4025 38.2686 40.4663 38.7535L45.8769 75.9002C45.9024 76.0789 46.0045 76.2575 46.1577 76.3596C46.3108 76.4745 46.5022 76.5128 46.6809 76.4872L69.1399 73.1822C69.3313 73.1567 69.4972 73.0546 69.612 72.9014C69.7269 72.7483 69.7652 72.5569 69.7397 72.3783L59.9649 10.6797C59.9649 10.6797 59.9649 10.6159 59.9649 10.5776L59.9521 10.5904ZM48.5567 74.8028C47.8038 74.9177 47.102 74.3945 46.9871 73.6416L40.4536 28.8001C40.4025 28.4555 40.109 28.2003 39.7517 28.2003H39.7262C39.3689 28.2003 39.0754 28.4938 39.0499 28.8511L35.5024 72.5952C35.4003 73.9096 34.2008 74.8539 32.8992 74.6624L15.57 72.1103C14.8298 72.0082 14.3194 71.3319 14.396 70.5917L21.0316 10.2458L21.4144 5.17977C21.4655 4.46517 22.0652 3.90369 22.7926 3.90369H55.5496C56.9406 3.90369 58.089 4.9756 58.2039 6.35377L58.5612 10.7563C58.5612 10.7563 58.5612 10.8201 58.5612 10.8583L67.8383 69.4433C68.0552 70.7959 67.1237 72.072 65.7583 72.2634L48.5312 74.8028H48.5567Z" fill="#433F40" style="fill:#433F40;fill:color(display-p3 0.2627 0.2471 0.2510);fill-opacity:1;"/>
<path d="M35.5406 9.65869L24.7194 10.0032C24.3238 10.0032 24.0176 10.3223 24.0176 10.7051C24.0176 11.0879 24.3366 11.4069 24.7194 11.4069H35.5023C35.8979 11.4069 36.2042 11.0879 36.2042 10.7051C36.2042 10.3223 35.9234 9.65869 35.5406 9.65869Z" fill="#433F40" style="fill:#433F40;fill:color(display-p3 0.2627 0.2471 0.2510);fill-opacity:1;"/>
<path d="M56.0601 11.037C56.2898 10.2076 55.69 10.0034 55.2944 10.0034H44.5115C44.116 10.0034 43.8097 10.3224 43.8097 10.7053C43.8097 11.0881 44.1287 11.4071 44.5115 11.4071H55.2944C55.69 11.4071 55.9452 11.4071 56.0601 11.0243V11.037Z" fill="#433F40" style="fill:#433F40;fill:color(display-p3 0.2627 0.2471 0.2510);fill-opacity:1;"/>
<path d="M38.9223 10.8963C38.5267 10.8325 38.1822 11.1132 38.1311 11.5088L36.8678 21.3601C36.8168 21.743 37.0847 22.1003 37.4803 22.1513C37.5058 22.1513 37.5441 22.1513 37.5696 22.1513C38.884 22.2534 39.1137 18.8335 39.152 18.4762L39.5348 11.6874C39.5859 11.3046 39.3179 10.9473 38.9223 10.8963Z" fill="#433F40" style="fill:#433F40;fill:color(display-p3 0.2627 0.2471 0.2510);fill-opacity:1;"/>
<path d="M41.7934 10.8965C41.4106 10.9475 41.1299 11.3048 41.1809 11.6877L42.457 21.539C42.5081 21.8963 42.8016 22.1515 43.1589 22.1515C43.1844 22.1515 43.2227 22.1388 43.2482 22.1515C43.9628 22.3429 44.0393 20.952 43.312 17.1876L42.5846 11.5218C42.5336 11.1389 42.1763 10.8582 41.7934 10.9092V10.8965Z" fill="#433F40" style="fill:#433F40;fill:color(display-p3 0.2627 0.2471 0.2510);fill-opacity:1;"/>
<path d="M53.4951 13.9973C53.3803 13.6272 53.1761 13.2954 52.7933 13.2954C52.4105 13.2954 52.0914 13.6144 52.0914 13.9973C52.0914 18.2211 54.0311 22.0876 57.3999 24.627C57.5275 24.7163 57.6807 24.7674 57.821 24.7674C58.038 24.7674 58.2421 24.6653 58.3825 24.4866C58.6122 24.1804 58.5484 23.7338 58.2421 23.5041C55.2306 21.2326 55.1157 19.2675 53.4951 14.01V13.9973Z" fill="#433F40" style="fill:#433F40;fill:color(display-p3 0.2627 0.2471 0.2510);fill-opacity:1;"/>
<path d="M26.7102 13.296C26.3146 13.296 26.0084 13.615 26.0084 13.9978C26.0084 17.7623 24.2729 21.2332 21.2613 23.4919C20.9551 23.7216 20.8913 24.1682 21.121 24.4744C21.2613 24.6531 21.4655 24.7552 21.6824 24.7552C21.8356 24.7552 21.9504 24.6531 22.1035 24.6148C25.5745 23.8364 27.412 18.2089 27.412 13.985C27.412 13.5895 27.093 13.2832 26.7102 13.2832V13.296Z" fill="#433F40" style="fill:#433F40;fill:color(display-p3 0.2627 0.2471 0.2510);fill-opacity:1;"/>
<path d="M42.3295 7.54054C42.3295 6.45587 42.3295 5.16702 40.3771 5.58813C38.8203 5.91991 38.4247 6.46863 38.4247 7.54054C38.4247 8.61245 39.3052 9.49294 40.3771 9.49294C41.449 9.49294 42.3295 9.2122 42.3295 7.54054ZM40.3771 8.2679C40.0708 8.2679 39.8284 7.83404 39.8284 7.52778C39.8284 7.22152 39.9177 6.6728 40.5813 6.78765C40.8748 6.83869 40.913 7.22152 40.913 7.52778C40.913 7.83404 40.6706 8.2679 40.3643 8.2679H40.3771Z" fill="#433F40" style="fill:#433F40;fill:color(display-p3 0.2627 0.2471 0.2510);fill-opacity:1;"/>
</svg>
