<svg width="41" height="42" viewBox="0 0 41 42" fill="none" xmlns="http://www.w3.org/2000/svg">
<path d="M21.3829 29.9821L13.6675 36.8777C13.1884 37.3059 12.3733 36.9111 12.5227 36.316L15.9386 22.3801H5.49798C4.91933 22.3801 4.602 21.774 4.97532 21.3792L20.4185 5.02423C20.8913 4.52374 21.7873 4.94637 21.5944 5.57477L18.3216 16.2964H36.1851L21.3829 29.9821Z" fill="#FFBE5C" style="fill:#FFBE5C;fill:color(display-p3 1.0000 0.7451 0.3608);fill-opacity:1;"/>
<path d="M36.1869 15.9654H19.4185C19.1136 15.9654 18.8896 15.704 18.9705 15.4371L22.0318 5.41055C22.0629 5.31045 22.0567 5.19367 21.9944 5.1047C21.5153 4.33728 20.6131 4.29835 20.1278 4.80996L4.6909 21.1649C4.42335 21.4485 4.36735 21.8322 4.54157 22.1714C4.71578 22.5051 5.08288 22.7164 5.49976 22.7164H14.3724C14.9448 22.7164 15.3679 23.1891 15.2435 23.684L12.1636 36.2464C12.064 36.6579 12.2756 37.0694 12.6862 37.2752C12.848 37.353 13.0222 37.3919 13.1964 37.3919C13.4702 37.3919 13.7378 37.2974 13.9369 37.1139L21.6522 30.2182L36.4545 16.5326C36.5603 16.438 36.5851 16.2935 36.5292 16.1711C36.4732 16.0488 36.3363 15.9654 36.1869 15.9654ZM21.1171 29.7511L13.408 36.6412C13.2587 36.7747 13.0907 36.7079 13.0409 36.6857C12.9911 36.6634 12.8418 36.5745 12.8853 36.3854L16.3012 22.4495C16.3261 22.3494 16.3012 22.2493 16.2266 22.1714C16.1581 22.0936 16.0461 22.0491 15.9341 22.0491H5.49976C5.32554 22.0491 5.24466 21.9379 5.21977 21.8878C5.2011 21.8489 5.14511 21.721 5.26332 21.5931L20.7065 5.23816C20.7811 5.16031 20.862 5.13806 20.9305 5.13806C20.9989 5.13806 21.0549 5.16031 21.086 5.17143C21.1358 5.19367 21.2976 5.28821 21.2416 5.48841L17.9688 16.21C17.9376 16.3101 17.9625 16.4158 18.031 16.4992C18.0994 16.5826 18.2114 16.6327 18.3296 16.6327H34.2145C34.6252 16.6327 34.8368 17.0776 34.5505 17.3389L21.1233 29.7511H21.1171Z" fill="#433F40" style="fill:#433F40;fill:color(display-p3 0.2627 0.2471 0.2510);fill-opacity:1;"/>
</svg>
