<?xml version="1.0" encoding="UTF-8"?><svg id="Vecto" xmlns="http://www.w3.org/2000/svg" viewBox="0 0 59.3 59.2"><defs><style>.cls-1{fill:none;}.cls-2{fill:#f9cd49;}.cls-3{fill:#fff;}.cls-4{fill:#433f40;}</style></defs><path class="cls-2" d="M12.1,23.8h4.5c.83,0,1.5-.67,1.5-1.5,0-.83-.67-1.5-1.5-1.5h-4.5c-4.69,0-8.5-3.81-8.5-8.5v-3.1h10c.83,0,1.5-.67,1.5-1.5,0-.83-.67-1.5-1.5-1.5H2.1c-.83,0-1.5.67-1.5,1.5v4.6c0,6.34,5.16,11.5,11.5,11.5Z"/><path class="cls-2" d="M47.17,24h-4.47c-.83,0-1.5-.67-1.5-1.5s.67-1.5,1.5-1.5h4.47c4.71,0,8.53-3.82,8.53-8.53v-3.04s-.01-.03-.03-.03h-9.97c-.83,0-1.5-.67-1.5-1.5s.67-1.5,1.5-1.5h11.47c.85,0,1.53.69,1.53,1.53v4.54c0,6.37-5.16,11.53-11.53,11.53Z"/><rect class="cls-3" x="12.2" y="44.1" width="34.8" height="14.5"/><path class="cls-2" d="M38.3,44.1h-17.4l1.41-4.22c.51-1.53.77-3.13.77-4.74v-4.09h13.05v4.09c0,1.61.26,3.21.77,4.74l1.41,4.22Z"/><path class="cls-2" d="M29.6,32.5h0c-9.61,0-17.4-7.79-17.4-17.4V.6h34.8v14.5c0,9.61-7.79,17.4-17.4,17.4Z"/><path class="cls-1" d="M41.8,22.5c0,.5.4.9.9.9h1.42c.34-.58.66-1.18.93-1.8h-2.34c-.5,0-.9.4-.9.9Z"/><path class="cls-1" d="M12.8,58h33.6v-13.3H12.8v13.3ZM20.9,49.3h17.4c.33,0,.6.27.6.6s-.27.6-.6.6h-17.4c-.33,0-.6-.27-.6-.6s.27-.6.6-.6ZM20.9,52.2h17.4c.33,0,.6.27.6.6s-.27.6-.6.6h-17.4c-.33,0-.6-.27-.6-.6s.27-.6.6-.6Z"/><path class="cls-1" d="M22.88,40.07l-1.14,3.43h15.74l-1.14-3.43c-.53-1.59-.8-3.25-.8-4.93v-3.07c-2.05.72-4.27,1.1-6.58,1.01-1.85-.07-3.61-.42-5.27-1.01v3.07c0,1.68-.27,3.34-.8,4.93Z"/><path class="cls-1" d="M55.67,8.8c.35,0,.63.28.63.63v3.03c0,5.04-4.09,9.13-9.13,9.13h-.8c-.24.62-.51,1.22-.81,1.8h1.62c6.04,0,10.93-4.89,10.93-10.93v-4.53c0-.51-.42-.93-.93-.93h-9.57v1.8h8.07Z"/><path class="cls-1" d="M44.8,7.9c0,.5.4.9.9.9h.7v-1.8h-.7c-.5,0-.9.4-.9.9Z"/><path class="cls-1" d="M4.2,10.78v1.52c0,4.36,3.54,7.9,7.9,7.9h.36c-.55-1.77-.86-3.64-.86-5.58v-4.82h-6.42c-.54,0-.98.44-.98.98Z"/><path class="cls-1" d="M1.2,7.7v4.6c0,6.02,4.88,10.9,10.9,10.9h1.58c-.3-.58-.56-1.19-.8-1.8h-.78c-5.03,0-9.1-4.07-9.1-9.1v-3.1c0-.33.27-.6.6-.6h8v-1.8H2.1c-.5,0-.9.41-.9.9Z"/><path class="cls-1" d="M55.1,12.47v-.93c0-.85-.69-1.54-1.54-1.54h-5.96v5.1c0,1.84-.29,3.62-.8,5.3h.37c4.38,0,7.93-3.55,7.93-7.93Z"/><path class="cls-1" d="M17.5,22.3c0-.5-.4-.9-.9-.9h-2.44c.26.62.55,1.22.88,1.8h1.57c.5,0,.9-.4.9-.9Z"/><path class="cls-1" d="M40.61,22.69c-.11-1.24.87-2.29,2.09-2.29h2.8c.57-1.66.9-3.43.9-5.3v-5.1h-.55c-1.11,0-2.14-.8-2.24-1.91-.11-1.24.87-2.29,2.09-2.29h.7v-1.41c0-1.76-1.43-3.19-3.19-3.19H14.28c-.82,0-1.48.66-1.48,1.48v2.92h.68c1.1,0,2.1.79,2.21,1.88.13,1.26-.86,2.32-2.09,2.32h-.8v4.79c0,1.98.33,3.86.91,5.61h2.77c1.1,0,2.1.79,2.21,1.88.13,1.26-.86,2.32-2.09,2.32h-.82c1.85,2.72,4.46,4.83,7.53,6.05h12.44c3.07-1.19,5.69-3.24,7.57-5.85h-.48c-1.11,0-2.14-.8-2.24-1.91Z"/><path class="cls-1" d="M14.5,7.7c0-.5-.4-.9-.9-.9h-.8v1.8h.8c.5,0,.9-.4.9-.9Z"/><path class="cls-4" d="M57.01,5.8h-9.26c-.09,0-.16-.07-.16-.16V.79c0-.44-.35-.79-.79-.79H12.39c-.44,0-.79.35-.79.79v4.65c0,.09-.07.16-.16.16H2.25C1.01,5.6,0,6.61,0,7.86v4.29c0,6.77,5.49,12.26,12.25,12.26h1.66c.28,0,.53.14.69.38,1.82,2.83,4.38,5.13,7.42,6.59.28.13.45.4.45.71v3.04c0,1.56-.25,3.12-.75,4.6l-1.23,3.68c-.02.06-.08.11-.15.11h-7.48c-.71,0-1.28.57-1.28,1.28v13.09c0,.73.59,1.33,1.33,1.33h33.92c.42,0,.75-.34.75-.75v-13.44c0-.83-.67-1.5-1.5-1.5h-6.27c-.65,0-1.23-.42-1.44-1.04l-.92-2.75c-.49-1.48-.75-3.04-.75-4.6v-3.41c0-.06.04-.11.09-.14,3-1.32,5.57-3.43,7.45-6.08.39-.55,1-.89,1.67-.89h1.08c6.79,0,12.29-5.5,12.29-12.29v-4.22c0-1.26-1.02-2.29-2.29-2.29ZM47.6,15.1v-4.95c0-.09.07-.16.16-.16h5.65c.94,0,1.7.76,1.7,1.7v.62c0,4.47-3.62,8.09-8.09,8.09h0c-.11,0-.18-.1-.15-.21.48-1.62.74-3.32.74-5.09ZM12.25,20.2h0c-4.45,0-8.06-3.61-8.06-8.06v-1.21c0-.63.51-1.14,1.14-1.14h5.62c.35,0,.64.29.64.64v4.18c0,1.86.28,3.67.8,5.38.03.1-.04.2-.15.2ZM12.25,23.2c-6.11,0-11.06-4.95-11.06-11.06v-4.29c0-.58.48-1.06,1.06-1.06h8.76c.32,0,.58.26.58.58v.25c0,.54-.44.97-.97.97H3.75c-.42,0-.75.34-.75.75v2.79c0,5.11,4.14,9.25,9.25,9.25h.52c.06,0,.12.04.14.1.2.5.41,1,.65,1.48.05.1-.02.22-.14.22h-1.18ZM46.4,44.85v12.15c0,.55-.44.99-.99.99H14.24c-.8,0-1.44-.65-1.44-1.44v-10.9c0-.53.43-.96.96-.96h32.49c.09,0,.16.07.16.16ZM36.33,40.1l1.07,3.2c.03.1-.04.2-.15.2h-14.24c-.63,0-1.08-.62-.88-1.22l.73-2.18c.54-1.61.81-3.29.81-4.99v-2.83c0-.11.1-.18.2-.14,1.6.55,3.29.88,5.07.94,1.96.07,3.84-.19,5.62-.7.48-.14.97.24.97.74v2c0,1.69.27,3.37.81,4.98ZM44.12,23.4c-.24.41-.51.81-.79,1.2-1.88,2.61-4.51,4.66-7.57,5.85-1.54.6-3.19,1-4.91,1.13-2.69.21-5.24-.22-7.53-1.13-3.07-1.22-5.68-3.33-7.53-6.05-.26-.39-.52-.79-.75-1.2-.33-.58-.62-1.18-.88-1.8-.16-.39-.31-.79-.45-1.2-.58-1.75-.91-3.64-.91-5.61V2.84c0-.9.73-1.64,1.64-1.64h28.61c1.85,0,3.35,1.5,3.35,3.35v10.55c0,1.87-.33,3.64-.9,5.3-.14.41-.29.81-.46,1.2-.27.62-.58,1.22-.93,1.8ZM58.1,12.31c0,6.12-4.96,11.09-11.09,11.09h-.27c-.54,0-.91-.55-.69-1.04.05-.1.09-.21.13-.31.11-.27.37-.44.66-.44h.17c5.13,0,9.29-4.16,9.29-9.29v-2.72c0-.43-.35-.79-.79-.79h-7.36c-.31,0-.55-.25-.55-.55v-.61c0-.35.29-.64.64-.64h8.77c.6,0,1.09.49,1.09,1.09v4.22Z"/><path class="cls-4" d="M20.3,49.9c0,.33.18.66.51.66l17.49-.06c.33,0,.6-.27.6-.6s-.27-.6-.6-.6l-17.41-.13c-.33,0-.59.4-.59.73Z"/><path class="cls-4" d="M38.3,52.2h-17.4c-.33,0-.6.27-.6.6s.31.68.64.68l17.35.08c.33,0,.61-.42.61-.76s-.27-.6-.6-.6Z"/></svg>