<svg width="41" height="42" viewBox="0 0 41 42" fill="none" xmlns="http://www.w3.org/2000/svg">
<path d="M36.2552 8.89288C36.2552 7.40837 35.0793 6.20312 33.631 6.20312H31.0212C25.2352 6.29866 20.2163 6.29866 14.6956 6.20312C14.6239 6.20312 14.5522 6.20312 14.4805 6.20312H7.38953C5.94123 6.20312 4.76538 7.40837 4.76538 8.89288V29.7054C4.76538 29.8744 4.90161 30.0141 5.06651 30.0141H12.0212C12.0929 30.0141 12.1575 30.0141 12.2292 30.0141C17.3556 29.8156 23.0914 29.8156 28.1605 30.0141C28.2322 30.0141 28.3039 30.0141 28.3756 30.0141H35.9612C36.1261 30.0141 36.2624 29.8744 36.2624 29.7054V8.89288H36.2552ZM33.6741 26.9716C33.6741 27.3831 33.3442 27.7212 32.9427 27.7212H24.9627C24.891 27.7212 24.8122 27.7212 24.7405 27.7212C21.6575 27.6109 18.0726 27.6109 15.391 27.7212H8.07783C7.67632 27.7212 7.34651 27.3831 7.34651 26.9716V9.24564C7.34651 8.83409 7.67632 8.49603 8.07783 8.49603H17.4273C17.5061 8.49603 17.585 8.49603 17.6567 8.49603C20.9333 8.50338 23.8012 8.50338 27.7231 8.49603C27.7876 8.49603 27.8522 8.49603 27.9239 8.49603H32.9356C33.3371 8.49603 33.6669 8.83409 33.6669 9.24564V26.9716H33.6741Z" fill="#95CD87" style="fill:#95CD87;fill:color(display-p3 0.5843 0.8039 0.5294);fill-opacity:1;"/>
<path d="M32.5128 9.37799H8.50829C8.34197 9.37799 8.20715 9.51618 8.20715 9.68665V26.5307C8.20715 26.7012 8.34197 26.8393 8.50829 26.8393H32.5128C32.6791 26.8393 32.8139 26.7012 32.8139 26.5307V9.68665C32.8139 9.51618 32.6791 9.37799 32.5128 9.37799Z" fill="#D7D8D8" style="fill:#D7D8D8;fill:color(display-p3 0.8431 0.8471 0.8471);fill-opacity:1;"/>
<path d="M32.9433 8.49609H27.9316C27.8671 8.49609 27.8025 8.49609 27.7309 8.49609C23.809 8.50344 20.941 8.50344 17.6644 8.49609C17.5856 8.49609 17.5067 8.49609 17.435 8.49609H8.08557C7.68406 8.49609 7.35425 8.83415 7.35425 9.2457V26.9716C7.35425 27.3832 7.68406 27.7212 8.08557 27.7212H15.3988C18.0803 27.611 21.6652 27.611 24.7482 27.7212C24.8271 27.7212 24.8988 27.7212 24.9705 27.7212H32.9505C33.352 27.7212 33.6818 27.3832 33.6818 26.9716V9.2457C33.6818 8.83415 33.352 8.49609 32.9505 8.49609H32.9433ZM31.3301 26.8393H9.69161C8.87425 26.8393 8.20746 26.1559 8.20746 25.3181V11.2814C8.20746 10.2305 9.03915 9.37798 10.0644 9.37798H30.5916C31.8176 9.37798 32.8142 10.3995 32.8142 11.6562V25.3181C32.8142 26.1559 32.1475 26.8393 31.3301 26.8393Z" fill="#433F40" style="fill:#433F40;fill:color(display-p3 0.2627 0.2471 0.2510);fill-opacity:1;"/>
<path d="M4.33565 30.896H2.12017C1.97678 30.896 1.86206 31.0136 1.86206 31.1606V31.5574C1.86206 33.8209 3.65451 35.6582 5.86282 35.6582H34.8074C37.2092 35.6582 39.1523 33.6666 39.1523 31.2047C39.1523 31.0357 39.016 30.896 38.8511 30.896H28.4406C22.3677 30.5506 17.3489 30.5506 11.9428 30.896C11.8711 30.896 11.8066 30.896 11.7349 30.896H4.33565Z" fill="#95CD87" style="fill:#95CD87;fill:color(display-p3 0.5843 0.8039 0.5294);fill-opacity:1;"/>
<path d="M39.2813 30.0142H37.41C37.2451 30.0142 37.1089 29.8745 37.1089 29.7055V8.89299C37.1089 6.92344 35.5458 5.32135 33.6243 5.32135H31.0145C25.2285 5.56387 20.2096 5.56387 14.4738 5.32135H7.38281C5.4613 5.32135 3.89828 6.92344 3.89828 8.89299V29.7055C3.89828 29.8745 3.76205 30.0142 3.59715 30.0142H2.50017C1.66847 30.0142 0.994507 30.705 0.994507 31.5575C0.994507 34.306 3.17413 36.5401 5.85564 36.5401H34.8002C37.6753 36.5401 40.0055 34.1517 40.0055 31.2047V30.7638C40.0055 30.3522 39.6756 30.0142 39.2741 30.0142H39.2813ZM4.76583 8.89299C4.76583 7.40848 5.94168 6.20324 7.38998 6.20324H14.4809C14.5526 6.20324 14.6243 6.20324 14.696 6.20324C20.2239 6.29877 25.2428 6.29877 31.0217 6.20324H33.6315C35.0798 6.20324 36.2556 7.40848 36.2556 8.89299V29.7055C36.2556 29.8745 36.1194 30.0142 35.9545 30.0142H28.3688C28.2971 30.0142 28.2255 30.0142 28.1538 30.0142C23.0847 29.8158 17.3488 29.8158 12.2224 30.0142C12.1507 30.0142 12.0862 30.0142 12.0145 30.0142H5.06696C4.90205 30.0142 4.76583 29.8745 4.76583 29.7055V8.89299ZM39.1522 31.2047C39.1522 33.6667 37.2092 35.6583 34.8073 35.6583H5.86281C3.65451 35.6583 1.86205 33.821 1.86205 31.5575V31.1606C1.86205 31.0136 1.97677 30.8961 2.12017 30.8961H11.7349C11.8066 30.8961 11.8711 30.8961 11.9428 30.8961C17.356 30.5507 22.3749 30.5507 28.4405 30.8961H38.8511C39.016 30.8961 39.1522 31.0357 39.1522 31.2047Z" fill="#433F40" style="fill:#433F40;fill:color(display-p3 0.2627 0.2471 0.2510);fill-opacity:1;"/>
</svg>
