<svg width="40" height="42" viewBox="0 0 40 42" fill="none" xmlns="http://www.w3.org/2000/svg">
<g clip-path="url(#clip0_147_81)">
<path d="M49.4765 24.0403C46.8981 24.0403 45.5922 24.6391 44.3332 25.2243C43.1277 25.7823 41.9892 26.3063 39.652 26.3063C37.3147 26.3063 36.1763 25.7823 34.9708 25.2243C33.7118 24.6459 32.4059 24.0403 29.8275 24.0403C27.2492 24.0403 25.9433 24.6391 24.6842 25.2243C23.4788 25.7823 22.3403 26.3063 20.003 26.3063C17.6658 26.3063 16.5273 25.7823 15.3218 25.2243C14.0628 24.6459 12.7569 24.0403 10.1786 24.0403C7.60022 24.0403 6.301 24.6391 5.03527 25.2243C3.82982 25.7823 2.69133 26.3063 0.354082 26.3063C-1.98317 26.3063 -3.12165 25.7823 -4.32711 25.2243C-5.58614 24.6459 -6.89206 24.0403 -9.4704 24.0403C-9.77846 24.0403 -10.0262 24.2921 -10.0262 24.6051V33.7644C-10.0262 34.0774 -9.77846 34.3292 -9.4704 34.3292C-7.13315 34.3292 -5.99466 34.8531 -4.7892 35.4111C-3.53017 35.9895 -2.22426 36.5952 0.354082 36.5952C2.93242 36.5952 4.23164 35.9963 5.49737 35.4111C6.70282 34.8531 7.84131 34.3292 10.1786 34.3292C12.5158 34.3292 13.6543 34.8531 14.8598 35.4111C16.1188 35.9895 17.4247 36.5952 20.003 36.5952C22.5814 36.5952 23.8873 35.9963 25.1463 35.4111C26.3518 34.8531 27.4903 34.3292 29.8275 34.3292C32.1648 34.3292 33.3032 34.8531 34.5087 35.4111C35.7677 35.9895 37.0737 36.5952 39.652 36.5952C42.2303 36.5952 43.5362 35.9963 44.7953 35.4111C46.0007 34.8531 47.1392 34.3292 49.4765 34.3292C49.7845 34.3292 50.0323 34.0774 50.0323 33.7644V24.6051C50.0323 24.2921 49.7845 24.0403 49.4765 24.0403Z" fill="#A2D2FD" style="fill:#A2D2FD;fill:color(display-p3 0.6353 0.8235 0.9922);fill-opacity:1;"/>
<path d="M49.4771 5.78955C46.8987 5.78955 45.5928 6.38837 44.3338 6.97359C43.1283 7.53158 41.9898 8.05555 39.6526 8.05555C37.3153 8.05555 36.1768 7.53158 34.9714 6.97359C33.7124 6.39518 32.4064 5.78955 29.8281 5.78955C27.2498 5.78955 25.9439 6.38837 24.6848 6.97359C23.4794 7.53158 22.3409 8.05555 20.0036 8.05555C17.6664 8.05555 16.5279 7.53158 15.3224 6.97359C14.0634 6.39518 12.7575 5.78955 10.1792 5.78955C7.60081 5.78955 6.3016 6.38837 5.03587 6.97359C3.83041 7.53158 2.69192 8.05555 0.354676 8.05555C-1.98257 8.05555 -3.12106 7.53158 -4.32652 6.97359C-5.59225 6.39518 -6.89816 5.78955 -9.4765 5.78955C-9.78456 5.78955 -10.0323 6.04133 -10.0323 6.35435V15.5136C-10.0323 15.8267 -9.78456 16.0784 -9.4765 16.0784C-7.13925 16.0784 -6.00076 16.6024 -4.79531 17.1604C-3.53627 17.7388 -2.23036 18.3444 0.347979 18.3444C2.92632 18.3444 4.22553 17.7456 5.49126 17.1604C6.69672 16.6024 7.83521 16.0784 10.1725 16.0784C12.5097 16.0784 13.6482 16.6024 14.8536 17.1604C16.1127 17.7388 17.4186 18.3444 19.9969 18.3444C22.5753 18.3444 23.8812 17.7456 25.1402 17.1604C26.3457 16.6024 27.4842 16.0784 29.8214 16.0784C32.1587 16.0784 33.2971 16.6024 34.5026 17.1604C35.7616 17.7388 37.0676 18.3444 39.6459 18.3444C42.2242 18.3444 43.5301 17.7456 44.7892 17.1604C45.9946 16.6024 47.1331 16.0784 49.4704 16.0784C49.7784 16.0784 50.0262 15.8267 50.0262 15.5136V6.35435C50.0262 6.04133 49.7784 5.78955 49.4704 5.78955H49.4771Z" fill="#A2D2FD" style="fill:#A2D2FD;fill:color(display-p3 0.6353 0.8235 0.9922);fill-opacity:1;"/>
<path d="M39.6457 8.87205C37.1008 8.87205 35.815 8.28003 34.5694 7.70162C33.3438 7.13682 32.1919 6.60605 29.8212 6.60605C27.4505 6.60605 26.2986 7.13682 25.073 7.70162C23.8274 8.27323 22.5349 8.87205 19.9967 8.87205C17.4586 8.87205 16.1661 8.28003 14.9204 7.70162C13.6949 7.13682 12.6501 6.71492 10.2794 6.71492C7.90867 6.71492 6.64964 7.14363 5.43079 7.70162C4.18515 8.27323 2.89933 8.87205 0.354472 8.87205C-2.19038 8.87205 -3.4762 8.28003 -4.72184 7.70162C-5.94739 7.13682 -7.09927 6.60605 -9.47001 6.60605C-9.69101 6.60605 -9.87183 6.42232 -9.87183 6.19776C-9.87183 5.9732 -9.6977 5.78947 -9.4767 5.78947C-6.93185 5.78947 -5.64603 6.38149 -4.40039 6.9599C-3.17484 7.5247 -2.02296 7.84452 0.347775 7.84452C2.71851 7.84452 3.87039 7.51789 5.08924 6.9599C6.33488 6.38829 7.6274 5.78947 10.1656 5.78947C12.7037 5.78947 13.9962 6.38149 15.2419 6.9599C16.4674 7.5247 17.6193 8.05547 19.99 8.05547C22.3608 8.05547 23.5126 7.5247 24.7382 6.9599C25.9838 6.38829 27.2764 5.55811 29.8145 5.55811C32.3527 5.55811 33.6452 6.38829 34.8908 6.9599C36.1164 7.5247 37.2683 8.05547 39.639 8.05547C42.0097 8.05547 43.1616 7.5247 44.3872 6.9599C45.6328 6.38829 46.9253 5.78947 49.4635 5.78947C49.6845 5.78947 49.8653 5.9732 49.8653 6.19776C49.8653 6.42232 49.6845 6.60605 49.4635 6.60605C47.0927 6.60605 46.3159 7.33416 45.0903 7.89896C43.8447 8.47057 42.1772 8.87205 39.639 8.87205H39.6457Z" fill="#301F2F" style="fill:#301F2F;fill:color(display-p3 0.1882 0.1216 0.1843);fill-opacity:1;"/>
<path d="M39.6461 18.3443C37.1013 18.3443 35.8154 17.7523 34.5698 17.1739C33.3442 16.6091 32.1924 16.0783 29.8216 16.0783C27.4509 16.0783 26.299 16.6091 25.0735 17.1739C23.8278 17.7455 22.5353 18.3443 19.9971 18.3443C17.459 18.3443 16.1665 17.7523 14.9208 17.1739C13.6953 16.6091 12.5434 16.0783 10.1727 16.0783C7.80194 16.0783 6.65006 16.6091 5.4312 17.1739C4.18557 17.7455 2.89974 18.3443 0.354889 18.3443C-2.18997 18.3443 -3.47579 17.7523 -4.72143 17.1739C-5.94697 16.6091 -7.28637 16.3981 -9.65711 16.3981C-9.87811 16.3981 -9.86471 15.8946 -9.86471 15.67C-9.86471 15.4454 -9.68389 15.2617 -9.46289 15.2617C-6.91804 15.2617 -5.63222 15.8537 -4.38658 16.4321C-3.16103 16.9969 -2.69224 16.7316 -0.361689 17.1943C2.35729 17.7319 3.8842 16.9969 5.10975 16.4321C6.35539 15.8605 7.64791 15.2617 10.1861 15.2617C12.7242 15.2617 14.0167 15.8537 15.2624 16.4321C16.4879 16.9969 17.6398 17.5277 20.0105 17.5277C22.3813 17.5277 23.5332 16.9969 24.7587 16.4321C26.0043 15.8605 27.2969 15.2617 29.835 15.2617C32.3732 15.2617 33.6657 15.8537 34.9113 16.4321C36.1369 16.9969 37.2888 17.5277 39.6595 17.5277C42.0302 17.5277 43.1821 16.9969 44.4077 16.4321C45.6533 15.8605 46.9458 15.2617 49.484 15.2617C49.705 15.2617 49.8858 15.4454 49.8858 15.67C49.8858 15.8946 49.705 16.0783 49.484 16.0783C47.1132 16.0783 45.9614 16.6091 44.7358 17.1739C43.4902 17.7455 42.1977 18.3443 39.6595 18.3443H39.6461Z" fill="#301F2F" style="fill:#301F2F;fill:color(display-p3 0.1882 0.1216 0.1843);fill-opacity:1;"/>
<path d="M39.6457 27.1161C37.1008 27.1161 35.815 26.5241 34.5694 25.9457C33.3438 25.3809 32.1919 24.8501 29.8212 24.8501C27.4505 24.8501 26.2986 25.3809 25.073 25.9457C23.8274 26.5173 22.5349 27.1161 19.9967 27.1161C17.4586 27.1161 16.166 26.5241 14.9204 25.9457C13.6949 25.3809 12.543 24.8501 10.1723 24.8501C7.80152 24.8501 6.64964 25.3809 5.43079 25.9457C4.18515 26.5173 2.89933 27.1161 0.354471 27.1161C-2.19038 27.1161 -3.4762 26.5241 -4.72184 25.9457C-5.94739 25.3809 -7.09927 24.8501 -9.47001 24.8501C-9.69101 24.8501 -9.87183 24.6664 -9.87183 24.4418C-9.87183 24.2172 -9.53028 23.7885 -9.30928 23.7885C-6.76443 23.7885 -5.63933 24.6323 -4.39369 25.2039C-3.16814 25.7687 -2.01626 26.2995 0.354471 26.2995C2.7252 26.2995 3.87708 25.7687 5.09594 25.2039C6.34158 24.6323 7.63409 24.0335 10.1723 24.0335C12.7104 24.0335 14.0029 24.6255 15.2486 25.2039C16.4741 25.7687 17.626 26.2995 19.9967 26.2995C22.3675 26.2995 23.5193 25.7687 24.7449 25.2039C25.9905 24.6323 27.283 23.353 29.8212 23.353C32.3594 23.353 33.6519 24.6255 34.8975 25.2039C36.1231 25.7687 37.275 26.2995 39.6457 26.2995C42.0164 26.2995 43.1683 25.7687 44.3938 25.2039C45.6395 24.6323 46.932 24.0335 49.4702 24.0335C49.6912 24.0335 49.872 24.2172 49.872 24.4418C49.872 24.6664 49.6912 24.8501 49.4702 24.8501C47.0994 24.8501 45.9475 25.3809 44.722 25.9457C43.4764 26.5173 42.1838 27.1161 39.6457 27.1161Z" fill="#301F2F" style="fill:#301F2F;fill:color(display-p3 0.1882 0.1216 0.1843);fill-opacity:1;"/>
<path d="M39.8271 36.9079C37.2822 36.9079 35.8156 35.9144 34.5632 35.3428C33.3377 34.778 32.1858 34.2472 29.8151 34.2472C27.4444 34.2472 26.2925 34.778 25.0669 35.3428C23.8213 35.9144 22.5288 36.5133 19.9906 36.5133C17.4525 36.5133 16.1599 35.9212 14.9143 35.3428C13.6887 34.778 12.2422 34.5603 9.87146 34.5603C7.50073 34.5603 6.64352 34.7848 5.41797 35.3428C4.17233 35.9144 2.88651 36.5133 0.341653 36.5133C-2.2032 36.5133 -3.48902 35.9212 -4.73466 35.3428C-5.96021 34.778 -7.11209 34.2472 -9.48282 34.2472C-9.70382 34.2472 -9.88464 34.0635 -9.88464 33.839C-9.88464 33.6144 -9.70382 33.4307 -9.48282 33.4307C-6.93797 33.4307 -5.65215 34.0227 -4.40651 34.6011C-3.18096 35.1659 -2.02908 35.6967 0.341653 35.6967C2.71239 35.6967 3.86427 35.1659 5.08312 34.6011C6.32876 34.0295 7.62128 33.4307 10.1594 33.4307C12.6976 33.4307 13.9901 34.0227 15.2357 34.6011C16.4613 35.1659 17.6132 35.6967 19.9839 35.6967C22.3546 35.6967 23.5065 35.1659 24.7321 34.6011C25.9777 34.0295 27.2702 33.4307 29.8084 33.4307C32.3465 33.4307 33.6391 34.0227 34.8847 34.6011C36.1103 35.1659 37.2621 35.6967 39.6329 35.6967C42.0036 35.6967 43.1555 35.1659 44.381 34.6011C45.6267 34.0295 46.9192 33.4307 49.4573 33.4307C49.6783 33.4307 49.8592 33.6144 49.8592 33.839C49.8592 34.0635 49.6783 34.2472 49.4573 34.2472C47.0866 34.2472 45.9347 34.778 44.7092 35.3428C43.4635 35.9144 42.3518 36.9079 39.8137 36.9079H39.8271Z" fill="#301F2F" style="fill:#301F2F;fill:color(display-p3 0.1882 0.1216 0.1843);fill-opacity:1;"/>
</g>
<defs>
<clipPath id="clip0_147_81">
<rect width="39.9932" height="40.993" fill="white" style="fill:white;fill-opacity:1;" transform="translate(0.00341797 0.434082)"/>
</clipPath>
</defs>
</svg>
