<svg width="24" height="24" viewBox="0 0 24 24" fill="none" xmlns="http://www.w3.org/2000/svg">
<path fill-rule="evenodd" clip-rule="evenodd" d="M6.75879 3H17.2414C18.0464 2.99999 18.7107 2.99998 19.2519 3.04419C19.814 3.09012 20.3307 3.18868 20.816 3.43597C21.5687 3.81947 22.1806 4.43139 22.5641 5.18404C22.8027 5.65238 22.9029 6.14994 22.9509 6.68931C23.0043 6.8527 23.0137 7.02505 22.9819 7.18959C23.0001 7.63971 23.0001 8.16035 23.0001 8.75868V15.2413C23.0001 16.0463 23.0001 16.7106 22.9559 17.2518C22.91 17.8139 22.8114 18.3306 22.5641 18.816C22.1806 19.5686 21.5687 20.1805 20.816 20.564C20.3307 20.8113 19.814 20.9099 19.2519 20.9558C18.7107 21 18.0464 21 17.2414 21H6.75876C5.9538 21 5.28945 21 4.74826 20.9558C4.18616 20.9099 3.66946 20.8113 3.18412 20.564C2.43148 20.1805 1.81955 19.5686 1.43606 18.816C1.18877 18.3306 1.0902 17.8139 1.04428 17.2518C1.00006 16.7106 1.00007 16.0463 1.00009 15.2413V8.7587C1.00008 8.16037 1.00007 7.63972 1.01822 7.1896C0.986466 7.02505 0.995839 6.85269 1.0493 6.6893C1.09729 6.14993 1.19743 5.65238 1.43606 5.18404C1.81955 4.43139 2.43148 3.81947 3.18412 3.43597C3.66946 3.18868 4.18616 3.09012 4.74826 3.04419C5.28946 2.99998 5.95382 2.99999 6.75879 3ZM3.00009 8.92066V15.2C3.00009 15.5832 3.00024 15.9115 3.00371 16.1976L7.54106 12.0993L3.00009 8.92066ZM9.69856 11.1683L3.08286 6.53728C3.11858 6.33012 3.16506 6.19607 3.21807 6.09202C3.40982 5.7157 3.71578 5.40973 4.0921 5.21799C4.2485 5.1383 4.47271 5.07337 4.91112 5.03755C5.36121 5.00078 5.94351 5 6.80009 5H17.2001C18.0567 5 18.639 5.00078 19.089 5.03755C19.5275 5.07337 19.7517 5.1383 19.9081 5.21799C20.2844 5.40973 20.5904 5.7157 20.7821 6.09202C20.8351 6.19607 20.8816 6.33012 20.9173 6.53728L14.3016 11.1683C14.2901 11.176 14.2786 11.184 14.2673 11.1923L13.2617 11.8962C12.5328 12.4065 12.3783 12.495 12.242 12.529C12.0831 12.5686 11.917 12.5686 11.7582 12.529C11.6218 12.495 11.4674 12.4065 10.7385 11.8962L9.73279 11.1922C9.72152 11.184 9.7101 11.176 9.69856 11.1683ZM9.22208 13.276L3.56121 18.3891C3.71425 18.5476 3.89336 18.6807 4.0921 18.782C4.2485 18.8617 4.47271 18.9266 4.91112 18.9624C5.36121 18.9992 5.94351 19 6.80009 19H17.2001C18.0567 19 18.639 18.9992 19.089 18.9624C19.5275 18.9266 19.7517 18.8617 19.9081 18.782C20.1068 18.6807 20.2859 18.5476 20.439 18.3891L14.7781 13.2761L14.4086 13.5347C14.3698 13.5618 14.3314 13.5888 14.2933 13.6156C13.7486 13.998 13.2704 14.3338 12.7257 14.4696C12.2492 14.5884 11.7509 14.5884 11.2745 14.4696C10.7298 14.3338 10.2515 13.998 9.70689 13.6156C9.66878 13.5888 9.63035 13.5618 9.59154 13.5347L9.22208 13.276ZM16.4591 12.0993L20.9965 16.1976C20.9999 15.9115 21.0001 15.5832 21.0001 15.2V8.92066L16.4591 12.0993Z" fill="black"/>
</svg>
