<svg width="24" height="24" viewBox="0 0 24 24" fill="none" xmlns="http://www.w3.org/2000/svg">
<path fill-rule="evenodd" clip-rule="evenodd" d="M8.00625 2.80243C8.0182 2.8104 8.0302 2.8184 8.04222 2.82642L18.591 9.85893C18.8962 10.0624 19.1792 10.251 19.3965 10.4263C19.6234 10.6092 19.8908 10.8629 20.0447 11.234C20.2481 11.7245 20.2481 12.2758 20.0447 12.7663C19.8908 13.1374 19.6234 13.391 19.3965 13.574C19.1792 13.7493 18.8962 13.9379 18.591 14.1413L8.00628 21.1978C7.63319 21.4466 7.29771 21.6702 7.01305 21.8245C6.72818 21.9789 6.33717 22.1553 5.8808 22.128C5.29705 22.0932 4.75779 21.8046 4.40498 21.3382C4.12916 20.9736 4.05905 20.5504 4.02949 20.2278C3.99994 19.9053 3.99997 19.5021 4 19.0537L4 4.98975C4 4.97529 4 4.96087 4 4.9465C3.99997 4.49811 3.99994 4.09491 4.02949 3.77249C4.05905 3.44983 4.12916 3.02664 4.40498 2.66202C4.75779 2.19565 5.29705 1.90705 5.8808 1.87219C6.33717 1.84494 6.72818 2.02135 7.01305 2.17573C7.29771 2.33 7.63318 2.55368 8.00625 2.80243ZM6.02513 3.91557C6.02378 3.92769 6.02244 3.94081 6.02114 3.95497C6.00101 4.17472 6 4.4843 6 4.98975V19.0105C6 19.5159 6.00101 19.8255 6.02114 20.0453C6.02244 20.0594 6.02378 20.0725 6.02512 20.0847C6.03595 20.0791 6.04761 20.0729 6.06011 20.0661C6.25412 19.961 6.51227 19.7901 6.93282 19.5097L17.4484 12.4993C17.7982 12.2661 18.0033 12.1282 18.141 12.0172C18.1485 12.0111 18.1554 12.0055 18.1618 12.0001C18.1554 11.9948 18.1485 11.9891 18.141 11.9831C18.0033 11.872 17.7982 11.7341 17.4484 11.5009L6.93282 4.49052C6.51227 4.21014 6.25412 4.03926 6.06011 3.93411C6.04761 3.92734 6.03595 3.92118 6.02513 3.91557Z" fill="black"/>
</svg>
