<?xml version="1.0" encoding="UTF-8"?><svg id="Vecto" xmlns="http://www.w3.org/2000/svg" viewBox="0 0 59.2 58.95"><defs><style>.cls-1{fill:none;}.cls-2{fill:#9e8ef5;}.cls-3{fill:#d7d8d8;}.cls-4{fill:#fff;}.cls-5{fill:#433f40;}</style></defs><path class="cls-3" d="M33.63,27.01L47.41,2.93c.34-.6,1.11-.81,1.71-.46s.81,1.11.46,1.71l-13.78,24.09-2.17-1.24Z"/><path class="cls-4" d="M52.8,33.12c-.06-.05-.12-.1-.19-.14-.12-.09-.15-.26-.07-.39.36-.57.64-1.21.8-1.9.74-3.24-1.29-6.47-4.53-7.21,0,0,0,0,0,0-.27-.06-.45-.31-.43-.58.05-.6.01-1.22-.13-1.85-.74-3.24-3.97-5.27-7.21-4.53,0,0,0,0,0,0-.27.06-.54-.08-.64-.33-.22-.57-.52-1.11-.92-1.61-2.07-2.6-5.86-3.03-8.46-.95-.06.05-.12.1-.18.15-.11.1-.29.09-.39-.02-.47-.48-1.04-.89-1.68-1.2-3-1.44-6.6-.18-8.04,2.81h0c-.12.26-.41.37-.67.29-.57-.18-1.18-.28-1.82-.28-3.33,0-6.02,2.7-6.02,6.02,0,.08,0,.16,0,.24,0,.15-.11.28-.26.29-.67.07-1.34.25-1.99.56-3,1.44-4.26,5.04-2.81,8.04.03.07.07.14.11.21.07.13.02.3-.11.38-1.71,1.05-2.97,3.01-3.02,5.85,0,.03,0,.06.01.09,1.24,4.66,5.42,6.08,8.58,4.7.19-.08.4.06.4.26h0c0,.16.13.29.29.29h31.51c.07,0,.14.03.19.07.06.06.12.11.19.16,2.6,2.07,6.39,1.65,8.46-.95,2.07-2.6,1.65-6.39-.95-8.46Z"/><path class="cls-2" d="M3.5,40.96h52.2c0,9.6-7.8,17.4-17.4,17.4h-17.4c-9.6,0-17.4-7.8-17.4-17.4h0Z"/><rect class="cls-2" x=".6" y="32.26" width="58" height="8.7"/><path class="cls-3" d="M32.75,28.85L38.06,1.61c.13-.68.79-1.12,1.47-.99s1.12.79.99,1.47l-5.32,27.24-2.45-.48Z"/><path class="cls-1" d="M48.82,2.98c-.31-.18-.71-.07-.89.24l-7.12,12.44c.04.09.09.17.12.26.44-.1.88-.15,1.32-.16l6.81-11.9c.18-.31.07-.71-.24-.89Z"/><path class="cls-1" d="M11.37,41.55h-2.09c.69.13,1.4.14,2.09,0Z"/><path class="cls-1" d="M34.12,24.94l2.01-3.51,1.5-7.67c-.38-.24-.79-.45-1.21-.58l-2.3,11.77Z"/><path class="cls-1" d="M41.17,17.11h-.01c-.38.09-.74-.03-1.01-.27l-2.87,5.02-.78,3.97,5.03-8.78c-.12.02-.23.04-.35.06Z"/><path class="cls-1" d="M48.68,24.07s0,0,0,0c-.57-.13-.94-.64-.89-1.22.05-.55,0-1.11-.12-1.66-.53-2.32-2.49-3.95-4.73-4.19l-1.75,3.05h2.62c.33,0,.6.27.6.6s-.27.6-.6.6h-2.9c-.13,0-.24-.05-.34-.12l-4.24,7.42c-.08.14-.21.24-.36.28-.02,0-.03,0-.05,0l-.12.6c-.06.29-.31.49-.59.49-.04,0-.08,0-.12-.01l-2.45-.48c-.16-.03-.29-.12-.38-.25s-.12-.29-.09-.45l3.08-15.79c-1.34-.12-2.72.25-3.86,1.15l-.16.13c-.34.31-.88.29-1.21-.05-.44-.45-.95-.81-1.51-1.08-2.69-1.29-5.94-.16-7.24,2.53-.25.52-.85.78-1.4.6-.53-.17-1.08-.25-1.64-.25-2.99,0-5.42,2.43-5.42,5.42v.21c.03.46-.33.86-.79.91-.62.07-1.22.24-1.79.51-1.3.63-2.29,1.73-2.76,3.09s-.4,2.84.23,4.14l.1.19c.22.41.08.92-.32,1.17-.01,0-.03.02-.04.03h44.94c.17-.35.31-.71.39-1.1.67-2.91-1.16-5.83-4.07-6.49ZM17.7,29.95h-2.9c-.33,0-.6-.27-.6-.6s.27-.6.6-.6h2.9c.33,0,.6.27.6.6s-.27.6-.6.6ZM20.6,20.05l-2.05,2.05c-.12.12-.27.18-.42.18s-.31-.06-.42-.18c-.23-.23-.23-.61,0-.85l2.05-2.05c.23-.23.61-.23.85,0,.23.23.23.61,0,.85ZM29.3,27.9c-.12.12-.27.18-.42.18s-.31-.06-.42-.18l-2.05-2.05c-.23-.23-.23-.61,0-.85.23-.23.61-.23.85,0l2.05,2.05c.23.23.23.61,0,.85ZM31.35,19.2l-2.05-2.05c-.23-.23-.23-.61,0-.85.23-.23.61-.23.85,0l2.05,2.05c.23.23.23.61,0,.85-.12.12-.27.18-.42.18s-.31-.06-.42-.17ZM46.28,26.88l-2.05,2.05c-.12.12-.27.18-.42.18s-.31-.06-.42-.17c-.23-.23-.23-.61,0-.85l2.05-2.05c.23-.23.61-.23.85,0,.23.23.23.61,0,.85Z"/><path class="cls-1" d="M39.93,1.97c.03-.17,0-.34-.1-.49-.1-.14-.24-.24-.41-.27-.36-.07-.7.16-.76.51l-2,10.27c.42.12.83.29,1.23.5l2.05-10.52Z"/><polygon class="cls-1" points="33.45 28.37 34.73 28.62 34.78 28.36 33.59 27.68 33.45 28.37"/><polygon class="cls-1" points="35.02 27.12 35.42 25.09 34.45 26.79 35.02 27.12"/><path class="cls-1" d="M44.91,41.71c.22,0,.43.08.6.23.05.05.1.09.16.14,1.13.9,2.54,1.3,3.99,1.15,1.28-.14,2.42-.74,3.3-1.67H13.58s.07.1.09.15h31.25Z"/><path class="cls-1" d="M55.62,37.09c.13,1.13-.04,2.24-.46,3.26h2.83v-7.5h-4.6c1.25,1.09,2.04,2.58,2.23,4.24Z"/><path class="cls-1" d="M54.43,37.23c-.16-1.44-.88-2.73-2.01-3.63-.05-.04-.11-.08-.16-.12-.21-.15-.32-.38-.35-.62H6.09c-.86,1.07-1.33,2.48-1.36,4.12.38,1.38,1.09,2.55,2.06,3.38h47.05c.5-.95.72-2.03.59-3.13Z"/><path class="cls-1" d="M18,57.76h23.2c7.5,0,13.58-8.72,13.89-16.2h-.57c-.09.14-.19.28-.29.41-1.1,1.38-2.68,2.25-4.44,2.45-.25.03-.5.04-.75.04-1.49,0-2.93-.5-4.12-1.45-.04-.03-.08-.07-.12-.1H13.4c-.34,0-.63-.19-.78-.46-1.69.63-3.56.55-5.19-.24-.37-.18-.72-.4-1.05-.65h-2.27c.31,7.48,6.39,16.2,13.89,16.2Z"/><path class="cls-1" d="M39,14.95c-.1-.12-.22-.22-.32-.33l-.7,3.56,1.47-2.57c-.13-.23-.28-.46-.45-.67Z"/><path class="cls-1" d="M3.53,36.95c.02-1.56.41-2.94,1.09-4.09H1.2v7.5h3.93c-.71-.87-1.24-1.93-1.57-3.14-.01-.06-.03-.2-.03-.26Z"/><path class="cls-5" d="M57.02,31.66h-3.35c.1-.27.19-.55.26-.83.72-3.16-.95-6.31-3.82-7.55-.64-.28-1.07-.85-1.14-1.54-.03-.27-.07-.55-.13-.81-.46-1.99-1.77-3.57-3.46-4.43-.9-.46-1.28-1.52-.78-2.4l5.45-9.53c.46-.8.34-1.86-.37-2.44-.91-.74-2.23-.47-2.78.51l-6.77,11.83c-.06-.08-.11-.18-.18-.26h0c-.6-.76-.83-1.72-.65-2.66l1.82-9.34c.09-.48,0-.98-.28-1.39-.28-.41-.7-.69-1.18-.78-.99-.2-1.97.46-2.17,1.46l-1.64,8.42c-.19.99-1,1.73-2,1.87-.66.09-1.31.28-1.93.58-.77.37-1.68.33-2.41-.1-.15-.09-.31-.17-.47-.25-2.64-1.27-5.73-.62-7.63,1.38-.71.75-2.11,1.39-3.14,1.39h-.02c-3.16,0-5.81,2.23-6.47,5.19-.17.77-.7,1.45-1.44,1.72-.21.08-.41.16-.62.26-1.59.77-2.79,2.11-3.38,3.78-.47,1.34-.5,2.77-.09,4.11.16.54.03,1.13-.38,1.52,0,0,0,0-.01,0-.2.19-.46.3-.73.3H1.46c-.81,0-1.46.65-1.46,1.46v7.48c0,.53.43.96.96.96h.69c.69,0,1.28.51,1.36,1.19.88,7.73,7.23,16.21,14.99,16.21h23.2c7.54,0,13.75-8,14.9-15.54.16-1.06,1.04-1.86,2.12-1.86.54,0,.98-.44.98-.98v-6.74c0-1.2-.97-2.18-2.18-2.18ZM47.93,3.22c.18-.31.58-.42.89-.24.31.18.42.58.24.89l-6.17,10.79c-.38.66-1.03,1.09-1.77,1.24-.06.01-.12.02-.18.04-.04-.09-.09-.17-.12-.26l7.12-12.44ZM36.42,13.17l.23-1.18,2-10.27c.07-.35.41-.58.76-.51.17.03.32.13.41.27.1.14.13.32.1.49l-2.05,10.52-.25,1.26-1.5,7.67-.72,3.66-.4,2.02-.24,1.24-.05.26-1.28-.25.14-.69.53-2.74,2.3-11.77ZM10.22,23.03c.57-.27,1.17-.44,1.79-.51.47-.05.82-.45.8-.91v-.21c0-2.99,2.43-5.42,5.42-5.42.56,0,1.11.09,1.64.25.55.17,1.14-.08,1.39-.6,1.3-2.7,4.54-3.83,7.24-2.54.57.27,1.08.64,1.51,1.08.33.34.87.36,1.21.05l.16-.13c.32-.26.67-.47,1.02-.64,1.24-.59,2.62.58,2.36,1.93l-2.61,13.35c-.03.16,0,.32.09.45s.23.22.38.25l2.45.48s.08.01.12.01c.28,0,.53-.2.59-.49l.12-.6.59-3.01.78-3.97.72-3.66.7-3.56c.11.11.22.21.32.33.17.21.32.43.45.67.14.25.27.51.37.78.07.18.18.31.31.43.27.24.64.36,1.03.27.12-.03.23-.04.35-.06.47-.08.95-.09,1.41-.04,2.25.23,4.2,1.86,4.73,4.19.12.55.17,1.11.12,1.66-.05.58.33,1.09.9,1.22.96.22,1.85.7,2.55,1.39.69.67,1.2,1.52,1.45,2.44.16.56.22,1.15.19,1.74-.03.6-.19,1.15-.36,1.72-.02.08-.05.16-.11.22-.07.07-.16.09-.25.1-.26.03-.53-.02-.79-.02-.26,0-.53,0-.79,0h-19.91c-.75,0-1.51,0-2.26,0H8.34c-.04-.4-.45-1-.45-1l-.04.02c-.02-.08-.03-.16-.07-.23-.43-.85-.7-1.8-.64-2.76.13-2.09,1.3-3.81,3.08-4.66ZM41.2,57.76h-23.2c-6.71,0-12.28-6.98-13.6-13.81-.24-1.24.72-2.4,1.99-2.4h48.7c-.31,7.48-6.39,16.2-13.89,16.2ZM58,38.06c0,1.27-1.03,2.3-2.3,2.3H3.5c-1.27,0-2.3-1.03-2.3-2.3v-3.17c0-1.12.91-2.03,2.03-2.03h51.68c1.71,0,3.09,1.38,3.09,3.09v2.11Z"/><path class="cls-5" d="M28.45,27.9c.12.12.27.18.42.18s.31-.06.42-.18c.23-.23.23-.61,0-.85l-2.05-2.05c-.23-.23-.61-.23-.85,0-.23.23-.23.61,0,.85l2.05,2.05Z"/><path class="cls-5" d="M40.9,21.25h2.9c.33,0,.6-.27.6-.6s-.27-.6-.6-.6h-2.9c-.33,0-.6.27-.6.6,0,.2.11.37.26.48.1.07.21.12.34.12Z"/><path class="cls-5" d="M18.13,22.28c.15,0,.31-.06.42-.18l2.05-2.05c.23-.23.23-.61,0-.85-.23-.23-.61-.23-.85,0l-2.05,2.05c-.23.23-.23.61,0,.85.12.12.27.18.42.18Z"/><path class="cls-5" d="M43.38,28.93c.12.12.27.17.42.17s.31-.06.42-.18l2.05-2.05c.23-.23.23-.61,0-.85-.23-.23-.61-.23-.85,0l-2.05,2.05c-.23.23-.23.61,0,.85Z"/><path class="cls-5" d="M14.8,29.95h2.9c.33,0,.6-.27.6-.6s-.27-.6-.6-.6h-2.9c-.33,0-.6.27-.6.6s.27.6.6.6Z"/><path class="cls-5" d="M31.35,19.2c.12.12.27.17.42.17s.31-.06.42-.18c.23-.23.23-.61,0-.85l-2.05-2.05c-.23-.23-.61-.23-.85,0-.23.23-.23.61,0,.85l2.05,2.05Z"/></svg>