<svg width="24" height="24" viewBox="0 0 24 24" fill="none" xmlns="http://www.w3.org/2000/svg">
<path fill-rule="evenodd" clip-rule="evenodd" d="M12 3C11.783 3 11.5749 3.0862 11.4215 3.23964C11.268 3.39308 11.1818 3.60119 11.1818 3.81818V3.97672C11.1799 4.46427 11.0354 4.94062 10.7662 5.34712C10.497 5.75362 10.1148 6.07253 9.66666 6.26459C9.58505 6.29957 9.49934 6.32344 9.41182 6.33573C9.0071 6.47577 8.57198 6.50987 8.14833 6.43305C7.65682 6.34393 7.20328 6.10962 6.84619 5.76032L6.8383 5.7526L6.7838 5.69802C6.70782 5.62194 6.61719 5.5612 6.51786 5.52003C6.41853 5.47885 6.31207 5.45766 6.20455 5.45766C6.09702 5.45766 5.99056 5.47885 5.89123 5.52003C5.7919 5.5612 5.70167 5.62155 5.62568 5.69762L5.6249 5.69841C5.54882 5.7744 5.48848 5.86463 5.4473 5.96396C5.40613 6.06328 5.38493 6.16975 5.38493 6.27727C5.38493 6.38479 5.40613 6.49126 5.4473 6.59059C5.48848 6.68991 5.54882 6.78015 5.6249 6.85614L5.68763 6.91887C6.03693 7.27596 6.2712 7.72955 6.36032 8.22106C6.44756 8.70219 6.39175 9.19811 6.20017 9.6475C6.025 10.1058 5.71874 10.5027 5.31929 10.7884C4.91127 11.0802 4.42489 11.2425 3.92338 11.2543L3.9 11.2545H3.81818C3.60119 11.2545 3.39308 11.3407 3.23964 11.4942C3.0862 11.6476 3 11.8557 3 12.0727C3 12.2897 3.0862 12.4978 3.23964 12.6513C3.39308 12.8047 3.60119 12.8909 3.81818 12.8909H3.97672C4.46427 12.8929 4.94062 13.0373 5.34712 13.3065C5.75212 13.5747 6.07018 13.9551 6.26247 14.4011C6.46243 14.8568 6.52185 15.3619 6.43305 15.8517C6.34393 16.3432 6.10962 16.7967 5.76032 17.1538L5.7526 17.1617L5.69801 17.2162C5.62194 17.2922 5.5612 17.3828 5.52003 17.4821C5.47885 17.5815 5.45766 17.6879 5.45766 17.7955C5.45766 17.903 5.47885 18.0094 5.52003 18.1088C5.5612 18.2081 5.62155 18.2983 5.69762 18.3743L5.69841 18.3751C5.77439 18.4512 5.86463 18.5115 5.96396 18.5527C6.06328 18.5939 6.16975 18.6151 6.27727 18.6151C6.3848 18.6151 6.49126 18.5939 6.59059 18.5527C6.68991 18.5115 6.78015 18.4512 6.85614 18.3751L6.91887 18.3124C7.27596 17.9631 7.72955 17.7288 8.22106 17.6397C8.70219 17.5524 9.19812 17.6082 9.64751 17.7998C10.1058 17.975 10.5027 18.2813 10.7884 18.6807C11.0802 19.0887 11.2425 19.5751 11.2543 20.0766L11.2545 20.1V20.1818C11.2545 20.3988 11.3407 20.6069 11.4942 20.7604C11.6476 20.9138 11.8557 21 12.0727 21C12.2897 21 12.4978 20.9138 12.6513 20.7604C12.8047 20.6069 12.8909 20.3988 12.8909 20.1818V20.0273L12.8909 20.0233C12.8929 19.5357 13.0373 19.0594 13.3065 18.6529C13.5747 18.2479 13.9551 17.9298 14.4011 17.7375C14.8568 17.5376 15.3619 17.4781 15.8517 17.5669C16.3432 17.6561 16.7967 17.8904 17.1538 18.2397L17.1617 18.2474L17.2162 18.302C17.2922 18.3781 17.3828 18.4388 17.4821 18.48C17.5815 18.5211 17.6879 18.5423 17.7955 18.5423C17.903 18.5423 18.0094 18.5211 18.1088 18.48C18.2081 18.4388 18.2983 18.3785 18.3743 18.3024L18.3751 18.3016C18.4512 18.2256 18.5115 18.1354 18.5527 18.036C18.5939 17.9367 18.6151 17.8303 18.6151 17.7227C18.6151 17.6152 18.5939 17.5087 18.5527 17.4094C18.5115 17.3101 18.4512 17.2198 18.3751 17.1439L18.3124 17.0811C17.9631 16.724 17.7288 16.2705 17.6397 15.7789C17.5509 15.2892 17.6103 14.7841 17.8103 14.3284C18.0025 13.8824 18.3206 13.502 18.7256 13.2338C19.1321 12.9646 19.6085 12.8201 20.096 12.8182L20.1 12.8182L20.1818 12.8182C20.3988 12.8182 20.6069 12.732 20.7604 12.5785C20.9138 12.4251 21 12.217 21 12C21 11.783 20.9138 11.5749 20.7604 11.4215C20.6069 11.268 20.3988 11.1818 20.1818 11.1818H20.0273L20.0233 11.1818C19.5357 11.1799 19.0594 11.0354 18.6529 10.7662C18.2464 10.497 17.9275 10.1148 17.7354 9.66666C17.7004 9.58505 17.6766 9.49934 17.6643 9.41182C17.5242 9.0071 17.4901 8.57198 17.5669 8.14833C17.6561 7.65682 17.8904 7.20328 18.2397 6.84619L18.2474 6.83831L18.302 6.78381C18.378 6.70782 18.4388 6.61718 18.48 6.51786C18.5211 6.41854 18.5423 6.31207 18.5423 6.20455C18.5423 6.09702 18.5211 5.99055 18.48 5.89123C18.4388 5.79191 18.3785 5.70167 18.3024 5.62568L18.3016 5.6249C18.2256 5.54882 18.1354 5.48847 18.036 5.4473C17.9367 5.40613 17.8302 5.38493 17.7227 5.38493C17.6152 5.38493 17.5087 5.40613 17.4094 5.4473C17.3101 5.48848 17.2198 5.54883 17.1439 5.6249L17.0811 5.68763C16.724 6.03693 16.2705 6.2712 15.7789 6.36032C15.2892 6.44913 14.7841 6.38971 14.3284 6.18974C13.8824 5.99745 13.502 5.67939 13.2338 5.27439C12.9646 4.86789 12.8201 4.39154 12.8182 3.90399L12.8182 3.9V3.81818C12.8182 3.60119 12.732 3.39308 12.5785 3.23964C12.4251 3.0862 12.217 3 12 3ZM10.0072 1.82543C10.5358 1.29691 11.2526 1 12 1C12.7474 1 13.4642 1.29691 13.9928 1.82543C14.5213 2.35394 14.8182 3.07075 14.8182 3.81818V3.89743C14.8188 3.99444 14.8477 4.08918 14.9013 4.17009C14.9551 4.25139 15.0316 4.31517 15.1212 4.35359L15.1311 4.35781C15.2225 4.39815 15.3238 4.41024 15.4221 4.39241C15.5191 4.37483 15.6087 4.32899 15.6796 4.2607L15.7289 4.21147C15.9906 3.94944 16.3014 3.74158 16.6435 3.59975C16.9857 3.45793 17.3524 3.38493 17.7227 3.38493C18.0931 3.38493 18.4598 3.45793 18.8019 3.59975C19.144 3.74158 19.4549 3.94945 19.7166 4.21147L19.0091 4.91818L19.7158 4.21068C19.7161 4.21094 19.7163 4.21121 19.7166 4.21147C19.9782 4.47304 20.1858 4.78357 20.3275 5.12535C20.4693 5.46747 20.5423 5.83419 20.5423 6.20455C20.5423 6.5749 20.4693 6.94162 20.3275 7.28374C20.1858 7.62569 19.978 7.93636 19.7162 8.19801L19.6666 8.24761C19.6675 8.24664 19.6685 8.24568 19.6694 8.24472L18.9545 7.54545L19.6617 8.25255L19.6666 8.24761C19.5983 8.31858 19.5524 8.40817 19.5349 8.50515C19.517 8.60345 19.5291 8.70484 19.5694 8.79624C19.5951 8.8544 19.6151 8.91473 19.6292 8.97636C19.6072 8.94618 19.5885 8.91348 19.5737 8.8788L18.6545 9.27273H19.6545V9.2C19.6545 9.12454 19.646 9.04952 19.6292 8.97636C19.6641 9.02419 19.7073 9.06569 19.7572 9.0987C19.8381 9.15227 19.9328 9.18114 20.0298 9.18182H20.0273V10.1818L20.0313 9.18183C20.0308 9.18182 20.0303 9.18182 20.0298 9.18182H20.1818C20.9292 9.18182 21.6461 9.47873 22.1746 10.0072C22.7031 10.5358 23 11.2526 23 12C23 12.7474 22.7031 13.4642 22.1746 13.9928C21.6461 14.5213 20.9292 14.8182 20.1818 14.8182H20.1026C20.103 14.8182 20.1035 14.8182 20.104 14.8182L20.1 13.8182V14.8182H20.1026C20.0056 14.8188 19.9108 14.8477 19.8299 14.9013C19.7486 14.9551 19.6848 15.0316 19.6464 15.1212L19.6422 15.1311C19.6019 15.2225 19.5898 15.3238 19.6076 15.4221C19.6252 15.5191 19.671 15.6087 19.7393 15.6797L19.7344 15.6747L19.0273 16.3818L19.7421 15.6826C19.7412 15.6816 19.7403 15.6806 19.7393 15.6797L19.7885 15.7289C20.0506 15.9906 20.2584 16.3014 20.4002 16.6435C20.5421 16.9857 20.6151 17.3524 20.6151 17.7227C20.6151 18.0931 20.5421 18.4598 20.4002 18.8019C20.2585 19.1439 20.0508 19.4545 19.7889 19.7162C19.5273 19.978 19.2166 20.1858 18.8747 20.3275C18.5325 20.4693 18.1658 20.5423 17.7955 20.5423C17.4251 20.5423 17.0584 20.4693 16.7163 20.3275C16.3743 20.1858 16.0636 19.978 15.802 19.7162L15.7524 19.6666C15.7533 19.6675 15.7543 19.6685 15.7553 19.6694L16.4545 18.9545L15.7474 19.6617L15.7524 19.6666C15.6814 19.5983 15.5918 19.5524 15.4949 19.5349C15.3965 19.517 15.2952 19.5291 15.2038 19.5694L15.194 19.5737C15.1043 19.6122 15.0279 19.6759 14.974 19.7572C14.9204 19.8381 14.8916 19.9328 14.8909 20.0298V20.0273H13.8909L14.8909 20.0313C14.8909 20.0308 14.8909 20.0303 14.8909 20.0298V20.1818C14.8909 20.9292 14.594 21.6461 14.0655 22.1746C13.537 22.7031 12.8202 23 12.0727 23C11.3253 23 10.6085 22.7031 10.08 22.1746C9.55146 21.6461 9.25455 20.9292 9.25455 20.1818V20.1148C9.25466 20.1177 9.25475 20.1205 9.25482 20.1234L10.2545 20.1H9.25455V20.1148C9.2506 20.0176 9.21834 19.9235 9.16164 19.8442C9.10327 19.7626 9.02171 19.7004 8.92755 19.6658C8.90777 19.6585 8.88824 19.6506 8.86896 19.6421C8.77757 19.6018 8.67618 19.5898 8.57787 19.6076C8.48089 19.6252 8.39129 19.671 8.32032 19.7394L8.32529 19.7344L7.61818 19.0273L8.31745 19.7421C8.3184 19.7412 8.31936 19.7403 8.32032 19.7394L8.27114 19.7885C8.0094 20.0506 7.69859 20.2584 7.35647 20.4002C7.01434 20.5421 6.64762 20.6151 6.27727 20.6151C5.90692 20.6151 5.5402 20.5421 5.19808 20.4002C4.8563 20.2586 4.54577 20.051 4.2842 19.7893L4.99091 19.0818L4.28341 19.7885C4.28367 19.7888 4.28393 19.7891 4.2842 19.7893M4.2842 15.8016L4.33343 15.7524C4.40172 15.6814 4.44756 15.5918 4.46514 15.4949C4.48296 15.3966 4.47093 15.2952 4.43059 15.2038L4.42626 15.194C4.38785 15.1043 4.32412 15.0279 4.24282 14.974C4.16191 14.9204 4.06717 14.8916 3.97015 14.8909H3.81818C3.07075 14.8909 2.35394 14.594 1.82543 14.0655C1.29691 13.537 1 12.8202 1 12.0727C1 11.3253 1.29691 10.6085 1.82543 10.08C2.35394 9.55146 3.07075 9.25455 3.81818 9.25455H3.88517C3.98244 9.2506 4.07651 9.21835 4.1558 9.16164C4.2374 9.10327 4.29956 9.02171 4.33419 8.92755C4.34146 8.90777 4.34936 8.88824 4.35786 8.86896C4.3982 8.77756 4.41024 8.67618 4.39241 8.57787C4.37483 8.4809 4.32898 8.39131 4.26067 8.32034L4.21147 8.27114C3.94944 8.0094 3.74158 7.69859 3.59975 7.35647C3.45793 7.01435 3.38493 6.64763 3.38493 6.27727C3.38493 5.90692 3.45793 5.5402 3.59975 5.19808C3.74151 4.85613 3.94924 4.54545 4.21108 4.2838C4.47273 4.02196 4.7834 3.81423 5.12535 3.67248C5.46747 3.53066 5.83419 3.45766 6.20455 3.45766C6.5749 3.45766 6.94162 3.53066 7.28374 3.67248C7.62586 3.81431 7.93668 4.02217 8.19841 4.2842L8.24761 4.3334C8.31858 4.40171 8.40817 4.44755 8.50515 4.46514C8.60345 4.48296 8.70484 4.47093 8.79624 4.43059C8.85441 4.40492 8.91473 4.38492 8.97637 4.37078C9.0242 4.33592 9.0657 4.29266 9.0987 4.24282C9.15227 4.16193 9.18114 4.06722 9.18182 3.97022V3.81818C9.18182 3.07075 9.47873 2.35394 10.0072 1.82543M12 10C10.8954 10 10 10.8954 10 12C10 13.1046 10.8954 14 12 14C13.1046 14 14 13.1046 14 12C14 10.8954 13.1046 10 12 10ZM8 12C8 9.79086 9.79086 8 12 8C14.2091 8 16 9.79086 16 12C16 14.2091 14.2091 16 12 16C9.79086 16 8 14.2091 8 12Z" fill="black"/>
</svg>
