<svg width="24" height="24" viewBox="0 0 24 24" fill="none" xmlns="http://www.w3.org/2000/svg">
<path fill-rule="evenodd" clip-rule="evenodd" d="M10.3373 3.13945C10.6304 2.77982 11.0734 2.57605 11.5372 2.58756C11.9438 2.59765 12.2509 2.80142 12.4055 2.91148C12.5703 3.0288 12.758 3.18969 12.9441 3.34924C12.9532 3.35707 12.9623 3.36489 12.9714 3.3727L21.4422 10.6333C21.4486 10.6389 21.4552 10.6445 21.4618 10.6502C21.5662 10.7396 21.6875 10.8435 21.7853 10.9431C21.8959 11.0558 22.0507 11.2348 22.1434 11.4929C22.2611 11.8207 22.2611 12.1793 22.1434 12.5071C22.0507 12.7652 21.8959 12.9442 21.7853 13.0569C21.6875 13.1565 21.5662 13.2604 21.4618 13.3498C21.4552 13.3555 21.4486 13.3611 21.4422 13.3667L12.9441 20.6507C12.758 20.8103 12.5704 20.9712 12.4055 21.0885C12.2509 21.1986 11.9438 21.4023 11.5372 21.4124C11.0734 21.4239 10.6304 21.2202 10.3373 20.8605C10.0803 20.5452 10.0352 20.1795 10.0181 19.9905C9.99991 19.7889 9.99995 19.5418 10 19.2966L10 16.1964C9.0578 16.3593 8.14001 16.6517 7.27329 17.0675C5.92197 17.7158 4.72673 18.6485 3.76944 19.8017C3.5003 20.1259 3.05681 20.2466 2.66047 20.1035C2.26413 19.9605 2 19.5843 2 19.163V18.551C2.00136 15.9302 2.96754 13.4012 4.71418 11.4474C6.1266 9.86742 7.9694 8.75269 10 8.22851V4.73936C10 4.72737 10 4.71536 10 4.70334C9.99995 4.45822 9.99991 4.21104 10.0181 4.00952C10.0352 3.82049 10.0803 3.45473 10.3373 3.13945ZM12 5.17421V9.03462C12 9.52042 11.6509 9.93594 11.1723 10.0197C9.25852 10.3545 7.50691 11.3243 6.20524 12.7803C5.22531 13.8765 4.54774 15.1953 4.22184 16.6077C4.90026 16.087 5.63269 15.6363 6.40823 15.2643C7.82872 14.5828 9.36428 14.1792 10.9323 14.0728C11.2087 14.0541 11.4804 14.1508 11.6828 14.3399C11.8851 14.529 12 14.7935 12 15.0705V18.8258L19.9634 12L12 5.17421Z" fill="black"/>
</svg>
