<svg width="41" height="42" viewBox="0 0 41 42" fill="none" xmlns="http://www.w3.org/2000/svg">
<path d="M22.4336 5.37597C20.4741 2.22804 15.9478 2.85884 14.8248 6.43741C11.6392 4.74517 8.01812 7.68688 8.74004 11.3807C5.182 11.599 3.43449 16.0692 5.80652 18.8836C2.83289 20.9579 3.42876 25.7496 6.80919 26.9384C5.21065 30.3107 7.98947 34.144 11.4788 33.3798C11.685 37.1464 15.9077 38.9963 18.5662 36.4853C20.5257 39.6332 25.052 39.0024 26.175 35.4238C29.3606 37.1161 32.9817 34.1744 32.2598 30.4805C35.8178 30.2622 37.5653 25.792 35.1933 22.9777C38.1669 20.9033 37.5711 16.1117 34.1906 14.9229C35.7892 11.5505 33.0104 7.7172 29.5211 8.48144C29.3148 4.71484 25.0921 2.8649 22.4336 5.37597Z" fill="white" style="fill:white;fill-opacity:1;"/>
<path d="M31.3027 19.3749H26.9769V17.5431C26.9769 17.5431 24.6851 18.4105 23.2585 16.4453C23.2585 16.4453 21.8834 17.7251 20.4968 17.7251C19.1103 17.7251 17.7352 16.4453 17.7352 16.4453C16.3085 18.4105 14.0167 17.5431 14.0167 17.5431V19.3749H9.69092C9.69092 19.3749 10.0347 24.3667 14.0167 24.3667C14.0167 24.3667 13.6214 31.1842 20.4968 32.1C27.3723 31.1842 26.9769 24.3667 26.9769 24.3667C30.9532 24.3667 31.3027 19.3749 31.3027 19.3749Z" fill="#D7D8D8" style="fill:#D7D8D8;fill:color(display-p3 0.8431 0.8471 0.8471);fill-opacity:1;"/>
<path d="M37.4249 18.5678C37.2243 16.9727 36.3248 15.6201 35.0127 14.8922C34.8179 14.7831 34.7263 14.5526 34.795 14.3282C35.2362 12.83 34.9726 11.2045 34.0445 9.92469C33.1163 8.6449 31.7011 7.95951 30.2229 8.02017C30.0051 8.02623 29.8161 7.8746 29.7645 7.65018C29.4379 6.12171 28.441 4.84798 27.0372 4.23537C25.6335 3.61671 24.0808 3.76834 22.826 4.60536C22.6427 4.73274 22.4078 4.69634 22.2588 4.52651C21.2504 3.38016 19.7894 2.81001 18.2768 3.01624C16.7699 3.22852 15.4979 4.18079 14.8047 5.56976C14.7015 5.77598 14.4838 5.87303 14.2718 5.80024C12.8566 5.33321 11.3211 5.61221 10.1122 6.5948C8.90325 7.57739 8.25008 9.07554 8.31311 10.6404C8.32456 10.8709 8.1756 11.071 7.9636 11.1256C6.51976 11.4714 5.31656 12.5267 4.73788 14.0128C4.15346 15.4988 4.2967 17.1425 5.08738 18.4708C5.2077 18.671 5.17332 18.9136 5.01289 19.0773C3.92428 20.1388 3.3857 21.6915 3.58051 23.2867C3.78104 24.8819 4.68058 26.2345 5.99264 26.9623C6.18745 27.0715 6.27912 27.302 6.21037 27.5264C5.76919 29.0246 6.03275 30.6501 6.96094 31.9299C7.88912 33.2097 9.29859 33.9011 10.7825 33.8344C11.0003 33.8223 11.1893 33.98 11.2409 34.2044C11.5675 35.7329 12.5644 37.0066 13.9682 37.6192C15.3719 38.2379 16.9246 38.0862 18.1794 37.2492C18.3627 37.1218 18.5976 37.1582 18.7466 37.328C19.6118 38.3228 20.8207 38.8868 22.1098 38.8868C22.3161 38.8868 22.5166 38.8747 22.7229 38.8444C24.2298 38.6321 25.5074 37.6798 26.195 36.2909C26.2981 36.0846 26.5158 35.9876 26.7278 36.0604C28.143 36.5274 29.6785 36.2484 30.8875 35.2658C32.0964 34.2832 32.7496 32.7851 32.6866 31.2202C32.6751 30.9897 32.8241 30.7896 33.0361 30.735C34.4799 30.3893 35.6774 29.3339 36.2618 27.8479C36.8462 26.3619 36.703 24.7181 35.9123 23.3898C35.792 23.1897 35.8263 22.947 35.9868 22.7833C37.0754 21.7218 37.614 20.1691 37.4192 18.5739L37.4249 18.5678ZM34.4684 29.2672C33.8554 29.8434 33.0361 30.0253 32.2282 30.1163C32.1365 30.1284 32.0506 30.177 31.9933 30.2558C31.936 30.3286 31.9131 30.4257 31.9245 30.5227C32.0334 31.4871 32.0506 32.4757 31.5922 33.3188C30.4463 35.4296 28.1717 36.0786 26.3325 35.1021C26.2408 35.0535 26.1377 35.0535 26.046 35.0899C25.9543 35.1324 25.8799 35.2112 25.8512 35.3143C25.3757 36.8368 24.1438 37.9103 22.6427 38.1226C21.1415 38.3349 19.692 37.6313 18.8555 36.2909C18.7982 36.1999 18.7122 36.1453 18.6148 36.1332C18.5976 36.1332 18.5862 36.1332 18.569 36.1332C18.4716 36.1332 18.3799 36.1756 18.3169 36.2484C17.9788 36.6427 17.6121 37.0126 17.1194 37.14C14.2088 37.88 11.9628 35.9087 11.8253 33.3674C11.8253 33.2642 11.7737 33.1672 11.6935 33.1005C11.619 33.0398 11.5331 33.0156 11.4414 33.0277C10.5247 33.1429 9.59079 33.1611 8.79439 32.6698C6.80624 31.4507 6.19891 29.0488 7.12136 27.1079C7.1672 27.0108 7.1672 26.9017 7.13282 26.8046C7.09844 26.7136 7.02969 26.6469 6.94948 26.6105C6.10723 26.2284 5.29364 25.7553 4.82955 24.9122C3.67218 22.8015 4.27951 20.3935 5.99837 19.1926C6.08432 19.1319 6.13588 19.0409 6.14734 18.9378C6.1588 18.8408 6.13588 18.7498 6.08432 18.671C5.53428 17.8946 5.053 17.0515 5.053 16.0871C5.04727 13.6428 6.70884 11.8777 8.76574 11.7504C8.86314 11.7504 8.95481 11.6958 9.01784 11.6109C9.08086 11.526 9.10378 11.4107 9.08086 11.3076C8.89752 10.4766 8.92044 9.59716 9.27567 8.83293C10.37 6.49776 12.7592 5.75172 14.6786 6.7707C14.7703 6.81922 14.8734 6.81922 14.9651 6.78283C15.0568 6.74037 15.1313 6.66152 15.1599 6.55841C15.6355 5.036 16.8673 3.96243 18.3684 3.75015C19.8696 3.53786 21.3192 4.24144 22.1557 5.58189C22.213 5.67287 22.2989 5.72746 22.3963 5.73959C22.488 5.75172 22.5797 5.72746 22.6484 5.6668C23.2901 5.13912 23.9662 4.64175 24.7798 4.58717C27.2492 4.41127 29.0655 6.23088 29.1915 8.5054C29.1915 8.60851 29.2431 8.70555 29.3233 8.77227C29.3978 8.83293 29.4895 8.85719 29.5811 8.84506C30.389 8.72982 31.2141 8.6631 31.9474 9.04522C34.1533 10.2037 34.858 12.733 33.8955 14.7649C33.8496 14.8619 33.8496 14.9711 33.884 15.0681C33.9184 15.1591 33.9872 15.2258 34.0674 15.2622C34.9096 15.6443 35.7232 16.1174 36.1873 16.9605C37.3447 19.0713 36.7373 21.4792 35.0185 22.6802C34.9325 22.7408 34.881 22.8318 34.8695 22.9349C34.858 23.038 34.8867 23.1472 34.9555 23.2261C36.3821 24.9244 36.3191 27.5507 34.4799 29.2732L34.4684 29.2672Z" fill="#433F40" style="fill:#433F40;fill:color(display-p3 0.2627 0.2471 0.2510);fill-opacity:1;"/>
<path d="M31.3111 19.0105H27.6785C27.4837 19.0105 27.329 18.8468 27.329 18.6405V17.5427C27.329 17.4214 27.2775 17.3122 27.1858 17.2455C27.0941 17.1788 26.9738 17.1606 26.8707 17.2031C26.8477 17.2091 24.8023 17.9612 23.5418 16.2265C23.4845 16.1477 23.3986 16.0931 23.3012 16.087C23.2095 16.0749 23.1121 16.1113 23.0433 16.178C23.0319 16.1901 21.7427 17.3668 20.5052 17.3668C19.2676 17.3668 17.9784 16.1841 17.967 16.178C17.8982 16.1113 17.8008 16.081 17.7091 16.087C17.6117 16.0992 17.5258 16.1477 17.4685 16.2265C16.2137 17.9552 14.2199 17.2394 14.1396 17.2031C14.0308 17.1667 13.9162 17.1788 13.8245 17.2516C13.7328 17.3183 13.6813 17.4275 13.6813 17.5488V18.6466C13.6813 18.8528 13.5266 19.0166 13.3318 19.0166H9.69925C9.60185 19.0166 9.51017 19.0591 9.44715 19.1318C9.38412 19.2046 9.34975 19.3077 9.35548 19.4048C9.35548 19.4533 9.73363 24.1904 13.3833 24.6877C13.5495 24.712 13.6813 24.8454 13.6927 25.0213C13.8073 26.8288 14.661 31.6932 20.4593 32.4635C20.4765 32.4635 20.488 32.4635 20.5052 32.4635C20.5223 32.4635 20.5338 32.4635 20.551 32.4635C26.355 31.6932 27.203 26.8288 27.3176 25.0213C27.329 24.8454 27.4608 24.712 27.627 24.6877C31.2767 24.1904 31.6491 19.4533 31.6548 19.4048C31.6606 19.3017 31.6262 19.2046 31.5632 19.1318C31.5001 19.0591 31.4085 19.0166 31.3111 19.0166V19.0105ZM26.9853 23.9963C26.8879 23.9963 26.8019 24.0387 26.7332 24.1115C26.6644 24.1843 26.6358 24.2813 26.6415 24.3845C26.6529 24.6392 26.8993 30.3406 21.2615 31.5901C21.0495 31.6386 20.8489 31.4567 20.8489 31.2262V28.0783C20.8489 27.9388 20.9177 27.7993 21.0437 27.7507C21.5422 27.5324 21.8974 27.0168 21.8974 26.4164C21.8974 26.2162 21.7427 26.0524 21.5537 26.0524C21.3646 26.0524 21.2099 26.2162 21.2099 26.4164C21.2099 26.8106 20.9062 27.1381 20.5281 27.1381C20.1499 27.1381 19.8463 26.8167 19.8463 26.4164C19.8463 26.2162 19.6916 26.0524 19.5025 26.0524C19.3134 26.0524 19.1587 26.2162 19.1587 26.4164C19.1587 27.0047 19.4968 27.5081 19.9723 27.7325C20.0926 27.7871 20.1557 27.9206 20.1557 28.0601V31.2262C20.1557 31.4567 19.9551 31.6386 19.7431 31.5901C14.1053 30.3406 14.3459 24.6392 14.3631 24.3845C14.3631 24.2813 14.3344 24.1843 14.2714 24.1115C14.2084 24.0387 14.1167 23.9963 14.0193 23.9963C11.3322 23.9963 10.4441 21.5155 10.1633 20.1751C10.1175 19.9446 10.2837 19.7323 10.5014 19.7323H13.6698C14.0537 19.7323 14.3631 19.4048 14.3631 18.9984V18.4222C14.3631 18.2038 14.5407 18.034 14.747 18.0583C15.5033 18.1371 16.6377 18.0583 17.5774 17.1606C17.6977 17.0454 17.8753 17.015 18.0128 17.1181C18.5686 17.5245 19.5197 18.0886 20.5052 18.0886C21.4906 18.0886 22.436 17.5245 22.9975 17.1181C23.135 17.0211 23.3069 17.0454 23.4329 17.1606C24.3669 18.0643 25.5013 18.1432 26.2633 18.0583C26.4696 18.034 26.6472 18.2038 26.6472 18.4222V18.9984C26.6472 19.4048 26.9566 19.7323 27.3405 19.7323H30.5089C30.7266 19.7323 30.8985 19.9446 30.847 20.1751C30.5662 21.5155 29.6781 23.9963 26.991 23.9963H26.9853Z" fill="#433F40" style="fill:#433F40;fill:color(display-p3 0.2627 0.2471 0.2510);fill-opacity:1;"/>
<path d="M18.0364 21.0789H16.6957C16.5066 21.0789 16.3519 21.2426 16.3519 21.4428C16.3519 21.6429 16.5066 21.8067 16.6957 21.8067H16.8676C16.8447 21.8674 16.8275 21.9401 16.8275 22.0069C16.8275 22.3223 17.0681 22.5709 17.3603 22.5709C17.6525 22.5709 17.8932 22.3162 17.8932 22.0069C17.8932 21.9341 17.876 21.8674 17.8531 21.8067H18.025C18.214 21.8067 18.3687 21.6429 18.3687 21.4428C18.3687 21.2426 18.214 21.0789 18.025 21.0789H18.0364Z" fill="#433F40" style="fill:#433F40;fill:color(display-p3 0.2627 0.2471 0.2510);fill-opacity:1;"/>
<path d="M24.3152 21.0789H22.9745C22.7854 21.0789 22.6307 21.2426 22.6307 21.4428C22.6307 21.6429 22.7854 21.8067 22.9745 21.8067H23.1464C23.1235 21.8674 23.1063 21.9401 23.1063 22.0069C23.1063 22.3223 23.3469 22.5709 23.6391 22.5709C23.9313 22.5709 24.172 22.3162 24.172 22.0069C24.172 21.9341 24.1548 21.8674 24.1319 21.8067H24.3038C24.4928 21.8067 24.6475 21.6429 24.6475 21.4428C24.6475 21.2426 24.4928 21.0789 24.3038 21.0789H24.3152Z" fill="#433F40" style="fill:#433F40;fill:color(display-p3 0.2627 0.2471 0.2510);fill-opacity:1;"/>
</svg>
