<svg width="40" height="42" viewBox="0 0 40 42" fill="none" xmlns="http://www.w3.org/2000/svg">
<path d="M14.961 16.9184C14.961 17.4644 15.0933 17.9808 15.3176 18.4378H7.09229V14.022H14.961V16.9184Z" fill="#9E8EF5" style="fill:#9E8EF5;fill:color(display-p3 0.6196 0.5569 0.9608);fill-opacity:1;"/>
<path d="M24.4171 18.4378H23.0251C23.2494 17.9808 23.3817 17.4644 23.3817 16.9184V14.022H26.0736C28.6218 14.022 30.6982 16.1646 30.6982 18.7939V21.9278C30.6982 22.361 30.3589 22.7112 29.939 22.7112H27.178C26.7581 22.7112 26.4188 22.361 26.4188 21.9278V20.5033C26.4188 19.3637 25.5215 18.4378 24.4171 18.4378Z" fill="#9E8EF5" style="fill:#9E8EF5;fill:color(display-p3 0.6196 0.5569 0.9608);fill-opacity:1;"/>
<path d="M20.115 10.4608H18.2284C18.1018 10.4608 17.981 10.4667 17.8602 10.4845V7.97388C18.2571 8.18755 18.6943 8.32406 19.1717 8.32406C19.6491 8.32406 20.092 8.19348 20.4832 7.97388V10.4845C20.3624 10.4726 20.2416 10.4608 20.115 10.4608Z" fill="#9E8EF5" style="fill:#9E8EF5;fill:color(display-p3 0.6196 0.5569 0.9608);fill-opacity:1;"/>
<path d="M18.2281 11.1729H20.1148C21.5379 11.1729 22.6917 12.3633 22.6917 13.8319V16.9182C22.6917 18.3867 21.5379 19.5772 20.1148 19.5772H18.2281C16.8049 19.5772 15.6512 18.3867 15.6512 16.9182V13.8319C15.6512 12.3633 16.8049 11.1729 18.2281 11.1729Z" fill="#9E8EF5" style="fill:#9E8EF5;fill:color(display-p3 0.6196 0.5569 0.9608);fill-opacity:1;"/>
<path d="M21.3115 5.40373C21.3115 6.62046 20.3509 7.61165 19.1718 7.61165C17.9926 7.61165 17.032 6.62046 17.032 5.40373C17.032 4.18699 17.9926 3.1958 19.1718 3.1958C20.3509 3.1958 21.3115 4.18699 21.3115 5.40373Z" fill="#9E8EF5" style="fill:#9E8EF5;fill:color(display-p3 0.6196 0.5569 0.9608);fill-opacity:1;"/>
<path d="M24.2102 34.1128C24.2102 31.893 27.5694 27.2398 28.5587 25.9221C29.5481 27.2398 32.9072 31.893 32.9072 34.1128C32.9072 36.665 30.9976 38.6652 28.5587 38.6652C26.1199 38.6652 24.2102 36.665 24.2102 34.1128Z" fill="#A2D2FD" style="fill:#A2D2FD;fill:color(display-p3 0.6353 0.8235 0.9922);fill-opacity:1;"/>
<path d="M28.8293 25.121C29.0248 25.3703 33.5977 31.2699 33.5977 34.1129C33.5977 36.9559 31.3831 39.3775 28.5589 39.3775C25.7347 39.3775 23.5202 37.0628 23.5202 34.1129C23.5202 31.1631 28.093 25.3762 28.2886 25.121C28.4209 24.9548 28.697 24.9548 28.8293 25.121ZM32.9074 34.1129C32.9074 32.2908 30.6411 28.8305 29.2837 26.9194C28.9213 26.4089 28.1908 26.4089 27.8284 26.9194C26.4709 28.8305 24.2047 32.2908 24.2047 34.1129C24.2047 36.6651 26.1143 38.6653 28.5532 38.6653C30.992 38.6653 32.9017 36.6651 32.9017 34.1129H32.9074Z" fill="#433F40" style="fill:#433F40;fill:color(display-p3 0.2627 0.2471 0.2510);fill-opacity:1;"/>
<path d="M6.74706 13.3096H14.2534C14.6503 13.3096 15.0242 13.0663 15.1622 12.6805C15.4556 11.8555 16.048 11.1848 16.8073 10.799C17.0374 10.6862 17.1697 10.4369 17.1697 10.1758V7.76605C17.1697 7.57612 17.0949 7.39212 16.9741 7.24374C16.744 6.94698 16.5657 6.59679 16.4622 6.21694C16.3874 5.94391 16.1516 5.75992 15.8755 5.75992H13.6437C13.4539 5.75992 13.2986 5.59967 13.2986 5.4038C13.2986 5.20794 13.4539 5.04769 13.6437 5.04769H15.8755C16.1516 5.04769 16.3874 4.85776 16.4622 4.58473C16.8015 3.37394 17.8829 2.48364 19.1656 2.48364C20.4483 2.48364 21.5239 3.37394 21.869 4.58473C21.9438 4.85776 22.1796 5.04769 22.4557 5.04769H24.6875C24.8773 5.04769 25.0326 5.20794 25.0326 5.4038C25.0326 5.59967 24.8773 5.75992 24.6875 5.75992H22.4557C22.1854 5.75992 21.9438 5.94391 21.869 6.21694C21.7655 6.59086 21.5987 6.93511 21.3686 7.23187C21.2478 7.39212 21.1673 7.58205 21.1673 7.78385V10.152C21.1673 10.431 21.3111 10.6921 21.5527 10.8168C22.3004 11.1966 22.8871 11.8673 23.1747 12.6805C23.3128 13.0663 23.6809 13.3096 24.0835 13.3096H26.068C29.0015 13.3096 31.3828 15.7668 31.3828 18.7938V21.9276C31.3828 22.7526 30.7328 23.4233 29.9333 23.4233H27.1724C26.3728 23.4233 25.7229 22.7526 25.7229 21.9276V20.5032C25.7229 19.7553 25.1362 19.1499 24.4114 19.1499H23.0424C22.7548 19.1499 22.473 19.2568 22.2602 19.4526C21.685 19.9749 20.9372 20.2895 20.1147 20.2895H18.228C17.4055 20.2895 16.6577 19.9749 16.0825 19.4526C15.864 19.2568 15.5879 19.1499 15.3003 19.1499H6.75282C6.563 19.1499 6.4077 18.9897 6.4077 18.7938V13.6657C6.4077 13.4699 6.563 13.3096 6.75282 13.3096H6.74706ZM7.82268 18.4377H14.3512C14.7998 18.4377 15.1047 18.0103 15.0184 17.5593C14.9782 17.3515 14.9609 17.1379 14.9609 16.9183V14.7341C14.9609 14.3423 14.6503 14.0218 14.2707 14.0218H7.82268C7.42005 14.0218 7.09218 14.3601 7.09218 14.7756V17.678C7.09218 18.0934 7.42005 18.4318 7.82268 18.4318V18.4377ZM20.1147 19.5773C21.5354 19.5773 22.6916 18.3843 22.6916 16.9183V13.8319C22.6916 12.3659 21.5354 11.1729 20.1147 11.1729H18.228C16.8073 11.1729 15.6511 12.3659 15.6511 13.8319V16.9183C15.6511 18.3843 16.8073 19.5773 18.228 19.5773H20.1147ZM26.4189 21.9276C26.4189 22.3609 26.7582 22.7111 27.1781 22.7111H29.9391C30.359 22.7111 30.6983 22.3609 30.6983 21.9276V18.7938C30.6983 16.1585 28.6276 14.0218 26.0737 14.0218H24.072C23.6924 14.0218 23.3818 14.3423 23.3818 14.7341V16.9183C23.3818 17.1379 23.3588 17.3515 23.3243 17.5593C23.238 18.0103 23.5486 18.4377 23.9915 18.4377H24.4172C25.5215 18.4377 26.4189 19.3636 26.4189 20.5032V21.9276ZM17.1064 4.80434C16.675 6.48402 18.1245 7.97972 19.7523 7.53457C20.4655 7.33871 21.0465 6.74518 21.2306 6.00327C21.662 4.32358 20.2125 2.83382 18.5846 3.27304C17.8714 3.4689 17.2905 4.06243 17.1006 4.7984L17.1064 4.80434ZM19.1714 8.32396C18.9643 8.32396 18.763 8.30022 18.5731 8.25274C18.2108 8.16371 17.8599 8.4308 17.8599 8.81659V10.4844C17.9807 10.4725 18.1015 10.4607 18.228 10.4607H20.1147C20.2412 10.4607 20.362 10.4666 20.4828 10.4844V8.81659C20.4828 8.4308 20.1319 8.16965 19.7696 8.25274C19.574 8.30022 19.3784 8.32396 19.1714 8.32396Z" fill="#433F40" style="fill:#433F40;fill:color(display-p3 0.2627 0.2471 0.2510);fill-opacity:1;"/>
</svg>
