<svg width="524" height="509" viewBox="0 0 524 509" fill="none" xmlns="http://www.w3.org/2000/svg">
<path d="M143.613 136.539C142.251 137.434 141.59 137.084 141.356 135.463C140.877 132.093 140.059 128.762 139.826 125.379C139.515 120.842 138.879 116.331 139.061 111.755C139.152 109.357 139.58 107.024 139.943 104.691C140.539 100.815 143.574 98.5599 146.363 96.2915C147.764 95.1508 149.489 94.399 151.214 93.6731C160.643 89.7196 170.409 86.842 180.292 84.3143C181.576 83.9903 181.784 83.5366 181.589 82.1626C181.071 78.585 180.889 74.9815 181.174 71.3391C181.602 65.9857 181.667 60.6064 182.484 55.2918C183.198 50.5995 184.106 45.7905 186.142 41.6556C190.046 33.7356 195.584 26.9175 203.768 22.8603C205.597 21.9529 207.724 21.6807 209.631 20.903C211.835 20.0086 213.405 18.3494 213.924 15.9773C214.793 11.972 217.01 9.05548 220.668 7.24076C224.274 5.45197 227.996 4.09093 232.043 3.57244C236.491 3.0021 240.603 3.90946 243.871 6.83893C246.362 9.05548 248.281 8.14812 250.266 6.6445C253.508 4.19463 257.282 2.75582 260.745 0.720747C262.976 -0.58844 264.675 0.04671 266.426 1.34294C267.529 2.1466 267.568 2.92433 266.53 3.83169C265.674 4.57054 264.74 5.21865 263.78 5.81491C259.513 8.48514 255.272 11.1683 250.94 13.7219C249.863 14.357 249.889 15.07 250.019 16.0162C250.201 17.2995 248.943 18.7383 249.954 19.8012C250.758 20.6437 252.094 20.9937 253.236 21.4733C256.102 22.6658 258.774 24.2343 261.472 25.7379C264.623 27.4878 266.919 30.0673 269.241 32.7116C274.896 39.1409 276.685 47.0608 278.086 55.1493C279.591 63.8469 279.694 72.6353 279.656 81.4108C279.656 83.3162 280.265 83.6662 282.029 84.0421C295.479 86.9068 308.747 90.4196 321.51 95.6693C326.931 97.9117 329.318 102.008 329.72 107.595C329.966 110.939 329.253 114.089 328.345 117.316C326.75 122.981 325.608 128.775 324.285 134.517C324.169 135.023 324.039 135.528 323.974 136.034C323.805 137.187 322.923 137.278 322.106 137.123C321.121 136.941 321.25 136.086 321.419 135.386C322.366 131.588 323.377 127.79 324.285 123.979C325.323 119.662 326.555 115.372 327.178 110.991C327.645 107.685 327.619 104.289 325.453 101.217C324.026 99.195 321.951 98.3784 320.018 97.4451C314.921 94.9952 309.487 93.362 304.065 91.8454C297.723 90.0696 291.38 88.203 284.895 86.9846C283.08 86.6475 281.251 86.3883 278.903 86.9586C284.247 89.3696 284.208 93.8675 284.117 98.3006C284.052 101.437 283.339 104.484 281.536 107.128C280.991 107.932 281.16 108.243 281.679 108.917C283.041 110.718 284.39 112.546 285.466 114.516C286.997 117.316 287.152 120.453 286.906 123.564C286.789 124.964 286.75 125.832 288.216 126.779C291.795 129.086 295.725 130.564 299.603 132.132C302.937 133.48 306.257 134.932 309.785 135.787C313.157 136.617 316.413 137.861 319.824 138.574C329.707 140.661 338.332 145.107 345.66 152.12C349.214 155.516 351.899 159.547 354.454 163.669C356.788 167.441 358.786 171.46 361.444 174.972C363.571 177.785 365.88 180.52 368.656 182.892C372.002 185.744 374.907 189.127 377.851 192.407C380.329 195.168 382.611 198.097 384.959 200.975C387.307 203.878 388.746 207.313 390.588 210.515C392.43 213.717 393.74 217.165 395.153 220.548C395.867 222.246 395.906 224.203 396.606 225.914C398.227 229.919 398.668 234.106 398.889 238.345C398.902 238.63 399.083 238.902 399.265 239.421C401.34 238.034 403.013 236.439 404.103 234.314C407.773 227.145 411.664 220.094 415.97 213.276C417.293 211.189 418.383 208.946 419.628 206.808C422.909 201.156 427.955 199.03 434.297 199.601C440.912 200.197 446.722 202.932 451.586 207.248C455.464 210.683 457.28 215.933 455.386 221.312C453.57 226.433 450.496 230.866 448.382 235.804C448.019 236.647 447.384 237.386 447.371 238.384C448.642 238.941 449.796 238.189 450.989 238.086C453.052 237.917 455.075 237.619 456.968 238.941C459.588 240.782 460.328 242.506 459.225 245.578C458.836 246.667 459.005 247.185 459.848 247.911C468.68 255.572 477.487 263.258 486.242 270.997C492.519 276.545 498.706 282.183 504.944 287.757C506.708 289.338 508.55 290.738 510.859 291.594C513.959 292.747 516.501 294.718 517.422 298.127C517.668 299.034 518.239 299.488 518.887 300.006C526.578 306.267 524.763 316.339 517.097 319.929C516.54 320.189 516.138 320.396 515.852 321.083C512.636 328.821 508.55 336.132 504.841 343.624C501.365 350.663 497.72 357.624 494.166 364.623C489.16 374.474 484.063 384.287 479.186 394.216C475.23 402.266 470.717 410.03 467.124 418.429C470.289 420.205 473.57 421.709 476.423 423.951C479.705 426.544 482.623 429.46 484.595 433.168C486.968 437.627 489.251 442.137 489.99 447.232C491.041 454.439 491.43 461.646 490.107 468.853C489.692 471.095 488.434 473.065 487.292 475.023C483.116 482.152 477.046 487.039 469.381 490.059C454.491 495.918 439.978 494.816 425.918 487.544C418.409 483.656 412.3 478.069 408.629 470.343C404.764 462.177 404.258 453.635 407.021 444.963C408.02 441.826 408.811 438.612 410.64 435.786C413.934 430.731 417.592 426.077 422.598 422.526C428.409 418.391 434.855 416.109 441.845 415.306C444.439 415.007 446.307 414.567 447.202 411.559C448.395 407.515 450.639 403.86 452.662 400.127C456.138 393.684 459.199 387.022 462.494 380.476C464.997 375.498 467.578 370.56 470.094 365.595C471.261 363.288 472.299 360.929 473.44 358.622C476.553 352.335 479.861 346.139 482.947 339.826C486.475 332.593 490.327 325.516 494.037 318.361C495.035 316.442 495.93 314.459 497.02 312.593C497.526 311.724 497.578 311.115 496.851 310.467C494.426 308.289 494.153 305.412 494.452 302.456C494.594 301.069 494.296 300.253 493.194 299.319C485.801 293.033 478.499 286.629 471.158 280.265C463.35 273.486 455.503 266.745 447.747 259.888C446.605 258.877 445.516 258.929 444.323 259.214C442.416 259.668 440.548 260.225 438.564 259.862C437.565 259.681 437.449 260.42 437.202 261.145C435.944 264.853 435.84 268.702 436.281 272.487C436.943 278.165 436.813 283.842 436.852 289.52C436.891 293.875 436.852 293.888 441.119 293.901C450.756 293.901 460.405 293.901 470.042 293.927C471.106 293.927 472.844 293.46 472.922 294.886C473.012 296.623 471.197 296.273 470.016 296.273C459.744 296.286 449.485 296.273 439.213 296.273C436.787 296.273 436.657 296.273 436.372 298.684C435.801 303.312 435.36 307.939 434.219 312.476C432.948 317.505 430.432 321.848 426.696 325.425C425.672 326.41 424.375 327.071 422.987 327.629C416.022 330.442 408.928 330.662 401.69 328.977C401.483 328.925 401.288 328.886 401.081 328.847C397.812 328.199 394.855 327.629 391.366 329.288C385.776 331.945 380.056 330.623 374.907 327.253C372.132 325.438 369.473 323.468 367.242 320.487C356.438 330.04 343.52 331.777 329.292 330.571C332.703 333.514 332.067 337.221 332.21 340.617C332.703 351.648 333.338 362.679 333.572 373.723C333.961 391.312 334.674 408.889 334.895 426.479C334.999 434.542 335.543 442.604 335.556 450.667C335.556 453.752 336.127 457.2 333.157 459.805C336.607 461.14 338.487 464.057 340.653 466.597C345.53 472.301 350.07 478.289 355.037 483.915C358.306 487.609 361.38 491.485 364.791 495.049C366.023 496.333 367.034 497.758 368.02 499.223C370.51 502.866 369.434 505.964 365.206 507.363C362.197 508.362 359.032 508.284 355.984 508.18C346.555 507.869 337.126 508.063 327.696 508.05C288.488 508.012 249.28 508.038 210.085 508.038C192.458 508.038 174.819 508.038 157.193 508.038C141.019 508.038 124.846 508.05 108.672 508.102C107.297 508.102 105.974 507.895 104.69 507.519C100.164 506.184 100.229 502.373 102.291 499.806C104.171 497.473 106.065 495.166 108.011 492.898C113.782 486.183 119.385 479.339 124.872 472.391C126.726 470.045 128.789 467.88 130.747 465.625C132.939 463.123 135.715 461.425 139.035 459.831C135.287 457.692 133.769 454.361 133.393 450.563C133.146 448.009 133.406 445.391 133.549 442.811C133.847 437.238 134.262 431.677 134.534 426.116C135.118 413.711 135.663 401.319 136.143 388.914C136.584 377.663 137.245 366.399 138.01 355.148C138.334 350.507 138.218 345.88 138.503 341.252C138.84 335.652 142.161 332.114 147.738 331.427C150.721 331.064 153.704 330.753 156.713 330.895C157.193 330.921 157.673 330.779 158.075 330.727C158.282 329.819 157.699 329.405 157.413 328.886C156.142 326.631 156.116 326.605 153.678 327.642C146.467 330.688 138.957 332.14 131.136 332.749C126.026 333.151 121.02 332.425 115.961 332.503C113.51 332.542 111.474 331.077 108.906 330.39C108.568 333.864 107.609 336.936 105.922 339.8C103.315 344.221 100.099 348.083 96.1301 351.298C94.0549 352.983 92.0575 354.785 89.5413 355.887C88.1924 356.47 88.1276 357.714 88.2573 359.062C88.7242 363.703 88.9317 368.343 88.387 373.01C87.3753 381.733 83.0174 387.929 74.989 391.662C69.8529 394.06 64.626 395.577 58.8932 395.447C49.0101 395.214 42.0322 390.69 37.8689 381.759C36.1179 378 34.8728 374.047 33.8352 370.041C31.6043 361.447 29.5291 352.815 27.882 344.078C26.6757 337.662 28.3878 331.932 31.9416 326.734C38.6081 316.987 48.193 312.644 59.7881 312.619C68.517 312.593 75.8969 315.846 81.6945 322.47C82.0317 322.846 82.3819 323.209 82.7191 323.572C85.6633 321.446 88.8669 320.033 92.1094 318.452C87.09 312.1 83.8086 304.465 78.9189 297.816C77.8554 296.364 76.8956 295.858 75.1576 295.858C54.7299 295.91 34.3021 295.871 13.8744 295.858C10.2428 295.858 6.61115 295.858 2.97955 295.858C2.35699 295.858 1.73443 295.858 1.11187 295.794C0.657923 295.755 0.333673 295.469 0.281793 295.016C0.203973 294.445 0.437431 293.966 1.02108 293.836C1.72146 293.681 2.44778 293.577 3.1741 293.577C13.3296 293.577 23.4981 293.603 33.6536 293.603C47.2332 293.603 60.8128 293.577 74.3924 293.551C74.7815 293.551 75.2224 293.603 75.5986 293.007C74.3664 290.868 73.1083 288.677 71.513 286.668C67.3237 281.405 63.0696 276.156 60.3718 269.947C57.8297 264.101 56.6364 257.97 57.1682 251.553C57.272 250.244 57.3109 249 56.9218 247.626C56.4549 245.98 57.1423 244.152 57.9594 242.609C60.7739 237.217 63.6532 231.877 67.5961 227.171C68.4391 226.173 69.2303 225.084 69.4249 223.659C69.5675 222.609 70.4365 221.844 71.1239 221.118C75.4948 216.439 78.5039 210.722 82.771 205.978C83.1082 205.615 83.3417 205.084 83.4454 204.604C84.8332 197.786 89.269 192.925 94.016 188.298C96.1301 186.237 98.6722 184.603 100.708 182.465C103.51 179.522 106.662 176.891 108.088 172.743C109.502 168.608 111.435 164.603 113.471 160.727C114.898 158.018 116.921 155.516 119.295 153.611C121.253 152.042 122.874 150.124 124.353 148.309C127.245 144.757 131.006 142.994 134.936 141.283C138.023 139.948 141.175 138.743 144.301 137.486C148.114 136.734 151.512 134.763 155.442 134.193C159.683 133.584 163.665 131.912 167.543 129.89C171.901 127.621 176.129 125.029 180.72 123.201C181.408 122.929 181.849 122.436 181.836 121.542C181.797 118.34 182.77 115.463 184.689 112.896C185.39 111.976 185.493 111.159 184.598 110.187C182.329 107.737 181.706 104.51 180.993 101.45C179.877 96.6544 178.866 91.7676 181.278 86.9068C180.526 86.7642 179.955 86.8679 179.333 87.0234C170.176 89.1752 161.369 92.4028 152.627 95.8248C149.774 96.9396 147.401 98.7154 145.157 100.699C143.561 102.112 142.511 103.874 142.2 106C141.395 111.548 141.266 117.109 141.927 122.683C142.472 127.284 143.017 131.899 143.561 136.5L143.613 136.539ZM199.968 351.972C199.968 351.7 200.007 351.415 199.955 351.155C199.916 351 199.683 351.039 199.631 351.259C199.553 351.57 199.76 351.79 200.033 351.92C200.24 352.335 200.461 352.763 200.668 353.177C201.096 354.526 202.277 355.511 202.471 356.962C205.104 363.677 207.724 370.404 210.37 377.119C211.148 379.076 211.174 379.063 213.405 378.285C212.276 376.691 210.811 375.33 210.214 373.386C209.916 372.4 210.162 371.376 209.669 370.391C207.646 366.321 205.882 362.134 203.574 358.207C203.314 357.766 203.327 356.911 202.445 357.014C202.471 355.446 201.628 354.305 200.629 353.229C200.448 352.789 200.837 352.05 199.981 351.972H199.968ZM276.115 383.146C275.44 383.03 275.544 383.548 275.518 383.911C275.492 384.339 275.687 384.87 276.154 384.663C276.659 384.429 275.92 384.054 276.024 383.678C276.076 383.483 276.115 383.289 276.167 383.094C276.076 382.874 275.803 382.563 276.374 382.693C276.296 382.848 276.206 382.991 276.128 383.146H276.115ZM268.657 360.022C267.671 360.281 267.658 361.24 267.386 361.927C264.844 368.382 262.237 374.824 260.084 381.448C260.81 381.772 261.485 382.005 261.783 380.943C262.068 379.945 262.496 378.985 262.639 377.974C263.093 374.578 264.299 371.441 265.427 368.24C266.413 365.453 268.19 362.964 268.592 359.97C270.667 356.988 272.159 353.722 273.391 350.326C271.29 353.307 269.072 356.237 268.657 360.022ZM199.371 261.781C199.255 260.199 199.151 258.605 199.034 257.023C198.814 254.677 198.321 252.318 198.412 249.972C198.723 241.624 199.06 233.264 199.696 224.929C200.098 219.718 200.344 214.494 201.667 209.335C202.419 206.393 202.562 203.23 203.146 200.197C203.82 196.775 204.832 193.34 204.974 189.892C205.234 183.502 204.974 177.085 204.909 170.669C204.909 169.736 204.896 168.66 204.209 168.038C203.301 167.221 203.431 166.249 203.236 165.238C202.614 161.997 202.238 158.692 200.863 155.516C200.746 158.186 200.642 160.727 201.537 163.216C201.771 163.877 201.862 164.628 201.887 165.341C202.264 176.541 201.174 187.611 199.099 198.616C197.854 205.2 196.725 211.785 196.894 218.551C197.063 225.694 197.27 232.836 197.05 239.965C196.92 244.437 197.283 248.844 197.659 253.264C197.776 254.612 197.646 256.077 199.008 256.997C199.151 258.579 198.788 260.186 199.397 261.729C199.981 264.529 200.344 267.367 201.148 270.141C202.225 273.9 203.042 277.75 203.107 281.678C203.21 287.459 203.314 286.513 208.359 286.072C208.437 286.072 208.489 285.929 208.697 285.683C205.519 282.092 204.728 277.387 203.223 272.993C201.939 269.26 200.954 265.41 199.358 261.781H199.371ZM368.306 314.252C368.293 314.407 367.774 314.252 368.098 314.615C368.176 314.472 368.254 314.33 368.331 314.187C367.488 315.328 368.267 316.365 368.669 317.324C370.822 322.587 375.167 325.386 380.238 327.266C383.986 328.653 387.722 328.614 391.665 326.618C390.692 326.216 390.03 325.944 389.369 325.685C381.898 322.703 374.765 319.113 368.319 314.265L368.306 314.252ZM444.79 247.302C442.779 247.639 440.717 247.82 438.759 248.365C436.346 249.052 434.894 251.89 435.477 254.25C436.009 256.401 438.499 257.97 440.938 257.568C445.114 256.894 449.173 255.753 453.077 254.172C455.684 253.109 456.618 250.296 455.36 247.781C454.802 246.654 454.037 245.306 452.701 245.552C450.03 246.057 447.202 246.006 444.712 247.354L444.79 247.289V247.302ZM207.555 378C207.62 378.233 207.698 378.558 207.996 378.324C208.23 378.156 208.061 377.858 207.893 377.65C205.299 369.186 202.004 360.994 198.022 353.087C197.335 351.713 196.751 350.274 196.103 348.861C195.558 347.656 195.766 346.515 196.803 345.828C197.854 345.154 198.762 346.087 199.553 346.67C200.02 347.02 200.305 347.643 200.629 348.161C204.17 353.955 207.309 359.983 210.162 366.14C211.226 368.447 212.328 370.728 213.483 373.165C213.768 372.712 213.988 372.478 214.079 372.193C215.441 367.838 216.167 367.436 220.512 368.693C220.707 368.745 220.927 368.732 221.122 368.745C221.252 368.862 221.472 369.095 221.485 369.082C221.757 368.862 221.732 368.616 221.485 368.382C221.42 368.084 221.355 367.773 221.291 367.475C219.89 361.59 216.31 356.638 214.222 351.052C213.729 349.729 213.301 348.343 212.445 347.124C210.603 344.506 208.917 341.797 207.205 339.1C206.764 338.413 206.479 337.623 206.181 336.858C205.934 336.236 205.96 335.575 206.596 335.225C207.439 334.771 208.009 335.29 208.282 336.041C209.293 338.789 211.407 340.902 212.614 343.534C213.677 345.828 215.61 346.852 217.905 347.357C218.8 347.552 219.721 347.707 220.603 347.889C224.728 348.693 230.383 347.526 232.458 342.756C233.34 340.734 233.418 340.721 231.498 338.919C231.07 339.373 230.577 339.774 230.24 340.28C229.851 340.876 229.578 341.563 229.293 342.224C228.191 344.804 226.479 345.906 224.092 345.517C222.043 345.193 220.551 343.054 220.37 340.487C220.253 338.815 220.927 337.325 221.394 335.743C219.838 335.095 218.502 334.577 217.192 333.993C211.784 331.595 206.907 328.342 202.303 324.648C200.098 322.885 197.737 321.433 195.013 320.746C192.588 320.137 190.357 319.1 188.087 318.153C179.501 314.602 172.264 308.847 164.754 303.584C162.108 301.73 159.489 300.875 156.35 301.471C151.616 302.378 148.723 305.399 147.089 309.689C145.961 312.657 146.233 316.209 149.891 317.829C150.267 317.998 150.604 318.257 150.941 318.49C156.869 322.794 161.097 328.121 161.68 335.756C162.121 341.563 163.25 347.189 165.857 352.465C166.298 353.359 166.57 354.448 166.583 355.446C166.635 358.155 167.063 360.812 167.686 363.418C169.034 369.082 171.226 374.345 175.558 378.622C175.883 377.326 176.012 376.185 177.193 375.55C179.19 374.487 180.837 375.913 182.899 376.639C182.614 375.848 182.523 375.46 182.355 375.11C181.019 372.439 179.372 369.925 178.295 367.099C177.141 364.092 176.388 360.994 175.986 357.818C175.831 356.638 176.181 355.368 177.348 355.031C178.567 354.681 179.06 355.9 179.449 356.859C179.683 357.429 179.813 358.051 179.981 358.648C182.017 365.518 184.767 372.076 188.593 378.156C189.229 379.167 189.786 380.269 190.941 380.956C191.823 377.456 192.056 377.326 196.842 377.222C197.037 376.665 196.712 376.237 196.492 375.771C193.029 368.279 189.67 360.734 185.934 353.359C185.441 352.387 184.404 351.129 185.753 350.378C187.192 349.574 187.244 351.376 187.646 352.128C191.667 359.697 195.299 367.449 198.71 375.317C199.553 377.248 200.552 379.102 201.745 381.5C202.718 377.987 204.909 377.559 207.529 377.974L207.555 378ZM278.748 378.195C281.186 376.38 283.676 375.187 286.244 377.896C289.422 372.906 291.692 367.695 293.987 362.497C295.116 359.957 296.283 357.429 297.463 354.901C297.684 354.422 298.086 353.968 298.67 354.163C299.162 354.331 299.474 354.811 299.565 355.342C299.616 355.627 299.539 355.951 299.461 356.237C298.864 358.635 298.306 361.059 297.619 363.444C296.958 365.738 295.92 367.799 294.364 369.704C292.677 371.765 291.16 374.008 290.019 376.704C291.588 376.535 292.976 375.706 294.377 376.224C295.92 376.782 296.387 378.285 296.776 379.724C297.593 379.374 297.969 378.895 298.345 378.389C302.444 372.932 304.934 366.749 306.413 360.138C307.593 354.888 308.19 349.548 308.955 344.233C309.707 338.984 310.615 333.825 314.065 329.521C315.362 327.914 316.555 326.216 317.969 324.712C320.057 322.483 321.419 319.813 322.625 317.091C323.715 314.641 324.558 312.074 323.702 309.3C322.521 305.489 317.891 302.184 313.52 302.028C308.125 301.834 303.404 303.597 299.162 306.824C295.79 309.404 292.444 311.996 289.072 314.576C283.741 318.659 277.593 321.303 271.212 322.859C262.937 324.881 255.869 328.445 250.408 335.03C253.534 337.921 253.845 340.604 251.355 342.963C249.423 344.791 245.765 344.895 243.599 343.171C242.873 342.587 242.263 341.848 241.485 341.369C240.136 340.539 239.371 340.993 239.202 342.574C238.943 344.985 240.136 346.398 243.093 347.383C250.162 349.742 257.879 346.035 260.914 341.291C262.522 338.763 264.286 336.339 265.492 333.566C265.946 332.542 266.634 331.608 267.243 330.662C267.619 330.079 268.242 329.819 268.865 330.118C269.604 330.481 269.344 331.206 269.098 331.738C268.475 333.047 267.814 334.33 267.075 335.575C264.727 339.463 262.289 343.3 259.954 347.202C256.102 353.631 253.78 360.721 251.576 367.812C250.797 370.314 250.188 373.074 250.59 376.147C254.598 370.119 255.09 369.989 260.317 373.424C262.626 366.321 266.024 359.697 268.968 352.892C269.837 350.883 271.108 349.107 272.379 347.344C272.911 346.606 273.637 346.32 274.558 346.554C275.44 346.774 275.479 347.565 275.752 348.213C276.335 349.639 275.687 350.857 275.116 352.063C273.547 355.316 271.874 358.518 270.356 361.797C268.527 365.725 267.658 370.015 265.985 374.021C265.09 376.16 264.753 378.532 264.105 381.02C269.513 376.678 271.679 376.834 273.819 381.733C274.182 381.046 274.584 380.45 274.831 379.802C277.541 372.88 280.226 365.958 282.898 359.036C283.754 356.833 284.532 354.59 285.388 352.374C285.609 351.803 285.972 351.116 286.711 351.337C287.554 351.596 287.165 352.322 286.997 352.879C286.491 354.564 286.037 356.262 285.44 357.909C283.041 364.493 280.589 371.078 278.164 377.65C278.008 377.948 277.606 378.272 277.995 378.583C278.449 378.946 278.553 378.428 278.735 378.169L278.748 378.195ZM301.173 378.778C302.937 378.778 304.156 378.817 305.375 378.778C309.11 378.622 312.833 378.441 316.555 378.83C319.37 379.115 320.135 379.698 320.355 382.641C320.809 388.5 321.211 394.371 321.38 400.243C321.614 407.787 321.562 415.344 321.704 422.901C321.847 430.42 322.08 437.925 322.275 445.443C322.288 446.13 322.586 447.102 321.614 447.167C320.615 447.245 320.329 446.337 320.304 445.43C320.304 445.222 320.304 445.015 320.304 444.808C320.239 440.05 320.161 435.293 320.122 430.536C320.07 424.651 320.174 418.754 320.005 412.869C319.72 403.678 319.214 394.501 318.89 385.311C318.747 381.189 318.151 380.424 314.026 380.333C309.902 380.23 305.764 380.437 301.64 379.893C300.278 379.711 299.24 380.152 298.864 381.63C299.577 381.928 300.291 381.902 301.017 381.902C303.391 381.902 304.039 382.459 304.169 384.715C304.26 386.257 304.208 387.826 304.143 389.381C304.091 390.418 303.624 390.988 302.431 391.17C300.382 391.481 298.345 391.014 296.283 391.442C295.09 391.688 294.143 390.82 294.143 389.381C294.143 387.968 294.143 386.568 294.143 385.155C292.574 385.376 292.249 386.387 292.366 387.644C292.651 390.703 292.042 391.001 288.864 391.481C287.334 391.701 285.751 391.714 284.208 391.585C282.107 391.416 281.705 390.924 281.186 388.655C281.095 388.253 281.056 387.826 280.46 387.877C279.915 387.916 279.785 388.279 279.811 388.72C279.902 390.768 278.67 392.051 276.919 392.038C275.077 392.038 273.248 392.233 271.407 392.168C265.881 391.986 260.343 391.87 254.805 391.805C248.294 391.727 241.77 391.714 235.259 391.714C227.62 391.714 219.981 391.649 212.328 392.077C206.959 392.375 201.563 392.323 196.181 392.272C193.211 392.246 192.549 391.429 192.536 388.344C192.536 387.527 192.173 387.139 191.524 387.074C190.798 386.996 190.85 387.709 190.772 388.176C190.357 390.491 189.034 391.671 186.803 391.714C186.181 391.714 185.558 391.714 184.936 391.714C182.225 391.649 182.173 391.559 182.043 388.927C181.991 388.02 182.445 387.061 181.849 386.218C179.242 387.152 176.544 386.698 173.898 386.633C172.912 386.607 172.16 386.037 172.108 384.87C172.043 383.639 172.472 382.887 173.807 382.796C174.287 382.757 174.871 382.77 175.053 382.135C174.287 381.059 173.185 381.111 172.056 381.111C166.453 381.111 160.863 381.072 155.26 381.072C153.6 381.072 151.927 381.059 150.293 381.254C148.114 381.513 147.452 382.33 147.349 384.494C147.31 385.324 147.349 386.153 147.349 386.983C147.271 395.992 147.478 405.014 147.05 414.009C146.635 422.888 145.961 431.755 145.87 440.66C145.87 441.995 145.663 443.33 145.533 444.665C145.481 445.184 145.377 445.767 144.716 445.78C143.86 445.78 143.847 445.067 143.795 444.458C143.769 444.16 143.86 443.835 143.873 443.537C144.184 437.549 144.236 431.547 144.469 425.546C144.832 416.161 144.794 406.75 145.17 397.353C145.338 393.127 145.351 388.888 145.39 384.65C145.416 381.306 148.062 379.024 151.162 379.206C156.233 379.517 161.317 379.115 166.402 379.465C168.321 379.595 170.254 379.335 172.199 379.245C172.134 378.83 172.173 378.596 172.069 378.454C168.503 373.165 165.909 367.514 165.014 361.11C164.586 357.986 164.728 354.746 163.211 351.765C161.577 348.537 160.552 345.076 160.046 341.434C159.748 339.282 159.657 337.117 159.476 334.965C159.359 333.617 158.762 332.943 157.284 333.034C154.599 333.19 151.875 333.008 149.216 333.345C147.543 333.566 145.714 333.501 144.21 334.667C141.823 336.508 140.682 338.984 140.526 341.861C140.047 350.948 139.748 360.047 139.216 369.134C138.892 374.721 139.139 380.307 138.685 385.894C138.114 392.894 138.075 399.932 137.686 406.945C137.297 413.957 136.726 420.957 136.272 427.97C135.831 434.879 135.935 441.813 135.676 448.735C135.468 454.296 136.804 457.614 143.821 458.496C148.244 459.053 152.653 458.159 157.063 458.755C158.01 458.885 158.697 458.237 158.892 457.07C159.372 454.205 159.735 454.011 162.679 453.959C169.19 453.816 175.701 454.166 182.212 454.27C187.88 454.361 193.561 454.426 199.229 454.542C209.981 454.75 220.733 454.944 231.485 455.087C239.552 455.19 247.62 455.139 255.687 455.242C263.923 455.359 272.172 455.618 280.408 455.761C288.592 455.89 296.776 455.929 304.96 456.059C306.503 456.085 308.319 456.059 308.864 457.861C309.266 459.196 310.096 459.442 311.134 459.468C317.139 459.611 323.157 459.805 329.136 459.066C331.6 458.755 333.39 457.355 333.468 454.348C333.546 451.574 333.572 448.787 333.507 446.013C333.416 441.671 333.403 437.315 333.04 432.986C332.664 428.566 332.392 424.107 332.249 419.7C331.938 409.771 332.106 399.829 331.626 389.9C331.172 380.606 331.393 371.286 330.965 361.979C330.576 353.618 329.668 345.296 329.603 336.91C329.577 334.032 328.228 332.684 325.479 331.958C323.442 331.427 321.38 331.375 319.318 331.258C315.634 331.038 314.96 331.453 313.378 334.784C313.118 335.341 312.963 335.951 312.781 336.547C311.795 339.619 311.51 342.821 311.017 345.983C310.174 351.376 309.525 356.82 308.267 362.121C306.919 367.838 304.804 373.334 301.186 378.843L301.173 378.778ZM397.177 244.502C394.505 245.487 392.222 246.446 389.875 247.172C384.155 248.922 378.565 250.983 373.208 253.666C365.737 257.386 359.032 262.156 353.338 268.275C349.123 272.798 348.059 278.424 349.11 284.166C349.979 288.911 352.262 293.318 354.972 297.362C360.485 305.593 367.891 311.867 376.334 316.818C384.181 321.42 392.546 324.946 401.587 326.67C407.773 327.849 413.869 328.277 419.952 326.281C423.61 325.075 426.541 323.027 428.603 319.644C430.964 315.781 432.235 311.62 432.961 307.2C434.621 297.064 435.036 286.888 434.297 276.661C434.063 273.33 433.739 270.012 433.441 266.382C430.704 267.899 428.123 268.456 425.399 268.534C418.94 268.728 413.221 266.68 407.981 263.051C404.206 260.432 400.964 257.36 398.785 253.2C397.371 250.516 397.293 247.678 397.177 244.502ZM224.857 59.9323C224.598 60.2434 224.403 60.3601 224.364 60.5286C224.17 61.2286 224.014 61.9285 223.859 62.6414C222.549 68.9152 219.916 74.5667 215.778 79.4664C210.785 85.3643 204.819 90.0048 197.802 93.2842C197.166 93.5823 196.661 93.8805 196.492 94.7878C194.884 103.511 196.284 111.95 199.592 119.961C201.498 124.575 203.353 129.345 206.453 133.402C208.619 136.241 210.435 139.248 213.509 141.426C216.284 143.383 219.215 145.081 221.952 147.091C222.977 147.842 223.911 148.75 225.324 149.152C228.359 150.033 231.407 150.474 234.494 150.176C237.049 149.929 239.449 149.126 241.628 147.492C244.26 145.509 246.854 143.513 249.319 141.348C253.054 138.043 256.063 134.089 258.489 129.799C260.356 126.519 261.835 122.994 263.249 119.455C266.569 111.133 268.813 102.708 268.592 93.6083C268.475 88.903 266.815 84.9365 263.949 81.7867C260.084 77.5221 255.207 74.3204 249.643 72.3631C246.543 71.2743 243.366 70.2892 240.395 68.9022C237.451 67.5282 234.468 66.232 231.693 64.4302C229.397 62.9396 227.114 61.41 224.831 59.9323H224.857ZM301.186 288.898C279.902 288.898 259.137 288.885 238.372 288.898C217.555 288.924 196.725 288.988 175.519 289.027C176.609 291.27 177.919 292.851 178.191 294.783C178.84 299.397 178.801 304.063 178.062 308.652C177.854 309.922 178.178 310.221 178.982 310.752C182.679 313.241 186.596 315.405 190.798 316.831C197.011 318.931 202.847 321.588 207.789 326.009C208.632 326.76 209.721 326.994 210.941 326.981C225.246 326.929 239.552 326.942 253.858 326.955C254.896 326.955 255.817 326.851 256.738 326.177C260.629 323.312 265.233 322.068 269.785 320.72C272.353 319.968 274.947 319.281 277.412 318.27C283.495 315.794 288.903 312.191 293.91 307.952C294.934 307.084 295.427 306.28 295.44 304.88C295.466 300.784 296.517 296.921 298.566 293.344C299.318 292.034 300.096 290.725 301.186 288.885V288.898ZM154.547 324.712C152.29 322.042 149.618 320.655 147.154 319.022C146.493 318.594 146.013 319.1 145.468 319.385C139.839 322.405 134.145 322.133 128.464 319.592C124.69 317.907 121.201 315.742 117.855 313.267C112.122 309.002 106.778 304.375 102.096 298.943C95.5724 291.386 88.5556 284.283 80.9552 277.776C78.5298 275.689 75.8969 273.537 74.6777 270.634C72.4209 265.267 72.1226 259.733 74.8723 254.198C76.6362 250.633 78.2574 247.004 78.867 242.92C79.5674 238.163 80.7088 233.445 83.3157 229.219C84.8721 226.692 86.1691 223.996 87.4791 221.312C88.3481 219.537 89.269 217.722 90.7346 216.49C93.9382 213.768 96.0782 210.333 98.0756 206.756C98.8797 205.317 99.8784 203.956 100.41 202.426C102.226 197.203 103.756 191.875 107.284 187.403C109.308 184.837 110.747 181.765 113.225 179.574C116.739 176.463 118.918 172.613 120.462 168.271C121.927 164.175 122.239 159.69 125.287 156.099C126.999 154.077 128.283 151.692 130.436 150.02C131.292 149.359 132.031 148.555 132.148 147.039C130.475 147.428 129.191 147.752 128.01 148.763C124.768 151.524 122.252 154.959 119.385 158.057C118.166 159.379 116.545 160.39 115.78 162.153C114.055 166.067 111.966 169.865 110.618 173.909C109.165 178.291 106.013 181.285 102.978 184.266C100.073 187.131 96.6748 189.516 93.7955 192.484C90.6178 195.764 87.5569 199.134 86.5453 203.762C85.9227 206.613 84.2366 208.869 82.5116 210.969C81.4091 212.317 80.2807 213.665 79.308 215.104C74.5869 222.116 69.1914 228.649 64.587 235.752C59.9827 242.869 58.9581 250.685 59.7881 258.89C60.7868 268.728 66.4158 276.285 72.1615 283.765C76.0655 288.846 79.8138 294.057 83.2509 299.449C87.1159 305.528 91.1237 311.452 96.1171 316.663C96.8694 317.44 97.5827 318.387 98.8668 318.516C103.328 318.944 106.234 321.472 108.05 325.412C108.88 327.214 110.241 328.277 112.096 328.951C114.158 329.703 116.208 330.299 118.413 330.299C123.16 330.299 127.881 330.662 132.654 330.247C140.137 329.612 147.271 327.927 154.547 324.725V324.712ZM458.551 427.036C459.9 429.305 459.965 429.305 459.796 431.34C459.718 432.299 459.796 433.116 460.224 434.01C461.339 436.317 460.6 439.83 458.629 441.308C454.66 444.289 450.367 445.274 445.386 442.176C441.69 439.869 440.665 435.916 442.792 432.131C443.091 431.586 443.389 431.042 443.661 430.484C444.673 428.475 445.347 426.31 447.423 424.924C448.317 424.327 448.33 422.888 447.682 421.813C447.098 420.815 446.579 419.777 446.515 418.637C446.437 417.392 445.866 417.081 444.712 417.185C442.235 417.405 439.783 417.768 437.397 418.391C428.538 420.698 420.782 424.612 416.165 433.09C413.337 438.288 412.883 443.667 414.803 449.241C417.164 456.111 421.872 461.01 428.071 464.588C437.967 470.304 448.629 472.002 459.77 469.98C466.54 468.749 472.883 466.273 478.045 461.412C483.842 455.942 486.903 449.409 485.269 441.399C483.168 431.107 475.775 425.351 466.891 421.061C466.177 420.711 465.723 421.022 465.373 421.631C463.881 424.249 461.677 426.025 458.551 427.049V427.036ZM109.269 503.89C109.671 502.308 110.968 502.684 112.018 502.671C127.556 502.593 143.094 502.516 158.645 502.477C172.497 502.438 186.362 502.438 200.214 502.438C213.47 502.438 226.738 502.49 239.993 502.464C260.706 502.438 281.432 502.321 302.146 502.334C314 502.334 325.855 502.23 337.709 502.269C345.53 502.295 353.364 502.217 361.185 502.58C361.795 502.606 362.443 502.542 363.014 502.36C365.309 501.621 365.997 499.975 364.44 498.121C361.743 494.907 359.382 491.407 356.399 488.452C352.871 484.965 349.616 481.219 346.659 477.265C343.196 472.651 339.331 468.386 335.543 464.07C334.584 462.981 333.494 462.566 332.003 462.618C326.335 462.825 320.667 462.799 314.986 462.708C306.4 462.566 297.801 462.734 289.214 462.631C280.615 462.54 272.016 462.631 263.404 462.618C231.135 462.605 198.878 462.579 166.609 462.566C157.608 462.566 148.594 462.592 139.593 462.566C137.958 462.566 136.713 463.097 135.39 464.121C132.342 466.493 129.956 469.488 127.608 472.404C121.538 479.948 115.365 487.389 109.152 494.803C107.31 497.007 105.404 499.197 103.795 501.582C102.498 503.514 103.432 505.121 105.767 505.562C106.273 505.652 106.791 505.704 107.31 505.73C113.808 506.015 120.306 505.86 126.804 505.886C131.759 505.912 136.726 505.782 141.681 505.834C149.839 505.912 157.997 505.847 166.168 505.938C173.781 506.028 181.408 505.951 189.034 505.795C196.168 505.639 203.314 505.756 210.448 505.756C221.407 505.756 232.38 505.704 243.34 505.782C254.377 505.86 265.427 505.795 276.465 505.964C282.626 506.054 288.825 505.847 295.012 505.795C303.598 505.704 312.184 505.873 320.77 505.886C325.297 505.886 329.811 505.73 334.337 505.821C337.203 505.873 340.083 505.614 342.91 505.834C349.629 506.365 356.321 505.795 363.014 505.704C364.726 505.678 366.204 505.069 366.71 503.06C365.75 502.879 365.037 503.449 364.376 503.786C361.743 505.16 358.682 505.406 356.217 504.706C352.897 503.76 349.732 504.136 346.503 504.123C335.323 504.084 324.143 504.201 312.963 504.214C303.533 504.214 294.117 504.136 284.688 504.149C269.241 504.175 253.806 504.253 238.359 504.278C220.681 504.304 203.003 504.278 185.325 504.33C176.544 504.356 167.763 504.486 158.983 504.564C153.107 504.615 147.245 504.693 141.369 504.719C131.642 504.745 121.914 504.719 112.187 504.719C111.149 504.719 110.125 504.693 109.256 503.877L109.269 503.89ZM142.744 152.833C140.656 154.298 138.892 155.542 137.128 156.773C134.859 158.355 134.327 161.051 132.952 163.203C129.956 167.908 127.634 172.95 125.326 178.006C122.693 183.761 119.735 189.244 114.21 192.873C112.394 194.066 110.864 195.647 110.099 197.786C108.322 202.738 106.467 207.689 105.559 212.887C104.781 217.359 102.369 220.846 99.7358 224.32C96.9472 227.988 93.7306 231.319 91.6814 235.571C90.54 237.917 90.2936 239.654 91.9667 241.78C94.6645 245.202 96.169 249.091 95.3649 253.563C94.7942 256.738 94.7942 259.927 94.8072 263.142C94.8331 267.536 96.7008 270.712 100.644 272.837C102.459 273.823 104.353 274.613 106.143 275.624C115.87 281.107 124.08 288.457 131.901 296.325C134.962 299.397 138.088 302.404 142.005 304.439C145.779 306.41 145.675 306.358 148.697 303.052C149.787 301.86 149.969 300.875 149.424 299.449C148.568 297.232 147.582 295.094 146.35 293.071C141.512 285.164 134.392 280.381 125.546 278.074C122.576 277.296 120.008 275.819 117.557 274.108C116.13 273.123 114.781 271.774 114.353 270.051C113.795 267.756 113.004 265.475 113.017 263.09C113.056 257.646 110.734 252.863 108.802 248.015C108.101 246.252 107.712 244.515 108.296 242.92C109.528 239.46 110.216 235.817 112.148 232.577C114.055 229.375 115.326 225.836 115.909 222.142C117.258 213.639 121.11 206.471 127.025 200.262C129.217 197.954 131.59 195.608 133.211 192.99C137.245 186.444 141.772 180.067 143.834 172.471C143.938 172.069 143.938 171.563 144.197 171.304C145.442 170.008 145.183 168.478 145.053 166.91C144.651 162.282 143.341 157.81 142.783 152.833H142.744ZM75.5986 261.755C74.8463 265.267 76.0785 268.469 78.2574 271.204C80.164 273.602 82.3819 275.78 84.7295 277.763C88.4518 280.9 91.7462 284.439 95.1314 287.887C98.8279 291.646 102.174 295.729 105.793 299.579C109.982 304.038 114.625 307.952 119.619 311.517C122.835 313.798 126.052 316.054 129.658 317.557C134.054 319.385 138.607 319.916 143.172 317.842C144.34 317.311 144.962 316.805 144.664 315.315C144.366 313.811 144.34 312.191 144.586 310.674C144.845 309.067 144.391 308.328 142.926 307.667C140.967 306.786 139.126 305.645 137.349 304.362C132.368 300.771 128.309 296.169 123.899 291.996C116.765 285.229 108.919 279.772 100.034 275.663C95.3649 273.498 92.8357 269.804 92.1613 264.632C91.6554 260.757 92.2131 256.985 92.6022 253.187C92.9265 250.102 92.5504 247.289 90.6438 244.774C90.1509 244.126 89.697 243.426 89.3079 242.7C88.387 241.041 88.0238 239.356 88.3481 237.386C89.0355 233.315 91.5128 230.295 93.9252 227.262C97.1158 223.231 100.618 219.446 102.55 214.533C103.328 212.563 103.458 210.515 103.86 208.506C104.69 204.332 106.506 200.469 107.933 196.503C108.529 194.843 109.411 192.873 111.188 191.849C115.17 189.568 117.868 186.159 120.163 182.27C121.331 180.3 122.122 178.187 123.173 176.178C125.935 170.915 128.49 165.549 131.408 160.351C132.991 157.525 134.586 154.816 137.517 153.286C139.022 152.509 140.176 151.394 141.434 150.331C141.862 149.968 142.212 149.748 142.135 149.152C141.966 147.985 140.487 145.976 139.567 146.002C138.075 146.028 136.428 145.328 135.403 147.466C134.288 149.787 132.459 151.666 130.501 153.403C128.257 155.399 126.973 158.147 125.429 160.636C124.34 162.412 124.029 164.693 123.484 166.78C122.122 171.939 119.982 176.632 116 180.365C112.291 183.839 109.878 188.323 106.986 192.433C106.104 193.677 105.313 195.206 104.937 196.879C103.575 203.126 100.229 208.48 96.9213 213.82C96.4933 214.507 95.8447 215.078 95.2352 215.635C92.6282 218.033 90.3844 220.69 89.1004 224.06C88.6594 225.201 88.1017 226.303 87.3753 227.34C84.1977 231.89 82.317 237.126 81.5777 242.454C80.9033 247.328 78.9967 251.579 76.9475 255.805C76.0006 257.762 75.3521 259.525 75.6115 261.768L75.5986 261.755ZM320.887 174.726C321.043 176.23 320.472 177.578 320.187 178.978C319.266 183.644 319.188 188.414 318.475 193.094C318.202 194.818 317.71 196.529 317.917 198.317C317.995 199.017 317.904 199.964 318.877 199.99C321.704 200.041 323.144 202.31 324.376 204.073C328.669 210.204 333.157 216.218 336.97 222.686C338.008 224.449 339.486 225.966 340.407 227.768C341.172 229.297 342.145 230.658 343.416 231.63C346.231 233.782 347.463 236.919 348.306 239.991C350.173 246.822 350.407 253.835 349.227 260.847C348.513 265.099 347.463 269.299 347.113 273.9C348.319 272.63 348.41 271.075 349.214 269.882C351.509 266.499 354.246 263.595 357.787 261.469C363.105 258.281 367.307 253.459 373.195 251.126C374.116 250.763 374.401 250.14 374.466 249.22C374.505 248.507 374.752 247.807 374.842 247.094C375.413 242.83 376.541 238.63 374.998 234.249C372.871 228.208 369.59 223.373 363.701 220.366C361.704 219.342 359.395 218.759 357.735 217.216C355.828 215.453 353.701 214.054 351.509 212.757C346.438 209.763 341.86 206.328 338.41 201.376C336.866 199.147 335.842 196.71 334.441 194.442C333.053 192.173 332.041 189.62 331.549 186.988C330.615 181.933 328.501 177.811 323.429 175.854C322.651 175.556 322.249 174.635 320.887 174.713V174.726ZM427.345 202.945C423.895 204.008 422.507 206.432 421.119 208.869C419.732 211.293 418.37 213.717 416.917 216.102C413.091 222.349 409.641 228.805 406.204 235.273C405.192 237.165 404.414 239.356 402.404 240.406C400.484 241.404 399.849 243.05 399.524 244.891C398.876 248.494 400.212 251.644 402.183 254.496C405.14 258.76 409.304 261.586 413.921 263.79C418.837 266.123 423.934 266.888 429.303 265.553C431.223 265.073 432.624 263.906 434.012 262.688C435.023 261.806 435.386 258.592 434.764 257.646C431.482 252.642 433.22 247.574 438.966 245.785C440.354 245.357 441.197 244.735 441.91 243.465C444.634 238.721 446.359 233.445 449.368 228.869C451.028 226.342 451.884 223.464 453.272 220.833C453.7 220.029 454.361 219.018 453.324 217.735C451.417 221.053 448.305 222.673 444.88 222.699C438.006 222.751 431.872 220.574 427.41 214.948C424.038 210.683 423.96 207.469 427.345 202.945ZM298.631 286.214C299.603 286.603 300.304 286.214 301.017 286.214C303.066 286.163 304.104 285.156 304.13 283.194C304.182 277.296 304.83 271.437 305.038 265.553C305.271 259.007 305.998 252.422 305.077 245.915C303.935 237.852 303.443 229.712 301.977 221.688C301.238 217.631 300.849 213.483 299.863 209.491C298.76 205.019 297.593 200.56 296.102 196.166C294.649 191.888 293.949 187.364 292.444 183.061C291.627 180.741 290.732 178.394 290.278 175.996C288.812 168.012 287.204 160.027 286.27 151.977C285.453 144.874 283.858 137.615 287.087 130.616C287.425 129.89 286.919 129.514 286.491 129.034C285.777 128.256 285.116 128.684 284.61 129.125C282.366 131.069 279.72 131.121 276.997 130.94C276.595 130.914 276.193 130.978 275.713 131.004C275.791 131.795 275.752 132.495 275.674 133.208C275.427 135.554 275.311 137.926 275.298 140.285C275.259 143.941 276.672 147.557 275.583 151.264C275.414 151.822 275.622 152.496 275.648 153.118C275.765 155.736 276.011 158.368 275.933 160.986C275.868 163.047 275.985 165.069 276.154 167.104C276.582 172.263 278.021 177.189 279.279 182.179C281.121 189.477 283.819 196.464 286.685 203.347C288.592 207.948 289.513 212.731 290.939 217.424C292.055 221.066 292.224 224.955 293.144 228.636C295.064 236.375 295.712 244.295 296.672 252.15C297.943 262.506 298.592 272.941 298.423 283.402C298.41 284.322 298.255 285.268 298.657 286.214H298.631ZM306.763 282.896C308.553 282.533 308.968 281.678 309.136 280.394C309.513 277.426 309.966 274.458 310.563 271.528C311.653 266.071 312.301 260.575 312.794 255.027C313.274 249.596 314.078 244.204 314.688 238.786C315.038 235.714 315.725 232.59 315.466 229.556C314.908 223.088 313.455 216.698 311.666 210.515C310.148 205.278 309.564 199.86 307.697 194.688C305.777 189.348 305.427 183.54 305.803 177.811C306.011 174.7 305.907 171.615 305.829 168.504C305.699 163.436 305.479 158.199 307.321 153.481C309.11 148.879 310.589 143.902 315.219 140.221C306.011 137.732 297.736 134.219 289.409 130.81C287.71 135.813 287.464 138.069 287.84 143.28C288.54 152.859 290.174 162.295 291.977 171.719C292.405 173.948 292.69 176.204 293.52 178.343C295.557 183.657 296.983 189.14 298.358 194.649C298.734 196.153 298.89 197.747 299.552 199.108C301.666 203.437 302.301 208.195 303.222 212.783C304.623 219.848 305.064 227.094 306.192 234.21C307.554 242.804 308.203 251.437 307.865 260.121C307.736 263.608 307.788 267.108 307.398 270.608C306.944 274.587 306.97 278.606 306.776 282.883L306.763 282.896ZM240.24 286.163C241.576 286.163 242.912 286.163 244.247 286.163C246.854 286.189 247.075 286.124 246.569 283.661C245.181 277.037 245.661 270.284 244.883 263.608C244.092 256.777 244.222 249.829 244.157 242.933C244.053 231.358 244.611 219.796 245.285 208.221C245.635 202.245 246.452 196.321 246.906 190.359C247.308 185.122 248.32 179.911 247.451 174.648C246.854 171.019 247.127 167.26 245.259 163.812C243.651 160.856 242.237 159.936 238.943 160.908C237.257 161.401 235.596 161.997 233.807 161.906C232.652 161.842 232.211 162.438 231.926 163.501C230.837 167.506 230.279 171.602 230.318 175.711C230.357 179.392 230.707 183.087 231.394 186.755C232.302 191.616 232.38 196.632 233.34 201.48C234.04 205.045 234.377 208.583 234.481 212.174C234.533 213.924 234.338 215.7 234.546 217.437C235.337 224.047 235 230.658 234.74 237.256C234.429 245.591 233.729 253.925 233.236 262.26C233.106 264.529 233.314 266.849 232.951 269.091C232.121 274.185 233.249 279.202 233.366 284.244C233.392 285.54 234.183 286.253 235.609 286.253C237.153 286.253 238.709 285.994 240.253 286.176L240.24 286.163ZM410.925 440.958C409.589 443.978 408.759 447.115 408.149 450.317C407.19 455.268 407.358 460.22 408.941 465.003C412.053 474.452 418.603 481.011 427.215 485.587C434.154 489.281 441.573 491.251 449.511 491.368C458.745 491.511 467.435 489.774 475.165 484.55C482.779 479.404 488.278 472.871 488.408 463.071C488.408 462.566 488.628 462.06 488.68 461.542C489.095 457.64 488.317 453.842 487.98 449.759C487.526 450.122 487.305 450.213 487.279 450.343C485.087 459.312 478.966 464.899 471.106 468.84C465.775 471.51 459.978 472.702 454.05 473.052C444.53 473.61 435.477 471.601 427.215 466.947C420.601 463.227 415.4 457.977 412.715 450.602C411.586 447.491 411.379 444.237 410.938 440.971L410.925 440.958ZM279.241 286.253C283.858 286.176 288.345 286.538 292.859 286.331C295.803 286.201 295.855 286.331 295.829 283.272C295.803 278.619 295.907 273.965 295.44 269.312C294.701 261.923 294.545 254.496 293.404 247.12C292.223 239.473 291.134 231.838 289.694 224.229C288.203 216.322 286.205 208.571 283.093 201.195C279.85 193.482 277.606 185.498 275.285 177.513C273.274 170.591 273.106 163.436 273.222 156.346C273.326 149.424 273.495 142.515 272.781 135.632C272.405 132.002 270.94 129.203 267.23 127.829C263.028 126.286 263.197 125.716 261.083 130.654C260.979 130.901 260.81 131.212 261.121 131.458C267.127 132.482 270.278 136.137 270.538 142.178C270.81 148.361 270.097 154.518 270.032 160.701C269.941 168.452 269.785 176.178 271.562 183.813C272.587 188.22 273.845 192.588 274.053 197.164C274.182 200.041 274.481 202.945 275.025 205.784C275.765 209.62 276.828 213.392 277.71 217.203C278.501 220.612 279.565 223.957 279.967 227.457C280.628 233.212 280.836 238.98 281.095 244.761C281.497 253.355 280.978 261.897 280.084 270.452C279.526 275.663 279.202 280.926 279.266 286.279L279.241 286.253ZM513.557 321.083C511.663 321.588 509.588 320.124 508.148 320.888C506.553 321.718 506.332 324.194 505.411 325.905C505.113 326.449 504.828 326.994 504.542 327.551C497.059 342.172 489.562 356.794 482.117 371.428C478.888 377.78 475.788 384.196 472.571 390.548C468.888 397.832 465.14 405.091 461.43 412.363C460.626 413.944 459.498 415.28 458.33 416.589C457.228 417.82 455.84 417.431 454.582 417.017C453.402 416.628 452.701 415.591 452.805 414.359C452.935 412.726 453.039 411.041 453.817 409.537C457.721 402.006 461.651 394.501 465.568 386.97C471.326 375.874 477.059 364.779 482.818 353.683C488.628 342.497 494.439 331.31 500.314 320.15C500.781 319.255 501.235 317.402 502.35 317.881C504.011 318.607 502.636 319.981 502.13 320.992C493.933 337.234 485.58 353.411 477.124 369.523C470.6 381.954 464.206 394.462 457.747 406.932C456.696 408.954 456.022 411.132 455.36 413.296C455.192 413.828 455.023 414.593 455.892 414.813C456.424 414.943 456.981 414.813 457.176 414.243C457.954 412.039 459.744 410.484 460.795 408.474C464.219 401.98 467.552 395.447 470.872 388.914C476.436 377.948 481.923 366.943 487.487 355.977C493.609 343.922 499.782 331.893 505.995 319.709C503.129 317.907 501.287 315.237 499.471 312.074C498.006 315.068 496.812 317.57 495.567 320.033C492.83 325.464 490.055 330.882 487.305 336.327C482.701 345.452 478.123 354.603 473.518 363.729C470.769 369.16 467.967 374.565 465.204 379.996C461.469 387.372 457.734 394.76 454.037 402.175C452.195 405.856 450.081 409.421 448.836 413.387C447.915 416.343 449.122 421.203 451.301 422.409C457.539 425.87 460.769 425.183 463.894 419.492C464.141 419.039 464.335 418.559 464.569 418.092C468.654 409.978 472.701 401.838 476.826 393.736C482.442 382.68 488.109 371.649 493.764 360.618C500.029 348.381 506.306 336.158 512.571 323.922C512.986 323.118 513.57 322.366 513.544 321.07L513.557 321.083ZM310.784 299.579C315.154 299.293 318.864 300.473 322.106 302.858C323.844 304.128 325.466 304.245 327.32 303.415C331.302 301.64 335.115 299.579 338.397 296.649C339.084 296.027 339.746 295.366 340.174 294.51C342.768 289.364 344.493 283.959 344.544 278.191C344.583 274.445 345.024 270.763 345.673 267.108C346.555 262.131 347.748 257.231 347.592 252.085C347.502 248.961 346.983 245.928 346.71 242.843C346.49 240.367 345.232 238.345 343.624 236.543C339.759 232.201 336.983 227.107 333.766 222.323C331.095 218.344 328.955 214.015 325.764 210.385C325.479 210.061 325.375 209.361 324.687 209.75C324.402 213.328 325.051 216.776 326.257 220.094C326.724 221.377 326.97 222.648 327.1 223.996C327.787 230.762 328.851 234.223 332.132 238.967C333.935 241.585 334.48 244.528 334.389 247.444C334.298 250.607 333.663 253.822 332.781 256.881C331.484 261.34 330.264 265.812 329.357 270.362C328.488 274.717 326.244 278.333 323.352 281.691C321.432 283.907 318.916 285.372 317.009 287.575C314.078 290.972 311.328 294.407 310.797 299.591L310.784 299.579ZM84.9629 347.565C79.321 357.52 71.3574 363.184 60.7479 364.986C50.1125 366.788 40.9557 363.638 33.1867 356.249C32.6679 357.053 32.9921 357.52 33.1218 358.012C33.9649 361.408 34.8598 364.792 35.651 368.201C36.9739 373.865 39.088 379.18 42.0582 384.183C44.8208 388.837 48.8934 391.623 54.1332 392.505C61.2667 393.697 68.0111 392.583 74.548 389.264C82.4208 385.272 86.0005 378.895 86.1821 370.365C86.2729 366.023 86.2859 361.655 85.8968 357.338C85.6244 354.292 85.8708 351.181 84.9499 347.565H84.9629ZM220.473 156.812C218.71 155.84 217.62 154.972 216.557 153.999C215.182 152.755 214.04 151.277 212.575 150.124C211.589 149.346 211.109 149.631 210.733 150.59C210.007 152.405 209.527 154.168 209.786 156.281C210.072 158.627 210.409 160.96 210.837 163.28C211.472 166.664 211.031 170.073 211.187 173.456C211.472 179.885 211.641 186.392 210.448 192.653C208.826 201.169 208.1 209.789 206.634 218.331C205.026 227.677 204.352 237.191 204.741 246.731C205.013 253.653 205.428 260.549 206.842 267.328C208.048 273.071 209.695 278.709 211.057 284.413C211.382 285.761 211.978 286.189 213.379 286.266C215.117 286.37 216.842 286.266 218.645 286.344C218.645 285.8 218.697 285.385 218.645 284.996C217.4 277.335 216.634 269.623 216.505 261.884C216.388 254.755 215.947 247.626 216.777 240.51C217.659 232.914 217.905 225.266 219.176 217.709C219.604 215.168 220.02 212.537 219.799 210.009C219.125 202.375 219.643 194.714 218.943 187.079C218.619 183.502 218.515 179.898 217.685 176.385C216.531 171.486 216.479 166.573 217.335 161.621C217.672 159.703 218.191 158.031 220.486 156.825L220.473 156.812ZM376.814 249.065C379.641 248.287 382.17 247.444 384.764 246.913C386.36 246.589 387.203 245.759 387.307 244.295C387.657 239.758 388.111 235.182 386.438 230.788C384.453 225.59 380.783 221.831 376.256 218.733C370.031 214.481 364.622 209.374 360.29 203.152C357.112 198.59 353.922 194.001 351.535 188.985C349.447 184.577 346.84 180.572 343.792 176.8C340.615 172.885 337.281 169.049 334.973 164.551C333.04 160.792 330.835 157.408 327.696 154.466C325.219 152.133 322.457 151.874 319.499 151.809C318.591 151.796 317.917 152.405 317.865 153.636C317.748 156.475 318.267 159.197 318.955 161.906C319.551 164.291 320.55 166.638 320.77 169.049C320.965 171.33 321.782 172.548 323.922 173.222C329.642 175.037 332.495 179.652 333.689 184.953C334.545 188.777 336.153 192.108 337.761 195.556C340.316 201.039 344.35 205.421 349.292 208.506C353.636 211.215 357.631 214.455 362.171 216.853C363.442 217.527 364.907 217.942 366.023 218.811C369.979 221.909 373.792 224.981 375.841 229.984C377.696 234.534 378.85 238.915 377.735 243.776C377.346 245.461 377.151 247.198 376.84 249.065H376.814ZM144.443 178.291C143.38 180.65 141.823 182.646 140.825 184.888C137.673 192.083 132.563 197.916 127.492 203.684C122.719 209.115 119.8 215.194 118.413 222.207C117.803 225.305 117.077 228.416 115.676 231.332C114.249 234.301 112.978 237.334 111.616 240.328C110.319 243.206 110.216 245.941 111.655 248.922C113.795 253.368 115.442 257.983 115.585 263.064C115.637 265.19 116.376 267.315 116.856 269.415C116.986 269.999 117.193 270.556 117.79 270.945C119.93 272.345 121.876 273.991 124.444 274.704C127.31 275.508 130.086 276.648 132.705 278.113C136.48 280.239 140.345 282.131 143.328 285.501C146.856 289.494 149.865 293.72 151.512 298.827C151.849 299.877 152.251 300.382 153.509 299.877C155.144 299.216 156.908 299.021 158.684 298.93C160.461 298.84 160.915 298.295 160.513 296.571C160.02 294.471 159.411 292.372 158.671 290.349C156.194 283.596 150.98 279.539 144.703 276.648C140.021 274.497 134.807 273.952 130.06 271.904C127.556 270.828 125.572 269.026 123.186 267.834C122.291 267.393 121.785 266.071 121.72 264.892C121.668 263.958 121.396 263.064 121.24 262.156C120.721 259.046 120.553 255.792 120.76 252.746C121.02 248.948 121.396 245.163 120.929 241.404C120.799 240.354 120.903 239.654 121.383 238.902C122.887 236.478 124.457 234.041 126.143 231.786C127.401 230.101 128.179 228.429 128.322 226.562C128.633 222.298 130.877 219.057 133.977 216.685C136.856 214.468 139.515 212.057 141.746 209.309C144.417 206.043 146.48 202.336 146.454 197.825C146.441 195.375 145.26 193.236 145.04 190.864C144.858 188.933 143.756 187.144 144.301 185.122C144.897 182.866 144.612 180.572 144.469 178.291H144.443ZM389.927 244.398C392.054 244.256 393.714 243.18 395.491 242.428C396.178 242.143 396.45 241.585 396.399 240.95C396.126 237.463 396.425 233.899 395.231 230.529C394.44 228.299 393.766 226.044 393.273 223.736C392.131 218.422 389.356 213.807 386.827 209.102C385.569 206.769 384.181 204.5 382.65 202.297C380.043 198.538 376.736 195.401 373.766 191.992C371.561 189.477 369.162 187.04 366.632 184.759C363.143 181.609 360.057 178.006 357.605 173.896C354.882 169.334 352.015 164.862 349.149 160.377C345.647 154.894 340.446 151.42 335.634 147.453C334.648 146.637 333.131 145.833 331.99 145.989C328.968 146.404 326.036 145.691 323.066 145.781C320.732 145.846 319.707 146.87 319.007 149.359C321.717 149.087 324.545 149.242 326.763 150.707C330.718 153.338 334.078 156.709 336.088 161.129C338.656 166.806 342.962 171.252 346.607 176.165C348.319 178.485 350.329 180.598 351.561 183.216C354.817 190.125 358.876 196.555 363.286 202.776C366.827 207.78 371.289 211.928 376.191 215.505C379.667 218.046 383.065 220.47 385.672 224.022C388.124 227.366 389.667 230.943 389.927 235.026C390.121 238.111 389.965 241.222 389.965 244.398H389.927ZM229.682 161.518C227.231 161.608 225.195 160.999 223.275 159.521C221.485 158.147 220.512 158.601 219.955 160.818C218.891 165.082 218.969 169.424 219.773 173.715C220.46 177.357 221.291 180.922 221.381 184.694C221.459 188.051 221.433 191.434 222.056 194.805C222.51 197.254 222.691 199.899 222.328 202.465C222.186 203.463 221.576 204.41 221.861 205.473C222.497 207.896 221.926 210.333 221.758 212.731C221.122 221.572 220.253 230.412 219.527 239.252C219.228 242.843 218.463 246.368 218.671 250.011C218.93 254.625 218.93 259.253 219.138 263.88C219.449 270.893 220.292 277.867 221.174 284.827C221.317 285.903 221.913 286.24 222.769 286.37C225.649 286.772 228.45 286.007 231.07 286.111C231.563 284.918 230.694 284.477 230.668 283.713C230.486 279.163 229.799 274.587 230.188 270.089C230.603 265.267 230.629 260.432 231.148 255.598C232.004 247.509 231.991 239.33 232.315 231.19C232.51 226.433 232.134 221.688 231.965 216.944C231.77 211.681 231.757 206.445 230.603 201.247C229.591 196.723 229.695 192.018 228.748 187.455C228.333 185.459 227.983 183.45 227.698 181.441C226.751 174.752 228.554 168.336 229.682 161.518ZM157.154 136.824C159.722 138.471 160.928 140.234 161.486 142.398C162.588 146.766 163.859 151.096 163.963 155.659C164.171 165.251 164.534 174.83 164.132 184.422C163.846 191.383 164.845 198.201 166.207 205.019C167.763 212.9 169.54 220.781 169.398 228.895C169.346 231.877 169.216 234.858 169.294 237.826C169.411 242.571 170.357 247.172 171.577 251.787C173.872 260.458 175.558 269.26 176.064 278.256C176.207 280.874 176.142 283.622 177.322 286.214H184.391C184.391 282.339 184.482 278.411 184.352 274.484C184.274 272.228 184.196 269.856 183.483 267.756C181.862 262.96 181.097 257.97 179.787 253.109C178.347 247.768 177.647 242.195 176.44 236.75C174.689 228.766 174.897 220.535 174.145 212.433C173.509 205.524 174.145 198.551 174.119 191.603C174.106 188.012 174.145 184.409 174.041 180.818C173.807 172.548 174.313 164.291 173.289 156.022C172.355 148.581 170.759 141.465 167.063 134.88C166.713 134.271 166.415 133.817 165.675 134.051C163.042 134.893 160.422 135.749 157.167 136.799L157.154 136.824ZM264.753 251.177C264.831 254.47 264.844 256.946 265.311 259.408C266.011 263.038 266.374 266.732 267.101 270.375C267.84 274.108 267.684 277.996 268.151 281.794C268.32 283.168 267.892 285.061 268.968 285.852C270.226 286.785 272.133 286.474 273.78 286.461C274.091 286.461 274.39 286.305 274.701 286.318C276.283 286.357 276.776 285.631 276.75 284.05C276.672 278.774 277.373 273.537 277.684 268.288C277.969 263.543 279.072 258.903 279.033 254.12C278.981 246.368 277.892 238.682 277.697 230.93C277.658 229.323 277.567 227.625 277.191 226.018C276.063 221.222 274.831 216.439 273.754 211.63C273.054 208.532 272.081 205.473 271.783 202.284C271.199 196.127 271.082 189.892 268.916 183.981C268.709 183.411 268.696 182.763 268.566 182.153C267.295 175.828 267.334 169.412 267.412 163.008C267.451 159.91 267.204 156.786 267.542 153.714C267.97 149.709 268.281 145.717 267.996 141.711C267.736 138.082 264.766 134.089 261.29 134.076C259.824 134.076 258.904 134.504 257.879 135.645C256.789 136.863 257.321 137.641 257.853 138.639C258.268 139.417 258.281 140.272 258.112 141.063C257.697 142.982 258.566 144.498 259.708 145.781C261.887 148.218 262.665 151.161 262.937 154.246C263.274 158.057 263.236 161.868 262.522 165.678C261.692 170.124 262.405 174.571 263.495 178.861C264.883 184.292 265.505 189.801 265.972 195.323C266.232 198.408 267.101 201.402 267.243 204.474C267.542 210.748 268.138 217.022 267.516 223.309C267.165 226.808 267.347 230.373 266.776 233.821C265.778 239.835 265.272 245.902 264.766 251.152L264.753 251.177ZM175.61 308.445C177.672 298.425 175.571 289.986 168.49 283.026C165.221 279.811 161.551 277.582 156.817 276.648C151.797 275.65 147.037 273.55 143.185 269.83C141.201 267.925 140.306 265.384 138.827 263.232C134.781 257.322 136.039 251.489 138.516 245.643C139.152 244.139 139.865 242.661 140.436 241.119C141.979 236.932 142.913 232.59 144.015 228.299C144.404 226.808 145.183 225.357 145.286 223.866C145.572 219.718 146.622 215.726 147.556 211.733C148.127 209.296 148.075 207.002 147.582 204.15C146.389 206.237 146.026 208.156 144.729 209.698C141.875 213.081 138.892 216.257 135.287 218.901C133.354 220.327 131.37 222.375 131.175 224.877C130.851 229.025 128.97 232.525 126.648 235.558C123.276 239.978 123.432 244.865 123.795 249.778C123.938 251.67 124.145 253.77 123.847 255.429C123.341 258.19 123.704 260.692 124.119 263.31C124.366 264.879 125.092 265.877 126.428 266.732C129.385 268.638 132.705 269.701 135.909 271.036C141.305 273.291 147.024 274.613 151.94 278.191C158.957 283.285 162.005 290.207 162.809 298.451C162.887 299.203 162.822 299.825 163.548 300.304C167.478 302.936 171.395 305.606 175.61 308.458V308.445ZM249.941 155.918C251.472 156.54 252.86 157.447 253.521 159.042C254.974 162.567 256.063 166.21 256.05 170.073C256.011 182.244 255.882 194.403 254.494 206.535C253.197 217.826 252.743 229.181 253.495 240.587C254.092 249.648 254.935 258.657 256.284 267.627C256.997 272.332 257.166 277.089 257.503 281.82C257.827 286.292 257.879 286.357 262.185 286.435C262.289 286.435 262.392 286.435 262.496 286.435C265.959 286.461 265.998 286.409 265.57 283.052C265.505 282.546 265.531 282.015 265.505 281.496C265.324 277.465 264.714 273.473 264.584 269.428C264.507 267.121 263.962 264.853 262.885 262.649C261.005 258.773 261.562 254.522 261.99 250.439C262.522 245.435 263.274 240.445 263.949 235.454C264.857 228.701 265.038 221.857 264.999 215.026C264.961 207.806 264.156 200.638 263.223 193.482C262.535 188.246 262.107 182.957 260.771 177.863C259.487 172.937 259.202 168.102 260.33 163.216C261.225 159.301 260.732 155.516 259.85 151.731C259.409 149.839 258.787 147.946 256.984 146.611C256.206 148.516 254.818 149.968 253.988 151.692C253.08 153.585 250.732 153.831 249.902 155.892L249.941 155.918ZM194.871 285.839C194.339 282.883 193.937 280.135 193.651 277.348C193.457 275.417 193.003 273.46 192.316 271.645C189.151 263.362 187.27 254.742 185.377 246.122C183.976 239.771 183.509 233.251 183.198 226.757C182.873 220.146 183.029 213.522 182.86 206.911C182.705 200.715 182.549 194.519 182.705 188.311C182.848 182.633 183.522 176.994 183.898 171.33C184.119 167.934 184.054 164.538 184.067 161.142C184.067 158.458 184.196 155.788 183.742 153.144C182.964 148.698 181.862 144.317 181.252 139.832C180.772 136.293 179.462 133.065 177.141 130.317C175.857 128.801 174.936 128.58 173.444 129.721C172.199 130.68 170.876 131.445 169.462 132.08C168.555 132.482 168.464 133.052 168.931 133.791C171.654 138.121 172.964 142.891 174.287 147.816C175.545 152.483 176.116 157.175 176.298 161.842C176.842 175.569 176.855 189.309 176.544 203.049C176.35 211.85 177.244 220.574 178.01 229.31C178.451 234.443 179.592 239.46 180.772 244.489C181.991 249.687 182.77 255.001 184.222 260.16C186.479 268.184 187.595 276.337 186.751 284.672C186.635 285.852 187.076 286.15 188.074 286.15C190.227 286.176 192.393 286.422 194.845 285.813L194.871 285.839ZM145.209 140.48C149.126 142.994 149.839 143.733 150.915 147.091C151.486 148.853 152.044 150.655 152.238 152.47C152.965 159.12 153.613 165.782 154.132 172.458C154.339 175.037 154.664 177.578 155.221 180.079C156.039 183.696 157.011 187.274 157.789 190.89C159.164 197.254 158.542 203.58 157.504 209.957C156.35 217.048 156.531 224.19 159.151 230.995C161.058 235.947 161.979 241.171 162.977 246.278C164.339 253.213 164.897 260.355 164.521 267.497C164.404 269.662 164.573 271.839 164.586 274.017C164.586 276.013 165.286 277.517 167.024 278.722C169.229 280.252 171.162 282.157 172.796 284.335C173.185 284.853 173.457 285.657 174.508 285.566C174.002 284.283 173.872 282.948 173.794 281.626C173.133 271.71 171.667 261.936 169.047 252.344C167.984 248.455 167.05 244.593 166.855 240.535C166.7 237.256 166.868 233.99 166.843 230.71C166.778 222.972 166.259 215.246 164.106 207.728C163.548 205.758 163.535 203.645 163.081 201.636C162.108 197.397 161.68 193.12 161.564 188.777C161.46 185.07 161.914 181.389 161.706 177.669C161.317 170.293 162.057 162.892 161.408 155.529C160.993 150.927 160.786 146.248 158.607 142.009C157.426 139.728 155.766 137.498 153.068 137.745C150.384 137.991 147.608 138.756 145.247 140.493L145.209 140.48ZM311.627 279.604C317.126 276.674 318.981 272.876 317.917 267.665C317.139 263.803 316.283 259.836 316.724 255.986C317.23 251.527 318.514 247.081 320.018 242.83C322.016 237.191 322.703 231.41 322.664 225.551C322.625 220.612 321.834 215.687 322.158 210.709C322.262 209.219 321.575 207.909 320.602 206.782C319.798 205.848 319.045 204.837 318.125 204.021C315.621 201.804 314.895 198.888 315.414 195.855C316.075 191.992 316.4 188.09 316.931 184.214C317.217 182.153 318.41 180.067 317.074 177.915C316.75 177.396 317.23 176.748 317.424 176.152C318.695 172.198 318.579 168.362 317.048 164.408C315.284 159.819 314.726 155.036 315.686 150.098C316.361 146.65 318.047 144.252 321.549 143.306C322.171 143.137 322.794 142.943 323.313 142.269C322.508 141.996 321.938 141.763 321.341 141.595C318.89 140.921 317.113 140.921 315.284 143.578C312.807 147.181 310.68 150.876 309.629 155.036C308.112 161.051 307.476 167.234 308.073 173.417C308.254 175.309 308.021 177.085 307.93 178.913C307.723 183.1 308.994 187.092 309.461 191.188C309.811 194.377 311.471 197.267 311.977 200.365C312.988 206.587 315.012 212.55 316.114 218.733C317.269 225.227 318.397 231.579 317.165 238.319C315.816 245.669 315.647 253.213 314.584 260.627C314.052 264.386 313.702 268.171 312.937 271.904C312.431 274.393 312.081 276.921 311.627 279.591V279.604ZM138.737 143.111C140.254 143.5 142.135 143.124 142.874 144.693C143.561 146.157 144.664 147.415 144.897 149.139C145.546 153.831 146.596 158.471 147.063 163.19C147.777 170.423 147.219 177.681 146.972 184.927C146.895 187.235 147.141 189.386 147.816 191.577C150.267 199.64 151.784 207.741 149.216 216.128C147.958 220.224 148.127 224.475 148.581 228.701C148.736 230.153 148.892 231.747 149.774 232.836C151.058 234.43 151.201 236.245 151.447 238.047C151.849 241.015 152.225 243.996 152.096 247.004C152.005 249.194 151.979 251.605 152.913 253.407C154.197 255.883 154.495 258.514 155.17 261.068C156.168 264.84 157.906 268.469 157.725 272.513C157.673 273.615 158.308 274.315 159.268 274.535C160.111 274.73 160.902 275.495 161.888 275.015C162.277 262.027 161.784 249.155 158.088 236.595C157.452 234.417 156.959 232.214 156.246 230.049C155.157 226.77 154.301 223.373 154.314 219.796C154.339 214.935 154.703 210.126 155.533 205.33C155.948 202.919 156.57 200.391 156.22 198.045C155.494 193.171 154.664 188.298 153.25 183.54C151.356 177.137 151.499 170.461 150.98 163.89C150.552 158.445 149.709 153.092 148.49 147.778C147.699 144.317 144.716 143.357 142.238 141.841C140.825 140.972 139.995 142.8 138.724 143.111H138.737ZM256.374 348.161C253.171 350.041 249.812 350.391 246.388 350.015C242.069 349.535 237.685 348.991 236.543 343.559C236.414 342.911 235.739 342.924 235.298 343.287C234.922 343.598 234.663 344.091 234.377 344.506C231.135 349.315 226.115 351.337 220.409 350.105C219.125 349.833 217.841 349.561 216.271 349.224C216.608 350.261 216.777 351.039 217.114 351.739C219.786 357.299 222.717 362.757 224.079 368.836C224.468 370.573 225.597 370.547 226.816 370.651C233.405 371.182 240.019 371.091 246.621 371.273C247.944 371.312 248.359 370.91 248.592 369.614C249.293 365.751 250.46 362.031 252.016 358.388C253.469 355.005 254.961 351.648 256.387 348.148L256.374 348.161ZM178.23 127.414C178.347 128.192 178.879 128.567 179.294 129.008C181.213 131.121 182.238 133.558 182.951 136.384C183.548 138.769 183.704 141.245 184.508 143.578C185.831 147.402 186.051 151.459 186.466 155.412C187.089 161.414 186.777 167.454 185.986 173.508C185.234 179.328 185.117 185.264 185.143 191.149C185.182 203.671 185.597 216.192 185.636 228.701C185.649 233.082 186.531 237.308 187.179 241.559C187.698 244.994 187.854 248.559 189.138 251.851C190.007 254.081 190.396 256.414 191.045 258.683C191.421 259.979 191.447 261.314 191.888 262.61C194.209 269.428 196.479 276.259 197.011 283.531C197.218 286.344 197.4 286.331 200.616 286.085C200.681 282.352 200.253 278.683 199.631 274.989C198.956 270.919 197.089 267.173 196.686 263.025C196.466 260.679 196.583 258.177 195.584 256.012C193.898 252.383 193.457 248.468 192.549 244.657C192.458 244.256 192.445 243.815 192.277 243.452C189.903 238.721 189.631 233.458 189.112 228.429C188.048 218.02 188.489 207.547 189.501 197.112C189.735 194.766 189.735 192.381 189.761 190.022C189.825 183.203 189.294 176.411 188.995 169.593C188.645 161.427 187.854 153.299 186.946 145.198C186.505 141.232 186.427 137.408 187.452 133.558C187.867 131.977 187.815 130.577 185.882 129.812C184.832 129.397 184.08 128.334 183.6 127.336C182.731 125.56 181.563 125.651 180.124 126.429C179.488 126.766 178.853 127.09 178.243 127.401L178.23 127.414ZM245.48 158.381C246.751 159.962 247.192 161.725 247.736 163.332C249.293 167.934 250.253 172.691 250.434 177.565C250.694 184.694 250.058 191.81 249.111 198.862C248.631 202.439 248.19 205.991 247.892 209.582C247.594 213.185 247.516 216.802 247.282 220.405C246.816 227.418 246.854 234.43 246.673 241.456C246.556 245.902 247.542 250.27 247.127 254.742C246.829 257.879 247.036 261.12 247.386 264.256C247.983 269.545 249.332 274.743 249.397 280.109C249.41 281.457 249.423 282.792 249.448 284.14C249.474 285.411 249.786 286.383 251.42 286.163C251.913 286.098 252.432 286.318 252.95 286.37C255.337 286.564 255.713 286.24 255.57 283.881C255.233 278.346 254.701 272.85 253.858 267.341C252.821 260.64 252.289 253.835 251.744 247.068C251.381 242.454 250.901 237.813 250.94 233.147C250.992 226.562 250.888 219.951 251.653 213.405C252.25 208.285 252.756 203.152 252.976 198.006C253.119 194.831 253.197 191.629 253.313 188.466C253.534 182.063 253.612 175.646 253.417 169.256C253.326 166.223 252.613 163.151 251.16 160.351C250.525 159.12 249.617 158.445 248.268 158.381C247.347 158.342 246.413 158.381 245.493 158.381H245.48ZM192.99 130.486C190.539 131.069 189.281 132.469 189.034 134.53C188.71 137.278 188.152 140.052 188.736 142.826C190.15 149.502 190.604 156.307 191.213 163.073C191.823 169.749 191.823 176.489 191.901 183.203C191.939 186.885 192.458 190.514 192.069 194.273C191.33 201.234 190.967 208.259 191.057 215.259C191.148 222.673 191.265 230.14 193.133 237.425C193.431 238.591 193.561 239.758 194.495 241.106C194.495 236.867 194.637 233.056 194.469 229.245C194.015 218.798 194.352 208.428 196.648 198.175C197.361 194.973 197.776 191.707 198.334 188.466C199.099 183.968 198.852 179.392 199.306 174.869C199.76 170.41 199.397 165.964 198.022 161.686C196.881 158.134 196.388 154.44 195.325 150.863C194.65 148.594 193.82 146.365 193.223 144.07C192.056 139.572 192.549 135.075 192.99 130.499V130.486ZM320.304 325.581C323.702 327.007 326.905 327.745 330.174 328.186C336.036 328.964 341.847 328.523 347.67 327.577C354.415 326.475 360.083 323.274 365.335 319.139C365.893 318.698 366.516 318.192 366.256 317.337C365.426 314.498 365.673 311.141 362.262 309.559C361.483 309.197 361.003 308.211 360.368 307.537C359.745 306.876 359.214 306.086 358.319 305.982C352.365 312.502 345.452 316.987 336.711 318.465C333.39 319.022 330.135 318.815 326.84 318.711C325.18 318.659 324.052 319.061 323.403 320.616C322.677 322.34 321.562 323.831 320.304 325.594V325.581ZM325.803 316.144C335.751 317.428 344.519 315.042 352.145 308.678C353.403 307.628 354.7 306.63 355.699 305.256C356.542 304.063 356.646 303.182 355.66 302.054C351.094 296.779 348.513 290.492 346.749 283.674C345.699 284.944 345.712 286.344 345.336 287.614C343.987 292.099 342.573 296.558 338.682 299.566C335.336 302.145 331.73 304.388 327.709 305.787C326.607 306.176 325.984 306.461 326.283 307.913C326.853 310.648 326.75 313.435 325.816 316.131L325.803 316.144ZM325.167 230.853C324.999 234.236 323.131 237.386 325.375 240.963C328.514 245.967 327.074 251.359 324.713 256.194C322.366 261.016 321.471 266.136 320.524 271.269C319.914 274.548 318.747 277.322 316.179 279.565C313.442 281.95 310.343 283.829 307.502 286.059C303.079 289.533 300.485 294.057 298.67 299.151C298.086 300.771 297.554 302.495 297.917 304.31C298.747 304.4 299.266 303.804 299.863 303.48C302.301 302.132 304.662 300.603 307.515 300.266C308.358 300.162 308.423 299.669 308.488 299.008C309.175 292.125 313.391 287.277 318.319 283.103C322.82 279.306 326.192 275.041 327.23 269.104C327.709 266.369 328.176 263.569 329.136 260.99C330.589 257.062 331.121 253.005 331.639 248.909C332.003 246.044 331.432 243.452 330.277 240.834C328.786 237.45 326.088 234.664 325.167 230.866V230.853ZM449.303 258.138C449.511 258.449 449.589 258.657 449.731 258.786C460.211 267.834 470.717 276.869 481.183 285.942C486.942 290.933 492.558 296.066 498.369 301.004C501.754 303.882 505.139 306.76 508.42 309.754C508.952 310.233 509.393 310.83 509.977 311.258C511.429 312.307 513.297 312.424 513.933 311.387C514.698 310.117 513.855 309.041 512.999 308.16C510.911 306.021 508.861 303.843 506.631 301.86C502.091 297.816 497.422 293.901 492.843 289.896C488.252 285.89 483.687 281.859 479.121 277.815C472.325 271.787 465.269 266.032 458.758 259.681C454.699 255.714 454.478 255.727 449.316 258.151L449.303 258.138ZM56.9607 363.158C66.4158 362.692 75.1965 358.738 81.1627 349.626C84.0161 345.27 85.1964 340.397 84.5998 335.16C83.3806 324.246 74.8463 317.778 66.2472 315.807C59.3861 314.226 52.6676 314.939 46.2734 317.803C38.219 321.407 32.3436 327.201 30.4889 336.054C28.8288 343.987 31.0466 350.935 37.2333 356.496C42.538 361.253 48.8285 363.003 56.9477 363.171L56.9607 363.158ZM88.1276 353.605C89.9823 352.659 91.3442 351.402 92.8746 350.391C98.0626 346.93 102.07 342.471 104.612 336.741C106.286 332.969 107.116 329.197 105.404 325.127C104.262 322.418 102.213 321.122 99.5412 320.681C94.0808 319.8 89.3987 321.744 85.1056 324.933C84.6127 325.296 83.9513 325.71 84.4441 326.397C85.6633 328.083 85.7282 330.247 86.8695 332.256C88.5945 330.04 90.9421 329.171 93.1081 328.031C95.4427 326.799 97.9978 326.371 100.618 326.696C102.07 326.877 103.432 327.434 104.418 328.601C104.846 329.107 104.989 329.781 104.587 330.325C104.133 330.934 103.484 330.766 102.939 330.364C102.278 329.884 101.694 329.236 100.747 329.405C99.4634 336.521 94.3532 341.46 88.2314 343.845C87.2456 344.233 87.3624 344.856 87.3494 345.53C87.3105 348.122 87.6866 350.676 88.1146 353.605H88.1276ZM458.758 249.739C458.278 251.022 458.11 252.383 457.371 253.225C456.022 254.729 456.852 255.455 457.941 256.388C463.492 261.171 469.044 265.98 474.569 270.802C481.806 277.115 488.991 283.466 496.242 289.753C497.461 290.816 498.33 292.786 500.029 292.683C501.559 292.592 503.012 291.451 504.776 290.648C489.355 276.933 474.089 263.362 458.758 249.739ZM443.583 220.224C444.271 220.172 445.321 220.172 446.333 219.977C450.73 219.135 452.338 215.648 450.302 211.707C448.797 208.804 446.268 207.106 443.609 205.46C440.12 203.295 436.424 202.621 432.377 203.528C425.866 204.993 426.541 209.62 428.759 213.043C429.096 213.561 429.537 214.015 429.965 214.455C433.584 218.227 438.032 220.068 443.57 220.224H443.583ZM213.885 329.042C215.986 330.403 217.841 331.971 220.188 332.71C223.042 333.604 225.908 334.421 228.813 335.134C231.589 335.821 234.079 337.052 235.35 339.852C235.999 341.291 236.816 341.187 237.62 340.112C238.982 338.284 240.979 337.454 242.912 336.469C244.468 335.678 246.102 334.94 247.49 333.89C249.371 332.464 251.576 331.31 252.782 329.029H213.885V329.042ZM203.677 265.397C203.366 261.145 202.562 256.907 202.419 252.59C202.212 246.537 201.965 240.535 202.328 234.456C202.821 226.095 204.248 217.877 205.428 209.62C206.064 205.136 206.596 200.651 207.503 196.192C208.359 191.979 208.58 187.598 208.619 183.281C208.684 175.439 209.125 167.584 207.88 159.755C207.257 155.84 206.907 151.679 209.514 148.089C209.994 147.428 209.644 146.935 209.358 146.404C208.865 145.496 208.398 144.576 207.88 143.681C206.777 141.763 205.999 141.698 204.404 143.202C203.82 143.759 203.548 144.472 203.496 145.107C203.171 149.631 202.679 154.22 204.313 158.601C206.505 164.447 207.724 170.449 207.594 176.709C207.555 178.472 207.633 180.235 207.685 181.985C207.854 188.168 207.05 194.234 205.804 200.288C204.832 205.006 203.587 209.685 203.21 214.52C202.731 220.69 202.017 226.847 201.939 233.056C201.913 235.117 201.68 237.191 201.304 239.213C200.474 243.633 200.487 248.105 201.018 252.474C201.55 256.829 201.849 261.301 203.69 265.397H203.677ZM188.308 122.41C190.085 121.399 189.89 120.051 190.201 118.898C190.837 116.5 190.876 113.765 193.587 112.455C194.105 112.209 194.43 111.859 194.235 111.263C193.042 107.608 193.509 103.706 192.523 99.9987C191.511 96.1748 190.033 92.6361 187.672 89.4733C186.907 88.4493 185.882 87.5419 184.534 88.0604C183.301 88.5271 182.744 89.7196 182.64 91.0288C182.562 92.0528 182.536 93.1027 182.549 94.1268C182.679 100.375 184.274 106.182 188.593 110.835C189.67 111.989 189.709 112.715 189.423 113.985C188.814 116.642 187.919 119.286 188.334 122.423L188.308 122.41ZM146.207 231.423C145.299 233.549 144.43 235.597 143.963 237.8C143.341 240.678 142.666 243.517 141.058 246.161C139.411 248.87 138.84 252.02 138.905 255.274C138.996 259.668 141.473 262.999 143.613 266.486C144.495 267.912 145.598 269.273 147.401 269.973C145.04 266.486 145.442 262.74 145.961 258.942C146.389 255.792 146.96 252.642 147.478 249.518C147.829 247.418 148.49 245.319 148.205 243.206C147.673 239.265 146.882 235.351 146.207 231.423ZM268.618 112.235C269.318 112.105 269.967 111.755 270.291 111.95C273.793 113.985 275.038 110.926 276.815 109.111C277.386 108.528 277.827 107.802 278.294 107.128C281.225 102.889 282.561 98.3265 281.082 93.1805C280.771 92.0787 280.615 90.8473 279.331 90.4844C277.827 90.0566 276.219 90.4844 275.337 91.5862C273.08 94.373 270.966 97.3673 271.018 101.191C271.043 103.421 270.525 105.547 269.734 107.504C269.137 108.982 268.787 110.394 268.592 112.235H268.618ZM508.771 300.343C509.73 301.899 510.924 302.689 512 303.623C513.79 305.178 515.489 306.889 516.267 309.184C517.331 312.372 514.905 315.172 511.65 314.42C509.458 313.915 507.305 313.163 506.008 310.985C505.139 309.508 503.816 308.445 502.156 307.667C501.637 314.109 505.619 318.426 512.065 318.646C517.344 318.827 521.728 314.239 521.39 308.872C521.027 303.014 515.956 299.449 508.771 300.33V300.343ZM248.1 379.737C248.1 378.428 248.126 377.3 248.1 376.173C248.035 373.386 248.009 373.191 245.194 373.126C238.502 372.958 231.809 373.204 225.208 372.478C225.117 374.371 225.039 376.004 224.948 377.65C224.896 378.558 225 379.232 226.219 379.245C233.43 379.309 240.629 380.152 248.113 379.737H248.1ZM220.253 62.81C218.956 63.5099 218.359 64.0803 217.776 64.8191C215.701 67.5023 213.547 70.1077 211.109 72.4928C207.944 75.5778 204.793 78.6758 201.706 81.8515C199.54 84.081 198.489 86.9068 197.906 89.9659C208.71 83.8736 216.92 75.7204 220.24 62.8229L220.253 62.81ZM215.143 146.404C214.793 147.557 215.221 148.477 215.778 149.126C217.698 151.407 219.89 153.429 222.601 154.764C225.428 156.164 228.45 157.033 231.563 156.268C235.104 155.386 238.761 155.075 241.965 152.742C244.001 151.264 244.961 149.346 246.31 147.518C243.884 149.346 241.472 151.238 238.593 152.016C231.744 153.883 225.156 153.39 219.358 148.711C218.113 147.7 216.881 146.637 215.13 146.391L215.143 146.404ZM201.174 130.317C200.24 131.264 199.825 132.236 199.527 133.338C197.685 140.182 197.932 145.6 200.603 153.986C201.031 151.135 200.565 148.348 201.239 145.613C201.862 143.137 202.445 140.791 205.234 139.884C206.336 139.521 206.816 138.665 206.155 137.745C204.443 135.347 203.223 132.612 201.187 130.317H201.174ZM87.2975 342.484C90.0212 340.773 92.4596 339.062 94.5996 336.975C96.3246 335.302 97.4919 333.203 97.9978 330.843C98.3091 329.379 97.8292 328.951 96.3246 329.275C93.8863 329.807 91.6684 330.96 89.7359 332.464C88.6464 333.319 87.2067 334.719 87.2586 335.808C87.3624 337.947 86.2988 340.06 87.2975 342.484ZM448.058 427.296C446.982 427.944 446.696 428.916 446.437 429.927C445.918 431.91 446.67 433.79 448.564 434.412C450.211 434.943 451.923 435.332 453.726 434.982C457.072 434.334 457.656 433.505 457.111 429.694C453.518 431.068 450.315 430.782 448.058 427.283V427.296ZM457.76 435.851C452.273 438.288 448.032 437.627 444.362 433.919C443.506 437.069 446.009 440.582 449.692 441.386C454.011 442.319 457.111 440.31 457.76 435.851ZM323.507 241.65C322.716 242.156 322.664 242.7 322.508 243.167C321.601 246.109 320.874 249.116 319.927 252.059C318.994 254.962 318.345 258.099 319.824 261.158C321.134 259.603 320.978 257.477 322.003 255.805C324.7 251.437 324.882 246.757 323.494 241.65H323.507ZM222.536 376.691C222.665 374.708 221.498 373.075 220.396 371.467C219.695 370.443 218.385 370.236 217.296 370.534C216.258 370.806 216.284 371.947 216.232 372.893C216.129 374.941 216.686 376.756 217.931 378.389C218.761 379.478 219.669 380.178 221.083 379.62C222.341 379.115 222.652 378.065 222.536 376.691ZM501.897 294.394C503.025 295.806 504.114 296.844 505.36 297.764C505.865 298.14 506.306 298.645 506.981 298.36C509.341 297.388 511.819 297.453 514.62 297.751C509.614 292.242 505.684 291.633 501.897 294.394ZM196.271 145.017C196.44 142.489 195.48 140.752 195.934 138.847C196.803 135.191 196.583 131.173 199.825 128.373C200.357 127.919 200.033 127.193 199.605 126.74C199.112 126.208 198.671 126.74 198.269 126.973C196.57 127.997 195.61 129.682 195.273 131.471C194.469 135.826 193.989 140.234 196.271 145.004V145.017ZM456.943 245.046C457.383 241.884 456.216 240.393 453.259 240.341C451.08 240.302 448.992 240.847 446.891 241.404C445.36 241.819 444.621 242.609 444.336 244.191C446.554 244.126 448.603 243.556 450.691 243.037C453.103 242.428 455.023 243.75 456.955 245.046H456.943ZM229.267 337.688C228.307 337.402 227.529 337.13 226.725 336.936C223.677 336.171 221.874 337.532 222.497 341.304C222.678 342.406 223.405 343.171 224.572 343.326C225.791 343.482 226.803 343.184 227.335 341.887C227.879 340.565 228.528 339.269 229.254 337.675L229.267 337.688ZM267.775 386.309C268.709 386.244 269.772 386.452 270.551 385.492C271.731 384.041 271.848 380.8 270.719 380.048C269.578 379.296 267.619 380.165 266.322 382.018C266.024 382.433 265.713 382.874 265.57 383.354C265.103 384.857 266.102 386.192 267.775 386.296V386.309ZM223.495 381.759C232.017 381.954 240.551 382.135 249.137 382.33C249.059 381.824 249.046 381.63 249.033 381.63C241.705 381.293 234.351 381.928 227.036 381.007C225.843 380.865 224.559 380.852 223.495 381.746V381.759ZM209.488 384.507C209.553 382.537 208.411 380.644 206.829 380.087C205.026 379.452 203.716 380.476 204.028 382.381C204.222 383.613 204.935 384.637 205.571 385.687C206.206 386.724 207.088 386.983 208.204 386.685C209.332 386.387 209.449 385.466 209.501 384.507H209.488ZM199.41 384.442C199.501 382.2 197.115 379.335 195.065 379.245C193.613 379.18 192.886 379.97 193.288 381.293C193.859 383.224 195.143 384.715 196.648 385.933C197.88 386.918 199.345 386.05 199.41 384.442ZM242.704 339.178C243.547 339.943 244.286 340.643 245.039 341.304C246.154 342.302 247.438 342.341 248.774 341.835C250.279 341.265 251.186 339.891 250.797 338.867C250.188 337.273 248.372 336.43 246.803 337.104C245.506 337.675 244.26 338.388 242.704 339.178ZM277.113 113.272C275.946 113.894 275.142 114.335 274.325 114.763C273.832 115.022 273.352 115.385 273.599 115.942C274.312 117.485 274.649 119.286 276.504 120.077C277.204 120.375 277.866 120.648 278.553 120.272C279.318 119.844 279.189 119.04 279.137 118.34C279.007 116.526 277.697 115.216 277.113 113.285V113.272ZM151.901 262.182C149.307 267.964 149.969 270.297 154.845 272.63C154.352 269.039 153.457 265.721 151.901 262.182ZM258.048 376.315C257.97 374.85 257.594 373.567 256.271 373.204C255.026 372.867 254.182 373.865 253.729 374.928C253.339 375.848 252.795 376.73 252.924 377.832C253.002 378.545 252.86 379.27 253.78 379.556C254.766 379.867 255.895 380.346 256.634 379.465C257.386 378.558 258.009 377.43 258.048 376.315ZM284.143 379.633C284.039 378.596 283.248 378.454 282.392 378.752C280.33 379.465 279.02 380.981 278.32 382.991C277.879 384.274 278.826 385.181 280.135 384.87C281.653 384.494 284.117 381.357 284.143 379.633ZM263.028 2.61324C261.874 3.57244 260.473 4.01316 259.163 4.5835C255.752 6.0612 252.626 8.0185 249.591 10.1313C249.15 10.4424 248.19 10.7276 248.657 11.4146C249.254 12.2831 249.954 11.5702 250.395 11.0387C250.888 10.4554 251.576 10.235 252.198 9.8721C255.946 7.68148 259.63 5.3742 263.028 2.61324ZM290.862 382.965C292.522 382.991 294.389 381.552 294.74 379.983C295.025 378.7 294.13 377.767 292.781 378C291.056 378.298 290.161 379.53 289.565 381.02C289.02 382.381 289.422 382.939 290.862 382.965ZM268.67 125.405C268.112 122.54 267.632 120.038 267.14 117.459C266.802 117.653 266.66 117.679 266.634 117.757C266.296 118.612 265.985 119.468 265.661 120.323C264.71 122.89 265.713 124.584 268.67 125.405ZM180.954 381.785C182.627 381.746 182.938 381.215 182.277 379.698C181.732 378.467 180.733 377.806 179.553 377.391C178.775 377.119 178.075 377.443 177.919 378.311C177.621 379.867 179.372 381.811 180.954 381.772V381.785ZM499.134 309.287C500.275 304.763 500.133 304.452 496.462 303.169C496.384 305.619 496.825 307.797 499.134 309.287ZM149.242 253.964C148.71 257.464 147.803 260.834 148.036 264.373C148.451 262.792 148.983 261.275 149.67 259.81C150.591 257.853 150.786 255.896 149.242 253.977V253.964ZM456.385 426.699C453.985 426.57 452.39 425.351 450.47 424.936C450.782 428.216 452.805 428.942 456.385 426.699ZM216.686 381.591C215.493 379.841 213.768 380.748 212.341 380.463C211.822 380.359 211.265 380.398 211.42 381.202C211.511 381.681 211.822 381.941 212.276 381.915C213.716 381.837 215.143 381.707 216.686 381.604V381.591ZM255.428 382.718C254.131 382.148 253.262 381.202 251.848 381.448C252.821 382.459 253.767 383.133 255.428 382.718ZM317.723 328.679H321.121C319.733 327.888 318.877 326.877 317.723 328.679ZM277.788 379.504C277.723 379.426 277.671 379.361 277.619 379.283C277.554 379.348 277.451 379.4 277.451 379.478C277.451 379.543 277.541 379.607 277.606 379.685C277.671 379.62 277.736 379.569 277.801 379.504H277.788Z" fill="#434143" style="fill:#434143;fill:color(display-p3 0.2627 0.2549 0.2627);fill-opacity:1;"/>
</svg>
