<svg width="241" height="126" viewBox="0 0 241 126" fill="none" xmlns="http://www.w3.org/2000/svg">
<rect x="0.5" y="0.5" width="240" height="125" rx="11.5" fill="white" stroke="#71ABE7"/>
<path d="M157.151 36.66V35.472L160.955 30.6H162.515V35.472H163.439V36.66H162.515V39H161.207V36.66H157.151ZM158.531 35.472H161.207V32.052L158.531 35.472ZM165.239 40.92H164.087L165.131 37.56H166.547L165.239 40.92ZM167.588 39V37.812L170.444 34.92C171.284 34.056 171.716 33.588 171.716 32.796C171.716 31.992 171.14 31.536 170.372 31.536C169.52 31.536 168.98 32.004 168.512 32.784L167.432 32.124C168.128 31.032 169.112 30.36 170.492 30.36C171.92 30.36 173.06 31.284 173.06 32.688C173.06 33.828 172.316 34.692 171.38 35.64L169.184 37.812H173.288V39H167.588ZM178.75 37.092V33.588H177.61V32.952H178.75V31.44H179.47V32.952H181.738V33.588H179.47V37.092C179.47 38.196 180.034 38.46 180.85 38.46C181.234 38.46 181.498 38.412 181.738 38.328V38.976C181.462 39.072 181.162 39.12 180.778 39.12C179.542 39.12 178.75 38.568 178.75 37.092ZM185.977 32.712C187.921 32.712 189.229 34.248 189.229 35.976C189.229 37.704 187.921 39.24 185.977 39.24C184.045 39.24 182.737 37.704 182.737 35.976C182.737 34.248 184.045 32.712 185.977 32.712ZM185.989 38.568C187.417 38.568 188.473 37.344 188.473 35.976C188.473 34.584 187.417 33.384 185.989 33.384C184.513 33.384 183.469 34.596 183.469 35.976C183.469 37.356 184.513 38.568 185.989 38.568ZM191.024 39V32.952H191.732V33.78C192.26 33.12 192.944 32.712 193.892 32.712C195.272 32.712 196.268 33.624 196.268 35.292V39H195.56V35.316C195.56 34.068 194.852 33.384 193.796 33.384C192.836 33.384 192.2 33.876 191.732 34.656V39H191.024ZM198.512 39V32.952H199.22V33.78C199.748 33.12 200.432 32.712 201.38 32.712C202.76 32.712 203.756 33.624 203.756 35.292V39H203.048V35.316C203.048 34.068 202.34 33.384 201.284 33.384C200.324 33.384 199.688 33.876 199.22 34.656V39H198.512ZM211.245 38.004C210.693 38.76 209.805 39.24 208.701 39.24C206.721 39.24 205.437 37.74 205.437 35.976C205.437 34.104 206.637 32.712 208.449 32.712C210.069 32.712 211.101 33.864 211.101 35.292C211.101 35.472 211.089 35.652 211.053 35.796H206.169C206.169 35.844 206.169 35.892 206.169 35.94C206.169 37.476 207.213 38.592 208.701 38.592C209.553 38.592 210.261 38.196 210.705 37.572L211.245 38.004ZM208.437 33.336C207.309 33.336 206.469 34.044 206.241 35.232H210.381C210.345 34.176 209.613 33.336 208.437 33.336ZM212.253 38.208L212.781 37.776C213.237 38.352 213.765 38.628 214.413 38.628C215.205 38.628 215.661 38.124 215.661 37.5C215.661 35.964 212.553 36.48 212.553 34.344C212.553 33.468 213.297 32.712 214.413 32.712C215.229 32.712 215.913 33.108 216.333 33.684L215.805 34.104C215.469 33.6 214.977 33.324 214.425 33.324C213.669 33.324 213.249 33.792 213.249 34.344C213.249 35.916 216.357 35.436 216.357 37.476C216.357 38.52 215.529 39.24 214.425 39.24C213.525 39.24 212.781 38.88 212.253 38.208Z" fill="black"/>
<path d="M163.903 63.36C165.235 63.36 166.087 63.96 166.651 64.764L165.619 65.58C165.151 64.92 164.623 64.56 163.891 64.56C162.511 64.56 161.791 65.652 161.719 67.548C162.283 66.996 163.027 66.696 163.915 66.696C165.535 66.696 166.603 67.884 166.603 69.384C166.603 70.932 165.499 72.24 163.639 72.24C161.575 72.24 160.351 70.752 160.351 67.896C160.351 65.22 161.431 63.36 163.903 63.36ZM163.699 67.872C162.919 67.872 162.223 68.196 161.755 68.856C161.947 70.44 162.655 71.04 163.615 71.04C164.635 71.04 165.247 70.344 165.247 69.432C165.247 68.544 164.599 67.872 163.699 67.872ZM168.134 73.92H166.982L168.026 70.56H169.442L168.134 73.92ZM171.197 71.988V64.932L169.193 66.048L168.521 65.112L171.221 63.588H172.505V71.988H171.197ZM178.75 70.092V66.588H177.61V65.952H178.75V64.44H179.47V65.952H181.738V66.588H179.47V70.092C179.47 71.196 180.034 71.46 180.85 71.46C181.234 71.46 181.498 71.412 181.738 71.328V71.976C181.462 72.072 181.162 72.12 180.778 72.12C179.542 72.12 178.75 71.568 178.75 70.092ZM185.977 65.712C187.921 65.712 189.229 67.248 189.229 68.976C189.229 70.704 187.921 72.24 185.977 72.24C184.045 72.24 182.737 70.704 182.737 68.976C182.737 67.248 184.045 65.712 185.977 65.712ZM185.989 71.568C187.417 71.568 188.473 70.344 188.473 68.976C188.473 67.584 187.417 66.384 185.989 66.384C184.513 66.384 183.469 67.596 183.469 68.976C183.469 70.356 184.513 71.568 185.989 71.568ZM191.024 72V65.952H191.732V66.78C192.26 66.12 192.944 65.712 193.892 65.712C195.272 65.712 196.268 66.624 196.268 68.292V72H195.56V68.316C195.56 67.068 194.852 66.384 193.796 66.384C192.836 66.384 192.2 66.876 191.732 67.656V72H191.024ZM198.512 72V65.952H199.22V66.78C199.748 66.12 200.432 65.712 201.38 65.712C202.76 65.712 203.756 66.624 203.756 68.292V72H203.048V68.316C203.048 67.068 202.34 66.384 201.284 66.384C200.324 66.384 199.688 66.876 199.22 67.656V72H198.512ZM211.245 71.004C210.693 71.76 209.805 72.24 208.701 72.24C206.721 72.24 205.437 70.74 205.437 68.976C205.437 67.104 206.637 65.712 208.449 65.712C210.069 65.712 211.101 66.864 211.101 68.292C211.101 68.472 211.089 68.652 211.053 68.796H206.169C206.169 68.844 206.169 68.892 206.169 68.94C206.169 70.476 207.213 71.592 208.701 71.592C209.553 71.592 210.261 71.196 210.705 70.572L211.245 71.004ZM208.437 66.336C207.309 66.336 206.469 67.044 206.241 68.232H210.381C210.345 67.176 209.613 66.336 208.437 66.336ZM212.253 71.208L212.781 70.776C213.237 71.352 213.765 71.628 214.413 71.628C215.205 71.628 215.661 71.124 215.661 70.5C215.661 68.964 212.553 69.48 212.553 67.344C212.553 66.468 213.297 65.712 214.413 65.712C215.229 65.712 215.913 66.108 216.333 66.684L215.805 67.104C215.469 66.6 214.977 66.324 214.425 66.324C213.669 66.324 213.249 66.792 213.249 67.344C213.249 68.916 216.357 68.436 216.357 70.476C216.357 71.52 215.529 72.24 214.425 72.24C213.525 72.24 212.781 71.88 212.253 71.208Z" fill="black"/>
<path d="M160.867 105H159.355L163.699 97.788H159.175V96.6H165.103V97.788L160.867 105ZM165.286 106.92H164.134L165.178 103.56H166.594L165.286 106.92ZM173.372 102.648C173.372 104.208 172.1 105.24 170.384 105.24C168.872 105.24 167.888 104.604 167.216 103.452L168.368 102.744C168.86 103.668 169.484 104.064 170.372 104.064C171.32 104.064 172.028 103.512 172.028 102.588C172.028 101.712 171.38 101.136 170.372 101.136H168.968V99.96H170.228C171.08 99.96 171.644 99.468 171.644 98.724C171.644 97.968 171.08 97.536 170.312 97.536C169.58 97.536 169.064 97.908 168.68 98.58L167.6 97.92C168.212 96.936 169.112 96.36 170.396 96.36C171.896 96.36 173 97.236 173 98.592C173 99.384 172.64 100.068 171.956 100.476C172.868 100.896 173.372 101.7 173.372 102.648ZM178.75 103.092V99.588H177.61V98.952H178.75V97.44H179.47V98.952H181.738V99.588H179.47V103.092C179.47 104.196 180.034 104.46 180.85 104.46C181.234 104.46 181.498 104.412 181.738 104.328V104.976C181.462 105.072 181.162 105.12 180.778 105.12C179.542 105.12 178.75 104.568 178.75 103.092ZM185.977 98.712C187.921 98.712 189.229 100.248 189.229 101.976C189.229 103.704 187.921 105.24 185.977 105.24C184.045 105.24 182.737 103.704 182.737 101.976C182.737 100.248 184.045 98.712 185.977 98.712ZM185.989 104.568C187.417 104.568 188.473 103.344 188.473 101.976C188.473 100.584 187.417 99.384 185.989 99.384C184.513 99.384 183.469 100.596 183.469 101.976C183.469 103.356 184.513 104.568 185.989 104.568ZM191.024 105V98.952H191.732V99.78C192.26 99.12 192.944 98.712 193.892 98.712C195.272 98.712 196.268 99.624 196.268 101.292V105H195.56V101.316C195.56 100.068 194.852 99.384 193.796 99.384C192.836 99.384 192.2 99.876 191.732 100.656V105H191.024ZM198.512 105V98.952H199.22V99.78C199.748 99.12 200.432 98.712 201.38 98.712C202.76 98.712 203.756 99.624 203.756 101.292V105H203.048V101.316C203.048 100.068 202.34 99.384 201.284 99.384C200.324 99.384 199.688 99.876 199.22 100.656V105H198.512ZM211.245 104.004C210.693 104.76 209.805 105.24 208.701 105.24C206.721 105.24 205.437 103.74 205.437 101.976C205.437 100.104 206.637 98.712 208.449 98.712C210.069 98.712 211.101 99.864 211.101 101.292C211.101 101.472 211.089 101.652 211.053 101.796H206.169C206.169 101.844 206.169 101.892 206.169 101.94C206.169 103.476 207.213 104.592 208.701 104.592C209.553 104.592 210.261 104.196 210.705 103.572L211.245 104.004ZM208.437 99.336C207.309 99.336 206.469 100.044 206.241 101.232H210.381C210.345 100.176 209.613 99.336 208.437 99.336ZM212.253 104.208L212.781 103.776C213.237 104.352 213.765 104.628 214.413 104.628C215.205 104.628 215.661 104.124 215.661 103.5C215.661 101.964 212.553 102.48 212.553 100.344C212.553 99.468 213.297 98.712 214.413 98.712C215.229 98.712 215.913 99.108 216.333 99.684L215.805 100.104C215.469 99.6 214.977 99.324 214.425 99.324C213.669 99.324 213.249 99.792 213.249 100.344C213.249 101.916 216.357 101.436 216.357 103.476C216.357 104.52 215.529 105.24 214.425 105.24C213.525 105.24 212.781 104.88 212.253 104.208Z" fill="black"/>
<g clip-path="url(#clip0_80_1092)">
<path d="M24 23.3333L19.3333 18H12L21.3333 29.3333L29.014 26.1667L24 23.3333Z" fill="#55ACEE"/>
<path d="M28.6667 18L24 23.3333L27.5933 28.208L28.4113 27.2153L36 18H28.6667Z" fill="#3B88C3"/>
<path d="M27.47 28.684C27.5233 28.5393 27.5573 28.3853 27.5573 28.222C27.5573 27.486 26.96 26.8887 26.224 26.8887H21.7793C21.0426 26.8887 20.446 27.486 20.446 28.222C20.446 28.3853 20.4793 28.5393 20.5333 28.684C18.3613 29.9013 16.8906 32.222 16.8906 34.8887C16.89 38.816 20.074 42 24.0013 42C27.9286 42 31.1126 38.816 31.1126 34.8887C31.1126 32.222 29.642 29.9013 27.47 28.684Z" fill="#FFAC33"/>
<path d="M24.936 30.4H23.7887L21.9687 31.8214C21.9314 31.8587 21.894 31.9587 21.894 32.008V32.7934C21.894 32.9174 21.994 33.0294 22.1187 33.0294H23.3154V38.6387C23.3154 38.764 23.4154 38.8754 23.552 38.8754H24.936C25.06 38.8754 25.16 38.7634 25.16 38.6387V30.636C25.16 30.512 25.0607 30.4 24.936 30.4Z" fill="#9E5200"/>
</g>
<g clip-path="url(#clip1_80_1092)">
<path d="M24 56.3333L19.3333 51H12L21.3333 62.3333L29.014 59.1667L24 56.3333Z" fill="#55ACEE"/>
<path d="M28.6667 51L24 56.3333L27.5933 61.208L28.4113 60.2153L36 51H28.6667Z" fill="#3B88C3"/>
<path d="M27.47 61.684C27.5233 61.5393 27.5573 61.3853 27.5573 61.222C27.5573 60.486 26.96 59.8887 26.224 59.8887H21.7793C21.0426 59.8887 20.446 60.486 20.446 61.222C20.446 61.3853 20.4793 61.5393 20.5333 61.684C18.3613 62.9013 16.8906 65.222 16.8906 67.8887C16.89 71.816 20.074 75 24.0013 75C27.9286 75 31.1126 71.816 31.1126 67.8887C31.1126 65.222 29.642 62.9013 27.47 61.684Z" fill="#CCD6DD"/>
<path d="M26.6679 70.2807H24.3059C24.8913 69.458 25.9139 68.1247 26.3126 67.4133C26.6119 66.8273 26.7986 66.454 26.7986 65.7933C26.7986 64.4093 25.7519 63.2753 23.9693 63.2753C22.4859 63.2753 21.4759 64.4967 21.4759 64.4967C21.3886 64.5967 21.4013 64.746 21.4886 64.8213L22.2493 65.594C22.3486 65.694 22.4986 65.694 22.5979 65.594C22.8346 65.332 23.2959 64.9707 23.8066 64.9707C24.5046 64.9707 24.9039 65.394 24.9039 65.868C24.9039 66.2167 24.7419 66.566 24.5799 66.8153C23.8439 67.9367 21.9993 70.4427 21.2766 71.39V71.6393C21.2766 71.7647 21.3759 71.876 21.5133 71.876H26.6679C26.7919 71.876 26.9046 71.764 26.9046 71.6393V70.518C26.9053 70.3927 26.7919 70.2807 26.6679 70.2807Z" fill="#627077"/>
</g>
<g clip-path="url(#clip2_80_1092)">
<path d="M24 89.3333L19.3333 84H12L21.3333 95.3333L29.014 92.1667L24 89.3333Z" fill="#55ACEE"/>
<path d="M28.6667 84L24 89.3333L27.5933 94.208L28.4113 93.2153L36 84H28.6667Z" fill="#3B88C3"/>
<path d="M27.47 94.684C27.5233 94.5393 27.5573 94.3853 27.5573 94.222C27.5573 93.486 26.96 92.8887 26.224 92.8887H21.7793C21.0426 92.8887 20.446 93.486 20.446 94.222C20.446 94.3853 20.4793 94.5393 20.5333 94.684C18.3613 95.9013 16.8906 98.222 16.8906 100.889C16.89 104.816 20.074 108 24.0013 108C27.9286 108 31.1126 104.816 31.1126 100.889C31.1126 98.222 29.642 95.9013 27.47 94.684Z" fill="#FF8A3B"/>
<path d="M21.4141 103.567L22.1994 102.781C22.2861 102.693 22.4114 102.681 22.5107 102.756C22.5107 102.756 23.2834 103.33 23.8814 103.33C24.4181 103.33 24.9667 102.881 24.9667 102.333C24.9667 101.784 24.4054 101.323 23.4834 101.323H23.0574C22.9334 101.323 22.8214 101.211 22.8214 101.087V100.052C22.8214 99.9146 22.9334 99.8153 23.0574 99.8153H23.4834C24.3561 99.8153 24.8167 99.392 24.8167 98.856C24.8167 98.3193 24.3561 97.9213 23.8194 97.9213C23.2707 97.9213 22.9221 98.208 22.7354 98.4193C22.6474 98.5193 22.4987 98.5193 22.3994 98.4326L21.6387 97.6846C21.5381 97.5966 21.5507 97.448 21.6387 97.3606C21.6387 97.3606 22.6607 96.2633 24.0187 96.2633C25.4647 96.2633 26.7114 97.1486 26.7114 98.5446C26.7114 99.504 25.9881 100.215 25.4274 100.476V100.514C26.0134 100.763 26.9354 101.536 26.9354 102.608C26.9354 103.967 25.7514 104.989 24.0307 104.989C22.4614 104.989 21.6627 104.216 21.4014 103.88C21.3261 103.791 21.3394 103.653 21.4141 103.567Z" fill="#7C4119"/>
</g>
<rect x="48" y="36" width="55" height="3" rx="1.5" fill="#55ACEE"/>
<rect x="48" y="69" width="92" height="3" rx="1.5" fill="#55ACEE"/>
<rect x="48" y="102" width="96" height="3" rx="1.5" fill="#55ACEE"/>
<defs>
<clipPath id="clip0_80_1092">
<rect width="24" height="24" fill="white" transform="translate(12 18)"/>
</clipPath>
<clipPath id="clip1_80_1092">
<rect width="24" height="24" fill="white" transform="translate(12 51)"/>
</clipPath>
<clipPath id="clip2_80_1092">
<rect width="24" height="24" fill="white" transform="translate(12 84)"/>
</clipPath>
</defs>
</svg>
