<svg id="Calque_1" data-name="Calque 1" xmlns="http://www.w3.org/2000/svg" viewBox="0 0 505.1 364.36"><defs><style>.cls-1{fill:#433f40;}.cls-2{fill:#cef1d5;}.cls-3{fill:#6bc47b;}.cls-4{fill:#f9cd49;}.cls-5{fill:#fafbfb;}</style></defs><title>Nosgestesclimat-illu x 12 SVG</title><path class="cls-1" d="M350.57,94.54a19.25,19.25,0,0,1-1.92,2.11,3.44,3.44,0,0,0-1.27,3.56c.07.38.16.75.21,1.13.09.61.66,1.36-.23,1.76-.6.27-1-.33-1.45-.7a6.66,6.66,0,0,1-1.68-7.83,11.5,11.5,0,0,0,.85-4.18,6.32,6.32,0,0,1,1.76-4.12,4.6,4.6,0,0,1,4.91-1.59,2.69,2.69,0,0,0,3.23-1q1.59-1.85,3.3-3.6a15.54,15.54,0,0,1,7.79-4.6,20.57,20.57,0,0,1,10.22.22,6,6,0,0,1,3.12,2A4,4,0,0,0,382,79.15,4.75,4.75,0,0,1,384.86,81c.35.42.88.3,1.21-.16a20.64,20.64,0,0,1,1.29-1.89c1.84-2,4.39-2.2,5.8.64a3.67,3.67,0,0,0,1.64,1.86,4.68,4.68,0,0,1,2.7,5,6,6,0,0,0,.49,3.07,12.77,12.77,0,0,1,.57,1.62,4.43,4.43,0,0,1-1.33,4.7,8.45,8.45,0,0,1-3.07,2.07,1.62,1.62,0,0,0-1.27,1.39c-.23,2.59-1.77,4.36-3.6,5.91a1.9,1.9,0,0,0,.1.62c.64,1.06,1.3,2.1,2,3.15,1.39.07,2.53-.77,3.82-1.06a1.93,1.93,0,0,0,1.37-1.33c.49-1.14,1-2.29,1.53-3.39a7.68,7.68,0,0,1,4-3.6,18.8,18.8,0,0,1,5.77-1.63c2.77-.23,5.53-.56,8.3-.74a15.3,15.3,0,0,0,5.49-1.41,47.55,47.55,0,0,1,12.06-3.5,114.56,114.56,0,0,1,20.84-1.86,10.64,10.64,0,0,0,2.29-.12c5-1,10.11-1,15.18-.87a42.48,42.48,0,0,1,8.52,1.17A6.1,6.1,0,0,1,485,97.77a23.57,23.57,0,0,1-4.9,10.24,5.63,5.63,0,0,0-1.16,2.23c-1.27,4.9-2.51,9.82-3.9,14.69-3,10.48-6.09,20.93-9.08,31.42-2.07,7.27-4.05,14.56-6,21.85-1.79,6.64-3.51,13.3-5.26,20a1,1,0,0,1-.07.28c-1.49,2.39-1.39,5.11-1.48,7.75a23.26,23.26,0,0,1-3,10.36c-.18.33-.53.68-.5,1,.25,2.61-1.07,4.83-1.74,7.21q-3.55,12.71-7.22,25.39c-.94,3.21-2.11,6.35-3.13,9.54-1.62,5.1-3.17,10.23-4.83,15.32a1.44,1.44,0,0,0,.41,1.74,18.66,18.66,0,0,0,5,3.26c2.42,1.15,4.86,2.25,7.3,3.36a37.48,37.48,0,0,1,7.51,4.75c.3.24.58.5.87.75,3.17,2.63,6.25,5.37,10,7.12.65.3,1.49.66,1.47,1.58s-.93,1.35-1.73,1.67a34.17,34.17,0,0,1-8.4,1.73,68.08,68.08,0,0,1-7.44.6,71.68,71.68,0,0,0-8.29.77c-4.28.6-8.59.68-12.88,1.11a13.62,13.62,0,0,0-3.65.69,2.11,2.11,0,0,0-.26,1.89,11,11,0,0,1-.1,3.14c-.35,3.18-3.45,5-6.57,4.46a5.05,5.05,0,0,1-3.88-2.67c-.61-1.19-1.18-2.4-1.76-3.61s-.57-1.2-1.71-1.08c-2,.21-4,.4-6,.77a116.19,116.19,0,0,1-14.55,1.62c-6.21.38-12.44.58-18.6,1.54a33.64,33.64,0,0,1-4.57.45,67.49,67.49,0,0,0-8.27.93c-5,.72-10.11.92-15.13,1.66-5.3.78-10.68.91-15.92,2.14-1.08.25-2.53-.35-3.17.79a7.85,7.85,0,0,0-.51,3.07,11.85,11.85,0,0,1-.85,3.62,3.71,3.71,0,0,1-3.91,2.32,6.13,6.13,0,0,1-5.84-5,3.8,3.8,0,0,0-.81-2.14c-5.67.73-11.35,1.49-17,2.2-1.61.2-3.24.32-4.86.39-3.64.16-7.25.53-10.86,1-2.18.28-4.38.49-6.58.59-4.32.19-8.57.91-12.85,1.4-2.28.26-4.57.47-6.85.77-4,.53-8,1.13-11.93,1.67-2.18.29-4.38.48-6.56.78-5.31.73-10.61,1.51-15.91,2.24-2.94.4-5.89.74-8.83,1.1-5.42.66-10.77,1.71-16.12,2.76a39.31,39.31,0,0,1-8.25,1,8.92,8.92,0,0,0-3.08.61c-2.31.8-2.32.72-3.69-1.25-1.59-2.27-2.88-4.73-4.6-6.92-2.67-3.4-5.65-6.5-8.53-9.71-2.69-3-5.31-6-7.76-9.23-3.2-4.18-6.57-8.23-9.74-12.43-1.84-2.44-4-4.6-5.53-7.38-3.59,1.09-7.13,2.19-10.68,3.25a35.28,35.28,0,0,1-9.58,1.64,42.29,42.29,0,0,1-13.33-1.74c-3.83-1.19-7.71-2.25-11.48-3.63a24.51,24.51,0,0,0-7.84-1.59c-1.71,0-3.41-.47-5.12-.55-2.48-.12-5-.15-7.46-.11a91.12,91.12,0,0,1-14-1c-1.23-.17-2.48-.24-3.72-.33A53.42,53.42,0,0,1,50,281.95c-3.45-.79-6.87-1.73-10.22-2.85a74.29,74.29,0,0,0-14.58-3c-2.78-.34-5.54-.08-8.31-.15a25,25,0,0,1-2.87-.13c-2.12-.3-2.86-1.89-1.82-3.74a29.09,29.09,0,0,1,5.45-7,52.75,52.75,0,0,1,22.52-12.67c1.27-.35,2.64-.3,3.82-1.08.06-1.79.15-3.6.19-5.41a9.88,9.88,0,0,1,2.11-6.41,5.61,5.61,0,0,0,1.21-2.87,18.72,18.72,0,0,1,2.26-6.47,9.34,9.34,0,0,1,2.74-3.28A5.93,5.93,0,0,0,54.8,224c1.48-4,4.78-6.1,8.41-7.72,1.66-.74,3.3-1.48,4.9-2.33a10.7,10.7,0,0,0,1.9-1.28,22.17,22.17,0,0,1,8.21-3.92,4.68,4.68,0,0,1,3.36,0,2.65,2.65,0,0,0,2.19-.15,14.66,14.66,0,0,1,9-1.06,6.29,6.29,0,0,0,3.93-.45,13.23,13.23,0,0,1,3.88-1,14.15,14.15,0,0,1,6.51.71c1.07.41,2.17.73,3.27,1.08a7.12,7.12,0,0,0,4.2.14,27.52,27.52,0,0,1,5.42-.57,7,7,0,0,1,3.81,1.15,10,10,0,0,0,5.76,1.37,13,13,0,0,1,5.33.95,44.54,44.54,0,0,1,7.79,3.62c1.32.79,2.35,2,3.58,2.84s2.75,1.29,4,2.14a16.1,16.1,0,0,1,3.67,3.62c2.32,2.93,4.61,5.89,6,9.43a32.76,32.76,0,0,1,1.39,4.37,2.44,2.44,0,0,0,2.19,1.92,6.49,6.49,0,0,0,1.43.07c4.31-.05,8.64.08,12.93-.22q8-.57,16.06-.84c4-.14,8-.34,12.06-.14a56,56,0,0,0,9.17-.63c3.43-.39,6.87-.6,10.32-.66,1.91,0,3.83-.19,5.74-.29,2.59-.14,2.59-.14,3.74-2.58a110.92,110.92,0,0,0,4.83-12,57.61,57.61,0,0,1,4.84-10.07c.71-1.25,1.45-2.48,2.15-3.73A2.39,2.39,0,0,0,245,204.4c-1-.09-1.92-.06-2.87-.05l-34.47.14-30.17.14-24.7.12c-2,0-4,.06-6,0a2.15,2.15,0,0,0-2,.94l-.34.46a5.81,5.81,0,0,1-5.79,2.34c-2.17-.28-4.41.07-6.57-.53-1.33-.36-1.61-.7-1.67-2.21,0-.28,0-.56,0-1h-6.31q-13.49-.05-27-.12c-3.35,0-6.71-.09-10.06-.15a7.59,7.59,0,0,1-1.42-.16c-.11,0-.24-.29-.24-.45s.11-.45.21-.47a9.78,9.78,0,0,1,1.68-.19c4.89,0,9.77-.1,14.66-.11q14.65,0,29.29,0a1.3,1.3,0,0,0,1.47-1c.28-.81.67-1.59.9-2.41s0-1.31-1-1.65a2.6,2.6,0,0,1-1.86-2.86c0-2.3,0-4.59,0-6.89q0-10.48.05-21c0-6.22.12-12.45.11-18.67,0-5.55-.15-11.1-.16-16.65,0-5.08.07-10.15.12-15.23a7.92,7.92,0,0,1,.43-2.88,16.79,16.79,0,0,1-1.44-1c-1.67-1.49-1.51-3.24.37-4.51a4.77,4.77,0,0,1,2.7-.85c1.63,0,3.27-.17,4.89,0,4.49.36,9-.17,13.46,0,1.24.06,2.48,0,3.73,0,5.74,0,11.48.14,17.22.13,3.35,0,3.24.37,3.25-3.29q.06-24.86.13-49.72,0-15.66.12-31.33c0-1,.13-1.92.06-2.87a2.64,2.64,0,0,1,1.7-2.72,17.11,17.11,0,0,1,1.84-.8A51.06,51.06,0,0,1,198.28,14a60.27,60.27,0,0,1,10.54,1.21,22.6,22.6,0,0,1,5.63,2.08,1.6,1.6,0,0,1,1,1.55c0,2.49.11,5,.11,7.47,0,6.61-.06,13.21-.08,19.82q0,14.22-.05,28.44c0,8.33,0,16.66.07,25q0,3.45,0,6.89a1,1,0,0,0,1,1.09c1.91,0,3.83.1,5.74.09,7.27,0,14.55-.12,21.82-.15,4.67,0,9.35,0,14,0a5,5,0,0,1,3.67,1.34,2.55,2.55,0,0,1,.06,3.8,3.79,3.79,0,0,1-.91.69,1.22,1.22,0,0,0-.61,1.44,72.21,72.21,0,0,1,.36,8.87c0,5.06,0,10.12,0,15.18a7.18,7.18,0,0,0,.14,1.43.42.42,0,0,0,.62.32,8.57,8.57,0,0,0,1.16-.83c5.59-4.5,11.33-8.83,16.7-13.59.93-.82,1.74-1.78,2.64-2.64a.9.9,0,0,1,1.48.12c1.27,1.8,2.57,3.58,3.72,5.45,3.76,6.13,7.82,12,12.08,17.82,1.53,2.08,3.32,4,5,5.93a1.12,1.12,0,0,0,1.54.2c5.93-2.85,11.36-1.75,16.31,2.24a27,27,0,0,1,5.58,6.15c.95,1.44,2,2.83,3,4.18a1.56,1.56,0,0,0,2.24.51c3.75-1.66,7-1,9.88,2a14,14,0,0,0,3.09,2.55,4.11,4.11,0,0,0,2.74.6,14.69,14.69,0,0,1,4.86-.13.9.9,0,0,0,.94-.5,3.77,3.77,0,0,0,.5-1,19.26,19.26,0,0,1,3-6.14A23.6,23.6,0,0,0,362.12,152a49.38,49.38,0,0,1,2.44-10.9,20.69,20.69,0,0,1,4.78-8.08c.41-.4.71-.9,1.12-1.31a2.38,2.38,0,0,0,.83-2.31c-.47-2.06.53-3.48,2-4.73.87-.74,1.73-1.51,2.56-2.3.51-.48.4-1-.06-1.49s-.83-.81-1.46-.43-1,.64-1.46.91a16.13,16.13,0,0,1-4.56,1.65,6.25,6.25,0,0,1-6-2,10.8,10.8,0,0,1-2.5-4.15c-.26-.72-.46-1.46-.68-2.2a1.67,1.67,0,0,0-2-1.45c-1.75.07-2.37-.78-2.15-2.61a15.66,15.66,0,0,0-.49-6.82,23,23,0,0,0-1.14-2.93,26.36,26.36,0,0,1-1.81-6.32V92.33A5.18,5.18,0,0,0,350.57,94.54Zm22.52,35.65-.19-.42c-.08.09-.22.17-.23.27a1.49,1.49,0,0,0,.1.46c.19.83.39,1.67.58,2.5.49,2.19,1.39,4.39-.08,6.56a1.61,1.61,0,0,0-.12.56q-.77,3.79-1.54,7.57a6.72,6.72,0,0,0-.18,2.43,3.06,3.06,0,0,0,1.64-1.37c1.25-1.69,2.34-3.49,3.51-5.24a6.87,6.87,0,0,0,.75-5.74,10.72,10.72,0,0,0-.53-1.64,36.3,36.3,0,0,0-3.2-5.75C373.51,130.26,373.25,130.25,373.08,130.19Zm6.19-2.41c1.53-.49,1.91-.42,2.48.74a28.37,28.37,0,0,1,1.13,2.94c.16.44.15,1,.7,1.25a2.53,2.53,0,0,0,.55-.51,48.27,48.27,0,0,1,6-8c1-1.12,2.21-2.1,3.18-3.27a45.15,45.15,0,0,1,4.92-5.18c2.77-2.44,2.33-2.09,1.54-5.36a9.39,9.39,0,0,0-.42-1.37,1,1,0,0,0-1.14-.65,25.18,25.18,0,0,0-5.94,2c-.27.11-.2.48-.08.75.31.7.76.91,1.28.55,1.1-.76,2.21-1.52,3.27-2.32a1.89,1.89,0,0,1,1.59-.43c.09,0,.22.07.24.14s.12.39,0,.48a4.42,4.42,0,0,1-.83.76c-3.23,2.23-6.19,4.8-9.22,7.29a80.66,80.66,0,0,0-8.39,8.23,2.81,2.81,0,0,0-.86,2.06,3.2,3.2,0,0,0-.06,3.08ZM102.64,254.4l.07.07c.44-.34.25-.66-.09-.87a26.75,26.75,0,0,1-4-3.24c-1.71-1.57-2.33-3.67-2.83-5.83a1,1,0,0,1,0-.56.66.66,0,0,1,.36-.36.67.67,0,0,1,.53.1c.55.45.6,1.16.84,1.77a1.44,1.44,0,0,0,2.26.91c.51-.24.92-.67,1.42-1,1.45-.84,1.56-.9,1.44-2-.25-2.12-.66-4.19-2.62-5.5-.41-.27-.81-.55-.81-1.09,0-.32.93-.19,1.52.2a6.16,6.16,0,0,1,2.83,3.81,10.72,10.72,0,0,1,.48,2.81,12.52,12.52,0,0,0,.77,3.91,18.61,18.61,0,0,1,.73,2.77c.15,1-.19,2.24.23,3.1s1.51,1.39,2.3,2.07a6,6,0,0,1,.61.61,1.41,1.41,0,0,0,1.78.41,34.06,34.06,0,0,1,4.65-1.44,1.39,1.39,0,0,0,1.21-1.34,3.44,3.44,0,0,0-.84-3.2,7.15,7.15,0,0,0-1.72-1.48A20.7,20.7,0,0,1,104,238.23a9.54,9.54,0,0,0-3.41-3.78c-1.25-1-2.91-1-4.09-2a22.7,22.7,0,0,0-3.88-2.42,4.13,4.13,0,0,0-.52-.23c-8.56-3.12-16.73-2.41-24.42,2.56a20.18,20.18,0,0,0-6.87,8A19.89,19.89,0,0,1,56.49,246c-1.2,1.09-2.46,2.14-3.58,3.31a10.59,10.59,0,0,0-3.3,6.61A14.67,14.67,0,0,1,53.42,258c2-2.72,3.7-5.48,4.24-8.76a18.45,18.45,0,0,1,2.72-6.58c.1-.16.22-.31.31-.48a.82.82,0,0,1,1-.45c.41.15.38.6.23,1a8.1,8.1,0,0,1-.54,1,20.73,20.73,0,0,0-2.54,6.67,21.88,21.88,0,0,1-4.72,9.37,33.5,33.5,0,0,0-2.25,3.32c-.4.63-.12,1.1.65,1.11,4.81,0,9.16,1.75,13.51,3.51.67.27,1.22.93,2.24.7a13.69,13.69,0,0,0,2.45-11,36.08,36.08,0,0,0-1.83-5.72,12.13,12.13,0,0,1,.88-10.25c.19-.35.51-.63.9-.32a.88.88,0,0,1,.25.75c-.28,1-.76,2-.94,3a11.75,11.75,0,0,0,.59,7,19.91,19.91,0,0,1,1.76,10.63c-.12.93-.27,1.85-.43,2.92a6.58,6.58,0,0,1,3.25,1.66c2.36,1.79,4.86,3.4,8.09,2.89a3.94,3.94,0,0,1,1.69.23,10.53,10.53,0,0,0,3.13.33,31.12,31.12,0,0,0,10.12-1.74c1.92-.65,3.28-1.52,3.35-3.71a.38.38,0,0,1,.11-.26c.13-.11.3-.25.44-.24a.62.62,0,0,1,.46.27,3.49,3.49,0,0,1,.21.81c.22,1,.29,1,1,.8a41.82,41.82,0,0,1,4.65-1.45c1.61-.31,1.91-.62,1.76-2.29a6.8,6.8,0,0,0-.23-2,11.22,11.22,0,0,0-6.64-6.72C102.88,253.85,102.8,254.19,102.64,254.4Zm345.54-35.28a14.08,14.08,0,0,1-4.34,1.44c-3.53.21-7.05.71-10.6.32a9,9,0,0,0-1.14-.09l-11.74.22c-3.54.07-7.09,0-10.62.25-4.86.34-9.7,1-14.56,1.4-7.91.68-15.82,1.35-23.74,1.91-7.65.55-15.16,2-22.69,3.29-3.58.61-7.14,1.41-10.73,1.95s-7,.91-10.49-.41a.94.94,0,0,0-1.35.63,6.33,6.33,0,0,0-.38,1.66c-.38,4.38-.74,8.76-1.11,13.14-.21,2.48-.4,5-.65,7.44-.3,2.85-.66,5.69-1,8.54s-.6,5.51-1,8.26c-.39,2.94-.95,5.85-1.26,8.79a35.81,35.81,0,0,1-2,8.05,24.31,24.31,0,0,1-1.73,3.29c-.26.49-1.18.72-1,1.27.31.84,1.14.26,1.72.2a26.64,26.64,0,0,0,3.1-.56c1.88-.41,3.81-.38,5.69-.69,3.59-.61,7.2-1,10.82-1.37,3-.27,6.06-.9,9.14-.84,5.66.11,11.28-.53,16.92-.74,7.37-.27,14.73-.74,22.11-.6,4.11.08,8.23,0,12.34-.07,2.58,0,5.16-.12,7.74-.16,6.32-.1,12.63-.15,18.94-.61a4,4,0,0,0,3.86-2.84c.66-1.79,1.36-3.58,1.94-5.4,2-6.29,4-12.59,6-18.88.87-2.73,1.89-5.42,2.71-8.17,2.54-8.52,5-17.05,7.51-25.58C447.06,222.64,447.56,221.13,448.19,219.12ZM310.69,316a7.13,7.13,0,0,0,.14-2.85c0-5.25-.07-10.51-.17-15.76a21.88,21.88,0,0,0-.68-6,2.1,2.1,0,0,0-1-1.54,11.93,11.93,0,0,1-4.84-4.36,1.61,1.61,0,0,0-1.66-.85,3,3,0,0,1-1.86-.66c-1-.68-2.15-1.25-3.15-2-6.39-4.71-12.82-9.37-19.5-13.67-3.3-2.12-6.54-4.32-9.82-6.47-.81-.53-1.17-.37-1.38.59-.88,3.91-1.71,7.84-2.61,11.75-.63,2.75-.66,2.75-3.46,2.65-1.16,0-1.35.08-1.66,1.11-.93,3.11-1.78,6.24-2.78,9.33a69.5,69.5,0,0,0-2.75,12.3c-.05.39-.17.71.16,1,2.19,2,2.26,4.48,1.39,7.11a22.73,22.73,0,0,0-1.55,6.09,3.79,3.79,0,0,1-1.17,2.26,8.41,8.41,0,0,1-4.62,2.73,17.84,17.84,0,0,1-8.24.29,9.58,9.58,0,0,0-6.16.59,77.78,77.78,0,0,1-8.69,2.87,39,39,0,0,1-14.44,1.51,19.75,19.75,0,0,1-10.78-4.21,4.17,4.17,0,0,1-1.74-4.2,23.42,23.42,0,0,0,0-4c-.17-4.18,1.25-7.67,5-9.95a19.81,19.81,0,0,1,9.61-2.49c2.67-.12,5.34-.23,8-.33a16.44,16.44,0,0,0,4.73-1.1,2.53,2.53,0,0,0,1.7-1.78c.17-.55.22-1.13.36-1.68a5.41,5.41,0,0,1,.7-1.86c.28-.4,1-.58.7-1.45-2.54-.26-4.91-1.33-7.36-2.1a58.47,58.47,0,0,1-12-5.44,39.57,39.57,0,0,1-9.81-8.77c-1.06-1.23-2-2.57-3-3.88a1.35,1.35,0,0,0-1.71-.59,25.6,25.6,0,0,1-6.19,1.1,14,14,0,0,0-3.92.83c-2.68,1-5.54,1.44-8.23,2.39-4.31,1.52-8.81,2.4-13.07,4.1-6.3,2.51-12.63,4.93-18.95,7.39-.27.1-.52.23-.78.36a.82.82,0,0,0-.44,1.18,6.38,6.38,0,0,0,.74,1.22q4.15,5.31,8.32,10.61c5.38,6.85,10.8,13.67,16.81,20a61.76,61.76,0,0,1,8.4,10.89q.66,1.11,1.37,2.19a1,1,0,0,0,1.45.5,10,10,0,0,1,4.2-.78,44.25,44.25,0,0,0,7.68-1c5.44-1.11,10.89-2.1,16.41-2.76,3-.36,6.07-.78,9.11-1.19L234.07,325c2.09-.28,4.18-.52,6.26-.78,8-1,15.94-2.09,23.91-3.08,3.42-.42,6.86-.68,10.29-1,2.57-.25,5.14-.55,7.72-.71q12-.78,24-2.52A13.11,13.11,0,0,0,310.69,316Zm-96.4-208.47c0-.73.09-1.2.09-1.67q.06-6.74.1-13.47c0-3.61.08-7.22.08-10.83,0-5.73-.16-11.46-.07-17.19s.33-11.54.12-17.31c-.17-4.67-.11-9.33-.16-14,0-4.21-.3-8.42,0-12.63a7.84,7.84,0,0,0-.06-.86,1.42,1.42,0,0,0-.88-1.36,21,21,0,0,0-4-1.53,56.83,56.83,0,0,0-10.8-1.46,78,78,0,0,0-9.16.45A38,38,0,0,0,182,17.22c-1.45.46-2.81,1.2-4.22,1.79a1.23,1.23,0,0,0-.82,1.34c0,.38,0,.77,0,1.15q0,24.58,0,49.16c0,9.77-.06,19.54-.09,29.32,0,2.47,0,4.94,0,7.46a10.55,10.55,0,0,0,1.29.18l33.61,0C212.53,107.67,213.29,107.57,214.29,107.51ZM119.16,252.46a30.73,30.73,0,0,1,6.27-2.7,51.37,51.37,0,0,1,11.94-1.5c2.11-.1,4.22-.06,6.32-.19a15.6,15.6,0,0,0,9.91-4c.42-.39.85-.78,1.28-1.16s.62-.54,1-.25c.54.43.15.86-.13,1.22a8.2,8.2,0,0,1-1.12,1.3,16.54,16.54,0,0,1-8.67,4.16,61,61,0,0,1-7.16.51,50.21,50.21,0,0,0-13.62,1.58,27,27,0,0,0-6.62,3.28.77.77,0,0,0-.24.49c-.08.42.32.39.54.5a13.06,13.06,0,0,0,3.08.66,18.25,18.25,0,0,0,14-2.56,2.36,2.36,0,0,1,1.29-.55c.36,0,.55.2.55.48a3,3,0,0,1-.29.79c-.14.41-.09.8.43.75a8.93,8.93,0,0,0,2.81-.5c1.76-.75,3.54-1.44,5.32-2.15a13.3,13.3,0,0,1,1.33-.49.51.51,0,0,1,.67.33.93.93,0,0,1-.24.75c-.66.54-1.38,1-2.43,1.74,4.28-.16,7.89-1,11-3.49.37-.3.73-.63,1.12-.89a.55.55,0,0,1,.5.1.74.74,0,0,1,.18.5c0,.46-.5.84-.17,1.46a26.67,26.67,0,0,0,2.77,0c5.1-.53,6.47-4.92,4.71-9.13a8.11,8.11,0,0,0-3.37-3.46c-.5-.32-.81-.11-1.25.18-.8.52-1.39.24-1.27-.59.38-2.59-.41-4.89-1.4-7.22a39.43,39.43,0,0,0-4.39-7,15.29,15.29,0,0,0-7.66-6.23,2.68,2.68,0,0,1-1.22-.71c-1.89-2.33-4.59-3.43-7.17-4.64-3.21-1.51-6.53-2.79-10.21-2.36a5.43,5.43,0,0,1-3.52-1,10.25,10.25,0,0,0-8.85-.9,9.15,9.15,0,0,1-6.32-.31c-.45-.16-.91-.29-1.35-.47a13.27,13.27,0,0,0-10.07,0,9.9,9.9,0,0,1-5.34.54c-2.67-.41-5.39-.45-7.83,1a2.91,2.91,0,0,1-2.7.25,5.34,5.34,0,0,0-3.65.09,19.38,19.38,0,0,0-6.62,3.28,22.54,22.54,0,0,1-2.36,1.62,43.22,43.22,0,0,1-5.42,2.6c-3.26,1.5-6.27,3.32-7.52,7a5.94,5.94,0,0,1-2.35,2.83,9.14,9.14,0,0,0-2.72,3.28A15.4,15.4,0,0,0,49.1,236,10.33,10.33,0,0,1,47,241.24a5.34,5.34,0,0,0-1.15,3.2c-.13,2.49-.24,5-.13,7.47a6.24,6.24,0,0,0,1.61,3.57.61.61,0,0,0,.93-.15,3.14,3.14,0,0,0,.26-2.76,7.79,7.79,0,0,1-.13-3.68,15.08,15.08,0,0,1,2.17-6.19,14.53,14.53,0,0,0,2.18-6.46,18.75,18.75,0,0,1,2-6.24,14.45,14.45,0,0,1,4.51-5.5,2.47,2.47,0,0,1,.76-.39.59.59,0,0,1,.49.15.53.53,0,0,1,.09.5,19.42,19.42,0,0,1-1.34,1.48,14.94,14.94,0,0,0-3.61,5.11A25.61,25.61,0,0,0,53.83,238a10,10,0,0,1-1.45,4.31,20.89,20.89,0,0,0-2.07,4.41,7.45,7.45,0,0,0-.41,3.84c.84-1,1.48-1.78,2.19-2.52s1.52-1.45,2.28-2.17l2.31-2.16.22-.18a3.9,3.9,0,0,0,1.41-3.3c-.05-.57.05-1.15.06-1.72a11,11,0,0,1,1.92-5.92c2.13-3.34,5.22-5.56,8.52-7.53a18,18,0,0,1,5.56-2.24,25,25,0,0,1,13.3,1,9.48,9.48,0,0,1,5.27,3.77,10.52,10.52,0,0,0,5.35,4.14,13.29,13.29,0,0,1,7.83,7.5,14.9,14.9,0,0,0,2.27,3.64,16.62,16.62,0,0,0,6.34,4.78c.47-2.95-.56-5.49-1.33-8-.86-2.81-.94-5.42.54-8,.43-.75.67-1.6,1.14-2.32,1-1.51,1.89-3.21,3.76-3.8a13.4,13.4,0,0,0,3.92-2.32c3.95-2.94,8.07-2.31,12.25-.69a3.23,3.23,0,0,1,.7.5.69.69,0,0,1,.24,1c-.12.16-.52.21-.77.18s-.5-.27-.77-.37c-4.19-1.57-8.22-1.73-11.84,1.43a6.78,6.78,0,0,1-2.47,1.4,6.19,6.19,0,0,0-3.44,2.9,33.43,33.43,0,0,0-1.83,3.57,7.65,7.65,0,0,0-.11,5.85,24.39,24.39,0,0,1,1.67,6.93A10.78,10.78,0,0,0,119.16,252.46Zm133-69.44a19.12,19.12,0,0,1-.41,5.06,4.25,4.25,0,0,1-3.56,3.6,16.37,16.37,0,0,1-2.58.14c-3.64,0-7.28,0-10.92,0-6.41,0-12.83,0-19.24.19-5.34.13-10.69-.27-16,.17a4.68,4.68,0,0,1-2-.37,4.58,4.58,0,0,0-3.58,0,4.65,4.65,0,0,1-2.82.21,10.18,10.18,0,0,0-2-.1c-7.08,0-14.16,0-21.24,0-6.7,0-13.41-.09-20.11-.15a38.4,38.4,0,0,1-4.31-.16,4.15,4.15,0,0,1-3.71-3.48,25.57,25.57,0,0,1-.31-3.14,3.92,3.92,0,0,0-.28-2.06l-3.32-.33a1.22,1.22,0,0,1-1.22-1,30.16,30.16,0,0,1-.07-7.16,1.89,1.89,0,0,1,2-1.7c.67,0,1.34,0,2,0s1-.34,1-1.08q0-5.31,0-10.63a1.11,1.11,0,0,0-.52-1.09l-2.42-.25c-1.68-.18-2.2-.66-2.24-2.32,0-1.82,0-3.64,0-5.46,0-1.59.61-2.18,2.25-2.41.66-.09,1.34-.09,2-.15,1-.1,1.2-.27,1.27-1.18.09-1.24.19-2.49.19-3.73,0-4.15,2.12-7.31,5-9.88a33,33,0,0,1,9.55-5.73c5-2,10.24-3.06,15.43-4.38,6.27-1.61,12.67-1.83,19.06-2.14a11.77,11.77,0,0,1,6.63,1.31,12.48,12.48,0,0,1,6.66-1.31c3.35.12,6.69.34,10,.6,5.85.44,11.45,2.13,17.1,3.57,1.94.5,3.86,1.1,5.77,1.72,2.57.84,4.8,2.35,7.17,3.59a19.52,19.52,0,0,1,7.7,7.47,7.08,7.08,0,0,1,1,3,40.78,40.78,0,0,1,.49,5.71c0,.27.05.59.42.64a.77.77,0,0,0,.53-.1c2.08-1.7,4.13-3.42,6.21-5.11a2.08,2.08,0,0,0,.76-1.76c0-1.91,0-3.82,0-5.73q-.12-9.77-.27-19.53c0-1.8-.37-2.13-2.21-2.2-.48,0-1,0-1.44,0-4.6,0-9.2,0-13.8,0-5.27,0-10.54-.09-15.81-.09-9.48,0-19,.05-28.45.07q-6,0-12.07,0c-6.9,0-13.79-.09-20.69-.08-10,0-19.93.07-29.9.11-.38,0-.77,0-1.15,0-1.08.11-1.59.57-1.63,1.63s0,2.3,0,3.45c-.08,6.79-.23,13.58-.23,20.38,0,5.36-.1,10.73-.06,16.08.05,8.32.16,16.64.13,25,0,4.6,0,9.19.12,13.79,0,1.65.37,2,2,2.21s3,0,4.57.38a12,12,0,0,0,3.13.2c3.63,0,7.26-.15,10.88-.17,5.73,0,11.45,0,17.18,0s11.49-.19,17.23-.18c11.59,0,23.18.12,34.77.17,5.92,0,11.85,0,17.77,0,3.25,0,6.51.06,9.75.19a3.36,3.36,0,0,0,3.29-1.73,12.81,12.81,0,0,1,4.52-4.73c1.68-.89,2.68-1.83,2.25-4a23.06,23.06,0,0,1,0-4.58,2.61,2.61,0,0,0-.17-1.11,1.72,1.72,0,0,0-1.65-1c-.65,0-.67.57-.68,1,0,1.13-.8,1.46-1.7,1.58S253.42,182.94,252.17,183Zm77.49,45.31a34.53,34.53,0,0,0,9.65-.44c4.52-.75,9-1.6,13.54-2.42,4.89-.88,9.76-1.82,14.73-2.25,2.19-.19,4.39-.34,6.58-.54,3.91-.36,7.81-.81,11.72-1,5.45-.28,10.86-.89,16.28-1.45,3-.31,5.91-.72,8.87-.78,7.84-.14,15.69-.11,23.54-.14a85.9,85.9,0,0,0,9.44-.54,6.12,6.12,0,0,0,5-3.47,20.52,20.52,0,0,0,1.94-5.07,43.87,43.87,0,0,0,.71-5.4,9.81,9.81,0,0,0-.76-5.06,9.31,9.31,0,0,0-8.82-5.21c-2.3.1-4.57.45-6.85.65-3.24.29-6.45.69-9.65,1.23a29.19,29.19,0,0,1-3.13.38c-3.25.19-6.49.57-9.72.89q-6,.58-12,1c-4.19.32-8.38.67-12.57,1-6.39.45-12.79.87-19.19,1.3-3.63.24-7.27.35-10.88.74a93.39,93.39,0,0,1-12,.36c-4.11-.08-8.21-.46-12.32-.66-.47,0-1.17-.4-1.41.47a4.67,4.67,0,0,0,.61.56c2.66,1.69,3.62,4.33,4,7.27a25.72,25.72,0,0,1,0,5.73,15.92,15.92,0,0,1-3.16,8.48A21.23,21.23,0,0,1,329.65,228.33ZM338,186.6a2.18,2.18,0,0,0-1.22-1.42c-1.85-1.2-3.68-2.4-5.42-3.76a53,53,0,0,0-5.49-3.65,23.53,23.53,0,0,1-4.69-3.28,3,3,0,0,0-1.2-.73,17.91,17.91,0,0,0-4.75-1c-1.34,0-2.67-.22-4-.31a32.63,32.63,0,0,1-5.41-.69,3.32,3.32,0,0,0-3.39.91,43.84,43.84,0,0,1-4.21,3.45c-1.34,1-1.63,1-3-.11a13.17,13.17,0,0,1-1.28-1.15c-1.12-1.18-2.16-2.43-3.33-3.56-2.6-2.54-5.25-5-7.88-7.52-1.41-1.35-1.42-1.89,0-3.2a11.69,11.69,0,0,1,1.12-.9,80.37,80.37,0,0,0,9.39-8c.88-.88,1.81-1.71,2.73-2.55.11-.1.38-.18.47-.12a.53.53,0,0,1,.12.77,51.45,51.45,0,0,1-6.79,7A74.7,74.7,0,0,1,283,162l13.79,13.6A21.51,21.51,0,0,0,302,170.9a13.24,13.24,0,0,1-4.57-3.72c-1.57-1.87-1.42-3.92-.82-6,.55-1.87,2.09-2.87,3.89-3.5a9.5,9.5,0,0,1,3.68-.42c.52,0,1.07.43,1.58,0,.15-.48-.23-.67-.46-1-2.54-3-5.24-5.85-7.57-9-4-5.45-7.81-11.11-11.4-16.89-.91-1.46-1.83-2.92-2.8-4.34-.51-.75-1-.76-1.62-.09a82.58,82.58,0,0,1-7.79,6.78c-3,2.37-6,4.72-9,7.11-1.79,1.44-3.48,3-5.27,4.43-4.33,3.48-8.29,7.39-12.67,10.81-1.94,1.52-3.65,3.33-5.53,5.07a70.32,70.32,0,0,0,6.6,5.26,144.59,144.59,0,0,0,18.37,11.68c3.58,2,7.27,3.87,10.73,6.09a64.63,64.63,0,0,0,14.49,6.8c.67.23,1.2.35,1.77-.28a17.5,17.5,0,0,1,8.83-5,12.25,12.25,0,0,1,7.33.2,41.23,41.23,0,0,1,6.06,2.57,89.55,89.55,0,0,0,9.14,4C329.5,187,330.74,186.51,338,186.6ZM45.27,256c0-.11,0-.2,0-.27q-.22-.53-.47-1c-.71-1.46-.72-1.48-2.1-1.11-1.75.47-3.52.92-5.24,1.48a48.24,48.24,0,0,0-18.38,10.81,3.67,3.67,0,0,0-1.35,1.76,1.68,1.68,0,0,0,1.4-.07,26.39,26.39,0,0,1,5-1.11,34.13,34.13,0,0,1,6.87.08,42.05,42.05,0,0,1,10.91,2.32c7.23,2.51,14.42,5.08,22.06,6.19a65.08,65.08,0,0,0,14.89.44,45.41,45.41,0,0,1,4.87-.21,71.53,71.53,0,0,1,13.94,1.56c3.64.81,7.32,1.45,10.92,2.43,2.67.73,5.33,1.52,8,2.11a9.51,9.51,0,0,0,6.92-.85c4.6-2.53,9.29-4.89,14-7.24s9.43-4.64,14.18-6.9A80.08,80.08,0,0,1,169.52,260c2.42-.51,4.92-.69,7.37-1.09a46.92,46.92,0,0,1,12.86-.54,12.91,12.91,0,0,0,1.42,0c.31-.68.62-1.28.85-1.9s1.16-.76.9-1.75c-7.78-4-16.3-5.54-25-7-.67,1.74-1.11,3.54-2.61,4.7a3,3,0,0,0,2.16.89,3.41,3.41,0,0,1,1.8.79.64.64,0,0,1,.11.52.56.56,0,0,1-.32.38,6.17,6.17,0,0,1-2.51-.38c-4.55-.93-9.1-1.26-13.55.46a21.9,21.9,0,0,1-9.89,1.22,5.38,5.38,0,0,0-2,0c-2.14.67-4.35.55-6.53.75a7.41,7.41,0,0,0-1.69.22c-4.82,1.62-9.65,1.23-14.42-.09a8.64,8.64,0,0,0-5.6.18c-.78.3-1.79.32-2.19,1.13-.3.6.34,1.24.48,1.88a15.87,15.87,0,0,1,.19,1.7,3.84,3.84,0,0,0,.43,2.1c.85,0,1.79,0,2.73-.14a5.9,5.9,0,0,1,2.54.24.53.53,0,0,1,0,.91,3.57,3.57,0,0,1-1.09.23,29.23,29.23,0,0,0-6,.79,59.74,59.74,0,0,0-9.75,3.31,31.9,31.9,0,0,1-4.3,1.57c-4.9,1.35-9.88.72-14.83.47a7.65,7.65,0,0,1-2.45-.78,21.94,21.94,0,0,1-4.33-2.23,16.19,16.19,0,0,0-2.55-1.31.9.9,0,0,0-1.24.35c-.37.56-.71,1.14-1.13,1.66-.9,1.11-1.47,1.23-2.71.61-.26-.13-.48-.32-.74-.44-4.12-1.83-8.24-3.65-12.89-3.61a6.66,6.66,0,0,1-1.7-.22,1.71,1.71,0,0,1-1.29-2.41,16,16,0,0,1,1.15-2.3c1-1.68.85-2.19-1-2.86a7.52,7.52,0,0,0-2.8-.56A14.32,14.32,0,0,0,42,259c-.52.24-1,.56-1.52.8-.33.16-.75.32-1-.14s.15-.72.44-1a11.09,11.09,0,0,1,2.72-1.56C43.55,256.75,44.62,256.81,45.27,256Zm257.06-25.28c-2-1.42-3.74-2.59-5.41-3.85a180.47,180.47,0,0,1-14.85-13.12,36.93,36.93,0,0,0-10.27-7.23,10.11,10.11,0,0,0-3-.87c-4.11-.48-7,1.65-9.36,4.55a36.71,36.71,0,0,0-6.18,11.91c-1.77,5.45-3.28,11-4.8,16.52-1.09,4-1.94,8-3,12a74.38,74.38,0,0,1-5.22,14.24c-1.12,2.19-1.12,2.2.52,3.83a10.63,10.63,0,0,0,1.31,1.11,26.58,26.58,0,0,0,11.29,4.69c2.64.43,5.32.59,8,.92.69.08,1.09-.08,1.23-.79q.33-1.69.7-3.37c1.14-5.13,2.16-10.29,3.46-15.38,2-7.88,4.81-15.52,7.6-23.15a9.36,9.36,0,0,1,.56-1.32,2.58,2.58,0,0,1,3-1.57c.56.12,1.15.09,1.71.2a81.1,81.1,0,0,0,18.85,1.41A9.36,9.36,0,0,0,302.33,230.72ZM240,261.82c.56-1.28,1.21-2.55,1.67-3.89a141.59,141.59,0,0,0,4.3-14.87c1.61-7.2,3.75-14.24,5.87-21.29a40.52,40.52,0,0,1,6.14-12.27,18.86,18.86,0,0,1,5.27-4.37,5.68,5.68,0,0,1,2.46-.72,13.58,13.58,0,0,1,8.32,1.54,45.36,45.36,0,0,1,8.51,6.32c1.83,1.69,3.61,3.43,5.47,5.09a119,119,0,0,0,11.67,9.76c3.48,2.39,6.92,4.84,11.3,5.32a.61.61,0,0,1,.27.08c.26.18.88.08.61.68-.18.41-.6.41-1,.36a18,18,0,0,1-4.75-1,3.53,3.53,0,0,0-2.48-.21,23.29,23.29,0,0,1-5.68.72c-.38,0-.93-.18-1.1.53a15.78,15.78,0,0,0,9.09,2c.76-.08,1.54.11,2.29,0,1.48-.2,3,.19,4.44-.34a102.45,102.45,0,0,1,2.48-23.79,9.56,9.56,0,0,0-4.38,0c-2.13.59-4.17.13-6.25-.14a5.57,5.57,0,0,1-3.63-2.12,5.13,5.13,0,0,1-1.29-3.29,4.66,4.66,0,0,0-.68-.21c-4-.44-5.32-1.69-5.72-5.69a1.44,1.44,0,0,0-.36-1c-.76-.66-.87-1.7-1.44-2.46-.72-1-2-.43-2.91-.95a5,5,0,0,0-.8-.33c-2.25-.8-4.52-1.58-6.77-2.38a63.83,63.83,0,0,0-13.64-3.25,11.87,11.87,0,0,0-10.44,3.57,20.22,20.22,0,0,0-3.93,5.61A118.3,118.3,0,0,1,247.05,210a59,59,0,0,0-6.13,12.62c-.55,1.73-1.21,3.43-1.91,5.1a73.73,73.73,0,0,1-5.26,11.14c-1.49,2.34-3,4.68-4.57,7s-1.31,4.46.07,6.68a26.41,26.41,0,0,0,8.27,8.24A5.82,5.82,0,0,0,240,261.82Zm165.18,25.52c-.61,0-1.09-.1-1.56-.09-3.26.07-6.51.2-9.77.21-5.27,0-10.54-.19-15.8-.05-6.7.17-13.4.53-20.09.9s-13.21.15-19.77,1.2c-4.53.73-9.11,1.1-13.67,1.65-.86.1-1,.32-1,1.37,0,2.29,0,4.59-.14,6.88-.25,4.21-.61,8.41-.88,12.61,0,.61-.28,1.33.45,1.86.72-.08,1.49-.12,2.24-.25,6.33-1.09,12.73-1.57,19.09-2.37,4.56-.57,9.16-.75,13.69-1.57,1.6-.29,3.23-.44,4.84-.6,2.48-.24,5-.31,7.44-.68,6-.91,12-1.17,18-1.48,7.1-.36,14-1.66,21.23-2.58A163.56,163.56,0,0,0,405.15,287.33Zm47.15-87.89A12.09,12.09,0,0,0,453,198c1.79-6.64,3.53-13.3,5.36-19.93q4-14.5,8.11-29,3.33-11.71,6.83-23.37c1.24-4.12,2.14-8.33,3.25-12.49.86-3.23,1.81-6.43,2.63-9.67a28.8,28.8,0,0,0,.54-3.68,1.17,1.17,0,0,0-.8-1.36,9.54,9.54,0,0,0-1.68-.31,24.06,24.06,0,0,0-5.14.28,41.42,41.42,0,0,0-12.38,3.35,7.77,7.77,0,0,0-5,6.51c-.52,3.6-1.13,7.18-1.65,10.78-1.19,8.23-2.4,16.46-3.48,24.71-.56,4.26-.78,8.57-1.3,12.84-1.14,9.31-1.94,18.64-2.52,28-.16,2.58-.21,5.16-.32,7.75a1.07,1.07,0,0,0,.63,1.14A14.36,14.36,0,0,1,452.3,199.45ZM195.12,157.71h.13c0-5.64,0-11.29,0-16.93,0-4.69-.07-9.38-.18-14.07-.05-2.41-.45-2.76-2.89-2.94a28,28,0,0,0-2.87-.09c-2,.05-4,.09-6,.27-3,.27-6.1.56-9.12,1a135.83,135.83,0,0,0-15.88,3.81,31.31,31.31,0,0,0-12.1,6.3c-2.64,2.28-4.67,5.07-5,8.74-.18,2.28-.18,4.56-.35,6.84a1.81,1.81,0,0,0,.92,1.86c1.48,1,1.51,3.54,0,4.3a1.81,1.81,0,0,0-1.15,2q0,7.75.06,15.5a1.41,1.41,0,0,0,1,1.49,1.74,1.74,0,0,1,.92,1.94c-.09,1.06-.13,2.15-1.4,2.57a.78.78,0,0,0-.53.88c0,1.91-.06,3.84.09,5.74a3.75,3.75,0,0,0,3.7,3.67c1,.1,2.1.15,3.16.15,3.24,0,6.49-.07,9.73,0,11.39.05,22.77-.23,34.16.17a10.64,10.64,0,0,0,2.55-.32,1.2,1.2,0,0,0,1-1.21c0-.48,0-1,0-1.44Q195.12,172.79,195.12,157.71ZM40.9,270.37c-1.22-.62-2.66-.59-3.81-1.35-1.64.23-3.1-.85-4.74-.63a5.49,5.49,0,0,1-3.59-.43,3.8,3.8,0,0,0-2-.17,36.8,36.8,0,0,0-5.42.58,42.06,42.06,0,0,0-5.68,1.92c-1,.38-2.41,2.51-2.07,3.18.59,1.17,1.85.59,2.83.73a3.41,3.41,0,0,0,.57,0,64.24,64.24,0,0,1,15.68,1.55c5.13,1.14,10.22,2.41,15.28,3.86,4.22,1.21,8.47,2.42,12.92,2.52.48,0,.95.12,1.42.18a69.92,69.92,0,0,0,10,.88,115,115,0,0,1,18.63.95,18.76,18.76,0,0,1,3.92.84c4.13,1.51,8.34,2.77,12.55,4a38.88,38.88,0,0,0,23.15.11,135.68,135.68,0,0,0,13-4.51c4.48-1.89,9.06-3.55,13.6-5.29a78.45,78.45,0,0,1,8.09-2.92c4.73-1.23,9.31-2.91,14-4.35a76.87,76.87,0,0,1,11.18-2.52c1.4-.21,2.79-.53,4.3-.82-.48-1.84-1.77-3.1-2.42-4.68-.16-.38-.58-.44-1-.47-2.19-.16-4.39-.32-6.58-.5-1.1-.09-2.26.46-3.28-.35.88-1.23,2.22-.59,3.34-.75a24.22,24.22,0,0,1,3.73,0c.77,0,1.53.06,2.3.05.46,0,.68-.52.54-1.06s-.52-.68-1-.76a55.74,55.74,0,0,0-14.6.37,50.27,50.27,0,0,0-7.37,1.15,77.11,77.11,0,0,0-12.64,4.57c-5.17,2.47-10.3,5-15.44,7.55-3.81,1.88-7.6,3.79-11.52,5.74,1,.48,1.67-.16,2.29-.47,2.89-1.45,5.67-3.13,8.6-4.5,8.93-4.17,18-7.88,27.67-10.11a47.84,47.84,0,0,1,7.67-1.07,3.94,3.94,0,0,1,.86.09c.38.06.86.12.9.54s-.37.62-.76.68c-.57.09-1.14.12-1.71.2a52.61,52.61,0,0,0-6.24.92A111.91,111.91,0,0,0,154,270a158.26,158.26,0,0,0-16.47,7.39A147.69,147.69,0,0,1,123,284.12a9.81,9.81,0,0,1-6.17.53,25.84,25.84,0,0,1-4.11-1.21,35.31,35.31,0,0,0-3.8-1.3,108.89,108.89,0,0,0-17.42-3.41c-1.8-.21-3.63-.2-5.44-.3-4.59-.24-9.17.13-13.75.21a65.56,65.56,0,0,1-18.2-2.14c-3.61-1-7.12-2.18-10.65-3.38a67.65,67.65,0,0,0-10-2.6A41.62,41.62,0,0,0,22,270.45a9.41,9.41,0,0,1-3.14,0c0-.75.52-.94,1.09-1.1a33.82,33.82,0,0,1,6-.67,74.64,74.64,0,0,1,8.55,0C36.51,269.66,38.86,269.39,40.9,270.37Zm305-169.75c.21-2.51.87-4.24,2.44-5.54a4.66,4.66,0,0,0,1.27-1.9c.28-.71.63-1.39.88-2.11a5.57,5.57,0,0,1,1.72-2.58.8.8,0,0,1,.53-.17.58.58,0,0,1,.52.57,5.89,5.89,0,0,1-.08,2,11.92,11.92,0,0,0,.22,6,29.52,29.52,0,0,0,1.44,4.65,20.67,20.67,0,0,1,1.45,4.93c.13.64,0,1.34.76,1.74.17.1.45.47,0,.67-.76.36-.74,1-.77,1.71-.05,1.07.17,1.43,1.31,1.28a2,2,0,0,1,2.52,1.69c.11.37.22.73.34,1.09.22.7.72.77,1.36.66a6.28,6.28,0,0,0,2.11-.87c.48-.28,1.09-.74,1.5-.12s-.31,1-.63,1.45a8.72,8.72,0,0,1-2.19,1.83.9.9,0,0,0-.3,1.43,5.2,5.2,0,0,0,5.3,2.69,11.78,11.78,0,0,0,2-.39,18.2,18.2,0,0,0,7.06-4.24c1.21-1.08,2.41-2.18,3.62-3.27.23-.21.56-.27.74,0a.91.91,0,0,1,.13.78c-.58,1.09-1.24,2.14-1.86,3.21s-1.92,1.74-1.75,2.85,1.14,1.92,1.78,2.87a4.22,4.22,0,0,0,.44.47,3.78,3.78,0,0,0,.94-.57,85.36,85.36,0,0,1,9.56-9.07c1.26-1,1.74-1.07.53-3.09-.59-1-1-2.08-1.5-3.09a9.5,9.5,0,0,0-6.94-4.94,6.82,6.82,0,0,1-1.26,2.84A3.51,3.51,0,0,0,380,109c0,.3-.19.53-.53.52s-.6-.13-.6-.47c0-.91-.38-1.43-1.36-1.43a.5.5,0,0,1-.45-.61c0-.32.31-.42.6-.47a3.26,3.26,0,0,0,1.64-.39,4.57,4.57,0,0,0,.41-6.42,1.85,1.85,0,0,0-2.94.41,7,7,0,0,0-.88,3,6.53,6.53,0,0,1-1.81,4.13c-1.3,1.26-2.74,2.38-3.94,3.75a.6.6,0,0,1-.52.06.59.59,0,0,1-.44-.65,5.06,5.06,0,0,1,1.68-2.91c1.52-1.54,1.57-2.06.67-4a10.93,10.93,0,0,1-1-2.37c-.23-1.19.11-2.64-.44-3.59s-2-1.51-2.62-2.58a2.92,2.92,0,0,0-3-1.57,4.65,4.65,0,0,1-2.47-.68,20.08,20.08,0,0,1-3.38-2.15,7.53,7.53,0,0,0-3.23-1.79c-.44-.07-1,0-1.16-.63-.13-.41.45-.68,1.33-.63a3.8,3.8,0,0,1,2.16.67,25.73,25.73,0,0,1,2.1,1.5A8.46,8.46,0,0,0,366,92.21a1.83,1.83,0,0,1,1.66.91c1.05,1.48,2.12,2.94,4.1,3.32.49.09.64.55.46,1.13-.83,2.68-.38,4.63,1.65,7.3a6.79,6.79,0,0,0,.83-3,5.45,5.45,0,0,1,.71-2.17,3.18,3.18,0,0,1,5.47-.57,5.21,5.21,0,0,1,1,1.73,1.41,1.41,0,0,0,.93,1,11.34,11.34,0,0,1,4,2.14,1.55,1.55,0,0,0,1.87-.11,10.79,10.79,0,0,0,2.29-2.55c.5-.66.39-1.48.71-2.15.46-.95-.68-1.51-.51-2.35,2.56-.2,3.47-.65,4.94-1.93a3.54,3.54,0,0,0,1-3.9,5.63,5.63,0,0,0-.33-.79,7.74,7.74,0,0,1-.72-4.18,3.21,3.21,0,0,0-2-3.51A3.57,3.57,0,0,1,392,80.12a1.75,1.75,0,0,0-1.36-1.35c-1.3-.24-2.14.55-2.85,1.51s.07,1.29.52,1.91a20.89,20.89,0,0,0,2.87,3.9,2.89,2.89,0,0,1,.79,1.79,41.87,41.87,0,0,1,.09,4.59,3.24,3.24,0,0,1-1.3,2.46.83.83,0,0,1-1.23-.22,7.07,7.07,0,0,1-.54-1.32,58.48,58.48,0,0,0-4-9.47c-.77-1.63-1.89-3.15-3.92-3.49a3.7,3.7,0,0,1-2.33-1.55,5.93,5.93,0,0,0-3.61-2.16c-5.79-1.24-11-.35-15.38,4-1.29,1.28-2.54,2.61-3.77,3.95a3.82,3.82,0,0,1-4.3,1.34c-2.33-.66-4.13.48-5.16,2.59a5.59,5.59,0,0,0-.36,2.24,8.21,8.21,0,0,1-.72,3.91C344.29,96.53,344.6,98.34,345.94,100.61ZM407.46,116c1.95,1.44,4.13,2.39,6.1,3.71a29.83,29.83,0,0,1,9.81,11.38c2.69,5.15,3.84,10.8,4.86,16.43a142.67,142.67,0,0,1,2,19.7c.13,3.16.29,6.32.61,9.46a76.83,76.83,0,0,1,.55,8.88c0,2.22.46,4.37.5,6.57a3.74,3.74,0,0,0,.45,1.34.56.56,0,0,0,.44.26.59.59,0,0,0,.61-.48c.07-.37.11-.75.13-1.13.18-2.39.35-4.78.53-7.16.53-7.06,1.09-14.13,1.6-21.19.16-2.2.18-4.4.32-6.6.5-7.36,1-14.71,1.55-22.06.39-5.06.71-10.12,1.56-15.13.53-3.11.95-6.24,1.53-9.34.44-2.35,1-4.68,1.6-7A20.29,20.29,0,0,1,448.8,93.4c.33-.29.84-.51.65-1.11-1.24,0-2.49-.07-3.73,0s-2.45.36-3.69.48a73.06,73.06,0,0,0-17.92,3.7c-5,1.81-9.21,4.62-11.94,9.34A58.9,58.9,0,0,0,407.46,116ZM238.17,161.44c.78-.17.56-.8.86-1.11s.78-.85,1.21-1.23c2.59-2.27,5.1-4.66,7.84-6.73a5.75,5.75,0,0,0,2.49-5.3,15.67,15.67,0,0,0-3.75-10.53,14,14,0,0,0-3.24-2.8,54.26,54.26,0,0,0-6.24-3.49c-4.42-1.94-9.15-2.73-13.76-4A79.88,79.88,0,0,0,208.85,124a56.6,56.6,0,0,0-8.87-.25,17.93,17.93,0,0,0-2.28.28,1.38,1.38,0,0,0-1.09,1.19,7.7,7.7,0,0,0-.11,1.14c-.07,3.25-.18,6.51-.18,9.76q0,22.7.1,45.4c0,2.39,0,4.79,0,7.18,0,1.58.19,1.69,1.79,2a19,19,0,0,0,4,0l27.29-.07c5.64,0,11.28.17,16.92,0,2.75-.11,4.29-1.54,4.32-4.28,0-1.34.08-2.67.1-4,0-.94.13-1.9-1.12-2.34-.64-.23-.84-1-.9-1.7a4,4,0,0,1,0-1.42c.26-.87-.22-1.2-.86-1.51L240,171.59c-.42-.2-.82-.53-1.35-.29a3.61,3.61,0,0,0-.26,1.91c0,2.2,0,4.41,0,6.61,0,1.24-.16,2.48-.25,3.72a1.49,1.49,0,0,1-1,1.29,4.49,4.49,0,0,1-1.93.48c-1.72,0-3.45,0-5.17,0-8.7-.09-17.41-.23-26.11-.26-3.15,0-3-.4-3.28-3.29a7.91,7.91,0,0,1,0-.86c.05-1.82.24-3.64.14-5.45-.4-6.78,0-13.57-.14-20.36-.1-6.12,0-12.24,0-18.37a4,4,0,0,1,.06-.85,1.09,1.09,0,0,1,1.18-1c.77,0,1.53.06,2.3.07,1.21,0,2.41,0,3.71,0-.14-.24-.18-.38-.24-.39a10.23,10.23,0,0,0-1.34-.29,6.77,6.77,0,0,1-3.87-1.74c-1.93-1.79-1.87-3.78.19-5.33a9.74,9.74,0,0,1,10.58-.06,5.55,5.55,0,0,1,.86.76,3.1,3.1,0,0,1,.28,4,4.76,4.76,0,0,1-2,1.63,9.49,9.49,0,0,1-3.3.92c-.24,0-.57.07-.59.43s.31.42.56.45c3.23.39,6.45.82,9.69,1.13a39.45,39.45,0,0,1,9.47,2.21c5.12,1.82,8.27,5.4,9,10.85.36,2.65.48,5.34.63,8A36.59,36.59,0,0,0,238.17,161.44ZM380.7,189a35.23,35.23,0,0,0,6.84,3.28,2,2,0,0,0,2.53-.74,7.61,7.61,0,0,0,1.16-2,30.61,30.61,0,0,0,1.23-4.12,14.94,14.94,0,0,1,4.11-7.75c.34-.34.65-.71,1-1.05a18.1,18.1,0,0,0,4.86-10.47,85.68,85.68,0,0,1,3.18-13.09.47.47,0,0,1,.65-.34c.22.12.51.41.5.61a7.52,7.52,0,0,1-.3,2,90.5,90.5,0,0,0-2.87,12.59,17.8,17.8,0,0,1-3.51,8.38c-1,1.19-2,2.28-3,3.46a10,10,0,0,0-2.16,3.35c-.94,3-1.36,6.17-2.95,9a.39.39,0,0,0,.46.51c.47-.08.93-.21,1.41-.26a.57.57,0,0,1,.46.22.53.53,0,0,1-.24.73,10.71,10.71,0,0,1-7,.55,25.34,25.34,0,0,0-8.81-.83,103.36,103.36,0,0,0-12.44,2,71.71,71.71,0,0,1-8.5,1.33,33,33,0,0,1-9.7-.81,42.06,42.06,0,0,0-9.4-.85,13.11,13.11,0,0,0-2,.16c-1,.19-1.31.64-1.4,1.79-.06.67-.12,1.34-.17,2-.12,1.43-.07,1.5,1.26,1.58,3.06.17,6.13.28,9.18.52a74.42,74.42,0,0,0,10,0c5.83-.34,11.64-1.07,17.46-1.38,5.16-.28,10.3-.74,15.45-1.17,3.63-.3,7.26-.56,10.89-.86a17.48,17.48,0,0,0,2.26-.35,4.73,4.73,0,0,0,3.16-2.26,33.06,33.06,0,0,0,3.34-7,76,76,0,0,0,3.54-20.58c.07-1.43,0-2.86.23-4.29.27-2,.44-4,.75-6a2.75,2.75,0,0,0-1.15-3c-.39-.27-.74-.61-1.11-.91a5,5,0,0,1-1.47-2.08c0-.09.13-.29.23-.41s.18-.05.27-.05a2,2,0,0,1,1.23.66c1.86,1.66,3.79,3.21,5.81,4.67a12.29,12.29,0,0,1,4.06,4.76,8.64,8.64,0,0,0,.87,1.49c.37.5.18,1.33.93,1.62.35-8.82-8.16-17.6-14.37-18.51-.57,1.14-.43,2.42-.66,3.62a4.41,4.41,0,0,1-2.86,3.63c-1.6.63-3.13,1.42-4.71,2.09a10.49,10.49,0,0,0-3.09,2,14.11,14.11,0,0,0-3.77,6.32,71,71,0,0,0-2,10.7c-.41,2.65-.38,5.35-1.08,8a5.81,5.81,0,0,1-4.56,4.64A5.67,5.67,0,0,0,380.7,189Zm99.63-84.1a13.19,13.19,0,0,0,3.27-7.19c.41-2.93-.77-4.8-3.64-5.54A40.46,40.46,0,0,0,470.3,91c-2.3,0-4.6.07-6.9.14a44.27,44.27,0,0,0-9.6,1.55,8.91,8.91,0,0,0-3.8,1.93,19.88,19.88,0,0,0-6.8,11.35c-.46,2.44-1,4.86-1.48,7.29a144.86,144.86,0,0,0-2.37,17.35c-.65,7.82-1.15,15.66-1.67,23.49-.38,5.63-.67,11.27-1,16.9-.15,2.49-.26,5-.5,7.45-.43,4.48-.86,9-1,13.45,0,.55-.24,1.15.35,1.7,1.25-.12,2.58-.26,3.92-.38s2.67-.21,4-.31c.91-1.29.38-2.78.51-4.16.4-4.48.6-9,.92-13.46.24-3.34.48-6.69.82-10,.42-4.19,1.09-8.36,1.35-12.55.36-5.84,1.39-11.59,2.16-17.37,1-7.58,2.2-15.14,3.34-22.71.28-1.89.63-3.77,1-5.66a8.29,8.29,0,0,1,5.17-6.43c5.67-2.45,11.52-4.14,17.79-3.93a21.53,21.53,0,0,1,2.58.21,2.29,2.29,0,0,1,2.14,2.29,12.15,12.15,0,0,1-.17,2.57C480.86,102.67,480.59,103.68,480.33,104.87ZM335.64,212.56A11.45,11.45,0,0,0,335,208a7.24,7.24,0,0,0-3.15-4.29c-3.76-2.31-9.49-1.73-12.29,2.3-2.48,3.57-3.49,7.63-4.13,11.78a98.05,98.05,0,0,0-1,16.3,62.88,62.88,0,0,1-.73,10.88,71.51,71.51,0,0,1-4.86,16.46,9.82,9.82,0,0,1-1.29,2.55c-1.47,1.74-1.68,3.78-1.77,5.91a112.89,112.89,0,0,1-.95,12.28,3.16,3.16,0,0,0,.52,2.16,11.66,11.66,0,0,0,5.43,4.51c2.47,1.19,4.41.53,5.76-1.91a23.86,23.86,0,0,0,2.53-8.19c1-6.63,2.07-13.24,2.58-19.93.38-5,1.22-9.87,1.47-14.85.2-4,.72-8,1.09-12a6.92,6.92,0,0,1,1.19-3.48,2.54,2.54,0,0,1,2-1.35c1.64-.1,2.74-1.12,3.82-2.28C334.3,221.49,335.63,217.54,335.64,212.56Zm-113.23-40A42,42,0,0,1,236,177.46c.47.27.85,0,.86-.64,0-1.72,0-3.45,0-5.17a1.65,1.65,0,0,0-1.13-1.76,11.83,11.83,0,0,1-3.28-1.74.83.83,0,0,1,0-1.25c1.15-.85,2.32-1.69,3.51-2.48a1.52,1.52,0,0,0,.77-1.41c-.06-1.82-.14-3.63-.17-5.45a49.72,49.72,0,0,0-1-9.4,9.39,9.39,0,0,0-3.37-5.52,19.16,19.16,0,0,0-8-3.6,136,136,0,0,0-20.41-2.93c-1.85-.13-1.85-.14-1.8,1.8a2.29,2.29,0,0,1,0,.57c-.48,1.87.39,3.1,1.83,4.15a17.32,17.32,0,0,1,3.56,3.72c.59.78.58,2,1.83,2.29.48-.83,0-1.68,0-2.52,0-.33.62-.64.9-.44a10.44,10.44,0,0,1,1.1.91,25.57,25.57,0,0,1,6,9.68,22.3,22.3,0,0,0,2.62,5.39,13.35,13.35,0,0,1,2.24,5.53A32.22,32.22,0,0,1,222.4,172.59ZM229,258.88c1.07-1.31,1.22-2.31.15-3.48a14.56,14.56,0,0,1-1.84-2.89,5.9,5.9,0,0,1,0-6.5c.58-.88,1.08-1.8,1.65-2.69,1-1.53,2-3,3-4.57.32-.51.08-1-.5-1a146.31,146.31,0,0,0-16,.87,69.27,69.27,0,0,1-9.44.73c-6.61-.15-13.19.21-19.79.53-6.3.31-12.6.71-18.92.64-.51,0-1.14-.2-1.65.55,1.15,1.42,2.3,3,2.12,5,9,1.2,17.76,3.17,26,7a12.35,12.35,0,0,1,.77-1.65,8.49,8.49,0,0,1,5.1-3.94,12.79,12.79,0,0,1,9.46,1.24,25.1,25.1,0,0,1,6.44,5.21,46.58,46.58,0,0,1,4.44,5.61A9.23,9.23,0,0,0,221,261c.5.54,1,.55,1.41-.05a12.33,12.33,0,0,1,2.39-2.46,2.46,2.46,0,0,1,3.16-.24Zm83.49-19.18c0-.29,0-.57,0-.86,0-1.47-.14-1.66-1.62-1.66-2.2,0-4.41,0-6.61,0a11.84,11.84,0,0,1-4.21-.77c-1.8-.63-3.58-1.32-5.35-2.05a20.13,20.13,0,0,0-6.93-1.65,38.25,38.25,0,0,1-4-.48c-1.8-.27-3.58-.62-5.38-.86s-2,0-2.59,1.53c-1.14,3-2.22,6.11-3.33,9.16,0,.09-.06.18-.08.28-.22.82-.06,1.25.8,1.56,4.43,1.62,8.29,4.33,12.45,6.47,4.42,2.27,8.68,4.87,13,7.32a14.77,14.77,0,0,0,6.78,2.11c2.27.09,2.09.6,2.94-2,.18-.54.43-1.06.61-1.61A64.05,64.05,0,0,0,312.53,239.7Zm-18.72-42.22c1.18-1.14,2.25-2.22,3.37-3.23a9.44,9.44,0,0,1,4-2.26.66.66,0,0,1,.74.27.46.46,0,0,1-.18.7c-1.12.74-2.28,1.41-3.36,2.2A9.09,9.09,0,0,0,295,199a3.63,3.63,0,0,0,1.92,4.8,3.22,3.22,0,0,0,2.22.36,13.17,13.17,0,0,1,1.4-.31c1.08-.16,1.61.34,1.16,1.23a2.42,2.42,0,0,0,.39,2.87,4.1,4.1,0,0,0,2.52,1.73,13.8,13.8,0,0,0,5.7.32,16.07,16.07,0,0,1,4.56-.33,1.4,1.4,0,0,0,1.54-1c.5-1,1.08-2,1.63-3a10.22,10.22,0,0,1,4.88-4.27,16.2,16.2,0,0,1,3.54-1.12,22,22,0,0,1,5.7-.5,1,1,0,0,0,1.08-.73,9,9,0,0,0-.4-5.57,10.59,10.59,0,0,0-1.11.09,15.17,15.17,0,0,1-9.21-1.36c-3.13-1.42-6.31-2.75-9.38-4.31a26.35,26.35,0,0,0-4-1.6,8.18,8.18,0,0,0-4.5-.55,49.35,49.35,0,0,0-5.24,1.48,10.64,10.64,0,0,0-5.56,4.35C292.71,193.47,292.31,195.44,293.81,197.48ZM421.32,286.9a8.67,8.67,0,0,0-.05,1.15q.58,6.57,1.18,13.13c.08.89.31,1.11,1.32,1,5.49-.83,11.06-.7,16.55-1.57a52.24,52.24,0,0,1,7.42-.62,96.69,96.69,0,0,0,12.53-1.33,4.58,4.58,0,0,0,3-1.3c-3.76-1.52-6.71-4.09-9.69-6.63a43.92,43.92,0,0,0-11.12-6.92c-3.39-1.47-6.84-3-9.72-5.42a2.8,2.8,0,0,0-.84-.3c-.69,1.82-1.4,3.59-2,5.39a3.54,3.54,0,0,1-2.6,2.42c-.55.14-1.1.28-1.66.37C424.19,286.45,422.79,286.66,421.32,286.9ZM196.7,109l-23.93-.27c-5.06-.05-10.13-.24-15.18-.07-4.4.14-8.79-.08-13.19-.06-3.63,0-7.25.13-10.88.16a5.57,5.57,0,0,0-2.51.48,1.94,1.94,0,0,0-1.14,1.55,1.6,1.6,0,0,0,1.05,1.56,4.54,4.54,0,0,0,2.18.63c1.05,0,2.11.07,3.16.05,2.87,0,5.75-.16,8.62-.14,7.75,0,15.51.18,23.26.19,10.15,0,20.3-.07,30.46-.09,9.38,0,18.75,0,28.13,0,8.24,0,16.47,0,24.71-.06,2.1,0,4.21.08,6.31.09a5.68,5.68,0,0,0,3-.8,1.55,1.55,0,0,0,.17-2.64,3.75,3.75,0,0,0-2.41-.8c-3.15-.08-6.31-.17-9.46-.15-3.34,0-6.68.18-10,.19-7.93,0-15.86-.06-23.8,0C208.83,108.78,202.42,108.9,196.7,109Zm73.64,140.52a48.08,48.08,0,0,0-2.6,8.53,1.86,1.86,0,0,0,.91,2.34c2.76,1.7,5.45,3.53,8.13,5.36,5.2,3.56,10.65,6.74,15.67,10.56q3.08,2.34,6.27,4.54a37,37,0,0,0,3.46,2,.75.75,0,0,0,1.07-.58,5.37,5.37,0,0,0,.17-.84c.37-4.09.7-8.19.72-12.31a1.69,1.69,0,0,0-.94-1.61c-2.14-1.26-4.23-2.59-6.4-3.79q-9.28-5.12-18.6-10.15C275.6,252.14,273,250.83,270.33,249.49ZM210.84,148.15c-.13,1-.22,1.51-.25,2-.08,1.14-.13,2.28-.22,3.42,0,.15-.24.43-.33.41a2.46,2.46,0,0,1-.77-.31c-.07,0-.11-.16-.13-.25-.51-2.29-1.85-4.17-3-6.17a16.28,16.28,0,0,0-2.85-3.57c-.24-.24-.5-.59-.95-.47s-.44.55-.48.91a5.25,5.25,0,0,0,0,.57c0,3.91.18,7.83.12,11.74-.08,4.87.21,9.75,0,14.62-.13,2.38.06,4.77.1,7.16a.78.78,0,0,0,.89.86h10.34l5.74,0c.49,0,1,0,1.17-.58a16.35,16.35,0,0,0,1-4.11,31.27,31.27,0,0,0-.12-4c-.3-2.76-.74-5.49-2.4-7.87a24.76,24.76,0,0,1-2.81-5.94A24.51,24.51,0,0,0,210.84,148.15Zm33.34,54.66a24.52,24.52,0,0,0-3.65-4.07,1.66,1.66,0,0,0-1-.39c-1.23,0-2.46,0-3.69,0-2.57,0-5.15.13-7.72.11-4.49,0-9-.19-13.47-.21-5.74,0-11.48,0-17.23,0l-23.26.06c-3.91,0-7.82.06-11.73.06-3.42,0-6.84-.06-10.26-.08a1.38,1.38,0,0,0-.82.19,17.59,17.59,0,0,0-1.46,1.37c-.54.54-1.1,1.07-1.59,1.66s-1.09.81-.91,1.8l95.83-.22A4.5,4.5,0,0,0,244.19,202.81ZM306,154.53c.61,1.3,2,1.75,1.78,3.15,0,.17.3.5.53.58a29.5,29.5,0,0,0,3.24,1.12,14,14,0,0,0,6.8.46.65.65,0,0,1,.84.53.79.79,0,0,1-.51.9,4.22,4.22,0,0,1-2.23.41,20.12,20.12,0,0,1-4.81-.71c-.52-.16-1-.47-1.73.07a3.77,3.77,0,0,1-1,3.3,5.88,5.88,0,0,1-8.24-.31,3.09,3.09,0,0,1-.6-3.46c.13-.3.57-.52.27-1-.17,0-.4-.07-.52,0a4.33,4.33,0,0,0-1.42,6.19,8.68,8.68,0,0,0,5.65,4.07,49.41,49.41,0,0,0,9.34,1.41,41.47,41.47,0,0,1,9,1.67,2.64,2.64,0,0,1,1.69,1c1.26,1.87,3.42,2.34,5.21,3.41a.82.82,0,0,0,1-.18,9.85,9.85,0,0,0,3.19-6.83,1.6,1.6,0,0,0-1.05-1.81,9.38,9.38,0,0,1-4.44-3.91c-.68-1-1.45-2-2.18-3a23.31,23.31,0,0,0-7.71-7.14A12.09,12.09,0,0,0,306,154.53Zm114.52,40.53c4,.32,3.8.51,4.17-3.6a21,21,0,0,1,.75-5.08,28.24,28.24,0,0,0,1.3-8.76,31.54,31.54,0,0,1,.77-7.4,23.07,23.07,0,0,0,1-5.63,97.6,97.6,0,0,0-1-12.57,114.35,114.35,0,0,0-3-14,31.48,31.48,0,0,0-7.83-14.09,22.91,22.91,0,0,0-7.35-5.36,2.3,2.3,0,0,0-1.92-.26c-2.52,1.15-5.1,2.21-6.9,4.48a1,1,0,0,0-.17,1.3c.32.46.47,1.06,1.24,1.38a15.78,15.78,0,0,1,3.09-1.72A8.86,8.86,0,0,1,413.5,125a22.52,22.52,0,0,1,4,4.11c3.26,4.17,5,9,6.12,14.08a37,37,0,0,1,.52,13.13c-.2,1.51-.31,3-.41,4.57-.42,6.49-.91,13-1.21,19.46C422.27,185.35,422,190.28,420.54,195.06Zm-15.28,1.66c1.8.29,3.57-.34,5.36-.33a2.79,2.79,0,0,0,2.43-1.23,13.81,13.81,0,0,0,1.2-1.59,38.25,38.25,0,0,0,3.58-9.34c.95-4.19,1.36-8.5,2.83-12.57a3.81,3.81,0,0,0,.21-1.13,15.84,15.84,0,0,0-6-13.6c-.59-.48-1-.35-1.18.38-.32,1.69-.53,3.4-.9,5.08-.43,2,.06,4-.2,6-.41,3-.53,6.09-1,9.13a47,47,0,0,1-5.53,17A3.29,3.29,0,0,0,405.27,196.72Zm-40.35-11.31c1.7.05,3.41.09,5.12.16,1.34.06,1.58,0,1.69-1.28a39.31,39.31,0,0,1,2.06-8.63c.59-1.83,1-3.69,1.46-5.55s.74-3.75,1.23-5.6c1.12-4.16,2.28-8.3,4.61-12,1.48-2.34,2.91-4.72,4.37-7.08a97.54,97.54,0,0,1,10.51-14c1.15-1.28,2.32-2.55,3.44-3.85a1.11,1.11,0,0,0,.34-1.28c-.61-1.43-1.19-1.56-2.22-.4-.45.5-.89,1-1.31,1.53-3.14,4-6.35,7.91-9.2,12.12a115.42,115.42,0,0,1-7.52,9.77A61.65,61.65,0,0,0,372.18,161a36.51,36.51,0,0,0-3.08,9.83,56.11,56.11,0,0,1-3.36,11.85A4.91,4.91,0,0,0,364.91,185.41Zm31.36-65.33c-1.69.57-2.23,2-3.26,3a42.27,42.27,0,0,0-8.62,11.37,11.11,11.11,0,0,1-1,1.43c-2.34,3.15-4.52,6.41-6.63,9.72a55.28,55.28,0,0,1-3.67,5.13A38.91,38.91,0,0,0,365,169.16c-.67,4-1.52,7.88-3.6,11.44A53.53,53.53,0,0,0,359,185.8a1.45,1.45,0,0,0-.12,1.41c.32.25.69,0,1-.07.64-.18,1.27-.42,1.9-.66a2.88,2.88,0,0,0,1.73-1.75,75.77,75.77,0,0,0,4.3-14.56,41.92,41.92,0,0,1,2.11-7.44,61.33,61.33,0,0,1,5.29-9.82,34.57,34.57,0,0,1,2.64-3.75c2.29-2.82,4.6-5.64,6.69-8.61,1.71-2.43,3.39-4.88,5.21-7.22,2.41-3.09,4.94-6.1,7.44-9.12a1.47,1.47,0,0,0,.22-2A20.14,20.14,0,0,1,396.27,120.08Zm-14.35,71.5c-4.06-2.6-6.71-3.73-10.77-4.29-3.32-.46-6.64-.65-9.82.94a31.14,31.14,0,0,1-4.59,1.56,18.56,18.56,0,0,1-10.16.36,91.76,91.76,0,0,0-9.8-2.08,12.64,12.64,0,0,0-5.09.32,9.51,9.51,0,0,0-4.54,2.86c-.28.31-.19.86.15.93a10.07,10.07,0,0,0,4.52-.34.6.6,0,0,0-.59-.5c-.57,0-1.13.16-1.69.15a.89.89,0,0,1-.66-.44.7.7,0,0,1,.44-.91,3.41,3.41,0,0,1,4.31,1.22,23.34,23.34,0,0,1,1.25,2.27,18,18,0,0,1,8.82-.33c1.79.29,3.6.52,5.37.9a31.94,31.94,0,0,0,6.55.59,51.84,51.84,0,0,0,11.06-1.47A72.75,72.75,0,0,1,381.92,191.58Zm-8.58-8.23a3.69,3.69,0,0,0,.66-.56,12.62,12.62,0,0,1,4.41-4.42,2.79,2.79,0,0,0,1.14-1.92,67.85,67.85,0,0,0,2-8.35,21.15,21.15,0,0,1,3.72-9.54,8.3,8.3,0,0,0,1.36-2.51,47.72,47.72,0,0,1,2.53-6.08c.19-.43.53-.91.47-1.31-.27-1.83.8-3.12,1.72-4.43A58.28,58.28,0,0,1,401,133.64c.63-.55,1.75-.86,1.77-1.69a5.58,5.58,0,0,0-1-2.32,12.07,12.07,0,0,0-.85-1.23c-.37.34-.66.57-.92.84a132.45,132.45,0,0,0-17.18,23.29,45.31,45.31,0,0,0-5.31,13.86,125,125,0,0,1-3.23,12.78C373.9,180.5,373.14,181.82,373.34,183.35Zm-139.1-16a8.54,8.54,0,0,0,1,.66c4.52,2,9.06,4,13.58,6.1,6.86,3.13,13.76,6.16,20.58,9.39,6.2,2.94,12.62,5.42,19,8.08,1,.41,2,.7,3,1,.39.14.5-.16.6-.42a.55.55,0,0,0-.29-.72,6.85,6.85,0,0,0-1.08-.37,64.53,64.53,0,0,1-12.26-5.49c-5.5-3.08-11-6.22-16.44-9.34A113.69,113.69,0,0,1,247.69,167c-1.8-1.42-3.62-2.81-5.45-4.19-1-.78-1.16-.82-2.25,0C238.09,164.26,236.25,165.76,234.24,167.34Zm188.16-10.5c.27-1.62.49-2.56.56-3.51a22.26,22.26,0,0,0,0-3.16c-.44-6-2.39-11.2-7.63-14.66-2.94-1.94-6.11-3.12-9.72-2.26a1.42,1.42,0,0,0,0,.33c.44,2.73,1.64,5.3,1.63,8.13,0,.64.54,1,1,1.28,1.41.81,2.83,1.59,4.26,2.36a17.55,17.55,0,0,1,3.93,2.85,28,28,0,0,1,4.42,6ZM405.65,115c.24-.2.44-.29.51-.44.32-.69.58-1.41.89-2.11,2.15-4.91,4.33-9.8,8.62-13.34.05,0,0-.18.05-.35a2.85,2.85,0,0,0-.74-.12c-2.09.21-4.19.36-6.27.68a32.2,32.2,0,0,0-5,1.11,7.27,7.27,0,0,0-4.79,4.22c-.24.6-.77,1.21-.47,1.84.16.33.78.44,1.19.66a2.34,2.34,0,0,1,1,1.36,17.32,17.32,0,0,1,.75,2.46,4.22,4.22,0,0,0,2.36,3ZM239.29,303a7,7,0,0,0,4,.91,1.07,1.07,0,0,0,1-.84c.33-1.1.76-2.17,1-3.29.56-2.81,1.05-5.63,1.53-8.46.85-5,2.19-9.89,3.42-14.8.17-.67.09-1.09-.61-1.33s-1.24-.48-1.87-.7a.73.73,0,0,0-1.08.56c-.74,4.06-2.54,7.81-3.45,11.82-.82,3.63-2.18,7.12-2.82,10.8C240.12,299.51,239.68,301.27,239.29,303ZM371.8,133.13a3.14,3.14,0,0,0-1.15,1.7,39.76,39.76,0,0,0-2,7.17c-.44,2.73-.9,5.47-1.28,8.21a43.86,43.86,0,0,1-5,14.86,35.12,35.12,0,0,0-3.78,10.73c-.69,3.94-1.32,7.91-3,11.61a1.14,1.14,0,0,0-.14.55.58.58,0,0,0,.28.42.68.68,0,0,0,.55-.07c.22-.15.49-.36.54-.59a34.61,34.61,0,0,1,2.78-6.88c1.48-3.09,3-6.19,3.51-9.65a53.37,53.37,0,0,1,.92-5.37,44.08,44.08,0,0,1,5.22-12.05,4.89,4.89,0,0,0,.81-2.66,17.36,17.36,0,0,1,.39-4q1-4.32,1.88-8.67A7.63,7.63,0,0,0,371.8,133.13Zm7.6,55.11a7.06,7.06,0,0,1,4.82-3.55A4.76,4.76,0,0,0,388,180.5c.2-1.23.46-2.45.57-3.68A88.65,88.65,0,0,1,391,162.17a4,4,0,0,0,.35-2.1A16.51,16.51,0,0,0,387,169.9c-.28,4.25-2.19,7.41-6.17,9.19a10.1,10.1,0,0,0-1.53.77,11.34,11.34,0,0,0-5,6.49A31.85,31.85,0,0,1,379.4,188.24ZM368.3,136.58a18.33,18.33,0,0,0-2.23,4.45,59.65,59.65,0,0,0-2.68,12,23,23,0,0,1-4,10.95,24.4,24.4,0,0,0-4.13,10,35.26,35.26,0,0,1-4.18,11.81,20,20,0,0,0-1.11,2.33c-.29.67,0,1.1.74,1.12.38,0,.77,0,1.15,0a2.31,2.31,0,0,0,2.3-1.72A57.54,57.54,0,0,0,357,177c.68-3.85,1.33-7.75,3.47-11.15a42.15,42.15,0,0,0,3.34-7.29,31.16,31.16,0,0,0,1.82-6.63C366.38,146.92,367.35,142,368.3,136.58Zm20.54,18.49a2.39,2.39,0,0,0,1.69-1,37.58,37.58,0,0,1,10.54-8.23c1.27-.63,2.37-1.6,3.62-2.29a1.8,1.8,0,0,0,.92-2.15,44.18,44.18,0,0,0-1.81-7.44c-3,1.49-4.45,2.95-10.59,10.63.68-.41.78-1.42,1.63-1.67.52-.15,1-.9,1.52-.47s-.12,1-.42,1.37q-1.47,1.93-3,3.8A22.33,22.33,0,0,0,388.84,155.07ZM148.69,198.55a37.2,37.2,0,0,0-5.1-.13,62.37,62.37,0,0,1-6.28-.1c-1.85,0-2-.09-2.51,1.52a14.31,14.31,0,0,1-2.7,5.63c-.55.64-.23,1.11.69,1.33,2.36.57,4.76.31,7.14.39a4,4,0,0,0,3-1.4,49.91,49.91,0,0,0,4.34-5C147.79,200.18,148.61,199.72,148.69,198.55ZM350,183.77a1.79,1.79,0,0,0,1-1.14c.47-1,1.43-2.16,1-3.14-.56-1.18-2-1.68-3.29-2.11a3.94,3.94,0,0,0-.84-.17,9.42,9.42,0,0,1-6.24-3.09,8.26,8.26,0,0,0-4.14-2.46c-1.92-.46-2.28-.27-3,1.55l-1,2.66a19.07,19.07,0,0,0,8.4,4.86C344.79,181.42,347.67,182.08,350,183.77Zm-98.08,92c-2.88,9.4-4.09,18.79-6.1,28.26,1.09-.34,1.92-.57,2.72-.85a2.45,2.45,0,0,0,1.81-2c.21-1.32.55-2.62.68-3.94a99.68,99.68,0,0,1,2.74-14.9c.48-1.91.93-3.83,1.42-5.86Zm-58.67-18.2a3,3,0,0,0-.63,2.79,16.31,16.31,0,0,0,1.81,4.81c1.39,2.17,2.7,4.4,4.22,6.47a39.45,39.45,0,0,0,13.8,12.26,69.78,69.78,0,0,0,13,5.15c2.38.66,4.82,1.1,7.24,1.64a1.14,1.14,0,0,0,.57,0c.26-.08.55-.22.51-.57,0-.18-.06-.42-.18-.51a1.48,1.48,0,0,0-.78-.3c-2.06,0-3.89-.87-5.8-1.45a62.18,62.18,0,0,1-18.28-8.67C201.16,273.69,195.57,266.75,193.28,257.52Zm209-130.36c.64,1.13,1.32,2.26,1.93,3.43a1.66,1.66,0,0,0,2,1.06c3.81-.67,7.09.73,10.14,2.85.62.43,1.17,1,1.82,1.38s.95,1.31,2.07,1.26a22.77,22.77,0,0,0-8.1-11.15C409.64,124.25,406.11,123.45,402.26,127.17ZM291,194.4c-10-4.13-20.07-8.27-30.08-13.06-.11,2.59-.69,4.89.07,7.21,1.73-.09,3.25-.82,4.88-.65a62,62,0,0,1,12,2.48c3.28,1,6.51,2.22,9.77,3.31A6.91,6.91,0,0,0,291,194.4Zm39.28-15.63c1,.79,1.42,1.16,1.88,1.49,2.18,1.55,4.63,2.83,6.5,4.68,2.66,2.63,5.92,3.22,9.37,3.93.45-1,.84-2,1.26-3a.87.87,0,0,0-.37-1.21,10.58,10.58,0,0,0-3.08-1.5c-1.38-.4-2.75-.83-4.15-1.11a16.09,16.09,0,0,1-4.52-1.76,28.84,28.84,0,0,1-4-2.81.94.94,0,0,0-1.28.07C331.43,177.95,331,178.26,330.24,178.78Zm-101.84,4.88c2.49,0,5.05.07,7.61.08.42,0,.66-.29.71-.73a11.74,11.74,0,0,1,.17-1.42,2.65,2.65,0,0,0-1.51-3.08c-1-.57-2-1.16-3-1.63A46.86,46.86,0,0,0,223.7,174a.81.81,0,0,0-1,.35c-.14.25.31,1.13.62,1.2s.76.09,1.14.14a3,3,0,0,1,2.7,2.51C227.68,179.92,227.74,181.74,228.41,183.65Zm159-21.23c.24,0,.37,0,.41-.09a25.88,25.88,0,0,1,11-9.31c1.55-.73,3.12-1.43,4.68-2.14a2.83,2.83,0,0,0,1.84-2.65c0-1.08.19-2.15.3-3.29-1.56.51-2.59,1.57-3.86,2.23a44,44,0,0,0-10.33,8.08C389.33,157.3,388.39,159.77,387.41,162.42Zm-34.56,15.51c.32-1.45.62-2.74.89-4.05.2-1-.14-1.48-1.06-1.57a9,9,0,0,0-3.12.33,5.79,5.79,0,0,1-5.14-1,19.06,19.06,0,0,1-2.78-2.47,5.57,5.57,0,0,0-3.35-2.07,8.22,8.22,0,0,0-4,.12c.29.8.62,1.58.85,2.39a.94.94,0,0,0,1,.75,8.09,8.09,0,0,1,5.93,2.48c1.77,1.7,3.65,3,6.22,3.15C350,176.06,351.28,177.19,352.85,177.94Zm-46.08,83.62c-4.3-.42-5.9-.83-9-2.71-6.47-3.88-13-7.65-19.68-11.14-1.86-1-3.77-1.84-5.65-2.77-.47-.23-.72,0-.92.37a.7.7,0,0,0,.3,1,19.76,19.76,0,0,0,1.74,1c5.09,2.63,10.22,5.16,15.25,7.89a130.47,130.47,0,0,1,12.66,7.25c.94.65,2,1.12,3,1.69a.85.85,0,0,0,1.22-.29A4.75,4.75,0,0,0,306.77,261.56ZM233.47,318a2.73,2.73,0,0,0-2,0,45,45,0,0,1-9.46,2.25,45.52,45.52,0,0,1-15.14-.34,12.19,12.19,0,0,1-6.39-3,4.7,4.7,0,0,0-.89-.71c-.09-.05-.32.09-.47.18a.33.33,0,0,0-.11.25,1.78,1.78,0,0,0,.68,1.52,26,26,0,0,0,3.81,2.54,23.79,23.79,0,0,0,11.21,1.91,49.41,49.41,0,0,0,11.28-2C228.36,320,230.65,319,233.47,318ZM244,273.08a2.65,2.65,0,0,0-.82,1.81,9.37,9.37,0,0,1-.76,2.75c-1.59,4.6-3.18,9.2-4.85,13.76a2.65,2.65,0,0,0,.15,2.66,4.86,4.86,0,0,1,.29,4.66c-.21.53-.39,1.07-.62,1.6a1.67,1.67,0,0,0,.11,1.64c.15.23.78-.49,1-1.17s.34-1.29.47-1.95a169.51,169.51,0,0,1,5.09-19.06c.54-1.73,1-3.48,1.54-5.22.23-.74-.2-1-.78-1.26C244.57,273.21,244.3,273.15,244,273.08Zm-36-140a6.4,6.4,0,0,0,4.69-1.24,2,2,0,0,0,0-3.58,8.43,8.43,0,0,0-6-1.47,5.89,5.89,0,0,0-3.4,1.36c-1.49,1.28-1.45,2.54.15,3.76A6.53,6.53,0,0,0,208,133.1ZM430.77,194c-.26-2.66-.55-5-.72-7.41-.28-4-.48-8-.74-12a6.16,6.16,0,0,0-.25-1.4c-.07-.21.35-.75-.48-.64a18,18,0,0,0-.2,4.23,29.57,29.57,0,0,1-1.31,9.88c-.86,2.57-.7,5.22-1.1,8Zm-196.19,66.8a5.81,5.81,0,0,0-.58.85c-.8,1.93-2,3.69-2.55,5.74-.48,1.67-1.77,2.93-2.88,4.25-.26.31-.49.63-.28,1,.48.91.78,2,2,2.5,1.85-3.33,3.78-6.62,5.53-10C237.36,262.21,237.3,262.53,234.58,260.79ZM304.4,266c-.06-.16-.07-.41-.18-.48-1.07-.63-2.16-1.21-3.23-1.84-2.56-1.5-5.08-3-7.66-4.52-3-1.71-6-3.39-9-5-4.3-2.28-8.65-4.49-13-6.74-.22-.12-.37-.14-.48.08s-.15.58.13.74c1.15.68,2.3,1.36,3.49,2,4.75,2.46,9.54,4.84,14.26,7.37,4.46,2.39,8.84,4.92,13.25,7.4.67.37,1.31.78,2,1.17C304.12,266.28,304.28,266.22,304.4,266Zm-73.24,9.91a8,8,0,0,0,2.61,1.86.71.71,0,0,0,1.14-.41,33.18,33.18,0,0,1,3.37-6.64c.64-1,.88-1.87,0-2.84a1.88,1.88,0,0,1,0-2.61,2.72,2.72,0,0,0,.75-1.51.63.63,0,0,0-.2-.48c-.25-.15-.6-.16-.71.15-1.26,3.45-3.38,6.42-5.24,9.54C232.29,274,231.73,275,231.16,275.92Zm189.28-97.43c-.34,1.95-.64,3.91-1,5.85a28.22,28.22,0,0,1-1.86,6c-.81,1.78-1.63,3.55-2.46,5.34a7.07,7.07,0,0,0,2.72,0,1.14,1.14,0,0,0,1.17-1A42.46,42.46,0,0,0,420.44,178.49Zm-35-17a1,1,0,0,0-.81.79c-.44,1.36-.94,2.71-1.25,4.1a71.57,71.57,0,0,1-2.21,9.16,4.92,4.92,0,0,0,0,1.36,8.18,8.18,0,0,0,3.9-5.55A36.34,36.34,0,0,0,385.47,161.53Zm13.86-39.83a36.2,36.2,0,0,1,3.1-2.47c1.18-.76,2.49-1.31,3.84-2a29.17,29.17,0,0,0-4.4-2.66c-1.46.58-2.35,1.85-3.47,2.84a4.14,4.14,0,0,0-1.4,1.76C398,119.76,398.43,120.92,399.33,121.7Zm-21.93,1.2c-1.5,1.31-2.89,2.46-4.19,3.69-.8.76-.73.8.31,1.77a7.86,7.86,0,0,1,1.08,1.3c.65.93,1.25,1.9,1.89,2.84.24.35.41.9,1.08.55,0-1.22,0-2.45,0-3.69a8.85,8.85,0,0,1,1.1-3.79,1.19,1.19,0,0,0-.24-1.31C378.13,123.9,377.86,123.51,377.4,122.9Zm-72.71,41.79a5.48,5.48,0,0,0,3.3-1.24,1.64,1.64,0,0,0-.13-2.7,5.65,5.65,0,0,0-4.61-1,3.23,3.23,0,0,0-1,.47,2,2,0,0,0-.22,3.36A3.8,3.8,0,0,0,304.69,164.69Zm-69.26,127c.17,0,.44,0,.49-.14a15.62,15.62,0,0,0,.82-1.81c1.18-3.22,2.27-6.48,3.53-9.67.84-2.13,1.39-4.34,2.06-6.52a4.12,4.12,0,0,0,.06-1.41c0-.13-.23-.28-.39-.37-.32-.2-.53,0-.68.26a2.21,2.21,0,0,0-.18.54c-1.85,6-3.63,12-6,17.88a1.76,1.76,0,0,0-.07.84C235.11,291.48,235.32,291.6,235.43,291.73Zm6.91-93.11c1.87,2.19,3.33,3.93,4.82,5.64a.51.51,0,0,0,.91-.11c.73-1.82,1.86-3.47,2.4-5.44C247.84,198.22,245.34,198.48,242.35,198.62ZM135.57,155.13h0c0,.48,0,1,0,1.43,0,2.19,0,2.19,2.22,2.19,1.37,0,1.77-.2,1.75-.89,0-1-1-.68-1.5-.94s-1-.14-1.19-.67a4.78,4.78,0,0,1,0-2.82c.18-.77.94-.86,1.57-1.06a4.37,4.37,0,0,0,.81-.28c.38-.21.37-.61.38-1a.59.59,0,0,0-.69-.67c-.76,0-1.53,0-2.29.13a1.07,1.07,0,0,0-1.06,1.12C135.56,152.83,135.57,154,135.57,155.13ZM390,93.13a1.09,1.09,0,0,0,.6-1.68,1.71,1.71,0,0,1-.19-1.83,2.88,2.88,0,0,0-.86-3.39,14.13,14.13,0,0,0-1.7-1.48c-.53-.36-.83-.7-.64-1.38a.62.62,0,0,0-.51-.85c-.28-.06-.59-.15-.79.13s0,.72.15,1c.54.87.47,2.19,1.52,2.64s1.08.87.73,1.75a1.7,1.7,0,0,0,.11,1.09C388.93,90.48,389.47,91.8,390,93.13ZM104.14,252.69c.47-2.57-.62-4.56-1.5-6.81a9.13,9.13,0,0,1-3.7,2.46C100.48,250.2,101.91,251.8,104.14,252.69Zm31.37-74.85h.13c0,.86,0,1.72,0,2.57s.49,1.33,1.43,1.39a4.14,4.14,0,0,0,.86,0c.52-.08,1.17.2,1.43-.57.16-.47-.18-.79-1.29-1-.57-.12-1.22-.2-1.39-.8a4.41,4.41,0,0,1,.14-3.06c.31-.69,1.07-.7,1.74-.76a.81.81,0,0,0,.52-.17,1.63,1.63,0,0,0,.33-.73.51.51,0,0,0-.4-.64,22.17,22.17,0,0,0-2.55,0,.82.82,0,0,0-.76.74C135.6,175.76,135.57,176.8,135.5,177.84ZM378.9,139.51c4.5-5.23,3.61-4.08,2.17-9.08,0-.13-.23-.21-.36-.31a5.72,5.72,0,0,0-.41,2.78c.23,1.24-.41,1.83-1.37,2.3,0,0,0,.18,0,.27C378.9,136.74,378.9,138,378.9,139.51ZM253.39,290l.26.15c1-3.12,2.11-6.24,3.12-9.38.41-1.25.72-2.54,1-3.83.06-.27-.23-.49-.55-.48s-.46,0-.54.08a1.93,1.93,0,0,0-.33.75Q254.87,283.62,253.39,290Zm-1.72,24.42c-.24-.32-.38-.35-.54-.23a16.42,16.42,0,0,1-9.9,2.93c-.32,0-.74-.07-.73.64C244.57,317.77,248.63,317.9,251.67,314.4Zm-11.54-43.77a30.84,30.84,0,0,0-3.75,7.07,1,1,0,0,0,0,.28c0,.37.25.47.53.51.6.09,1.16,0,1.38-.67.59-1.8,1.19-3.59,1.74-5.41A9.8,9.8,0,0,0,240.13,270.63ZM139.72,155.76v0c.29,0,.58,0,.86,0a1.22,1.22,0,0,0,1.11-1.39c0-.66-.53-.69-1-.74a18.7,18.7,0,0,0-2-.18,1,1,0,0,0-.69.38,1.23,1.23,0,0,0,.86,1.91C139.15,155.78,139.43,155.76,139.72,155.76Zm92.09,107a5.38,5.38,0,0,0,1.29-2.44c.24-.64-.87-2-1.58-2a.67.67,0,0,0-.43.25c-.85,1.05-.89,1.44-.28,2.48C231.13,261.67,231.47,262.23,231.81,262.79Zm20.42-83.62,1.3-.17a.29.29,0,0,0,.29-.39c0-.18-.07-.43-.19-.5a21.42,21.42,0,0,0-2.24-1.25.89.89,0,0,0-1.31.63c-.08.87.24,1.44.89,1.55C251.35,179.11,251.73,179.13,252.23,179.18Zm-113.06,0c.33,0,.8,0,1.27-.11.67-.09.95-.59.93-1.49,0-.65-.45-.74-.94-.76s-1.14,0-1.71,0c-1,0-1.07.15-1.11,1.23,0,.89.09,1.05.85,1.1ZM254,181.75a7.1,7.1,0,0,0,1-.13.91.91,0,0,0,.73-1c0-.46.28-1-.15-1.34s-.78.25-1.07.55-.85.34-1.31.42c-.81.14-1.16.51-1,1s.63.61,1.12.6ZM53,274.09c-.18,0-.5.09-.5.14,0,.35.31.26.51.29s.47,0,.48-.09C53.51,274.06,53.18,274.16,53,274.09Z"/><path class="cls-2" d="M448.19,219.12c-.63,2-1.13,3.52-1.58,5.05-2.51,8.53-5,17.06-7.51,25.58-.82,2.75-1.84,5.43-2.71,8.17-2,6.29-3.95,12.59-6,18.88-.58,1.82-1.28,3.61-1.94,5.4a4,4,0,0,1-3.86,2.84c-6.31.45-12.62.51-18.94.61-2.58,0-5.16.13-7.74.16-4.11,0-8.23.15-12.34.07-7.38-.14-14.74.33-22.11.6-5.64.21-11.27.85-16.92.74-3.07-.06-6.09.58-9.14.84-3.62.32-7.23.76-10.82,1.37-1.87.32-3.81.28-5.69.69a26.64,26.64,0,0,1-3.1.56c-.57.06-1.4.63-1.72-.2-.2-.55.71-.77,1-1.27a24.31,24.31,0,0,0,1.73-3.29,35.81,35.81,0,0,0,2-8.05c.32-2.94.87-5.86,1.26-8.79.36-2.75.64-5.51,1-8.26s.7-5.69,1-8.54c.26-2.48.45-5,.65-7.44.37-4.38.72-8.76,1.11-13.14a6.33,6.33,0,0,1,.38-1.66.94.94,0,0,1,1.35-.63c3.45,1.32,7,.93,10.49.41s7.15-1.34,10.73-1.95c7.54-1.28,15-2.75,22.69-3.29,7.92-.57,15.83-1.23,23.74-1.91,4.86-.42,9.7-1.06,14.56-1.4,3.53-.25,7.08-.18,10.62-.25l11.74-.22a9,9,0,0,1,1.14.09c3.55.39,7.07-.11,10.6-.32A14.08,14.08,0,0,0,448.19,219.12Z"/><path class="cls-3" d="M310.69,316a13.11,13.11,0,0,1-4.46,1q-11.94,1.71-24,2.52c-2.58.17-5.14.47-7.72.71-3.43.33-6.87.59-10.29,1-8,1-15.94,2-23.91,3.08-2.09.27-4.18.5-6.26.78l-16.49,2.24c-3,.41-6.07.83-9.11,1.19-5.51.66-11,1.65-16.41,2.76a44.25,44.25,0,0,1-7.68,1,10,10,0,0,0-4.2.78,1,1,0,0,1-1.45-.5q-.71-1.08-1.37-2.19a61.76,61.76,0,0,0-8.4-10.89c-6-6.32-11.43-13.13-16.81-20q-4.16-5.3-8.32-10.61a6.38,6.38,0,0,1-.74-1.22.82.82,0,0,1,.44-1.18c.26-.13.51-.26.78-.36,6.32-2.46,12.65-4.88,18.95-7.39,4.26-1.7,8.76-2.58,13.07-4.1,2.7-1,5.55-1.36,8.23-2.39a14,14,0,0,1,3.92-.83,25.6,25.6,0,0,0,6.19-1.1,1.35,1.35,0,0,1,1.71.59c1,1.31,1.9,2.65,3,3.88a39.57,39.57,0,0,0,9.81,8.77,58.47,58.47,0,0,0,12,5.44c2.45.77,4.82,1.84,7.36,2.1.32.87-.43,1-.7,1.45a5.41,5.41,0,0,0-.7,1.86c-.14.56-.19,1.14-.36,1.68a2.53,2.53,0,0,1-1.7,1.78,16.44,16.44,0,0,1-4.73,1.1c-2.67.11-5.34.21-8,.33a19.81,19.81,0,0,0-9.61,2.49c-3.78,2.28-5.2,5.77-5,9.95a23.42,23.42,0,0,1,0,4,4.17,4.17,0,0,0,1.74,4.2,19.75,19.75,0,0,0,10.78,4.21,39,39,0,0,0,14.44-1.51,77.78,77.78,0,0,0,8.69-2.87,9.58,9.58,0,0,1,6.16-.59,17.84,17.84,0,0,0,8.24-.29,8.41,8.41,0,0,0,4.62-2.73,3.79,3.79,0,0,0,1.17-2.26,22.73,22.73,0,0,1,1.55-6.09c.86-2.63.8-5.08-1.39-7.11-.33-.3-.21-.62-.16-1a69.5,69.5,0,0,1,2.75-12.3c1-3.08,1.86-6.22,2.78-9.33.31-1,.5-1.15,1.66-1.11,2.8.1,2.83.1,3.46-2.65.89-3.91,1.73-7.84,2.61-11.75.22-1,.58-1.12,1.38-.59,3.28,2.14,6.53,4.35,9.82,6.47,6.68,4.3,13.11,9,19.5,13.67,1,.73,2.11,1.31,3.15,2a3,3,0,0,0,1.86.66,1.61,1.61,0,0,1,1.66.85,11.93,11.93,0,0,0,4.84,4.36,2.1,2.1,0,0,1,1,1.54,21.88,21.88,0,0,1,.68,6c.1,5.25.13,10.51.17,15.76A7.13,7.13,0,0,1,310.69,316Z"/><path class="cls-4" d="M119.16,252.46a10.78,10.78,0,0,1-2.75-6.67,24.39,24.39,0,0,0-1.67-6.93,7.65,7.65,0,0,1,.11-5.85,33.43,33.43,0,0,1,1.83-3.57,6.19,6.19,0,0,1,3.44-2.9,6.78,6.78,0,0,0,2.47-1.4c3.62-3.16,7.65-3,11.84-1.43.27.1.5.33.77.37s.65,0,.77-.18a.69.69,0,0,0-.24-1,3.23,3.23,0,0,0-.7-.5c-4.19-1.62-8.31-2.25-12.25.69a13.4,13.4,0,0,1-3.92,2.32c-1.86.59-2.76,2.28-3.76,3.8-.47.71-.71,1.57-1.14,2.32-1.48,2.59-1.4,5.21-.54,8,.77,2.53,1.8,5.07,1.33,8a16.62,16.62,0,0,1-6.34-4.78,14.9,14.9,0,0,1-2.27-3.64,13.29,13.29,0,0,0-7.83-7.5,10.52,10.52,0,0,1-5.35-4.14,9.48,9.48,0,0,0-5.27-3.77,25,25,0,0,0-13.3-1A18,18,0,0,0,68.81,225c-3.3,2-6.4,4.19-8.52,7.53a11,11,0,0,0-1.92,5.92c0,.57-.11,1.15-.06,1.72a3.9,3.9,0,0,1-1.41,3.3l-.22.18-2.31,2.16c-.77.72-1.56,1.41-2.28,2.17s-1.35,1.55-2.19,2.52a7.45,7.45,0,0,1,.41-3.84,20.89,20.89,0,0,1,2.07-4.41A10,10,0,0,0,53.83,238a25.61,25.61,0,0,1,1.77-6.63,14.94,14.94,0,0,1,3.61-5.11,19.42,19.42,0,0,0,1.34-1.48.53.53,0,0,0-.09-.5.59.59,0,0,0-.49-.15,2.47,2.47,0,0,0-.76.39,14.45,14.45,0,0,0-4.51,5.5,18.75,18.75,0,0,0-2,6.24,14.53,14.53,0,0,1-2.18,6.46,15.08,15.08,0,0,0-2.17,6.19,7.79,7.79,0,0,0,.13,3.68,3.14,3.14,0,0,1-.26,2.76.61.61,0,0,1-.93.15,6.24,6.24,0,0,1-1.61-3.57c-.11-2.5,0-5,.13-7.47a5.34,5.34,0,0,1,1.15-3.2A10.33,10.33,0,0,0,49.1,236a15.4,15.4,0,0,1,1.79-4.81,9.14,9.14,0,0,1,2.72-3.28A5.94,5.94,0,0,0,56,225.07c1.25-3.7,4.26-5.52,7.52-7a43.22,43.22,0,0,0,5.42-2.6,22.54,22.54,0,0,0,2.36-1.62,19.38,19.38,0,0,1,6.62-3.28,5.34,5.34,0,0,1,3.65-.09,2.91,2.91,0,0,0,2.7-.25c2.44-1.41,5.16-1.36,7.83-1a9.9,9.9,0,0,0,5.34-.54,13.27,13.27,0,0,1,10.07,0c.44.17.9.31,1.35.47a9.15,9.15,0,0,0,6.32.31,10.25,10.25,0,0,1,8.85.9,5.43,5.43,0,0,0,3.52,1c3.68-.42,7,.86,10.21,2.36,2.58,1.21,5.28,2.31,7.17,4.64a2.68,2.68,0,0,0,1.22.71,15.29,15.29,0,0,1,7.66,6.23,39.43,39.43,0,0,1,4.39,7c1,2.33,1.78,4.63,1.4,7.22-.12.82.47,1.11,1.27.59.44-.29.75-.5,1.25-.18a8.11,8.11,0,0,1,3.37,3.46c1.76,4.21.39,8.61-4.71,9.13a26.67,26.67,0,0,1-2.77,0c-.33-.63.17-1,.17-1.46a.74.74,0,0,0-.18-.5.55.55,0,0,0-.5-.1c-.4.26-.75.59-1.12.89-3.08,2.5-6.69,3.33-11,3.49,1-.74,1.77-1.21,2.43-1.74a.93.93,0,0,0,.24-.75.51.51,0,0,0-.67-.33,13.3,13.3,0,0,0-1.33.49c-1.77.71-3.56,1.4-5.32,2.15a8.93,8.93,0,0,1-2.81.5c-.53,0-.57-.35-.43-.75a3,3,0,0,0,.29-.79c0-.28-.19-.49-.55-.48a2.36,2.36,0,0,0-1.29.55,18.25,18.25,0,0,1-14,2.56,13.06,13.06,0,0,1-3.08-.66c-.22-.1-.62-.08-.54-.5a.77.77,0,0,1,.24-.49,27,27,0,0,1,6.62-3.28,50.21,50.21,0,0,1,13.62-1.58,61,61,0,0,0,7.16-.51,16.54,16.54,0,0,0,8.67-4.16,8.2,8.2,0,0,0,1.12-1.3c.28-.37.67-.79.13-1.22-.37-.29-.7,0-1,.25s-.85.77-1.28,1.16a15.6,15.6,0,0,1-9.91,4c-2.1.13-4.21.09-6.32.19a51.37,51.37,0,0,0-11.94,1.5A30.73,30.73,0,0,0,119.16,252.46Z"/><path class="cls-2" d="M329.65,228.33a21.23,21.23,0,0,0,4.11-4.34,15.92,15.92,0,0,0,3.16-8.48,25.72,25.72,0,0,0,0-5.73c-.42-2.93-1.38-5.57-4-7.27a4.67,4.67,0,0,1-.61-.56c.24-.87.94-.49,1.41-.47,4.11.2,8.21.58,12.32.66a93.39,93.39,0,0,0,12-.36c3.61-.4,7.26-.5,10.88-.74,6.4-.43,12.79-.85,19.19-1.3,4.19-.3,8.38-.65,12.57-1q6-.46,12-1c3.23-.32,6.47-.69,9.72-.89a29.19,29.19,0,0,0,3.13-.38c3.2-.54,6.42-.94,9.65-1.23,2.28-.2,4.55-.55,6.85-.65a9.31,9.31,0,0,1,8.82,5.21,9.81,9.81,0,0,1,.76,5.06,43.87,43.87,0,0,1-.71,5.4A20.52,20.52,0,0,1,449,215.3a6.12,6.12,0,0,1-5,3.47,85.9,85.9,0,0,1-9.44.54c-7.85,0-15.69,0-23.54.14-3,.05-5.91.47-8.87.78-5.42.56-10.83,1.17-16.28,1.45-3.91.2-7.82.65-11.72,1-2.19.2-4.39.35-6.58.54-5,.43-9.84,1.36-14.73,2.25-4.51.82-9,1.66-13.54,2.42A34.53,34.53,0,0,1,329.65,228.33Z"/><path class="cls-3" d="M405.15,287.33a163.56,163.56,0,0,1,4.33,17c-7.18.92-14.13,2.22-21.23,2.58-6,.31-12,.57-18,1.48-2.46.37-5,.44-7.44.68-1.62.16-3.24.31-4.84.6-4.53.81-9.13,1-13.69,1.57-6.36.8-12.77,1.27-19.09,2.37-.75.13-1.52.17-2.24.25-.73-.52-.49-1.24-.45-1.86.28-4.2.64-8.4.88-12.61.13-2.29.1-4.59.14-6.88,0-1.06.15-1.27,1-1.37,4.56-.54,9.14-.92,13.67-1.65,6.56-1.05,13.18-.84,19.77-1.2s13.39-.73,20.09-.9c5.26-.13,10.53.07,15.8.05,3.26,0,6.51-.14,9.77-.21C404.06,287.24,404.54,287.3,405.15,287.33Z"/><path class="cls-4" d="M102.64,254.4c.16-.21.24-.54.62-.39a11.22,11.22,0,0,1,6.64,6.72,6.8,6.8,0,0,1,.23,2c.15,1.67-.16,2-1.76,2.29a41.82,41.82,0,0,0-4.65,1.45c-.73.23-.79.19-1-.8a3.49,3.49,0,0,0-.21-.81.62.62,0,0,0-.46-.27c-.14,0-.31.13-.44.24a.38.38,0,0,0-.11.26c-.07,2.19-1.43,3.06-3.35,3.71A31.12,31.12,0,0,1,88,270.51a10.53,10.53,0,0,1-3.13-.33,3.94,3.94,0,0,0-1.69-.23c-3.24.51-5.73-1.1-8.09-2.89a6.58,6.58,0,0,0-3.25-1.66c.16-1.07.31-2,.43-2.92a19.91,19.91,0,0,0-1.76-10.63,11.75,11.75,0,0,1-.59-7c.18-1,.66-2,.94-3a.88.88,0,0,0-.25-.75c-.39-.31-.71,0-.9.32a12.13,12.13,0,0,0-.88,10.25,36.08,36.08,0,0,1,1.83,5.72,13.69,13.69,0,0,1-2.45,11c-1,.23-1.57-.42-2.24-.7-4.35-1.76-8.7-3.5-13.51-3.51-.78,0-1-.47-.65-1.11a33.5,33.5,0,0,1,2.25-3.32,21.88,21.88,0,0,0,4.72-9.37,20.73,20.73,0,0,1,2.54-6.67,8.1,8.1,0,0,0,.54-1c.15-.36.18-.82-.23-1a.82.82,0,0,0-1,.45c-.09.17-.21.32-.31.48a18.45,18.45,0,0,0-2.72,6.58c-.54,3.28-2.22,6-4.24,8.76a14.67,14.67,0,0,0-3.81-2.09,10.59,10.59,0,0,1,3.3-6.61c1.12-1.17,2.38-2.22,3.58-3.31a19.89,19.89,0,0,0,4.34-5.65,20.18,20.18,0,0,1,6.87-8c7.69-5,15.87-5.68,24.42-2.56a4.13,4.13,0,0,1,.52.23,22.7,22.7,0,0,1,3.88,2.42c1.18,1,2.85,1,4.09,2a9.54,9.54,0,0,1,3.41,3.78,20.7,20.7,0,0,0,9.75,10.87,7.15,7.15,0,0,1,1.72,1.48,3.44,3.44,0,0,1,.84,3.2,1.39,1.39,0,0,1-1.21,1.34,34.06,34.06,0,0,0-4.65,1.44,1.41,1.41,0,0,1-1.78-.41,6,6,0,0,0-.61-.61c-.79-.68-1.89-1.21-2.3-2.07s-.09-2.07-.23-3.1a18.61,18.61,0,0,0-.73-2.77,12.52,12.52,0,0,1-.77-3.91,10.72,10.72,0,0,0-.48-2.81,6.16,6.16,0,0,0-2.83-3.81c-.59-.38-1.52-.52-1.52-.2,0,.54.4.82.81,1.09,2,1.31,2.37,3.38,2.62,5.5.12,1.06,0,1.12-1.44,2-.49.28-.91.71-1.42,1a1.44,1.44,0,0,1-2.26-.91c-.24-.62-.29-1.32-.84-1.77a.67.67,0,0,0-.53-.1.66.66,0,0,0-.36.36,1,1,0,0,0,0,.56c.5,2.16,1.13,4.26,2.83,5.83a26.75,26.75,0,0,0,4,3.24c.34.21.53.53.09.87-.82.19-1.45-.38-2.17-.59A8.91,8.91,0,0,0,93.41,255a4.3,4.3,0,0,0-1.87,2.1c-.85,2-.06,3.54,2.06,3.68a11.49,11.49,0,0,1,6,1.7,2.23,2.23,0,0,0,2.67-.29,4.94,4.94,0,0,0,1-6.85C103,255,102.64,254.84,102.64,254.4Zm-21.19-5.16h.32a4.94,4.94,0,0,0,4.72-2.59,1.52,1.52,0,0,0,.26-.8,1.21,1.21,0,0,0-.34-.69c-.07-.08-.39,0-.51,0a2.78,2.78,0,0,0-.76.82c-.76,1.52-2.13,1.8-3.6,1.79a25.91,25.91,0,0,1-3.12-.31,5.46,5.46,0,0,0-2.81.14c-.19.08-.32.42-.39.66,0,.09.2.35.33.36C77.44,248.87,79.32,249,81.46,249.23Z"/><path class="cls-2" d="M452.3,199.45a14.36,14.36,0,0,0-6.2-5.89,1.07,1.07,0,0,1-.63-1.14c.11-2.58.16-5.17.32-7.75.58-9.36,1.38-18.69,2.52-28,.52-4.27.74-8.58,1.3-12.84,1.08-8.25,2.3-16.48,3.48-24.71.52-3.6,1.13-7.18,1.65-10.78a7.77,7.77,0,0,1,5-6.51,41.42,41.42,0,0,1,12.38-3.35,24.06,24.06,0,0,1,5.14-.28,9.54,9.54,0,0,1,1.68.31,1.17,1.17,0,0,1,.8,1.36,28.8,28.8,0,0,1-.54,3.68c-.83,3.24-1.77,6.44-2.63,9.67-1.1,4.16-2,8.36-3.25,12.49q-3.5,11.66-6.83,23.37-4.12,14.47-8.11,29c-1.83,6.63-3.56,13.29-5.36,19.93A12.09,12.09,0,0,1,452.3,199.45Z"/><path class="cls-5" d="M345.94,100.61c-1.34-2.27-1.65-4.08-.56-5.93a8.21,8.21,0,0,0,.72-3.91,5.59,5.59,0,0,1,.36-2.24c1-2.11,2.83-3.24,5.16-2.59a3.82,3.82,0,0,0,4.3-1.34c1.23-1.34,2.47-2.67,3.77-3.95,4.35-4.3,9.6-5.19,15.38-4a5.93,5.93,0,0,1,3.61,2.16A3.7,3.7,0,0,0,381,80.42c2,.35,3.15,1.87,3.92,3.49a58.48,58.48,0,0,1,4,9.47,7.07,7.07,0,0,0,.54,1.32.83.83,0,0,0,1.23.22,3.24,3.24,0,0,0,1.3-2.46,41.87,41.87,0,0,0-.09-4.59,2.89,2.89,0,0,0-.79-1.79,20.89,20.89,0,0,1-2.87-3.9c-.45-.62-1.17-1-.52-1.91s1.54-1.75,2.85-1.51A1.75,1.75,0,0,1,392,80.12a3.57,3.57,0,0,0,2.19,2.45,3.21,3.21,0,0,1,2,3.51,7.74,7.74,0,0,0,.72,4.18,5.63,5.63,0,0,1,.33.79,3.54,3.54,0,0,1-1,3.9c-1.47,1.28-2.37,1.72-4.94,1.93-.17.84,1,1.4.51,2.35-.32.67-.21,1.49-.71,2.15a10.79,10.79,0,0,1-2.29,2.55,1.55,1.55,0,0,1-1.87.11,11.34,11.34,0,0,0-4-2.14,1.41,1.41,0,0,1-.93-1,5.21,5.21,0,0,0-1-1.73,3.18,3.18,0,0,0-5.47.57,5.45,5.45,0,0,0-.71,2.17,6.79,6.79,0,0,1-.83,3c-2-2.67-2.49-4.62-1.65-7.3.18-.59,0-1-.46-1.13-2-.38-3.05-1.84-4.1-3.32a1.83,1.83,0,0,0-1.66-.91,8.46,8.46,0,0,1-6.21-2.49,25.73,25.73,0,0,0-2.1-1.5,3.8,3.8,0,0,0-2.16-.67c-.88,0-1.47.23-1.33.63.19.59.72.55,1.16.63a7.53,7.53,0,0,1,3.23,1.79A20.08,20.08,0,0,0,362,92.75a4.65,4.65,0,0,0,2.47.68,2.92,2.92,0,0,1,3,1.57c.67,1.07,2,1.6,2.62,2.58s.21,2.4.44,3.59a10.93,10.93,0,0,0,1,2.37c.9,2,.85,2.49-.67,4a5.06,5.06,0,0,0-1.68,2.91.59.59,0,0,0,.44.65.6.6,0,0,0,.52-.06c1.2-1.37,2.64-2.49,3.94-3.75a6.53,6.53,0,0,0,1.81-4.13,7,7,0,0,1,.88-3,1.85,1.85,0,0,1,2.94-.41,4.57,4.57,0,0,1-.41,6.42,3.26,3.26,0,0,1-1.64.39c-.29.05-.56.15-.6.47a.5.5,0,0,0,.45.61c1,0,1.35.52,1.36,1.43,0,.34.29.46.6.47s.58-.22.53-.52a3.51,3.51,0,0,1,1.16-3.05,6.82,6.82,0,0,0,1.26-2.84,9.5,9.5,0,0,1,6.94,4.94c.54,1,.91,2.11,1.5,3.09,1.22,2,.74,2.06-.53,3.09a85.36,85.36,0,0,0-9.56,9.07,3.78,3.78,0,0,1-.94.57,4.22,4.22,0,0,1-.44-.47c-.63-.95-1.62-1.85-1.78-2.87s1.18-1.86,1.75-2.85,1.27-2.12,1.86-3.21a.91.91,0,0,0-.13-.78c-.18-.23-.51-.17-.74,0-1.21,1.09-2.41,2.19-3.62,3.27a18.2,18.2,0,0,1-7.06,4.24,11.78,11.78,0,0,1-2,.39,5.2,5.2,0,0,1-5.3-2.69.9.9,0,0,1,.3-1.43,8.72,8.72,0,0,0,2.19-1.83c.32-.44,1-.86.63-1.45s-1-.16-1.5.12a6.28,6.28,0,0,1-2.11.87c-.63.11-1.14,0-1.36-.66-.12-.36-.23-.73-.34-1.09a2,2,0,0,0-2.52-1.69c-1.14.16-1.37-.21-1.31-1.28,0-.67,0-1.35.77-1.71.42-.2.14-.57,0-.67-.73-.4-.63-1.1-.76-1.74a20.67,20.67,0,0,0-1.45-4.93,29.52,29.52,0,0,1-1.44-4.65,11.92,11.92,0,0,1-.22-6,5.89,5.89,0,0,0,.08-2,.58.58,0,0,0-.52-.57.8.8,0,0,0-.53.17,5.57,5.57,0,0,0-1.72,2.58c-.24.72-.59,1.41-.88,2.11a4.66,4.66,0,0,1-1.27,1.9C346.82,96.38,346.16,98.11,345.94,100.61ZM357.09,103c-.06,1.7.31,2.09,1.61,1.93a7.81,7.81,0,0,0,4.16-1.78c.43-.36,1.11-.89.79-1.35-.48-.69-1,.07-1.35.42a5.62,5.62,0,0,1-2,1.11c-.53.18-1.05.57-1.63.27s-.39-.83-.6-1.24a.33.33,0,0,0-.23-.16c-.18,0-.48,0-.51,0A4.55,4.55,0,0,0,357.09,103Zm.46-3.95c-.08-.17-.12-.43-.24-.47a1.31,1.31,0,0,0-1.65,1.09.43.43,0,0,0,.47.55A1.59,1.59,0,0,0,357.55,99Zm1.47,8.28a.31.31,0,0,0-.47-.17c-.22.1-.27.25-.13.4a.46.46,0,0,0,.26.07C358.95,107.64,359.06,107.53,359,107.32Zm1.82,1.1a3.67,3.67,0,0,0,.2-.41.51.51,0,0,0-.21-.12c-.2-.05-.35.05-.3.25S360.73,108.32,360.84,108.41Z"/><path class="cls-2" d="M407.46,116a58.9,58.9,0,0,1,4.72-10.15c2.73-4.72,7-7.53,11.94-9.34A73.06,73.06,0,0,1,442,92.8c1.23-.12,2.45-.4,3.69-.48s2.48,0,3.73,0c.19.59-.32.82-.65,1.11a20.29,20.29,0,0,0-6.59,10.22c-.6,2.31-1.16,4.64-1.6,7-.58,3.1-1,6.23-1.53,9.34-.85,5-1.17,10.07-1.56,15.13-.57,7.35-1.05,14.71-1.55,22.06-.15,2.2-.16,4.41-.32,6.6-.51,7.07-1.07,14.13-1.6,21.19-.18,2.39-.35,4.78-.53,7.16,0,.38-.07.76-.13,1.13a.59.59,0,0,1-.61.48.56.56,0,0,1-.44-.26,3.74,3.74,0,0,1-.45-1.34c0-2.2-.53-4.36-.5-6.57a76.83,76.83,0,0,0-.55-8.88c-.33-3.14-.48-6.3-.61-9.46a142.67,142.67,0,0,0-2-19.7c-1-5.63-2.18-11.29-4.86-16.43a29.83,29.83,0,0,0-9.81-11.38C411.59,118.37,409.41,117.42,407.46,116Z"/><path class="cls-2" d="M480.33,104.87c.26-1.18.53-2.2.68-3.23a12.15,12.15,0,0,0,.17-2.57A2.29,2.29,0,0,0,479,96.78a21.53,21.53,0,0,0-2.58-.21c-6.26-.2-12.12,1.48-17.79,3.93a8.29,8.29,0,0,0-5.17,6.43c-.34,1.88-.69,3.76-1,5.66-1.13,7.57-2.32,15.13-3.34,22.71-.77,5.78-1.8,11.53-2.16,17.37-.26,4.2-.94,8.36-1.35,12.55-.33,3.33-.58,6.68-.82,10-.32,4.49-.52,9-.92,13.46-.12,1.38.4,2.87-.51,4.16-1.33.1-2.67.2-4,.31s-2.66.26-3.92.38c-.59-.55-.37-1.14-.35-1.7.15-4.5.57-9,1-13.45.24-2.48.35-5,.5-7.45.34-5.63.64-11.27,1-16.9.52-7.83,1-15.67,1.67-23.49a144.86,144.86,0,0,1,2.37-17.35c.5-2.43,1-4.85,1.48-7.29A19.88,19.88,0,0,1,450,94.58a8.91,8.91,0,0,1,3.8-1.93,44.27,44.27,0,0,1,9.6-1.55c2.3-.07,4.6-.16,6.9-.14A40.46,40.46,0,0,1,480,92.13c2.87.74,4.05,2.61,3.64,5.54A13.19,13.19,0,0,1,480.33,104.87Z"/><path class="cls-2" d="M335.64,212.56c0,5-1.33,8.93-4.44,12.27-1.09,1.17-2.19,2.18-3.82,2.28a2.54,2.54,0,0,0-2,1.35,6.92,6.92,0,0,0-1.19,3.48c-.37,4-.89,8-1.09,12-.25,5-1.09,9.89-1.47,14.85-.51,6.69-1.6,13.3-2.58,19.93a23.86,23.86,0,0,1-2.53,8.19c-1.35,2.44-3.28,3.1-5.76,1.91a11.66,11.66,0,0,1-5.43-4.51,3.16,3.16,0,0,1-.52-2.16,112.89,112.89,0,0,0,.95-12.28c.08-2.13.3-4.17,1.77-5.91a9.82,9.82,0,0,0,1.29-2.55,71.51,71.51,0,0,0,4.86-16.46,62.88,62.88,0,0,0,.73-10.88,98.05,98.05,0,0,1,1-16.3c.64-4.15,1.65-8.21,4.13-11.78,2.8-4,8.53-4.62,12.29-2.3A7.24,7.24,0,0,1,335,208,11.45,11.45,0,0,1,335.64,212.56Zm-11.8,3.26c.69.75,1.38,1.52,2.09,2.27a2.84,2.84,0,0,0,.89.68,1.09,1.09,0,0,0,.79-.11.56.56,0,0,0,.19-.75c-.16-.33-.48-.58-.66-.91-1.2-2.06-2.35-4.15-2.14-6.66.05-.59.2-1.15-.4-1.51-.39-.23-1,.32-1.11,1.29s-.34,1.41-1.27,1.6a.65.65,0,0,0-.35.94c1,1.13.59,2-.31,3a3.74,3.74,0,0,0-.89,3.2.74.74,0,0,0,.77.68.85.85,0,0,0,.63-.47C322.48,217.88,322.49,216.54,323.83,215.82Z"/><path class="cls-4" d="M222.4,172.59a32.22,32.22,0,0,0-.41-5.41,13.35,13.35,0,0,0-2.24-5.53,22.3,22.3,0,0,1-2.62-5.39,25.57,25.57,0,0,0-6-9.68,10.44,10.44,0,0,0-1.1-.91c-.27-.2-.87.11-.9.44-.07.84.46,1.68,0,2.52-1.25-.25-1.25-1.51-1.83-2.29a17.32,17.32,0,0,0-3.56-3.72c-1.44-1-2.31-2.28-1.83-4.15a2.29,2.29,0,0,0,0-.57c0-1.95,0-1.93,1.8-1.8A136,136,0,0,1,224.11,139a19.16,19.16,0,0,1,8,3.6,9.39,9.39,0,0,1,3.37,5.52,49.72,49.72,0,0,1,1,9.4c0,1.82.11,3.63.17,5.45a1.52,1.52,0,0,1-.77,1.41c-1.19.79-2.36,1.63-3.51,2.48a.83.83,0,0,0,0,1.25,11.83,11.83,0,0,0,3.28,1.74,1.65,1.65,0,0,1,1.13,1.76c0,1.72,0,3.45,0,5.17,0,.63-.39.91-.86.64A42,42,0,0,0,222.4,172.59Z"/><path class="cls-3" d="M229,258.88l-1-.68a2.46,2.46,0,0,0-3.16.24,12.33,12.33,0,0,0-2.39,2.46c-.42.6-.91.59-1.41.05a9.23,9.23,0,0,1-1.07-1.34,46.58,46.58,0,0,0-4.44-5.61,25.1,25.1,0,0,0-6.44-5.21,12.79,12.79,0,0,0-9.46-1.24,8.49,8.49,0,0,0-5.1,3.94,12.35,12.35,0,0,0-.77,1.65c-8.19-3.86-16.91-5.83-26-7,.18-2.06-1-3.59-2.12-5,.51-.75,1.14-.55,1.65-.55,6.32.07,12.62-.33,18.92-.64,6.59-.32,13.18-.67,19.79-.53a69.27,69.27,0,0,0,9.44-.73,146.31,146.31,0,0,1,16-.87c.58,0,.83.46.5,1-1,1.53-2,3-3,4.57-.57.88-1.07,1.81-1.65,2.69a5.9,5.9,0,0,0,0,6.5,14.56,14.56,0,0,0,1.84,2.89C230.27,256.58,230.12,257.58,229,258.88Z"/><path class="cls-2" d="M312.53,239.7a64.07,64.07,0,0,1-3.47,16.51c-.18.54-.43,1.06-.61,1.61-.86,2.62-.67,2.11-2.94,2a14.77,14.77,0,0,1-6.78-2.11c-4.33-2.46-8.58-5-13-7.32-4.16-2.14-8-4.85-12.45-6.47-.86-.31-1-.74-.8-1.56,0-.09,0-.19.08-.28,1.11-3.06,2.19-6.12,3.33-9.16.59-1.57.91-1.75,2.59-1.53s3.58.59,5.38.86a38.25,38.25,0,0,0,4,.48,20.13,20.13,0,0,1,6.93,1.65c1.76.73,3.54,1.42,5.35,2.05a11.84,11.84,0,0,0,4.21.77c2.2-.05,4.4-.06,6.61,0,1.49,0,1.64.19,1.62,1.66C312.57,239.13,312.55,239.41,312.53,239.7Zm-8.41,4.6c0-1.52,0-2.58,0-3.63a4.22,4.22,0,0,0-.19-1.11.65.65,0,0,0-.41-.32.47.47,0,0,0-.61.41,6,6,0,0,0-.18,1.42c.09,3.74-.44,7.45-.64,11.17-.07,1.34-.17,2.67-.2,4a4.67,4.67,0,0,0,.27,1.39.54.54,0,0,0,.46.25c.15,0,.4-.2.41-.33.12-1.23.19-2.47.29-3.7C303.59,250.51,303.88,247.17,304.12,244.3Z"/><path class="cls-5" d="M293.81,197.48c-1.5-2-1.1-4,0-5.88a10.64,10.64,0,0,1,5.56-4.35,49.35,49.35,0,0,1,5.24-1.48,8.18,8.18,0,0,1,4.5.55,26.35,26.35,0,0,1,4,1.6c3.07,1.57,6.24,2.89,9.38,4.31a15.17,15.17,0,0,0,9.21,1.36,10.59,10.59,0,0,1,1.11-.09,9,9,0,0,1,.4,5.57,1,1,0,0,1-1.08.73,22,22,0,0,0-5.7.5,16.2,16.2,0,0,0-3.54,1.12A10.22,10.22,0,0,0,318,205.7c-.54,1-1.13,2-1.63,3a1.4,1.4,0,0,1-1.54,1,16.07,16.07,0,0,0-4.56.33,13.8,13.8,0,0,1-5.7-.32,4.1,4.1,0,0,1-2.52-1.73,2.42,2.42,0,0,1-.39-2.87c.46-.89-.08-1.39-1.16-1.23a13.17,13.17,0,0,0-1.4.31,3.22,3.22,0,0,1-2.22-.36A3.63,3.63,0,0,1,295,199a9.09,9.09,0,0,1,3.34-3.85c1.08-.79,2.24-1.46,3.36-2.2a.46.46,0,0,0,.18-.7.66.66,0,0,0-.74-.27,9.44,9.44,0,0,0-4,2.26C296.06,195.26,295,196.34,293.81,197.48Z"/><path class="cls-3" d="M421.32,286.9c1.47-.24,2.87-.45,4.27-.69.56-.1,1.11-.23,1.66-.37a3.54,3.54,0,0,0,2.6-2.42c.63-1.79,1.34-3.56,2-5.39a2.8,2.8,0,0,1,.84.3c2.88,2.46,6.32,4,9.72,5.42a43.92,43.92,0,0,1,11.12,6.92c3,2.54,5.92,5.11,9.69,6.63a4.58,4.58,0,0,1-3,1.3,96.69,96.69,0,0,1-12.53,1.33,52.24,52.24,0,0,0-7.42.62c-5.49.87-11.06.74-16.55,1.57-1,.15-1.24-.06-1.32-1q-.6-6.56-1.18-13.13A8.67,8.67,0,0,1,421.32,286.9Z"/><path class="cls-2" d="M270.33,249.49c2.62,1.35,5.27,2.65,7.86,4q9.33,5,18.6,10.15c2.17,1.2,4.26,2.54,6.4,3.79a1.69,1.69,0,0,1,.94,1.61c0,4.12-.34,8.21-.72,12.31a5.37,5.37,0,0,1-.17.84.75.75,0,0,1-1.07.58,37,37,0,0,1-3.46-2q-3.19-2.19-6.27-4.54c-5-3.82-10.47-7-15.67-10.56-2.68-1.83-5.37-3.66-8.13-5.36a1.86,1.86,0,0,1-.91-2.34A48.08,48.08,0,0,1,270.33,249.49Z"/><path class="cls-4" d="M210.84,148.15a24.51,24.51,0,0,1,5.06,8.39,24.76,24.76,0,0,0,2.81,5.94c1.66,2.38,2.1,5.1,2.4,7.87a31.27,31.27,0,0,1,.12,4,16.35,16.35,0,0,1-1,4.11c-.16.56-.69.58-1.17.58l-5.74,0H203a.78.78,0,0,1-.89-.86c0-2.39-.23-4.78-.1-7.16.26-4.88,0-9.75,0-14.62.06-3.91-.07-7.83-.12-11.74a5.25,5.25,0,0,1,0-.57c0-.37,0-.78.48-.91s.71.22.95.47a16.28,16.28,0,0,1,2.85,3.57c1.11,2,2.45,3.88,3,6.17,0,.09.06.21.13.25a2.46,2.46,0,0,0,.77.31c.09,0,.32-.26.33-.41.09-1.14.14-2.28.22-3.42C210.62,149.65,210.71,149.18,210.84,148.15Z"/><path class="cls-5" d="M306,154.53a12.09,12.09,0,0,1,12.11-.07,23.31,23.31,0,0,1,7.71,7.14c.74,1,1.5,2,2.18,3a9.38,9.38,0,0,0,4.44,3.91,1.6,1.6,0,0,1,1.05,1.81,9.85,9.85,0,0,1-3.19,6.83.82.82,0,0,1-1,.18c-1.78-1.06-4-1.54-5.21-3.41a2.64,2.64,0,0,0-1.69-1,41.47,41.47,0,0,0-9-1.67,49.41,49.41,0,0,1-9.34-1.41,8.68,8.68,0,0,1-5.65-4.07,4.33,4.33,0,0,1,1.42-6.19c.12-.08.35,0,.52,0,.3.45-.14.67-.27,1a3.09,3.09,0,0,0,.6,3.46,5.88,5.88,0,0,0,8.24.31,3.77,3.77,0,0,0,1-3.3c.68-.54,1.21-.23,1.73-.07a20.12,20.12,0,0,0,4.81.71,4.22,4.22,0,0,0,2.23-.41.79.79,0,0,0,.51-.9.65.65,0,0,0-.84-.53,14,14,0,0,1-6.8-.46,29.5,29.5,0,0,1-3.24-1.12c-.23-.09-.56-.41-.53-.58C308,156.29,306.63,155.83,306,154.53Z"/><path class="cls-4" d="M379.33,127.83a2.84,2.84,0,0,1,.86-2.05,80.66,80.66,0,0,1,8.39-8.23c3-2.48,6-5.06,9.22-7.29a4.42,4.42,0,0,0,.83-.76c.08-.09,0-.33,0-.48s-.15-.12-.24-.14a1.89,1.89,0,0,0-1.59.43c-1.07.81-2.17,1.57-3.27,2.32-.52.36-1,.14-1.28-.55-.12-.27-.19-.64.08-.75a25.18,25.18,0,0,1,5.94-2,1,1,0,0,1,1.14.65,9.39,9.39,0,0,1,.42,1.37c.79,3.27,1.23,2.93-1.54,5.36a45.15,45.15,0,0,0-4.92,5.18c-1,1.17-2.15,2.15-3.18,3.27a48.27,48.27,0,0,0-6,8,2.53,2.53,0,0,1-.55.51c-.55-.3-.55-.81-.7-1.25a28.37,28.37,0,0,0-1.13-2.94c-.57-1.17-1-1.24-2.48-.74Z"/><path class="cls-2" d="M405.65,115l-1.94-1a4.22,4.22,0,0,1-2.36-3,17.32,17.32,0,0,0-.75-2.46,2.34,2.34,0,0,0-1-1.36c-.41-.22-1-.33-1.19-.66-.3-.64.23-1.24.47-1.84a7.27,7.27,0,0,1,4.79-4.22,32.2,32.2,0,0,1,5-1.11c2.08-.32,4.18-.47,6.27-.68a2.85,2.85,0,0,1,.74.12c0,.16,0,.3-.05.35-4.28,3.54-6.47,8.43-8.62,13.34-.31.7-.57,1.42-.89,2.11C406.1,114.75,405.89,114.84,405.65,115Z"/><path class="cls-4" d="M228.41,183.65c-.67-1.91-.73-3.73-1.23-5.48a3,3,0,0,0-2.7-2.51c-.38-.06-.76-.07-1.14-.14s-.76-.95-.62-1.2a.81.81,0,0,1,1-.35,46.86,46.86,0,0,1,8.67,2.89c1,.47,2,1.06,3,1.63a2.65,2.65,0,0,1,1.51,3.08,11.74,11.74,0,0,0-.17,1.42c0,.44-.28.73-.71.73C233.46,183.72,230.9,183.68,228.41,183.65Z"/><path class="cls-2" d="M306.77,261.56a4.75,4.75,0,0,1-1.11,2.25.85.85,0,0,1-1.22.29c-1-.58-2.05-1-3-1.69a130.47,130.47,0,0,0-12.66-7.25c-5-2.72-10.16-5.26-15.25-7.89a19.76,19.76,0,0,1-1.74-1,.7.7,0,0,1-.3-1c.19-.33.45-.6.92-.37,1.88.93,3.79,1.8,5.65,2.77,6.69,3.49,13.21,7.26,19.68,11.14C300.87,260.73,302.46,261.13,306.77,261.56Z"/><path class="cls-4" d="M373.08,130.19c.17.06.43.07.5.19a36.3,36.3,0,0,1,3.2,5.75,10.72,10.72,0,0,1,.53,1.64,6.87,6.87,0,0,1-.75,5.74c-1.17,1.74-2.26,3.54-3.51,5.24a3.06,3.06,0,0,1-1.64,1.37,6.72,6.72,0,0,1,.18-2.43q.76-3.79,1.54-7.57a1.61,1.61,0,0,1,.12-.56c1.47-2.17.57-4.37.08-6.56-.19-.83-.38-1.67-.58-2.5A2.52,2.52,0,0,0,373.08,130.19Z"/><path class="cls-2" d="M304.4,266c-.12.21-.28.27-.46.16-.66-.39-1.3-.8-2-1.17-4.41-2.48-8.79-5-13.25-7.4-4.72-2.53-9.51-4.91-14.26-7.37-1.19-.62-2.34-1.3-3.49-2-.28-.16-.27-.47-.13-.74s.26-.2.48-.08c4.32,2.25,8.67,4.45,13,6.74,3,1.61,6,3.3,9,5,2.57,1.47,5.1,3,7.66,4.52,1.07.63,2.16,1.21,3.23,1.84C304.33,265.6,304.34,265.84,304.4,266Z"/><path class="cls-4" d="M377.4,122.9c.46.61.73,1,1,1.36a1.19,1.19,0,0,1,.24,1.31,8.85,8.85,0,0,0-1.1,3.79c0,1.23,0,2.47,0,3.69-.67.35-.84-.2-1.08-.55-.64-.94-1.24-1.91-1.89-2.84a7.86,7.86,0,0,0-1.08-1.3c-1-1-1.12-1-.31-1.77C374.52,125.36,375.9,124.21,377.4,122.9Z"/><path class="cls-5" d="M304.69,164.69a3.8,3.8,0,0,1-2.69-1.15,2,2,0,0,1,.22-3.36,3.23,3.23,0,0,1,1-.47,5.65,5.65,0,0,1,4.61,1,1.64,1.64,0,0,1,.13,2.7A5.48,5.48,0,0,1,304.69,164.69Z"/><path class="cls-4" d="M104.14,252.69c-2.22-.89-3.66-2.49-5.2-4.35a9.13,9.13,0,0,0,3.7-2.46C103.51,248.13,104.6,250.12,104.14,252.69Z"/><path class="cls-4" d="M378.9,139.51c0-1.49,0-2.76,0-4,0-.09,0-.25,0-.27,1-.47,1.6-1.06,1.37-2.3a5.72,5.72,0,0,1,.41-2.78c.12.11.32.19.36.31C382.5,135.42,383.39,134.27,378.9,139.51Z"/><path class="cls-4" d="M379.27,127.78v3.14a3.21,3.21,0,0,1,.06-3.08Z"/><path class="cls-5" d="M53,274.09c.19.08.53,0,.49.34,0,.05-.32.12-.48.09s-.52.05-.51-.29C52.49,274.18,52.81,274.14,53,274.09Z"/><path class="cls-4" d="M372.77,130.49a1.49,1.49,0,0,1-.1-.46c0-.09.15-.18.23-.27l.19.42A2.52,2.52,0,0,1,372.77,130.49Z"/><path class="cls-1" d="M286.85,141.62a20.55,20.55,0,0,0-5.46,4.06c-.27.26,0,.46.2.63l.07-.07c-.18-.21-.37-.46-.67-.22q-1.57,1.25-3.11,2.53c-1.91,1.59-3.81,3.19-5.73,4.77-.27.22-.63.51-.91,0a.52.52,0,0,1,.14-.75c.15-.11.34-.27.35-.42s-.14-.21-.36,0a9.12,9.12,0,0,1-1.2.76c-.12.07-.41.06-.47,0a.51.51,0,0,1,.09-.75c.65-.56,1.31-1.11,1.95-1.7,1.76-1.62,3.52-3.23,5.25-4.88a.46.46,0,0,0-.1-.73.65.65,0,0,0-.51-.08,15.5,15.5,0,0,0-3,2.23c-1.21,1.08-2.48,2.09-3.75,3.11a.42.42,0,0,1-.69-.16.71.71,0,0,1,0-.54,3.73,3.73,0,0,1,.7-.89c1.5-1.33,3-2.7,4.56-3.93,3.55-2.74,7.17-5.41,10.76-8.09a3.37,3.37,0,0,1,1-.49.59.59,0,0,1,.48.23.55.55,0,0,1,0,.51,3.36,3.36,0,0,1-.74.85c-1.53,1.14-3.1,2.23-4.62,3.38-1.29,1-2.53,2-3.77,3-.08.06,0,.34,0,.5a.27.27,0,0,0,.47.12c1.57-1.25,3.15-2.47,4.68-3.75a39.2,39.2,0,0,1,4.54-3.45c.23-.14.56-.23.74.07a.65.65,0,0,1,0,.55c-.21.39-.27.63.26.8s.41.55.2.92c-.4.72-1.53.87-1.51,1.92Z"/><path class="cls-1" d="M280.35,152.17c.77.06,1.19-.51,1.69-.92l8.61-7.1a.47.47,0,0,1,.24-.13c.16,0,.39,0,.47.08a.56.56,0,0,1,0,.49,5.48,5.48,0,0,1-1.73,1.85,8.41,8.41,0,0,0-1.54,1.6c1.26-.91,2.51-1.84,3.79-2.73.48-.33.8-.09.8.55a5.51,5.51,0,0,0,0,.65c1.25.29.66.91.2,1.37-.68.67-1.43,1.27-2.17,1.87l-10.63,8.7a9.29,9.29,0,0,1-.9.71c-.42.27-.83.45-1.08-.27s-.42-1.58-.9-1.79c-1-.44-.87-.83-.27-1.39.9-.85,1.84-1.66,2.76-2.49.34-.31.8-.55.73-1.13Zm5-2c-1.79,1.45-3.58,2.9-5.36,4.37-.26.22-.62.4-.6.84C280.82,154.89,282.53,153.45,285.31,150.18Z"/><path class="cls-1" d="M260.32,155.54a4.45,4.45,0,0,0-2.14,1.38c-2.17,1.88-4.31,3.78-6.46,5.68-.5.44-1,.93-1.5,1.33a.9.9,0,0,1-.77.06c-.38-.17-.13-.53,0-.68a55.28,55.28,0,0,1,4.09-4c3.47-2.85,7-5.59,10.56-8.37.15-.12.31-.22.47-.32a.66.66,0,0,1,1,.12c.3.44.89.85.42,1.49a10.16,10.16,0,0,1-1.11,1.31,150.76,150.76,0,0,1-12.59,11.3,2.8,2.8,0,0,1-.73.44.84.84,0,0,1-.53-.1c-.19-.08-.15-.24-.05-.47a4.52,4.52,0,0,1,1.31-1.5c1.64-1.47,3.29-2.91,4.91-4.4a11.89,11.89,0,0,0,3-3.32c.78,0,1-.79,1.38-.94C261.42,154.92,260.55,154.85,260.32,155.54Z"/><path class="cls-1" d="M283.37,179.67a2.29,2.29,0,0,1,.52-2.12c1.12-1,2.16-2.14,3.3-3.16a1.71,1.71,0,0,1,2.56-.11c1.45,1.23,2.82,2.55,4.17,3.88a1.39,1.39,0,0,1-.13,2c-1.12,1-2.23,2.07-3.4,3.05a1.48,1.48,0,0,1-2.27,0c-.65-.55-1.26-1.14-2-1.76-.74.27-.64,1.13-1.14,1.5s-.82.79-1.29,1.12a.88.88,0,0,1-.79,0c-.15-.09-.18-.48-.18-.73,0-.47.85-.93,0-1.41l0,0c.11.14.27.41.32.39.9-.33.9-.34,2.08-1.6l-1.84-1.15Zm1.44-1a27.57,27.57,0,0,1,4.57,3.9l3.7-3.4c-1.1-1-2.11-1.83-3-2.74-1.53-1.51-1.52-1.54-3.05,0C286.32,177,285.7,177.69,284.82,178.62Z"/><path class="cls-1" d="M267.34,154.14c0,.18,0,.4-.1.52a27.3,27.3,0,0,1-1.84,2.19c-3.42,3.47-6.94,6.85-10.62,10.05a2.51,2.51,0,0,1-.73.44.55.55,0,0,1-.48-.1.65.65,0,0,1-.2-.51,1.66,1.66,0,0,1,.37-.75c.52-.56,1.08-1.09,1.64-1.61l10.79-9.88a2.74,2.74,0,0,1,.68-.5C267,153.94,267.18,154.08,267.34,154.14Z"/><path class="cls-1" d="M263.87,149.4c0,.18,0,.42-.14.54a13.74,13.74,0,0,1-1.45,1.37c-3.31,2.57-6.58,5.19-10,7.63-1.4,1-2.6,2.23-4,3.17-.22.15-.37.13-.44-.11s-.14-.41-.06-.53a9.5,9.5,0,0,1,2.36-2.46q5.76-4.46,11.58-8.85c.52-.39,1-1,1.69-1C263.55,149.17,263.71,149.32,263.87,149.4Z"/><path class="cls-1" d="M284.93,168.34c-.16.24-.35.56-.56.86a23.54,23.54,0,0,1-3.47,3.4c-2,1.81-4,3.55-6,5.3-.35.3-.68.7-1.22.66a.75.75,0,0,1-.5-.22.54.54,0,0,1,0-.5,4.37,4.37,0,0,1,.72-.88q4.74-4.35,9.51-8.68a3.06,3.06,0,0,1,1-.54c.12,0,.33.12.48.23S284.86,168.14,284.93,168.34Z"/><path class="cls-1" d="M274.69,139.46c.55.1.86-.3,1.23-.59l6.33-4.89a3.36,3.36,0,0,1,.73-.44c.26-.11.56-.21.77.09a.56.56,0,0,1-.05.76,15.18,15.18,0,0,1-1.53,1.29,118.6,118.6,0,0,0-10.05,8,10.23,10.23,0,0,1-.9.71.74.74,0,0,1-1,0c-.28-.27,0-.52.14-.74.24-.38.23-.68-.21-.89l-.07,0c.11.14.3.41.33.4a12.1,12.1,0,0,0,4.34-3.87Z"/><path class="cls-1" d="M268.9,159.23a7.09,7.09,0,0,1-.41.69,39.16,39.16,0,0,1-4.76,4.91c-1.52,1.43-3.12,2.79-4.69,4.18a1.13,1.13,0,0,1-1,.41,1.07,1.07,0,0,1-.44-.29.34.34,0,0,1-.05-.27,2.69,2.69,0,0,1,1-1.31q4.56-4.1,9.15-8.16a3.61,3.61,0,0,1,.71-.44.31.31,0,0,1,.25,0C268.76,159,268.81,159.11,268.9,159.23Z"/><path class="cls-1" d="M286.91,171.15a18,18,0,0,1-1.25,1.66c-2.2,2.23-4.43,4.43-6.65,6.64a5.27,5.27,0,0,1-.67.53c-.75.53-1.66.65-1.75.22-.16-.71.48-.94.87-1.31,2.22-2.08,4.45-4.14,6.65-6.23A4.16,4.16,0,0,1,286.91,171.15Z"/><path class="cls-1" d="M267.47,175.17c-.09-.15-.24-.3-.26-.47,0-.43.28-.67.57-.92,2.18-2,4.33-4,6.55-6a54,54,0,0,0,4.37-4.09.6.6,0,0,1,.5-.17c.39.14.2.42.08.66a9.66,9.66,0,0,1-2.06,2.35c-2.8,2.86-5.68,5.64-8.73,8.23A1.4,1.4,0,0,1,267.47,175.17Z"/><path class="cls-1" d="M270.14,142.83l-.53-.2c-.4-.14-.69-.35-.43-.81a2.56,2.56,0,0,1,.56-.64c3.4-2.93,6.79-5.86,10.47-8.45a4,4,0,0,1,1-.49c.09,0,.27.17.38.29a.39.39,0,0,1,0,.28,1.33,1.33,0,0,1-.66.87c-1.84,1.37-3.68,2.73-5.48,4.14a7.37,7.37,0,0,0-1.13,1.27s.19.25.3.39l0-.07c-.13-.1-.35-.32-.38-.29-1.5,1.17-3.29,2-4.28,3.77Z"/><path class="cls-1" d="M280.71,166.32c-.37,1.16-1.46,1.67-2.28,2.45-2.47,2.37-5,4.69-7.49,7-.34.31-.71.82-1.17.3-.29-.32.09-.71.35-1,1.44-1.38,2.86-2.79,4.37-4.1A39.26,39.26,0,0,1,280.71,166.32Z"/><path class="cls-1" d="M298.27,179.63a62.18,62.18,0,0,1-7.08,6.81,1,1,0,0,1-.52.21.72.72,0,0,1-.52-.16.5.5,0,0,1,0-.49,28.62,28.62,0,0,1,4.56-4.28c.79-.68,1.64-1.32,2.47-1.94C297.29,179.68,297.52,179.72,298.27,179.63Z"/><path class="cls-1" d="M284,146.87c-2.59,1.61-4.7,3.87-7.36,5.37l-.82-.5c1.7-1.47,3.41-2.93,5.1-4.41.33-.29.81-.51.78-1.08l-.07.07c.7.19,1-.38,1.43-.73.8-.68,1.57-1.38,2.39-2,.27-.22.64-.49,1-.14s.22.84-.15,1.2l-2.38,2.33Z"/><path class="cls-1" d="M298.71,153.89c0,.09,0,.2,0,.27a5.69,5.69,0,0,1-3.21,2.6c-.51.16-.81-.38-1.09-.75a1,1,0,0,1,0-1.31,22.91,22.91,0,0,1,2.34-2,1,1,0,0,1,1.31,0A1.76,1.76,0,0,1,298.71,153.89Z"/><path class="cls-1" d="M267.24,149.12c-.13-.12-.39-.26-.38-.36a7.23,7.23,0,0,1,.3-1,1.26,1.26,0,0,0-.29-1.32c-.48-.51-.83-.08-1.22.17a1.37,1.37,0,0,1-.49.25.86.86,0,0,1-.53-.11.52.52,0,0,1-.15-.74,7.55,7.55,0,0,1,2.41-2.37c.31-.2.92.06.86.41-.22,1.29,0,2.24,1.48,2.55a.43.43,0,0,1,.29.65,5.14,5.14,0,0,1-2,2C267.45,149.2,267.33,149.13,267.24,149.12Z"/><path class="cls-1" d="M282.79,182c-.35-.47-.61-.09-.89.09a4.85,4.85,0,0,1-.91.64.92.92,0,0,1-.74-.19.52.52,0,0,1,0-.75,4.57,4.57,0,0,1,2.55-1.66c.31,0,.5-.13.6-.42l-.06,0c-.24.71-.49,1.42-.72,2.13,0,.05.1.14.16.22Z"/><path class="cls-1" d="M276.6,152.24a8.46,8.46,0,0,1-3,2.53.49.49,0,0,1-.47-.07.54.54,0,0,1-.07-.5,7.57,7.57,0,0,1,2.73-2.46Z"/><path class="cls-1" d="M283.89,146.93c.25-.11.52-.2.76-.33a.53.53,0,0,1,.7.25.55.55,0,0,1,0,.75,11.63,11.63,0,0,1-3,2.44l-1-.6a14.81,14.81,0,0,1,2.52-2.56Z"/><path class="cls-1" d="M278.56,151.75a6.54,6.54,0,0,1,2.88-2.32l1,.6c-.51.88-1.74,1.07-2.06,2.14l.07-.08-.91.2Z"/><path class="cls-1" d="M286.78,141.68c.37.32.64.07,1-.13.54-.35.91-1,1.63-1a.92.92,0,0,1,.46.21.24.24,0,0,1,0,.22,4.87,4.87,0,0,1-2.62,2.35c-.34.14-.74-.31-.65-.66a2.89,2.89,0,0,0,.26-1.05Z"/><path class="cls-1" d="M279.51,152.29a9.52,9.52,0,0,1-2.85,2.34l-.4-1a5.54,5.54,0,0,1,2.3-1.87Z"/><path class="cls-1" d="M288.68,144.24c0,.19.12.44,0,.55a7.92,7.92,0,0,1-2.35,2,.58.58,0,0,1-.75-.11.59.59,0,0,1,.05-.94c.65-.52,1.33-1,2-1.53A.75.75,0,0,0,288.68,144.24Z"/><path class="cls-1" d="M276.66,154.63a1.7,1.7,0,0,1-1.3.86.58.58,0,0,1-.45-.21.54.54,0,0,1-.06-.49,2.24,2.24,0,0,1,1.41-1.17Z"/><path class="cls-1" d="M291,142.33a2.79,2.79,0,0,1-1.91,1.89c-.37.08.11,0-.21-.18a.34.34,0,0,1-.15-.48,2.63,2.63,0,0,1,1.85-1.58C290.69,141.95,290.88,142.21,291,142.33Z"/><path class="cls-1" d="M287.66,144.17c.39-.41.77-.74,1,.09A.79.79,0,0,1,287.66,144.17Z"/><path class="cls-1" d="M102.64,254.4c0,.44.4.61.61.9a4.94,4.94,0,0,1-1,6.85,2.23,2.23,0,0,1-2.67.29,11.49,11.49,0,0,0-6-1.7c-2.13-.14-2.91-1.7-2.06-3.68a4.3,4.3,0,0,1,1.87-2.1,8.91,8.91,0,0,1,7.14-1.08c.72.2,1.35.78,2.17.59Zm-4.79,1.92c-.1-.16-.16-.41-.29-.45a4.88,4.88,0,0,0-1.36-.29c-.73,0-1.47.47-1.32.79a1.47,1.47,0,0,0,1.39.71,3.42,3.42,0,0,0,1.34-.36C97.73,256.68,97.78,256.46,97.86,256.32Z"/><path class="cls-1" d="M81.46,249.23c-2.14-.2-4-.37-5.9-.57-.13,0-.36-.27-.33-.36.07-.24.19-.58.39-.66a5.46,5.46,0,0,1,2.81-.14,25.91,25.91,0,0,0,3.12.31c1.47,0,2.84-.27,3.6-1.79a2.78,2.78,0,0,1,.76-.82c.12-.09.43-.13.51,0a1.21,1.21,0,0,1,.34.69,1.52,1.52,0,0,1-.26.8,4.94,4.94,0,0,1-4.72,2.59Z"/><path class="cls-1" d="M185,134.82c.8.08,1.49.2,2.18.21s1.33-.12,2-.13c1.4,0,1.63.19,1.64,1.66q0,6.31,0,12.63,0,11.91,0,23.82c0,2.68,0,5.36,0,8,0,.76,0,1.53-.08,2.29-.1,1.14-.49,1.56-1.59,1.6-2,.07-4,.07-6,.09-5.25.07-10.5-.08-15.76.16-3.62.16-7.26.07-10.89.13a4.36,4.36,0,0,1-2.2-.54,1.57,1.57,0,0,1-.91-1.36c0-1-.13-1.91-.13-2.87,0-6-.12-12.07.16-18.09a120.39,120.39,0,0,1,1-13.43,12.24,12.24,0,0,1,7.49-9.77,36.39,36.39,0,0,1,10.48-2.8c2.65-.34,5.32-.61,8-1.05.83-.14,1.92.48,2.49-.66-.62-.75-1.59-.42-2.36-.74-1.34-.55-2.68-1.06-3.43-2.43a2.92,2.92,0,0,1,.28-3.48,5.93,5.93,0,0,1,1.26-1.16c2.78-1.91,7.56-1.73,10.32.25a3.16,3.16,0,0,1,.38,5.14,7.35,7.35,0,0,1-2.42,1.51C186.25,134.08,185.47,133.92,185,134.82Zm-2.71,14.26a3.72,3.72,0,0,0,1.44-1.81,14.64,14.64,0,0,1,3.88-4.54c.45-.36.86-.75,1.3-1.12a1.54,1.54,0,0,0,.67-1.2c0-1.24,0-2.49,0-3.73a.65.65,0,0,0-.72-.69,34.32,34.32,0,0,0-4,.21c-5.56.85-11.19,1.29-16.69,2.61a31.26,31.26,0,0,0-5.44,1.73,11.16,11.16,0,0,0-7.11,9.31c-.37,2.95-.48,5.9-.66,8.85-.37,5.92-.41,11.83-.38,17.76,0,.41-.29.94.39,1.33.27-.15.6-.3.91-.49a32.58,32.58,0,0,1,7.59-3.31c1.55-.46,3.13-.85,4.71-1.19a1.08,1.08,0,0,0,1-1.15c0-.38,0-.77,0-1.15.13-3.29.73-6.42,2.77-9.16a19,19,0,0,0,2.34-4.88,26.85,26.85,0,0,1,5.29-9.1c.62-.67,1.21-1.93,2.15-1.64,1.23.37.13,1.65.39,2.49A7.16,7.16,0,0,1,182.27,149.08Zm-1.41-.59a20.72,20.72,0,0,0-5.31,8.25,22.67,22.67,0,0,1-2.68,5.69,14.72,14.72,0,0,0-2.38,7.57c-.1,1.52.17,3.07-.26,4.58a1.7,1.7,0,0,0,.19,1.09,17.54,17.54,0,0,1,.73,2.47,1.08,1.08,0,0,0,1.23.92l5.75,0c3.45,0,6.9,0,10.35,0,.74,0,1-.29,1-1,0-3.16,0-6.32,0-9.48,0-8,.06-16.1.07-24.15,0-.49.36-1.19-.51-1.49-3.07,2.46-4.73,5.89-6.29,9.38a10.75,10.75,0,0,1-.53,1.31,1,1,0,0,1-.73.29c-.34,0-.49-.29-.5-.57C180.93,151.71,180.9,150.1,180.86,148.5Zm-21.8,35.16v.07c1.14,0,2.28,0,3.42,0,.56,0,.82-.36.95-.87.32-1.29.31-2.62.65-3.93.52-2,1.42-3.28,3.63-3.3a1.49,1.49,0,0,0,.77-.28.89.89,0,0,0,.28-1,.78.78,0,0,0-.67-.36,35.78,35.78,0,0,0-12.17,4.65,2.59,2.59,0,0,0-1.37,2.87c.06.28.05.57.09.85.15,1.3.36,1.52,1.56,1.49C157.16,183.8,158.11,183.72,159.06,183.66ZM183,133.16c1.63-.1,2.68,0,3.68-.5,1.24-.59,2.65-1.2,2.56-2.75s-1.39-2.22-2.71-2.66a8.91,8.91,0,0,0-6.45.25,4.22,4.22,0,0,0-2,1.55,1.63,1.63,0,0,0,.08,2.11,6.29,6.29,0,0,0,1.54,1.25A6.45,6.45,0,0,0,183,133.16Z"/><path class="cls-1" d="M357.09,103a4.55,4.55,0,0,1,.25-.77c0-.08.34,0,.51,0a.33.33,0,0,1,.23.16c.21.41.12,1,.6,1.24s1.1-.09,1.63-.27a5.62,5.62,0,0,0,2-1.11c.39-.34.87-1.1,1.35-.42.33.46-.36,1-.79,1.35a7.81,7.81,0,0,1-4.16,1.78C357.4,105.07,357,104.69,357.09,103Z"/><path class="cls-1" d="M357.55,99a1.59,1.59,0,0,1-1.42,1.17.43.43,0,0,1-.47-.55,1.31,1.31,0,0,1,1.65-1.09C357.43,98.61,357.47,98.87,357.55,99Z"/><path class="cls-1" d="M359,107.32c0,.22-.08.32-.33.3a.46.46,0,0,1-.26-.07c-.14-.14-.09-.29.13-.4A.31.31,0,0,1,359,107.32Z"/><path class="cls-1" d="M360.84,108.41c-.11-.09-.29-.17-.32-.29s.1-.3.3-.25a.51.51,0,0,1,.21.12A3.56,3.56,0,0,1,360.84,108.41Z"/><path class="cls-1" d="M323.83,215.82c-1.35.72-1.36,2.06-1.77,3.2a.85.85,0,0,1-.63.47.74.74,0,0,1-.77-.68,3.74,3.74,0,0,1,.89-3.2c.9-1,1.26-1.82.31-3a.65.65,0,0,1,.35-.94c.92-.19,1.14-.77,1.27-1.6s.72-1.52,1.11-1.29c.61.36.45.92.4,1.51-.21,2.5.94,4.59,2.14,6.66.19.32.5.58.66.91a.56.56,0,0,1-.19.75,1.09,1.09,0,0,1-.79.11,2.84,2.84,0,0,1-.89-.68C325.21,217.35,324.52,216.57,323.83,215.82Z"/><path class="cls-1" d="M304.12,244.3c-.24,2.87-.53,6.21-.81,9.54-.1,1.23-.17,2.47-.29,3.7,0,.13-.26.32-.41.33a.54.54,0,0,1-.46-.25,4.67,4.67,0,0,1-.27-1.39c0-1.34.12-2.67.2-4,.2-3.72.73-7.43.64-11.17a6,6,0,0,1,.18-1.42.47.47,0,0,1,.61-.41.65.65,0,0,1,.41.32,4.22,4.22,0,0,1,.19,1.11C304.14,241.72,304.12,242.78,304.12,244.3Z"/><path class="cls-1" d="M260.32,155.54c.23-.69,1.11-.62,1.32-1-.41.15-.6.93-1.38.94Z"/><path class="cls-4" d="M182.27,149.08a7.16,7.16,0,0,0-.15-.88c-.27-.84.84-2.12-.39-2.49-.94-.28-1.53,1-2.15,1.64a26.85,26.85,0,0,0-5.29,9.1,19,19,0,0,1-2.34,4.88c-2,2.74-2.65,5.87-2.77,9.16,0,.38,0,.76,0,1.15a1.08,1.08,0,0,1-1,1.15c-1.58.35-3.16.74-4.71,1.19a32.58,32.58,0,0,0-7.59,3.31c-.31.19-.64.35-.91.49-.68-.39-.39-.92-.39-1.33,0-5.92,0-11.84.38-17.76.18-3,.29-5.91.66-8.85a11.16,11.16,0,0,1,7.11-9.31,31.26,31.26,0,0,1,5.44-1.73c5.5-1.32,11.12-1.76,16.69-2.61a34.32,34.32,0,0,1,4-.21.65.65,0,0,1,.72.69c0,1.24,0,2.49,0,3.73a1.54,1.54,0,0,1-.67,1.2c-.44.37-.86.76-1.3,1.12a14.64,14.64,0,0,0-3.88,4.54A3.72,3.72,0,0,1,182.27,149.08Z"/><path class="cls-4" d="M180.86,148.5c0,1.6.07,3.21.13,4.81,0,.28.16.59.5.57a1,1,0,0,0,.73-.29,10.75,10.75,0,0,0,.53-1.31c1.56-3.5,3.23-6.93,6.29-9.38.87.31.51,1,.51,1.49,0,8,0,16.1-.07,24.15,0,3.16,0,6.32,0,9.48,0,.75-.3,1-1,1-3.45,0-6.9,0-10.35,0l-5.75,0a1.08,1.08,0,0,1-1.23-.92,17.54,17.54,0,0,0-.73-2.47,1.7,1.7,0,0,1-.19-1.09c.43-1.51.16-3.05.26-4.58a14.72,14.72,0,0,1,2.38-7.57,22.67,22.67,0,0,0,2.68-5.69A20.72,20.72,0,0,1,180.86,148.5Z"/><path class="cls-4" d="M159.06,183.66c-.95.06-1.9.14-2.85.17-1.2,0-1.42-.19-1.56-1.49,0-.28,0-.57-.09-.85a2.59,2.59,0,0,1,1.37-2.87A35.78,35.78,0,0,1,168.1,174a.78.78,0,0,1,.67.36.89.89,0,0,1-.28,1,1.49,1.49,0,0,1-.77.28c-2.21,0-3.11,1.3-3.63,3.3-.34,1.31-.33,2.64-.65,3.93-.13.52-.39.87-.95.87-1.14,0-2.28,0-3.42,0Z"/></svg>