<svg id="Calque_1" data-name="Calque 1" xmlns="http://www.w3.org/2000/svg" viewBox="0 0 384.09 388.03"><defs><style>.cls-1{fill:#fda354;}.cls-2{fill:#ffdbbc;}.cls-3{fill:#433f40;}.cls-4{fill:#a04b00;}.cls-5{fill:#fbfcfc;}.cls-6{fill:#6bc47b;}.cls-7{fill:#353334;}</style></defs><title>Nosgestesclimat-illu x 12 SVG</title><path class="cls-1" d="M222.48,163c.39,2.12.92,4.17,1.13,6.26a69,69,0,0,0,2.07,9.43c.93,3.81,1.57,7.69,2.59,11.48a114,114,0,0,1,2.21,11.58,34.09,34.09,0,0,1-.67,12,187.72,187.72,0,0,1-4.91,19,13.74,13.74,0,0,0-.31,7.71c1.06,4.19,1.71,8.49,2.69,12.71.44,1.87-.13,3.6-.28,5.39,0,.56-.57.78-1.08.9-1.47.36-2.94.73-4.41,1.07-4.77,1.1-7.35,4.26-8.48,8.86-.94,3.82-.15,3.37-4.3,3.17-3.52-.17-7-.4-10.57-.58a2.44,2.44,0,0,1-1.63-.64c-1.27-1.14-2.65-2.18-3.86-3.37a33,33,0,0,0-10-6.73c-4.33-1.91-8.78-3.52-13.1-5.48a53.69,53.69,0,0,1-15.36-10.53c-2.37-2.3-4.25-5.11-6.35-7.69-.76-.93-.58-2.11-.9-3.16a.81.81,0,0,1,.65-1.12,16.44,16.44,0,0,0,1.75-.44A4.77,4.77,0,0,0,152,227a3.68,3.68,0,0,0-2.88-2.44c-1.47-.33-2.95-.69-4.44-.92a6.18,6.18,0,0,1-3.83-2.21,25.88,25.88,0,0,0-7-5.62,9.16,9.16,0,0,1-4.85-6.23,63.91,63.91,0,0,1-1.22-6.84c-.24-2.2-.61-4.39-1-6.58a12.68,12.68,0,0,1,.18-6c1.23-3.83,2.36-7.69,3.61-11.52,1-3.06,2-6.1,2.82-9.23.56-2.24,1.53-4.37,1.94-6.67a1.15,1.15,0,0,1,1.29-1c3.63.06,7.26,0,10.89.14,5,.16,10.07.34,15.09.64,9.88.6,19.76.29,29.65.34,3.12,0,6.25.06,9.37.09a8.48,8.48,0,0,1,1.51.06c3.4.66,6.84.34,10.26.4a19.51,19.51,0,0,0,4.22-.29A14.5,14.5,0,0,1,222.48,163Z"/><path class="cls-1" d="M134.75,326.1l-32.35-.24a41,41,0,0,1,1.39-8.23c1.66-7.77,3.5-15.51,5.85-23.11,2.43-7.89,4.84-15.79,7.41-23.64,1-3.05,2.46-5.95,3.65-8.94,1.64-4.11,3.58-8.11,4.75-12.4.22-.81.78-.81,1.41-.6a14.1,14.1,0,0,0,7.45.54,6.9,6.9,0,0,1,3.52.2,5.81,5.81,0,0,0,6.53-1.76,21.44,21.44,0,0,1,7.4,10.19,59.2,59.2,0,0,1,2.62,12.08c.16,1.19,0,1.48-1.25,1.52-2.92.1-5.75.93-8.7.93a31.6,31.6,0,0,0-5.39.66,91.94,91.94,0,0,0-15,3.59,24.92,24.92,0,0,0-5.16,2.49,15.08,15.08,0,0,0-2.36,1.86,4.77,4.77,0,0,0-.21,6.8,8,8,0,0,1,2,4.54,69.72,69.72,0,0,0,6.07,18.27,90.62,90.62,0,0,0,6.95,11.33C132.25,323.39,133.32,324.45,134.75,326.1Z"/><path class="cls-1" d="M247.62,296.22c.79,3.24,1.57,6.42,2.33,9.61.35,1.47.55,3,1,4.42a80.66,80.66,0,0,1,1.71,8.59c.23,1.18,0,1.44-1.07,1.75-3.19.91-6.39,1.8-9.59,2.7a12.94,12.94,0,0,0-7.52,5.22,2.26,2.26,0,0,1-1.92,1.23l-12.67.18a.69.69,0,0,1-.49-.24c-.22-.31,0-.58.21-.77,4.26-3.78,7.48-8.44,10.83-13a65.69,65.69,0,0,0,3.58-6c.31-.52.55-1.06,1.26-1.17,5.76-.94,8.74-4.9,10.77-9.91C246.41,298,246.44,296.87,247.62,296.22Z"/><path class="cls-1" d="M137.86,159.79a2.09,2.09,0,0,1,0-1.57,228.9,228.9,0,0,1,8.39-28.66,146.76,146.76,0,0,1,8-18.22c.8-1.51,1.73-2.95,2.67-4.38a8.33,8.33,0,0,1,2.6-2.5c.58-.36,1.28-.94,1.93-.6s.29,1.26.16,1.88a29.71,29.71,0,0,0-1,8.37,3.69,3.69,0,0,1-.79,2.23,33.24,33.24,0,0,0-2.64,5.75,213.56,213.56,0,0,0-7.55,23.55c-1.1,4.39-2.6,8.68-3.41,13.14-.18,1-.46,1.24-1.4,1.22C142.41,160,140.1,159.86,137.86,159.79Z"/><path class="cls-1" d="M214.87,161.74c-1.89-.11-3.29-.2-4.7-.26a.84.84,0,0,1-.81-.74,15.25,15.25,0,0,1-.36-2.07,217.47,217.47,0,0,0-3.47-23.28c-.61-3-.79-6-1.35-9-1-5.35-1.23-10.8-2.2-16.16-.25-1.38-.63-2.74-.93-4.12-.13-.6.28-.92.85-.82a4.28,4.28,0,0,1,2.22,1.47,15.43,15.43,0,0,1,3.33,6c2.38,6.85,4.44,13.79,6.15,20.83,1.19,4.89,2.05,9.86,3.09,14.78.74,3.54,1.53,7.08,2.29,10.62a14.12,14.12,0,0,1,.26,1.48.67.67,0,0,1-.65.81Z"/><path class="cls-2" d="M374.88,331c.24,3.34-1.21,6.07-2.63,8.7a30.42,30.42,0,0,1-9.4,10.1c-.39.28-1,.66-1.35.56-1.26-.37-2.11.33-3.09.83-2.22,1.13-4.68,1.06-7.08,1.24a3.06,3.06,0,0,1-1.16-.29c-1.53-.54-2-1.56-1.33-3.09a5.67,5.67,0,0,1,.6-1,11.92,11.92,0,0,0,1.51-3.61,30.63,30.63,0,0,0,0-15.83c-1.56-3-2.45-6.41-5.66-8.36a20.91,20.91,0,0,0-4.06-1.95,6.3,6.3,0,0,1-1.39-.54,1.76,1.76,0,0,1-.73-1.58c0-.56.53-.77,1-1q1.55-.6,3.06-1.29a9.93,9.93,0,0,1,3.2-.84,3.48,3.48,0,0,1,3.49,1.33c1.07,1.51,2.46,1.73,4.23,1.57a13.53,13.53,0,0,0,5.8-1.48c2.84-1.67,5.27-.59,7.59.94a9.82,9.82,0,0,1,3.2,3.58,55.11,55.11,0,0,1,3.68,8.61A8,8,0,0,1,374.88,331Z"/><path class="cls-2" d="M165.08,194.58c-9.87.47-22.89.08-35.9.29-1.11,0-2.22,0-3.33-.1-.61,0-1.23-.17-1.35-.94a1.62,1.62,0,0,1,1.14-1.88,6.56,6.56,0,0,1,1.19-.18c1-.07,2-.13,3-.15,13.31-.21,26.63-.3,39.94-.64,16.64-.44,33.29-.46,49.93-.45,2.52,0,5,.08,7.56.12a4.38,4.38,0,0,1,2.33.52,1.14,1.14,0,0,1,.61,1,.93.93,0,0,1-.67.9,10.09,10.09,0,0,1-3.26.56l-10.28.32C200.09,194.42,184.16,194.44,165.08,194.58Z"/><path class="cls-2" d="M208.87,254c5.51,0,9.75,0,14,0,1.11,0,2.21-.18,3.31-.24a3,3,0,0,1,2,.34c.58.41,1.19.87,1.14,1.67s-.82,1-1.52,1.19a8.5,8.5,0,0,1-1.19.21,114.46,114.46,0,0,1-13.28.48,140.66,140.66,0,0,0-16.94.09c-4.53.31-9.06.52-13.59.81-5.33.34-10.66.75-16,1.07s-10.88.53-16.31.87c-7.75.47-15.49,1-23.24,1.51-2.21.13-4.44.1-6.65.11a.8.8,0,0,1-.73-1.07,2.29,2.29,0,0,1,2.07-1.9c2-.16,4-.44,6-.56,4.53-.28,9.06-.48,13.59-.74,7.25-.41,14.49-1,21.74-1.23,7.76-.28,15.51-.82,23.25-1.45S202.28,254.12,208.87,254Z"/><path class="cls-2" d="M181.88,214.18H132c-.91,0-1.82,0-2.72-.08a.94.94,0,0,1-.72-1.36,1.85,1.85,0,0,1,1.71-1.47c.5,0,1,0,1.51,0,4.64,0,9.28-.1,13.93-.12,10.29-.05,20.59.1,30.88-.18,11.61-.31,23.21-.14,34.81-.19,5.85,0,11.7.16,17.55.25a2.61,2.61,0,0,1,2.2.74,1,1,0,0,1-.24,1.54,4.75,4.75,0,0,1-1.44.38c-1.41.09-2.82.14-4.23.16-3.83,0-7.67.11-11.5.09C202.37,213.84,191,214.47,181.88,214.18Z"/><path class="cls-2" d="M204.9,173.78l18.27-.56a5.93,5.93,0,0,1,1.5.1,1.44,1.44,0,0,1,1.13,1.27,1.29,1.29,0,0,1-.8,1.47,7.33,7.33,0,0,1-2.93.65c-1.61,0-3.22,0-4.83,0-7.06,0-14.12,0-21.18-.12-8.26-.16-16.52,0-24.78.17-6.75.15-13.49.67-20.23,1-1.61.08-3.23.06-4.84.09-3.63.07-7.26.16-10.89.21-1.31,0-2.62-.07-3.93-.16-.5,0-1-.23-1-.87a1.42,1.42,0,0,1,.7-1.26,4.08,4.08,0,0,1,2.34-.47c4.13-.15,8.26-.32,12.39-.4,5.95-.12,11.9-.1,17.85-.27,7.55-.21,15.11-.56,22.66-.84.71,0,1.41,0,2.12,0Z"/><path class="cls-2" d="M174.78,234c8.06.11,16.13.19,24.19.35,7.56.15,15.11.39,22.66.59a15.48,15.48,0,0,1,2.1.18,2.25,2.25,0,0,1,1.47,1,1.07,1.07,0,0,1-.2,1.35,4.18,4.18,0,0,1-2.59.65q-3.18,0-6.35,0c-7-.06-13.91-.15-20.87-.21-6.15-.05-12.3,0-18.45-.12-7.66-.14-15.31-.38-23-.6-2.11-.06-4.23-.16-6.34-.28a1.12,1.12,0,0,1-1-1.7,2,2,0,0,1,1.78-1.41c1.51,0,3-.08,4.53,0a66.12,66.12,0,0,0,10,0,24.48,24.48,0,0,1,4.23,0C169.54,234.07,172.16,234,174.78,234Z"/><path class="cls-2" d="M106.68,323.56c1.52.15,3,.26,4.52.47a44.41,44.41,0,0,0,6.32.37h15.4a6.34,6.34,0,0,1,2.67.32,1,1,0,0,1,.68.91.81.81,0,0,1-.78.77c-1.6.17-3.2.38-4.8.44-3.22.13-6.44.17-9.66.26-.8,0-1.62,0-2.41.1a31.52,31.52,0,0,1-11.38-.68,14.78,14.78,0,0,0-4.21-.05c-.6,0-1.28.06-1.5-.68A1.66,1.66,0,0,1,102.8,324c.78-.17,1.59-.24,2.39-.33C105.69,323.63,106.19,323.6,106.68,323.56Z"/><path class="cls-2" d="M251.65,320.44a15.17,15.17,0,0,1-6.71,2.94,3.31,3.31,0,0,0-2.11,1c-.9,1-2.44.93-3.37,1.93a6.92,6.92,0,0,0-2.29-.17,61.71,61.71,0,0,1-14.76.37c-.3,0-.64-.15-.62-.52a1.21,1.21,0,0,1,.27-.81,4.22,4.22,0,0,1,1.29-.74,13.74,13.74,0,0,1,3.87-.6,109.76,109.76,0,0,0,12.33-1.17c2.88-.48,5.78-.87,8.62-1.59C249.31,320.81,250.49,320.66,251.65,320.44Z"/><path class="cls-2" d="M120.19,304.62c.4,0,.8-.07,1.2-.07,1.93,0,2.34.51,2,2.36a1.25,1.25,0,0,1-1.14,1.19,15,15,0,0,1-1.81.09c-4.62,0-9.26-.15-13.86.54-.7.1-1.46.1-1.76-.76a2.09,2.09,0,0,1,.92-2.6,2.76,2.76,0,0,1,1.15-.29C111.36,305.08,115.78,304.87,120.19,304.62Z"/><path class="cls-2" d="M216.27,158c-2.73,0-5.35-.74-8-1.12a1,1,0,0,1-.63-.52c-.2-.42.11-.77.37-1.05a1.64,1.64,0,0,1,1.36-.5q4.64.38,9.27.8a1.86,1.86,0,0,1,.82.33,1.17,1.17,0,0,1,.52,1,.81.81,0,0,1-.7.84C218.26,157.93,217.26,157.95,216.27,158Z"/><path class="cls-2" d="M212.35,144.49h3.92a2,2,0,0,1,1.37.53,1,1,0,0,1-.23,1.75,3.33,3.33,0,0,1-.86.25,43.73,43.73,0,0,1-9.62-.12.91.91,0,0,1-.86-.69,1.14,1.14,0,0,1,.44-1.06,2.19,2.19,0,0,1,1.63-.66h4.22Z"/><path class="cls-2" d="M210.87,134.29c.91,0,1.81,0,2.72,0a3.89,3.89,0,0,1,1.18.17,1.11,1.11,0,0,1,.73.89.86.86,0,0,1-.52,1,4.54,4.54,0,0,1-1.43.46,42.13,42.13,0,0,1-7.84-.12.94.94,0,0,1-.9-.67c-.13-.57.27-.93.71-1.21a3.61,3.61,0,0,1,2-.49h3.32Z"/><path class="cls-2" d="M146.71,156.16a56.57,56.57,0,0,1-7.8-1.12c-.43-.08-.8-.34-.8-.77a1.15,1.15,0,0,1,.89-1.09,2.39,2.39,0,0,1,.89-.1c2.51.24,5,.48,7.51.77a2.51,2.51,0,0,1,1.1.44,1.07,1.07,0,0,1,.49,1,.86.86,0,0,1-.81.75C147.58,156.16,147,156.15,146.71,156.16Z"/><path class="cls-2" d="M241.82,305.32c.38-1,1.52-1.16,1.19-2.24-.12-.41.31-.74.7-.86a14,14,0,0,1,5-.83c1,.06,1.32.42,1.44,1.55s-.17,1.52-1.24,1.68A37.23,37.23,0,0,1,241.82,305.32Z"/><path class="cls-2" d="M151,136.24a21.27,21.27,0,0,1-6.46-1.16c-.4-.15-.74-.46-.64-.87a1.66,1.66,0,0,1,.67-.92,1.83,1.83,0,0,1,1.13-.24c2.37.31,4.74.66,7.11,1l.29.06c.72.2,1.2.74,1.08,1.22-.19.71-.79.84-1.39.89S151.6,136.24,151,136.24Z"/><path class="cls-2" d="M142.69,142.76c.7.13,1.58.3,2.47.45,1.39.23,2.78.42,4.17.66a6.22,6.22,0,0,1,1.43.42.86.86,0,0,1,.46,1c-.06.24-.36.45-.6.6a1.32,1.32,0,0,1-.59.08,24.39,24.39,0,0,1-8.33-1.1c-.49-.15-1-.39-.86-1s.55-.81,1.05-.95C142.09,142.84,142.29,142.82,142.69,142.76Z"/><path class="cls-2" d="M207.82,124.12c1.1,0,2.19,0,3.29,0a2.39,2.39,0,0,1,1.12.33.9.9,0,0,1,0,1.5,2.29,2.29,0,0,1-1.09.41,28.05,28.05,0,0,1-7.74-.44.9.9,0,0,1-.57-.59,1,1,0,0,1,.33-.75,2.3,2.3,0,0,1,1.65-.58c1,0,2,0,3,0Z"/><path class="cls-2" d="M155.25,114.31l5.66.53a1,1,0,0,1,.55.22,1.78,1.78,0,0,1,.47.71.57.57,0,0,1-.42.71,10,10,0,0,1-2.06.41,39.73,39.73,0,0,1-7.21-.74A.49.49,0,0,1,152,116c-.2-.2-.46-.4-.54-.65s.2-.54.47-.68A7.64,7.64,0,0,1,155.25,114.31Z"/><path class="cls-2" d="M153.76,126.52c-1.77-.22-3.65-.45-5.51-.72a1,1,0,0,1-.66-.51c-.17-.41.13-.73.44-1a2,2,0,0,1,1.4-.41,46.85,46.85,0,0,1,7.11.86.68.68,0,0,1,.58.88,1,1,0,0,1-.57.6C155.66,126.38,154.77,126.43,153.76,126.52Z"/><path class="cls-2" d="M207.31,116.91a18.25,18.25,0,0,1-4.82-.9.57.57,0,0,1-.44-.66,1.31,1.31,0,0,1,.46-.71,1.45,1.45,0,0,1,.82-.3c1.59,0,3.18,0,4.76.06a1.77,1.77,0,0,1,1.07.43,1.85,1.85,0,0,1,.46,1,.79.79,0,0,1-.69.84A14.2,14.2,0,0,1,207.31,116.91Z"/><path class="cls-2" d="M114.67,282.08a5.23,5.23,0,0,1,.94.21,1.22,1.22,0,0,1,.81,1.16,1,1,0,0,1-.81,1.11,16.9,16.9,0,0,1-2.35.47,1,1,0,0,1-.93-1.24C112.58,282.6,113.19,282.1,114.67,282.08Z"/><path class="cls-3" d="M165.78,100c-1.74-2.68-2.43-5.63-3.64-8.23-.71-.09-.86.33-1.12.61a13.15,13.15,0,0,1-1.5,1.48,4.46,4.46,0,0,1-4.8.83A4.76,4.76,0,0,1,152,90.34a11.85,11.85,0,0,1,2.42-7.63c.59-.85,1.17-1.59.82-2.73-.28-.91.14-1.95-.84-2.76a3.35,3.35,0,0,1-.95-3.07,5.07,5.07,0,0,0-.67-3.16,4.07,4.07,0,0,1,.51-4.55,1.18,1.18,0,0,1,.18-.24c2.4-1.93,2.87-4.66,3.27-7.5.49-3.49,1.34-6.92,1.79-10.41.41-3.12.87-3-2.07-5a13.6,13.6,0,0,0-1.55-.94c-3.87-2-6.82-5-9.52-8.28a11.84,11.84,0,0,1-2.7-8.16,15.69,15.69,0,0,1,4.13-10.15c1.91-2.12,4.46-2.61,7-3.12a5.43,5.43,0,0,1,1.5-.09,1.54,1.54,0,0,0,1.56-.68c2.67-3.93,6.53-3.52,10.25-1.94A6.82,6.82,0,0,1,169,11c1.44,1.26,2.88,1.05,4.43.25a28.15,28.15,0,0,1,7.13-2.45,20.25,20.25,0,0,1,16.88,3.73c.49.36,1,.74,1.41,1.14a3.07,3.07,0,0,0,2.49.82,18.09,18.09,0,0,1,2.72,0,11.66,11.66,0,0,1,6.22,2.09,43.31,43.31,0,0,1,5.12,4.25,12.68,12.68,0,0,0,5.19,3,16.11,16.11,0,0,1,6,2.87,12.26,12.26,0,0,1,4.41,6,4.9,4.9,0,0,0,1.86,2.66c3,2.28,4,5.38,3.67,9.06A15.74,15.74,0,0,1,230,55.86a13,13,0,0,1-10.26,2.61,25.92,25.92,0,0,1-2.95-.67,18.89,18.89,0,0,0-6.62-.25c-1.09.09-1.52.61-1.71,1.78-.43,2.59-.87,5.17-1.24,7.77-.31,2.18-.76,4.35-.21,6.59a13.08,13.08,0,0,1,.08,3.32,3.26,3.26,0,0,1-.86,2.51c-1,.87-1.08,2-1.46,3.17a7.14,7.14,0,0,0,.46,5.48,11.76,11.76,0,0,1,.76,5.35A4.8,4.8,0,0,1,202.57,98c-1.91.58-3.81.66-5.26-1.13a12.75,12.75,0,0,0-.95-1.15.41.41,0,0,0-.7.14,5,5,0,0,0-.1,2.39,1.09,1.09,0,0,0,.74.88,4.8,4.8,0,0,1,2.21,1.54,6.66,6.66,0,0,0,4.42,2.87,3.23,3.23,0,0,1,1.28.76,9.08,9.08,0,0,1,2.78,3.16c1.24,2.62,3.48,3.78,6.08,4.55q7.68,2.25,15.34,4.57a19.39,19.39,0,0,1,3.39,1.26c2.42,1.27,5,2.1,7.52,3.12a28,28,0,0,1,8.8,5.18,19.58,19.58,0,0,1,3.39,4.21c2.4,3.93,3.63,8.26,4.7,12.68a191.34,191.34,0,0,1,3.72,21.73c.63,5.1,1.46,10.16,2.16,15.25.31,2.29.47,4.61.77,6.9.68,5.09,1.2,10.21,2.29,15.24.81,3.74,1.69,7.47,2.47,11.22q1.58,7.55,3,15.12c.42,2.18.77,4.37,1.11,6.56a8.72,8.72,0,0,1-.29,5.06,2.85,2.85,0,0,0,0,2.07,10.77,10.77,0,0,1-1,8.19,7,7,0,0,0-.66,4.05c.26,2.33-.3,4.59-.58,6.88s.38,4.38,0,6.6a18.51,18.51,0,0,1-7,11.66,49.71,49.71,0,0,1-9.24,5.7c-.91.44-1.5.9-1.54,2a8.4,8.4,0,0,1-1.7,4.14,5.26,5.26,0,0,0-.72,4c.43,2.4,1.25,4.67,1.78,7q1.84,8.11,3.72,16.2c.2.87.63,1.13,1.54.88,6.8-1.86,13.61-3.67,20.38-5.61,6-1.71,12-3.39,17.93-5.38,6.58-2.22,13.05-4.78,19.58-7.16,4.26-1.56,8.51-3.13,12.87-4.38a13.36,13.36,0,0,1,11.26,1.84,14.19,14.19,0,0,1,3.23,3.48,8,8,0,0,0,2.91-1.08c.8-.43,1.63-.79,2.44-1.19a5.44,5.44,0,0,1,4.93.16,4.36,4.36,0,0,1,2.83,4.24,13,13,0,0,1-.1,2.11c-.12.75.14,1.08.85,1.29a1.63,1.63,0,0,1,1.08,1.34,14.82,14.82,0,0,0,.58,1.66c.87,0,1.3-.65,1.9-1A5.93,5.93,0,0,1,361,309c1.74-.19,2.56.66,2.38,2.46,0,.29-.12.57-.21,1,4,1,6.6,3.77,8.63,7.09a23.73,23.73,0,0,1,3.12,7.5c1,5,.44,9.84-2.59,14.16-.87,1.24-1.74,2.48-2.69,3.66a21,21,0,0,1-11.35,7.06c-1,.28-2.09.88-3.23.53a1.18,1.18,0,0,1-.59-.6c-.17-.35.14-.59.4-.68a16.71,16.71,0,0,1,1.75-.45c5-1.12,9.25-3.38,12.35-7.55.36-.49.73-1,1.12-1.43a16.32,16.32,0,0,0,3.72-11.82,14.86,14.86,0,0,0-.75-3.84,22.09,22.09,0,0,0-5.23-9.09,9.82,9.82,0,0,0-3.41-2.45c-1.39-.52-2.64-1-4.17.32a5.93,5.93,0,0,1-5.63,1.28,3.18,3.18,0,0,0-3,1.16c-.5.49-.94,1-1.44,1.55a.5.5,0,0,1-.78,0c-.16-.21-.33-.61-.23-.79.41-.8.91-1.56,1.4-2.36-1.14-1.49-2.45-2.7-4.53-2.4-2.27.34-4.62.58-5.85,2.92.31.62.86.67,1.29.87a18.61,18.61,0,0,1,10.62,13.81c1.21,6,0,11.61-2.25,17.11-.19.47-.47.89-.68,1.35-.4.86-.39.87.76,1.38l.28.1c.39.1.39.43.33.7a.62.62,0,0,1-.39.39A2.55,2.55,0,0,1,349,352a2.21,2.21,0,0,0-2.43.76c-5.28,5.87-17.42,8.44-26.23,4.76a13,13,0,0,1-5.33-3.83c-.43-.54-.73-1.23-1.57-1.46-.61.74-1.21,1.54-1.88,2.26-1,1.11-2.12,2.18-3.76,2.31-.58,0-.87.45-1.21.81a8.48,8.48,0,0,1-5.9,2.69,5.12,5.12,0,0,0-2.7,1.08,9.39,9.39,0,0,1-11.49-.56,3.2,3.2,0,0,0-2.41-.85,10,10,0,0,1-6.05-1.56,4.86,4.86,0,0,1-2.29-2.7,39.34,39.34,0,0,0-2.89-6.53,11.26,11.26,0,0,0-2.72.65c-1.95.82-4,1.5-5.87,2.4-2.28,1.08-4.68,1.86-7,2.79-3.45,1.37-7.07,1.54-10.68,1.78a7.32,7.32,0,0,1-5.79-2.12c-.94-.91-1.94-1.77-2.8-2.76a2.86,2.86,0,0,0-2.7-1c-2.51.34-5,.82-6.87,2.76a15.17,15.17,0,0,1-4.06,2.6c-2.54,1.31-4.94.67-7.1-.88a5.91,5.91,0,0,1-2.31-5.89,8.66,8.66,0,0,1,6.94-7.42,21.66,21.66,0,0,1,4.82-.34,8.82,8.82,0,0,0,4.66-1.09c.46-.25.92-.56.86-1.13-.26-2.52.51-5,.49-7.43a2.77,2.77,0,0,0-2.1-.43c-4.23,0-8.46.06-12.68,0a5.78,5.78,0,0,0-3.67,1A64.38,64.38,0,0,1,202.94,339a59.31,59.31,0,0,1-30.71,4.64,61.33,61.33,0,0,1-23.88-8,64.28,64.28,0,0,1-9.56-6.85,3,3,0,0,0-2.13-.79c-11.18,0-22.37-.17-33.55-.26-1.45,0-1.77.27-1.76,1.75,0,3,.12,6,.22,9.06a11.62,11.62,0,0,1-.72,4.45,6.65,6.65,0,0,1-4.92,4.07,35,35,0,0,1-8.62,1.45c-.84,0-1.08.43-.83,1.16.39,1.14.87,2.26,1.19,3.42a5.34,5.34,0,0,1-2,5.93c-1.58,1.23-3.33,2.38-5.5,2.17a2.36,2.36,0,0,0-2.31,1.08c-.12.16-.28.29-.4.46-1,1.48-2.42,1.64-4,1.14a27.89,27.89,0,0,1-4.88-1.58c-.44-.23-.93-.41-1.35-.67-1-.63-1.15-1.31-.46-2.24.53-.73,1.12-1.41,1.82-2.28-1.08-1-2.26-2-2.43-3.68-1.35.57-2.4,1.1-3.5,1.45s-2.32-.35-3.38-.72a6,6,0,0,0-1.68,2.25,4,4,0,0,1-3.44,2.15,11.09,11.09,0,0,1-9.29-3.48c-.69-.73-1.51-1.6-1.32-2.62.22-1.19-.17-1.58-1.2-1.9a7.59,7.59,0,0,1-3.08-2.13,21.65,21.65,0,0,1-8.88,4.17c.25.72.83.51,1.26.63A3,3,0,0,1,33.94,356a7,7,0,0,1-3.41,7.19,10.88,10.88,0,0,1-8.06,1.67c-5-.88-9.12-6.45-7.19-12.86a3.45,3.45,0,0,1,3.2-2.79c.93,0,1.13-.54.63-1.49a12.12,12.12,0,0,1-1.11-7,9.23,9.23,0,0,1,3.46-6.79c1.5-1.16,2-2.38,1.14-4.11a2,2,0,0,1-.15-.58c-.66-3.78.35-5.42,4.09-6.35a27.39,27.39,0,0,1,4.18-.65,1.76,1.76,0,0,1,1.94,1.53c.15.79.14,1.61.29,2.4a14,14,0,0,0,.83,3.21,2.81,2.81,0,0,0,2.09,1.94c1.41.28,2.44,1.36,3.75,2.14.31-.19.63-.41,1-.6a8.93,8.93,0,0,1,12.11,2.3c.56.72,1,1.11,2,.77a11.16,11.16,0,0,1,6-.06,2.63,2.63,0,0,0,1.48.15c.4-.39.32-.9.29-1.39-.3-6.95-.67-13.89-.9-20.84-.11-3.42,0-6.85.1-10.28a9,9,0,0,1,4.18-7.34,29.47,29.47,0,0,1,4.55-3,4.53,4.53,0,0,0,2.73-4c.07-.9.1-1.81.12-2.72,0-.4.09-.95-.12-1.18-1.62-1.76-1-4-1.45-6.05a8.07,8.07,0,0,1-.06-2.11,3.79,3.79,0,0,1,3-3.76c4-.87,8.13-1.44,12.26-.21a3.61,3.61,0,0,1,2.88,3.41c.14,1.81.12,3.63.11,5.44a2.42,2.42,0,0,1-1,2.11,2.62,2.62,0,0,0-1,2.64c.14,4.3-.44,3.79,3.38,5.29a30.47,30.47,0,0,1,5.54,3.08A6.21,6.21,0,0,1,99.35,299a45.89,45.89,0,0,1,1.14,9.29c.12,3.6.8,7.15.63,10.85,1-.42,1-1.22,1.12-1.87,1.46-6,2.83-12,4.38-17.91,2-7.8,4.42-15.49,7.07-23.12,1.92-5.53,3.87-11,6.06-16.46,1.13-2.8,2.36-5.57,3.5-8.37a22.26,22.26,0,0,0,.84-2.58.81.81,0,0,0-.42-1c-.45-.22-.91-.43-1.35-.67a1.42,1.42,0,0,0-1.67.09c-3.6,2.6-7.82,3.06-12.06,3.34a18.8,18.8,0,0,1-3-.3c-3.41-.34-6.83-.63-10.23-1a3.27,3.27,0,0,0-2.91,1.06c-4.82,4.51-10.1,8.3-16.59,10.17a8.67,8.67,0,0,1-7.76-1,50.28,50.28,0,0,1-8.54-7.19,1.15,1.15,0,0,1-.19-.24c-1.62-3-3.93-5.59-5-8.91A55.83,55.83,0,0,0,52,237.27c-2-4.39-2.16-9-1.61-13.64a21.94,21.94,0,0,1,1.35-5.87,6.42,6.42,0,0,1,.89-1.91c1.56-1.71,2.14-3.86,2.75-6,1.5-5.18,4.13-9.83,6.61-14.56,3.75-7.15,8.28-13.83,12.52-20.68,1.75-2.83,3.57-5.61,5.37-8.41,3.05-4.75,6-9.57,9.21-14.21,3.9-5.63,7.83-11.25,12.11-16.62,2.64-3.31,5.25-6.64,8.15-9.74a64.76,64.76,0,0,1,9.84-8.47,13.74,13.74,0,0,1,5.56-2.26c4.46-.81,8.95-1.51,13.4-2.4a127.48,127.48,0,0,0,13-2.78,6.07,6.07,0,0,0,3.82-2.68,12.24,12.24,0,0,1,3.09-3.3,9,9,0,0,1,2.38-1.27c.93-.36,2,0,2.9-.71C164,101.24,164.8,100.73,165.78,100Zm38.51-5.38a.67.67,0,0,0-.74.15c-2.35,1.84-4,1.61-5.77-.71-.2-.26-.16-1-.85-.72a3.73,3.73,0,0,0,6.59,2.17,11,11,0,0,0,.7-1c.9-2.62,0-5-1.07-7.32.28,1.19.84,2.34,1,3.54A25.71,25.71,0,0,1,204.29,94.64ZM309.1,354.52a6.92,6.92,0,0,0,3.23-3.84,9.76,9.76,0,0,0-2.1-10.64,17.07,17.07,0,0,0-6.06-3.85,3.61,3.61,0,0,1-1.75-1.1.61.61,0,0,1-.07-.53.58.58,0,0,1,.51-.17c.68.16,1.34.42,2,.56s1.26.81,2.12.65a2.7,2.7,0,0,0-1.45-1.21,37.75,37.75,0,0,0-6.41-1.72,2.15,2.15,0,0,0-1.46.24,1.29,1.29,0,0,1-1.61-.46A17.18,17.18,0,0,1,295,331a36.87,36.87,0,0,1-2.69-5.05c-.17-.32-.47-.7-1-.44a24.75,24.75,0,0,0-3.21,1.36l2.09,4.24a5,5,0,0,1,.44,3.52c0,.13-.29.27-.46.29s-.46-.07-.52-.19a6.79,6.79,0,0,1-.31-1.08c-.79,0-1.16.54-1.65.84-1.38.83-2.66,1.85-4.11,2.54a23.74,23.74,0,0,0-6.39,5,7.9,7.9,0,0,0-2,3.36,5.16,5.16,0,0,0-.15,3.53c3.3-6.16,3.3-6.16,5.25-7.08a22.35,22.35,0,0,1-1.73,3.33,13.2,13.2,0,0,0-1.7,4.5c-1,4.87,1,8.32,6.48,8.62,1.11.06,1.44-.26,1.09-1.44a11.18,11.18,0,0,1-.4-4.49,27.44,27.44,0,0,1,1.83-7.61,14.74,14.74,0,0,1,1.37-2.33.51.51,0,0,1,.74-.15.58.58,0,0,1,.07.54,27.81,27.81,0,0,0-2.38,9,13.18,13.18,0,0,0,.83,5.91,4.29,4.29,0,0,0,2,2.55,8.22,8.22,0,0,0,5.23.95,7.53,7.53,0,0,0,6.16-5.5,9.38,9.38,0,0,0,0-5.94c-.24-.77-.53-1.52-.76-2.29-.14-.49-.27-1.19.14-1.41s.85.33,1.1.77a11.39,11.39,0,0,1,1.41,7.27,20.49,20.49,0,0,1-.33,2.09c-.17.74-.43,1.45-.71,2.37a6.3,6.3,0,0,0,6-3.76,9.1,9.1,0,0,0,.06-8.44,13.65,13.65,0,0,1-1.14-3.42c-.07-.29-.13-.64.2-.77.52-.2.72.29.86.61a19.07,19.07,0,0,0,1.14,2.77,7.21,7.21,0,0,1,1.05,4,15.15,15.15,0,0,1-.43,4.49c-.14.24-.28.52,0,.72S309,354.75,309.1,354.52ZM137.66,238.66a4.12,4.12,0,0,0,2.1,1.49l-1.5-2.3c-.41-1.72-1.6-3-2.56-4.41-1.54-2.24-3.2-4.4-4.79-6.61a4.28,4.28,0,0,1-1.16-2.06c0-.16.17-.34.3-.49s.19-.06.29,0a1.4,1.4,0,0,1,1,.66c2.24,3.11,4.5,6.21,6.72,9.33.63.88,1.17,1.83,1.88,3,.84-.8,1.34-1.79,2.39-1.91s1.92-.14,2.93-.22a4.64,4.64,0,0,0-.06-1,36.64,36.64,0,0,0-5.67-11.29,18.93,18.93,0,0,0-9.42-6.78,7.86,7.86,0,0,0-7.49.91,7.67,7.67,0,0,1-2.91,1.56,5,5,0,0,0-3.8,3.51,3.55,3.55,0,0,1-1.27,2c-1.65.92-2.25,2.49-2.87,4.11a12,12,0,0,1-2.82,4.61c-.48.45-1.07,1.3-1.74.76-.94-.75.22-1.12.58-1.59.84-1.08,1.93-2,1.91-3.56a2.54,2.54,0,0,0-.64-.24A41.56,41.56,0,0,1,96.56,226a26.09,26.09,0,0,0-9.24-1.31A9.44,9.44,0,0,0,78.79,230c-.34.61-.42,1.45-.88,1.91-2.2,2.16-2.41,5-2.83,7.78a19.91,19.91,0,0,0-.43,4.81c.2,2.28.75,2.77,3,2.75H78c5.14,0,10.28-.13,15.41.12,4,.19,8,.84,12,1.36a23.35,23.35,0,0,0,6.34,0,17.6,17.6,0,0,0,7.43-2.33c.43-.28.44-.72.06-1a25.85,25.85,0,0,1-5-4.34c-.72-.78-1.76-1.39-1.75-2.67,1.35-.3,1.87.87,2.54,1.57a28.2,28.2,0,0,0,13,7.41,21.84,21.84,0,0,0,3.27.53c.26,0,.63,0,.65-.39a.67.67,0,0,0-.24-.48c-.47-.37-1-.7-1.47-1.06-2.84-2.1-5.68-4.19-8.5-6.32a10.6,10.6,0,0,1-2.93-3c-.15-.25-.25-.62,0-.81a1.07,1.07,0,0,1,.82-.12,2.2,2.2,0,0,1,.71.54,129.3,129.3,0,0,0,12.55,9.45,14.07,14.07,0,0,0,6.08,2.55c1.22.17,2.47.14,3.25-1.06.49-.74-.1-1.88-1.62-2.9a31.11,31.11,0,0,1-3.46-2.93c-3.65-3.33-6.9-7.08-10.8-10.15a20.25,20.25,0,0,1-2-1.88,1.76,1.76,0,0,1-.4-.79.66.66,0,0,1,.2-.52c.12-.11.42-.21.52-.14.58.4,1.13.83,1.67,1.28Zm102.5-65.79a16.21,16.21,0,0,0,1.53-3.28q1.57-3.59,3.2-7.17a.68.68,0,0,1,.68-.49c.44,0,.35.4.37.65a7.83,7.83,0,0,1-.93,3.78c-2.67,6.31-5.45,12.57-8,18.94-1.81,4.59-3.27,9.31-4.84,14a4.19,4.19,0,0,0,0,1.79,30.52,30.52,0,0,1-.06,8.74c-.35,2.19-.58,4.4-.92,6.59a8.91,8.91,0,0,0-.15,2.09c.33,4.22.66,8.44.89,12.67a14.21,14.21,0,0,0,1.22,5.57,5.27,5.27,0,0,1,.22,4.37,12.29,12.29,0,0,0-.52,6.53,5.3,5.3,0,0,0,.93-.4,22.75,22.75,0,0,1,7.41-3.31c4.56-1.28,9.17-1.07,13.8-.69a10,10,0,0,1,4.46,1.72c3.56,2.2,5.87,5.43,7.78,9,.26.5.29,1.17,1,1.41a2.41,2.41,0,0,0,.14-1.78,3.72,3.72,0,0,1,.6-3.4,10,10,0,0,0,1.34-5.51,6.27,6.27,0,0,0-3.13-5.82,22.27,22.27,0,0,1-2.56-1.6,8.35,8.35,0,0,0-3.59-1.48,25.26,25.26,0,0,0-3.58-.61,27.86,27.86,0,0,0-7.24,0c-.66.12-1.29.69-2,.22-.37-.25.4-1,1.56-1.56a7.24,7.24,0,0,1,2.94-.59,45.18,45.18,0,0,1,8.13.77,10.09,10.09,0,0,1,5.21,2.23,7.47,7.47,0,0,0,1.82,1.06c.69.33,1.14,1.16,2,1.09a2.53,2.53,0,0,0,.23-1.79,53,53,0,0,0-1.17-7.75c-1-4.63-1.69-9.33-2.82-13.93A231.06,231.06,0,0,1,261,185.83c-.43-3.81-.85-7.62-1.36-11.41-.43-3.2-1.12-6.36-1.45-9.56a177.54,177.54,0,0,0-4.34-24.39,34.93,34.93,0,0,0-4-9.74,9.74,9.74,0,0,0-3.68-3.86,2.81,2.81,0,0,0-1.31,2,47.81,47.81,0,0,0-1.38,5.57c-.62,3.88-1.08,7.78-1.59,11.68-.27,2.1-.55,4.2-.73,6.31-.56,6.63-1.08,13.27-1.62,19.9a2.91,2.91,0,0,0-.19.79,2,2,0,0,0,.27.65c.17-.21.34-.41.5-.62A1.07,1.07,0,0,0,240.16,172.88ZM57.76,210.73c2.14-.56,4.28-1.12,6.42-1.65.25-.06.65,0,.57.42,0,.18-.14.43-.28.49a34,34,0,0,1-3.4,1.26c-4.65,1.29-7.32,4.47-8.44,9a29.49,29.49,0,0,0-.74,10.5c.43,3.66,2.06,6.93,3.47,10.27.16.38.18,1,1,.94,0-1.1-.06-2.21,0-3.31.55-9.47,4.75-16.77,13.15-21.36,6.5-3.55,13.18-4.13,19.91-.49.2.11.51.39.71-.09a13.61,13.61,0,0,0-3.58-4.38,20.89,20.89,0,0,0-7.7-4,7.48,7.48,0,0,1-2.82-1c-.11-.09-.12-.33-.12-.51a.28.28,0,0,1,.18-.21,10.58,10.58,0,0,1,2.1,0,20.05,20.05,0,0,1,8.24,3.55,17.93,17.93,0,0,1,6.3,8.32c.34.84.56,1.74,1.55,2.13a22.13,22.13,0,0,1,1.7-4.17c1.67-2.51,3.23-5.1,5.14-7.47,3.49-4.31,6.93-8.66,10.15-13.16,3.34-4.66,6.38-9.55,9.61-14.29a2.75,2.75,0,0,0,.17-3.31,70.19,70.19,0,0,1-4.19-8.69c-.81-2.06-1.63-4.11-2.46-6.16-.26-.65-.57-1.29-.82-1.95a4.09,4.09,0,0,1-.31-1.16c0-.26.1-.68.28-.76a.87.87,0,0,1,.77.25,5.47,5.47,0,0,1,.54,1.07c2.38,4.66,3.87,9.72,6.41,14.31.17.31.2.83,1,.64,0-.33,0-.69,0-1.06.07-3.33.09-6.66.22-10a37.82,37.82,0,0,0-.05-5.42c-.36-3.5-.84-7-1.12-10.51-.74-9-1.39-18.09-2.08-27.13,0-.4,0-.81-.1-1.2a.65.65,0,0,0-.92-.43,28,28,0,0,0-4.69,3.8,114,114,0,0,0-13.1,15.39c-4.16,5.57-8.28,11.17-12,17.05q-8.25,13-16.66,25.93a231.4,231.4,0,0,0-11.56,20.18,30.67,30.67,0,0,0-2.95,7.56c-.23.29-.39.65-.14,1S57.56,210.92,57.76,210.73ZM222.48,163a14.5,14.5,0,0,0-4.85.19,19.51,19.51,0,0,1-4.22.29c-3.42-.06-6.86.26-10.26-.4a8.48,8.48,0,0,0-1.51-.06c-3.12,0-6.25-.08-9.37-.09-9.88-.05-19.77.27-29.65-.34-5-.31-10.06-.49-15.09-.64-3.63-.11-7.26-.08-10.89-.14a1.15,1.15,0,0,0-1.29,1c-.42,2.29-1.38,4.42-1.94,6.67-.78,3.13-1.83,6.17-2.82,9.23-1.24,3.83-2.38,7.69-3.61,11.52a12.68,12.68,0,0,0-.18,6c.34,2.19.72,4.37,1,6.58a63.91,63.91,0,0,0,1.22,6.84,9.16,9.16,0,0,0,4.85,6.23,25.88,25.88,0,0,1,7,5.62,6.18,6.18,0,0,0,3.83,2.21c1.49.23,3,.58,4.44.92A3.68,3.68,0,0,1,152,227a4.77,4.77,0,0,1-2.59,5.82,16.44,16.44,0,0,1-1.75.44.81.81,0,0,0-.65,1.12c.31,1.05.14,2.23.9,3.16,2.11,2.58,4,5.39,6.35,7.69a53.69,53.69,0,0,0,15.36,10.53c4.32,2,8.77,3.56,13.1,5.48a33,33,0,0,1,10,6.73c1.21,1.2,2.59,2.23,3.86,3.37a2.44,2.44,0,0,0,1.63.64c3.52.17,7,.41,10.57.58,4.15.2,3.36.65,4.3-3.17,1.13-4.6,3.71-7.76,8.48-8.86,1.47-.34,2.94-.72,4.41-1.07.51-.12,1-.34,1.08-.9.16-1.79.72-3.52.28-5.39-1-4.22-1.63-8.51-2.69-12.71a13.74,13.74,0,0,1,.31-7.71,187.72,187.72,0,0,0,4.91-19,34.09,34.09,0,0,0,.67-12,114,114,0,0,0-2.21-11.58c-1-3.78-1.66-7.67-2.59-11.48a69,69,0,0,1-2.07-9.43C223.4,167.15,222.87,165.09,222.48,163Zm15.74,130c-.89.22-1.28.3-1.64.41-2,.65-4,1.44-6,2a155.31,155.31,0,0,1-27.15,4.32c-5.73.43-11.47.82-17.23.73s-11.71,0-17.56-.24-11.87-.79-17.78-1.53c-5.5-.69-11-1.57-16.37-2.8a66.77,66.77,0,0,1-13.5-4.33c-.35-.16-.77-.33-1.12-.06s-.24.75-.15,1.12A71.9,71.9,0,0,0,122.76,303a60.88,60.88,0,0,0,24.64,30.13,57.49,57.49,0,0,0,35.43,9,58.42,58.42,0,0,0,36-15.44,62,62,0,0,0,17.86-28C237.22,297,237.62,295.26,238.22,293ZM201.39,46.92c1.91,1.49,4.09,2.41,5.75,4.07a1.64,1.64,0,0,0,1.7.3,32,32,0,0,0,9.41-4,28,28,0,0,0,6.19-5.72c.32-.39.59-.84,1.16-.88.35,0,.27.95-.17,1.62a16.42,16.42,0,0,1-1.09,1.45,28,28,0,0,1-13.85,8.75c-.54.16-1.25,0-1.6.73l.26,3a38.36,38.36,0,0,1,4.93-.24c1.7.13,3.36.67,5,.92a15.24,15.24,0,0,0,4.51.19A14.1,14.1,0,0,0,235,45.27c.52-3.75-.23-7-3.59-9.3a4.5,4.5,0,0,1-1.76-2.75,9.43,9.43,0,0,0-2.25-3.89,12.82,12.82,0,0,0-6.62-4,15,15,0,0,1-6.73-3.88,40.57,40.57,0,0,0-4.66-3.84A10.39,10.39,0,0,0,201,16c0,.9,0,1.7,0,2.49a11.65,11.65,0,0,1-.14,1.19.34.34,0,0,1-.43.32.84.84,0,0,1-.5-.24,3,3,0,0,1-.3-1.76,3.79,3.79,0,0,0-1.27-3A19.43,19.43,0,0,0,185,9.63a22.17,22.17,0,0,0-10.45,2.66c-2.4,1.27-4.54,1.43-6.67-.39a3.79,3.79,0,0,0-.76-.5,10.5,10.5,0,0,0-4.94-1.21,3.91,3.91,0,0,0-3.69,2.17,11.8,11.8,0,0,0-1.54,5.14,29.86,29.86,0,0,0,.7,9.31,10.3,10.3,0,0,1,.27,1.79.55.55,0,0,1-.28.44.6.6,0,0,1-.54-.12,3.39,3.39,0,0,1-.61-1,20.59,20.59,0,0,1-1.14-9.52,14.67,14.67,0,0,0,.18-1.8c0-.67.41-1.36,0-2a10,10,0,0,0-9.93,6c-1.59,3.23-2.06,6.56-.34,9.88a20.83,20.83,0,0,0,3.74,5.11,47.84,47.84,0,0,0,10.67,7.83,5.75,5.75,0,0,0,2.15-1.66,16,16,0,0,0-2-4,12.27,12.27,0,0,1-1.6-5.15.68.68,0,0,1,.39-.73.47.47,0,0,1,.68.38c.68,2.9,2.38,5.32,3.69,7.92a1.13,1.13,0,0,0,1.46.66,49.68,49.68,0,0,1,8.93-1.53c.53,0,.62-.45.47-.87-.21-.56-.52-1.09-.75-1.65a25.88,25.88,0,0,1-1-2.53c-.13-.46-.24-1.18.23-1.36s.77.41,1,.9c.53,1.3,1.09,2.6,1.7,3.86a4.18,4.18,0,0,0,3.27,2.39c3.27.59,6.53,1.26,9.77,2a2,2,0,0,0,2.14-.69c.68-.74,1.33-1.51,2-2.24a.49.49,0,0,1,.77,0,.57.57,0,0,1,.06.52c-.68,1.09-1.4,2.16-2.15,3.31l7.23,2.59a3.49,3.49,0,0,0,3.42-.55,17.16,17.16,0,0,0,3.18-2.78c2.33-2.78,4.83-5.43,6.53-8.68a1.2,1.2,0,0,1,.34-.49c.12-.07.35,0,.51,0s.18.17.16.24a6.19,6.19,0,0,1-.44,1.42,45.72,45.72,0,0,1-7.94,10.23C203.14,45.53,202,45.73,201.39,46.92ZM243.6,324.45l1.67.86a14.2,14.2,0,0,1,5.26,4.85A28.23,28.23,0,0,1,255,341.62,17,17,0,0,1,253.28,353c-.19.36-.77.68-.26,1.36a46.61,46.61,0,0,0,9.13-2.92,82.42,82.42,0,0,1,9.87-3.74,1.54,1.54,0,0,0,1.28-1.4,12.68,12.68,0,0,1,4.77-7.5,23.73,23.73,0,0,1,4.75-3.2,31.64,31.64,0,0,0,6.06-3.86,9.39,9.39,0,0,0-1.71-3.55c-.35-.49-.77-.94-1.09-1.44a1.77,1.77,0,0,1,.42-2.66,6.89,6.89,0,0,1,4.8-1.49,1.83,1.83,0,0,1,1.83,1.26c.78,1.85,1.72,3.64,2.63,5.43a3,3,0,0,0,2.88,1.86,24.55,24.55,0,0,1,5,.91,8.08,8.08,0,0,1,4.53,2.27c.33.35.67.75,1.27.6,1.93-8.05,6-14.44,13.93-17.61a1.54,1.54,0,0,0-.71-1.14,1.33,1.33,0,0,1-.54-1.83,2.07,2.07,0,0,1,2.22-1.2,7.66,7.66,0,0,1,1.65.72c1,.52,1.48,1.82,2.58,2a20.58,20.58,0,0,0,3.26-.36,16.1,16.1,0,0,1,5.41.28,1.21,1.21,0,0,0,1.35-.33,16,16,0,0,1,1.54-1.46,4.12,4.12,0,0,0,1.44-2.89c.52-3.76-1.26-6.8-3.07-9.82a2.5,2.5,0,0,0-.64-.64,11.41,11.41,0,0,0-9.63-2.47,45.45,45.45,0,0,0-5.78,1.74c-3.6,1.28-7.17,2.66-10.75,4-4.24,1.6-8.44,3.29-12.72,4.77-3.71,1.28-7.5,2.32-11.25,3.48q-17.89,5.56-36.1,10C249.17,322.8,246.71,323.58,243.6,324.45Zm-88.67-164c5.66.24,11,.58,16.31.66,11.68.16,23.37-.11,35,.3.75,0,1.16-.36,1.07-1.06-.64-4.89-.85-9.83-1.76-14.69-.78-4.15-1.43-8.33-2.16-12.49-.86-5,.38-4.23-5-4.63-.7-.05-1.41,0-2.11,0l-11.17-.32c-4.13-.11-8.25-.34-12.38-.3s-8.24.36-12.37.52a15,15,0,0,0-2.67.4,2.39,2.39,0,0,0-1.92,1.69c-.86,2.58-1.79,5.14-1.54,7.94a10.39,10.39,0,0,1,0,1.81C153.68,146.94,154.39,153.55,154.93,160.41ZM134.75,326.1c-1.43-1.65-2.5-2.71-3.36-3.91a90.62,90.62,0,0,1-6.95-11.33,69.72,69.72,0,0,1-6.07-18.27,8,8,0,0,0-2-4.54,4.77,4.77,0,0,1,.21-6.8,15.08,15.08,0,0,1,2.36-1.86,24.92,24.92,0,0,1,5.16-2.49,91.94,91.94,0,0,1,15-3.59,31.6,31.6,0,0,1,5.39-.66c2.95,0,5.78-.82,8.7-.93,1.22,0,1.41-.33,1.25-1.52a59.2,59.2,0,0,0-2.62-12.08,21.44,21.44,0,0,0-7.4-10.19,5.81,5.81,0,0,1-6.53,1.76,6.9,6.9,0,0,0-3.52-.2,14.1,14.1,0,0,1-7.45-.54c-.63-.21-1.19-.2-1.41.6-1.17,4.29-3.11,8.29-4.75,12.4-1.19,3-2.65,5.89-3.65,8.94-2.57,7.85-5,15.75-7.41,23.64-2.34,7.6-4.19,15.34-5.85,23.11a41,41,0,0,0-1.39,8.23Zm97-131.7c1-2.84,2-5.66,3-8.52.59-1.82,1-3.68,1.49-5.54,1.89-7.67,2.39-15.53,3-23.36.55-7.55,1.55-15,2.7-22.51a19.28,19.28,0,0,1,2.62-8c.37-.56.16-.93-.32-1.23a13.89,13.89,0,0,0-1.31-.76c-5-2.39-10.13-4.45-15.32-6.35-3.77-1.38-7.66-2.47-11.5-3.67-2.07-.65-4.16-1.26-6.48-2a10.85,10.85,0,0,0,.77,3.06c1.84,5.87,3.62,11.75,5.05,17.73,1,4.31,1.87,8.66,2.81,13s1.94,8.65,2.82,13c.23,1.12.44,1.92,1.81,1.79.59-.06.89.42,1,.91a20,20,0,0,1,.69,2.63c.68,4.18,1.67,8.29,2.65,12.41,1.26,5.29,2.41,10.6,3.61,15.9C230.91,193.51,230.91,194.16,231.71,194.4Zm99.81,126.19c.25-.09.44-.14.62-.23a5.89,5.89,0,0,1,.52-.31.65.65,0,0,1,.81.17c.18.24.3.51,0,.79a5.63,5.63,0,0,0-1.46,3.24,1.24,1.24,0,0,0,.32,1.12c.36.34.69.09,1.07-.06a22.46,22.46,0,0,1,3.11-1.13,3,3,0,0,1,2.62.26.78.78,0,0,1,.34.48c0,.16-.17.36-.31.49a1.54,1.54,0,0,1-1.12.29,8.14,8.14,0,0,0-6.14,2.77,1.43,1.43,0,0,1-1.91.28c-.53-.28-1-.62-1.55-.95a5.16,5.16,0,0,0-3.78-.65c-.49.08-1,.33-1.45.39a.73.73,0,0,1-.9-.59.93.93,0,0,1,.32-.75,5,5,0,0,1,3.44-.82c.86.13,1.69.76,2.72.22a31.36,31.36,0,0,0-2.95-5.9c-.56-.95-1-1-2-.66a15.54,15.54,0,0,0-7.19,4.81c-3.23,4-5.92,8.17-5.3,13.68a4.68,4.68,0,0,0,.83,2.48,10.28,10.28,0,0,1,2.24,7.34,7,7,0,0,0,2.3,6,11.8,11.8,0,0,0,5.09,3.13,24.71,24.71,0,0,0,18.81-1.31,15,15,0,0,0,7.48-7.18c2.42-5.33,3.77-10.85,2.39-16.71-.6-2.54-1.25-5.09-3-7.19a18.75,18.75,0,0,0-12-6.95,9.75,9.75,0,0,0-5.62.72A9.06,9.06,0,0,0,331.52,320.59ZM125.65,187.22c1.07-3.21,2.07-6.15,3-9.11q2.57-8,5.07-16.11c.25-.81.45-1.6,1.27-1.93a1.85,1.85,0,0,0,1.14-1.62c.25-1.28.56-2.56.84-3.84a190.07,190.07,0,0,1,6.67-22.92,141.29,141.29,0,0,1,8.19-19.16c.21-.39.57-.88-.08-1.37-1.1.3-2.24.7-3.42.93-5.34,1-10.69,2-16,3a72,72,0,0,0-8.29,1.65c-3.75,1.18-3.75,1.18-3.46,5,.05.7.16,1.4.23,2.11.51,5.22,1,10.43,1.51,15.65.42,4.62.75,9.25,1.16,13.86.34,3.91,1.06,7.81.66,11.76a108.14,108.14,0,0,0,0,16A16.71,16.71,0,0,0,125.65,187.22Zm73-106.42c0-.3,0-.6,0-.91,0-1.7.24-3.49-1.73-4.43a.77.77,0,0,1-.32-.49,2.05,2.05,0,0,0-1.93-1.63,2.47,2.47,0,0,1-2.12-1.9,2.07,2.07,0,0,0-2.25-1.61l-3.33-.1A2.35,2.35,0,0,1,184.44,68a4.51,4.51,0,0,0-3.12-3.35,12.12,12.12,0,0,1-2.43-1.76c-1.07-.81-1.85-.71-2.43.49-.44.91-.75,1.93-1.69,2.42-.79.42-1.83.47-2.48,1a14.19,14.19,0,0,0-1.68,2.44c-.64.86-1.72,1-2.64,1.38A3.52,3.52,0,0,0,165.46,73a3.85,3.85,0,0,1-3,2.64c-1.61.46-2,1-1.77,2.58a76,76,0,0,0,1.27,7.74,51.1,51.1,0,0,0,4.83,12.66,18.12,18.12,0,0,0,6.89,7A12.14,12.14,0,0,0,188.17,104a15.76,15.76,0,0,0,2.93-3.44c1.25-2.07,2.58-4.09,3.7-6.23A32.21,32.21,0,0,0,198.61,80.8ZM213.5,273.85c.59.54,1.11.28,1.58.34a4.1,4.1,0,0,1,3.25,6.25,4.69,4.69,0,0,1-3.61,2.45c-.89.14-1.82-.21-2.68.23.62,1.67,1.37,2.2,2.8,1.81a7.52,7.52,0,0,0,5.13-4.32,44.2,44.2,0,0,0,2.21-6.25c.47-1.69,1.94-2,3.14-.79a2.31,2.31,0,0,0,1.14.81c1.56.38,3.13.78,4.68,1.22a37.82,37.82,0,0,1,10.52,4.46,10.07,10.07,0,0,1,2.86,2.66,4.52,4.52,0,0,1-.19,5.84,10.58,10.58,0,0,1-3.24,2.7,2.47,2.47,0,0,0-1.3,1.88,74,74,0,0,1-3.55,11.52c-.23.57-.85,1.22-.24,2a4.57,4.57,0,0,0,2.78-1,14.13,14.13,0,0,0,4.8-5.74,58.75,58.75,0,0,1,5.26-10.18,7.47,7.47,0,0,0,.81-6.68,16.71,16.71,0,0,0-4.81-7.88c-1.45-1.26-2.86-2.55-4.28-3.83a14.26,14.26,0,0,1-3.54-5.21,2.23,2.23,0,0,1,0-2.27c.11,0,.25,0,.31.05a2.43,2.43,0,0,1,.57.67,19.32,19.32,0,0,0,5.8,7.24c.86.7,1.68,1.45,2.48,2.22a14.82,14.82,0,0,1,3.4,4.59c.7,1.56,1.4,3.12,2.12,4.75a6.2,6.2,0,0,0,2-3.25,20.75,20.75,0,0,0,.8-10.71A23.83,23.83,0,0,0,249,257.78a7.24,7.24,0,0,0-5.49-2.8c-2.32,0-4.5.1-6.46,1.85a17.6,17.6,0,0,1-7.49,3.71c-3.12.8-6.33,1.15-9.39,2.23a7.84,7.84,0,0,0-4.65,4A25.35,25.35,0,0,0,213.5,273.85ZM205.4,68.7c.08-.06.23-.1.24-.17.95-4.12,1.5-8.3,2.1-12.48a4.48,4.48,0,0,0-1.5-4.08,11.07,11.07,0,0,0-1.15-1,34.41,34.41,0,0,0-7-4.17,85.7,85.7,0,0,0-13.18-4.31c-2.65-.6-5.33-1.06-8-1.6-4.83-1-9.4.11-13.88,1.8a5.4,5.4,0,0,0-1,.59,3.29,3.29,0,0,0-1.53,2.43c-.69,4.48-1.52,8.94-2.27,13.41-.11.64-.56,1.48.2,1.93.51.3,1.18,0,1.71-.32a14.8,14.8,0,0,0,2.06-1.24,5.86,5.86,0,0,1,2.46-1c5-1.35,10-.65,15,0a60.7,60.7,0,0,1,15.1,4.13A38.12,38.12,0,0,1,204.15,68C204.53,68.31,204.84,68.73,205.4,68.7ZM93.62,223.35a1.29,1.29,0,0,0,.06-.4,1.35,1.35,0,0,0-.22-.54c-4.1-4.69-9.07-7.18-15.47-6.42a21.84,21.84,0,0,0-7.69,2.55,22.58,22.58,0,0,0-11.07,12.68c-1.94,5.42-1.59,10.92-.46,16.42a8.29,8.29,0,0,0,2.42,4.12,58.19,58.19,0,0,0,8,6.43,6.15,6.15,0,0,0,5.47.86,26.46,26.46,0,0,0,7.82-3.15c2.67-1.8,5.27-3.72,7.88-5.61.37-.27.86-.59.42-1.44H78.21c-.61,0-1.21,0-1.82,0a2.88,2.88,0,0,1-2.75-2,7.79,7.79,0,0,1-.45-3,45.6,45.6,0,0,1,1.43-9.25,6.61,6.61,0,0,1,.69-1.67c.75-1.43,1.48-2.87,2.34-4.24a11.08,11.08,0,0,1,7.94-5.48,17.24,17.24,0,0,1,4.51-.09A10.46,10.46,0,0,0,93.62,223.35Zm160.73,59a7.29,7.29,0,0,0,1.35-.34,36.9,36.9,0,0,0,6.71-4.61,16.79,16.79,0,0,0,4.82-7.53c1.13-3.6.66-7.19,0-10.76a15.86,15.86,0,0,0-1.58-5.18,24.77,24.77,0,0,0-4.57-6c-2.28-2.08-4.88-3.54-8.12-3.46-1.61,0-3.23,0-4.84,0a23,23,0,0,0-10.25,2.2c-4.63,2.12-7.88,5.52-8.88,10.71-.21,1.11.11,1.42,1.3,1.19a8.37,8.37,0,0,0,4.55-2.23,10,10,0,0,1,6.72-2.93,9.74,9.74,0,0,1,9.36,4.35c.35.49.63,1,1,1.51a22.61,22.61,0,0,1,4.39,12.93A20.61,20.61,0,0,1,254.35,282.38Zm-93.89,7.1c-2.09-4.3-2.87-8.57-4.06-12.71-.25-.87-.5-1.74-.69-2.62a1,1,0,0,0-1.28-.94c-1.6.17-3.2.39-4.8.54A142.24,142.24,0,0,0,133,276.24a42.72,42.72,0,0,0-10.55,3.48,7.67,7.67,0,0,0-3.06,2.37,1.68,1.68,0,0,0,0,2.21,5.81,5.81,0,0,0,2,1.77,34.43,34.43,0,0,0,3.25,1.58c7.17,2.84,14.72,4,22.3,5a2.21,2.21,0,0,0,2.18-.7,3.17,3.17,0,0,1,2.06-1.14C154.11,290.35,157,289.48,160.45,289.48ZM126.07,208.4l.51-.2c-.38-2.28-.8-4.55-1.15-6.84-.85-5.57-1.68-11.15-2.52-16.72-.09-.59-.05-1.41-.65-1.6s-.83.67-1.17,1.1-.55.84-.83,1.26c-4.32,6.56-8.72,13-13.61,19.21a110.47,110.47,0,0,0-8.79,11.9,25.28,25.28,0,0,0-2.28,6.5c-.15.52.12.91.7,1.13a41.34,41.34,0,0,0,12.11,2.35c1.44.09,2.5-.21,3.13-1.67a4.65,4.65,0,0,1,1.46-1.49,4.57,4.57,0,0,0,1.32-1.61,12.71,12.71,0,0,1,1.45-2.63,18,18,0,0,1,2.4-2.08c-.22-1-1-1.54-1.61-2.23-1.17-1.39-2.35-2.76-3.49-4.17a4.52,4.52,0,0,1-1.06-2.77c-.08-2.55,1.35-4.12,3.37-5.31a4,4,0,0,1,4.55.15,21.15,21.15,0,0,1,2.53,2.14C123.69,206,124.87,207.2,126.07,208.4Zm121.55,87.83c-1.18.65-1.22,1.77-1.58,2.67-2,5-5,9-10.77,9.91-.71.12-1,.65-1.26,1.17a65.69,65.69,0,0,1-3.58,6c-3.36,4.53-6.57,9.19-10.83,13-.22.19-.43.47-.21.77a.69.69,0,0,0,.49.24l12.67-.18a2.26,2.26,0,0,0,1.92-1.23,12.94,12.94,0,0,1,7.52-5.22c3.19-.9,6.4-1.79,9.59-2.7,1.11-.32,1.29-.57,1.07-1.75a80.66,80.66,0,0,0-1.71-8.59c-.44-1.44-.65-2.95-1-4.42C249.19,302.65,248.41,299.47,247.62,296.22ZM137.86,159.79c2.24.07,4.55.17,6.86.21.94,0,1.22-.23,1.4-1.22.81-4.47,2.31-8.76,3.41-13.14a213.56,213.56,0,0,1,7.55-23.55,33.24,33.24,0,0,1,2.64-5.75,3.69,3.69,0,0,0,.79-2.23,29.71,29.71,0,0,1,1-8.37c.13-.62.61-1.48-.16-1.88s-1.35.24-1.93.6a8.33,8.33,0,0,0-2.6,2.5c-.93,1.43-1.86,2.87-2.67,4.38a146.76,146.76,0,0,0-8,18.22,228.9,228.9,0,0,0-8.39,28.66A2.09,2.09,0,0,0,137.86,159.79Zm77,2,3.73-.37a.67.67,0,0,0,.65-.81,14.12,14.12,0,0,0-.26-1.48c-.76-3.54-1.55-7.08-2.29-10.62-1-4.93-1.9-9.89-3.09-14.78-1.71-7-3.78-14-6.15-20.83a15.43,15.43,0,0,0-3.33-6,4.28,4.28,0,0,0-2.22-1.47c-.57-.11-1,.22-.85.82.3,1.38.68,2.73.93,4.12,1,5.35,1.18,10.81,2.2,16.16.56,3,.74,6,1.35,9A217.47,217.47,0,0,1,209,158.67a15.25,15.25,0,0,0,.36,2.07.84.84,0,0,0,.81.74C211.57,161.55,213,161.64,214.87,161.74Zm-3.44,112.85a3.12,3.12,0,0,0-2.26-.68c-2.71-.2-5.42-.36-8.13-.51a10.92,10.92,0,0,0-1.51,0c-.76.06-1.06.58-.65,1.25a33.78,33.78,0,0,1,4.59,12.68c.14.92.66,1.16,1.4,1.25a9.89,9.89,0,0,0,1.81.1,38.33,38.33,0,0,1,12.82,1.64,14,14,0,0,0,8.76,0c1.7-.6,3.51-.91,5.22-1.49a19.15,19.15,0,0,0,4.89-2.32c2.83-2,2.82-3.52-.08-5.49a20.26,20.26,0,0,0-4.33-2.09,75.65,75.65,0,0,0-9.59-2.65c-.93-.22-1.11,0-1.5,1l-1.52,3.94a8.76,8.76,0,0,1-5.29,5.07c-2.61,1-5.48.17-6-3.46a11.66,11.66,0,0,1,.47-5.06A10.94,10.94,0,0,0,211.43,274.59ZM28.29,350.66v.09a5.1,5.1,0,0,1,.6,0c2.89.35,5.39-.82,7.63-2.36a9.28,9.28,0,0,0,3.85-5.63A8.51,8.51,0,0,0,35,332.85a4.07,4.07,0,0,1-2.64-2.64,14.84,14.84,0,0,1-.93-4.11,8,8,0,0,0-.22-1.79.8.8,0,0,0-.91-.62,31.55,31.55,0,0,0-5,1.11,2.27,2.27,0,0,0-1.57,2.29c-.11,1.67.54,3.17.91,4.73.14.58.48,1.23.11,1.73-.24.33-.88.35-1.3.58a6.81,6.81,0,0,0-1,.74c-3.51,2.85-3.74,7.32-2.85,10.48,1,3.48,3.25,5.11,6.86,5.32C27.08,350.69,27.69,350.66,28.29,350.66Zm213.59-68.34a4.07,4.07,0,0,1-1,4.09,8.11,8.11,0,0,1-2.94,2.08,59.47,59.47,0,0,1-5.61,2.22c-7.45,2.33-15.15,3.34-22.87,4.16s-15.48,1.19-23.25,1.3a280.21,280.21,0,0,1-36.84-1.67,170.41,170.41,0,0,1-18.43-3.14,40.27,40.27,0,0,1-9.38-3.29c-1.83-.94-3.51-2-4.25-4.05-.09-.26-.24-.33-.45-.13a.94.94,0,0,0-.33.47,3.42,3.42,0,0,0,1.27,3.21,22.11,22.11,0,0,0,6.53,3.74c7.57,2.91,15.49,4.4,23.49,5.47q6.89.93,13.84,1.4c7.65.53,15.29.91,23,.81,6.55-.09,13.09-.41,19.63-.93a154.82,154.82,0,0,0,25.07-3.87,45.17,45.17,0,0,0,9.93-3.56,13.44,13.44,0,0,0,3.41-2.48c1.63-1.64,1.76-3,.34-4.79C242.79,283.13,242.54,282.95,241.88,282.32ZM234,338.55a3.3,3.3,0,0,0,2.53-1.16,1.43,1.43,0,0,1,1.37-.48c2.43.48,4.67,1.24,5.79,3.78q2.57,5.85-2.56,9.16c-.53.34-1.48.21-1.52,1.23a11.9,11.9,0,0,0,8.11,3.49,3.37,3.37,0,0,0,3.16-1.33,13.51,13.51,0,0,0,2.74-9.94c-.19-1.59-.69-3.14-1-4.72a21.25,21.25,0,0,0-5.14-9.46,7,7,0,0,0-4.31-2.59,5.72,5.72,0,0,0-5.65,2A14.8,14.8,0,0,0,234,338.55ZM57.71,337a11.9,11.9,0,0,0-10.1,7.11,1.84,1.84,0,0,0,1.52,2.45c.44.09.55-.19.6-.46a1.76,1.76,0,0,1,.52-1,1.13,1.13,0,0,1,1.9.58,3.76,3.76,0,0,1,.1.89,2.46,2.46,0,0,1-1.14,2c-1.49,1-3,2-4.55,3s-1.46,1.33-.28,2.55a9.54,9.54,0,0,0,7.38,2.84,3.29,3.29,0,0,0,3-1.67c.77-1.3,1.6-2.56,2.39-3.84a4.82,4.82,0,0,1,2-2.15,1.09,1.09,0,0,1,1.33.43.89.89,0,0,1-.2,1.33c-.39.29-.92.38-1.32.66a.93.93,0,0,0-.3.77,1,1,0,0,0,.55.61,3.2,3.2,0,0,0,2.87-.5,12.42,12.42,0,0,0,4.7-5.77,4.34,4.34,0,0,0-.46-4.3C65.64,338.62,61.73,337.37,57.71,337ZM194.26,99a2,2,0,0,0-1.47,1.31,19.38,19.38,0,0,1-4,4.91A11.29,11.29,0,0,1,183,108.3a14.73,14.73,0,0,1-10.72-2.07,25,25,0,0,1-3.29-2.64.62.62,0,0,0-.55-.07.53.53,0,0,0-.25.44,23.68,23.68,0,0,1,.61,3.86,2.89,2.89,0,0,0,1.86,2.78,21.35,21.35,0,0,1,4.65,3.82,11.57,11.57,0,0,1,3.41,7.5c.09,1.2.31,2.4.49,3.59a1,1,0,0,0,1,.93,6.57,6.57,0,0,0,3.1-.09,9.58,9.58,0,0,0,.2-3.48c0-4.09,1.22-7.53,5.06-9.59.35-.19.68-.42,1-.63L194,110c.35-.21.73-.49.64-.93C194,105.81,194.56,102.49,194.26,99Zm31.53,244.41a11.44,11.44,0,0,0-4.76.65,6.55,6.55,0,0,0-4.23,7.72,3.68,3.68,0,0,0,1.41,2.24c1.85,1.34,3.83,1.84,5.92.63a27.92,27.92,0,0,0,3.76-2.5,11.74,11.74,0,0,1,7.48-2.75,14.35,14.35,0,0,0,3-.26c3.76-.88,5.35-3.42,4.11-7.22a4.11,4.11,0,0,0-6-2.62,20.34,20.34,0,0,0-2.29,1.44C231.65,342.4,229,343.82,225.79,343.42ZM157.6,127.08l1.17-.06c5.43-.43,10.87-.74,16.3-.64,2.65.05,2.71-.27,2.44-2.7-.21-1.89-.26-3.91-1.34-5.53a18.73,18.73,0,0,0-5.65-5.81c-2.55-1.57-5.22-2.95-7.52-5.4a18.83,18.83,0,0,0-.64,7.44,14.35,14.35,0,0,0,3.78,8.7c.7.71,1.56,1.26,2.33,1.9a.7.7,0,0,1,.23.52c0,.37-.38.37-.66.37a4.2,4.2,0,0,1-2.84-1.56,13.25,13.25,0,0,1-3.52-5.56c-.09-.29-.19-.55-.53-.64s-.54.22-.67.47a41.45,41.45,0,0,0-3,7.87C157.41,126.61,157.54,126.82,157.6,127.08Zm42.13-19.84c-1.39,2.15-3,2.81-4.47,3.65-2.1,1.19-4.14,2.48-6.17,3.78a19,19,0,0,0-2.11,1.71,4.64,4.64,0,0,0-1.67,3.43c-.07,1.91-.05,3.83-.13,5.74,0,.82.42,1.06,1.08,1.09,2,.11,4,0,6,.33a5.08,5.08,0,0,0,5.06-1.91c.78-.93,1.63-1.79,2.37-2.74a6,6,0,0,0,1.35-3.31A40,40,0,0,0,199.73,107.24ZM68.13,360c.17.21.26.41.41.49a32.37,32.37,0,0,0,6.27,2.06,1.3,1.3,0,0,0,1.33-.52,11.1,11.1,0,0,0,2.13-3.26,7.36,7.36,0,0,1,2.07-2.93A2,2,0,0,1,83.59,357c.08.42-.39,1.08.34,1.19.5.08.88-.42,1.22-.79a3.5,3.5,0,0,0,1.11-2.72,8.66,8.66,0,0,0-2.52-5.93,11,11,0,0,0-8.24-3c-3.54.13-5.79,2-7.31,4.95a4.51,4.51,0,0,0-.34,3.23,2,2,0,0,0,1.44,1.42c.45.13,1.2-.6,1.41-1.37.1-.38,0-.8.11-1.19s.9-.59,1.28-.31a1.31,1.31,0,0,1,.57,1.57,4.82,4.82,0,0,1-.8,1.25C70.62,356.93,69.37,358.49,68.13,360Zm84.13-105.17c.72,2.27,1.54,4.52,2.13,6.83,1.9,7.39,3.67,14.81,5.58,22.2a26.3,26.3,0,0,0,3.63,7.92c1.06,1.6,2.27,3.05,4.57,2.56a11.33,11.33,0,0,1,1.81,0c.44,0,1,.28,1.25-.5a18.54,18.54,0,0,1-4-4.42,47.49,47.49,0,0,1-5.48-12.35,104.56,104.56,0,0,0-3.14-10.33A69.42,69.42,0,0,0,152.26,254.87Zm-72.1,29.45c2.33-.06,4.44-.15,6.37-1.15,1.11-.58,2-1.33,1.75-2.82a28.81,28.81,0,0,1-.14-3c-.07-1.65-1-2.45-2.56-2.86-3.32-.86-6.59-.29-9.83.26-2.33.39-2.72,1.17-2.62,3.6,0,.4.07.8.1,1.2.27,3.57.35,3.7,3.86,4.43A29.16,29.16,0,0,0,80.15,284.32Zm87.65-27.62c3.56,2.15,6.85,4,10.26,5.65a56.49,56.49,0,0,1,8.67,4.86c5.24,3.79,9,8.62,10.54,15a24.79,24.79,0,0,0,1,2.52c.58,1.6,1.14,3.22,1.58,4.87a4.75,4.75,0,0,1,.11,2.69c-.12.39-.27.79-.73.86s-.61-.39-.67-.75c-.22-1.19-.42-2.38-.62-3.57,0-.25-.17-.35-.43-.27-.09,0-.22.07-.23.12-.31,1.73-1.61,3-2.21,4.58-.3.81-.09,1.2.7,1.17,1.11,0,2.21-.13,3.32-.2,2.61-.15,2.54.36,3-3a9.13,9.13,0,0,0,0-2.71c-1-6.59-3.27-12.59-8.17-17.45a40.26,40.26,0,0,0-11.69-8.42c-4.2-1.9-8.58-3.4-12.7-5.51A9.23,9.23,0,0,0,167.81,256.69ZM40.07,347a5.62,5.62,0,0,0,3.48,2.3c1.45.34,3,.6,4.38-.35.57-.39.69-.77.1-1.1A3.44,3.44,0,0,1,46,345.41a4.4,4.4,0,0,1,1.09-3.34,27.7,27.7,0,0,1,2.27-2.81c.81-.87,1.73-1.62,2.59-2.42-2.87-4.23-7.28-5-11.48-2C42.72,338.9,42.83,343,40.07,347ZM24.72,363.45c2.36.19,4.23-1,6-2.38a5,5,0,0,0,1.76-4.31c0-1.39-.63-1.89-2.08-2A2.29,2.29,0,0,0,27.89,356a4.7,4.7,0,0,1-.55.72,4.26,4.26,0,0,1-7.39-1.7,5.1,5.1,0,0,1-.09-2.68A1.07,1.07,0,0,0,19.1,351a1.51,1.51,0,0,0-1.89.46,3.86,3.86,0,0,0-.79,1.61C15.26,358.31,19.1,363.79,24.72,363.45ZM128.16,213.69c0-.2.11-.34.07-.4-2.25-3.49-5.37-6.17-8.33-9a3.11,3.11,0,0,0-2.48-.87,4.16,4.16,0,0,0-3.37,6,15.67,15.67,0,0,0,2,2.65c1,1.15,2,2.22,3,3.34s1.21,1.29,2.45.37a10.35,10.35,0,0,1,5.59-1.95C127.45,213.8,127.83,213.74,128.16,213.69Zm62.58,80.67c.05-.68-.43-.8-.7-1a46.25,46.25,0,0,1-7.12-6.5q-3.63-4-7.29-8.06A81.94,81.94,0,0,1,170,272.1c-1.09-1.48-2.33-2.84-3.51-4.25,1.24,2.65,2.73,5.12,4,7.69a62.71,62.71,0,0,0,14.22,18.56,1.42,1.42,0,0,0,.73.44A18.67,18.67,0,0,0,190.74,294.36ZM155.4,256.21c.4.86.66,1.48,1,2.07A60.42,60.42,0,0,1,161,268.73c.8,2.59,1.59,5.18,2.31,7.8,1.63,5.88,4,11.37,8.34,15.83a3.2,3.2,0,0,1,.91,1.53c.05.23.37.56.57.57,1.29,0,2.59.42,3.89,0,.17-1.39-1.28-1.6-1.8-2.5a10.23,10.23,0,0,0-.9-1.21c-4.78-6.05-7.95-13-11-20q-2.26-5.09-4.7-10.1A16.65,16.65,0,0,0,155.4,256.21Zm73.7-4.31a3.88,3.88,0,0,0,1.7-2.82c.49-3.17.16-6.45,1.24-9.55a2.83,2.83,0,0,0-.38-2,19.46,19.46,0,0,1-1.46-7c-.06-1.81-.17-3.62-.25-5.42,0-.41-.1-.78-.7-.89-1.07,3.53-2.18,7.06-3.18,10.63a8,8,0,0,0-.05,3.89c.66,3,1.28,6.09,2,9.13C228.29,249.17,228.71,250.5,229.1,251.9Zm-37.6,40.2A56.2,56.2,0,0,0,184,281.45a134.53,134.53,0,0,0-14.55-14.86c-2-1.73-3.89-3.62-6-5.56a2.12,2.12,0,0,0,.66,1.52c1.5,1.89,3,3.76,4.52,5.65q3.55,4.51,7.44,8.72c1.78,1.92,3.51,3.88,5.28,5.81s3.38,3.73,5.16,5.51A18.36,18.36,0,0,0,191.5,292.1ZM78.08,318.39c-.07-1.51,0-3-1.36-4.15a1.53,1.53,0,0,1-.45-1.39,3.16,3.16,0,0,0-.63-1.94c-1.15-2.11-3.08-3.72-3.87-6.07-.1-.3-.63-.46-1.07-.33a.8.8,0,0,0-.6.91A8.12,8.12,0,0,0,72,310.11c.84,1,1.64,2,2.43,3.07a1.13,1.13,0,0,1,0,1.4,10,10,0,0,1-.76.93c-2.87,3.27-2.61,7-1.51,10.81.3,1,1.26,1.28,2.14.57a9.85,9.85,0,0,0,1.67-1.72A10.94,10.94,0,0,0,78.08,318.39Zm267.26-6.69c0-.08,0-.18,0-.22-.52-.65-1-1.32-.49-2.17a2.23,2.23,0,0,1,1.84-.87,10.21,10.21,0,0,1,3.57.53,1.64,1.64,0,0,0,1.84-.69,4.94,4.94,0,0,0,1-3.1,4,4,0,0,0-5-4.06,5.27,5.27,0,0,0-1.13.42c-1.45.71-2.9,1.41-4.31,2.17a1,1,0,0,0-.38,1.32,12.59,12.59,0,0,1,.66,6.54,2.33,2.33,0,0,0,.2.68A4.46,4.46,0,0,0,345.34,311.7ZM166.07,260.92l-.18.13.21.22c1.24,1.17,2.46,2.36,3.71,3.51,4.07,3.76,8.38,7.24,11.91,11.58s7.46,8.48,10.38,13.36c.24.4.47.91,1.27.9a5.64,5.64,0,0,0-.62-3.11,29.62,29.62,0,0,0-6-9q-2.78-2.77-5.78-5.32C176.09,269,171.59,264.36,166.07,260.92Zm9.1,4.53-.35.28c.47.48.91,1,1.42,1.43,2.51,2.16,5,4.36,7.58,6.45a36.92,36.92,0,0,1,10.49,13.8c.17.38.06,1,.94,1,.84-2.47,1-4.83-.84-7-.19-.23-.35-.49-.54-.73a72.13,72.13,0,0,0-5.21-5.85c-1.88-1.81-4.26-3-6-5a1.89,1.89,0,0,0-.49-.34ZM152.69,143h-.52a3.54,3.54,0,0,0-.4.76q-1.79,7-3.55,14c-.47,1.85-.57,2.45,2,2.46q.91,0,1.81,0c1.06,0,1.23-.2,1.18-1.25-.16-3.42-.38-6.83-.51-10.25C152.63,146.84,152.69,144.93,152.69,143Zm11.48,124.91a10.42,10.42,0,0,0,1.41,4,33.33,33.33,0,0,1,1.81,3.48,68.15,68.15,0,0,0,7.22,12.89,21.59,21.59,0,0,0,5.63,5.85,3.35,3.35,0,0,0,3,.4,31.47,31.47,0,0,1-5.63-5.4,81,81,0,0,1-9.36-14.41A35.6,35.6,0,0,0,164.17,267.94ZM79.91,319.55a6.7,6.7,0,0,0,1.94,4.57,1.66,1.66,0,0,0,2.61,0,6.85,6.85,0,0,0,1.74-3.41,3,3,0,0,0-1-3.21,4,4,0,0,0-3.93-.75,2,2,0,0,0-1,1A3.37,3.37,0,0,0,79.91,319.55Zm86.92-61.23a6.9,6.9,0,0,0,2.26,1.75c3.73,2.19,7.43,4.43,11.22,6.51a39,39,0,0,1,9.14,6.85c.73.74,1.55,1.4,2.65,2.39a4.43,4.43,0,0,0-1.29-2.41,22.07,22.07,0,0,0-3.28-3.53A55.66,55.66,0,0,0,181,265.6c-4.25-2.29-8.62-4.35-12.71-6.92C167.87,258.44,167.48,258,166.83,258.32ZM88.15,328.55a6.37,6.37,0,0,0,1.11-.5,16.79,16.79,0,0,0,4.66-5.41,3,3,0,0,0,.28-.86,1.06,1.06,0,0,0-1.43-1.29,10.88,10.88,0,0,0-5.56,3.92,11.61,11.61,0,0,0-1.13,2.44.8.8,0,0,0,.4,1C87,328.13,87.57,328.32,88.15,328.55Zm-.63-20.07a3.39,3.39,0,0,0-3.19,4.13,5.07,5.07,0,0,0,1.73,2.74,1.65,1.65,0,0,0,2.42-.09A10.09,10.09,0,0,0,90.62,312a2.2,2.2,0,0,0-1.1-3A3.8,3.8,0,0,0,87.52,308.47ZM143,224.81a46.29,46.29,0,0,1,3,6.5.91.91,0,0,0,.89.67,3.49,3.49,0,0,0,3.73-2.82c.37-1.51-.15-2.7-1.61-3.09C147.12,225.57,145.16,225.25,143,224.81Zm68.6,56.38a21.54,21.54,0,0,1,2.19.12c1.51.23,3-1.22,3.4-2.47a1.59,1.59,0,0,0,.06-.88,2.53,2.53,0,0,0-4.26-1.24,4.28,4.28,0,0,0-1,1.5A5.85,5.85,0,0,0,211.6,281.19ZM77.53,310.33a3.16,3.16,0,0,0,.64,2.54,1.53,1.53,0,0,0,2.1.49,3.94,3.94,0,0,0,2.21-3,2.31,2.31,0,0,0-1.91-2.62c-1.85-.36-2.85.4-3,2.3ZM29.71,352.59c-2.49-.55-4.74-.26-6.82-1.14a1.15,1.15,0,0,0-1.73,1,4.13,4.13,0,0,0,.62,3.15,2.76,2.76,0,0,0,3.94.76,6.64,6.64,0,0,0,1.62-1.75A4.57,4.57,0,0,1,29.71,352.59ZM202.78,91.86a8.28,8.28,0,0,0-.14-1c-.85-3.54-.75-3.12-3.76-1.6a1.64,1.64,0,0,0-.79,2.06,8.41,8.41,0,0,0,.8,1.92,2.33,2.33,0,0,0,2.52,1.21C202.24,94.28,202.79,93.32,202.78,91.86Zm-7.08,17.06a7.09,7.09,0,0,0,1.3-.5,10.77,10.77,0,0,0,1.36-1.18,3,3,0,0,0,.25-4.32,18.56,18.56,0,0,0-2.16-2.08.5.5,0,0,0-.86.3C195.61,103.62,195.66,106.11,195.7,108.92ZM143.49,236.8c-1.33,0-1.86.5-1.9,1.75a5,5,0,0,0,2.5,4.49.8.8,0,0,0,1.07-.18,2.57,2.57,0,0,0,.88-2.68c-.2-.67-.32-1.36-.56-2C145,237,144.74,236.79,143.49,236.8ZM79.77,324.61c-.6-.1-1.15.46-1,.93a11.76,11.76,0,0,0,5.47,6.89.83.83,0,0,0,1.09-.17,1.1,1.1,0,0,0,.19-1.12,1.71,1.71,0,0,0-.62-1,12.64,12.64,0,0,1-4.5-5.16C80.29,324.78,79.91,324.69,79.77,324.61Zm86.6-223.27a3.07,3.07,0,0,0-2.59,2.62,3.23,3.23,0,0,0,1.16,2.93,8.49,8.49,0,0,0,1.17.92c.31.22.59.65,1,.44.63-.31.23-.86.16-1.29C167,105.1,166.69,103.25,166.37,101.34Zm-5.66-11.88c-.55.74-1,1.47-1.6,2.13a2.87,2.87,0,0,1-3.45,1.06A3.37,3.37,0,0,1,154,89.38c0-.29.21-.57.26-.86a11.59,11.59,0,0,1,1.61-4.17c.17-.29.13-.57-.2-.67a.61.61,0,0,0-.49.22A10.94,10.94,0,0,0,153.4,88a7.15,7.15,0,0,0-.11,2.68,3.22,3.22,0,0,0,4.9,2.5A4.49,4.49,0,0,0,160.71,89.46Zm-4.23-3.72c-.3.72-.52,1.17-.67,1.65a12.46,12.46,0,0,0-.43,1.76,3.51,3.51,0,0,0,0,1.19,1.37,1.37,0,0,0,2.29.88,4.39,4.39,0,0,0,1.77-3.27C158.3,87.68,157.71,86.54,156.49,85.74ZM147,248c1.82,2.3,2.15,1.88,3.29.66.61-.65,1.36-1.18,2-1.78a.76.76,0,0,0,0-1.27c-.5-.45-.71-1.22-1.67-1.36C149.67,245.57,149.15,247.46,147,248ZM330,323.31c0-1.91,0-1.92-.46-2.86a18.4,18.4,0,0,0-4.14-5.12,4.07,4.07,0,0,0-1.05-.53.27.27,0,0,0-.25.07c-.07.16-.18.43-.11.51a7.78,7.78,0,0,0,1.3,1.25,5.07,5.07,0,0,1,2,2.51,22.07,22.07,0,0,0,1.71,3.17C329.25,322.73,329.44,323.23,330,323.31Zm-169.68-237a3.79,3.79,0,0,0,.07-.77c-.1-.58-.28-1.16-.34-1.75-.18-2-.86-3.62-3.12-4.15a10.1,10.1,0,0,0,1.27,5A2.62,2.62,0,0,0,160.34,86.29Zm42.29,40.83c-.47-1.62-.27-3.16-1.15-4.54-1,1.16-2,2.21-2.91,3.23-.32.35-.83.6-.41,1.3ZM148,240.86c-.7,1.6-1.18,3.18-2.8,3.87-.4.17-.76.43-.56.85a1.83,1.83,0,0,0,.9.73,1.81,1.81,0,0,0,1.69-.3,4.31,4.31,0,0,0,1.63-2.42A2.44,2.44,0,0,0,148,240.86Zm198.62,69.48a23.82,23.82,0,0,1,2.35,1.48c.7.56,1.26,1.29,1.92,1.9a13.16,13.16,0,0,0,1.2.9.54.54,0,0,0,.79,0,1.08,1.08,0,0,0,.15-.82C352.2,310.94,350.05,309.74,346.62,310.34ZM203.5,82.53a8.74,8.74,0,0,1-2.24,1.29,2.34,2.34,0,0,0-2.07,2.46c0,.27-.05.67.1.8a.92.92,0,0,0,.82,0A5.72,5.72,0,0,0,203.5,82.53ZM356.75,314.15a1.07,1.07,0,0,0,1.14.21,6.29,6.29,0,0,0,3.3-2.38c.27-.36.86-.7.41-1.21s-1-.2-1.39,0A5.88,5.88,0,0,0,356.75,314.15Zm-275,43c-.06-.07-.11-.18-.19-.21a.37.37,0,0,0-.28,0c-.85.42-1.11,1.31-1.53,2.05-.28.48.15.66.56.7s.6,0,.72-1C81.15,358,82,357.85,81.8,357.16Zm82.34-97.61.21-.28-2.35-2-.17.19Zm190.54,52.69a3.07,3.07,0,0,0-.22-3.09A5.09,5.09,0,0,0,354.67,312.24Z"/><path class="cls-2" d="M201.39,46.92c.65-1.19,1.75-1.39,2.46-2.1a45.72,45.72,0,0,0,7.94-10.23,6.19,6.19,0,0,0,.44-1.42c0-.06-.09-.22-.16-.24s-.39-.12-.51,0a1.2,1.2,0,0,0-.34.49c-1.7,3.25-4.2,5.9-6.53,8.68a17.16,17.16,0,0,1-3.18,2.78,3.49,3.49,0,0,1-3.42.55l-7.23-2.59c.75-1.15,1.47-2.22,2.15-3.31A.57.57,0,0,0,193,39a.49.49,0,0,0-.77,0c-.69.73-1.35,1.5-2,2.24a2,2,0,0,1-2.14.69c-3.24-.73-6.5-1.4-9.77-2A4.18,4.18,0,0,1,175,37.53c-.61-1.27-1.16-2.56-1.7-3.86-.2-.49-.42-1.11-1-.9s-.37.91-.23,1.36a25.88,25.88,0,0,0,1,2.53c.23.56.54,1.08.75,1.65.15.41.07.84-.47.87a49.68,49.68,0,0,0-8.93,1.53,1.13,1.13,0,0,1-1.46-.66c-1.31-2.6-3-5-3.69-7.92a.47.47,0,0,0-.68-.38.68.68,0,0,0-.39.73,12.27,12.27,0,0,0,1.6,5.15,16,16,0,0,1,2,4,5.75,5.75,0,0,1-2.15,1.66,47.84,47.84,0,0,1-10.67-7.83,20.83,20.83,0,0,1-3.74-5.11c-1.72-3.33-1.25-6.66.34-9.88a10,10,0,0,1,9.93-6c.45.66.05,1.35,0,2a14.67,14.67,0,0,1-.18,1.8,20.59,20.59,0,0,0,1.14,9.52,3.39,3.39,0,0,0,.61,1,.6.6,0,0,0,.54.12.55.55,0,0,0,.28-.44,10.3,10.3,0,0,0-.27-1.79,29.86,29.86,0,0,1-.7-9.31,11.8,11.8,0,0,1,1.54-5.14,3.91,3.91,0,0,1,3.69-2.17,10.5,10.5,0,0,1,4.94,1.21,3.79,3.79,0,0,1,.76.5c2.13,1.82,4.27,1.65,6.67.39A22.17,22.17,0,0,1,185,9.63,19.43,19.43,0,0,1,198.38,15a3.79,3.79,0,0,1,1.27,3,3,3,0,0,0,.3,1.76.84.84,0,0,0,.5.24.34.34,0,0,0,.43-.32,11.65,11.65,0,0,0,.14-1.19c0-.79,0-1.59,0-2.49a10.39,10.39,0,0,1,8.37,1.62,40.57,40.57,0,0,1,4.66,3.84,15,15,0,0,0,6.73,3.88,12.82,12.82,0,0,1,6.62,4,9.43,9.43,0,0,1,2.25,3.89A4.5,4.5,0,0,0,231.41,36c3.36,2.27,4.1,5.55,3.59,9.3a14.1,14.1,0,0,1-11.37,11.84,15.24,15.24,0,0,1-4.51-.19c-1.69-.25-3.35-.79-5-.92a38.36,38.36,0,0,0-4.93.24l-.26-3c.35-.76,1.05-.57,1.6-.73a28,28,0,0,0,13.85-8.75,16.42,16.42,0,0,0,1.09-1.45c.45-.67.52-1.64.17-1.62-.56,0-.84.48-1.16.88a28,28,0,0,1-6.19,5.72,32,32,0,0,1-9.41,4,1.64,1.64,0,0,1-1.7-.3C205.48,49.33,203.29,48.41,201.39,46.92Z"/><path class="cls-4" d="M243.6,324.45c3.11-.88,5.57-1.66,8.08-2.26q18.21-4.41,36.1-10c3.75-1.17,7.54-2.2,11.25-3.48,4.28-1.48,8.48-3.18,12.72-4.77,3.58-1.35,7.15-2.72,10.75-4a45.45,45.45,0,0,1,5.78-1.74,11.41,11.41,0,0,1,9.63,2.47,2.5,2.5,0,0,1,.64.64c1.82,3,3.59,6.06,3.07,9.82a4.12,4.12,0,0,1-1.44,2.89,16,16,0,0,0-1.54,1.46,1.21,1.21,0,0,1-1.35.33,16.1,16.1,0,0,0-5.41-.28,20.58,20.58,0,0,1-3.26.36c-1.1-.14-1.61-1.44-2.58-2a7.66,7.66,0,0,0-1.65-.72,2.07,2.07,0,0,0-2.22,1.2,1.33,1.33,0,0,0,.54,1.83,1.54,1.54,0,0,1,.71,1.14c-7.94,3.17-12,9.56-13.93,17.61-.59.14-.93-.26-1.27-.6a8.08,8.08,0,0,0-4.53-2.27,24.55,24.55,0,0,0-5-.91,3,3,0,0,1-2.88-1.86c-.91-1.79-1.85-3.58-2.63-5.43a1.83,1.83,0,0,0-1.83-1.26,6.89,6.89,0,0,0-4.8,1.49,1.77,1.77,0,0,0-.42,2.66c.32.51.74,1,1.09,1.44a9.39,9.39,0,0,1,1.71,3.55,31.64,31.64,0,0,1-6.06,3.86,23.73,23.73,0,0,0-4.75,3.2,12.68,12.68,0,0,0-4.77,7.5,1.54,1.54,0,0,1-1.28,1.4,82.42,82.42,0,0,0-9.87,3.74A46.61,46.61,0,0,1,253,354.4c-.51-.68.07-1,.26-1.36A17,17,0,0,0,255,341.62a28.23,28.23,0,0,0-4.42-11.46,14.2,14.2,0,0,0-5.26-4.85Z"/><path class="cls-5" d="M137.66,238.67l-11.35-9.51c-.54-.45-1.09-.88-1.67-1.28-.1-.07-.4,0-.52.14a.66.66,0,0,0-.2.52,1.76,1.76,0,0,0,.4.79,20.25,20.25,0,0,0,2,1.88c3.9,3.07,7.15,6.82,10.8,10.15a31.11,31.11,0,0,0,3.46,2.93c1.51,1,2.1,2.16,1.62,2.9-.78,1.19-2,1.23-3.25,1.06a14.07,14.07,0,0,1-6.08-2.55,129.3,129.3,0,0,1-12.55-9.45,2.2,2.2,0,0,0-.71-.54,1.07,1.07,0,0,0-.82.12c-.27.19-.17.56,0,.81a10.6,10.6,0,0,0,2.93,3c2.82,2.13,5.66,4.22,8.5,6.32.49.36,1,.69,1.47,1.06a.67.67,0,0,1,.24.48c0,.4-.38.43-.65.39a21.84,21.84,0,0,1-3.27-.53A28.2,28.2,0,0,1,115,240c-.66-.7-1.19-1.87-2.54-1.57,0,1.28,1,1.88,1.75,2.67a25.85,25.85,0,0,0,5,4.34c.39.25.38.69-.06,1a17.6,17.6,0,0,1-7.43,2.33,23.35,23.35,0,0,1-6.34,0c-4-.52-8-1.17-12-1.36-5.13-.25-10.27-.1-15.41-.12h-.3c-2.26,0-2.8-.47-3-2.75a19.91,19.91,0,0,1,.43-4.81c.43-2.77.64-5.62,2.83-7.78.47-.46.54-1.29.88-1.91a9.44,9.44,0,0,1,8.53-5.31A26.09,26.09,0,0,1,96.56,226,41.56,41.56,0,0,0,109,228.09a2.54,2.54,0,0,1,.64.24c0,1.53-1.07,2.48-1.91,3.56-.37.48-1.52.84-.58,1.59.68.54,1.26-.3,1.74-.76a12,12,0,0,0,2.82-4.61c.62-1.61,1.22-3.19,2.87-4.11a3.55,3.55,0,0,0,1.27-2,5,5,0,0,1,3.8-3.51,7.67,7.67,0,0,0,2.91-1.56,7.86,7.86,0,0,1,7.49-.91,18.93,18.93,0,0,1,9.42,6.78,36.64,36.64,0,0,1,5.67,11.29,4.64,4.64,0,0,1,.06,1c-1,.07-2,.11-2.93.22s-1.55,1.11-2.39,1.91c-.71-1.13-1.25-2.08-1.88-3-2.22-3.12-4.48-6.22-6.72-9.33a1.4,1.4,0,0,0-1-.66c-.1,0-.24,0-.29,0s-.31.33-.3.49a4.28,4.28,0,0,0,1.16,2.06c1.59,2.21,3.25,4.36,4.79,6.61,1,1.4,2.14,2.69,2.56,4.41Z"/><path class="cls-1" d="M331.52,320.59a9.06,9.06,0,0,1-1.6-2.76,9.75,9.75,0,0,1,5.62-.72,18.75,18.75,0,0,1,12,6.95c1.73,2.1,2.38,4.65,3,7.19,1.39,5.87,0,11.38-2.39,16.71a15,15,0,0,1-7.48,7.18,24.71,24.71,0,0,1-18.81,1.31,11.8,11.8,0,0,1-5.09-3.13,7,7,0,0,1-2.3-6,10.28,10.28,0,0,0-2.24-7.34,4.68,4.68,0,0,1-.83-2.48c-.62-5.51,2.07-9.7,5.3-13.68a15.54,15.54,0,0,1,7.19-4.81c1-.36,1.43-.29,2,.66a31.36,31.36,0,0,1,2.95,5.9c-1,.54-1.86-.09-2.72-.22a5,5,0,0,0-3.44.82.93.93,0,0,0-.32.75.73.73,0,0,0,.9.59c.49-.06,1-.31,1.45-.39a5.16,5.16,0,0,1,3.78.65c.51.33,1,.67,1.55.95a1.43,1.43,0,0,0,1.91-.28,8.14,8.14,0,0,1,6.14-2.77,1.54,1.54,0,0,0,1.12-.29c.14-.13.32-.33.31-.49a.78.78,0,0,0-.34-.48,3,3,0,0,0-2.62-.26,22.46,22.46,0,0,0-3.11,1.13c-.37.15-.71.41-1.07.06a1.24,1.24,0,0,1-.32-1.12A5.63,5.63,0,0,1,333.5,321c.27-.28.15-.55,0-.79a.65.65,0,0,0-.81-.17,5.89,5.89,0,0,0-.52.31C332,320.45,331.77,320.5,331.52,320.59Z"/><path class="cls-5" d="M198.61,80.8a32.21,32.21,0,0,1-3.82,13.55c-1.12,2.14-2.45,4.16-3.7,6.23a15.76,15.76,0,0,1-2.93,3.44,12.14,12.14,0,0,1-14.53,1.62,18.12,18.12,0,0,1-6.89-7,51.1,51.1,0,0,1-4.83-12.66,76,76,0,0,1-1.27-7.74c-.22-1.55.15-2.12,1.77-2.58a3.85,3.85,0,0,0,3-2.64A3.52,3.52,0,0,1,168,70.61c.92-.37,2-.52,2.64-1.38a14.19,14.19,0,0,1,1.68-2.44c.64-.55,1.69-.6,2.48-1,.95-.5,1.25-1.51,1.69-2.42.58-1.2,1.35-1.3,2.43-.49a12.12,12.12,0,0,0,2.43,1.76A4.51,4.51,0,0,1,184.44,68,2.35,2.35,0,0,0,187,69.74l3.33.1a2.07,2.07,0,0,1,2.25,1.61,2.47,2.47,0,0,0,2.12,1.9A2.05,2.05,0,0,1,196.6,75a.77.77,0,0,0,.32.49c2,.94,1.73,2.73,1.73,4.43C198.66,80.19,198.63,80.5,198.61,80.8Zm-21.79,3.92c0,1.18,0,2.08,0,3s0,1.82.07,2.72a2.71,2.71,0,0,0,1.83,2.53.58.58,0,0,0,.77-.25c.08-.16.13-.45,0-.55-1.34-1.49-1.27-3.32-1.27-5.14,0-1.11,0-2.22,0-3.33a14.08,14.08,0,0,0-.09-1.81c0-.36-.11-.85-.68-.77a.63.63,0,0,0-.6.57c-.12,1.22-.94,1.68-2,1.89a8,8,0,0,1-4.75-.32,4.88,4.88,0,0,0-2.64-.46c-.41.07-.82.24-.89.68s.25.74.71.69a5.46,5.46,0,0,1,2.62.62,7.59,7.59,0,0,0,5.32.24C175.68,84.89,176.08,84.85,176.82,84.72Zm-4.54-7.86c-1.08-.22-2.51.33-4,.68a2.17,2.17,0,0,0-.71.5c-.07.06-.16.2-.14.25a1.24,1.24,0,0,0,.33.47,1.53,1.53,0,0,0,1.45,0,13.68,13.68,0,0,1,6.57-.11c.68.13,1.36.28,2.05.36.11,0,.26-.27.39-.42a.33.33,0,0,0,0-.52,4.39,4.39,0,0,0-1-.62A13.35,13.35,0,0,0,172.29,76.85Zm16.58,8.53a11.9,11.9,0,0,0,1.19-.15,4.62,4.62,0,0,0,3.27-2.81.69.69,0,0,0-.07-.56c-.21-.33-.52-.19-.77,0a3,3,0,0,0-.43.41c-2,1.85-3.17,2-5.64.92-.45-.21-.88-.48-1.34-.66a4.81,4.81,0,0,0-1.16-.25c-.31,0-.66.09-.67.42a.94.94,0,0,0,.36.72c.68.41,1.42.72,2.12,1.1A5.93,5.93,0,0,0,188.87,85.38ZM178.63,99.44a12.93,12.93,0,0,0,5.32-1.11c1.49-.53,2.15-1.18,1.68-1.59-.83-.72-1.54.06-2.2.32a10.79,10.79,0,0,1-7.61.52,1,1,0,0,0-.3,0,.56.56,0,0,0-.65.45.72.72,0,0,0,.35.76C176.26,99.56,177.53,99.27,178.63,99.44Zm11.84-21.16,1.17.11a1.49,1.49,0,0,0,.59,0,1.28,1.28,0,0,0,.69-.46c.25-.5-.27-.77-.56-.83a13.79,13.79,0,0,0-8.46,1.31.4.4,0,0,0-.2.22,1,1,0,0,0-.09.53c.05.16.27.39.39.37a11.87,11.87,0,0,0,1.73-.4A16.19,16.19,0,0,1,190.47,78.27Z"/><path class="cls-5" d="M213.5,273.85a25.35,25.35,0,0,1,2-7.06,7.84,7.84,0,0,1,4.65-4c3.07-1.08,6.28-1.42,9.39-2.23a17.6,17.6,0,0,0,7.49-3.71c2-1.76,4.14-1.88,6.46-1.85a7.24,7.24,0,0,1,5.49,2.8,23.83,23.83,0,0,1,5.49,11.58,20.75,20.75,0,0,1-.8,10.71,6.2,6.2,0,0,1-2,3.25c-.72-1.62-1.42-3.19-2.12-4.75a14.82,14.82,0,0,0-3.4-4.59c-.8-.77-1.62-1.52-2.48-2.22a19.32,19.32,0,0,1-5.8-7.24,2.43,2.43,0,0,0-.57-.67c-.06-.06-.19,0-.31-.05a2.23,2.23,0,0,0,0,2.27,14.26,14.26,0,0,0,3.54,5.21c1.42,1.29,2.84,2.58,4.28,3.83a16.71,16.71,0,0,1,4.81,7.88,7.47,7.47,0,0,1-.81,6.68,58.75,58.75,0,0,0-5.26,10.18,14.13,14.13,0,0,1-4.8,5.74,4.57,4.57,0,0,1-2.78,1c-.61-.73,0-1.38.24-2a74,74,0,0,0,3.55-11.52,2.47,2.47,0,0,1,1.3-1.88,10.58,10.58,0,0,0,3.24-2.7,4.52,4.52,0,0,0,.19-5.84,10.07,10.07,0,0,0-2.86-2.66,37.82,37.82,0,0,0-10.52-4.46c-1.55-.44-3.11-.84-4.68-1.22a2.31,2.31,0,0,1-1.14-.81c-1.2-1.25-2.67-.9-3.14.79a44.2,44.2,0,0,1-2.21,6.25,7.52,7.52,0,0,1-5.13,4.32c-1.43.39-2.18-.13-2.8-1.81.86-.44,1.79-.1,2.68-.23a4.69,4.69,0,0,0,3.61-2.45,4.1,4.1,0,0,0-3.25-6.25C214.61,274.13,214.09,274.39,213.5,273.85Z"/><path class="cls-2" d="M205.4,68.7c-.56,0-.87-.4-1.25-.7a38.12,38.12,0,0,0-9.41-5.36,60.7,60.7,0,0,0-15.1-4.13c-5-.65-10-1.35-15,0a5.86,5.86,0,0,0-2.46,1,14.8,14.8,0,0,1-2.06,1.24c-.54.32-1.21.62-1.71.32-.76-.45-.3-1.29-.2-1.93.74-4.47,1.58-8.93,2.27-13.41A3.29,3.29,0,0,1,162,43.3a5.4,5.4,0,0,1,1-.59c4.48-1.69,9.05-2.76,13.88-1.8,2.67.53,5.34,1,8,1.6a85.7,85.7,0,0,1,13.18,4.31,34.41,34.41,0,0,1,7,4.17,11.07,11.07,0,0,1,1.15,1,4.48,4.48,0,0,1,1.5,4.08c-.6,4.18-1.15,8.36-2.1,12.48C205.62,68.6,205.48,68.65,205.4,68.7Z"/><path class="cls-4" d="M234,338.55a14.8,14.8,0,0,1,3.5-10,5.72,5.72,0,0,1,5.65-2,7,7,0,0,1,4.31,2.59,21.25,21.25,0,0,1,5.14,9.46c.33,1.58.83,3.13,1,4.72a13.51,13.51,0,0,1-2.74,9.94,3.37,3.37,0,0,1-3.16,1.33,11.9,11.9,0,0,1-8.11-3.49c0-1,1-.89,1.52-1.23q5.14-3.31,2.56-9.16c-1.12-2.54-3.36-3.3-5.79-3.78a1.43,1.43,0,0,0-1.37.48A3.3,3.3,0,0,1,234,338.55Z"/><path class="cls-5" d="M194.26,99c.3,3.48-.23,6.81.42,10.09.09.44-.29.72-.64.93l-4.4,2.63c-.34.21-.68.44-1,.63-3.84,2.06-5.08,5.5-5.06,9.59a9.58,9.58,0,0,1-.2,3.48,6.57,6.57,0,0,1-3.1.09,1,1,0,0,1-1-.93c-.18-1.2-.4-2.39-.49-3.59a11.57,11.57,0,0,0-3.41-7.5,21.35,21.35,0,0,0-4.65-3.82,2.89,2.89,0,0,1-1.86-2.78,23.68,23.68,0,0,0-.61-3.86.53.53,0,0,1,.25-.44.62.62,0,0,1,.55.07,25,25,0,0,0,3.29,2.64A14.73,14.73,0,0,0,183,108.3a11.29,11.29,0,0,0,5.79-3.07,19.38,19.38,0,0,0,4-4.91A2,2,0,0,1,194.26,99Z"/><path class="cls-4" d="M225.79,343.42c3.22.41,5.87-1,8.44-2.66a20.34,20.34,0,0,1,2.29-1.44,4.11,4.11,0,0,1,6,2.62c1.24,3.81-.35,6.35-4.11,7.22a14.35,14.35,0,0,1-3,.26,11.74,11.74,0,0,0-7.48,2.75,27.92,27.92,0,0,1-3.76,2.5c-2.09,1.21-4.07.71-5.92-.63a3.68,3.68,0,0,1-1.41-2.24,6.55,6.55,0,0,1,4.23-7.72A11.44,11.44,0,0,1,225.79,343.42Z"/><path class="cls-6" d="M80.15,284.32a29.16,29.16,0,0,1-3.07-.34c-3.51-.73-3.59-.86-3.86-4.43,0-.4-.08-.8-.1-1.2-.1-2.43.29-3.21,2.62-3.6,3.24-.55,6.52-1.12,9.83-.26,1.56.41,2.49,1.21,2.56,2.86a28.81,28.81,0,0,0,.14,3c.22,1.48-.63,2.24-1.75,2.82C84.59,284.17,82.48,284.26,80.15,284.32Z"/><path class="cls-6" d="M78.08,318.39a10.94,10.94,0,0,1-2.16,6.77,9.85,9.85,0,0,1-1.67,1.72c-.89.71-1.84.48-2.14-.57-1.1-3.81-1.35-7.53,1.51-10.81a10,10,0,0,0,.76-.93,1.13,1.13,0,0,0,0-1.4c-.79-1-1.59-2.07-2.43-3.07a8.12,8.12,0,0,1-1.87-4.68.8.8,0,0,1,.6-.91c.44-.13,1,0,1.07.33.79,2.35,2.72,4,3.87,6.07a3.16,3.16,0,0,1,.63,1.94,1.53,1.53,0,0,0,.45,1.39C78,315.36,78,316.89,78.08,318.39Z"/><path class="cls-4" d="M345.34,311.7a4.46,4.46,0,0,1-2.24.55,2.33,2.33,0,0,1-.2-.68,12.59,12.59,0,0,0-.66-6.54,1,1,0,0,1,.38-1.32c1.42-.76,2.87-1.46,4.31-2.17a5.27,5.27,0,0,1,1.13-.42,4,4,0,0,1,5,4.06,4.94,4.94,0,0,1-1,3.1,1.64,1.64,0,0,1-1.84.69,10.21,10.21,0,0,0-3.57-.53,2.23,2.23,0,0,0-1.84.87c-.54.86,0,1.53.49,2.17C345.36,311.53,345.34,311.63,345.34,311.7Z"/><path class="cls-6" d="M79.91,319.55a3.36,3.36,0,0,1,.31-1.74,2,2,0,0,1,1-1,4,4,0,0,1,3.93.75,3,3,0,0,1,1,3.21,6.85,6.85,0,0,1-1.74,3.41,1.66,1.66,0,0,1-2.61,0A6.7,6.7,0,0,1,79.91,319.55Z"/><path class="cls-6" d="M88.15,328.55c-.58-.23-1.15-.42-1.67-.68a.8.8,0,0,1-.4-1,11.61,11.61,0,0,1,1.13-2.44,10.88,10.88,0,0,1,5.56-3.92,1.06,1.06,0,0,1,1.43,1.29,3,3,0,0,1-.28.86,16.79,16.79,0,0,1-4.66,5.41A6.37,6.37,0,0,1,88.15,328.55Z"/><path class="cls-6" d="M87.52,308.47a3.79,3.79,0,0,1,2,.53,2.2,2.2,0,0,1,1.1,3,10.09,10.09,0,0,1-2.15,3.22,1.65,1.65,0,0,1-2.42.09,5.07,5.07,0,0,1-1.73-2.74A3.38,3.38,0,0,1,87.52,308.47Z"/><path class="cls-5" d="M143,224.81c2.15.44,4.12.76,6,1.27,1.46.39,2,1.57,1.61,3.09a3.49,3.49,0,0,1-3.73,2.82.91.91,0,0,1-.89-.67A46.29,46.29,0,0,0,143,224.81Z"/><path class="cls-5" d="M211.6,281.19a5.85,5.85,0,0,1,.44-3,4.28,4.28,0,0,1,1-1.5,2.53,2.53,0,0,1,4.26,1.24,1.59,1.59,0,0,1-.06.88c-.44,1.25-1.89,2.71-3.4,2.47A21.54,21.54,0,0,0,211.6,281.19Z"/><path class="cls-6" d="M77.53,310.33l0-.3c.17-1.91,1.16-2.66,3-2.3a2.31,2.31,0,0,1,1.91,2.62,3.94,3.94,0,0,1-2.21,3,1.53,1.53,0,0,1-2.1-.49A3.16,3.16,0,0,1,77.53,310.33Z"/><path class="cls-5" d="M143.49,236.8c1.25,0,1.54.16,2,1.37.24.65.36,1.35.56,2a2.57,2.57,0,0,1-.88,2.68.8.8,0,0,1-1.07.18,5,5,0,0,1-2.5-4.49C141.63,237.3,142.16,236.81,143.49,236.8Z"/><path class="cls-6" d="M79.77,324.61c.14.08.52.16.62.38a12.64,12.64,0,0,0,4.5,5.16,1.71,1.71,0,0,1,.62,1,1.1,1.1,0,0,1-.19,1.12.83.83,0,0,1-1.09.17,11.76,11.76,0,0,1-5.47-6.89C78.62,325.08,79.18,324.51,79.77,324.61Z"/><path class="cls-5" d="M147,248c2.19-.51,2.72-2.39,3.68-3.75,1,.14,1.17.92,1.67,1.36a.76.76,0,0,1,0,1.27c-.67.6-1.42,1.12-2,1.78C149.11,249.85,148.78,250.27,147,248Z"/><path class="cls-6" d="M330,323.31c-.58-.08-.77-.59-1-1a22.07,22.07,0,0,1-1.71-3.17,5.07,5.07,0,0,0-2-2.51,7.78,7.78,0,0,1-1.3-1.25c-.07-.08,0-.35.11-.51a.27.27,0,0,1,.25-.07,4.07,4.07,0,0,1,1.05.53,18.4,18.4,0,0,1,4.14,5.12C330.06,321.39,330,321.4,330,323.31Z"/><path class="cls-5" d="M160.34,86.29a2.62,2.62,0,0,1-2.11-1.66,10.1,10.1,0,0,1-1.27-5c2.25.53,2.94,2.15,3.12,4.15.05.59.24,1.16.34,1.75A3.79,3.79,0,0,1,160.34,86.29Z"/><path class="cls-5" d="M148,240.86a2.44,2.44,0,0,1,.86,2.72,4.31,4.31,0,0,1-1.63,2.42,1.81,1.81,0,0,1-1.69.3,1.83,1.83,0,0,1-.9-.73c-.2-.41.16-.68.56-.85C146.82,244,147.3,242.46,148,240.86Z"/><path class="cls-6" d="M346.62,310.34c3.43-.6,5.58.6,6.41,3.44a1.08,1.08,0,0,1-.15.82.54.54,0,0,1-.79,0,13.16,13.16,0,0,1-1.2-.9c-.66-.62-1.22-1.34-1.92-1.9A23.82,23.82,0,0,0,346.62,310.34Z"/><path class="cls-5" d="M203.5,82.53a5.72,5.72,0,0,1-3.4,4.58.92.92,0,0,1-.82,0c-.15-.13-.12-.52-.1-.8a2.34,2.34,0,0,1,2.07-2.46A8.74,8.74,0,0,0,203.5,82.53Z"/><path class="cls-6" d="M356.75,314.15a5.88,5.88,0,0,1,3.46-3.39c.42-.2,1-.42,1.39,0s-.14.86-.41,1.21a6.29,6.29,0,0,1-3.3,2.38A1.07,1.07,0,0,1,356.75,314.15Z"/><path class="cls-6" d="M354.67,312.24a5.09,5.09,0,0,1-.22-3.09A3.07,3.07,0,0,1,354.67,312.24Z"/><path class="cls-5" d="M138.26,237.86l1.5,2.3a4.12,4.12,0,0,1-2.1-1.49Z"/><path class="cls-3" d="M240.16,172.88a1.07,1.07,0,0,1-.11.25c-.16.21-.33.41-.5.62a2,2,0,0,1-.27-.65,2.94,2.94,0,0,1,.19-.79Z"/><path class="cls-3" d="M57.76,210.73c-.2.2-.5.33-.67.12s-.09-.66.14-1Z"/><path class="cls-5" d="M309.1,354.52c-.14.23-.33.48-.6.25s-.1-.49,0-.73Z"/><path class="cls-7" d="M165.7,141.19h2.57c.52,0,1.13.06,1.12.68s-.6.75-1.11.83a7.57,7.57,0,0,1-1.5.15,3.06,3.06,0,0,0-2.81,1.33,3.23,3.23,0,0,1-4.25,1.14,4.35,4.35,0,0,1-2.66-4.62c.43-2.67,2.38-4.3,4.79-4a3.68,3.68,0,0,1,3.4,2.94C165.37,140.16,165.2,140.71,165.7,141.19Zm-4.52-3.1c-1.52,0-2.58,1.34-2.52,3.13a2.68,2.68,0,0,0,2.84,2.83c1.26-.08,2.38-1.63,2.4-3.4C163.92,139.08,162.87,138.15,161.17,138.09Z"/><path class="cls-7" d="M199.37,137.44c3.16.06,5,3,3.74,5.61a5.84,5.84,0,0,1-2.7,2.71,2.65,2.65,0,0,1-2.86-.2,4.36,4.36,0,0,1-1.52-1.4,2.34,2.34,0,0,0-2.77-1.62c-.16,0-.53-.36-.54-.58s.24-.51.44-.71a.9.9,0,0,1,.57-.17,2.1,2.1,0,0,0,2-1.52A3.62,3.62,0,0,1,199.37,137.44Zm-2.59,4.14c0,1.36,1.39,3,2.49,3a3.4,3.4,0,0,0,2.8-3.38,3,3,0,0,0-3.09-2.32A2.49,2.49,0,0,0,196.78,141.59Z"/><path class="cls-7" d="M176.82,84.72c-.74.14-1.15.17-1.52.29a7.59,7.59,0,0,1-5.32-.24,5.46,5.46,0,0,0-2.62-.62c-.47,0-.79-.21-.71-.69s.48-.62.89-.68a4.88,4.88,0,0,1,2.64.46,8,8,0,0,0,4.75.32c1.06-.22,1.88-.68,2-1.89a.63.63,0,0,1,.6-.57c.57-.07.63.41.68.77a14.08,14.08,0,0,1,.09,1.81c0,1.11,0,2.22,0,3.33,0,1.82-.08,3.65,1.27,5.14.09.1,0,.39,0,.55a.58.58,0,0,1-.77.25,2.71,2.71,0,0,1-1.83-2.53c-.08-.9-.06-1.81-.07-2.72S176.82,85.9,176.82,84.72Z"/><path class="cls-7" d="M172.29,76.85a13.35,13.35,0,0,1,4.93.61,4.39,4.39,0,0,1,1,.62.33.33,0,0,1,0,.52c-.13.15-.28.44-.39.42-.69-.08-1.37-.23-2.05-.36a13.68,13.68,0,0,0-6.57.11,1.53,1.53,0,0,1-1.45,0,1.24,1.24,0,0,1-.33-.47c0-.05.07-.2.14-.25a2.17,2.17,0,0,1,.71-.5C169.77,77.18,171.21,76.63,172.29,76.85Z"/><path class="cls-7" d="M188.87,85.38a5.93,5.93,0,0,1-3.14-.9c-.7-.38-1.44-.69-2.12-1.1a.94.94,0,0,1-.36-.72c0-.33.36-.46.67-.42a4.81,4.81,0,0,1,1.16.25c.46.18.89.45,1.34.66,2.47,1.12,3.66.92,5.64-.92a3,3,0,0,1,.43-.41c.25-.15.56-.29.77,0a.69.69,0,0,1,.07.56,4.62,4.62,0,0,1-3.27,2.81A11.9,11.9,0,0,1,188.87,85.38Z"/><path class="cls-7" d="M178.63,99.44c-1.1-.17-2.37.13-3.42-.66a.72.72,0,0,1-.35-.76.56.56,0,0,1,.65-.45,1,1,0,0,1,.3,0,10.79,10.79,0,0,0,7.61-.52c.66-.26,1.37-1,2.2-.32.47.41-.19,1.06-1.68,1.59A12.93,12.93,0,0,1,178.63,99.44Z"/><path class="cls-7" d="M190.47,78.27a16.19,16.19,0,0,0-4.73.9,11.87,11.87,0,0,1-1.73.4c-.11,0-.33-.22-.39-.37a1,1,0,0,1,.09-.53.4.4,0,0,1,.2-.22,13.79,13.79,0,0,1,8.46-1.31c.29.06.81.32.56.83a1.28,1.28,0,0,1-.69.46,1.49,1.49,0,0,1-.59,0Z"/><path class="cls-3" d="M29.12,339.92a3.87,3.87,0,0,1-3.35-1.13,1.06,1.06,0,0,1,0-.8.56.56,0,0,1,.5-.23,9.16,9.16,0,0,0,5,.14c.43-.13,1.05-.37,1.16.38.07.52-.34.91-.75,1.18A5.1,5.1,0,0,1,29.12,339.92Z"/><path class="cls-3" d="M56.49,343.24a4.66,4.66,0,0,1,4.56,2.37,1.1,1.1,0,0,1,0,.85.48.48,0,0,1-.75.18c-1.5-1.83-3.54-2.08-5.69-2.08a.5.5,0,0,1-.49-.6.94.94,0,0,1,.61-.54A15.36,15.36,0,0,1,56.49,343.24Z"/><path class="cls-3" d="M78.45,353.07l-1.62.12c-.5,0-1.08.12-1.12-.55s.5-.77,1-1a3.11,3.11,0,0,1,3.32.52,1,1,0,0,1,.34.74c0,.5-.47.55-.88.46S78.87,353.21,78.45,353.07Z"/></svg>