<svg id="Calque_1" data-name="Calque 1" xmlns="http://www.w3.org/2000/svg" viewBox="0 0 447.23 366.99"><defs><style>.cls-1{fill:#fbfcfc;}.cls-2{fill:#9ad0f2;}.cls-3{fill:#433f40;}.cls-4{fill:#e0effd;}.cls-5{fill:#fdca47;}.cls-6{fill:#6bc47b;}.cls-7{fill:#e9eaec;}</style></defs><title>Nosgestesclimat-illu x 12 SVG</title><polygon class="cls-1" points="219.45 290.49 216.55 284.3 219.15 272.52 206.87 271.63 194.5 265.34 185.02 264.64 173.04 271.63 168.55 278.51 170.65 282.2 177.13 284.2 179.03 283 186.71 286.3 219.45 290.49"/><polygon class="cls-1" points="242.3 112.46 225.01 109.05 215.22 115.88 211.14 123.91 203.43 126.45 188.9 128.21 183 145.64 198.37 167.96 189.23 179.52 167.98 198.68 164.79 202.31 164.79 208.59 169.08 213.65 176.35 214.97 184.17 208.73 213.77 173.76 216.54 161.68 225.46 162.34 227.99 168.18 238.45 169.06 248.47 165.53 255.18 159.81 253.42 151.99 261.68 134.15 242.3 112.46"/><path class="cls-2" d="M285.85,333.73s7.37-3.74,8.72-6.23a11.07,11.07,0,0,0,1.35-4.78l-1.25-2.91-4-2.6-4.15-.73-9.55-2-9.34,4.57-15.36,7.06-13.81,1.56-7.89-.1,1.56,6.33,5.81,4.46,6.54,1.66,9.14.31,14.33-2.08,10.49-2.49Z"/><path class="cls-3" d="M318.37,316.18a6.06,6.06,0,0,1,1.82-.87c2.91-.29,5.32-1.82,7.74-3.17,4.14-2.32,8.41-4.36,12.66-6.46a109.64,109.64,0,0,1,14.52-5.82,34,34,0,0,1,7.95-1.61c.77-.06,1.55-.11,2.32-.22.39-.06.78-.27.63-.76a14.17,14.17,0,0,1-.71-4.29c0-.46-.4-.66-.78-.71-.76-.11-1.54-.19-2.31-.23a62.57,62.57,0,0,0-15.3,1.08c.18.67.77.48,1.18.59a5.66,5.66,0,0,1,3,2.21c.34.44.94.85.52,1.49a1.59,1.59,0,0,1-1.54.67c-2.39-.34-4.78-.66-7.13-1.16-1-.22-1.45-1.18-1.37-2.43a15.11,15.11,0,0,0-4.9,1.63c.08,1,1.06,1,1.67,1.34A5.56,5.56,0,0,1,341,300a2.85,2.85,0,0,1-.08,2.77A5.13,5.13,0,0,1,336,305a12.42,12.42,0,0,1-3.49-1.41c-.75-.44-1.5-.89-2.29-1.26-1.88-.88-3.74-1.1-5.34.55a4.11,4.11,0,0,1-3.95,1.21,3.78,3.78,0,0,0-4.06,1.64c-1.14.2-2.28.43-3.43.58a4.11,4.11,0,0,0-2.53,1.3c-.25.27-.55.58-.15,1a33.38,33.38,0,0,1,3.16-1.85,3,3,0,0,1,3,.17c.1.51.08,1-.53,1.15a13.43,13.43,0,0,0-2.27.47,4.94,4.94,0,0,0-2.3,1.71,2.5,2.5,0,0,0-.35,2.72c.16.36,0,.73-.21,1.1-.34.73.22.74.71.76.27,0,.58-.06.74.27a.51.51,0,0,1-.26.72q-4.33,2-8.68,4a1.13,1.13,0,0,1-1.12-.05.58.58,0,0,1-.24-.75.93.93,0,0,1,.37-.41c.68-.38,1.36-.75,2.06-1.09a14.39,14.39,0,0,0,3.11-1.52c.84-.71.76-2.11,1.65-3a2.41,2.41,0,0,0-2.31,0c-.87.42-1.72.9-2.59,1.33a1.08,1.08,0,0,1-1.34-.12c-.31-.31,0-1.05.65-1.41,1.16-.66,2.37-1.09,3.1-2.47.55-1,1.58-1.83,2.12-3a4.72,4.72,0,0,1,4.22-2.68,8.13,8.13,0,0,0,4.26-1.46,4.24,4.24,0,0,1,3.36-.6,2.89,2.89,0,0,0,2.88-.92c4.57-4.3,10.33-6.4,16-8.68,2-.12,2.74-1.4,3.22-3.14,1.5-5.42,3.07-10.81,4.65-16.21,2.2-7.53,4.44-15.05,6.64-22.58,1.55-5.3,3-10.62,4.61-15.92.77-2.6,1.6-5.19,2.46-7.77a10,10,0,0,0,.57-3.71,3.59,3.59,0,0,0-2.37-3.37,13.06,13.06,0,0,0-5.68-1,2.4,2.4,0,0,0-1.94,1.11,12.14,12.14,0,0,0-1.55,3.75c-1.53,5.32-3,10.65-4.62,15.94-4.05,13.25-8.18,26.49-12.27,39.73-1.34,4.35-2.66,8.71-4,13.07-.89,2.92-.9,3-4,2.33-2.56-.52-5.12-1.07-7.65-1.71-1.72-.44-1.95-.89-1.46-2.46q3.91-12.64,7.86-25.28c1.5-4.81,3-9.62,4.47-14.44,2.26-7.42,4.49-14.85,6.75-22.26.85-2.78,1.76-5.54,2.64-8.31.06-.18.11-.37.15-.56.69-3.22,0-4.22-3.25-4.79-1.34-.23-2.68-.42-4-.56-2.5-.26-3.46.36-4.41,2.78a9,9,0,0,0-.48,1.37c-1.21,5.6-3.1,11-4.75,16.48-2.21,7.33-4.4,14.66-6.64,22a7.86,7.86,0,0,0-.29,2.58c.19,7,.11,14-.14,21a36,36,0,0,1-1.54,10.32,18.23,18.23,0,0,1-4.43,7.41c-1,1-2,1.89-2.92,2.84a1.76,1.76,0,0,1-1.57.57.76.76,0,0,1-.5-.24.61.61,0,0,1,.05-.55c.41-.54.84-1.06,1.3-1.56s1.06-1.14,1.63-1.67c4.24-3.84,5.86-8.86,6.13-14.32.35-6.88.61-13.78.35-20.68-.25-6.69-.72-13.37-1.12-20-.16-2.71-.45-5.42-.58-8.13-.29-5.83-1.29-11.58-2.09-17.34A71.71,71.71,0,0,0,304.34,199a5.78,5.78,0,0,0-2.63-4.29,4.79,4.79,0,0,0-2.09-.94,11.68,11.68,0,0,0-8.12,1.28,36,36,0,0,0-10.15,9,62.49,62.49,0,0,0-10.39,20.37,95.75,95.75,0,0,0-2.66,9.22,10.48,10.48,0,0,0-.27,3.15c.61.31.86-.15,1.16-.49,4.22-4.69,9-8.82,13.11-13.63a4.29,4.29,0,0,1,2.09-1.52.62.62,0,0,1,.5.19.74.74,0,0,1,.12.52.94.94,0,0,1-.21.53c-1.89,1.94-3.46,4.15-5.36,6.11-3.44,3.55-7.11,6.88-10.31,10.66a21.36,21.36,0,0,0-3.91,7.41A8.86,8.86,0,0,0,265,251c.56.22.91-.11,1.33-.37a31.9,31.9,0,0,1,3.27-1.87q5.93-2.73,11.77-5.64a25.77,25.77,0,0,0,5.7-4,15.09,15.09,0,0,1,1.64-1.16s.17,0,.22.1a.32.32,0,0,1,.09.24,1.37,1.37,0,0,1-.22.52,24.51,24.51,0,0,1-7.37,6.07c-3.35,1.75-6.73,3.42-10.1,5.14-1.2.62-2.43,1.21-3.57,1.92a17.94,17.94,0,0,0-2.55,1.94c-2.07,1.87-2,2.5.56,3.42a103.15,103.15,0,0,1,16.15,7.9,160.76,160.76,0,0,1,15.18,10.26,15.63,15.63,0,0,1,1.75,1.52.67.67,0,0,1-.07,1c-.3.29-.67.48-1,.22-1.65-1.19-3.3-2.39-4.92-3.63a118.43,118.43,0,0,0-23.46-13.91,57.09,57.09,0,0,0-11.19-4c-1.61-.35-3.25-.53-4.88-.78a2.6,2.6,0,0,0-.87,0,33,33,0,0,0-8.84,2.76,13.82,13.82,0,0,0-6.35,6.94c-.24.53-.45,1.07-.72,1.59a21.91,21.91,0,0,0-2.43,9.21,28.86,28.86,0,0,1-.4,3.18,37.44,37.44,0,0,0,0,10.17,16.79,16.79,0,0,0,1,3.66,3.55,3.55,0,0,0,2.17,2.18,35.61,35.61,0,0,0,5,1.61c1.78.43,3.58.81,5.36,1.24a1,1,0,0,1,.86.9,9.36,9.36,0,0,1-2.16.07c-2.65-.53-5.39-.62-7.95-1.59a9.16,9.16,0,0,1-2.15-.84,9.28,9.28,0,0,0-5.05-1.81,48.1,48.1,0,0,1-5.41-1,14.85,14.85,0,0,1-5.61-2.26,8.77,8.77,0,0,1-3.69-6.67,23,23,0,0,1,1.39-10c.15-.45.34-.89.49-1.28-.42-.73-1-.58-1.55-.51a24.85,24.85,0,0,1-18.15-4.53,20,20,0,0,0-4.74-2.8,7.3,7.3,0,0,0-2.24-.56c-3.21-.07-6.36,0-9.36,1.48a35.41,35.41,0,0,0-7.6,4.76,14.44,14.44,0,0,0-4,5.32,4.24,4.24,0,0,0-.36,2.26,2.92,2.92,0,0,0,2.17,2.79c1.76.43,3.54.79,5.7,1.26-.85-1.1-1.44-1.85-2-2.61a13.7,13.7,0,0,1-1.17-1.66c-.25-.47-.72-1-.15-1.57.41-.41,1.19-.23,1.66.6,1.8,3.17,4.76,4.73,8,5.9a28.71,28.71,0,0,0,10.17,2.21,19.34,19.34,0,0,1,7.43,1c4.2.19,8.16,1.6,12.24,2.4a7.26,7.26,0,0,1,1.39.43c.38.16,1.13.06.86.81-.2.54-.82.51-1.26.44-2.11-.35-4.22-.68-6.29-1.19a50.27,50.27,0,0,0-6.57-1.15c-2.7-.29-5.38-.67-8.07-1a6.83,6.83,0,0,0-.87-.09c-4.58,0-8.72-1.57-12.77-3.48-.87-.41-1.71-1-2.62-.1a15.14,15.14,0,0,1-6.87-.82,5.13,5.13,0,0,1-2.4-6.7,16.63,16.63,0,0,1,3.52-5.3,25.08,25.08,0,0,1,5.59-4.15c1.45-.79,2.93-1.5,4.4-2.26a11.78,11.78,0,0,1,4.18-1.16c4.25-.47,4.25-.46,8.3.39.29-.24.12-.53,0-.74-2.45-4.48-3.5-9.42-4.66-14.33a51.19,51.19,0,0,1-.61-19.09,63.83,63.83,0,0,1,5-16.66,113,113,0,0,1,6.15-11.53,39,39,0,0,0,3.42-7.37c.24-.73.51-1.46.81-2.17,0-.11.33-.19.49-.17a.69.69,0,0,1,.44.3,2,2,0,0,1-.05,1.69A47.64,47.64,0,0,1,201.1,204a80.49,80.49,0,0,0-9.13,21.6A51.45,51.45,0,0,0,190.45,242a75.16,75.16,0,0,0,2.05,11.13,57.18,57.18,0,0,0,4.18,11.42,5.89,5.89,0,0,0,2,2.38,31.5,31.5,0,0,0,6.94,3.62,16.06,16.06,0,0,0,4.25.91,40.12,40.12,0,0,0,8.11.07,3,3,0,0,0,2.43-1.27,21.59,21.59,0,0,1,2.9-3.25,11,11,0,0,1,8.17-3.2c.78,0,1.56,0,2.33,0a4.16,4.16,0,0,0,3.63-2,14.23,14.23,0,0,1,7.58-5.6,48,48,0,0,1,5-1.54,20,20,0,0,1,8.1.09c1.13.19,2.23.54,3.28.8.16-.1.27-.14.32-.21a11.09,11.09,0,0,0,1.62-2.69,9.37,9.37,0,0,0-.14-2.88,12.76,12.76,0,0,1,1.6-7c.19-.34.38-.68.55-1,.49-1.07,1-2.15.06-3.26a2.71,2.71,0,0,1-.22-.54c-2.67-5.59-3.31-11.55-3-17.62a19.79,19.79,0,0,1,3.07-9.89,20.11,20.11,0,0,1,4.63-4.66c.56.82-.2,1.15-.45,1.57a46.27,46.27,0,0,1-2.94,3.58,15.26,15.26,0,0,0-2.68,7.58,42.2,42.2,0,0,0,.68,13.31,11.39,11.39,0,0,0,1.34,3.48c.21-.25.39-.38.43-.55a115.85,115.85,0,0,1,6.19-19.33,46,46,0,0,1,5.05-9.12,53,53,0,0,1,6.5-7.82,31,31,0,0,1,8.63-5.84c2.45-1.13,5.11-.88,7.7-.21.62.16,1.12.73,1.83.58-.19-3.67-1.16-5.64-3.67-7.8a17.81,17.81,0,0,0-6.84-3.69,38.3,38.3,0,0,0-12.37-1.27,61.65,61.65,0,0,0-12.33,1.8,30.61,30.61,0,0,0-6.46,2.55,13,13,0,0,1-4.11,1.33.59.59,0,0,1-.49-.18c-.18-.3,0-.56.29-.69,5.4-2.62,10.81-5.13,16.9-5.89a59.72,59.72,0,0,1,12.46-.56c6.49.55,12.29,2.59,16.57,7.84.1.12.33.14.62.26a7,7,0,0,0,.47-5.56,17.2,17.2,0,0,0-4.73-7.88,43.66,43.66,0,0,0-15.7-9.74,45.08,45.08,0,0,0-18.33-2.45,20.51,20.51,0,0,0-2.57.45c-.54.1-1,0-1.11-.6s.29-.87.85-1a3.61,3.61,0,0,0,2.11-.85c-.5-.88-1.46-.82-2.22-1.11a16,16,0,0,0-5.43-.87c-.74,0-1.06.5-.75,1.13a76.18,76.18,0,0,0,6.11,9.89,1.08,1.08,0,0,0,1.25.48c3.35-.9,6.76-.52,10.15-.54a11.44,11.44,0,0,1,3.75.4,5.24,5.24,0,0,0,1.44.17,39,39,0,0,1,15.72,3.76,11.77,11.77,0,0,1,3.07,2.21c-.43-.84-1.22-.12-1.84-.47a13.13,13.13,0,0,0-2.17-.81c-.64-.22-1.31-.37-1.93-.64a31.22,31.22,0,0,0-9-2.15,91.45,91.45,0,0,0-13.93-1,22.5,22.5,0,0,0-2.89.24,69.37,69.37,0,0,0-15.66,4.26,73.17,73.17,0,0,0-10,5.41c-3.2,2-6.32,4.13-9.48,6.2-1,.68-1.88.66-2.57-.27a12.37,12.37,0,0,1-2.61-5.14,8.65,8.65,0,0,1,1.38-6.38c2.15-3.3,1.87-2.21.48-5.76a5.45,5.45,0,0,0-1.24-2.4A20.41,20.41,0,0,0,219.3,171a10.2,10.2,0,0,0-1.87,7.16c.35,3.81,1.33,7.43,3.87,10.47.81,1,.78,1.32,0,2.32-3.17,4-4.3,8.59-4.7,13.5a46.82,46.82,0,0,1-1,7.19c-.16.67-.23,1.46-.73,1.86-1.3,1-1.31,2.5-1.48,3.91-.1.77-.12,1.55-.24,2.32a1.61,1.61,0,0,1-1.46,1.56,2,2,0,0,1-2.15-1.55,5.45,5.45,0,0,1,0-1.16,25.18,25.18,0,0,1,.17-2.62,3.45,3.45,0,0,0-.76-3,5.45,5.45,0,0,1-1.08-3,26.56,26.56,0,0,1,2.38-15,25.87,25.87,0,0,1,4.34-6.84,7.11,7.11,0,0,0,.79-.85c.55-.79,2-.77,2-1.89a9,9,0,0,0-.69-2.49,18.2,18.2,0,0,1-.7-7.5c-1.91-.59-3.18.17-4.35,1.54q-7.75,9.08-15.58,18.1-5.52,6.39-11.07,12.77c-.25.29-.47.62-.75.89a1.94,1.94,0,0,0-.34,2.78,5.64,5.64,0,0,1-.15,5.82,38,38,0,0,1-3.51,5c-.47.62-1,1.22-1.43,1.83a2.89,2.89,0,0,0-.13,3.72,16.36,16.36,0,0,1,2.56,5.81,25.27,25.27,0,0,1,.1,9.53,46.33,46.33,0,0,1-6.78,16.6,40.71,40.71,0,0,1-22.33,17.25,36.22,36.22,0,0,1-4,.9,8.07,8.07,0,0,1-1.73.2c-1.4,0-2.35-.5-2.1-1,.47-.9,1.37-.53,2.08-.56a19.54,19.54,0,0,0,4.82-1A41.16,41.16,0,0,0,170,263.26,27.53,27.53,0,0,0,173,259c3-5.1,5.67-10.4,6.66-16.34.91-5.49.14-10.64-3.44-15.14-.8,0-1.09.7-1.51,1.17-.78.86-1.49,1.79-2.3,2.62a8.66,8.66,0,0,1-7.71,2.63c-5.73-.9-10.73-3.32-14.3-8.11a18.72,18.72,0,0,1-3.62-8.8,12.66,12.66,0,0,1,2.69-9.3c.51-.68,1.08-1.31,1.77-2.15a14.17,14.17,0,0,0-7.23,1.19,31.1,31.1,0,0,0-7.3,4.12,1.6,1.6,0,0,1-.77.37,1.54,1.54,0,0,1-.8-.22c-.06,0,0-.38.07-.52a3.39,3.39,0,0,1,.73-.89,27,27,0,0,1,10.6-5.21c1.69-.35,3.4-.86,5.15-.17a1.7,1.7,0,0,0,1.85-.49,63.5,63.5,0,0,1,6.68-5.13,26.35,26.35,0,0,1,3-1.83c1.51-.78,3.08-1.17,4.68-.18a1.41,1.41,0,0,0,1.83-.3,212.69,212.69,0,0,0,17.27-16c2.37-2.55,5-4.89,7.25-7.56a23.69,23.69,0,0,0,2.52-3.2,3,3,0,0,0,0-3.49,83.65,83.65,0,0,0-5.86-8c-2-2.4-4-4.76-6-7.17a7,7,0,0,1-2-5.29c.08-.72-.34-1-1-.67-4.56,1.9-9.19,3.6-13.65,5.73a104.41,104.41,0,0,1-9.93,4.07,39.84,39.84,0,0,1-5.67,1.18c-1,.2-2.08.43-3.13.58a.72.72,0,0,1-.87-.59,1.9,1.9,0,0,1,.23-.79.49.49,0,0,1,.19-.21c3.24-2.12,6.09-4.8,9.75-6.29,3.85-1.57,7.64-3.31,11.49-4.86s7.61-3.35,11.36-5.14a3.44,3.44,0,0,1,.78-.38c2.32-.42,3-2,3.24-4.14a19.06,19.06,0,0,1,1-3.93,4.55,4.55,0,0,1,4.57-3.36c1.85,0,3.69,0,5.54-.05a25.66,25.66,0,0,0,7.48-1.39c-.26-1.12-1.29-1.46-1.94-2.09a4.87,4.87,0,0,1-1.32-3.14,1.69,1.69,0,0,1,.1-.57,1.05,1.05,0,0,1,1.62-.55c.48.47.85,1.05,1.37,1.47,1,.81,1.93.52,2.62-.58a9.44,9.44,0,0,0,1-3.33,13.59,13.59,0,0,1,2.15-5.35,11.31,11.31,0,0,1,9.68-5,14.39,14.39,0,0,1,1.46,0,2.27,2.27,0,0,0,1.83-.69c5.13-4.58,11.34-6.58,18-7.2A15.91,15.91,0,0,1,251,101.37a28.75,28.75,0,0,1,5.05,4.38,5.44,5.44,0,0,0,1.69,1.51c1-2.3,2.46-4.24,4.93-5.07,3.8-1.28,6.62-.7,9,2a2,2,0,0,0,2.5.68,7.52,7.52,0,0,1,5.39.45,3.32,3.32,0,0,1,2.4,3.29c0,1.07-.5,1.49-1.43,1a3.67,3.67,0,0,0-3.6-.23,1.16,1.16,0,0,0-.61.58c0,.17.2.53.4.65,2.9,1.68,4,4.28,4.12,7.53a13,13,0,0,1-3.06,9.44,7.09,7.09,0,0,1-3.6,2.32,13.41,13.41,0,0,1-5,.81c.23,10.4-4.46,18.37-12.1,24.74,0,.39.18.45.43.44,3.62-.16,6.84,1.16,9.9,2.88a4.31,4.31,0,0,0,2.15.67,44.37,44.37,0,0,1,20.3,5.4,35.51,35.51,0,0,1,12.3,10.05,15.17,15.17,0,0,1,3.1,9.19,9,9,0,0,1-1.34,4.69,1.77,1.77,0,0,0-.15,1.62c.71,2.21,1.35,4.44,2,6.66a1.62,1.62,0,0,0,1.19,1.16,11.16,11.16,0,0,0,1.14.25c3.25.54,6.49,1.09,9.74,1.61,4.68.75,9.36,1.5,14.08,2,6.54.74,13.06,1.67,19.58,2.6,2.87.41,5.72,1,8.57,1.57a49.21,49.21,0,0,0,4.85.92,35.29,35.29,0,0,1,6.51,1.47c4.77,1.34,6.91,5.53,5.86,10.17q-.58,2.55-1.31,5.06c-3.44,11.73-6.92,23.44-10.34,35.17-2.33,8-4.57,16-6.89,24-.54,1.86-1.25,3.66-1.89,5.49a3.1,3.1,0,0,0-.31,1.74c.28.52.82.25,1.25.29s1,0,1.46,0l5.25,0c1.1,0,1.33-.12,1.47-.92s-.53-.87-1.08-.93a4.26,4.26,0,0,1-2.8-1.39.62.62,0,0,1-.16-.79c.23-.36.64-.63.95-.34,1.09,1,2.53.82,4,1.25a33.31,33.31,0,0,1,4.95-8.22c-.73-.9-1.43-1.69-2-2.54a8.46,8.46,0,0,1-1.5-6.36c.3-2.1,2.18-3.66,4.49-2a54.55,54.55,0,0,0,8,4.76.49.49,0,0,1,.25.71.91.91,0,0,1-.7.33,3.63,3.63,0,0,1-1.38-.41,57.89,57.89,0,0,1-6.05-3.47c-.69-.53-1.47-1.21-2.35-.72s-.73,1.69-.67,2.63a7.53,7.53,0,0,0,2.91,5.49c1,.86,1,1.08.31,2.17-.47.73-.94,1.47-1.46,2.17a22.62,22.62,0,0,0-3.15,5.89c.61.49,1.24.94,1.81,1.46a1.18,1.18,0,0,1,.4,1c0,.32-.55.76-.83.65a2.5,2.5,0,0,1-.51-.26c-1.8-1.26-1.92-1.22-2.19.77,0,.1,0,.19,0,.29-.51,4.29.82,6.43,5,8a59.37,59.37,0,0,0,9.79,2.75c3.44.66,6.92.86,10.4,1.19a1.8,1.8,0,0,0,1.95-.93,8.94,8.94,0,0,1,1-1.46,9.51,9.51,0,0,1,9-3.6,30.59,30.59,0,0,1,8.47,3c.9.42,1,.32,1.32-.7.13-.47.24-.94.4-1.39,1-2.93,1-3.05-1.24-5.78l-1.43,1.76a5,5,0,0,1-2.09,1.53,1.33,1.33,0,0,1-1.57-.38,1.17,1.17,0,0,1-.34-1.32c.47-1.16,1-2.32,1.46-3.48a5.59,5.59,0,0,0-.85-6.24c-1.69-2-3.06-4.25-4.91-6.14a20.38,20.38,0,0,0-7.95-4.63c-2.46-.89-4.95-1.68-7.43-2.5a6.75,6.75,0,0,0-1.12-.27.85.85,0,0,0-1,1,7.06,7.06,0,0,0,1.09,2.35,14.7,14.7,0,0,0,4.11,3.63c.23.17.43.45.16.71a1.54,1.54,0,0,1-.74.34c-.16,0-.36-.12-.55-.17a5.84,5.84,0,0,1-2.24-1.32,10,10,0,0,1-3.42-4.93,2.84,2.84,0,0,1,.25-2.24,1.85,1.85,0,0,1,1.92-1,11.17,11.17,0,0,1,2,.5c2.39.77,4.77,1.59,7.17,2.34a29.73,29.73,0,0,1,6.57,3,16,16,0,0,1,4,3.84,119.28,119.28,0,0,1,12.54,19.24,38.83,38.83,0,0,1,2.19,6,1.84,1.84,0,0,0,1.37,1.31c1.68.52,3.42.65,5.13,1a12.25,12.25,0,0,1,1.68.38c.32.11.79.24.69.78a.77.77,0,0,1-.8.68,8.33,8.33,0,0,1-1.45,0,53.83,53.83,0,0,1-5.71-1c-2.81-.72-5.7-1.13-8.55-1.72a1.9,1.9,0,0,0-1.82.58c-1.79,1.63-3.63,3.22-5.45,4.83a17.54,17.54,0,0,1-5.4,3.36,5.17,5.17,0,0,1-6.35-2.07,8.59,8.59,0,0,1-1.28-6.68c-1.06-.74-2.29-.55-3.41-.64a74.22,74.22,0,0,1-15.89-3.18,14.68,14.68,0,0,1-5.2-2.53,2.43,2.43,0,0,0-2.12-.41c-2.49.31-5,.67-7.44,1.11a48.18,48.18,0,0,0-9.14,2.83c-6.67,2.62-13.06,5.87-19.46,9.08-1.73.86-3.36,1.9-5,2.86a10.85,10.85,0,0,1-2.93,1.24c-1.31.3-2.7.41-3.75,1.4a.45.45,0,0,1-.25.14c-2.33,0-4.17,1.4-6.23,2.2a2.3,2.3,0,0,1-1.12.13,1.1,1.1,0,0,1-.62-.52.53.53,0,0,1,.26-.73c1-.52,2.09-1,3.15-1.46a2.28,2.28,0,0,0,1.46-1.3,2.14,2.14,0,0,0,0-1.9,3.06,3.06,0,0,1,.25-3.06,13.72,13.72,0,0,1,1.31-1.91c1.88-2.27,8-3.74,10.54-2.59a7.51,7.51,0,0,1,.79.36,1,1,0,0,1,.1,1.72,2.33,2.33,0,0,1-1.87.64,14.82,14.82,0,0,1-2.8-.66c-3-1-6.22,1.52-6.92,4.24-.15.6.37.78.85.95.87.3.49.87.27,1.4-.2.25-.6.48-.24.85S318.08,316.32,318.37,316.18ZM398,301.25a1.57,1.57,0,0,0-1.16,1.66c1.15-1.25,2.7-.75,4-1.15.68,0,1.36,0,2,0,1.49.09,2.5.7,2.56,1.47.07,1.05-1.43,2.49-2.74,2.58a10.59,10.59,0,0,1-1.16-.05c-.77,0-1.54-.07-2.31-.07a13.76,13.76,0,0,0-2,.08c-.83.12-1.05-1.13-2-.82-.71,2-1.26,4,.2,6.16a14.51,14.51,0,0,1,1-1.55.7.7,0,0,1,1-.23.68.68,0,0,1,.31.74,13.37,13.37,0,0,0-.34,2c-.05.94.43,1.37,1.44,1.4s1.53-.3,1.42-1.28a2.87,2.87,0,0,1,.86-2.64.67.67,0,0,1,.53-.12.57.57,0,0,1,.39.34,7.82,7.82,0,0,1,0,1.14c0,.42-.33.94.46,1.25.5-.36,1.07-.71,1.56-1.15,1.89-1.65,3.81-3.29,5.62-5a5.54,5.54,0,0,1,4.31-1.93,12,12,0,0,0-1.16-1,28.17,28.17,0,0,0-8.33-3.24A7.26,7.26,0,0,0,398,301.25ZM210.87,130.13a3.58,3.58,0,0,0-1.21,1.89c-.54,1.34-1,2.73-1.53,4.07-.08.2-.45.27-.69.41a1.5,1.5,0,0,1-.23-.49,10.66,10.66,0,0,1,1-4.2,41.58,41.58,0,0,1,1.86-4.26,2.19,2.19,0,0,0,0-1.92.7.7,0,0,0-.9-.5c-1.19.42-2.34.94-3.51,1.4a26.7,26.7,0,0,1-10.76,2.05c-1.36,0-2.72,0-4.08,0a2.63,2.63,0,0,0-2.38,1.4,4.12,4.12,0,0,0-.51,1.34q-1.74,7.21-3.44,14.42a3.24,3.24,0,0,0,.5,2.76,24,24,0,0,0,1.54,2.09,115.79,115.79,0,0,1,11.77,15.12,3.83,3.83,0,0,1,.29,4.07,15.73,15.73,0,0,1-3.37,4.35c-2.59,2.63-5.22,5.22-7.85,7.8-2.91,2.86-5.77,5.77-8.78,8.52q-5.38,4.91-11,9.56c-2.43,2-2.86,4.49-2.12,7.33.85,3.28,3.09,5.2,6.18,6.4a5.89,5.89,0,0,0,6.48-1.09,36.7,36.7,0,0,0,3.51-3.48c3.33-3.79,6.58-7.66,9.89-11.46,4.84-5.57,9.72-11.1,14.57-16.67a52.51,52.51,0,0,0,5.73-7.31,25,25,0,0,0,3.39-10.39,1.4,1.4,0,0,0-.89-1.61,10.81,10.81,0,0,1-4.91-5.17,29.59,29.59,0,0,1-1.91-4.15c-1.1.07-1.67,1.17-2.66,1.23-1.23.07-1.62.76-1.67,1.86a.4.4,0,0,1-.61.33c-.15-.07-.33-.26-.33-.4-.07-2.81,0-5.63-.74-8.38-.11-.37.5-.74.77-.43a1,1,0,0,0,1.71.14,1.56,1.56,0,0,1,.81-.27.62.62,0,0,1,.49.23.57.57,0,0,1,0,.52,2.36,2.36,0,0,1-.78.82,2,2,0,0,0-1.25,2.57,4.81,4.81,0,0,1,.07.58c.2,1.46,1,1.79,2.14.81a7.27,7.27,0,0,0,2.8-7,5.05,5.05,0,0,0-4.57-4.23,5.55,5.55,0,0,0-5.39,2.2c-.63.85-1.15,1.79-1.76,2.66a.93.93,0,0,1-.73.32c-.51-.05-.51-.49-.43-.88a2.7,2.7,0,0,1,.25-.84c1.74-3.08,4.14-5.1,7.91-4.89.39,0,.76.14,1.15.18.7.06,1-.32.85-1.08a5.1,5.1,0,0,0-4.43-4,6.69,6.69,0,0,0-5.44,1.5,13.06,13.06,0,0,0-2.79,3.32,9.92,9.92,0,0,1-.94,1.45.84.84,0,0,1-.79.18.81.81,0,0,1-.26-.75,11.46,11.46,0,0,1,7.22-7.07,6.42,6.42,0,0,1,6.05,1.14c1.72,1.25,2.93,2.9,2.61,5.18a1.83,1.83,0,0,0,.8,1.73,6.65,6.65,0,0,1,1.67,7.25,6.15,6.15,0,0,0,.14,4.22,31.15,31.15,0,0,0,2.17,4.42,7.86,7.86,0,0,0,6.91,4.13,26.23,26.23,0,0,0,8.94-.87,47.91,47.91,0,0,0,5.71-2.13c.34-.15.7-.4.94.1a.87.87,0,0,1-.26,1,15,15,0,0,1-1.56,1.3c-1.81,1.3-3.64,2.57-5.46,3.85,1.61,3,2,3.4,4.32,3.71a27,27,0,0,0,19.5-5.05A20.29,20.29,0,0,0,253,161a2,2,0,0,0,.42-2.84c-.8-1.3-1.4-2.72-2-4-.89,0-1.57,0-2.24,0a3.8,3.8,0,0,1-2.37-1,5.63,5.63,0,0,1-.05-7.87,2,2,0,0,1,3.32.6c.17.33.3.69.43,1a4.45,4.45,0,0,0,4-2.08,6.16,6.16,0,0,0,1.13-4.4,3.26,3.26,0,0,0-2.36-3,5.76,5.76,0,0,0-3.17.05,2.53,2.53,0,0,0-2,1.9,10.06,10.06,0,0,1-1.23,2.94A31,31,0,0,0,245,146.2a9.78,9.78,0,0,1-3.87,4.62,5.23,5.23,0,0,1-2.73.86.9.9,0,0,1-.65-.47.93.93,0,0,1,0-.79,4.36,4.36,0,0,1,.84-.78,5.71,5.71,0,0,0,2.21-2.77c-.86-.3-1.73-.24-2.51-.59a4.15,4.15,0,0,1-2.28-5.07c.18-.41.31-1,1-.9.47.06.53.48.67.83.56,1.35.83,1.51,2.07,1.42a2,2,0,0,0,1.51-.74,10.43,10.43,0,0,0,2.76-5.35c.09-.67.29-1.32.45-2a8.19,8.19,0,0,0-.26-4.84q-.55-1.5-1.2-3a19.91,19.91,0,0,1-1.26-4.47,14.43,14.43,0,0,0-.31-2.33,5.69,5.69,0,0,0-1.11.68,5.76,5.76,0,0,1-2.87,1.33,4.51,4.51,0,0,1-3.35-.63,1.24,1.24,0,0,1-.65-1.22c0-.57.36-.83.9-.95s.92-.28,1.39-.42a2.52,2.52,0,0,0,1.78-2.41,2.32,2.32,0,0,0-1.27-2.43c-2.68-1.46-5.49-2.53-8.6-2.08a11.79,11.79,0,0,0-8.34,4.79c-.73,1-1.48,2-2.22,3.07-.34.46-.8.87-.65,1.54a20.72,20.72,0,0,1,2.22.37,2.26,2.26,0,0,1,1.59,1.91,1,1,0,0,1-.3.77.58.58,0,0,1-.78,0,4.51,4.51,0,0,1-.36-.44,2.3,2.3,0,0,0-3.12-.54,4.91,4.91,0,0,0-2.36,2c-.62,1.09-1.31,2.15-2,3.23a.31.31,0,0,0,.14.48c2.68-1.29,3-1.33,5.76-.89a1,1,0,0,1,.28.09c.46.22.76-.08,1-.38s.28-.72.48-1.05.44-1.13,1.21-1c.52.06.64.77.16,1.74-1.39,2.77-2.83,5.51-4.25,8.26a5.59,5.59,0,0,0-1.11,2.7c1,.36,2.1,0,3.13.05a5.33,5.33,0,0,1,1.13.22c.06,0,0,.35,0,.54a.32.32,0,0,1-.17.23,9.39,9.39,0,0,1-4.55.64,1.58,1.58,0,0,1-1.22-2.38c.48-1.05,1.06-2.07,1.62-3.08.32-.57.88-1,.73-1.8C212.48,132.35,212.15,132.17,210.87,130.13ZM344.39,291.67c.18.06.37.19.54.17q4.46-.56,8.92-1.16c.56-.07.74-.49.93-1a96.44,96.44,0,0,0,3.31-10.22c2.58-9.14,5.26-18.26,7.9-27.38,1.7-5.86,3.36-11.73,5.12-17.58,1.59-5.29,3-10.63,4.37-16a6.48,6.48,0,0,0-3.2-7.68,18.47,18.47,0,0,0-6.54-2.28c-5.68-.69-11.26-1.93-16.93-2.68-5.87-.77-11.76-1.33-17.62-2.19-3.93-.58-7.87-1.16-11.79-1.79s-7.83-1.32-11.75-2c-.51-.09-.68.23-.68.66a2.68,2.68,0,0,0,.12.86,57.14,57.14,0,0,1,2.35,8.4c.11.58.54.73,1.05.8,1.63.22,3.28.39,4.89.7a3.05,3.05,0,0,1,2.78,3.71,10.3,10.3,0,0,1-.46,2c-1.39,4.55-2.74,9.1-4.22,13.62a10.09,10.09,0,0,0-.52,4c.4,5.52.75,11,1.12,16.56a9.08,9.08,0,0,0,.13,1.16c.08.38-.12-.06.25.08.07,0,.23,0,.25,0a6.4,6.4,0,0,0,.45-1c3.15-11.1,6.77-22.07,9.66-33.25A9.64,9.64,0,0,1,326,215.2a3.71,3.71,0,0,1,3.68-1.88c2.78.38,5.53,1,8.3,1.42a2.73,2.73,0,0,1,2.41,2.53,8.39,8.39,0,0,1-.54,4.27c-3.65,9.83-6.38,19.95-9.5,29.94s-6,20.07-9,30.1c-1,3.52-2.12,7-3.21,10.62l9.45,1.9c.32-.87.63-1.57.85-2.31q3.82-12.49,7.62-25c1.84-6,3.63-12.06,5.55-18.06,2.8-8.76,5.45-17.56,7.89-26.42a8.17,8.17,0,0,1,1.44-2.83,4,4,0,0,1,3.82-1.67,41.2,41.2,0,0,1,4.87.82,5,5,0,0,1,4.06,5.28,20.9,20.9,0,0,1-.42,3.75c-.3,1.75-1.18,3.28-1.67,5-1.05,3.63-2.14,7.25-3.23,10.88q-4,13.51-8.06,27-2.9,9.75-5.76,19.52C344.44,290.56,344.13,291.08,344.39,291.67Zm-178.5-59.27a7.13,7.13,0,0,0,6.09-2.53q4.14-4.86,8.15-9.82a32.61,32.61,0,0,0,2.1-3.14,4.94,4.94,0,0,0,.4-4.47.77.77,0,0,0-1.34-.36,15.17,15.17,0,0,1-3.68,2.81,6.15,6.15,0,0,1-3.89.89,12,12,0,0,1-8-4.79,10.51,10.51,0,0,1-1.94-7.69,4.37,4.37,0,0,1,1.39-2.8,21.68,21.68,0,0,0,1.85-1.83c.31-.36,0-.71-.32-.95a1.25,1.25,0,0,0-1.1-.19,11.63,11.63,0,0,0-3.87,1.93c-2.48,1.87-4.95,3.74-7.36,5.69a26.88,26.88,0,0,0-3.15,3,10.74,10.74,0,0,0-2.73,10c1.17,4.87,3.72,9,8.28,11.43C159.46,231,162.24,232.44,165.89,232.39Zm69.18,33.16c-1.32,0-2.67,0-4,0a8.55,8.55,0,0,0-5.88,2.15c-5.21,4.53-7.9,10.3-7.24,17.26.33,3.49,2,6.2,5.86,7a83.09,83.09,0,0,0,8.4,1.35c.16-.22.26-.3.26-.37-.06-.58-.12-1.16-.22-1.73a37.24,37.24,0,0,1-.35-10.72c.18-1.64.39-3.27.59-4.91a22.88,22.88,0,0,1,2.31-8.65A1.61,1.61,0,0,0,235.07,265.56Zm-16.9-78.5a10.86,10.86,0,0,0-4.5,4.32c-3.16,5-5,10.47-4.62,16.52.12,1.76.23,3.57,1.51,4.9a2.53,2.53,0,0,1,.62,2.63,9.24,9.24,0,0,0-.25,3.74.56.56,0,0,0,.4.32c.13,0,.41-.11.42-.2.16-1.25.31-2.5.41-3.76a2.64,2.64,0,0,1,.89-2.06,3.63,3.63,0,0,0,1.29-2.52c.14-1.06.39-2.1.54-3.15a86.84,86.84,0,0,1,1.61-10.33,25,25,0,0,1,1.92-4.83c.47-.94,1.71-1.65,1.52-2.7S218.86,188.15,218.17,187.06Zm10.43-2.59a1.58,1.58,0,0,0,1-.4,2.27,2.27,0,0,0,1.13-2.94,8.13,8.13,0,0,1-.23-2c0-.29.11-.57.47-.57a.63.63,0,0,1,.67.43c.29,1,.56,2,.87,3.06l2.84-1.76a1.21,1.21,0,0,0,.56-1.46c-.53-2.5-1.87-4.67-2.75-7a3.46,3.46,0,0,0-3.62-2.63c-.09,0-.19-.09-.28-.08-.33,0-.55.23-.45.54.23.73.52,1.45.79,2.17.48,1.26,1,2.51,1.45,3.79a.67.67,0,0,1-.45.92c-.35.12-.52-.13-.71-.35-.72-.8-.5-2.08-1.41-2.79C225.16,177.52,225.17,179.74,228.6,184.47Zm-68.72-34.71a4.68,4.68,0,0,0,.2.81c.71,1.35.71,1.34,2.06.8,6.9-2.76,13.51-6.21,20.63-8.44a3,3,0,0,0,1.61-3.08.5.5,0,0,0-.39-.3,4.87,4.87,0,0,0-1.08.37c-5.5,2.6-11,5.25-16.72,7.31C164.12,148,162.09,148.87,159.88,149.76Zm152.54,78.61c.39-1,.55-1.31.66-1.66.87-2.77,1.76-5.53,2.59-8.31a35.41,35.41,0,0,0,.86-3.68,1.38,1.38,0,0,0-.9-1.64,14.16,14.16,0,0,0-5.85-1C311.05,217.35,311.45,222.55,312.42,228.37Zm-98.65-54.6c2.29,0,2.32,0,3.12-1.68a13.47,13.47,0,0,1,4.22-5.08c1-.75,2-1.55,3-2.26.66-.46.49-.87.18-1.44a1.6,1.6,0,0,0-1.62-1c-1.45.05-2.9,0-4.35,0s-1.64.19-1.62,1.46a18,18,0,0,1-1.28,5.93C215,171.14,214.34,172.43,213.77,173.77Zm30.61,1.06c-.81-1.71-1.5-3.2-2.23-4.66-.48-1-.69-1-1.86-.9-2.57.26-2.32.51-1.44,2.36a13.82,13.82,0,0,0,1,2.1c.6.84.24,2.4,1.49,2.61C242.38,176.49,243.21,175.48,244.38,174.82Zm-4.63,2.43c-.48-2.25-1.76-4.1-2.71-6.1-.65-1.36-1.52-1.58-2.92-1.07a66.23,66.23,0,0,1,3.15,8.65A3.86,3.86,0,0,0,239.75,177.25Zm3.27-8.74,2.41,5.52a7.05,7.05,0,0,0,3-1.43,16.72,16.72,0,0,0-2-4c-.59-1.09-.73-1.13-1.81-.75C244.16,168,243.73,168.2,243,168.51Zm9.76,2.22-3-5.1c-3.42,1.14-2.5,1.7-1.51,3.68.26.52.55,1,.82,1.53.72,1.39.72,1.4,2.17.86A2.47,2.47,0,0,0,252.77,170.73ZM246.57,149a3.8,3.8,0,0,0,1.92,3.46,3.28,3.28,0,0,0,3.83-1.28,7.78,7.78,0,0,0,1.32-2.87c.06-.21,0-.39-.23-.4a.65.65,0,0,0-.51.19,28.53,28.53,0,0,1-1.36,2.53,2,2,0,0,1-3.23.1,2.39,2.39,0,0,1-.68-2.13c.1-.47.31-.91.41-1.38s.31-.77-.22-.88c-.14,0-.41.35-.56.58A4.67,4.67,0,0,0,246.57,149Zm10.18,20.66c-1.09-1.88-2.18-3.79-3.29-5.69a1,1,0,0,0-.63-.51c-.64,0-1,.52-1.38.92a.81.81,0,0,0-.05,1c.84,1.52,1.69,3,2.51,4.56a1,1,0,0,0,1.21.52A3.12,3.12,0,0,0,256.75,169.65Zm3.39-.81a3,3,0,0,0-.33-.74,50.07,50.07,0,0,1-4-6,5.06,5.06,0,0,0-.47-.71.51.51,0,0,0-.75,0c-.18.18-.39.58-.31.73Q256,165.56,258,169c.44.77,1.18.42,1.82.3C259.9,169.23,260,169,260.14,168.84ZM152.82,154.19c1.83-.26,3.2-.43,4.56-.66a2,2,0,0,0,1.26-1.11,1,1,0,0,0,.11-.81,1.06,1.06,0,0,0-.71-.38,2.35,2.35,0,0,0-1.67.26A18.18,18.18,0,0,0,152.82,154.19Zm63-23a2.63,2.63,0,0,1-1.22-1.47.61.61,0,0,0-.95-.26c-.31.2-.74.41-.85.71s.28.65.66.75A3.76,3.76,0,0,0,215.82,131.16ZM251,148.72c-.3-.51-.8-.35-1.21-.26s-.54.42-.45.85a.77.77,0,0,0,.76.67C250.54,150,251.09,149.13,251,148.72Zm58.08,162.43a1.83,1.83,0,0,0,.57-.36c.11-.14-.07-.33-.28-.27a1.36,1.36,0,0,0-.64.35C308.59,311,308.76,311.17,309.06,311.15Z"/><path class="cls-3" d="M190.79,315.72c3.62-.64,7.25-1.25,10.86-1.93,4.75-.89,9.5-1.81,14.24-2.74,2.85-.56,5.69-1.17,8.55-1.7a1.2,1.2,0,0,0,1.16-1.06,14.41,14.41,0,0,0-.61-6.6,4.25,4.25,0,0,0-3.29-2.63c-2.81-.71-5.65-1.35-8.5-1.88s-5.94-.94-8.91-1.4q-9.19-1.42-18.37-2.84c-2-.32-4-.72-6-1q-10.48-1.69-21-3.34a3.25,3.25,0,0,0-1.43-.07,23.25,23.25,0,0,1-4,.48c-.23,0-.58,0-.52.49s.37.43.6.47c2.49.41,5,.79,7.47,1.17L173.39,293l14.94,2.31,16.08,2.48a1.5,1.5,0,0,1,.56.14.65.65,0,0,1,.31.43.56.56,0,0,1-.27.44,5,5,0,0,1-2.59,0c-2.88-.39-5.76-.82-8.63-1.26q-8.91-1.36-17.82-2.76c-5.74-.9-11.46-1.94-17.21-2.72-4.32-.58-8.57-1.54-12.92-2-2.69-.27-5.33-.94-8-1.41-1.72-.3-3.44-.61-5.17-.84a5.94,5.94,0,0,0-4.14.85,9,9,0,0,1-7,1c-4.53-1-9.15-1.68-13.73-2.48l-14.9-2.61c-6.11-1.08-12.22-2.16-18.32-3.27-3.71-.68-7.42-1.42-11.13-2.12-.57-.11-1.15-.13-1.73-.22a1.28,1.28,0,0,0-1.41.79c-.73,1.37-1.43,2.76-2.15,4.13L46.56,306.1c-.31.59-.58,1.21-.86,1.79a1.94,1.94,0,0,0,1.5.18c3.66-.49,7.31-1,11-1.49a4.17,4.17,0,0,1,1.7.25c7.49,2,15,4,22.48,5.89.86.22,1.47.47,1.6,1.36a1.84,1.84,0,0,1-1.36,2c-1.85.54-3.74,1-5.63,1.39q-9.53,2-19.07,3.95c-4.27.86-8.55,1.66-12.83,2.5a55.71,55.71,0,0,0-7.36,1.63,3,3,0,0,1-2-.08c-3.69-1.17-7.38-2.33-11.09-3.43-4.44-1.32-8.91-2.59-13.36-3.88-.28-.08-.58-.08-.86-.17-1-.33-1.25-1.09-.62-2,.05-.08.13-.15.18-.23,5.8-8.26,11.22-16.77,16.69-25.24l10.27-15.88c.3-.47.57-1,.84-1.41-.29-.23-.41-.42-.56-.43-3.35-.32-5.19-2.43-6.19-5.37a22.75,22.75,0,0,1-1.09-7.18c-.07-9.61-.09-19.23-.2-28.84q-.26-22-.61-44-.3-20.68-.6-41.36a47,47,0,0,1-.24-5.52,22.65,22.65,0,0,1,1-5.43c1.3-3.62,2.9-4.8,6.7-4.77s7.38.11,11.07.16c14.27.17,28.55.32,42.82.52q15.43.22,30.86.58a24.83,24.83,0,0,1,5.16.71c5.66,1.36,8.07,5.47,8.57,10.12a31.53,31.53,0,0,1,.08,3.49q-.07,14.86-.16,29.73c-.05,8.16-.14,16.32-.18,24.48,0,4.27.05,8.54,0,12.82q0,11.94-.15,23.88-.16,19.37-.36,38.75a30.61,30.61,0,0,1-.37,4.93,5.07,5.07,0,0,0-.06,2.33c3.24.5,6.49,1,9.73,1.51,4.41.7,8.8,1.44,13.21,2.13,3.16.5,6.33.93,9.49,1.41,2.68.41,5.36.85,8,1.28L187,291.22c4.4.71,8.8,1.44,13.2,2.14,4.11.66,8.23,1.25,12.33,2,3.15.54,6.31,1.09,9.41,1.87a6.58,6.58,0,0,1,5.38,5.76,31.81,31.81,0,0,1,.36,4c0,2.59-.64,3.42-3.17,4.12-1.49.41-3,.78-4.51,1.07-6.46,1.24-12.94,2.41-19.4,3.66s-12.91,2.56-19.36,3.83c-2.94.58-5.89,1.11-8.83,1.68a6.67,6.67,0,0,1-2.59,0c-6.56-1.28-13.12-2.53-19.69-3.79-5.7-1.1-11.39-2.22-17.09-3.29-4.85-.91-9.72-1.73-14.57-2.63-5.24-1-10.47-2-15.7-3l-17.4-3.35q-10.13-1.95-20.26-3.88c-2.66-.5-5.34-.95-8-1.43-.57-.1-1.17-.23-1.34-.92-.11-.48.66-.93,1.6-.78,2.49.4,5,.86,7.43,1.34q8.71,1.66,17.42,3.36c8.75,1.7,17.5,3.41,26.26,5.09,7.51,1.44,15,2.81,22.55,4.24,6.38,1.22,12.75,2.5,19.12,3.73,5.42,1.05,10.89,1.91,16.25,3.2a16.37,16.37,0,0,0,8.56-.32c.65-.18,1.32-.27,2-.41,2.25-.43,4.54-.74,6.75-1.32a21.11,21.11,0,0,1,5.17-.95A7.72,7.72,0,0,0,190.79,315.72ZM64.51,273c2,.33,4.07.66,6.15,1,3.82.66,7.63,1.37,11.45,2,5.45.89,10.92,1.68,16.37,2.58,5,.83,9.92,1.78,14.88,2.61a15,15,0,0,0,3.49.14,3.51,3.51,0,0,0,3.59-3.48,14.35,14.35,0,0,0,0-1.74q0-7,0-14,0-7.57,0-15.14c0-6.5-.07-13-.06-19.51,0-5.91.06-11.82.07-17.73q0-10.92,0-21.84c0-4.27-.06-8.53,0-12.81.13-5,0-10.09,0-15.13,0-5.82-.11-11.64-.17-17.46a12.14,12.14,0,0,0-.12-1.74A3.88,3.88,0,0,0,118,137.7a8.4,8.4,0,0,0-3.65-.8c-4,0-7.94-.1-11.91-.14-4.28,0-8.55,0-12.83-.09-7.09-.13-14.17-.36-21.26-.48-7.67-.13-15.35-.21-23-.29a46,46,0,0,0-7.53.13c-2.14.33-2.71.67-3,2.76a12,12,0,0,0,0,2c.1,3.39.26,6.78.3,10.17q.13,12.53.18,25.06c.06,13,.1,26,.17,39.05,0,7.08.14,14.16.2,21.25.06,7.77.09,15.53.16,23.3a23.86,23.86,0,0,0,.26,3.48,4.12,4.12,0,0,0,3.8,3.77c1.87.28,1.86.37,2.8-1q1-1.45,1.93-2.91l15.62-24.2c1.16-1.79,2.32-3.59,3.46-5.39.24-.37.19-.79-.29-.9a1.78,1.78,0,0,1-1.44-1.91,21.51,21.51,0,0,1-.13-2.61q.33-4.5.79-9c.23-2.31,1.34-3.34,3.65-3.19,4.45.28,8.9.64,13.34,1,2.12.19,4.23.53,6.33.87a2.45,2.45,0,0,1,2.46,2.4,9.19,9.19,0,0,1,.09,1.74c-.07,3.2-.18,6.41-.24,9.61a6.21,6.21,0,0,1-.8,2.47,1.3,1.3,0,0,1-1.15.77,6,6,0,0,1-.87,0,1.83,1.83,0,0,0-2,1.24c-2,4-4.07,7.94-6.15,11.88Q71,259.68,64.7,271.51A1.57,1.57,0,0,0,64.51,273Zm-24.18-4.36c-.93-.2-1.78-.39-2.62-.62a4.22,4.22,0,0,1-3.14-3.46,14.68,14.68,0,0,1-.28-6.06,6.89,6.89,0,0,0,.11-1.44c-.05-4.16-.14-8.32-.18-12.48-.1-11.56-.16-23.11-.27-34.67-.12-12.42-.31-24.85-.41-37.27-.07-8.83-.06-17.67-.08-26.5a10.42,10.42,0,0,0-.23-2.3,14.34,14.34,0,0,1,.14-6.63,3.17,3.17,0,0,1,1.43-2.08,4,4,0,0,1,2.16-.75c1.65,0,3.3-.07,5-.08,12.82-.09,25.64.43,38.46.59,7.38.09,14.76.11,22.13.41,4.36.18,8.74,0,13.11.1a5.93,5.93,0,0,1,6,5.29,40.2,40.2,0,0,1,.35,6.38c0,11.85.14,23.69.17,35.54,0,15.44,0,30.89.07,46.33q.07,23.88.19,47.76a15.46,15.46,0,0,1-.1,2,4.5,4.5,0,0,1-2.64,3.57,8.45,8.45,0,0,1-5.39.63q-9-1.42-18.07-2.9c-4.78-.78-9.58-1.49-14.33-2.41-5.89-1.14-11.89-1.71-17.72-3.2a.84.84,0,0,0-1,.31c-.47.91-1.31,1.69-1.15,2.87,2.45.42,4.84.81,7.22,1.23,4.58.81,9.15,1.66,13.74,2.45,6.11,1,12.23,2,18.33,3.08,6.86,1.22,13.69,2.58,20.55,3.83a8.22,8.22,0,0,0,9.6-6.39,29.68,29.68,0,0,0,.68-6.06c.09-14.36.24-28.71.36-43.07,0-5.34,0-10.68.11-16,.16-13.28.36-26.57.52-39.85.08-6.5.06-13,.14-19.52,0-4.37.14-8.73,0-13.1a16.55,16.55,0,0,0-.89-4.84c-1-3-3.38-4.64-6.3-5.55s-5.77-.77-8.67-.82c-10-.19-20-.26-30-.41-8.34-.13-16.68-.34-25-.47-6.9-.11-13.79-.15-20.69-.24-1.94,0-3.88-.13-5.82-.14a4.56,4.56,0,0,0-4.68,3.2,14.12,14.12,0,0,0-1.11,5.39c0,1.26,0,2.53,0,3.79q.27,18.62.54,37.23.21,14.42.39,28.83c.09,7.38.15,14.76.26,22.14.15,9.41.31,18.83.54,28.24a34,34,0,0,0,.72,5.48,7.8,7.8,0,0,0,2.31,4c.92.94,2.14.77,3.24,1.09a1.24,1.24,0,0,0,1.68-.66C39.85,269.92,40.45,269.57,40.33,268.69Zm-7.78,54.11c.27-.41.45-.63.58-.88q4-7.57,8-15.14,6.25-11.82,12.48-23.66,5.09-9.64,10.18-19.27,4.7-8.87,9.41-17.73,2.86-5.39,5.7-10.8c.39-.74.18-1.09-.58-1.19-1.06-.13-2.11-.29-3.17-.4-2.7-.27-5.41-.5-8.1-.8a2,2,0,0,0-2.1,1.12Q61.56,239.46,58,244.8c-4.94,7.53-9.93,15-14.87,22.58Q35,279.78,27,292.21q-6.28,9.61-12.57,19.22c-.84,1.3-1.63,2.63-2.42,4-.45.76-.27,1.18.64,1.5.64.22,1.29.42,1.94.61Zm6.51-2.35c13-2.3,25.67-4.54,38.32-6.79a2.52,2.52,0,0,0,.74-.45c-.1-.08-.15-.16-.22-.17l-18.22-4.71a5.21,5.21,0,0,0-2.3-.05,67.85,67.85,0,0,1-10.09,1.19,11.35,11.35,0,0,0-1.44.14A2.29,2.29,0,0,0,44,310.87C42.46,314,40.84,317,39.06,320.44ZM81.85,315c-1.68-.57-3.23.13-4.82.36-3.9.57-7.76,1.45-11.65,2.16-4.1.74-8.2,1.41-12.3,2.13-4.48.79-9,1.61-13.45,2.4-1.08.19-1.11.17-2.67-.3a1.68,1.68,0,0,1,.07-.55q3.43-6.57,6.88-13.13,6.89-13.14,13.77-26.28c5.37-10.32,10.69-20.66,16-31,2.59-5,5.22-10,7.85-14.92a1.31,1.31,0,0,0,.24-1.07c0-.12-.31-.22-.46-.21-.45,0-.57.42-.76.77q-2.08,4-4.2,8-12.24,23-24.5,45.93Q44.6,303,37.32,316.71c-1.12,2.11-2.21,4.25-3.32,6.4a7,7,0,0,0,4.11.7c5.21-1.07,10.44-2.1,15.65-3.17,4-.82,8-1.7,11.93-2.5C71.07,317,76.47,316,81.85,315ZM87,224.37H87c0-1.26.07-2.52,0-3.77-.08-1-.61-1.46-1.7-1.62-1.53-.22-3.06-.46-4.6-.63-3.46-.38-6.93-.76-10.4-1.06-1.64-.14-3.29-.1-4.94-.09a1.39,1.39,0,0,0-1.44,1.18,8.38,8.38,0,0,0-.12,1.16q-.24,3.92-.47,7.84c0,.58-.07,1.16-.06,1.74,0,1.39-.09,1.93,1.72,2,1.26,0,2.52.13,3.77.27,5.49.61,11,1.26,16.46,1.88.9.1,1.28-.16,1.35-1C86.7,229.59,86.85,227,87,224.37Zm65.18,63.13c-6.34-1.1-12.36-2.15-18.38-3.17a2.1,2.1,0,0,0-1.12.11,1.24,1.24,0,0,0-.72,1.16c0,.51.39.56.77.63.67.12,1.33.29,2,.34A86,86,0,0,1,145,288.38,12.19,12.19,0,0,0,152.2,287.49Z"/><path class="cls-3" d="M351.28,119.84c.53,1.66,1.13,3.3,1.56,5a19,19,0,0,1,0,9.5c-.29,1.13-.6,2.28-2,2.6-.7.16-.7.88-.95,1.37a19.15,19.15,0,0,1-12.46,10.17,19.84,19.84,0,0,1-25.14-19.79c.37-8.74,6-16.3,15.58-18.73a5.36,5.36,0,0,1,1.45-.14,1.9,1.9,0,0,0,2-1.22c.69-1.46,2.15-1.5,3.51-1.37a9.11,9.11,0,0,0,2,.2c.68-.47.35-1.22.41-1.84.12-1.17,0-1.22-1.18-1.52a21.61,21.61,0,0,1-2.25-.6,3.4,3.4,0,0,1-2.46-3.52q0-2.91,0-5.82a6.78,6.78,0,0,1,.22-1.72,1.42,1.42,0,0,1,1.76-1.14c4.1.72,8.15,1.7,12.17,2.8a3.85,3.85,0,0,1,2.08,1.82c.72-2.05,1-4,1.9-5.82a.64.64,0,0,0-.18-.78c-.2-.21-.49-.32-.69-.52-1.46-1.47-1.32-3.6.55-4.3,2.2-.82,4.43-2,7-1.05a24.06,24.06,0,0,0,3.68.76,10.21,10.21,0,0,1,1.39.35c.54.19,1.14.35,1.19,1.09a2.06,2.06,0,0,1-1.37,2,8.81,8.81,0,0,1-1.16.08c-2.07.17-4-.5-6.05-.73a2.68,2.68,0,0,1-1.51-.8c-.91-1-1.74-.44-2.58,0a.84.84,0,0,0,0,1.44,5.39,5.39,0,0,0,1.9.68c2.59.34,5.17.82,7.77,1.1a10.51,10.51,0,0,1,2.79.74,1.49,1.49,0,0,1,.26,2.61,3.36,3.36,0,0,1-1.88.71,17.26,17.26,0,0,1-6.31-.84c-.84-.27-1.1-.94-1.46-1.67a1.07,1.07,0,0,0-2,.09c-.67,1.91-1.27,3.85-1.83,5.8a4.82,4.82,0,0,0-.07,1.73,24.8,24.8,0,0,0,9.47,17.71,48.52,48.52,0,0,0,5.15,3.78,12.61,12.61,0,0,0,5,1.87c.27-.77.56-1.56.83-2.36q2.08-6,4.15-12.1a3.42,3.42,0,0,1,1.6-2,1.76,1.76,0,0,0,.88-1.1c.13-.43.09-.77-.41-.86-.86-.15-1.72-.26-2.58-.41a4.86,4.86,0,0,1-2.55-1.31,1.67,1.67,0,0,1,.29-2.72c.08-.05.15-.15.24-.16,2-.32,3.52-1.53,5.1-2.64a9.15,9.15,0,0,1,3.5-1.34,5.22,5.22,0,0,1,5.52,2.27,2.54,2.54,0,0,1-1.07,3.92,18.74,18.74,0,0,1-4.61,1.7,2.89,2.89,0,0,0-2.33,2.24c-.09.25-.12.7,0,.82.78.69,1.47,1.56,2.63,1.63a6.59,6.59,0,0,0,1.16-.07c2.69-.31,5.37-.65,8.06-.94,2.22-.25,4.44-.45,6.66-.67,1.54-.15,3.08-.32,4.63-.45a4.87,4.87,0,0,1,1.43.05.82.82,0,0,1,.53.59.86.86,0,0,1-.5.64c-.83.24-1.69.36-2.53.57a.62.62,0,0,0-.36.42c0,.12.14.33.27.41a4.36,4.36,0,0,0,1.06.47,15.24,15.24,0,0,1,4.66,2.32,4.62,4.62,0,0,1,.95.67,4.69,4.69,0,0,0,4.57,1.82c.85-.15,1.45.46,1.77,1.24a5.2,5.2,0,0,1,.41,1.38c.28,2.6.52,5.21.79,7.82a2.19,2.19,0,0,1-.83,2.32c-.72.48-.42,1.24-.4,1.87a18.71,18.71,0,0,1-32.6,12.73,12.75,12.75,0,0,1-3.64-7.45c0-.31-.11-.6-.46-.57a3.27,3.27,0,0,0-1.08.32c-.13.06-.16.34-.23.52a7.39,7.39,0,0,1-6.28,4.94,1.89,1.89,0,0,0-.82.21,1.24,1.24,0,0,0-.39,1,.55.55,0,0,0,.5.6c.86.12,1.74.17,2.61.25.48,0,1,.07,1.45.16,1.15.21,1.79.84,1.71,1.62a2.19,2.19,0,0,1-1.84,2,13.51,13.51,0,0,1-5.47-.53,1.39,1.39,0,0,1-1.07-1.78c.2-1.24.46-2.47.71-3.77l-.94-.61c-3.43-2.21-4.53-5.11-3.21-9a1.55,1.55,0,0,0-.54-2c-2.85-2.48-5.66-5-8.49-7.5-.16-.52-.65-.66-1-.91a.35.35,0,0,0-.27,0c-.26.11-.23.23-.08.44C350.83,119,350.8,119.59,351.28,119.84Zm24.44-4.18c1.35-1.23,2.34-2.83,4-3.78a.56.56,0,0,0,.13-.78c-.73-1-1.27-2.28-2.57-2.84l-2,6.83a1.54,1.54,0,0,0-.53,1.25.8.8,0,0,0,.22.39.37.37,0,0,0,.24-.11C375.37,116.31,375.54,116,375.72,115.66Zm-56.46.64c-.55,0-.83.46-1.13.8a18.81,18.81,0,0,0-4.41,10.22c-1.33,10,6.7,18.94,14.31,19.74a4.19,4.19,0,0,1,1,.46.27.27,0,0,0,.25-.05c.18-.34.28.2.06-.12,0-.06-.37,0-.54.11-.8.39-1.11-.39-1.65-.6s-1.22-.41-1.81-.68c-7.31-3.41-10.89-9.3-11.1-17.2a17.5,17.5,0,0,1,3.53-10.58c.49-.69,1.32-1.18,1.41-2.13.18,0,.41,0,.53-.15a15,15,0,0,1,6-3.88c2.36-.73,4.74-1.7,7.33-1.27a4.71,4.71,0,0,0,1.3-.21c-1.95-.55-3.61.13-5.32.35a17.11,17.11,0,0,0-9.59,4.7C319.33,115.9,319.32,116.13,319.26,116.3Zm35.56,1.12c.84-.19,1.18.53,1.65.95q3.37,3,6.7,6a1.82,1.82,0,0,0,2.09.46,5.55,5.55,0,0,1,4.24,0,3.62,3.62,0,0,0,2.28.08c.63-.15.59-.64.46-1.14.57,0,.46-.4.5-.72a.32.32,0,0,0-.08-.23c-.12-.13-.19,0-.22.23s-.09.52-.14.79c-.49.09-1,.18-1-.56a3.91,3.91,0,0,1,.27-1.12c.77-2.4,1.55-4.8,2.33-7.2.62-1.94,1.25-3.88,1.85-5.82a11.35,11.35,0,0,0,.36-1.71c0-.14-.16-.43-.25-.43-.26,0-.65,0-.76.18a5.24,5.24,0,0,0-.59,1.3q-2.32,6.73-4.63,13.47c-.44,1.27-.89,1.58-2.15,1.18a25.51,25.51,0,0,1-4.05-1.53,32.69,32.69,0,0,1-6.86-4.87A25.27,25.27,0,0,1,349,105.38a3.06,3.06,0,0,0-.88-1.6c-.55,1.44-1,2.71-1.53,4s-.58,1.34.4,2.2l7.21,6.34c.35.31.82.55.68,1.15-.15.23-.3.57-.63.35a24.68,24.68,0,0,1-2.06-1.59c-2.05-1.77-4.08-3.58-6.14-5.35a.48.48,0,0,0-.72.2.62.62,0,0,0,0,.54,16.36,16.36,0,0,0,2.95,2.78c2.19,1.91,4.52,3.64,6.63,5.66s4.57,3.91,6.87,5.84a.76.76,0,0,0,1.14,0c-.37-.39-.71-.81-1.11-1.16-1.73-1.55-3.49-3.08-5.22-4.64a27.66,27.66,0,0,1-2-2C354.27,117.78,354.59,117.58,354.82,117.42ZM329,121.1c.17.16.39.49.49.46.28-.1.24-.4.17-.66a1.66,1.66,0,0,0-.1-.24c-.23-.93-.47-1.86-.7-2.79-.06-.26-.11-.62.24-.62a.88.88,0,0,1,.63.49c.62,1.63,1.2,3.27,1.77,4.92.22.64.39,1.3.62,1.93a.84.84,0,0,0,1.42.24,10.13,10.13,0,0,0,.74-.89,50.83,50.83,0,0,0,5.27-9.35c.26-.54-.09-.91-.6-1.1a16.83,16.83,0,0,0-11.1-.46,17,17,0,0,0-11.11,22.26,16.82,16.82,0,0,0,15.71,10.88c7.11-.17,12.32-3.32,15.43-9.54,3-6.07,2.31-12-1.74-17.54a11.86,11.86,0,0,1-1.51-2.12c-.21-.47-.51-1-1.23-1-.87,1.73-1.7,3.49-2.63,5.19a19.89,19.89,0,0,1-3.63,5.24c-.87.81-1.78,1.48-1.64,2.83-1.15,1.47-.2,2.62.73,3.55,1.79,1.76,3.3,3.83,5.45,5.23a3,3,0,0,1,.68.89.27.27,0,0,1,0,.27c-.15.11-.39.29-.47.23-.48-.3-.93-.65-1.39-1a7.58,7.58,0,0,0-1.15-.88c-.43-.21-.71-.89-1.51-.56.19.62.32,1.18.53,1.7.39,1,.84,2,1.2,3a.87.87,0,0,1-.21.76.53.53,0,0,1-.76-.13,7.61,7.61,0,0,1-.75-1.24c-.93-2-1.93-4-2.71-6.11a7.85,7.85,0,0,0-3.35-3.88c-2.35-1.52-2.63-2.27-1.49-4.72a1.31,1.31,0,0,0-.13-1.57c-.31-.38-.65-.72-.94-1.11q-2-2.7-3.91-5.42a.77.77,0,0,1,0-1.06c.37-.33.68-.07.93.26Zm68.59-8.36-2.52,9.91c-.13.53-.06,1,.52,1.15a3,3,0,0,1,1.54,1.28c.62.95.38,2.06-.94,2.95a3.59,3.59,0,0,0-1.56,2.62,4.82,4.82,0,0,0,.4,2.83c1,2.41,2,4.83,2.91,7.27.08.21-.13.52-.2.79-.25-.13-.62-.19-.73-.39-.53-1-1-2.09-1.47-3.15s-.63-2.2-1.48-3a1.59,1.59,0,0,0-.66,1.23c-.29,1.52-.58,3-.91,4.56a3.67,3.67,0,0,1-.44,1c-.05.09-.32.07-.49.06a.28.28,0,0,1-.19-.18,2.25,2.25,0,0,1-.09-.82c.41-2,.85-4,1.29-6,.16-.76.34-1.51.49-2.27a3.07,3.07,0,0,0-.9-2.65c-.49-.56-1.26-.12-1.92,0-2.85.57-5.69,1.17-8.59,1.47a19.68,19.68,0,0,0-5.1,1.06c.24.69.28,1.42.65,1.72,1.27,1,1.89,2.44,2.81,3.67a16.17,16.17,0,1,0,23.89-21.66A12.63,12.63,0,0,0,397.6,112.74Zm-23,18.38a3.16,3.16,0,0,0,.69.05c2.56-.47,5.11-1.12,7.69-1.4a68.93,68.93,0,0,0,9.67-1.83A14.07,14.07,0,0,0,395,127a1.08,1.08,0,0,0,.61-1.21,1,1,0,0,0-1.07-.8,32.34,32.34,0,0,0-7,.21,49.6,49.6,0,0,1-5.2.39c-3.25.15-6.49.42-10.11.67C373.64,127.88,374,129.58,374.55,131.12ZM395.9,112.4c-4.43-1-9,0-11.67,2.42,1.45,2.16,2.91,4.31,4.36,6.47a6.86,6.86,0,0,0,1.9,2.15c.65.41,1.49-.2,2.21.22.1.06.32-.11.49-.18Zm-13.3,3.29a15.11,15.11,0,0,0-4.09,5.17c-.52,1.08-1.31,2.12-1,3.59a58.88,58.88,0,0,0,10.77-.74c-1.7-2.55-3.34-5-5-7.46A3.18,3.18,0,0,0,382.59,115.69ZM361.83,132c0,1.82,1.15,3.45,3.27,4.46a.46.46,0,0,0,.69-.26,1.08,1.08,0,0,0,0-.82c-.43-.51-1-.88-1.43-1.42a4.35,4.35,0,0,1,1.1-6.13A4,4,0,0,1,371,129a4.33,4.33,0,0,1-1.25,5.89,9,9,0,0,1-1.59.69c-.38.15-.77.34-.68.79.14.66.72.49,1.15.4a5.55,5.55,0,0,0,3.77-7.73,5.8,5.8,0,0,0-6-3.22C363.71,126.42,361.92,128.57,361.83,132Zm-26.74-6.06a3.26,3.26,0,0,0,2.08-1.55c.9-1.49,1.82-3,2.69-4.47,2.94-5.14,4.65-10.81,6.91-16.24a24.72,24.72,0,0,0,.91-2.45,4.85,4.85,0,0,0,.12-1.43c0-.14-.2-.4-.32-.41s-.67,0-.76.16a13.75,13.75,0,0,0-1.14,2.33c-.83,2.37-1.6,4.75-2.36,7.14a54.2,54.2,0,0,1-2.26,6A70.48,70.48,0,0,1,335.08,125.91ZM351,135.2a8.59,8.59,0,0,0,1.05-3.85c.48-5.37-1.25-10.14-4.1-14.55a26.78,26.78,0,0,0-2.84-3.3.45.45,0,0,0-.73.12c-.15.22-.4.49-.15.77.58.65,1.22,1.25,1.79,1.91,4.18,4.88,6.33,10.36,4.87,16.88A2.57,2.57,0,0,0,351,135.2Zm17.28-3.67c-.15.75-.33,1.5-.42,2.26a.4.4,0,0,0,.58.37,3.08,3.08,0,0,0,1-.57,3,3,0,0,0,.68-3.65,2.76,2.76,0,0,0-3.13-1.46,3.05,3.05,0,0,0-1.49,4.84.63.63,0,0,0,.5.18.55.55,0,0,0,.36-.32c.23-.62,0-1.35.49-1.93.25-.32.54-.56,1-.39A.68.68,0,0,1,368.26,131.53ZM340,103.3c.57.07.76-.38.9-.86q1-3.35,1.91-6.7c.18-.64-.26-.86-.76-1s-1-.19-1.2.43q-1,3.49-1.91,7C338.78,102.83,339.25,103.31,340,103.3Zm-2.92-9.36a59.21,59.21,0,0,0-.89,7,4.09,4.09,0,0,0,.07,1.14,1.09,1.09,0,0,0,.53.6c.27.13.53,0,.64-.34s.26-.72.36-1.09c.59-2.12,1.18-4.24,1.75-6.37,0-.14-.11-.34-.22-.66C338.65,94.24,338,93.56,337.07,93.95Zm-4,1.3h-.14c.09,1.74.15,3.48.29,5.21a2.26,2.26,0,0,0,.53,1,.5.5,0,0,0,.87-.17c.32-2.29.64-4.59.91-6.89.1-.79-1.38-1.69-2.12-1.31a.64.64,0,0,0-.32.43C333.06,94.09,333.08,94.67,333.08,95.25Zm9.28,8.21c.16-.1.48-.18.61-.39a20,20,0,0,0,2.55-6.66.39.39,0,0,0,0-.28,2.22,2.22,0,0,0-.51-.61c-.31-.2-.55,0-.66.31-.27.61-.51,1.24-.73,1.87-.59,1.72-1.15,3.45-1.72,5.17C341.75,103.21,341.93,103.39,342.36,103.46Zm33.23,20.65a3.15,3.15,0,0,0,.49-.74,17.24,17.24,0,0,1,5.47-8.61.6.6,0,0,0,.19-.21c.06-.16.16-.4.09-.49a.54.54,0,0,0-.77-.07,6.89,6.89,0,0,0-.91.7A13.86,13.86,0,0,0,375.59,124.11Zm34.94-.86a1.64,1.64,0,0,0,0-.55,15.33,15.33,0,0,0-6.09-8.49c-.21-.15-.36-.22-.46,0,0,.08.15.26.27.37a18.62,18.62,0,0,1,5.59,8.6.37.37,0,0,0,.18.19.42.42,0,0,0,.28,0C410.41,123.41,410.47,123.31,410.53,123.25Zm-77.63-14.3a65.83,65.83,0,0,1,7.47,2.58c.11,0,.43-.13.44-.21a.67.67,0,0,0-.22-.5A8.66,8.66,0,0,0,332.9,108.95Zm6.14-2.74c0,1,.41,1.35,1.45,1.38.74,0,1.8-1.25,1.51-2s-1.27-.72-2-.79S339,105.2,339,106.21Zm50.65,4.43c-2.27,0-4.23.91-6.21,1.82-.14.06-.18.32-.27.49.17.07.39.24.49.18A28.09,28.09,0,0,1,389.68,110.64Zm8.81-1c1,.44,2,.85,3,1.32s2.14,1.1,3.2,1.65A10.89,10.89,0,0,0,398.49,109.6Zm12.73,8.05a4,4,0,0,0-.42-2.41c-.34-.73-.9-.87-1.59-.37A6.1,6.1,0,0,0,411.22,117.65ZM384,109.12l-.14-.44c-.93.15-1.85.27-2.78.45-.25,0-.55.23-.35.57a1.91,1.91,0,0,0,.57.6.61.61,0,0,0,.53,0C382.58,110,383.29,109.53,384,109.12Zm12.66-.2a1.78,1.78,0,0,0-1.7.12C395.51,109,396,109.43,396.67,108.92ZM332.78,129.7l.69-.28a3.5,3.5,0,0,0-.71-.29c-.22,0-.53,0-.48.34C332.3,129.55,332.57,129.6,332.78,129.7Z"/><path class="cls-3" d="M195.58,55c.37.43.86.19,1.31.22A7.82,7.82,0,0,1,204,60.26a6.49,6.49,0,0,1-.21,5.35c-.25.56-.09.89.46,1.12,5.44,2.27,10.65,5.06,16.2,7.11a7.27,7.27,0,0,0,4.77.16c.74-.21,1.45-.56,2.2-.74a7.08,7.08,0,0,1,2-.23,1.63,1.63,0,0,1,1.31,2.35,6.36,6.36,0,0,1-1,1.42,52.14,52.14,0,0,1-7.8,6.52,8.94,8.94,0,0,1-7.48,1.27c-3.13-.71-6-2.19-9-3.15-.92-.29-1.86-.55-2.77-.88a3.66,3.66,0,0,0-2.82-.16,1.94,1.94,0,0,1-2.19-.36c-.94-1.08-2.21-1.12-3.4-1.46-.74-.21-1.51-.35-2.26-.53-.28-.07-.64-.29-.83-.19-1.89.93-3.19,0-4.66-1.11A9.89,9.89,0,0,0,183,75.54c-4.21-1.12-8.32-2.55-12.42-4a2.08,2.08,0,0,0-1.91.15c-3.88,2.18-7.72,4.45-11.7,6.45C146.83,83.22,136.53,87.9,125.59,91a40.6,40.6,0,0,1-11.12,1.93c-.39,0-.78,0-1.17,0-2.05-.09-2.48-.56-2.44-2.7,0-1.09,0-1.21-1-1.24-3.6-.13-7.14-.69-10.71-1.1a50.37,50.37,0,0,0-6.39-.11A30.78,30.78,0,0,1,87,87.13a4,4,0,0,1-3.43-3.45,3.94,3.94,0,0,1,2.2-4.35,9.29,9.29,0,0,1,3.3-1c5.41-.52,10.84-.58,16.28-.65,2.52,0,5-.16,7.56-.28,1,0,1.34-.53,1-1.55-.77-2.09-1.61-4.15-2.39-6.24-.42-1.14-.85-2.15-2.41-1.87a1.61,1.61,0,0,1-1.33-.45c-1-1.3-2.33-1.08-3.65-1.17-4.45-.31-8.89-.71-13.33-1-2.71-.17-5.44-.14-8.15-.27A9.26,9.26,0,0,1,74.8,60.5a12.27,12.27,0,0,1-2.3-7.65c.12-1.8.87-2.34,2.71-2a4,4,0,0,1,1.84.8c.76.6,1.56,1.15,2.29,1.8a9,9,0,0,0,6.14,2.26c4.17,0,8.36-.06,12.52-.35l6.38-.43c.7,0,1-.53.7-1.21-.48-1.16-1.05-2.29-1.51-3.46a1.48,1.48,0,0,1,.82-2.16,22.5,22.5,0,0,1,5.28-1.57,2.83,2.83,0,0,1,2.86,1.08c.74.9,1.42,1.84,2.12,2.77.52.7,1.06,1.39,1.52,2.13a2.58,2.58,0,0,0,2.74,1.25c5.76-.85,11.6-.82,17.38-1.5a49.19,49.19,0,0,1,5.82-.27A8.66,8.66,0,0,0,148,49.87a8.91,8.91,0,0,1,5.45-2.48,3.82,3.82,0,0,0,1.54-.74c8.74-5.2,17.44-10.47,26.23-15.59,3.34-1.95,6.81-3.69,10.32-5.32a14.3,14.3,0,0,1,13.16.2,9.07,9.07,0,0,0,3.54,1.17,8.11,8.11,0,0,1,3.57,1.17,4.42,4.42,0,0,1,2.3,4.6,15.45,15.45,0,0,1-3.58,8.44,49.89,49.89,0,0,1-8.5,8.34q-3,2.28-6,4.59A.77.77,0,0,0,195.58,55Zm-3.47,20.51A18.55,18.55,0,0,0,197,72.55c.44-.33.82-.86,1.5-.58.23.19.44.42.16.68a15.7,15.7,0,0,1-3.19,2.51,14.25,14.25,0,0,0-1.68,1.13.6.6,0,0,0-.14.52.56.56,0,0,0,.38.32c1,.23,2.08.45,3.13.64a2.74,2.74,0,0,0,2.21-.39c1.9-1.33,4-2.3,5.76-3.93a4.08,4.08,0,0,1,1.5-.84,1.38,1.38,0,0,1,1.77,1.61,2.85,2.85,0,0,1-1.18,1.91,28.93,28.93,0,0,0-3.57,2.8l7.45,2.91c1.45.56,3,.88,4.44,1.32a5.55,5.55,0,0,0,4.72-.69,32.1,32.1,0,0,0,6.18-4.8,4.89,4.89,0,0,0,.89-.66c.67-.78,1.75-1.22,1.93-2.39-1.25-.49-2.1.4-3.07.88-.26.13-.31.22-.14.34,1.05.51,1.05.51.42,1.5a105.15,105.15,0,0,1-14.63-5.45c-2.71-1.26-5.41-2.53-8.16-3.7-1.77-.76-2.6-.28-3,1.67a3.25,3.25,0,0,1-1.81,2.45c-.07,0-.27-.2-.41-.3-.12-1.26-.17-1.32-.92-.87a54.69,54.69,0,0,0-5.91,3.94c-.55.49-1.41.63-1.85,1.53A3.24,3.24,0,0,0,192.11,75.48ZM156.45,49.91a6.2,6.2,0,0,0-7.27.72,4.58,4.58,0,0,0-2.05,3,9.47,9.47,0,0,1-.58,1.93c0,.14-.21.32-.33.33-.34,0-.47-.25-.59-.53-.28-.66.48-1.38-.08-2.22-1.42,1.07-2.75,2-4,3.06A7.15,7.15,0,0,0,139.44,59a6,6,0,0,0,0,5c1.24,2.67,4.78,5,8.23,3.38,1.4-.64,2.83-1.23,4.25-1.84.43-.19.86-.36.86-.91-.63-.27-1.25-.53-1.86-.8-.4-.18-.62-.53-.38-.91a.92.92,0,0,1,.76-.26c.37,0,.71.32,1.08.38,3.51.58,6.22-.53,7.74-4a5.84,5.84,0,0,0,.33-3.4A6.37,6.37,0,0,0,156.45,49.91ZM192,65.61c-1.85-1-1.73-3-2.23-4.61-.65-.07-.95.35-1.3.64-.66.55-1.28,1.15-2,1.69-.2.16-.52.35-.74.06a1.59,1.59,0,0,1-.22-.77,1.88,1.88,0,0,1,.12-.56,3.55,3.55,0,0,0,1.54-1.7,2.37,2.37,0,0,0-2.16,1.07c-1.22.78-2.43,1.58-3.66,2.34s-2.31,1.4-3.5,2.06a4.33,4.33,0,0,1-1.36.45,1,1,0,0,1-.79-.23c-.27-.27,0-.52.23-.68a10.19,10.19,0,0,1,1.44-1,61,61,0,0,0,7.32-4.71c.88-.6,1.73-1.26,2.64-1.79a121.82,121.82,0,0,0,13.14-9,51.48,51.48,0,0,0,8.56-8.25c1.89-2.35,3.35-5,3.36-8.17a3,3,0,0,0-1.65-2.85,9.23,9.23,0,0,0-5.61-1.07,13,13,0,0,0-4.72,1.31,13.82,13.82,0,0,1-2.16.83,1.2,1.2,0,0,1-1.34-.3,1.31,1.31,0,0,1-.06-1.63,5.08,5.08,0,0,1,2.1-1.94c.46-.23,1.18,0,1.45-.86a14.32,14.32,0,0,0-8.9,1.45c1.79.77,1.89.81,1.66,2a8,8,0,0,0,.08,3.73A2.28,2.28,0,0,1,192,36.2a1.93,1.93,0,0,1-2.53-.71,5.08,5.08,0,0,1-.67-4.18c.21-.74.56-1.44.84-2.16.21-.18.43-.36.63-.55s.12-.22.09-.25-.28-.3-.37-.27a8.7,8.7,0,0,0-1,.47,6.38,6.38,0,0,0-1.1.37c-3.31,1.82-6.67,3.55-9.9,5.5-7.14,4.3-14.27,8.61-21.54,12.71-.23.13-.37.42-.58.68a10.46,10.46,0,0,1,1.59.81,6.34,6.34,0,0,0,4.37,1.17,40.76,40.76,0,0,1,5,.08,3.49,3.49,0,0,1,3.35,2.72,3,3,0,0,1-1.43,3.48,27.49,27.49,0,0,1-3.77,2.18,11.35,11.35,0,0,0-5,3.84,6,6,0,0,1-1.72,1.55c-1,.65-2,1.2-3,1.79a59.18,59.18,0,0,1-7.89,3.68,5.35,5.35,0,0,1-4.52,0,11.2,11.2,0,0,1-4.1-3.17,6,6,0,0,1-1.5-4.57c.05-.38.31-1-.37-1.21-.89.75-1.79,1.48-2.65,2.25s-1.93,1.23-2.46,2.31c.42.47.92.26,1.37.28,1,0,1.94,0,2.91.07a.51.51,0,0,1,.45.62.58.58,0,0,1-.35.4c-1.06.15-2.12.3-3.18.35-2,.11-4.06,0-6,.9a1.49,1.49,0,0,1-1.88-.3,2.19,2.19,0,0,0-2.1-.65c-1,.06-1.94,0-2.91,0-2.32,0-4.64.07-7,.14-.74,0-1.07.52-.82,1.17.71,1.8,1.46,3.59,2.19,5.38l1.62,4c1.55.57,3.05-.12,4.58-.18,1,0,2,0,2.52,1s-.11,1.75-.65,2.37c-2.88,3.28-5.74,6.61-9.72,8.63-.89.45-.59,1.1-.56,1.72s.64.66,1.08.65a33.33,33.33,0,0,0,4.94-.18,78.66,78.66,0,0,0,13.48-3.46A217.62,217.62,0,0,0,155,77.66c2.43-1.19,4.75-2.63,7.11-4,3-1.66,5.9-3.34,8.87-5,.43-.24.82.06.68.52-.26.8.21,1,.78,1.17,3.31,1.08,6.6,2.19,9.92,3.23,1.85.58,3.73,1,5.59,1.57a1.36,1.36,0,0,0,1.37-.14,1.83,1.83,0,0,0,.34-.44c.11-.19,0-.28-.26-.33-.66-.12-1.32-.27-2-.39-2.27-.39-3.53-1.94-4.33-3.9a4.16,4.16,0,0,1,.65-4.63c.27-.31.61-.56,1-.42s.42.58.33,1c0,.19-.17.36-.21.54-1.07,4.89,2.31,6.87,6.42,6.2a14.93,14.93,0,0,0,6.53-3.36c-.36-.21-.52-.32-.69-.4a.71.71,0,0,1-.45-.67c0-.36.3-.42.59-.47a17.71,17.71,0,0,0,2.56-.47,4.73,4.73,0,0,0,2.95-6.54,6.73,6.73,0,0,0-6.08-4.29,4.87,4.87,0,0,0-5.23,5.75c.25,1.05.79,2,1,3Q192.19,65.42,192,65.61ZM88.57,82.28c.27-1,1.11-1,1.86-1,1.16-.09,2.32-.05,3.48-.15,5.61-.47,11.23-.61,16.85-.79,2.61-.08,5.23-.11,7.85-.19a3.3,3.3,0,0,0,2.67-.89.74.74,0,0,0,.16-.52.49.49,0,0,0-.34-.33c-.87,0-1.74,0-2.61.05-2,.14-4,.43-6.05.44-6.29,0-12.58.36-18.86.67a30.18,30.18,0,0,0-5.49.58,6.31,6.31,0,0,0-1.63.57,2.43,2.43,0,0,0-1.2,2.72A2.16,2.16,0,0,0,87,85.47c.57.13,1.12.34,1.69.41a57.12,57.12,0,0,0,7.82.63,44.14,44.14,0,0,1,7.24.47c2.48.39,5,.48,7.52.7a2.81,2.81,0,0,0,2.2-.53,41.9,41.9,0,0,0,5.09-4.74.59.59,0,0,0,0-.52.55.55,0,0,0-.43-.21c-3.49.05-7,.2-10.47.17-5.82-.06-11.61.84-17.43.66C89.67,82.48,89.09,82.66,88.57,82.28Zm53.85-28.91c-5,.4-9.58.77-14.11,1.11-3.48.25-7,.36-10.44.7q-8.1.79-16.23,1.1c-.77,0-1.54.16-2.31.23A124.61,124.61,0,0,1,86,57.34c-2.63-.06-5.18-.47-7.31-2.31a28.8,28.8,0,0,0-3.32-2.33c-.64-.41-1.13-.11-1.17.62-.21,3.13,1.2,5.63,3.15,7.88a7.32,7.32,0,0,0,4.07,1.67c-.95-1.94-.76-2.7,1-3.36a14.88,14.88,0,0,1,4.82-.93c2.62-.06,5.24-.06,7.86-.08,6.21,0,12.41.2,18.62-.08,2.67-.12,5.27-.82,8-.53a92,92,0,0,0,9.31.05,5,5,0,0,0,3.57-.86,1.82,1.82,0,0,1,2.16,0c1.29.73,1.42.75,2-.21C139.69,55.53,141.09,54.78,142.42,53.36Zm-28.13,6.32c-2.91.17-5.7.44-8.49.48-3.68,0-7.36-.09-11-.17-3.1-.07-6.19,0-9.28.26a6.33,6.33,0,0,0-2.51.63c-.25.13-.56.26-.46.61a1.31,1.31,0,0,0,.44.7,5.93,5.93,0,0,0,2.36,1.06c1.25.17,2.49.37,3.75.44,5.22.3,10.44.56,15.66.83a23.13,23.13,0,0,0,3.47.12c1.32-.13,2-1.44,3.07-2.06a28,28,0,0,0,2.4-1.64A1.23,1.23,0,0,0,114.29,59.68ZM116,64.81c2.76.2,5.52.06,8.29,0a1.39,1.39,0,0,0,.77-.31c1.74-1.38,3.47-2.78,5.21-4.16.2-.16.28-.31.1-.49a.74.74,0,0,0-.47-.22c-2.61,0-5.23.06-7.84.06a1.71,1.71,0,0,0-1.51.67,14.75,14.75,0,0,1-3.48,3C116.61,63.71,115.94,63.87,116,64.81ZM105.15,49.48c.07,1.37.89,2.4,1.26,3.58a1.85,1.85,0,0,0,2.13,1.44c2.22-.07,4.39-.42,6.77-.72a28.54,28.54,0,0,0-4-5.36,1.61,1.61,0,0,0-1.61-.43A12.22,12.22,0,0,0,105.15,49.48Zm56.06,2.08c-.25,1,.51,1.69.65,2.53a.93.93,0,0,0,.8.73,11.71,11.71,0,0,0,4.57,0,1.59,1.59,0,0,0,1.37-1.61,1.81,1.81,0,0,0-1.71-1.65A32.34,32.34,0,0,0,161.21,51.56ZM109,66.25c-.06.17,0,.33.29.33a1.61,1.61,0,0,0,.84-.14c2.77-1.79,5.54-3.58,8.28-5.42a3.74,3.74,0,0,0,.92-1.11c.14-.21.33-.56-.05-.73a2.26,2.26,0,0,0-.82-.09.44.44,0,0,0-.26.13c-2.8,2.4-5.92,4.37-8.89,6.54C109.13,65.87,109.07,66.09,109,66.25Zm17.61-.45a4.3,4.3,0,0,0,.8-.26,52.85,52.85,0,0,0,8.06-6.09,1.38,1.38,0,0,0,.35-.75c0-.1-.22-.37-.32-.36a1.63,1.63,0,0,0-.78.28q-4.1,3.2-8.17,6.44a.45.45,0,0,0-.14.22.48.48,0,0,0,0,.28C126.42,65.65,126.51,65.71,126.59,65.8Zm77.69,10.31c.87-.47,2-.6,2.51-2.11Zm-41-19.73c-.23,0-.58-.07-.77.07a.83.83,0,0,0-.24,1c.14.33.41.32.7.13s.52-.26.74-.44a.67.67,0,0,0,.26-.48C163.91,56.32,163.53,56.51,163.26,56.39Z"/><path class="cls-3" d="M312.16,37.14a6.07,6.07,0,0,1,1.63-3.79c3.75-4.33,7.75-8.43,11.84-12.43a5.44,5.44,0,0,1,1.95-1.23,3.47,3.47,0,0,1,4.5,2.86,2,2,0,0,1-.32,1.39,15.06,15.06,0,0,1-1.4,1.85Q324.2,32.19,318,38.53a3.49,3.49,0,0,1-1.64,1.13c-1.52.24-2.53.53-1.93,2.48.25.8-.57,1.61-1,2.36a2,2,0,0,0-.08,1.86,56.84,56.84,0,0,1,3.13,19.14,9.84,9.84,0,0,1,0,1.16c-.56,5.33-2.74,7.41-7.72,8.33-3.11.57-4.63-.63-5.8-2.81-.69-1.28-1.27-2.62-2-3.88a10.65,10.65,0,0,0-7.6-5.75c-1.33-.24-2.64-.6-3.95-1-5-1.4-8.69-4.66-11.42-9a31.28,31.28,0,0,1-5-13.82,8.38,8.38,0,0,1,2.48-7.41,15.92,15.92,0,0,0,2-2.13,12.33,12.33,0,0,1,9.48-5,20.09,20.09,0,0,1,9.15,1.19,20.86,20.86,0,0,1,8,5.72A30.63,30.63,0,0,1,308,36.7,5,5,0,0,1,312.16,37.14Zm-2.26,9.73c0-.88.84-1.19,1.33-1.71,1.08-1.16,2.09-2.3,1.65-4.08a1.72,1.72,0,0,1,.58-1.57c.46-.5,1-1,1.36-1.5.21-.27.48-.7,0-1A1.18,1.18,0,0,0,314,37a1.65,1.65,0,0,0-.72.47,2.09,2.09,0,0,1-2.6.6,3.08,3.08,0,0,0-3.21.74,45.67,45.67,0,0,0-4,4.19.79.79,0,0,0-.15.54,1,1,0,0,0,.19.54.39.39,0,0,0,.68,0c.32-.36.63-.73,1-1.07.94-1,1.89-1.94,2.85-2.88a.58.58,0,0,1,.54,0,.78.78,0,0,1,.27.48,1.92,1.92,0,0,1-.67,1.82c-1,1-1.93,1.9-2.88,2.87-.7.71-.69.73.22,1.85.79-.42,1.18-1.23,1.73-1.87.76-.88,1.5-1.77,2.28-2.64.33-.37.77-.68,1.26-.32s.28.85,0,1.24q-1.1,1.35-2.22,2.68c-.56.66-1.16,1.29-1.71,2-.15.18,0,.39.17.47s.23.07.27,0c.58-.5,1.14-1,1.71-1.52.28-.24.54-.57,1-.32.73.91.57,2.11,1,3.14a5.24,5.24,0,0,1-.79,5.24,35.28,35.28,0,0,1-2.54,3.18c-1.28,1.39-2.69,1.33-4-.07-.27-.28-.47-.61-.71-.92-2.64-3.32-4.09-7.21-5.46-11.16a13.38,13.38,0,0,1-.72-7.11c.45-2.38-.79-4.32-2.38-6a3.23,3.23,0,0,0-5.68,2.44,6.25,6.25,0,0,0,4.58,6,2.63,2.63,0,0,1,2,1.53,81.39,81.39,0,0,1,3.7,10.7,1.15,1.15,0,0,1-.4,1.14,14.77,14.77,0,0,0-3.83-1,14.34,14.34,0,0,1-6.4-2.61c-4.46-3-7.14-7.27-8.78-12.31-1.38-4.24-.13-7,2.5-9.45,2.93-2.67,6.44-3,10.1-2.24a17,17,0,0,1,10.2,6.24c1.14,1.45,2.26,2.91,3.41,4.34a.54.54,0,0,0,.52.08.63.63,0,0,0,.21-.5,1.68,1.68,0,0,0-.19-.83c-.7-1-1.41-2.09-2.16-3.1-4.47-6-10.53-8.3-17.84-7.64a10.61,10.61,0,0,0-3.9,1.1c-2.53,1.3-4.52,3.17-4.92,6.08a21.06,21.06,0,0,0,.15,7,23.33,23.33,0,0,0,6.79,12.26,15.87,15.87,0,0,0,8.54,4.63A46.21,46.21,0,0,1,298,58.23a11.81,11.81,0,0,1,8.43,8.44c.19.65.35,1.31.59,2A22.36,22.36,0,0,0,308,71a2.51,2.51,0,0,0,3.58,1.33,4.82,4.82,0,0,0,2.79-3.17,12.22,12.22,0,0,0,.72-4.57,69.61,69.61,0,0,0-2.22-15.23,14.42,14.42,0,0,0-.43-1.38c-.42-1.07-.44-1.08-1.9-.74C310.12,47.38,310.07,47.08,309.9,46.87Zm13.66-19.14A1.59,1.59,0,0,0,325.3,26a.69.69,0,0,0-.88-.52,1.58,1.58,0,0,0-1.23,1.67C323.21,27.35,323.45,27.56,323.56,27.74Zm-6.11,6.78a1.57,1.57,0,0,0,1.22-.62,1.44,1.44,0,0,0,.47-1.77.64.64,0,0,0-.44-.3c-.79-.1-1.21.45-1.57,1a1.36,1.36,0,0,0-.1,1.35C317.1,34.33,317.3,34.41,317.45,34.52Z"/><path class="cls-3" d="M292.77,329.5c-.08-.75.54-1.18.84-1.75s.72-1.16,1-1.77c1.06-2.22.78-3.74-.92-5.56a10,10,0,0,0-8.38-3.21,18.14,18.14,0,0,0-8.29,2.41c-2,1.22-3.93,2.47-5.8,3.87a65.92,65.92,0,0,1-17.67,9.9,23.44,23.44,0,0,1-14.28.16,16.87,16.87,0,0,1-8-4.55,3.88,3.88,0,0,0,.87,3.37,10.88,10.88,0,0,0,5.29,4.37,40.72,40.72,0,0,0,9.79,2.54c6.57.79,13-.18,19.33-1.5,3.42-.71,6.82-1.47,10.24-2.2a48.07,48.07,0,0,0,8.81-2.88,15.55,15.55,0,0,1,1.89-.72.86.86,0,0,1,.76.25.66.66,0,0,1-.32,1,34.6,34.6,0,0,1-7.54,3c-4.3,1.19-8.67,2.08-13,2.9a92.41,92.41,0,0,1-9.45,1.54c-6.49.52-13,.72-19.28-1.6a22.79,22.79,0,0,1-5-2.39,10.94,10.94,0,0,1-4.58-7.79,7.53,7.53,0,0,1,1-3.91,32.07,32.07,0,0,1,3.14-5.21c4.16-5.94,9.93-9.73,16.5-12.43a40.34,40.34,0,0,1,7.58-2,59.55,59.55,0,0,1,11.87-1,31.75,31.75,0,0,1,21.79,8.22c2.52,2.27,4,5.19,5.43,8.18a6.14,6.14,0,0,1,.07,4.57A7.7,7.7,0,0,1,292.77,329.5Zm-47.15-6.63a7,7,0,0,1-.59,1.59c-1.37,2-2.79,4-4.2,5.92a.48.48,0,0,1-.23.18c-.16.05-.41.15-.49.08a1.35,1.35,0,0,1-.47-.67,1.29,1.29,0,0,1,.18-.82c1.42-2.39,2.52-5,5.18-6.44a.41.41,0,0,0,.1-.7,2.17,2.17,0,0,1-.58-1.59c-.09-3.61,3.94-7.34,7.51-6.8a2,2,0,0,0,1.83-.39c.37-.3.82-.52,1.2-.82A31.92,31.92,0,0,1,262.8,308a48.92,48.92,0,0,1,5.9-2,48.4,48.4,0,0,0-18,2.34c-7.15,2.9-13.22,7.26-17.45,13.9-2.19,3.44-1.86,5.21,1.55,7.52a9.86,9.86,0,0,0,2,1.16,29.12,29.12,0,0,0,6.41,1.78,25.31,25.31,0,0,0,3.76.29,25.68,25.68,0,0,0,11.34-3.23,84.31,84.31,0,0,0,13.46-8.57c3-2.4,6.34-4.44,10.3-5.13,2.9-.5,5.74-.75,8.57.29a1.09,1.09,0,0,0,1.17-.1,9.15,9.15,0,0,0-.64-.91,23.4,23.4,0,0,0-18.05-7.91c-6.77-.05-12.58,2.72-17.92,6.64a1.39,1.39,0,0,0-.66,1.71,2.7,2.7,0,0,1-.9,2.62c-1.18,1.29-2.44,2.51-3.5,3.89a2.68,2.68,0,0,1-2.79,1.09A13,13,0,0,1,245.62,322.87Zm.54-3,.07.61a1.77,1.77,0,0,0,1.29,1.41c.67.28,1.09-.1,1.49-.54,1.3-1.42,2.6-2.84,3.88-4.27.53-.6.33-1.2-.43-1.62a2.82,2.82,0,0,0-2.51-.15,7.15,7.15,0,0,0-3.16,2.43A3.39,3.39,0,0,0,246.15,319.87Z"/><path class="cls-3" d="M175.75,311.67a5.23,5.23,0,0,0-1.45.08c-2.32.81-4.59.33-6.88-.12-3.89-.77-7.79-1.5-11.68-2.28-6.17-1.24-12.33-2.52-18.5-3.77-4.37-.88-8.74-1.72-13.11-2.59-4.56-.91-9.11-1.87-13.67-2.76-5.6-1.09-11.22-2.11-16.82-3.2-3.81-.74-7.61-1.53-11.41-2.31L68,291.83l-8.54-1.7c-.83-.17-1.19-.58-1-1.07a1,1,0,0,1,1.19-.57c2.09.4,4.19.77,6.28,1.2,4.07.85,8.13,1.81,12.21,2.61,7.49,1.47,15,2.81,22.5,4.31,10.44,2.09,20.87,4.27,31.3,6.4,6.65,1.35,13.31,2.66,20,4,5.5,1.11,11,2.26,16.5,3.39a8.49,8.49,0,0,0,3.43.11c2.85-.56,5.73-1,8.6-1.49q6-1,12-2c2.77-.46,5.55-.86,8.32-1.33,4.3-.71,8.6-1.46,12.89-2.19l6-1a8.47,8.47,0,0,1,1.15-.12c.41,0,.79.12.83.6a.58.58,0,0,1-.46.63c-.65.17-1.3.39-2,.5-3.73.62-7.47,1.19-11.19,1.84-5.35.93-10.68,1.93-16,2.9a4,4,0,0,0-.86,0c-3.77.66-7.54,1.28-11.29,2C178.55,311.11,177,310.89,175.75,311.67Z"/><path class="cls-3" d="M234.15,224.07a19.9,19.9,0,0,0-1.35-8.29,21.66,21.66,0,0,1-.9-9.76,38.46,38.46,0,0,1,2.19-9,19.75,19.75,0,0,1,1.66-3.37,6.06,6.06,0,0,1,3.45-2.88c1.27-.4,2.42-1.19,3.66-1.71a.91.91,0,0,1,1.28,1,13.77,13.77,0,0,1-.52,2.25,52.92,52.92,0,0,0-1.88,10,68.84,68.84,0,0,0-.61,9.56,12.39,12.39,0,0,1-2.29,7.65,2.7,2.7,0,0,0-.52,1.9c.07,1,.1,1.94.15,2.9a14.2,14.2,0,0,1,.06,1.45c-.06,1.11-.44,1.74-1.06,1.87a2.45,2.45,0,0,1-2.92-1.29,3.17,3.17,0,0,1-.27-.83C234.19,224.84,234.16,224.17,234.15,224.07Zm2.72-4.57a10.26,10.26,0,0,0,2.58-6c.12-1.55.24-3.09.32-4.64A74.68,74.68,0,0,1,242,192.74c.11-.42.47-.86-.12-1.28a5.7,5.7,0,0,1-1.28.59,5.62,5.62,0,0,0-4,3.43,19.38,19.38,0,0,0-.8,1.87,46.49,46.49,0,0,0-1.78,6.71,20,20,0,0,0,1.6,13.84c.27.51.49,1,.74,1.57a14.14,14.14,0,0,0-.47,5.68.66.66,0,0,0,.73.7c.35,0,.41-.32.44-.59a5.45,5.45,0,0,0,0-.86C237,222.76,236.92,221.13,236.87,219.5Z"/><path class="cls-3" d="M376.37,290.64c-.68,0-1.35.09-2,.09a3.74,3.74,0,0,1-2.58-1.17,2.88,2.88,0,0,1,0-4.36,2,2,0,0,1,2.63-.21c1.18.84,2.32,1.74,3.44,2.66.54.44.43.87,0,1.46s-.16,1.32.68,1.29a4.31,4.31,0,0,1,2.54.29,1,1,0,0,1,.24,1.69c-.59.49-1.24.91-1.95,1.42a2.55,2.55,0,0,0,2.47,1.77,32.23,32.23,0,0,0,6.37-.23c1.2-.1,1.79.7,1.33,1.78-1,2.34-3.37,2.88-5.08,1a2.54,2.54,0,0,0-2.17-1.06,4.34,4.34,0,0,1-2-.3c-1.43-.68-2.38-.41-3,1.06-.14.31-.55.53-.87.74-1.6,1-3,.41-3.53-1.44a1.13,1.13,0,0,1,1.14-1.56c.29,0,.57.11.86.13a3.88,3.88,0,0,0,3.8-1.7c-.12-.69-.89-.49-1.34-.74a1.69,1.69,0,0,1-.8-2.43,3,3,0,0,0,.79-.21c.19-.11.49-.27.22-.61s-.51-.13-.69,0A2.67,2.67,0,0,0,376.37,290.64Zm11.55,6.57c-.05-.07-.09-.16-.16-.2a2.08,2.08,0,0,0-1.58.13.47.47,0,0,0-.08.42,1.44,1.44,0,0,0,1.75-.09C387.92,297.42,387.9,297.3,387.92,297.21Zm-15.28-9.76a6.55,6.55,0,0,0,.71-.26c.2-.1.66-.07.4-.48a.55.55,0,0,0-.9-.15,1,1,0,0,0-.34.4C372.48,287.1,372.59,287.28,372.65,287.45Z"/><path class="cls-3" d="M336.44,74.85A2.61,2.61,0,0,0,339.09,73c.29-1.28-.42-3.23-1.58-3.36-1.54-.18-2.05-1.07-2.58-2.24a1.34,1.34,0,0,0-1.77-.52A2.3,2.3,0,0,0,331.92,68a1.21,1.21,0,0,0,.27,1.31.83.83,0,0,1-.41,1.38,3.44,3.44,0,0,0-1.43.92,2.42,2.42,0,0,0,.25,2.92,1.71,1.71,0,0,0,2.11,0,2.8,2.8,0,0,0,.44-.38,1,1,0,0,1,1.54,0A2.27,2.27,0,0,0,336.44,74.85Z"/><path class="cls-3" d="M392.76,291.8c-.1-.15-.26-.45-.31-.44a7.25,7.25,0,0,0-1.58.62c-2.21,1.36-4.21.83-6.15-.57-.76-.55-1.28-1.39-2.3-1.67-.59-.16-.47-1,.15-1.35a28.89,28.89,0,0,1,6.25-2.17,7.35,7.35,0,0,1,4.47.75c1.44.62,1.55,1.82.48,3-.44.5-1.16.73-1.36,1.44,0,.1.2.27.31.41Zm0-3c0-.5-.4-.59-.71-.73-.8-.37-1.07-.24-1.16.51,0,.28,0,.57-.07.85s-.09.56.25.65a.76.76,0,0,0,.53-.09A2.72,2.72,0,0,0,392.79,288.77Z"/><path class="cls-3" d="M189.75,309.92c.37,1.4-.1,2.8,0,4.2a4.81,4.81,0,0,1-2,2c-.84.51-1.64.28-2.44.49a25.27,25.27,0,0,1-7.3.88,2.31,2.31,0,0,1-.57-1.83c.21-1.11.38-2.23.57-3.35a8.73,8.73,0,0,1,1.6-.55,53.15,53.15,0,0,0,7.51-1.64A6.33,6.33,0,0,1,189.75,309.92Zm-3.69,4.92a40.1,40.1,0,0,1-6.4-1.29c-.14.9-.61,1.69-.21,2.56A25.81,25.81,0,0,0,186.06,314.84Zm-2.86-2.08c1.22.22,2.44.47,3.66.65,1,.15,1.1.07,1.17-1.34,0-.16-.13-.34-.22-.54C186.19,311.49,184.74,312.28,183.2,312.76Z"/><path class="cls-3" d="M285.37,304.1l-8-.87c-2.69-.3-5.38-.57-8.07-.91-1.43-.18-2.84-.48-4.25-.76-.13,0-.27-.28-.32-.46a.47.47,0,0,1,.44-.59,5.54,5.54,0,0,1,1.43-.09c4.53.44,9.07.75,13.56,1.42,2.87.43,5.76.6,8.62,1.05.38.06.79.11.73.64s-.5.53-.87.55C287.8,304.12,286.92,304.1,285.37,304.1Z"/><path class="cls-3" d="M392.71,291.85a36.39,36.39,0,0,1,5.43,0,4.4,4.4,0,0,0,3.53-1c.42-.35,1-.45,1.26,0s-.12.93-.47,1.24a5.21,5.21,0,0,1-4.82,1.33,5.93,5.93,0,0,0-2.25-.28.56.56,0,0,0-.36.38.58.58,0,0,0,.21.5,5.44,5.44,0,0,0,3.58.84,13.75,13.75,0,0,1,2-.17.5.5,0,0,1,.57.49,1,1,0,0,1-.39.69,5.25,5.25,0,0,1-4.47.44,15.49,15.49,0,0,0-4.17-1c-.51,0-.84-.75-.46-1a2.26,2.26,0,0,0,.84-2.51Z"/><path class="cls-2" d="M159.88,149.76c2.21-.89,4.24-1.79,6.33-2.53,5.74-2.05,11.22-4.71,16.72-7.31a4.87,4.87,0,0,1,1.08-.37.5.5,0,0,1,.39.3,3,3,0,0,1-1.61,3.08c-7.12,2.23-13.74,5.68-20.63,8.44-1.35.54-1.35.55-2.06-.8A4.68,4.68,0,0,1,159.88,149.76Z"/><path class="cls-2" d="M152.82,154.19a18.18,18.18,0,0,1,3.55-2.71,2.35,2.35,0,0,1,1.67-.26,1.06,1.06,0,0,1,.71.38,1,1,0,0,1-.11.81,2,2,0,0,1-1.26,1.11C156,153.76,154.65,153.93,152.82,154.19Z"/><path class="cls-4" d="M64.51,273a1.57,1.57,0,0,1,.19-1.53q6.25-11.84,12.5-23.68c2.08-3.95,4.17-7.88,6.15-11.88a1.83,1.83,0,0,1,2-1.24,6,6,0,0,0,.87,0,1.3,1.3,0,0,0,1.15-.77,6.21,6.21,0,0,0,.8-2.47c.06-3.2.17-6.41.24-9.61a9.19,9.19,0,0,0-.09-1.74,2.45,2.45,0,0,0-2.46-2.4c-2.1-.34-4.21-.68-6.33-.87-4.44-.41-8.89-.76-13.34-1-2.3-.15-3.41.88-3.65,3.19q-.46,4.49-.79,9a21.51,21.51,0,0,0,.13,2.61,1.78,1.78,0,0,0,1.44,1.91c.48.11.52.52.29.9-1.14,1.8-2.3,3.6-3.46,5.39L44.51,263q-.95,1.47-1.93,2.91c-.94,1.4-.93,1.31-2.8,1a4.12,4.12,0,0,1-3.8-3.77,23.86,23.86,0,0,1-.26-3.48c-.07-7.77-.1-15.53-.16-23.3-.06-7.08-.16-14.16-.2-21.25-.07-13-.1-26-.17-39.05Q35.14,163.52,35,151c0-3.39-.2-6.78-.3-10.17a12,12,0,0,1,0-2c.3-2.09.87-2.43,3-2.76a46,46,0,0,1,7.53-.13c7.68.08,15.35.15,23,.29,7.09.12,14.17.35,21.26.48,4.28.08,8.55.05,12.83.09,4,0,7.94.13,11.91.14a8.4,8.4,0,0,1,3.65.8,3.88,3.88,0,0,1,2.28,3.14,12.14,12.14,0,0,1,.12,1.74c.06,5.82.13,11.64.17,17.46,0,5,.14,10.09,0,15.13-.11,4.27-.05,8.54,0,12.81q0,10.92,0,21.84c0,5.91-.07,11.82-.07,17.73,0,6.5,0,13,.06,19.51q0,7.57,0,15.14,0,7,0,14a14.35,14.35,0,0,1,0,1.74,3.51,3.51,0,0,1-3.59,3.48,15,15,0,0,1-3.49-.14c-5-.83-9.92-1.78-14.88-2.61-5.45-.91-10.92-1.7-16.37-2.58-3.82-.62-7.63-1.33-11.45-2C68.58,273.7,66.49,273.37,64.51,273Z"/><path class="cls-2" d="M40.33,268.69c.12.89-.48,1.23-.71,1.74a1.24,1.24,0,0,1-1.68.66c-1.1-.32-2.31-.15-3.24-1.09a7.8,7.8,0,0,1-2.31-4,34,34,0,0,1-.72-5.48c-.23-9.41-.4-18.83-.54-28.24-.12-7.38-.17-14.76-.26-22.14q-.18-14.42-.39-28.83-.27-18.62-.54-37.23c0-1.26,0-2.53,0-3.79a14.12,14.12,0,0,1,1.11-5.39,4.56,4.56,0,0,1,4.68-3.2c1.94,0,3.88.12,5.82.14,6.9.09,13.79.13,20.69.24,8.34.13,16.68.34,25,.47,10,.15,20,.22,30,.41,2.9.06,5.84-.06,8.67.82s5.26,2.59,6.3,5.55a16.55,16.55,0,0,1,.89,4.84c.17,4.37.08,8.74,0,13.1-.07,6.5-.06,13-.14,19.52-.16,13.28-.35,26.57-.52,39.85-.06,5.34-.07,10.68-.11,16-.12,14.36-.26,28.71-.36,43.07a29.68,29.68,0,0,1-.68,6.06,8.22,8.22,0,0,1-9.6,6.39c-6.85-1.25-13.69-2.61-20.55-3.83-6.1-1.09-12.23-2-18.33-3.08-4.58-.79-9.16-1.64-13.74-2.45-2.38-.42-4.77-.81-7.22-1.23-.16-1.17.69-2,1.15-2.87a.84.84,0,0,1,1-.31c5.83,1.49,11.83,2.06,17.72,3.2,4.75.92,9.55,1.63,14.33,2.41q9,1.47,18.07,2.9a8.45,8.45,0,0,0,5.39-.63,4.5,4.5,0,0,0,2.64-3.57,15.46,15.46,0,0,0,.1-2q-.09-23.88-.19-47.76c0-15.44,0-30.89-.07-46.33,0-11.85-.13-23.69-.17-35.54a40.2,40.2,0,0,0-.35-6.38,5.93,5.93,0,0,0-6-5.29c-4.37-.06-8.74.08-13.11-.1-7.38-.3-14.76-.32-22.13-.41-12.82-.16-25.63-.68-38.46-.59-1.65,0-3.3.08-5,.08a4,4,0,0,0-2.16.75,3.17,3.17,0,0,0-1.43,2.08,14.34,14.34,0,0,0-.14,6.63,10.42,10.42,0,0,1,.23,2.3c0,8.83,0,17.67.08,26.5.1,12.42.29,24.85.41,37.27.11,11.56.17,23.11.27,34.67,0,4.16.13,8.32.18,12.48a6.89,6.89,0,0,1-.11,1.44,14.68,14.68,0,0,0,.28,6.06,4.22,4.22,0,0,0,3.14,3.46C38.55,268.3,39.4,268.48,40.33,268.69Z"/><path class="cls-2" d="M32.55,322.79l-18-5.29c-.65-.19-1.3-.39-1.94-.61-.91-.31-1.09-.73-.64-1.5.79-1.33,1.57-2.67,2.42-4q6.27-9.62,12.57-19.22,8.11-12.41,16.22-24.83c4.94-7.54,9.93-15,14.87-22.58q3.51-5.34,6.92-10.75a2,2,0,0,1,2.1-1.12c2.7.3,5.4.53,8.1.8,1.06.11,2.11.27,3.17.4.75.09,1,.45.58,1.19q-2.83,5.41-5.7,10.8-4.7,8.87-9.41,17.73-5.1,9.63-10.18,19.27-6.24,11.83-12.48,23.66-4,7.58-8,15.14C33,322.16,32.82,322.38,32.55,322.79Z"/><path class="cls-2" d="M39.06,320.44c1.78-3.42,3.4-6.48,5-9.57a2.29,2.29,0,0,1,1.81-1.27,11.35,11.35,0,0,1,1.44-.14,67.85,67.85,0,0,0,10.09-1.19,5.21,5.21,0,0,1,2.3.05L77.9,313c.07,0,.13.1.22.17a2.52,2.52,0,0,1-.74.45C64.73,315.91,52.08,318.14,39.06,320.44Z"/><path class="cls-2" d="M81.85,315C76.47,316,71.07,317,65.69,318.13c-4,.8-8,1.69-11.93,2.5-5.21,1.07-10.44,2.1-15.65,3.17a7,7,0,0,1-4.11-.7c1.12-2.15,2.2-4.28,3.32-6.4q7.29-13.74,14.6-27.47,12.24-23,24.5-45.93,2.12-4,4.2-8c.18-.35.3-.74.76-.77.15,0,.42.1.46.21a1.31,1.31,0,0,1-.24,1.07c-2.63,5-5.26,9.93-7.85,14.92-5.36,10.32-10.68,20.66-16,31Q50.84,294.92,43.92,308,40.48,314.6,37,321.16a1.68,1.68,0,0,0-.07.55c1.56.47,1.59.49,2.67.3,4.48-.79,9-1.61,13.45-2.4,4.1-.72,8.21-1.39,12.3-2.13,3.89-.7,7.75-1.58,11.65-2.16C78.62,315.09,80.17,314.38,81.85,315Z"/><path class="cls-2" d="M87,224.37c-.17,2.61-.32,5.22-.52,7.83-.07.88-.44,1.14-1.35,1-5.49-.63-11-1.27-16.46-1.88-1.25-.14-2.51-.23-3.77-.27-1.81,0-1.7-.58-1.72-2,0-.58,0-1.16.06-1.74q.23-3.92.47-7.84a8.38,8.38,0,0,1,.12-1.16,1.39,1.39,0,0,1,1.44-1.18c1.65,0,3.3,0,4.94.09,3.47.29,6.94.68,10.4,1.06,1.54.17,3.07.41,4.6.63,1.09.16,1.62.57,1.7,1.62.1,1.25,0,2.52,0,3.77ZM78.75,231c1.08,0,1.57.05,2,0,2-.25,2.39-.77,2.42-2.81,0-.48.05-1,.1-1.45.15-1.54.35-3.08.46-4.62s-.49-2.4-2-2.6c-2.59-.34-5.18-.73-7.78-1a33.45,33.45,0,0,0-6.33-.5c-1.83.16-2.42.55-2.65,2.36-.28,2.31-.53,4.63-.73,6.95-.14,1.66.4,2.31,2,2.62a4.66,4.66,0,0,0,.87.07,45.94,45.94,0,0,1,6.09.47C75.28,230.74,77.31,230.86,78.75,231Z"/><line class="cls-3" x1="354.82" y1="117.42" x2="354.84" y2="117.44"/><path class="cls-3" d="M372.3,123.86c0-.26.11-.52.14-.79s.1-.35.22-.23a.32.32,0,0,1,.08.23c0,.32.07.76-.5.72Z"/><path class="cls-3" d="M332.78,129.7c-.21-.09-.48-.14-.5-.23-.05-.35.25-.38.48-.34a3.5,3.5,0,0,1,.71.29Z"/><path class="cls-3" d="M329.56,120.65a1.66,1.66,0,0,1,.1.24c.07.26.11.57-.17.66-.1,0-.32-.29-.49-.46Z"/><path class="cls-5" d="M198.53,72h0l.19.16a1.34,1.34,0,0,0-.18-.17Z"/><path class="cls-2" d="M245.62,322.87a13,13,0,0,0,1.69.5,2.68,2.68,0,0,0,2.79-1.09c1.06-1.38,2.33-2.6,3.5-3.89a2.7,2.7,0,0,0,.9-2.62,1.39,1.39,0,0,1,.66-1.71c5.34-3.92,11.16-6.7,17.92-6.64a23.4,23.4,0,0,1,18.05,7.91,9.15,9.15,0,0,1,.64.91,1.09,1.09,0,0,1-1.17.1c-2.83-1-5.67-.79-8.57-.29-4,.69-7.27,2.73-10.3,5.13a84.31,84.31,0,0,1-13.46,8.57A25.68,25.68,0,0,1,246.92,333a25.31,25.31,0,0,1-3.76-.29,29.12,29.12,0,0,1-6.41-1.78,9.86,9.86,0,0,1-2-1.16c-3.41-2.31-3.74-4.08-1.55-7.52,4.23-6.63,10.3-11,17.45-13.9a48.4,48.4,0,0,1,18-2.34,48.92,48.92,0,0,0-5.9,2,31.92,31.92,0,0,0-7.77,4.44c-.38.3-.82.51-1.2.82a2,2,0,0,1-1.83.39c-3.57-.55-7.6,3.19-7.51,6.8a2.17,2.17,0,0,0,.58,1.59.41.41,0,0,1-.1.7c-2.65,1.41-3.75,4.05-5.18,6.44a1.29,1.29,0,0,0-.18.82,1.35,1.35,0,0,0,.47.67c.08.07.33,0,.49-.08a.48.48,0,0,0,.23-.18c1.41-2,2.84-3.92,4.2-5.92A7,7,0,0,0,245.62,322.87Z"/><path class="cls-2" d="M246.15,319.87a3.39,3.39,0,0,1,.63-2.13,7.15,7.15,0,0,1,3.16-2.43,2.82,2.82,0,0,1,2.51.15c.76.42,1,1,.43,1.62-1.28,1.44-2.58,2.85-3.88,4.27-.4.44-.82.82-1.49.54a1.77,1.77,0,0,1-1.29-1.41Z"/><path class="cls-6" d="M382.22,64.73a7.25,7.25,0,0,0,.33,3.85,5.19,5.19,0,0,1-.34,4,3.19,3.19,0,0,1-4.89,1.25,4.47,4.47,0,0,1-1.68-2,1.42,1.42,0,0,0-1.87-.91c-.38.09-.74.25-1.12.31-3.78.61-6.4-1.1-7.39-4.8l-.07-.28c-.54-2-.53-2.11-2.7-2.24a4,4,0,0,1-3.6-2.5,26.85,26.85,0,0,1-1.13-2.67c-1.27-3.48-.42-5.9,2.8-7.87a11.33,11.33,0,0,0,1.71-1.55,9.47,9.47,0,0,1,7.45-2.59,8.56,8.56,0,0,1,7.72,7.47c.08.7.12,1.36.84,1.72,3.35,1.7,4,4.75,4,8.09C382.27,64.21,382.24,64.4,382.22,64.73Z"/><path class="cls-6" d="M244.36,32.85c2.31-.05,4.13.62,5.21,2.68a1.64,1.64,0,0,0,1.68.89h.29c3,.16,4.37,1.6,4.3,4.59a3.38,3.38,0,0,1-.23,1.43,2.26,2.26,0,0,0,.58,3.09,2,2,0,0,1,.48,1.91A9.05,9.05,0,0,1,254,52.78,5.34,5.34,0,0,1,251.11,54a2.64,2.64,0,0,0-2.39,1.81c-1.24,3.75-7.47,4.94-11.19,1.6a10.22,10.22,0,0,1-2.14-2.74c-1.52-2.82-1.76-5.39.78-8.93a6.19,6.19,0,0,1,.58-.65,1.64,1.64,0,0,0,.26-1.88c-1.33-3.78-.69-5.78,2.23-8.48A7,7,0,0,1,244.36,32.85Z"/><path class="cls-6" d="M153.49,11.84a5.45,5.45,0,0,1,5.05,3.4c.59,1.42.69,1.38,2.45.93a5,5,0,0,1,6.09,3.49,5.43,5.43,0,0,1-1.34,5.89,4.13,4.13,0,0,0-1.28,3c-.16,2.57-2,3.64-4.52,2.89a10.81,10.81,0,0,1-1.9-.71,3.38,3.38,0,0,0-3-.29A3.57,3.57,0,0,1,152,30a2.29,2.29,0,0,1-1.23-2.91c.22-.9,1.29-1.72.67-2.64-.44-.66-1.39-1-2.1-1.48a5.58,5.58,0,0,1-2.7-3.94A4.4,4.4,0,0,1,147.1,16a5.68,5.68,0,0,0,.56-1C148.61,12.52,150.61,11.87,153.49,11.84Z"/><path class="cls-7" d="M236.31,219.46a1.34,1.34,0,0,1,.56,0c.05,1.63.11,3.26.16,4.89a5.45,5.45,0,0,1,0,.86c0,.27-.1.57-.44.59a.66.66,0,0,1-.73-.7A14.14,14.14,0,0,1,236.31,219.46Z"/><path class="cls-6" d="M336.44,74.85a2.27,2.27,0,0,1-1.76-.76,1,1,0,0,0-1.54,0,2.8,2.8,0,0,1-.44.38,1.71,1.71,0,0,1-2.11,0,2.42,2.42,0,0,1-.25-2.92,3.44,3.44,0,0,1,1.43-.92.83.83,0,0,0,.41-1.38,1.21,1.21,0,0,1-.27-1.31,2.3,2.3,0,0,1,1.24-1.14,1.34,1.34,0,0,1,1.77.52c.53,1.18,1,2.06,2.58,2.24,1.15.14,1.87,2.09,1.58,3.36A2.61,2.61,0,0,1,336.44,74.85Z"/><path class="cls-3" d="M231.45,135.56a12.71,12.71,0,0,1-4.8-1,5.93,5.93,0,0,1-1.49-.87,1.68,1.68,0,0,1-.12-2.55,4.93,4.93,0,0,1,2.25-1.28,10.28,10.28,0,0,1,7.06.67,4.48,4.48,0,0,1,1.19.83,1.87,1.87,0,0,1-.26,3.17A5.34,5.34,0,0,1,231.45,135.56Zm-.78-1.95c-.51-.58-1-1.15-1.49-1.68-.77-.81-1.44-.83-2.5-.09-.14.1-.31.33-.28.46s.21.61.4.66C228.05,133.32,229.23,134.11,230.67,133.61Z"/><path class="cls-3" d="M230.44,123.57c3,0,5.41.64,7.35,2.46a5,5,0,0,1,.72.9.58.58,0,0,1-.15.77.65.65,0,0,1-.78.17,1.45,1.45,0,0,1-.46-.33c-2.3-2.71-5.29-2.86-8.47-2.31-.37.06-.71.33-1.08.37s-.8.08-.9-.44a.84.84,0,0,1,.54-.92A8.15,8.15,0,0,1,230.44,123.57Z"/><path class="cls-3" d="M213.35,143.18a8.07,8.07,0,0,1,4.79,2.51.47.47,0,0,1-.08.73c-.15.1-.43.21-.52.14a10.88,10.88,0,0,0-4.88-2.26.44.44,0,0,1-.22-.69,1.1,1.1,0,0,1,.39-.39A1.46,1.46,0,0,1,213.35,143.18Z"/><path class="cls-3" d="M78.75,231c-1.44-.13-3.47-.25-5.49-.52a45.94,45.94,0,0,0-6.09-.47,4.66,4.66,0,0,1-.87-.07c-1.61-.31-2.15-1-2-2.62.2-2.32.45-4.64.73-6.95.22-1.82.81-2.2,2.65-2.36a33.45,33.45,0,0,1,6.33.5c2.6.26,5.18.65,7.78,1,1.52.2,2.13,1,2,2.6s-.31,3.08-.46,4.62c0,.48-.09,1-.1,1.45,0,2-.47,2.56-2.42,2.81C80.32,231,79.83,231,78.75,231Zm-1.59-1.48v.12c1.06,0,2.12,0,3.18,0a1.2,1.2,0,0,0,1.18-1.06c.59-2.29.12-4.64.5-6.94,0-.17-.31-.54-.52-.58-.56-.12-1.15-.09-1.71-.16-2.87-.4-5.75-.77-8.62-1.23a21.41,21.41,0,0,0-3.77-.1.7.7,0,0,0-.74.72,54.91,54.91,0,0,1-.91,7.19c-.12.57.28.91.73,1.09a3.78,3.78,0,0,0,1.13.21Z"/><path class="cls-3" d="M198.11,65.51a5.35,5.35,0,0,1-4.75-4.33A3.27,3.27,0,0,1,196.1,58,5.05,5.05,0,0,1,201.83,62a2.67,2.67,0,0,1-1.29,2.7A4,4,0,0,1,198.11,65.51Z"/><path class="cls-3" d="M188,36a.66.66,0,0,1-.24.77,22.17,22.17,0,0,1-2.12,1.51c-4.19,2.43-8.21,5.12-12.22,7.82a7.29,7.29,0,0,1-1,.62.56.56,0,0,1-.77-.14.7.7,0,0,1,.06-1c1.4-1,2.81-2.05,4.27-3,3.32-2.16,6.67-4.28,10-6.4a5.83,5.83,0,0,1,1.31-.55C187.68,35.49,187.89,35.71,188,36Z"/><path class="cls-3" d="M192.39,65.25c.17.25.55.52.09.77-.21.11-.4-.16-.46-.42Q192.19,65.42,192.39,65.25Z"/><path class="cls-3" d="M155.49,50.32a8.1,8.1,0,0,1,4.6,5.28c-.16.65-.3,1.3-.5,1.94-.8,2.57-4.44,3.61-6.72,2a7,7,0,0,1-2.4-2.8,4.47,4.47,0,0,1,3.59-6.4C154.53,50.33,155,50.34,155.49,50.32Z"/><path class="cls-3" d="M313.56,62.74a13.17,13.17,0,0,1,0,3.76c-.06.28,0,.59-.12.86-.33,1.16-.83,2.29-2.16,2.46a2.47,2.47,0,0,1-2.51-1.62c-.18-.34-.39-.67-.57-1-1.45-2.85-1.55-5.5.93-7.95a23.55,23.55,0,0,0,2.21-3,.85.85,0,0,1,1.41.23,19.92,19.92,0,0,1,.61,2.83C313.46,60.41,313.48,61.58,313.56,62.74Z"/><path class="cls-3" d="M295.31,37.31a2.28,2.28,0,0,1-1.3,2.37,1.91,1.91,0,0,1-2.13-.47,5.3,5.3,0,0,1-1.81-3.49,2.37,2.37,0,0,1,1-2.23,2.28,2.28,0,0,1,2.62.54A5.26,5.26,0,0,1,295.31,37.31Z"/><path class="cls-2" d="M77.16,229.51l-9.54-.77a3.78,3.78,0,0,1-1.13-.21c-.45-.19-.85-.52-.73-1.09a54.91,54.91,0,0,0,.91-7.19.7.7,0,0,1,.74-.72,21.41,21.41,0,0,1,3.77.1c2.86.46,5.74.84,8.62,1.23.57.08,1.16,0,1.71.16.22,0,.55.41.52.58-.39,2.3.08,4.66-.5,6.94a1.2,1.2,0,0,1-1.18,1.06c-1.06,0-2.12,0-3.18,0Z"/><path class="cls-2" d="M236.87,219.5a10.26,10.26,0,0,0,2.58-6c.12-1.55.24-3.09.32-4.64A74.68,74.68,0,0,1,242,192.74c.11-.42.47-.86-.12-1.28a5.7,5.7,0,0,1-1.28.59,5.62,5.62,0,0,0-4,3.43,19.38,19.38,0,0,0-.8,1.87,46.49,46.49,0,0,0-1.78,6.71,20,20,0,0,0,1.6,13.84c.27.51.49,1,.74,1.57a14.14,14.14,0,0,0-.47,5.68.66.66,0,0,0,.73.7c.35,0,.41-.32.44-.59a5.45,5.45,0,0,0,0-.86C237,222.76,236.92,221.13,236.87,219.5Z"/><path class="cls-2" d="M218.17,187.06a10.86,10.86,0,0,0-4.5,4.32c-3.16,5-5,10.47-4.62,16.52.12,1.76.23,3.57,1.51,4.9a2.53,2.53,0,0,1,.62,2.63,9.24,9.24,0,0,0-.25,3.74.56.56,0,0,0,.4.32c.13,0,.41-.11.42-.2.16-1.25.31-2.5.41-3.76a2.64,2.64,0,0,1,.89-2.06,3.63,3.63,0,0,0,1.29-2.52c.14-1.06.39-2.1.54-3.15a86.84,86.84,0,0,1,1.61-10.33,25,25,0,0,1,1.92-4.83c.47-.94,1.71-1.65,1.52-2.7S218.86,188.15,218.17,187.06Z"/></svg>