<svg id="Calque_1" data-name="Calque 1" xmlns="http://www.w3.org/2000/svg" viewBox="0 0 435.39 372.25"><defs><style>.cls-1{fill:#433f40;}.cls-2{fill:#9e8ef5;}.cls-3{fill:#e9e6fe;}.cls-4{fill:#a2d2fd;}.cls-5{fill:#e9e9ea;}.cls-6{fill:#fff;}.cls-7{fill:#fe6e6e;}</style></defs><title>Nosgestesclimat-illu x 12 SVG</title><path class="cls-1" d="M205.09,337.2c-1.54.41-3,.83-4.51,1.21a73.81,73.81,0,0,1-15.21,1.71,188.15,188.15,0,0,1-24.28-.92,28.71,28.71,0,0,0-3.18-.13c-1.72,0-1.85.05-2.28,1.84-.24,1-1.39,1.35-1.28,2.49a11.13,11.13,0,0,1-.2,2.58c-.34,2.28-1.12,4.48-1.09,6.82a1.39,1.39,0,0,1-.11.56c-.2.44-.41.91-1,1s-.8-.48-.9-.92a6.68,6.68,0,0,1,.14-3.14,15.28,15.28,0,0,0,.78-4.79c-.58-.26-.91.16-1.32.34a37,37,0,0,1-12.55,3.08,55.11,55.11,0,0,1-10.11,0,15.23,15.23,0,0,0-2.6,0,20.4,20.4,0,0,1-6-.5,39.77,39.77,0,0,0-4-.49A60.41,60.41,0,0,1,95.24,342c-3.57-1.84-7.34-3.3-10.83-5.5a8.22,8.22,0,0,0-.85,2.86c-.4,2.08-.79,4.16-1.24,6.23a7.22,7.22,0,0,1-1.16,2.93.62.62,0,0,1-.52.1.69.69,0,0,1-.42-.32,2.54,2.54,0,0,1-.09-1.7c.65-3.2,1.38-6.39,2-9.6,1.08-6.06,2.42-12.07,3.3-18.17.64-4.38,1.54-8.73,2.42-13.08,1.37-6.8,2.87-13.57,4.23-20.37.47-2.36.67-4.77,1.08-7.15a167,167,0,0,1,4-17.75c.74-2.59,1.37-5.22,2.07-7.83a7.55,7.55,0,0,1,2.09-4,2.92,2.92,0,0,0,.86-2.08c.18-1.92.32-3.84.55-5.75a4.19,4.19,0,0,0-.69-3,17.61,17.61,0,0,1-2.78-9.28,57.49,57.49,0,0,1,.45-9.52,91,91,0,0,0,.7-13.27c-.08-3.18,0-6.37-.08-9.55-.13-3.66-.4-7.31-.61-11-.14-2.44-1.13-4.67-1.74-7-.46-1.79-.68-3.6-1-5.4q-.54-3.42-.92-6.87-.44-4-.73-8.06a54.72,54.72,0,0,0-2.42-12.74c-.43-1.35-.52-1.36-2.08-1.19a161.57,161.57,0,0,0-16.77,3c-2.71.59-5.4,1.4-8.25,1.27A7,7,0,0,1,60,145.4a23,23,0,0,1-2.45-4.56c-.53-1.19-.74-1.28-2-1-6.58,1.5-13.2,2.81-19.89,3.66a71.08,71.08,0,0,1-14.4.77,21.64,21.64,0,0,1-10.68-4,5.87,5.87,0,0,1-1.95-2.46c-2.3-4.84-2.79-9.92-2.45-15.21.32-5.07,1.85-9.82,3.4-14.58,2.1-6.5,4.64-12.84,7.06-19.22a130.41,130.41,0,0,0,4.19-13.51,14.77,14.77,0,0,0,.23-2.59c.13-1.73.13-3.46.42-5.19a6.6,6.6,0,0,1,2-3.77,17.52,17.52,0,0,1,2-1.7c3.67-2.65,7.38-5.25,11-7.91,1.25-.9,2.42-1.91,3.6-2.9a6.49,6.49,0,0,1,3.59-1.73,9,9,0,0,0,4.21-1.7,10.56,10.56,0,0,1,2-1.07A3,3,0,0,1,53,47a3.21,3.21,0,0,0,2.66.57A4.3,4.3,0,0,1,60.16,50c1.19,2.21,2.41,4.39,3.62,6.59a4.83,4.83,0,0,0,.54,1,7.63,7.63,0,0,1,1.81,4.48,1.92,1.92,0,0,0,1.23,1.74,5.39,5.39,0,0,1,1,.61,4.78,4.78,0,0,1,1,7.1,6.16,6.16,0,0,1-5.21,2.6,9.61,9.61,0,0,1-2.59-.16,7.47,7.47,0,0,0-4.25.4,24.51,24.51,0,0,0-2.68,1.06,14.88,14.88,0,0,1-7.91,1.18c-.76-.1-1.56,0-2.31-.16a3.59,3.59,0,0,0-4,1.74,23.51,23.51,0,0,0-3.33,7A56.79,56.79,0,0,0,36,106.08a16.62,16.62,0,0,0,.89,5,25.42,25.42,0,0,0,5.76-1.2c4-1.21,7.88-2.52,11.83-3.75q3.3-1,6.64-1.9a61.18,61.18,0,0,0,13.32-5.47,115.83,115.83,0,0,1,15.82-7,40.5,40.5,0,0,1,16.21-2.21c5.87.35,11.72,1,17.61.91a2.77,2.77,0,0,0,2.48-1c1.64-2,4-2.87,6.46-3.59,2.21-.65,4.43-1.3,6.63-2,.44-.13.85-.35,1.68-.71a23.65,23.65,0,0,1-2.88-.38c-2.8-.76-4.85-2.31-5.25-5.42a1.7,1.7,0,0,0-.51-1.3,3.2,3.2,0,0,1-1.52-2.65,5.91,5.91,0,0,1,1.33-3.74,27.73,27.73,0,0,0,1.68-2.34,2.85,2.85,0,0,0,0-3.18,13.1,13.1,0,0,1-.8-10.1,4.21,4.21,0,0,1,2.21-2.89c.66-.29.73-.77.85-1.35a41.83,41.83,0,0,0,.52-7.79A21.5,21.5,0,0,1,139,33.07a14.76,14.76,0,0,1,8.81-7.47,11.14,11.14,0,0,1,5.12-.7,2.93,2.93,0,0,0,2-.28,7.53,7.53,0,0,1,6.7-.35c2.45.9,5,1.54,7.43,2.35,4.41,1.44,7.28,4.58,9.09,8.73a21.67,21.67,0,0,1,1.74,7.85,60.73,60.73,0,0,1-.47,10.11c-.16,1.25-.35,2.49,1,3.36a1.51,1.51,0,0,1,.51,1c.4,3.64.34,7.18-2.74,9.83a1.74,1.74,0,0,0-.57,2.05A24.69,24.69,0,0,0,179.06,73a7.22,7.22,0,0,1,.82,2.44c.29,2.15-.15,3.14-2.11,4.2a2.06,2.06,0,0,0-1.17,1.19c-.55,2-2.22,2.54-3.85,3.15-.7.26-1.53.12-2.12.63.05.78.63,1,1.08,1.35a45.26,45.26,0,0,1,10.63,9.7,2.92,2.92,0,0,0,2.53,1.1,85.55,85.55,0,0,1,10.07,1,40.94,40.94,0,0,1,9.13,2.61c4.81,1.82,9.06,4.66,13.31,7.49,2.56,1.71,5.07,3.52,7.71,5.09,2.06,1.23,4.29,2.19,6.47,3.2a74.71,74.71,0,0,0,7.17,3,7,7,0,0,0,6.58-.66,25.46,25.46,0,0,1,3-1.71c1.66-.79,3.34-1.53,5.21-.44.61.35,2.05-.64,2.19-1.4,0-.28-.2-.46-.51-.54a35,35,0,0,0-8.27-1.27,15.69,15.69,0,0,1-8.18-2.56,12.2,12.2,0,0,1-5.27-6.3,7.67,7.67,0,0,1-.11-5.36,15.21,15.21,0,0,0,1.12-4.43,5.08,5.08,0,0,1,1.39-3.12c.58-.64,1.12-1.33,1.65-2a2.14,2.14,0,0,0,.49-1.87,8.71,8.71,0,0,1,1.34-6.63,30.23,30.23,0,0,0,4.11-12.22c.35-2.38.81-4.74,1.19-7.11a25.62,25.62,0,0,1,2-6.58c1.78-4,4.57-6.37,8.92-6.78A3.16,3.16,0,0,0,258,46.89a9.87,9.87,0,0,1,6.24-3.33,6.8,6.8,0,0,1,6,1.51,2.43,2.43,0,0,0,2.08.69,9.55,9.55,0,0,1,9.27,4.13,3.46,3.46,0,0,0,1.53,1.22,10.49,10.49,0,0,1,6.46,7.64c.56,2.43,1.19,4.84,1.67,7.3a17.34,17.34,0,0,0,6.86,11,34.26,34.26,0,0,0,2.8,2.06c2.7,1.59,3.72,4.1,3.79,7a3.87,3.87,0,0,0,.36,1.89c3,5.66,1.09,10.55-2.82,14a9.06,9.06,0,0,1-6.36,2.25,2.73,2.73,0,0,0-2.41,1.19,9.14,9.14,0,0,1-5,3.66c-.23.05-.41.35-.68.59a10.74,10.74,0,0,0,5.53,3,6.82,6.82,0,0,0,3.69-.46c3.46-1.19,6.89-2.45,10.34-3.67a1.49,1.49,0,0,0,1.1-1.16c.72-3.1,3.16-4.29,5.91-4.74,2.35-.39,4.8-.71,7.06.6.52-.76.94-1.4,1.37-2a7.51,7.51,0,0,1,2.32-2.14c2.45-1.48,4.34-1.31,6.53.64.39.35.72.6,1.22.21a2.28,2.28,0,0,1,.51-.27c2.18-.95,4.28-1.27,6,.89,3-2.12,4.18-3,8.51-.49a8.34,8.34,0,0,1,.75-1.13c1.79-2,6.18-1.18,6.89,1.64a6.28,6.28,0,0,0,.29.82.74.74,0,0,0,.89.54c3.21-.66,6.41-1.38,9.62-2,4.64-.89,9.2-2.13,13.92-2.62,2.87-.3,5.72-.78,8.58-1.12a7.14,7.14,0,0,0,6.14-4.6,18.89,18.89,0,0,0,1.39-6.17,80.75,80.75,0,0,0-.43-14.72c-.34-3-.51-5.93-1-8.86-.47-2.65-.81-5.33-1.27-8-.23-1.33-.56-2.64-.91-3.94-.84-3.06-1.72-6.11-2.59-9.16a40.63,40.63,0,0,0-2.26-5.32,2.61,2.61,0,0,0-3.25-1.65c-1.13.2-2.3.19-3.45.32a17.74,17.74,0,0,1-5.45-.49,7.5,7.5,0,0,1-3.41-1.49c-2.15-1.8-4.58-1.77-7.12-1.14-.93.23-1.88.4-2.82.61-3.56.79-8.61-2.6-7.92-7.6a4.64,4.64,0,0,0-.21-2.23c-.87-2.49,0-4.52,1.5-6.44a15.72,15.72,0,0,1,3.86-3.47,17.19,17.19,0,0,0,5.07-5.06,5.56,5.56,0,0,1,5.7-2.67,10.08,10.08,0,0,1,3.24,1.17,32.85,32.85,0,0,1,3.93,2.42A59,59,0,0,0,393.3,16a13.93,13.93,0,0,1,7.44,6,93.51,93.51,0,0,1,8.85,18.13q4.63,12,8.29,24.33A90.61,90.61,0,0,1,421,80.32c.33,3,.8,5.92,1.24,8.87A41.71,41.71,0,0,1,420,110.53a19.15,19.15,0,0,1-7.14,8.89c-3.27,2.29-7,3.69-10.64,5.13a72.83,72.83,0,0,1-9.08,2.8c-4.21,1.05-8.33,2.43-12.59,3.25l-11.35,2.18c-1.61.31-1.58.32-1.86,2-.34,2.09-.7,4.18-1.11,6.25a15.21,15.21,0,0,1-.71,2.2,4.64,4.64,0,0,1-4.5,3.34,97.29,97.29,0,0,0-18.1,3.55,4.13,4.13,0,0,0-2.61,2.09,21.65,21.65,0,0,0-2.27,6.83c-1,5.29-1.8,10.65-2.92,15.92-1.34,6.32-2.26,12.72-3.33,19.08-.5,2.94-.8,5.92-1.21,8.87-.45,3.25-1,6.48-1.38,9.74q-.65,5.45-1.08,10.93c-.31,4-.52,8.08-.73,12.13-.13,2.6-.06,5.21-.29,7.79-.19,2.21.81,3.9,2,5.47a18.44,18.44,0,0,1,2.18,3.36c2.95,6.12,4.51,12.69,6.49,19.12,2.07,6.71,4.1,13.44,6,20.19,1.83,6.39,3.3,12.86,4.58,19.39.89,4.53,1.78,9.07,2.46,13.63a41.15,41.15,0,0,1,.54,10.92c-.17,1.43-.1,2.89-.19,4.34a2.22,2.22,0,0,1-.33,1.06,1.17,1.17,0,0,1-.75.31.51.51,0,0,1-.58-.51c0-2,0-4,.14-6.07a6.42,6.42,0,0,0,0-2.57c-1.12-.18-1.73.75-2.41,1.29a74.36,74.36,0,0,1-17.54,10,93.36,93.36,0,0,1-12.16,3.68,83.75,83.75,0,0,1-23.2,2.41,23.32,23.32,0,0,1-4.84-.78,3.54,3.54,0,0,1-2.8-2.94,76,76,0,0,1-1.58-9.68c-.33-3.46-.74-6.9-1.17-10.35a12.41,12.41,0,0,0-.68-2.5c-.07-.19-.45-.35-.7-.38s-.64,0-.68.37c-.15,1.42-.72,2.77-.6,4.25q.58,7.06,1.07,14.13c.06.82.82,1.81,0,2.43-.53.4-1.49.2-2.24.33-6,1-12.14.77-18.18.36a74.22,74.22,0,0,1-17-3.11c-3.59-1.12-7.12-2.34-10.58-3.79-2.32-1-4.2-2.67-6.27-4.05-.31-.21-.55-.54-1-.52-.53.43-.32,1-.32,1.58,0,4.54-.06,9.07-.09,13.61,0,.58,0,1.16-.07,1.73a.74.74,0,0,1-.77.7.9.9,0,0,1-.81-.72,11.3,11.3,0,0,1-.13-1.73c0-5.5-.09-11,.12-16.49.16-4.24.72-8.46,1.13-12.69.33-3.46.72-6.91,1-10.37.6-6.43,1.38-12.84,2.06-19.27a175.46,175.46,0,0,1,3.58-20.78c1-4.31,1.49-8.73,3-12.92a10.32,10.32,0,0,0,.43-4c-.14-3.65-.07-7.32-.12-11a86.71,86.71,0,0,0-.75-12.4,27.38,27.38,0,0,1-.14-3.18c0-.3-.1-.59-.44-.6s-.46.24-.57.51a58.06,58.06,0,0,1-3,6.88,14.31,14.31,0,0,1-8.73,6.66c-3,.93-6.1.69-9.19.47-4-.29-8.08-.53-12.12-.8a1.13,1.13,0,0,0-1.18.4,41.68,41.68,0,0,1,1.31,8.05c.1,1.35.28,2.69.34,4a32.63,32.63,0,0,0,.75,5.71,64.56,64.56,0,0,1,.89,8.91c.35,4.13.65,8.27,1,12.4.05.67.16,1.34.18,2,.25,8.19.39,16.39.78,24.58.19,3.94.42,7.89.86,11.82s.64,7.88.73,11.83c.15,6.08.94,12.11,1.23,18.17a9.47,9.47,0,0,1-.3,4,.84.84,0,0,1-.67.43.87.87,0,0,1-.62-.54c-.23-1.91-.44-3.82-.59-5.74-.18-2.3,0-4.64-.6-6.91C205.4,337.58,205.31,337.51,205.09,337.2Zm-1.53-165.62c.55.08.47-.31.47-.64a11.8,11.8,0,0,0,.58-1.32,32.4,32.4,0,0,1,4.61-9.9,6.47,6.47,0,0,0,1.26-2.57c.9-4.63,2-9.22,2.74-13.87a42.6,42.6,0,0,1,2.39-8.61,17.29,17.29,0,0,1,11-10.31c2.72-.94,5.61-1.4,8.42-2.08,1.27-.31,2.62-.43,3.71-1.46-.44-.18-.79-.36-1.15-.47A70,70,0,0,1,222,113c-3-1.89-6-3.85-8.94-5.87a47.49,47.49,0,0,0-16.56-7.26,70.06,70.06,0,0,0-12.69-1.55,19.89,19.89,0,0,0,0,2.95c1,6.36.31,12.69-.19,19a14.72,14.72,0,0,1-1.79,5.17,3.85,3.85,0,0,1-.92,1.09,1.37,1.37,0,0,1-2.06,0,18.92,18.92,0,0,1-1.41-1.82c-2.26-3-2.53-2.87-5.66-1.17-.67.37-1.24.91-1.88,1.34a.46.46,0,0,1-.72-.15.55.55,0,0,1,.19-.75c.93-.69,1.86-1.37,2.81-2,2.19-1.49,3.49-1.34,5.28.65.64.71,1.13,1.56,1.71,2.33a.77.77,0,0,0,1.39,0,13.85,13.85,0,0,0,1.55-4.63,60.82,60.82,0,0,0,.8-8.63,68.63,68.63,0,0,0-.64-12.12,7.82,7.82,0,0,0-1.72-3.92,43.1,43.1,0,0,0-9.24-8.26c-.31-.2-.62-.47-1,.1a18,18,0,0,0,.94,1.71,24.71,24.71,0,0,0,2.09,2.77,13.82,13.82,0,0,1,3.46,9.56A29.09,29.09,0,0,1,174.8,113a18.93,18.93,0,0,1-6.17,8.54c-.46.34-.86.78-1.33,1.12a5.38,5.38,0,0,0-2.09,3.66,11.2,11.2,0,0,0-.15,3.73c.24,1.52.22,3.08.32,4.61.26,3.61-1.63,6.23-4,8.62a.89.89,0,0,1-1.29,0,7.38,7.38,0,0,1-1-1,20,20,0,0,1-4-7,3.24,3.24,0,0,0-2-2.22,15.85,15.85,0,0,1-4.07-2.7,10,10,0,0,1-3.1-4.44c-.72-2.19-1.3-4.42-2-6.62-1.8-5.69-3.72-11.34-5.52-17A77.48,77.48,0,0,1,135.84,92c-.14-.83-.51-1.81,0-2.53.33-.46,1.18-.53,1.75-.87.91-.54,1.79-1.14,2.65-1.77a5.27,5.27,0,0,0,1-1,.51.51,0,0,0,0-.49.74.74,0,0,0-.5-.16,1.3,1.3,0,0,0-.56.11,53.9,53.9,0,0,1-7.94,2.59,16.62,16.62,0,0,0-3.62,1.77A3,3,0,0,0,127,91.9c-.07.48-.08,1-.12,1.44a61.89,61.89,0,0,0,.17,9.81c.41,5.58.76,11.16,1.15,16.74a5.71,5.71,0,0,0,.75,3.23c.65,0,.85-.49,1.13-.88,1-1.4,2.07-2.79,3.06-4.21a4.82,4.82,0,0,1,2-1.63c1.69-.8,2.51-.71,3.9.63,2.25,2.17,3.68,4.92,5.31,7.54a.86.86,0,0,1-.14.79c-.33.37-.7.07-1-.15a2.57,2.57,0,0,1-.53-.66c-.64-1-1.23-2-1.9-2.9a40.68,40.68,0,0,0-2.65-3.42,1.81,1.81,0,0,0-2.8-.23,6.46,6.46,0,0,0-1.17,1.25c-1.29,1.68-2.52,3.41-3.83,5.07-.88,1.12-2.1.93-2.77-.33a6.69,6.69,0,0,1-.59-2.81q-.33-4.76-.67-9.51c-.35-4.9-.73-9.8-1-14.71-.09-1.44,0-2.89.05-4.34,0-.77-.23-1-1-1a110.15,110.15,0,0,1-12.43-.24c-2.21-.18-4.42-.31-6.64-.4a37.72,37.72,0,0,0-12.29,1.35,91.34,91.34,0,0,0-14.17,5.74c-4,1.93-7.81,4.13-11.92,5.79a2.54,2.54,0,0,0-.62.52c.07.23.07.46.18.58a29.87,29.87,0,0,1,6.34,12.8c1.57,6.09,1.37,12.23.73,18.39a20.87,20.87,0,0,1-3.14,9.21c-.14.21-.06.38.39.53,2.39-.54,5-1.07,7.63-1.73A121,121,0,0,1,91.78,142,1.69,1.69,0,0,1,94,143.35c.61,1.72,1.17,3.46,1.61,5.23a87.63,87.63,0,0,1,1.92,14.61,22.29,22.29,0,0,0,.72,4.85,63.28,63.28,0,0,0,1.28,9.71c1.74,7.59,5.81,13.94,10.52,20,.39.66.76,1.34,1.18,2,1.37,2.09,2.83,4.13,4.13,6.27a59.37,59.37,0,0,0,6.62,9.44,22.31,22.31,0,0,1,1.75,2.31,2.59,2.59,0,0,1,.44,1,.92.92,0,0,1-.27.76.79.79,0,0,1-.77,0c-1.94-2.39-4-4.72-5.73-7.24-2.64-3.79-5.05-7.74-7.64-11.57-1.39-2.06-2.5-4.34-4.35-6.08-.37-.66-.74-1.33-1.12-2a22.32,22.32,0,0,0-1.19-2,4.51,4.51,0,0,0-1.55-1.72c.26,2.15-.06,4.09.61,5.95l-.18,1.93h-.16l.15,0c0,3.07.06,6.13,0,9.2,0,2.59-.06,5.18-.1,7.76-.36.18-.32.43-.14.72a42.94,42.94,0,0,1-.39,4.61,37.54,37.54,0,0,0-.49,5.76,26.61,26.61,0,0,0,.67,7.76c1.14,4.3,3.31,7.57,8,8.44a4.25,4.25,0,0,1,.57.11c5.24,1.73,10.76,2.19,16.11,3.44,5.19,1.21,10.54,1.28,15.82,1.52,4.81.22,9.6.94,14.44.54,2.4-.19,4.82-.09,7.22-.25,3.85-.26,7.7-.53,11.53-1,4.41-.51,8.73-1.56,13.06-2.49a38.53,38.53,0,0,0,8.31-3.23,2.48,2.48,0,0,0,1.77-2.37,16.81,16.81,0,0,1,.49-1.93,83.07,83.07,0,0,0,.59-13c-.22-6.08-.16-12.16-.12-18.23,0-3.18.09-6.36.14-9.54.47-3.31.93-6.63,1.43-9.94.59-3.9,1.71-7.67,2.63-11.5.13-.54.46-1.08,0-1.64Zm25.7,21c.56-.77.2-1.4,0-2-1.32-5.22-2.58-10.46-4-15.67-1-3.73-1.49-7.55-2.26-11.32a64.77,64.77,0,0,1-1.46-10,3.94,3.94,0,0,1,.11-1.11.59.59,0,0,1,.44-.3.53.53,0,0,1,.45.23,7,7,0,0,1,.32,1.4c.44,4.13,1.41,8.16,2.1,12.24,1,6.19,2.74,12.21,4.35,18.26l1.12,4.19a19.29,19.29,0,0,0,1.27,4.43c.76,1.37.48,2.79.88,4.12.61,2,.9,4.13,1.32,6.2a186.34,186.34,0,0,1,2.73,18.87c.23,2.3.58,4.58.78,6.88.27,3.07.57,6.15.64,9.23.1,4.14,0,8.28,0,12.42,0,.87.12,1.74.1,2.6a3.28,3.28,0,0,0,1.76,3.1c1.67,1,3.36,1.89,5.11,2.68a48.47,48.47,0,0,0,12.78,3.44,82.32,82.32,0,0,0,24.48-.22,42.31,42.31,0,0,0,5.67-1.06c2.86-.82,5.78-1.4,8.65-2.19a124.29,124.29,0,0,0,13.51-4.14c1.34-.54,2.69-1.05,4-1.67,3.22-1.53,6.43-3.08,9-5.7a3.19,3.19,0,0,0,1-3.32c-1-4.51-2.06-9-3.37-13.44-.44-1.48-.82-3-1.18-4.48a4.89,4.89,0,0,1-.15-2.57c.07-.23.17-.37.38-.32a1,1,0,0,1,.5.19,1.09,1.09,0,0,1,.26.5c1.19,4.26,2.36,8.54,3.57,12.79a4.16,4.16,0,0,0,1.1,2.51c.07-1.41.1-2.62.18-3.84.34-5,.68-10,1.07-15,.19-2.5.56-5,.74-7.48.23-3.18,1-6.28,1.45-9.43.82-5.91,1.65-11.83,2.59-17.72.59-3.71,1.39-7.38,2.09-11.07,1-5.11,1.91-10.23,2.91-15.33a26.69,26.69,0,0,1,2.39-7.39,7,7,0,0,1,4.78-3.8c5.14-1.24,10.23-2.7,15.54-3.09a7.29,7.29,0,0,0,1.33-.34c-1.05-4.4-1.79-8.74-1.17-13.21.08-.57,0-1.16.1-1.73.27-2.69.42-5.39.87-8,1-6,2.22-11.92,3.32-17.89.09-.52.49-1.11-.16-1.64l-6.49,1.07c-.19,0-.38,0-.57.08A2,2,0,0,0,354.4,105a6.59,6.59,0,0,1-1.59,3,4.46,4.46,0,0,1-4.45,1.44c-.51-.1-.87-.82-1.55-.35a16.76,16.76,0,0,1-1.74,4.54,5.66,5.66,0,0,1-3.93,2.68c-1.39.28-2.37-.53-3.28-1.45-.11-.11-.34-.11-.68-.21a9.84,9.84,0,0,1-2,3,4.09,4.09,0,0,1-5.9-.1c-.3-.3-.4-.84-.89-.87-.75.83-1.43,1.65-2.17,2.4-1.76,1.79-6.08,1.48-6.53-2-.13-1-.31-1.9-.49-2.84-.14-.74,0-1.56-.54-2.19-1.35.07-2.69.22-4,.17a3.08,3.08,0,0,0-2.51,1.11c-2.91,3.08-5.95,6-8.55,9.41-1.35,1.76-2.75,3.48-4.15,5.2a4.42,4.42,0,0,1-.86.73c-.29.21-.55,0-.78-.16a.58.58,0,0,1-.21-.76,12.19,12.19,0,0,1,1.16-1.64c2.26-2.63,4.52-5.26,6.82-7.86,1.9-2.15,3.84-4.26,5.73-6.35-.22-.74-1-.71-1.34-1.13a2.17,2.17,0,0,0-2.62-.53c-1.25.49-2.51,1-3.79,1.36a1.86,1.86,0,0,0-1.41,1.59,16.92,16.92,0,0,1-2.59,6.35,34.55,34.55,0,0,1-4.85,5.74c-6,5.35-13,9-21,10.1a27.16,27.16,0,0,1-10.63-.34,25.2,25.2,0,0,1-16.84-13.85c-.37-.76-.6-.89-1.31-.56-4.92,2.32-10.19,3.4-15.48,4.46a16.1,16.1,0,0,0-10.51,6.56,19.59,19.59,0,0,0-2.55,5.48c-1.15,3.68-1.73,7.49-2.58,11.24-1.1,4.9-1.86,9.84-2.7,14.78a107.69,107.69,0,0,1-2.92,14.13,1.7,1.7,0,0,0,.1,1.4,18.15,18.15,0,0,0,4,5.27,50.18,50.18,0,0,0,8.53,5.41A41.13,41.13,0,0,0,229.26,192.61ZM104.53,241.13a16.39,16.39,0,0,0-.69,4.93c-.12,1.49,0,3.17-1.86,3.88-.29.11-.48.59-.62.93a19.22,19.22,0,0,0-.88,2.45c-1,4-2.08,8-3,12-1.28,5.43-2.23,10.92-3.12,16.43-1.15,7.13-2.72,14.19-4.11,21.28-.67,3.4-1.38,6.78-2,10.19-1.08,6.17-2,12.37-3.27,18.5-.51,2.38-.4,2,1.51,3.57.29.24.7.33,1,.55,2.33,1.6,5.06,2.37,7.52,3.67a52.68,52.68,0,0,0,15.19,5.33A111.68,111.68,0,0,0,127,347c5.8.17,11.57.43,17.26-1,2.42-.61,4.86-1.11,6.9-2.74,1.65-1.32,2.73-2.64,2.61-5-.17-3.26.49-6.52.44-9.81-.06-4.24,0-8.49.06-12.73,0-1.64.16-3.28.28-4.91,0-.42.06-.93.84-1.12.74,3,.28,6.14.47,9.18s0,6.37.12,9.55-.3,6.1-.14,9.24c1.44,0,2.7-.09,3.94,0,7.89.64,15.78,1.06,23.7.94a84.84,84.84,0,0,0,18.36-2.06,8.1,8.1,0,0,0,3.35-1.26c.28-5-.57-9.77-.55-14.59,0-2.11-.46-4.22-.57-6.33-.25-4.53-.45-9.06-.61-13.59-.11-3,0-6-.19-9-.34-6.35-.25-12.72-.91-19.07-.5-4.79-.61-9.61-1.2-14.4-.2-1.62-.53-3.23-.7-4.86-.39-3.64-.69-7.29-1.1-10.92-.22-2-.4-2.68-2.32-1.24a10.62,10.62,0,0,1-2.09,1l-5.31,2.36c.32,1.42.71,2.72.11,4a2.2,2.2,0,0,0,.2,1.68c.68,1.88,0,3.58-.73,5.27a.52.52,0,0,1-.46.2.63.63,0,0,1-.37-.38,3.16,3.16,0,0,1,.23-2c.24-.64.59-1.36.32-2a9.81,9.81,0,0,1-.4-4.54,1.77,1.77,0,0,0-2.23-1.92c-2.79.49-5.62.84-8.37,1.61.56,1.91.95,3.68.55,4.65a8.09,8.09,0,0,0-.4,3.67,2.72,2.72,0,0,1-1.56,2.57,1,1,0,0,1-.79,0,.63.63,0,0,1-.23-1c.5-.82,1.15-1.61.72-2.65a4,4,0,0,1,.16-2.78,4,4,0,0,0,0-3.09c-.53-1-.51-1.21-1.67-1.13-2.6.19-5.19.43-7.78.67-.17,0-.32.19-.54.33,0,1.87.29,3.82-1,5.51a2.32,2.32,0,0,0-.18,1.4c.1,1.74-.9,2.89-2.07,3.94a1.2,1.2,0,0,1-1.08.26c-.3-.06-.73-.63-.57-.86a16.58,16.58,0,0,1,1-1.37,1.71,1.71,0,0,0,.57-1.29,6.91,6.91,0,0,1,1.05-4.37,3.27,3.27,0,0,0,.3-1.11c.21-1.53-.34-2.15-1.91-2.13-2,0-4.05.07-6.08.19a63.44,63.44,0,0,1-7.23,0,2.53,2.53,0,0,0-2.77,2,2.47,2.47,0,0,0,.12,1.69,4.59,4.59,0,0,1-.47,4.15,2.9,2.9,0,0,0-.49,2.46c.15.52-.25.83-.77.74a1.53,1.53,0,0,1-1.28-1.89,13.21,13.21,0,0,1,1-2.41,2.35,2.35,0,0,0,.41-1.63c-.13-.56-.34-1.1-.47-1.66a4.32,4.32,0,0,1,0-2c.11-.51.75-.93.19-1.67-3.16-.24-6.41-.5-9.66-.73a1.24,1.24,0,0,0-1.15.72,2.41,2.41,0,0,0-.39,1.92,5.88,5.88,0,0,1-.06,3.41,5.06,5.06,0,0,0,0,2.3,9.22,9.22,0,0,1,0,1.72c0,.25-.08.58-.48.61a.68.68,0,0,1-.73-.31,6,6,0,0,1-.78-4.16,8.78,8.78,0,0,0,.14-3.44,5.4,5.4,0,0,1,.38-2.65,3.52,3.52,0,0,0-1.8-.59q-3.43-.52-6.85-1.12c-1.2-.21-1.5-.09-2.1.9a2.92,2.92,0,0,0-.38,2.48,2.55,2.55,0,0,1,.2,1.39,7.44,7.44,0,0,0,0,4c.1.55.22,1.16-.41,1.54-.42.25-1.15-.31-1.36-1.14a8,8,0,0,1-.39-3.14,5.18,5.18,0,0,0,.16-1.72,6.26,6.26,0,0,1,.9-5c-.75-.14-1.32-.24-1.88-.35-1.7-.35-3.38-.75-5.09-1.06-1.07-.19-1.36,0-1.74,1a3.3,3.3,0,0,0-.36,1.38c.2,1.88-.7,3.58-.83,5.4,0,.56-.14,1.17-.81,1.38-.47.15-1-.6-1.13-1.44a5,5,0,0,1,.3-2,5.66,5.66,0,0,0,.42-2,8.79,8.79,0,0,1,.86-4.48C108.08,241.73,106.22,241.83,104.53,241.13ZM361,132.6a2.37,2.37,0,0,0,1.83,0c1.59-.36,3.17-.8,4.77-1.13,5.94-1.24,11.93-2.23,17.8-3.74a151.54,151.54,0,0,0,16.86-5.06,61.83,61.83,0,0,0,7.41-3.24,18.39,18.39,0,0,0,8.68-9.73,39.6,39.6,0,0,0,2.09-20.49c-.54-3.43-.92-6.88-1.44-10.31-.43-2.85-.78-5.71-1.4-8.54a175.92,175.92,0,0,0-5.16-17.14c-1.59-4.84-3.29-9.66-5.16-14.4-1.79-4.56-3.51-9.18-6.24-13.32a30.79,30.79,0,0,1-1.84-2.94,10.19,10.19,0,0,0-6.07-5,71,71,0,0,1-9.76-4.32,102.83,102.83,0,0,1-9.53-6,11.49,11.49,0,0,0-2.54-1.35,4.5,4.5,0,0,0-5.21,1.38,11.15,11.15,0,0,0-1.38,1.85A11.89,11.89,0,0,1,361,12.76c-1,.65-1.91,1.31-2.81,2a8,8,0,0,0-2.67,3.36,3.88,3.88,0,0,0,.06,3.09.93.93,0,0,0,.63.49,2.41,2.41,0,0,0,2.4-1.56,12.68,12.68,0,0,1,4-5.56,17.39,17.39,0,0,0,4.91-6c.16-.35.29-.7.75-.77s.54.55.48,1.15a3.57,3.57,0,0,1-.69,1.57,19.91,19.91,0,0,1-4.12,4.81,12.48,12.48,0,0,0-3.4,3.9c-.83,1.64-.64,2.23.93,3.29l2.12,1.4c.53-3,.54-3,2.63-6,.55-.79,1.07-1.6,1.58-2.42,1-1.55,2.13-3,2.59-4.81.12-.46.17-1,.73-1.12.39-.12.58.52.53,1.38a4.6,4.6,0,0,1-.71,1.87A44.78,44.78,0,0,1,366.15,20a4.47,4.47,0,0,0-.9,4.05,6.58,6.58,0,0,0,3.59,4.65,6.23,6.23,0,0,0,6.33-.55c1.15-.74,1.21-1.45.38-2.61a4.4,4.4,0,0,1-1-1.71c-.16-.79-.61-.82-1.25-.26s-1.45,1.26-2.19,1.87a.56.56,0,0,1-.78-.06.65.65,0,0,1,.05-1,1.32,1.32,0,0,1,.21-.2,8,8,0,0,0,3.48-5.43.94.94,0,0,1,.29-.48.63.63,0,0,1,.48-.17.66.66,0,0,1,.38.37,3.21,3.21,0,0,1-.3,2.24c-.23.62-.67,1.17-.94,1.78-.16.37,0,.95.39.89,1.3-.21,1.87.7,2.6,1.44a13.17,13.17,0,0,0,6.33,3.84,16.25,16.25,0,0,0,6.3,0c1-.15,2.07-.42,3.12-.57a.94.94,0,0,1,.68.4c.22.3,0,.52-.31.61-5.14,1.82-10.17,2.15-14.89-1.2a5.65,5.65,0,0,0-.55-.3,17.89,17.89,0,0,1-1.86,1.72,20.7,20.7,0,0,1-2.29,1.21.49.49,0,0,0-.05.9,9.8,9.8,0,0,0,3.47,1.3A22.78,22.78,0,0,0,385,32.5a3.24,3.24,0,0,1,4,2c.41.87.86,1.72,1.24,2.6,2.14,4.88,3.2,10.08,4.54,15.2.8,3.06,1.14,6.25,1.72,9.37a130.07,130.07,0,0,1,1.63,14.95,43.31,43.31,0,0,1-.59,12.68c-1.11,4.83-3,7.48-8.48,8.5-2.93.54-5.9.9-8.86,1.25-4.31.52-8.53,1.5-12.8,2.25a2,2,0,0,0-1.85,1.51c-.16.55-.32,1.1-.43,1.67-.43,2.37-.79,4.75-1.28,7.1-.93,4.52-1.82,9.06-2.4,13.64A44.82,44.82,0,0,0,361,132.6Zm-317.62-64c-.56.7-.91,1.15-1.27,1.59a5.8,5.8,0,0,1-2.82,1.94c-1.88.56-3.76.86-5.6-.14-.36-.2-.63-.46-.52-.91s.52-.46.9-.37c.18,0,.35.17.53.23a5.92,5.92,0,0,0,6.55-1.82A8.18,8.18,0,0,0,43,65.87a17,17,0,0,0,.63-5.12,3.76,3.76,0,0,1,.18-2,.61.61,0,0,1,.47-.23c.16,0,.43.11.47.23A5.41,5.41,0,0,1,45,60.16a10.68,10.68,0,0,0,0,2.59c.28,1,1.51.62,2.2,1.11a.56.56,0,0,1,.11.5c0,.16-.21.39-.35.41-.47.08-.95.06-1.42.11a1.67,1.67,0,0,0-.8.19,2.23,2.23,0,0,0,0,2.84,4.39,4.39,0,0,0,2.1.89,7.85,7.85,0,0,0,5.24-1.19A3.37,3.37,0,0,0,53.65,63,115.66,115.66,0,0,0,48.12,52.5a3.36,3.36,0,0,0-3.87-1.78,5.75,5.75,0,0,0-2.89,1.2c-1,.86-2.11,1.69-3.2,2.49C36,56,33.74,57.52,31.58,59.13s-4.44,3.39-6.63,5.13a5.78,5.78,0,0,0-2.23,4.52c0,.48-.13,1-.11,1.44.2,4.54-1.19,8.79-2.56,13-1.88,5.77-4,11.46-6.2,17.12a142.74,142.74,0,0,0-5.12,15.61,35.82,35.82,0,0,0-.25,17.18,10.94,10.94,0,0,0,7.4,8.48A26.73,26.73,0,0,0,23.81,143,76.52,76.52,0,0,0,39,141.7c3.61-.57,7.18-1.34,10.76-2.05q10.35-2.06,20.68-4.17c1.52-.31,1.66-.49,1.88-2.08a16.3,16.3,0,0,0,.19-2,64.88,64.88,0,0,0-.66-10.68,29.76,29.76,0,0,0-6.82-15.07,1.51,1.51,0,0,0-1.76-.59c-2.85.87-5.73,1.68-8.57,2.57-4,1.27-8,2.65-12.1,3.89a48.35,48.35,0,0,1-5.34,1.24,1.77,1.77,0,0,1-2.19-1.4,5.41,5.41,0,0,1-.17-.85c-1.21-8.85-1.47-17.66,1.1-26.36a24.46,24.46,0,0,1,3.5-6.93,4.22,4.22,0,0,1,4.21-2c1,.12,2.13,0,3.17.1a16,16,0,0,0,7.37-1A24.57,24.57,0,0,0,59,72.17,7,7,0,0,1,58.22,68c-.38-.25-.72-.05-1.07.07-2.18.76-4.35,1.53-6.54,2.27-.45.15-1,.44-1.38.28C47.39,69.84,45.15,70.34,43.36,68.59Zm117.5,73.52c3.22-3.39,3.66-5.82,3-10,0-.29-.11-.57-.14-.86a16.08,16.08,0,0,1,.4-6,6.11,6.11,0,0,1,2.1-3.37,25.31,25.31,0,0,0,2.8-2.48c4.81-5.16,6.61-11.41,6.4-18.3a12.78,12.78,0,0,0-3.4-8.67,14.22,14.22,0,0,1-3.83-10.6c0-.83,0-1.67-.05-2.5-.84,0-1.07.6-1.53.89s-.91.71-1.4,1c-2.54,1.6-5.12,3.13-8.27,3.08a15.91,15.91,0,0,1-8-1.93,24.84,24.84,0,0,1-4.6-3.47c-.31-.29-.58-.82-1.2-.48-.56,1.6,0,3.21.05,4.81a5.38,5.38,0,0,1-2.7,5.06A11.15,11.15,0,0,0,137,90.88q.39,2.27.78,4.54c0,.09.07.18.09.27,1.33,5.53,3,10.94,4.86,16.33.92,2.74,1.94,5.45,2.63,8.25.51,2.07,1.4,4,2,6a6,6,0,0,0,1,1.71,8.58,8.58,0,0,0,4.37,3.19,5.85,5.85,0,0,1,3.77,4.32A14.74,14.74,0,0,0,160.86,142.11Zm50.23,43.56a1.91,1.91,0,0,0-.29.55c-.26,2.2-.6,4.4-.72,6.62-.18,3.19-.9,6.28-1.37,9.42a2.39,2.39,0,0,1-1.79,2.05,14.23,14.23,0,0,1-1.69.36c-1,.19-2.09.34-3.13.55-1.26.26-1.42.44-1.41,1.74,0,4,0,7.92.16,11.87a93.91,93.91,0,0,1-.05,11.26c-.17,2.07-.17,4.16-.24,6.18a3.68,3.68,0,0,0,.7.25c4.33.35,8.65.73,13,1a22.34,22.34,0,0,0,8-.54,12.58,12.58,0,0,0,7.71-5.64,48,48,0,0,0,4.42-11.87,3.65,3.65,0,0,0,.09-1.42,202.58,202.58,0,0,0-3.58-20.48c-.79-3.22-.27-2.93-3.5-3.74A42.52,42.52,0,0,1,211.81,186,3.9,3.9,0,0,0,211.09,185.67ZM136.82,52.56c-.42.1-.78.08-.94.25a5.3,5.3,0,0,0-1.63,3.88,43,43,0,0,0,.42,4.6,6,6,0,0,0,1.14,2.62A2.93,2.93,0,0,0,138,65.2c.47,0,.94-.31,1.39,0s.45,1,.59,1.56c.35,1.4.76,2.78,1.16,4.17A16.51,16.51,0,0,0,147.9,80c5,3.44,10.14,4,15.44.8,2.58-1.55,4.85-3.42,6.1-6.34.87-2,2.07-3.92,2.75-6a1.15,1.15,0,0,1,1.49-.91,4.32,4.32,0,0,0,4.66-2.18,9,9,0,0,0,.93-7.5,1.93,1.93,0,0,0-.71-.86,1.16,1.16,0,0,0-1.82.63c-.2.74-.3,1.51-.48,2.26-.35,1.4-.69,2.81-1.12,4.18a1.28,1.28,0,0,1-1.62.84,1.46,1.46,0,0,1-.94-1.59,5.3,5.3,0,0,1,.24-1.13,71.73,71.73,0,0,0,2-9.32,18,18,0,0,0-.23-8.59c-.67-2.26-1.74-3.18-4.16-3.14a29.73,29.73,0,0,0-4.58.38,28,28,0,0,1-8.62.53,38.21,38.21,0,0,1-7.6-1.64,10.37,10.37,0,0,0-3.11-.6c-2-.07-2.79.44-3.35,2.39a66.26,66.26,0,0,0-2.28,11,61.82,61.82,0,0,0-.44,6.63A3.71,3.71,0,0,1,140,61.8a1.38,1.38,0,0,1-2.21.31,3,3,0,0,1-1-1.75c-.13-.95-.16-1.91-.26-2.86A28.76,28.76,0,0,1,136.82,52.56Zm113,22.94a36.14,36.14,0,0,0,2.41,12.93,26.06,26.06,0,0,0,8.17,11,17.43,17.43,0,0,0,6,3.36c3.06.92,6.17,1.13,9-.38a13.41,13.41,0,0,0,6.37-7.57c.89-2.53,2-5.06,1.81-7.85a1.09,1.09,0,0,1,.15-.55.85.85,0,0,1,.38-.41c.29-.1.45.1.63.36.78,1.13.83,1.08,1.74.77,4-1.39,5.81-7.45,2.92-11.19a1.51,1.51,0,0,0-1.53-.61,1.64,1.64,0,0,0-1.49,1.19,16.33,16.33,0,0,1-.42,1.67.9.9,0,0,1-.64.46.54.54,0,0,1-.57-.52c0-1.06-.06-2.12-.09-3.18a15.65,15.65,0,0,0-2.08-7.72c-.7-1.2-1.87-1.93-2.67-3a8.54,8.54,0,0,0-3.7-2.69,33.08,33.08,0,0,1-5.2-2.5,2,2,0,0,0-2.78.14,9.56,9.56,0,0,1-1.48.89,44.94,44.94,0,0,1-9.71,3.65,16,16,0,0,0-3.45,1.47,6.54,6.54,0,0,0-3.51,5A28.39,28.39,0,0,0,249.83,75.5Zm3.63,43.16a10.57,10.57,0,0,0,4.94,4.92,25.26,25.26,0,0,0,7,2.61,14.91,14.91,0,0,0,3.74.28,42.24,42.24,0,0,0,20.19-6.33,12.06,12.06,0,0,0,3.69-3.61,4.22,4.22,0,0,0,.47-1c.24-.7.09-1.08-.66-1.29a27.42,27.42,0,0,1-6.9-3.55,9.69,9.69,0,0,1-4-4.81,35.55,35.55,0,0,1-1.58-5.43c-.92.19-1.26,1-1.84,1.45A11.76,11.76,0,0,1,268,104.48a19.84,19.84,0,0,1-7.32-3.26c-.65-.46-1.15-1.2-2.27-1.39.33,1.51.59,2.82.91,4.12a19.44,19.44,0,0,1,.39,6.33,8.13,8.13,0,0,1-3,5.75C255.73,116.89,254.65,117.71,253.46,118.66ZM326.11,247c-1.43,1.35-2.53,2.57-3.81,3.57-4.47,3.49-9.68,5.55-15,7.31-4.38,1.45-8.87,2.56-13.32,3.79a99.43,99.43,0,0,1-17.86,3.19,75.25,75.25,0,0,1-21.83-1.18,42.26,42.26,0,0,1-14-5.11c-.89-.55-1.76-1.12-2.83-1.81-.5,1.79-1.05,3.4-1.39,5.06-.29,1.45,0,1.83,1.4,2.39a75,75,0,0,0,12.5,3.49c3.49.75,7,1.06,10.58,1.49a72,72,0,0,0,7.5.31c3,0,6-.38,8.94-.57a124.92,124.92,0,0,0,18.6-2.47c3.48-.75,6.94-1.63,10.33-2.69a43,43,0,0,0,9.39-4.4c3.45-2.09,7.13-3.87,9.91-6.93.71-.78,2.05-1.22,2.09-2.27S326.59,248.25,326.11,247ZM252,117.55a5.58,5.58,0,0,0-4.4,1.76,1.08,1.08,0,0,0-.27,1.3,13.43,13.43,0,0,0,2.4,3.92c6,7.43,13.66,10.94,23.36,9.54a41,41,0,0,0,12.28-4,35.14,35.14,0,0,0,13.29-11.69,17.76,17.76,0,0,0,2.06-4.73c.12-.35-.3-.75-.71-.64-1.47.41-2.94.83-4.4,1.3-.21.07-.41.41-.49.66-1.09,3.43-3.53,5.57-6.55,7.33a44.55,44.55,0,0,1-13.47,4.95,24.39,24.39,0,0,1-8,.72,25.37,25.37,0,0,1-10.45-3.86A9.32,9.32,0,0,1,252,117.55Zm-51.24,86.17c1.68-.27,3.19-.52,4.7-.75a1.78,1.78,0,0,0,1.66-1.63c1.06-4.61,1.36-9.32,2.1-14a7.1,7.1,0,0,0-1.64-6.42,4.19,4.19,0,0,1-.93-4c.55-2.34,1.13-4.67,1.65-7a40.66,40.66,0,0,0,1-6.89c-1.66,2-1.88,2.46-4.28,10.71A99,99,0,0,0,200.75,203.72ZM58.54,139.31a11.16,11.16,0,0,0,3.4,6,4.38,4.38,0,0,0,6.43-.23,14.57,14.57,0,0,0,3.47-7.49,1.37,1.37,0,0,0,0-.29.52.52,0,0,0-.53-.54,2.86,2.86,0,0,0-.86,0ZM48.08,49.56c1,1.62,1.95,3.27,2.94,4.9a52.57,52.57,0,0,1,3.69,7.46,5.94,5.94,0,0,1,.12,5.17c2.23-.31,2.43-.38,3.56-1.17a2.65,2.65,0,0,0,1.21-3.47A33.37,33.37,0,0,0,58.09,59c-1.19-2.5-2.72-4.84-3.64-7.48A12.83,12.83,0,0,0,53.15,49a2.32,2.32,0,0,0-3.24-.89A4.74,4.74,0,0,0,48.08,49.56ZM327.9,113.1c1.12-3.91,1.53-7.56,2.78-11a1.76,1.76,0,0,0-1.52-2.31,3.8,3.8,0,0,0-2.53.31,7.38,7.38,0,0,0-3,2.6c-.51.86-1,1.6-.15,2.59,1.2,1.47.62,2.9-.4,4.19a6.56,6.56,0,0,1-1.53,1.29c-1.15.76-1.38,1.75-.84,3.16C322.89,112.16,325.13,110.57,327.9,113.1Zm8.26-2.31c.08-.05.21-.1.22-.16.53-2.73,1.09-5.45,1.56-8.2a1.65,1.65,0,0,0-1.88-2,4.63,4.63,0,0,0-4.45,3.47c-.53,1.85-.93,3.73-1.38,5.6-.12.51-.45,1,.05,1.55C333.2,109.62,333.37,109.61,336.15,110.79ZM61.27,64c.74-.29,1.35-.58,2-.78C65,62.67,65,62.68,64.56,61a10.25,10.25,0,0,0-1.18-2.59c-1.14-1.88-2.16-3.82-3.24-5.74-.42-.75-.85-1.5-1.33-2.21a3.7,3.7,0,0,0-2.92-1.57.7.7,0,0,0-.69,1c.71,1.67,1.36,3.37,2.19,5C58.93,57.73,60.54,60.66,61.27,64Zm284,45.09c.43-1.82.87-3.49,1.2-5.19a3.1,3.1,0,0,0-.91-3.15,3.17,3.17,0,0,0-3.55-.14,3.63,3.63,0,0,0-1.92,2.41,35.36,35.36,0,0,0-1.36,6.3C341,107.24,343.11,107.91,345.28,109.12Zm-29.57-5.24a6.32,6.32,0,0,0-5.57,2.92,1.37,1.37,0,0,0-.1.27,2,2,0,0,0,.61,2.59,4.49,4.49,0,0,0,1,.58,11.24,11.24,0,0,0,7.9.1,5.94,5.94,0,0,0,2-1.2,2.51,2.51,0,0,0,.7-3.13,1.2,1.2,0,0,0-.64-.5c-.09,0-.35.16-.43.31-.48.83-.89,1.7-1.39,2.52a2.24,2.24,0,0,1-1.54,1.2,2.78,2.78,0,0,1-3.25-3.09A17.74,17.74,0,0,1,315.71,103.89Zm44.7-73.71c2.09.06,3.4-1.31,3-3.17a6.35,6.35,0,0,0-4.73-4.49,2.69,2.69,0,0,0-3.25,3A5.18,5.18,0,0,0,360.41,30.18ZM348,105.82c0,.06,0,.44.1.82a1.41,1.41,0,0,0,1.81,1.32,3.66,3.66,0,0,0,2.72-2.32c.52-1,.57-2.21,1.37-3.15a1.53,1.53,0,0,0-.42-2.06,2.81,2.81,0,0,0-4.42.64A9.26,9.26,0,0,0,348,105.82Zm12.62,29.92c.47,1.58.31,3.24.58,4.84a24.28,24.28,0,0,0,.81,3.06.93.93,0,0,0,.57.58.91.91,0,0,0,.71-.38,5.35,5.35,0,0,0,.78-1.53,49.19,49.19,0,0,0,1.16-5c.57-3.75,1.53-3.93-3.24-2.71a4.94,4.94,0,0,0-.82.27A.85.85,0,0,0,360.64,135.74ZM330,115.31c-.48,1.33,1.33,2.57,2.57,2.24a4.66,4.66,0,0,0,3.34-3.87,1.3,1.3,0,0,0,0-.54,2.83,2.83,0,0,0-3.5-1.63C330.6,112.22,330.11,113.72,330,115.31Zm-78.22-24.5c-.93-2.77-2.16-5.29-2.55-8.08-.12-.89-1-1.11-1.78-.61a2,2,0,0,0-1,1.66,7.33,7.33,0,0,0,2.93,6.54A2.29,2.29,0,0,0,251.75,90.81Zm69.38,25.88a1.64,1.64,0,0,0,.53,1.54,2.75,2.75,0,0,0,3,.27,5.77,5.77,0,0,0,2.12-2.27,1.89,1.89,0,0,0-.2-2.14,2.19,2.19,0,0,0-2-1A3.85,3.85,0,0,0,321.12,116.7ZM61,66.36a4.79,4.79,0,0,0-1.46,3.83,2,2,0,0,0,.48,1,5.34,5.34,0,0,0,8.87-1.29A4.11,4.11,0,0,0,69,67.1a1.83,1.83,0,0,0-1.52-1.41c-.35.61,0,1.18-.08,1.74a6,6,0,0,1-1.77,3.83,2,2,0,0,1-2.35.53A3.69,3.69,0,0,1,61,69,19.23,19.23,0,0,1,61,66.36ZM344.3,111.65a2.1,2.1,0,0,0-2-2.12c-1.72-.16-2.45.5-3.3,2.46a1.64,1.64,0,0,0,.23,2,2,2,0,0,0,2.34.59,4.55,4.55,0,0,0,2.11-1.44A2.1,2.1,0,0,0,344.3,111.65ZM66.24,67.3a4.1,4.1,0,0,0,0-.73,1.85,1.85,0,0,0-1.27-1.44c-.64-.21-1.11.22-1.48.64a5.8,5.8,0,0,0-.91,1.44,2.51,2.51,0,0,0,.95,3.26A1.14,1.14,0,0,0,65,70.29,5.18,5.18,0,0,0,66.24,67.3Zm254,37.29a1.84,1.84,0,0,0-2.39-.56,3.11,3.11,0,0,0-1.65,2.79,1.54,1.54,0,0,0,1.2,1.43c.69.22,1.08-.21,1.35-.72C319.3,106.56,319.78,105.56,320.26,104.59ZM365,27.11a1.33,1.33,0,0,0-.22.4c-.07.47-.11.95-.15,1.42s.18.74.87.63c1-.16,1.17-.48.65-1.3C365.83,27.81,365.71,27.14,365,27.11Z"/><path class="cls-2" d="M229.26,192.61a41.13,41.13,0,0,1-8.57-3.1,50.18,50.18,0,0,1-8.53-5.41,18.15,18.15,0,0,1-4-5.27,1.7,1.7,0,0,1-.1-1.4A107.69,107.69,0,0,0,211,163.3c.84-4.94,1.6-9.88,2.7-14.78.84-3.75,1.43-7.56,2.58-11.24a19.59,19.59,0,0,1,2.55-5.48,16.1,16.1,0,0,1,10.51-6.56c5.28-1.06,10.56-2.14,15.48-4.46.71-.34.94-.2,1.31.56A25.2,25.2,0,0,0,263,135.19a27.16,27.16,0,0,0,10.63.34c8.07-1.08,15-4.75,21-10.1a34.55,34.55,0,0,0,4.85-5.74,16.92,16.92,0,0,0,2.59-6.35,1.86,1.86,0,0,1,1.41-1.59c1.28-.39,2.54-.87,3.79-1.36a2.17,2.17,0,0,1,2.62.53c.39.42,1.12.39,1.34,1.13-1.89,2.09-3.83,4.2-5.73,6.35-2.29,2.6-4.56,5.23-6.82,7.86a12.19,12.19,0,0,0-1.16,1.64.58.58,0,0,0,.21.76c.23.16.49.37.78.16a4.42,4.42,0,0,0,.86-.73c1.4-1.72,2.8-3.44,4.15-5.2,2.6-3.37,5.64-6.33,8.55-9.41a3.08,3.08,0,0,1,2.51-1.11c1.34,0,2.68-.11,4-.17.56.63.4,1.45.54,2.19.18.95.37,1.89.49,2.84.46,3.44,4.78,3.75,6.53,2,.74-.76,1.42-1.57,2.17-2.4.49,0,.59.57.89.87a4.09,4.09,0,0,0,5.9.1,9.84,9.84,0,0,0,2-3c.33.1.56.1.68.21.91.92,1.88,1.73,3.28,1.45a5.66,5.66,0,0,0,3.93-2.68,16.76,16.76,0,0,0,1.74-4.54c.68-.47,1,.25,1.55.35a4.46,4.46,0,0,0,4.45-1.44,6.59,6.59,0,0,0,1.59-3,2,2,0,0,1,1.82-1.56c.19,0,.38,0,.57-.08l6.49-1.07c.66.54.26,1.13.16,1.64-1.1,6-2.29,11.91-3.32,17.89-.46,2.65-.6,5.36-.87,8-.06.58,0,1.16-.1,1.73-.62,4.47.12,8.81,1.17,13.21a7.29,7.29,0,0,1-1.33.34c-5.31.39-10.4,1.85-15.54,3.09a7,7,0,0,0-4.78,3.8,26.69,26.69,0,0,0-2.39,7.39c-1,5.1-1.94,10.22-2.91,15.33-.7,3.69-1.5,7.36-2.09,11.07-.94,5.9-1.77,11.81-2.59,17.72-.44,3.15-1.22,6.24-1.45,9.43-.18,2.5-.54,5-.74,7.48-.39,5-.72,10-1.07,15-.08,1.21-.12,2.43-.18,3.84a4.16,4.16,0,0,1-1.1-2.51c-1.21-4.26-2.38-8.53-3.57-12.79a1.09,1.09,0,0,0-.26-.5,1,1,0,0,0-.5-.19c-.21,0-.32.09-.38.32a4.89,4.89,0,0,0,.15,2.57c.36,1.5.75,3,1.18,4.48,1.31,4.43,2.36,8.93,3.37,13.44a3.19,3.19,0,0,1-1,3.32c-2.55,2.63-5.76,4.17-9,5.7-1.3.62-2.65,1.14-4,1.67A124.29,124.29,0,0,1,296.68,259c-2.87.78-5.79,1.36-8.65,2.19a42.31,42.31,0,0,1-5.67,1.06,82.32,82.32,0,0,1-24.48.22A48.47,48.47,0,0,1,245.11,259c-1.75-.79-3.44-1.73-5.11-2.68a3.28,3.28,0,0,1-1.76-3.1c0-.87-.1-1.74-.1-2.6,0-4.14.1-8.28,0-12.42-.08-3.08-.37-6.16-.64-9.23-.2-2.3-.55-4.59-.78-6.88A186.34,186.34,0,0,0,234,203.23c-.43-2.07-.71-4.16-1.32-6.2-.4-1.33-.12-2.76-.88-4.12a19.29,19.29,0,0,1-1.27-4.43l-1.12-4.19c-1.61-6-3.3-12.07-4.35-18.26-.69-4.08-1.67-8.11-2.1-12.24a7,7,0,0,0-.32-1.4.53.53,0,0,0-.45-.23.59.59,0,0,0-.44.3,3.94,3.94,0,0,0-.11,1.11,64.77,64.77,0,0,0,1.46,10c.77,3.77,1.27,7.59,2.26,11.32,1.39,5.21,2.65,10.45,4,15.67C229.46,191.2,229.83,191.83,229.26,192.61ZM250,178.72c-.25.23-.58.39-.63.62a4.92,4.92,0,0,0,.26,2.56,127.48,127.48,0,0,0,4.19,12.6c2,4.8,3.94,9.6,6,14.36,1.71,4,3.43,7.94,5.36,11.81A146.23,146.23,0,0,0,273.24,234a4.72,4.72,0,0,0,.92,1.09.85.85,0,0,0,.79.05.81.81,0,0,0,.31-.71,15.46,15.46,0,0,0-1-1.75c-1.94-3.21-4-6.36-5.82-9.64-3.62-6.47-6.34-13.37-9.26-20.17a174.3,174.3,0,0,1-7.36-19.72c-.38-1.29-.77-2.58-1.21-3.85C250.54,179.08,250.24,178.93,250,178.72Z"/><path class="cls-3" d="M104.53,241.13c1.69.7,3.55.6,5.17,1.6a8.79,8.79,0,0,0-.86,4.48,5.66,5.66,0,0,1-.42,2,5,5,0,0,0-.3,2c.12.84.66,1.59,1.13,1.44.67-.21.77-.83.81-1.38.14-1.82,1-3.52.83-5.4a3.3,3.3,0,0,1,.36-1.38c.38-1,.67-1.22,1.74-1,1.7.31,3.39.71,5.09,1.06.56.12,1.13.21,1.88.35a6.26,6.26,0,0,0-.9,5,5.18,5.18,0,0,1-.16,1.72,8,8,0,0,0,.39,3.14c.22.82.95,1.38,1.36,1.14.64-.38.52-1,.41-1.54a7.44,7.44,0,0,1,0-4,2.55,2.55,0,0,0-.2-1.39,2.92,2.92,0,0,1,.38-2.48c.6-1,.9-1.11,2.1-.9q3.42.59,6.85,1.12a3.52,3.52,0,0,1,1.8.59,5.4,5.4,0,0,0-.38,2.65,8.78,8.78,0,0,1-.14,3.44,6,6,0,0,0,.78,4.16.68.68,0,0,0,.73.31c.4,0,.46-.36.48-.61a9.22,9.22,0,0,0,0-1.72,5.06,5.06,0,0,1,0-2.3,5.88,5.88,0,0,0,.06-3.41,2.41,2.41,0,0,1,.39-1.92,1.24,1.24,0,0,1,1.15-.72c3.26.23,6.51.49,9.66.73.56.74-.07,1.17-.19,1.67a4.32,4.32,0,0,0,0,2c.14.56.35,1.1.47,1.66a2.35,2.35,0,0,1-.41,1.63,13.21,13.21,0,0,0-1,2.41,1.53,1.53,0,0,0,1.28,1.89c.52.09.92-.22.77-.74a2.9,2.9,0,0,1,.49-2.46,4.59,4.59,0,0,0,.47-4.15,2.47,2.47,0,0,1-.12-1.69,2.53,2.53,0,0,1,2.77-2,63.44,63.44,0,0,0,7.23,0c2-.12,4.05-.16,6.08-.19,1.57,0,2.12.6,1.91,2.13a3.27,3.27,0,0,1-.3,1.11,6.91,6.91,0,0,0-1.05,4.37,1.71,1.71,0,0,1-.57,1.29,16.58,16.58,0,0,0-1,1.37c-.16.23.27.8.57.86a1.2,1.2,0,0,0,1.08-.26c1.18-1.05,2.17-2.2,2.07-3.94a2.32,2.32,0,0,1,.18-1.4c1.31-1.69,1-3.65,1-5.51.22-.14.37-.32.54-.33,2.59-.24,5.18-.48,7.78-.67,1.16-.08,1.14.08,1.67,1.13a4,4,0,0,1,0,3.09,4,4,0,0,0-.16,2.78c.43,1-.21,1.84-.72,2.65a.63.63,0,0,0,.23,1,1,1,0,0,0,.79,0,2.72,2.72,0,0,0,1.56-2.57,8.09,8.09,0,0,1,.4-3.67c.4-1,0-2.73-.55-4.65,2.75-.77,5.58-1.11,8.37-1.61a1.77,1.77,0,0,1,2.23,1.92,9.81,9.81,0,0,0,.4,4.54c.27.6-.09,1.32-.32,2a3.16,3.16,0,0,0-.23,2,.63.63,0,0,0,.37.38.52.52,0,0,0,.46-.2c.69-1.69,1.41-3.39.73-5.27a2.2,2.2,0,0,1-.2-1.68c.6-1.32.22-2.61-.11-4l5.31-2.36a10.62,10.62,0,0,0,2.09-1c1.92-1.43,2.1-.75,2.32,1.24.41,3.64.71,7.29,1.1,10.92.18,1.63.5,3.23.7,4.86.59,4.78.7,9.61,1.2,14.4.67,6.35.57,12.72.91,19.07.16,3,.09,6,.19,9,.16,4.53.36,9.06.61,13.59.12,2.12.59,4.22.57,6.33,0,4.82.82,9.6.55,14.59a8.1,8.1,0,0,1-3.35,1.26,84.84,84.84,0,0,1-18.36,2.06c-7.92.12-15.82-.3-23.7-.94-1.24-.1-2.49,0-3.94,0-.16-3.14.21-6.19.14-9.24s.08-6.38-.12-9.55.28-6.14-.47-9.18c-.78.18-.81.69-.84,1.12-.12,1.64-.26,3.27-.28,4.91-.06,4.24-.12,8.49-.06,12.73,0,3.29-.61,6.56-.44,9.81.12,2.38-1,3.7-2.61,5-2,1.63-4.48,2.13-6.9,2.74-5.69,1.45-11.46,1.18-17.26,1a111.68,111.68,0,0,1-16.86-2.11A52.68,52.68,0,0,1,95,339.56c-2.46-1.3-5.2-2.07-7.52-3.67-.32-.22-.72-.31-1-.55-1.91-1.55-2-1.19-1.51-3.57,1.32-6.13,2.19-12.33,3.27-18.5.6-3.41,1.31-6.8,2-10.19,1.39-7.09,3-14.15,4.11-21.28.89-5.51,1.85-11,3.12-16.43.95-4,2-8,3-12a19.22,19.22,0,0,1,.88-2.45c.14-.35.34-.82.62-.93,1.89-.71,1.75-2.39,1.86-3.88A16.39,16.39,0,0,1,104.53,241.13Z"/><path class="cls-4" d="M102,196.76l.18-1.93a11.25,11.25,0,0,0,3.25-.27c1.85,1.74,3,4,4.35,6.08,2.59,3.83,5,7.78,7.64,11.57,1.76,2.52,3.79,4.85,5.73,7.24a.79.79,0,0,0,.77,0,.92.92,0,0,0,.27-.76,2.59,2.59,0,0,0-.44-1,22.31,22.31,0,0,0-1.75-2.31,59.37,59.37,0,0,1-6.62-9.44c-1.3-2.14-2.76-4.18-4.13-6.27-.42-.64-.79-1.32-1.18-2a5.49,5.49,0,0,1,1.42,0,63.47,63.47,0,0,0,8.3.92c1.79.18,3.65.49,5.36-.46a4.88,4.88,0,0,1,1.69,1.55A132.73,132.73,0,0,0,144,216.72c4.25,3.48,8.83,6.51,13.3,9.68,3.69,2.61,7.44,5.14,11.22,7.62a81.52,81.52,0,0,0,13.83,7.73c1.11.45,2,.39,2-.17,0-.9-.81-1-1.39-1.21a79.78,79.78,0,0,1-13.57-7.62c-5.64-3.86-11.21-7.82-16.85-11.66a106.68,106.68,0,0,1-14.33-11.64A114.83,114.83,0,0,1,127,197.37a4.48,4.48,0,0,1,2.83,0,81.62,81.62,0,0,0,16.6,2.08c1,0,1.92.11,2.89.17,4.13.27,8.26.58,12.4.8a76.41,76.41,0,0,0,11.84-.38,95.86,95.86,0,0,0,14.25-2.24c3.91-1,7.8-2.12,11.7-3.18,0,3.18-.12,6.36-.14,9.54,0,6.08-.1,12.15.12,18.23a83.07,83.07,0,0,1-.59,13,16.81,16.81,0,0,0-.49,1.93,2.48,2.48,0,0,1-1.77,2.37,38.53,38.53,0,0,1-8.31,3.23c-4.34.93-8.66,2-13.06,2.49-3.83.44-7.68.72-11.53,1-2.4.16-4.82.05-7.22.25-4.84.39-9.63-.32-14.44-.54-5.28-.24-10.62-.31-15.82-1.52-5.35-1.25-10.86-1.71-16.11-3.44a4.25,4.25,0,0,0-.57-.11c-4.72-.87-6.89-4.14-8-8.44a26.61,26.61,0,0,1-.67-7.76,37.54,37.54,0,0,1,.49-5.76,42.8,42.8,0,0,0,.39-4.6c.33-.27.33-.27.15-.72,0-2.59.09-5.18.1-7.76,0-3.07,0-6.13,0-9.2Z"/><path class="cls-5" d="M361,132.6a44.82,44.82,0,0,1,.42-7.36c.58-4.58,1.47-9.11,2.4-13.64.48-2.36.84-4.74,1.28-7.1.1-.56.27-1.12.43-1.67a2,2,0,0,1,1.85-1.51c4.27-.75,8.49-1.73,12.8-2.25,3-.35,5.93-.71,8.86-1.25,5.53-1,7.38-3.67,8.48-8.5a43.31,43.31,0,0,0,.59-12.68,130.07,130.07,0,0,0-1.63-14.95c-.58-3.12-.92-6.31-1.72-9.37-1.34-5.11-2.4-10.32-4.54-15.2-.39-.88-.84-1.73-1.24-2.6a3.24,3.24,0,0,0-4-2,22.78,22.78,0,0,1-8.06.23,9.8,9.8,0,0,1-3.47-1.3.49.49,0,0,1,.05-.9,20.7,20.7,0,0,0,2.29-1.21,17.89,17.89,0,0,0,1.86-1.72,5.65,5.65,0,0,1,.55.3c4.73,3.35,9.75,3,14.89,1.2.28-.1.53-.32.31-.61a.94.94,0,0,0-.68-.4c-1,.15-2.07.43-3.12.57a16.25,16.25,0,0,1-6.3,0A13.17,13.17,0,0,1,377,24.86c-.73-.74-1.3-1.65-2.6-1.44-.37.06-.55-.52-.39-.89.27-.61.72-1.16.94-1.78a3.21,3.21,0,0,0,.3-2.24.66.66,0,0,0-.38-.37.63.63,0,0,0-.48.17.94.94,0,0,0-.29.48,8,8,0,0,1-3.48,5.43,1.32,1.32,0,0,0-.21.2.65.65,0,0,0-.05,1,.56.56,0,0,0,.78.06c.74-.61,1.47-1.24,2.19-1.87s1.09-.53,1.25.26a4.4,4.4,0,0,0,1,1.71c.82,1.16.76,1.87-.38,2.61a6.23,6.23,0,0,1-6.33.55,6.58,6.58,0,0,1-3.59-4.65,4.47,4.47,0,0,1,.9-4.05,44.78,44.78,0,0,0,4.79-7.21,4.6,4.6,0,0,0,.71-1.87c.06-.86-.14-1.5-.53-1.38-.57.17-.62.66-.73,1.12-.46,1.82-1.63,3.26-2.59,4.81-.51.82-1,1.63-1.58,2.42-2.09,3-2.1,3-2.63,6l-2.12-1.4c-1.57-1.05-1.76-1.65-.93-3.29a12.48,12.48,0,0,1,3.4-3.9,19.91,19.91,0,0,0,4.12-4.81A3.57,3.57,0,0,0,368.75,9c.06-.6-.15-1.2-.48-1.15s-.59.41-.75.77a17.39,17.39,0,0,1-4.91,6,12.68,12.68,0,0,0-4,5.56,2.41,2.41,0,0,1-2.4,1.56.93.93,0,0,1-.63-.49,3.88,3.88,0,0,1-.06-3.09,8,8,0,0,1,2.67-3.36c.9-.72,1.85-1.38,2.81-2a11.89,11.89,0,0,0,3.66-3.64,11.15,11.15,0,0,1,1.38-1.85,4.5,4.5,0,0,1,5.21-1.38,11.49,11.49,0,0,1,2.54,1.35,102.83,102.83,0,0,0,9.53,6,71,71,0,0,0,9.76,4.32,10.19,10.19,0,0,1,6.07,5A30.79,30.79,0,0,0,401,25.5c2.73,4.13,4.45,8.75,6.24,13.32,1.86,4.74,3.57,9.56,5.16,14.4a175.92,175.92,0,0,1,5.16,17.14c.62,2.83,1,5.69,1.4,8.54.52,3.43.9,6.88,1.44,10.31a39.6,39.6,0,0,1-2.09,20.49,18.39,18.39,0,0,1-8.68,9.73,61.83,61.83,0,0,1-7.41,3.24,151.54,151.54,0,0,1-16.86,5.06c-5.87,1.51-11.86,2.5-17.8,3.74-1.6.33-3.18.77-4.77,1.13A2.37,2.37,0,0,1,361,132.6Z"/><path class="cls-6" d="M43.36,68.59c1.79,1.75,4,1.24,5.86,2.08.35.16.93-.12,1.38-.28,2.18-.74,4.36-1.51,6.54-2.27.35-.12.7-.32,1.07-.07A7,7,0,0,0,59,72.17a24.57,24.57,0,0,1-4.68,2.15,16,16,0,0,1-7.37,1c-1-.12-2.13,0-3.17-.1a4.22,4.22,0,0,0-4.21,2A24.46,24.46,0,0,0,36,84.14c-2.57,8.7-2.31,17.51-1.1,26.36a5.41,5.41,0,0,0,.17.85,1.77,1.77,0,0,0,2.19,1.4,48.35,48.35,0,0,0,5.34-1.24c4-1.24,8.06-2.62,12.1-3.89,2.85-.9,5.72-1.71,8.57-2.57a1.51,1.51,0,0,1,1.76.59,29.76,29.76,0,0,1,6.82,15.07,64.88,64.88,0,0,1,.66,10.68,16.3,16.3,0,0,1-.19,2c-.23,1.59-.36,1.77-1.88,2.08q-10.34,2.1-20.68,4.17c-3.58.71-7.16,1.48-10.76,2.05A76.52,76.52,0,0,1,23.81,143a26.73,26.73,0,0,1-7.93-1.43,10.94,10.94,0,0,1-7.4-8.48,35.82,35.82,0,0,1,.25-17.18,142.74,142.74,0,0,1,5.12-15.61C16,94.67,18.17,89,20,83.21c1.37-4.2,2.76-8.45,2.56-13,0-.48.1-1,.11-1.44a5.78,5.78,0,0,1,2.23-4.52c2.18-1.74,4.39-3.46,6.63-5.13S36,56,38.16,54.41c1.09-.79,2.15-1.63,3.2-2.49a5.75,5.75,0,0,1,2.89-1.2,3.36,3.36,0,0,1,3.87,1.78A115.66,115.66,0,0,1,53.65,63a3.37,3.37,0,0,1-1.57,4.64,7.85,7.85,0,0,1-5.24,1.19,4.39,4.39,0,0,1-2.1-.89,2.23,2.23,0,0,1,0-2.84,1.67,1.67,0,0,1,.8-.19c.47,0,1,0,1.42-.11.14,0,.31-.25.35-.41a.56.56,0,0,0-.11-.5c-.69-.49-1.92-.16-2.2-1.11a10.68,10.68,0,0,1,0-2.59,5.41,5.41,0,0,0-.27-1.39c0-.12-.3-.23-.47-.23a.61.61,0,0,0-.47.23,3.76,3.76,0,0,0-.18,2A17,17,0,0,1,43,65.87a8.18,8.18,0,0,1-1.83,3.25,5.92,5.92,0,0,1-6.55,1.82c-.18-.06-.35-.18-.53-.23-.38-.1-.78-.16-.9.37s.16.71.52.91c1.84,1,3.72.7,5.6.14a5.8,5.8,0,0,0,2.82-1.94C42.46,69.74,42.8,69.29,43.36,68.59Z"/><path class="cls-6" d="M160.86,142.11a14.74,14.74,0,0,1-4.33-6.59,5.85,5.85,0,0,0-3.77-4.32A8.58,8.58,0,0,1,148.4,128a6,6,0,0,1-1-1.71c-.56-2-1.44-4-2-6-.69-2.8-1.71-5.51-2.63-8.25-1.82-5.38-3.53-10.8-4.86-16.33,0-.09-.08-.18-.09-.27q-.39-2.27-.78-4.54a11.15,11.15,0,0,1,3.44-2.56,5.38,5.38,0,0,0,2.7-5.06c0-1.6-.61-3.21-.05-4.81.62-.34.89.18,1.2.48a24.84,24.84,0,0,0,4.6,3.47,15.91,15.91,0,0,0,8,1.93c3.15,0,5.73-1.49,8.27-3.08.49-.31.92-.71,1.4-1s.69-.93,1.53-.89c0,.83.09,1.66.05,2.5a14.22,14.22,0,0,0,3.83,10.6,12.78,12.78,0,0,1,3.4,8.67c.21,6.89-1.59,13.15-6.4,18.3a25.31,25.31,0,0,1-2.8,2.48,6.11,6.11,0,0,0-2.1,3.37,16.08,16.08,0,0,0-.4,6c0,.29.1.57.14.86C164.52,136.29,164.08,138.72,160.86,142.11Zm-9.7-42.55a.65.65,0,0,0-.2-.81,6.17,6.17,0,0,0-2.88-1.85c-2.68-.75-5.39-1.41-8.08-2.09a.63.63,0,0,0-.71.35c-.2.35.07.57.33.65,1.75.51,3.49,1.06,5.26,1.46A9.8,9.8,0,0,1,150,99.62a1.21,1.21,0,0,0,.78.22C150.93,99.84,151.07,99.63,151.16,99.56Zm15.41-.07a.8.8,0,0,0,.27,0c1.59-.63,3.18-1.26,4.76-1.91a8.1,8.1,0,0,0,1.25-.66c.23-.14.44-.39.19-.67-.11-.13-.34-.27-.48-.24a22.47,22.47,0,0,0-5.8,2.32,1.2,1.2,0,0,0-.41.7C166.31,99.14,166.49,99.33,166.57,99.48Zm-5.25,24c0-.09-.08.38-.17.84s0,.81.46.82a.83.83,0,0,0,.58-.53,13.56,13.56,0,0,0,.21-6,.61.61,0,0,0-.57-.53c-.55,0-.51.41-.51.78C161.32,120.24,161.32,121.57,161.32,123.47Zm-2.32-3.4c-.1,1.12-.16,1.8-.23,2.47,0,.38-.12.84.37.93.66.11.78-.48.83-.92a23.37,23.37,0,0,0,.05-5.19,5.88,5.88,0,0,0-.4-1.37.61.61,0,0,0-.41-.31c-.39-.07-.51.26-.5.53C158.81,117.64,158.93,119.07,159,120.07Zm1.1,9.39a5.3,5.3,0,0,0-.43-2.47.57.57,0,0,0-.47-.2c-.14,0-.36.23-.36.35a14.84,14.84,0,0,1-.3,3.71c-.18.7.11,1.18.49,1.12a.93.93,0,0,0,.72-.77C159.94,130.55,160,129.88,160.1,129.46Zm-2.84-6.16c-.12-.83.1-1.73-.48-2.46a.63.63,0,0,0-.49-.18c-.15,0-.41.18-.41.28q0,2.26.14,4.53c0,.11.26.27.41.28a.6.6,0,0,0,.47-.21A4.87,4.87,0,0,0,157.26,123.3Z"/><path class="cls-5" d="M211.09,185.67a3.9,3.9,0,0,1,.72.35,42.52,42.52,0,0,0,15.61,7.81c3.24.81,2.71.53,3.5,3.74a202.58,202.58,0,0,1,3.58,20.48,3.65,3.65,0,0,1-.09,1.42A48,48,0,0,1,230,231.34a12.58,12.58,0,0,1-7.71,5.64,22.34,22.34,0,0,1-8,.54c-4.33-.28-8.66-.66-13-1a3.68,3.68,0,0,1-.7-.25c.07-2,.07-4.11.24-6.18a93.91,93.91,0,0,0,.05-11.26c-.15-4-.13-7.91-.16-11.87,0-1.3.15-1.49,1.41-1.74,1-.21,2.09-.36,3.13-.55a14.23,14.23,0,0,0,1.69-.36,2.39,2.39,0,0,0,1.79-2.05c.46-3.14,1.19-6.23,1.37-9.42.12-2.21.46-4.41.72-6.62A1.91,1.91,0,0,1,211.09,185.67Z"/><path class="cls-6" d="M136.82,52.56a28.76,28.76,0,0,0-.26,4.94c.1,1,.13,1.91.26,2.86a3,3,0,0,0,1,1.75A1.38,1.38,0,0,0,140,61.8a3.71,3.71,0,0,0,.47-1.94,61.82,61.82,0,0,1,.44-6.63,66.26,66.26,0,0,1,2.28-11c.57-2,1.32-2.46,3.35-2.39a10.37,10.37,0,0,1,3.11.6,38.21,38.21,0,0,0,7.6,1.64,28,28,0,0,0,8.62-.53,29.73,29.73,0,0,1,4.58-.38c2.42,0,3.49.88,4.16,3.14a18,18,0,0,1,.23,8.59,71.73,71.73,0,0,1-2,9.32,5.3,5.3,0,0,0-.24,1.13,1.46,1.46,0,0,0,.94,1.59,1.28,1.28,0,0,0,1.62-.84c.43-1.37.77-2.78,1.12-4.18.19-.75.28-1.52.48-2.26a1.16,1.16,0,0,1,1.82-.63,1.93,1.93,0,0,1,.71.86,9,9,0,0,1-.93,7.5,4.32,4.32,0,0,1-4.66,2.18,1.15,1.15,0,0,0-1.49.91c-.68,2.12-1.88,4-2.75,6-1.25,2.92-3.53,4.79-6.1,6.34C158,84,152.89,83.47,147.9,80a16.51,16.51,0,0,1-6.78-9.08c-.41-1.38-.81-2.77-1.16-4.17-.14-.55-.06-1.17-.59-1.56s-.92,0-1.39,0a2.93,2.93,0,0,1-2.17-1.28,6,6,0,0,1-1.14-2.62,43,43,0,0,1-.42-4.6,5.3,5.3,0,0,1,1.63-3.88C136,52.64,136.4,52.66,136.82,52.56Zm14.64,4.33c.38,0,.77,0,1.15-.07a2.16,2.16,0,0,0,1.94-1.46,2.07,2.07,0,0,0-1.3-2,7.46,7.46,0,0,0-5.85-.57,2,2,0,0,0-1.27,1.75A1.52,1.52,0,0,0,147.27,56,10.58,10.58,0,0,0,151.46,56.89Zm13.22-3a5.11,5.11,0,0,0-3.38.78,1.44,1.44,0,0,0-.14,2.25,3,3,0,0,0,.91.67,8.54,8.54,0,0,0,5.87.27A2.52,2.52,0,0,0,169,57a1.52,1.52,0,0,0-.8-2.5A11,11,0,0,0,164.68,53.91Zm-8,18a14.82,14.82,0,0,0,4.14-1,4.38,4.38,0,0,0,2-1.09.57.57,0,0,0,.06-.52.55.55,0,0,0-.48-.2c-.62.21-1.23.49-1.84.73a8.79,8.79,0,0,1-7.75-.24,8.38,8.38,0,0,0-1.57-.68.85.85,0,0,0-.71.29.53.53,0,0,0,.21.74A14.08,14.08,0,0,0,156.63,71.92ZM159.9,61.4h-.23c0-.86,0-1.72,0-2.58,0-.4-.15-.95-.49-.9-.5.07-.64.6-.6,1.13.08,1,.11,2.1.21,3.14.15,1.49,0,2.85-1.37,3.77a.63.63,0,0,0-.07.51c.24.12.59.28.78.19A2.87,2.87,0,0,0,159.9,64C159.91,63.11,159.9,62.25,159.9,61.4Zm-10-11.68a9.47,9.47,0,0,1,4.9,1.34.53.53,0,0,0,.49-.14,1.45,1.45,0,0,0,0-.79c0-.14-.27-.25-.43-.35-2.55-1.56-5.24-1.49-8-.7a.77.77,0,0,0-.41.6.52.52,0,0,0,.61.46C148.05,50,149,49.85,149.93,49.71Zm14.67.22a8,8,0,0,0-2.88.68.65.65,0,0,0-.27.45c-.07.41.29.42.54.47a1,1,0,0,0,.56,0,6.17,6.17,0,0,1,5.29.32c.17.08.34.19.52.26.36.12.81.24.93-.23s-.27-.63-.63-.83A12.22,12.22,0,0,0,164.6,49.93Z"/><path class="cls-5" d="M249.83,75.5a28.39,28.39,0,0,1,.29-5.25,6.54,6.54,0,0,1,3.51-5,16,16,0,0,1,3.45-1.47,44.94,44.94,0,0,0,9.71-3.65,9.56,9.56,0,0,0,1.48-.89,2,2,0,0,1,2.78-.14,33.08,33.08,0,0,0,5.2,2.5,8.54,8.54,0,0,1,3.7,2.69c.8,1.1,2,1.83,2.67,3A15.65,15.65,0,0,1,284.7,75c0,1.06,0,2.12.09,3.18a.54.54,0,0,0,.57.52.9.9,0,0,0,.64-.46,16.33,16.33,0,0,0,.42-1.67,1.64,1.64,0,0,1,1.49-1.19,1.51,1.51,0,0,1,1.53.61c2.89,3.74,1.13,9.8-2.92,11.19-.92.31-1,.36-1.74-.77-.18-.26-.34-.45-.63-.36a.85.85,0,0,0-.38.41,1.09,1.09,0,0,0-.15.55c.14,2.79-.92,5.31-1.81,7.85a13.41,13.41,0,0,1-6.37,7.57c-2.83,1.52-5.94,1.3-9,.38a17.43,17.43,0,0,1-6-3.36,26.06,26.06,0,0,1-8.17-11A36.14,36.14,0,0,1,249.83,75.5ZM269,95.67c2.76,0,5.19-1.7,7.11-4.28a1.87,1.87,0,0,0,.22-.53,1.29,1.29,0,0,0-1-1.49,5.74,5.74,0,0,0-1.13.1c-2.55.37-5.1.76-7.66,1.11-1,.14-2.09.18-3.14.26a1.37,1.37,0,0,0-1.19.67c-.34.61,0,1.08.36,1.55C264,95,266.09,95.54,269,95.67Zm-5.38-21.5c-.05-.16-.06-.4-.17-.48a7.16,7.16,0,0,0-8.47.88.5.5,0,0,0,0,.73.62.62,0,0,0,.53.12,3.15,3.15,0,0,0,.74-.42,6.07,6.07,0,0,1,6.25-.62,1.76,1.76,0,0,0,.8.15C263.35,74.54,263.46,74.31,263.59,74.18ZM259.14,78a4.05,4.05,0,0,0-3.41,1.54.57.57,0,0,0,0,.51.55.55,0,0,0,.45.22,2.76,2.76,0,0,0,.77-.35,4.69,4.69,0,0,1,5.61.25,2.7,2.7,0,0,0,.74.42.69.69,0,0,0,.53-.13.49.49,0,0,0,.08-.74C262.78,78.47,261.25,78,259.14,78ZM279,71.74c.15-.5-.29-.72-.59-.79A9.58,9.58,0,0,0,271,72.4a.68.68,0,0,0-.3.44c0,.16.12.45.24.48a1.31,1.31,0,0,0,.78-.08c2.11-1,4.25-1.74,6.64-1,.14,0,.34-.1.49-.19S278.92,71.84,279,71.74Zm-2.63,4.67a5.64,5.64,0,0,0-4.51,2.68c-.06.11,0,.39.16.51a.49.49,0,0,0,.48,0c.38-.29.7-.65,1.07-.95a4.22,4.22,0,0,1,4.29-.87,5.15,5.15,0,0,0,.78.31c.28,0,.59,0,.6-.4a.74.74,0,0,0-.17-.51A4.09,4.09,0,0,0,276.35,76.4Zm-10.87,7.79a17.79,17.79,0,0,0,.24,2.12A2.28,2.28,0,0,0,268,88a1.07,1.07,0,0,0,.66-.45c.23-.31,0-.55-.3-.57-1.33-.12-1.72-.94-1.72-2.14a2,2,0,0,0-.5-1.57.65.65,0,0,0-.46,0C265.59,83.59,265.53,84,265.48,84.19Z"/><path class="cls-5" d="M253.46,118.66c1.19-1,2.27-1.77,3.3-2.64a8.13,8.13,0,0,0,3-5.75,19.44,19.44,0,0,0-.39-6.33c-.32-1.3-.58-2.61-.91-4.12,1.12.19,1.62.93,2.27,1.39a19.84,19.84,0,0,0,7.32,3.26,11.76,11.76,0,0,0,10.52-2.61c.58-.47.92-1.25,1.84-1.45a35.55,35.55,0,0,0,1.58,5.43,9.69,9.69,0,0,0,4,4.81,27.42,27.42,0,0,0,6.9,3.55c.75.21.9.59.66,1.29a4.22,4.22,0,0,1-.47,1,12.06,12.06,0,0,1-3.69,3.61,42.24,42.24,0,0,1-20.19,6.33,14.91,14.91,0,0,1-3.74-.28,25.26,25.26,0,0,1-7-2.61A10.57,10.57,0,0,1,253.46,118.66Z"/><path class="cls-4" d="M326.11,247c.48,1.22,1.2,2.2,1.17,3.16s-1.39,1.49-2.09,2.27c-2.78,3.06-6.46,4.84-9.91,6.93a43,43,0,0,1-9.39,4.4c-3.39,1.06-6.85,1.94-10.33,2.69A124.92,124.92,0,0,1,277,269c-3,.19-6,.62-8.94.57a72,72,0,0,1-7.5-.31c-3.54-.43-7.09-.75-10.58-1.49a75,75,0,0,1-12.5-3.49c-1.39-.56-1.69-.94-1.4-2.39.33-1.66.89-3.27,1.39-5.06,1.07.69,1.94,1.26,2.83,1.81a42.26,42.26,0,0,0,14,5.11,75.25,75.25,0,0,0,21.83,1.18A99.43,99.43,0,0,0,294,261.7c4.45-1.23,8.94-2.34,13.32-3.79,5.3-1.75,10.52-3.81,15-7.31C323.58,249.6,324.68,248.38,326.11,247Z"/><path class="cls-4" d="M252,117.55a9.32,9.32,0,0,0,4.65,6.57A25.37,25.37,0,0,0,267.09,128a24.39,24.39,0,0,0,8-.72,44.55,44.55,0,0,0,13.47-4.95c3-1.77,5.46-3.9,6.55-7.33.08-.25.27-.6.49-.66,1.45-.47,2.92-.89,4.4-1.3.41-.11.83.28.71.64a17.76,17.76,0,0,1-2.06,4.73,35.14,35.14,0,0,1-13.29,11.69,41,41,0,0,1-12.28,4c-9.7,1.4-17.32-2.11-23.36-9.54a13.43,13.43,0,0,1-2.4-3.92,1.08,1.08,0,0,1,.27-1.3A5.58,5.58,0,0,1,252,117.55Z"/><path class="cls-6" d="M48.08,49.56a4.74,4.74,0,0,1,1.82-1.45,2.32,2.32,0,0,1,3.24.89,12.83,12.83,0,0,1,1.3,2.56c.92,2.64,2.45,5,3.64,7.48a33.37,33.37,0,0,1,1.52,3.42,2.65,2.65,0,0,1-1.21,3.47c-1.13.79-1.33.86-3.56,1.17a5.94,5.94,0,0,0-.12-5.17A52.57,52.57,0,0,0,51,54.46C50,52.83,49.06,51.18,48.08,49.56Z"/><path class="cls-6" d="M327.9,113.1c-2.77-2.52-5-.94-7.22.82-.54-1.41-.31-2.4.84-3.16a6.56,6.56,0,0,0,1.53-1.29c1-1.28,1.6-2.72.4-4.19-.81-1-.35-1.73.15-2.59a7.38,7.38,0,0,1,3-2.6,3.8,3.8,0,0,1,2.53-.31,1.76,1.76,0,0,1,1.52,2.31C329.43,105.54,329,109.19,327.9,113.1Z"/><path class="cls-6" d="M336.15,110.79c-2.78-1.18-2.95-1.17-5.89.29-.5-.5-.18-1-.05-1.55.45-1.87.86-3.75,1.38-5.6a4.63,4.63,0,0,1,4.45-3.47,1.65,1.65,0,0,1,1.88,2c-.46,2.74-1,5.47-1.56,8.2C336.36,110.69,336.23,110.73,336.15,110.79Z"/><path class="cls-6" d="M61.27,64c-.73-3.36-2.34-6.29-3.88-9.26-.83-1.61-1.48-3.31-2.19-5a.7.7,0,0,1,.69-1,3.7,3.7,0,0,1,2.92,1.57c.47.72.9,1.47,1.33,2.21,1.08,1.91,2.1,3.86,3.24,5.74A10.25,10.25,0,0,1,64.56,61c.48,1.73.48,1.71-1.31,2.29C62.62,63.45,62,63.73,61.27,64Z"/><path class="cls-6" d="M345.28,109.12c-2.16-1.21-4.31-1.88-6.54.23a35.36,35.36,0,0,1,1.36-6.3,3.63,3.63,0,0,1,1.92-2.41,3.17,3.17,0,0,1,3.55.14,3.1,3.1,0,0,1,.91,3.15C346.15,105.63,345.7,107.3,345.28,109.12Z"/><path class="cls-6" d="M315.71,103.89a17.74,17.74,0,0,0-.78,2.57,2.78,2.78,0,0,0,3.25,3.09,2.24,2.24,0,0,0,1.54-1.2c.5-.82.92-1.69,1.39-2.52.08-.15.34-.35.43-.31a1.2,1.2,0,0,1,.64.5,2.51,2.51,0,0,1-.7,3.13,5.94,5.94,0,0,1-2,1.2,11.24,11.24,0,0,1-7.9-.1,4.49,4.49,0,0,1-1-.58,2,2,0,0,1-.61-2.59,1.37,1.37,0,0,1,.1-.27A6.32,6.32,0,0,1,315.71,103.89Z"/><path class="cls-5" d="M360.41,30.18a5.18,5.18,0,0,1-4.94-4.68,2.69,2.69,0,0,1,3.25-3A6.35,6.35,0,0,1,363.45,27C363.81,28.87,362.5,30.24,360.41,30.18Z"/><path class="cls-6" d="M348,105.82a9.26,9.26,0,0,1,1.15-4.75,2.81,2.81,0,0,1,4.42-.64,1.53,1.53,0,0,1,.42,2.06c-.8.94-.85,2.13-1.37,3.15a3.66,3.66,0,0,1-2.72,2.32,1.41,1.41,0,0,1-1.81-1.32C348.05,106.26,348,105.88,348,105.82Z"/><path class="cls-6" d="M330,115.31c.14-1.6.63-3.09,2.38-3.8a2.83,2.83,0,0,1,3.5,1.63,1.3,1.3,0,0,1,0,.54,4.66,4.66,0,0,1-3.34,3.87C331.3,117.89,329.49,116.65,330,115.31Z"/><path class="cls-5" d="M251.75,90.81a2.29,2.29,0,0,1-2.39-.48,7.33,7.33,0,0,1-2.93-6.54,2,2,0,0,1,1-1.66c.76-.51,1.65-.28,1.78.61C249.59,85.53,250.82,88,251.75,90.81Z"/><path class="cls-6" d="M321.12,116.7a3.85,3.85,0,0,1,3.45-3.58,2.19,2.19,0,0,1,2,1,1.89,1.89,0,0,1,.2,2.14,5.77,5.77,0,0,1-2.12,2.27,2.75,2.75,0,0,1-3-.27A1.64,1.64,0,0,1,321.12,116.7Z"/><path class="cls-6" d="M61,66.36A19.23,19.23,0,0,0,61,69a3.69,3.69,0,0,0,2.27,2.77,2,2,0,0,0,2.35-.53,6,6,0,0,0,1.77-3.83c0-.56-.27-1.14.08-1.74A1.83,1.83,0,0,1,69,67.1a4.11,4.11,0,0,1-.13,2.82A5.34,5.34,0,0,1,60,71.2a2,2,0,0,1-.48-1A4.79,4.79,0,0,1,61,66.36Z"/><path class="cls-6" d="M344.3,111.65a2.1,2.1,0,0,1-.58,1.54,4.55,4.55,0,0,1-2.11,1.44,2,2,0,0,1-2.34-.59,1.64,1.64,0,0,1-.23-2c.85-2,1.58-2.62,3.3-2.46A2.1,2.1,0,0,1,344.3,111.65Z"/><path class="cls-6" d="M66.24,67.3a5.18,5.18,0,0,1-1.22,3,1.14,1.14,0,0,1-1.54.19,2.51,2.51,0,0,1-.95-3.26,5.8,5.8,0,0,1,.91-1.44c.37-.42.85-.85,1.48-.64a1.85,1.85,0,0,1,1.27,1.44A4.1,4.1,0,0,1,66.24,67.3Z"/><path class="cls-4" d="M105.39,194.56a11.25,11.25,0,0,1-3.25.27c-.67-1.85-.36-3.79-.62-5.95a4.51,4.51,0,0,1,1.55,1.72,22.32,22.32,0,0,1,1.19,2C104.65,193.23,105,193.9,105.39,194.56Z"/><path class="cls-6" d="M320.26,104.59c-.48,1-1,2-1.49,2.94-.28.51-.66.94-1.35.72a1.54,1.54,0,0,1-1.2-1.43,3.11,3.11,0,0,1,1.65-2.79A1.84,1.84,0,0,1,320.26,104.59Z"/><path class="cls-5" d="M365,27.11c.75,0,.88.69,1.16,1.15.52.82.34,1.14-.65,1.3-.69.11-.92,0-.87-.63s.08-1,.15-1.42A1.33,1.33,0,0,1,365,27.11Z"/><path class="cls-7" d="M101.9,213.75c.18.45.18.45-.15.72C101.58,214.18,101.55,213.93,101.9,213.75Z"/><path class="cls-4" d="M237.62,120.35A70,70,0,0,1,222,113c-3-1.89-6-3.85-8.94-5.87a47.49,47.49,0,0,0-16.56-7.26,70.06,70.06,0,0,0-12.69-1.55,19.89,19.89,0,0,0,0,2.95c1,6.36.31,12.69-.19,19a14.72,14.72,0,0,1-1.79,5.17,3.85,3.85,0,0,1-.92,1.09,1.37,1.37,0,0,1-2.06,0,18.89,18.89,0,0,1-1.41-1.82c-2.26-3-2.53-2.87-5.66-1.17-.67.37-1.24.91-1.88,1.34a.46.46,0,0,1-.72-.15.55.55,0,0,1,.19-.75c.93-.69,1.86-1.37,2.81-2,2.19-1.49,3.49-1.34,5.28.65.64.71,1.13,1.56,1.71,2.33a.77.77,0,0,0,1.39,0,13.85,13.85,0,0,0,1.55-4.63,60.8,60.8,0,0,0,.8-8.63,68.62,68.62,0,0,0-.64-12.12,7.82,7.82,0,0,0-1.72-3.92,43.1,43.1,0,0,0-9.24-8.26c-.31-.2-.62-.47-1,.1a18,18,0,0,0,.94,1.71,24.71,24.71,0,0,0,2.09,2.77,13.82,13.82,0,0,1,3.46,9.56A29.09,29.09,0,0,1,174.8,113a18.93,18.93,0,0,1-6.17,8.54c-.46.34-.86.78-1.33,1.12a5.38,5.38,0,0,0-2.09,3.66,11.2,11.2,0,0,0-.15,3.73c.24,1.52.22,3.08.33,4.61.26,3.61-1.63,6.23-4,8.62a.89.89,0,0,1-1.29,0,7.38,7.38,0,0,1-1-1,20,20,0,0,1-4-7,3.24,3.24,0,0,0-2-2.22,15.85,15.85,0,0,1-4.07-2.7,10,10,0,0,1-3.1-4.44c-.72-2.19-1.3-4.42-2-6.62-1.8-5.69-3.72-11.34-5.52-17A77.49,77.49,0,0,1,135.84,92c-.14-.83-.51-1.81,0-2.53.33-.46,1.18-.53,1.75-.87.91-.54,1.79-1.14,2.65-1.77a5.27,5.27,0,0,0,1-1,.51.51,0,0,0,0-.49.74.74,0,0,0-.5-.16,1.3,1.3,0,0,0-.56.11,53.9,53.9,0,0,1-7.94,2.59,16.63,16.63,0,0,0-3.62,1.77A3,3,0,0,0,127,91.9c-.07.48-.08,1-.12,1.44a61.9,61.9,0,0,0,.17,9.81c.41,5.58.76,11.16,1.15,16.74a5.71,5.71,0,0,0,.75,3.23c.65,0,.85-.49,1.13-.88,1-1.4,2.07-2.79,3.06-4.21a4.82,4.82,0,0,1,2-1.63c1.69-.8,2.51-.71,3.9.63,2.25,2.17,3.68,4.92,5.31,7.54a.86.86,0,0,1-.14.78c-.33.37-.7.07-1-.15a2.57,2.57,0,0,1-.53-.66c-.64-1-1.23-2-1.9-2.9a40.68,40.68,0,0,0-2.65-3.42,1.81,1.81,0,0,0-2.8-.23,6.46,6.46,0,0,0-1.17,1.25c-1.29,1.68-2.52,3.41-3.83,5.07-.88,1.12-2.1.93-2.77-.33a6.69,6.69,0,0,1-.59-2.81q-.33-4.76-.67-9.51c-.35-4.9-.73-9.8-1-14.71-.09-1.44,0-2.89.05-4.34,0-.77-.23-1-1-1a110.15,110.15,0,0,1-12.43-.24c-2.21-.18-4.42-.31-6.64-.4a37.72,37.72,0,0,0-12.29,1.35,91.33,91.33,0,0,0-14.17,5.74c-4,1.93-7.81,4.13-11.92,5.79a2.54,2.54,0,0,0-.62.52c.07.23.07.46.18.58a29.87,29.87,0,0,1,6.34,12.8c1.57,6.09,1.37,12.23.73,18.39a20.87,20.87,0,0,1-3.14,9.21c-.14.21-.06.38.39.53,2.39-.54,5-1.07,7.63-1.73A121,121,0,0,1,91.78,142,1.69,1.69,0,0,1,94,143.35c.61,1.72,1.17,3.46,1.61,5.23a87.64,87.64,0,0,1,1.92,14.61,22.28,22.28,0,0,0,.72,4.85c3.77.79,7.42,2,11.25,2.55,3.44.45,6.86,1,10.29,1.48,2.1.29,4.22.43,6.31.75a76.5,76.5,0,0,0,14.44.41,22.22,22.22,0,0,0,4.28-.65,28.36,28.36,0,0,1,8.93-.29c4.23.35,8.45.74,12.67,1.13s8.27.48,12.4.83c5.76.49,11.57.58,17.24-1,1.49-.4,3-.89,4.42-1.36a5.39,5.39,0,0,1,3.09-.35h0c.55.08.47-.31.47-.64a11.83,11.83,0,0,0,.58-1.32,32.4,32.4,0,0,1,4.61-9.9,6.47,6.47,0,0,0,1.26-2.57c.9-4.63,2-9.22,2.74-13.87a42.6,42.6,0,0,1,2.39-8.61,17.29,17.29,0,0,1,11-10.31c2.72-.94,5.61-1.4,8.42-2.08,1.27-.31,2.62-.43,3.71-1.46C238.33,120.64,238,120.46,237.62,120.35Zm-87.1,18.78a1.86,1.86,0,0,1-1.69-2,2,2,0,1,1,4.08,0A2.25,2.25,0,0,1,150.52,139.13Zm39.36,13.06a15.24,15.24,0,0,1-1.85.28,8.76,8.76,0,0,1-8.91-7.19,11,11,0,0,1,3.09-10.58,10,10,0,0,1,6.42-3,8.37,8.37,0,0,1,8.6,5.12A11.24,11.24,0,0,1,189.88,152.19Z"/><polygon class="cls-7" points="101.95 196.76 101.95 196.79 101.79 196.76 101.95 196.76"/><path class="cls-1" d="M250,178.72c.23.21.54.36.61.58.43,1.27.83,2.56,1.21,3.85a174.3,174.3,0,0,0,7.36,19.72c2.93,6.79,5.65,13.69,9.26,20.17,1.83,3.27,3.87,6.43,5.82,9.64a15.46,15.46,0,0,1,1,1.75.81.81,0,0,1-.31.71.85.85,0,0,1-.79-.05,4.72,4.72,0,0,1-.92-1.09,146.23,146.23,0,0,1-8.06-13.33c-1.93-3.87-3.65-7.84-5.36-11.81-2.06-4.76-4-9.56-6-14.36a127.48,127.48,0,0,1-4.19-12.6,4.92,4.92,0,0,1-.26-2.56C249.43,179.11,249.76,179,250,178.72Z"/><path class="cls-1" d="M150.52,139.13a1.86,1.86,0,0,1-1.69-2,2,2,0,1,1,4.08,0A2.25,2.25,0,0,1,150.52,139.13Zm1.09-1.91a.77.77,0,0,0-.56-.84.6.6,0,0,0-.82.54.7.7,0,0,0,.51.88C151.16,137.92,151.44,137.65,151.61,137.22Z"/><path class="cls-1" d="M125.12,198.12c-.54-.78-1-1.61-1.64-2.35-2.3-2.84-4.4-5.82-6.41-8.86a3.27,3.27,0,0,1-.41-1c0-.13.15-.32.27-.45s.2,0,.28,0a2.23,2.23,0,0,1,.72.43,34,34,0,0,1,2.31,2.94,72.37,72.37,0,0,0,6.77,8.56,114.77,114.77,0,0,0,11.18,12.08,106.68,106.68,0,0,0,14.33,11.64c5.64,3.85,11.21,7.8,16.85,11.66a79.78,79.78,0,0,0,13.57,7.62c.58.25,1.38.31,1.39,1.21,0,.56-.88.62-2,.17A81.52,81.52,0,0,1,168.5,234c-3.78-2.48-7.53-5-11.22-7.62-4.48-3.17-9.05-6.2-13.3-9.68a132.73,132.73,0,0,1-17.18-17.05A4.88,4.88,0,0,0,125.12,198.12Z"/><path class="cls-1" d="M151.16,99.56c-.09.07-.23.29-.36.29a1.21,1.21,0,0,1-.78-.22,9.8,9.8,0,0,0-5.14-2.37c-1.77-.41-3.52-1-5.26-1.46-.25-.07-.52-.29-.33-.65a.63.63,0,0,1,.71-.35c2.7.68,5.4,1.34,8.08,2.09A6.17,6.17,0,0,1,151,98.74.65.65,0,0,1,151.16,99.56Z"/><path class="cls-1" d="M166.57,99.48c-.08-.15-.25-.34-.22-.47a1.2,1.2,0,0,1,.41-.7,22.47,22.47,0,0,1,5.8-2.32c.13,0,.36.11.48.24.26.29,0,.53-.19.67a8.1,8.1,0,0,1-1.25.66c-1.58.65-3.17,1.28-4.76,1.91A.8.8,0,0,1,166.57,99.48Z"/><path class="cls-1" d="M161.32,123.47c0-1.9,0-3.23,0-4.56,0-.37,0-.81.51-.78a.61.61,0,0,1,.57.53,13.56,13.56,0,0,1-.21,6,.83.83,0,0,1-.58.53c-.49,0-.54-.42-.46-.82S161.34,123.38,161.32,123.47Z"/><path class="cls-1" d="M159,120.07c-.07-1-.2-2.43-.28-3.87,0-.27.11-.6.5-.53a.61.61,0,0,1,.41.31,5.88,5.88,0,0,1,.4,1.37,23.37,23.37,0,0,1-.05,5.19c0,.45-.17,1-.83.92-.49-.08-.41-.54-.37-.93C158.84,121.87,158.9,121.19,159,120.07Z"/><path class="cls-1" d="M160.1,129.46c-.08.42-.17,1.09-.34,1.73a.93.93,0,0,1-.72.77c-.38.07-.67-.42-.49-1.12a14.84,14.84,0,0,0,.3-3.71c0-.12.22-.32.36-.35a.57.57,0,0,1,.47.2A5.3,5.3,0,0,1,160.1,129.46Z"/><path class="cls-1" d="M157.26,123.3a4.87,4.87,0,0,1-.36,2.23.6.6,0,0,1-.47.21c-.15,0-.41-.17-.41-.28q-.11-2.26-.14-4.53c0-.1.26-.26.41-.28a.63.63,0,0,1,.49.18C157.37,121.57,157.14,122.48,157.26,123.3Z"/><path class="cls-1" d="M151.46,56.89a10.58,10.58,0,0,1-4.2-.88,1.52,1.52,0,0,1-1.13-1.51,2,2,0,0,1,1.27-1.75,7.46,7.46,0,0,1,5.85.57,2.07,2.07,0,0,1,1.3,2,2.16,2.16,0,0,1-1.94,1.46C152.23,56.87,151.85,56.87,151.46,56.89ZM149,54.6c-.12-.37.16-1-.59-1-.44,0-.94.22-1,.81s.51.71.94.83S148.89,55,149,54.6Zm3.87,1c.27-.11.49-.26.4-.59s-.17-.59-.52-.39a.92.92,0,0,0-.42.61C152.27,55.52,152.53,55.64,152.83,55.59Z"/><path class="cls-1" d="M164.68,53.91a11,11,0,0,1,3.56.59A1.52,1.52,0,0,1,169,57a2.52,2.52,0,0,1-1.09.88,8.54,8.54,0,0,1-5.87-.27,3,3,0,0,1-.91-.67,1.44,1.44,0,0,1,.14-2.25A5.11,5.11,0,0,1,164.68,53.91Zm-.92,2c0-.35,0-.67-.53-.68s-1.15.49-1,.74a1.14,1.14,0,0,0,1,.79C163.77,56.72,163.72,56.3,163.76,55.87Zm4.27.18a.87.87,0,0,0-.78-.7c-.66,0-.64.58-.66,1s.38.56.78.47A.7.7,0,0,0,168,56.06Z"/><path class="cls-1" d="M156.63,71.92a14.08,14.08,0,0,1-6-1.94.53.53,0,0,1-.21-.74.85.85,0,0,1,.71-.29,8.38,8.38,0,0,1,1.57.68,8.79,8.79,0,0,0,7.75.24c.61-.25,1.21-.52,1.84-.73a.55.55,0,0,1,.48.2.57.57,0,0,1-.06.52,4.38,4.38,0,0,1-2,1.09A14.82,14.82,0,0,1,156.63,71.92Z"/><path class="cls-1" d="M159.9,61.4c0,.86,0,1.72,0,2.57a2.87,2.87,0,0,1-1.76,2.7c-.19.09-.54-.07-.78-.19a.63.63,0,0,1,.07-.51c1.41-.92,1.52-2.28,1.37-3.77-.1-1-.13-2.09-.21-3.14,0-.53.1-1.06.6-1.13.33,0,.48.5.49.9,0,.86,0,1.72,0,2.58Z"/><path class="cls-1" d="M149.93,49.71c-.94.14-1.88.3-2.82.42a.52.52,0,0,1-.61-.46.77.77,0,0,1,.41-.6c2.75-.79,5.45-.86,8,.7.16.1.39.2.43.35a1.45,1.45,0,0,1,0,.79.53.53,0,0,1-.49.14A9.47,9.47,0,0,0,149.93,49.71Z"/><path class="cls-1" d="M164.6,49.93A12.22,12.22,0,0,1,168.67,51c.35.21.74.42.63.83s-.57.35-.93.23c-.18-.06-.34-.18-.52-.26a6.17,6.17,0,0,0-5.29-.32,1,1,0,0,1-.56,0c-.26,0-.61-.06-.54-.47a.65.65,0,0,1,.27-.45A8,8,0,0,1,164.6,49.93Z"/><path class="cls-1" d="M269,95.67c-2.87-.14-4.94-.69-6.42-2.61-.36-.47-.7-.94-.36-1.55a1.37,1.37,0,0,1,1.19-.67c1-.08,2.1-.12,3.14-.26,2.56-.35,5.11-.74,7.66-1.11a5.74,5.74,0,0,1,1.13-.1,1.29,1.29,0,0,1,1,1.49,1.87,1.87,0,0,1-.22.53C274.15,94,271.72,95.65,269,95.67Zm-3.88-3.89c1.05,1.29,2.32,1,3.38,1.29,2.22.51,4.11-.37,5.93-1.51.2-.12.31-.28.2-.48s-.27-.29-.39-.28C271.26,91.11,268.32,91.43,265.08,91.78Z"/><path class="cls-1" d="M263.59,74.18c-.12.13-.24.36-.36.37a1.76,1.76,0,0,1-.8-.15,6.07,6.07,0,0,0-6.25.62,3.15,3.15,0,0,1-.74.42.62.62,0,0,1-.53-.12.5.5,0,0,1,0-.73,7.16,7.16,0,0,1,8.47-.88C263.53,73.77,263.53,74,263.59,74.18Z"/><path class="cls-1" d="M259.14,78c2.11,0,3.64.45,4.82,1.73a.49.49,0,0,1-.08.74.69.69,0,0,1-.53.13,2.7,2.7,0,0,1-.74-.42,4.69,4.69,0,0,0-5.61-.25,2.76,2.76,0,0,1-.77.35.55.55,0,0,1-.45-.22.57.57,0,0,1,0-.51A4.05,4.05,0,0,1,259.14,78Z"/><path class="cls-1" d="M279,71.74c-.06.1-.08.22-.15.26s-.36.23-.49.19c-2.38-.7-4.53,0-6.64,1a1.31,1.31,0,0,1-.78.08c-.11,0-.25-.31-.24-.48a.68.68,0,0,1,.3-.44,9.58,9.58,0,0,1,7.4-1.44C278.69,71,279.13,71.23,279,71.74Z"/><path class="cls-1" d="M276.35,76.4a4.09,4.09,0,0,1,2.7.81.74.74,0,0,1,.17.51c0,.38-.32.45-.6.4a5.15,5.15,0,0,1-.78-.31,4.22,4.22,0,0,0-4.29.87c-.37.3-.69.66-1.07.95a.49.49,0,0,1-.48,0c-.12-.11-.22-.39-.16-.51A5.64,5.64,0,0,1,276.35,76.4Z"/><path class="cls-1" d="M265.48,84.19c0-.23.11-.6.22-1a.65.65,0,0,1,.46,0,2,2,0,0,1,.5,1.57c0,1.2.39,2,1.72,2.14.26,0,.53.26.3.57A1.07,1.07,0,0,1,268,88a2.28,2.28,0,0,1-2.32-1.7A17.79,17.79,0,0,1,265.48,84.19Z"/><path class="cls-4" d="M196.71,141.85c.07,2.89-1.41,5.27-3.7,7.23a7.73,7.73,0,0,1-11.74-1.77,8.25,8.25,0,0,1-1.13-4.69,9.38,9.38,0,0,1,5.3-8.62C191.11,131.13,197.06,135.23,196.71,141.85Z"/><path class="cls-6" d="M151.61,137.22c-.16.43-.44.7-.87.59a.7.7,0,0,1-.51-.88.6.6,0,0,1,.82-.54A.77.77,0,0,1,151.61,137.22Z"/><path class="cls-6" d="M149,54.6c-.08.36,0,.81-.61.65s-1-.21-.94-.83.51-.78,1-.81C149.12,53.56,148.85,54.23,149,54.6Z"/><path class="cls-6" d="M152.84,55.59c-.31.06-.57-.07-.54-.37a.92.92,0,0,1,.42-.61c.35-.2.45.14.52.39S153.1,55.48,152.84,55.59Z"/><path class="cls-6" d="M163.76,55.87c0,.43,0,.85-.53.86a1.14,1.14,0,0,1-1-.79c-.11-.24.62-.75,1-.74S163.8,55.53,163.76,55.87Z"/><path class="cls-6" d="M168,56.06a.7.7,0,0,1-.65.79c-.4.09-.8.06-.78-.47s0-1.06.66-1A.87.87,0,0,1,168,56.06Z"/><path class="cls-6" d="M265.08,91.78c3.23-.35,6.17-.67,9.12-1,.12,0,.32.15.39.28s0,.35-.2.48c-1.82,1.14-3.72,2-5.93,1.51C267.4,92.82,266.13,93.08,265.08,91.78Z"/></svg>