<svg width="345" height="358" viewBox="0 0 345 358" fill="none" xmlns="http://www.w3.org/2000/svg">
<path d="M173.89 190.67C173.867 194.677 174.239 198.676 175 202.61C175.46 205.5 176 208.38 176.5 211.25C176.586 211.595 176.541 211.959 176.375 212.272C176.209 212.586 175.933 212.827 175.6 212.95C174.436 213.505 173.24 213.993 172.02 214.41C166.33 216.27 160.66 218.17 155.16 220.54C151.59 222.08 147.76 222.78 144 223.7C140.24 224.62 136.43 225.32 132.69 226.29C129.69 227.05 126.69 227.29 123.69 227.91C121.28 228.41 119.78 226.91 119.33 224.86C118.011 219.363 117.967 213.637 119.2 208.12C119.306 207.663 119.526 207.24 119.84 206.89C123.11 203.5 126.51 200.21 131.11 198.76C134.74 197.62 137.02 195.1 139.11 192.18C139.933 191.167 140.35 189.884 140.28 188.58C140.209 186.939 140.387 185.297 140.81 183.71C141.355 181.658 141.265 179.489 140.55 177.49C140.09 176.33 140.25 174.94 140 173.69C139.952 173.158 139.781 172.644 139.501 172.189C139.221 171.734 138.839 171.35 138.386 171.067C137.932 170.784 137.419 170.61 136.888 170.559C136.356 170.507 135.819 170.579 135.32 170.77C134.42 171.021 133.547 171.356 132.71 171.77C131.34 172.44 130.02 173.21 128.66 173.9C125.186 175.633 121.362 176.547 117.48 176.57C116.07 176.549 114.667 176.364 113.3 176.02C111.36 175.6 109.41 175.21 107.46 174.8C106.424 174.598 105.35 174.802 104.46 175.37C103.65 175.842 102.872 176.367 102.13 176.94C101.529 177.523 100.733 177.862 99.8957 177.892C99.0587 177.922 98.2406 177.639 97.5999 177.1C95.8999 175.69 94.4199 175.97 92.8099 177.03C92.2199 177.42 91.5699 177.71 91.0199 178.14C89.9399 179 89.0199 178.42 88.8099 177.14C88.6937 176.322 88.8298 175.489 89.1999 174.75C90.9199 171.03 92.3999 167.2 94.2799 163.54C97.5499 157.18 100.95 150.88 103.7 144.26C105.195 140.552 107.312 137.126 109.96 134.13C110.384 133.724 110.748 133.259 111.04 132.75C112.76 129.05 116.2 127.39 119.56 125.81C122.772 124.374 126.06 123.116 129.41 122.04C130.93 121.52 132.5 120.91 134.22 121.33C134.803 121.412 135.396 121.35 135.95 121.15C140.56 119.862 145.255 118.899 150 118.27C151.06 118.12 151.23 117.43 151.42 116.58C151.466 116.476 151.537 116.385 151.625 116.314C151.713 116.242 151.818 116.193 151.929 116.17C152.04 116.146 152.155 116.149 152.265 116.179C152.374 116.209 152.476 116.264 152.56 116.34C152.728 116.502 152.873 116.688 152.99 116.89C154.92 121.28 158.32 124.57 161.39 128.1C162.08 128.9 162.85 129.63 163.54 130.43C165.464 132.653 167.693 134.592 170.16 136.19C176.93 140.59 184.16 143.82 192.24 144.84C194.669 145.268 197.171 144.918 199.39 143.84C205.29 140.84 211.7 139.34 218.19 138.18C218.516 138.093 218.854 138.062 219.19 138.09C222.19 138.69 224.72 137.59 227.19 136.24C227.581 135.978 228.019 135.794 228.48 135.7C231.19 135.47 232.94 133.7 234.57 131.85C239.004 126.987 242.594 121.417 245.19 115.37C245.37 114.94 245.56 114.51 245.78 114.09C246.33 113.03 246.5 113.09 247.97 113.39C250.137 113.897 252.317 114.343 254.51 114.73C255.539 115.013 256.631 114.964 257.63 114.59C258.842 114.097 260.195 114.079 261.42 114.54C265.19 115.69 269 116.79 272.22 119.22C274.09 120.63 276.22 121.69 277.84 123.41C278.135 123.775 278.543 124.032 279 124.14C280.64 124.25 281.49 125.41 282.3 126.53C284.09 129 285.89 131.47 287.46 134.08C289.27 137.08 290.85 140.25 292.51 143.35C292.885 143.948 293.168 144.598 293.35 145.28C294 148.78 295.64 151.92 296.93 155.19C299.683 162.546 302.02 170.051 303.93 177.67C306.53 187.29 308.93 196.95 311.46 206.6C312.31 209.89 313.06 213.21 313.97 216.49C314.75 219.31 315.72 222.08 316.53 224.89C316.96 226.38 316.78 226.72 315.26 227.21C311.69 228.38 308.11 229.51 304.52 230.58C294.61 233.58 285.04 237.39 275.47 241.26C273.08 242.26 270.61 242.98 268.18 243.84C267.86 243.992 267.497 244.027 267.153 243.939C266.81 243.851 266.508 243.647 266.3 243.36C264.71 241.36 262.78 239.58 261.62 237.22C261.308 236.59 260.856 236.04 260.3 235.61C258.6 234.33 259.13 233.44 260.3 232.55C264.3 229.44 267.19 225.2 270.83 221.71C271.688 220.743 272.387 219.646 272.9 218.46C275.653 212.877 277.647 206.951 278.83 200.84C279.473 197.855 279.742 194.802 279.63 191.75C279.579 190.108 279.731 188.466 280.08 186.86C280.482 185.015 280.389 183.097 279.81 181.3C277.258 173.124 273.807 165.255 269.52 157.84C268.867 156.59 267.941 155.503 266.81 154.66C266.028 154.119 265.351 153.441 264.81 152.66C262.488 149.556 259.753 146.783 256.68 144.42C254.21 142.23 251.256 140.658 248.06 139.83C246.35 139.43 244.69 138.83 243.06 138.3C239.66 137.2 236.14 137.18 232.62 137.13C232.152 137.145 231.695 137.276 231.29 137.51C228.56 139 225.5 139.36 222.57 140.17C221.463 140.592 220.251 140.648 219.11 140.33C218.424 140.16 217.704 140.198 217.04 140.44C214.87 140.95 212.7 141.44 210.52 141.88C207.768 142.49 205.11 143.469 202.62 144.79C200.598 145.985 198.468 146.99 196.26 147.79C195.72 148.022 195.233 148.363 194.83 148.79C188.069 154.485 182.724 161.674 179.22 169.79C177.045 174.967 175.315 180.319 174.05 185.79C173.833 187.407 173.78 189.042 173.89 190.67Z" fill="#FDA354"/>
<path d="M191.1 323.1C183.94 323.1 176.78 323.1 169.62 323.1C162.46 323.1 155.07 323 147.79 322.9C144.51 322.9 141.22 322.67 137.94 322.64C136.07 322.64 134.2 322.87 132.32 322.89C130.44 322.91 130.05 322.48 129.91 320.65C129.75 318.54 129.61 316.43 129.57 314.32C129.49 309.32 129.38 304.26 128.99 299.22C128.3 290.34 127.28 281.5 126.26 272.66C125.85 269.06 125.1 265.47 125.35 261.8C125.35 261.1 125.35 260.39 125.47 259.7C125.472 259.433 125.531 259.169 125.642 258.926C125.754 258.683 125.915 258.467 126.117 258.291C126.318 258.115 126.554 257.984 126.81 257.906C127.066 257.829 127.335 257.806 127.6 257.84C132.37 257.84 136.84 256.42 141.32 255.02C153.52 251.2 165.75 247.48 177.94 243.64C182.86 242.09 187.76 240.45 192.59 238.64C193.449 238.278 194.385 238.138 195.312 238.23C196.24 238.323 197.129 238.646 197.9 239.17C202.449 241.862 207.474 243.655 212.7 244.45C218.694 245.609 224.799 246.085 230.9 245.87C231.365 245.822 231.834 245.822 232.3 245.87C232.829 245.886 233.341 246.067 233.762 246.388C234.183 246.709 234.494 247.154 234.65 247.66C235.29 249.77 236.81 251.17 238.42 252.6C242.54 256.26 246.61 259.99 250.52 263.88C252.84 266.18 254.79 268.88 256.98 271.29C258.44 272.92 259.63 274.9 261.98 275.52C262.201 275.609 262.387 275.77 262.506 275.976C262.626 276.183 262.673 276.423 262.64 276.66C262.675 277.714 262.645 278.769 262.55 279.82C261.6 287.97 261.07 296.18 258.55 304.07C258.237 304.833 258.101 305.657 258.15 306.48C258.64 309.57 257.6 312.54 257.55 315.58C257.579 316.168 257.471 316.755 257.235 317.295C256.999 317.834 256.642 318.312 256.19 318.69C255.58 319.18 255.74 319.86 256.01 320.6C256.45 321.84 256.1 322.35 254.84 322.42C251.44 322.61 248.05 322.81 244.65 322.85C235.61 322.963 226.573 323.03 217.54 323.05C208.71 323.12 199.91 323.1 191.1 323.1Z" fill="#FDA354"/>
<path d="M86.1799 202.94C86.1799 203.17 86.0499 204.21 85.8999 205.26C85.7127 206.523 85.7499 207.81 86.0099 209.06C86.5899 211.95 86.0699 214.9 85.9299 217.82C85.8699 219.05 85.0799 219.6 83.7899 219.67C83.0899 219.67 82.3799 219.67 81.6799 219.67C79.8499 219.62 79.5899 219.33 80.0299 217.59C80.8299 214.41 81.6799 211.24 82.5199 208.06C82.9053 206.709 83.1203 205.315 83.1599 203.91C83.2486 202.744 83.4769 201.592 83.8399 200.48C83.8936 200.182 84.0565 199.914 84.2968 199.729C84.5372 199.544 84.8377 199.455 85.1399 199.48C85.8599 199.48 86.1399 200.03 86.1399 200.66C86.2199 201.17 86.1799 201.65 86.1799 202.94Z" fill="#FDA354"/>
<path d="M110.61 280.77C111.956 280.072 113.084 279.017 113.87 277.72C114.803 276.069 116.192 274.722 117.87 273.84C118.839 273.421 119.676 272.744 120.289 271.884C120.903 271.024 121.269 270.013 121.35 268.96C121.45 268.26 121.48 267.55 122.35 267.29C123.97 266.79 123.96 265.29 123.94 264.12C123.882 262.484 123.654 260.859 123.26 259.27C122.66 256.65 122.02 254.03 121.19 251.48C120.612 249.94 120.494 248.266 120.85 246.66C121.94 242.44 121.34 238.24 120.58 234.13C119.58 228.82 119.46 223.44 118.65 218.13C118.49 217.13 118.44 216.03 118.29 214.99C117.29 207.92 120.01 203.48 125.93 199.79C127.803 198.587 129.855 197.689 132.01 197.13C132.755 196.96 133.447 196.612 134.027 196.116C134.607 195.619 135.058 194.989 135.34 194.28C135.4 194.179 135.436 194.067 135.445 193.95C135.455 193.834 135.438 193.717 135.395 193.608C135.353 193.499 135.286 193.401 135.2 193.322C135.115 193.242 135.012 193.184 134.9 193.15C134.02 192.81 133.16 192.47 132.33 193.36C131.857 193.869 131.307 194.301 130.7 194.64C128.26 195.98 127.79 195.53 126.53 193.93C126.087 193.416 125.485 193.064 124.82 192.93C124.507 192.861 124.211 192.728 123.952 192.539C123.693 192.35 123.476 192.109 123.315 191.832C123.154 191.554 123.053 191.246 123.018 190.927C122.982 190.609 123.014 190.286 123.11 189.98C123.16 189.818 123.247 189.67 123.363 189.547C123.479 189.424 123.622 189.329 123.78 189.27C124.02 189.2 124.57 189.44 124.6 189.62C124.83 190.75 125.38 191.18 126.6 190.91C127.1 190.8 127.21 191.45 127.45 191.84C128.55 193.69 129.33 193.84 131.03 192.49C131.49 192.13 131.91 191.72 132.35 191.33C132.79 190.94 133.15 190.63 133.59 190.82C135.27 191.52 135.89 190.36 136.59 189.24C136.99 188.56 137.18 187.69 138.22 187.64C138.73 187.64 138.99 187.22 139.22 186.76C140.064 184.576 140.612 182.289 140.85 179.96C140.98 178.96 140.37 178.35 139.15 178.3C138.104 178.198 137.072 177.987 136.07 177.67C134.07 177.16 132.68 176.12 132.94 173.75C131.81 173.46 131.05 174.09 130.26 174.44C127.846 175.617 125.302 176.506 122.68 177.09C120.967 177.486 119.184 177.465 117.48 177.03C116.02 176.61 114.48 176.42 113.04 176.03C108.89 174.89 105.18 175.54 102.04 178.56C101.858 178.787 101.631 178.973 101.372 179.105C101.114 179.238 100.83 179.315 100.54 179.33C99.97 179.33 99.91 178.69 99.54 178.45C98.8721 177.972 98.0598 177.739 97.24 177.79C97.0836 177.828 96.9378 177.901 96.8132 178.003C96.6886 178.106 96.5885 178.234 96.52 178.38C96.457 178.542 96.4314 178.716 96.4453 178.889C96.4591 179.062 96.512 179.23 96.6 179.38C96.8772 179.737 97.2158 180.042 97.6 180.28C99.4061 181.582 100.981 183.177 102.26 185C103.087 186.07 103.69 187.294 104.033 188.602C104.377 189.909 104.454 191.272 104.26 192.61C104.252 193.564 103.896 194.483 103.259 195.194C102.622 195.904 101.748 196.358 100.8 196.47C98.8669 196.936 96.8714 197.088 94.89 196.92C92.2108 196.703 89.5566 196.245 86.96 195.55C86.4042 195.377 85.8208 195.309 85.24 195.35C84.99 195.35 84.66 195.74 84.55 196.02C84.4817 196.18 84.4516 196.354 84.462 196.527C84.4724 196.701 84.5231 196.869 84.61 197.02C85.5609 198.048 86.5871 199.004 87.68 199.88C87.9727 200.06 88.2116 200.316 88.3717 200.621C88.5318 200.925 88.6072 201.267 88.59 201.61C88.59 203.13 88.59 204.61 88.51 206.17C88.18 210.95 87.98 215.74 88 220.53C87.8664 224.125 87.1049 227.668 85.75 231C85.3247 232.09 84.6738 233.079 83.84 233.9C80.8555 236.926 76.9307 238.848 72.71 239.35C68.9 239.95 65.06 240.35 61.22 240.67C60.6458 240.674 60.0794 240.804 59.561 241.051C59.0426 241.298 58.5848 241.656 58.22 242.1C56.5 244.17 54.58 246.1 52.78 248.1C52.0695 248.887 51.4019 249.711 50.78 250.57C49.4564 252.385 48.8509 254.625 49.08 256.86C49.1861 258.729 49.5565 260.574 50.18 262.34C50.34 262.78 50.5 263.22 50.66 263.66C51.66 266.54 51.43 267.43 49.23 268.66C46.8 269.97 44.41 269.66 43.02 267.48C40.72 263.96 39.44 260.12 40.23 255.84C40.45 254.68 40.81 253.65 39.92 252.54C39.59 252.13 39.82 251.19 39.92 250.54C40.2458 248.936 40.8157 247.391 41.61 245.96C42.06 245.12 41.88 244.67 40.87 244.58C39.86 244.49 39.57 243.99 39.16 243.19C38.23 241.39 37.24 241.06 35.45 241.96C33.66 242.86 32.01 243.96 30.29 244.96C27.45 246.6 27.45 246.59 28.82 249.63C29.64 249.87 30.04 249.06 30.69 248.87C31.05 248.77 31.43 248.87 31.56 249.19C31.6271 249.348 31.6617 249.518 31.6617 249.69C31.6617 249.862 31.6271 250.032 31.56 250.19C31.2784 250.571 30.9413 250.908 30.56 251.19C27.9931 253.428 25.9658 256.217 24.63 259.35C23.908 260.95 22.9507 262.433 21.79 263.75C20.3176 265.5 19.2692 267.567 18.7263 269.789C18.1834 272.011 18.1607 274.328 18.66 276.56C19.36 280.23 20.32 283.86 20.46 287.63C20.6303 290.787 20.3508 293.952 19.63 297.03C19.2417 298.986 18.4629 300.843 17.34 302.49C16.5382 303.573 15.9666 304.809 15.6605 306.121C15.3544 307.433 15.3202 308.794 15.56 310.12C15.86 312.32 16.02 314.54 16.17 316.75C16.313 318.266 16.3398 319.79 16.25 321.31C15.761 324.941 15.815 328.625 16.41 332.24C14.65 330.95 13.99 329.97 13.9 328.13C13.7846 326.495 13.8416 324.853 14.07 323.23C14.4052 321.034 14.4254 318.802 14.13 316.6C13.8 313.82 13.63 311.01 13.41 308.22C13.2129 306.084 13.8033 303.951 15.07 302.22C18.93 296.82 19.46 290.78 18.43 284.46C18.05 282.15 17.51 279.88 17.09 277.58C16.4942 274.826 16.5453 271.971 17.2393 269.24C17.9334 266.509 19.2515 263.976 21.09 261.84C21.8549 261.042 22.4984 260.135 23 259.15C24.0357 256.794 25.3519 254.571 26.92 252.53C27.134 252.264 27.2705 251.944 27.3146 251.605C27.3587 251.266 27.3087 250.922 27.17 250.61C25.7275 245.797 24.7859 240.847 24.36 235.84C23.9752 232.704 24.0358 229.529 24.54 226.41C25.2517 221.989 27.1452 217.843 30.02 214.41C31.7016 212.45 33.79 210.88 36.14 209.81C36.9625 209.362 37.8834 209.125 38.82 209.12C40.22 209.17 41.63 209.12 43.03 209.01C49.24 208.74 54.54 214.82 53.54 221.92C53.4643 222.379 53.3122 222.822 53.09 223.23C52.98 223.508 52.7714 223.737 52.5041 223.871C52.2367 224.006 51.9292 224.037 51.64 223.96C49.39 223.19 46.81 223.48 44.85 221.7C42.89 219.92 40.79 221.15 39.85 222.88C39.2503 223.884 38.837 224.989 38.63 226.14C38.09 230.24 39.34 238.28 41.19 242.34C41.7473 242.296 42.2995 242.203 42.84 242.06C48.08 240.19 53.56 239.73 59.04 239.36C63.3503 239.168 67.6449 238.714 71.9 238C73.61 237.67 75.26 237.05 76.9 236.57C77.3566 236.457 77.766 236.203 78.0695 235.844C78.373 235.485 78.5552 235.039 78.59 234.57C78.73 233.65 78.99 232.74 79.2 231.83C79.4254 231.112 79.4857 230.352 79.3766 229.608C79.2676 228.863 78.9918 228.153 78.57 227.53C77.5 225.99 77.8 224.17 78.18 222.43C79.12 218.21 79.96 213.97 81.18 209.81C81.84 207.57 82.3 205.27 82.85 203C82.892 202.539 83.0623 202.099 83.3415 201.729C83.6208 201.36 83.9978 201.076 84.43 200.91C85.14 200.64 85 199.72 84.27 199.29C83.54 198.86 83.01 198.68 82.42 198.29C81.8334 197.926 81.2929 197.493 80.81 197C79.08 195.19 78.98 193.74 80.37 191.67C80.4249 191.566 80.4921 191.468 80.57 191.38C83.43 188.78 84.97 185.38 86.2 181.84C86.35 181.4 86.64 181.01 86.82 180.58C87.1933 179.722 87.7998 178.986 88.5706 178.456C89.3413 177.926 90.2454 177.622 91.18 177.58C91.385 177.497 91.5507 177.339 91.6436 177.139C91.7365 176.938 91.7495 176.71 91.68 176.5C91.5892 176.358 91.4488 176.255 91.2862 176.211C91.1236 176.166 90.9504 176.184 90.8 176.26C90.69 176.26 90.59 176.38 90.48 176.4C89.48 176.6 89.12 176.4 89.07 175.62C89.0423 174.803 89.1854 173.989 89.49 173.23C91.0248 168.69 92.8211 164.242 94.87 159.91C97.63 154.24 100.27 148.51 103.01 142.84C104.13 140.53 105.33 138.25 106.57 136.01C110.05 129.68 115.4 125.53 122.06 122.96C124.24 122.12 126.47 121.44 128.67 120.64C129.979 120.134 131.367 119.863 132.77 119.84C133.701 119.796 134.621 119.618 135.5 119.31C138.313 118.519 141.197 118.006 144.11 117.78C145.5 117.64 146.88 117.36 148.28 117.23C148.804 117.258 149.324 117.128 149.774 116.857C150.223 116.586 150.58 116.187 150.8 115.71C151.015 115.296 151.328 114.94 151.711 114.674C152.094 114.407 152.537 114.238 153 114.18C155.815 113.432 158.733 113.145 161.64 113.33C162.209 113.428 162.791 113.405 163.35 113.26C168.285 111.426 172.829 108.675 176.74 105.15C176.81 105.09 176.8 104.93 176.83 104.8C176.23 104.11 175.54 104.59 174.95 104.74C170.753 105.856 166.339 105.881 162.13 104.81C160.003 104.13 157.749 103.945 155.54 104.27C154.843 104.361 154.135 104.327 153.45 104.17C153.094 104.151 152.747 104.054 152.433 103.885C152.119 103.716 151.847 103.48 151.636 103.193C151.424 102.906 151.279 102.576 151.211 102.226C151.142 101.876 151.152 101.515 151.24 101.17C151.4 99.78 151.63 98.4 151.88 97.02C152.24 94.5876 152.367 92.1265 152.26 89.67C152.26 86.75 152.09 83.82 152.13 80.9C152.044 75.1137 153.825 69.4538 157.21 64.76C161.21 59.48 162.8 53.55 163.58 47.2C163.89 44.65 164.38 42.12 164.8 39.59C165.8 33.44 168.67 28.1 172.26 23.13C174.216 20.4871 176.673 18.2547 179.49 16.56C182.563 14.6467 185.62 12.7067 188.66 10.74C193.09 7.85 197.94 7.17 203.08 7.85C204 7.97 204.95 7.91 205.88 8.03C206.929 8.11195 207.965 8.30982 208.97 8.62C215.47 11.01 221.7 13.91 226.78 18.81C228.868 20.86 230.626 23.2213 231.99 25.81C235.544 32.3975 237.865 39.5786 238.84 47C239.551 52.7033 241.541 58.1726 244.66 63C249.51 70.38 251.4 78.57 252.24 87.16C252.5 89.83 252.95 92.48 253.3 95.16C253.49 96.61 253.3 96.96 251.91 97.56C250.436 98.2529 248.885 98.7698 247.29 99.1C244.88 99.53 242.52 100.22 240.13 100.78C239.966 100.861 239.783 100.895 239.6 100.879C239.418 100.863 239.244 100.797 239.096 100.689C238.949 100.581 238.834 100.434 238.764 100.265C238.694 100.096 238.672 99.9108 238.7 99.73C238.59 97.86 238.57 95.99 238.44 94.12C238.339 93.5497 238.165 92.995 237.92 92.47C237.92 92.4 237.74 92.31 237.69 92.33C237.64 92.35 237.17 92.47 237.12 92.62C236.942 93.1711 236.811 93.7365 236.73 94.31C236.42 96.39 236.13 98.48 235.84 100.56C235.81 101.028 235.617 101.471 235.293 101.812C234.969 102.152 234.536 102.367 234.07 102.42C231.598 103.136 229.051 103.562 226.48 103.69C225.897 103.69 225.315 103.737 224.74 103.83C224.58 103.886 224.435 103.976 224.315 104.096C224.195 104.215 224.104 104.359 224.047 104.519C223.991 104.678 223.97 104.848 223.988 105.016C224.006 105.184 224.061 105.346 224.15 105.49C224.277 105.685 224.432 105.86 224.61 106.01C226.77 107.615 229.147 108.905 231.67 109.84C232.087 110.038 232.555 110.103 233.011 110.028C233.466 109.953 233.888 109.741 234.22 109.42C235.39 108.34 236.98 108.29 238.53 108.42C241.093 108.628 243.616 109.183 246.03 110.07C247.03 110.43 247.97 110.85 248.27 112.07C248.344 112.293 248.488 112.486 248.681 112.619C248.874 112.753 249.105 112.82 249.34 112.81C250.27 112.9 251.2 112.99 252.13 113.06C257.364 113.321 262.557 114.115 267.63 115.43C269.545 115.957 271.381 116.737 273.09 117.75C278.97 121.201 283.965 125.973 287.68 131.69C289.313 134.112 290.751 136.66 291.98 139.31C295.69 147.63 299.7 155.84 302.37 164.58C304.72 172.29 306.96 180.04 308.94 187.85C311.94 199.52 314.6 211.25 317.35 222.97C317.577 224.222 318.137 225.389 318.97 226.35C320.132 227.518 320.892 229.026 321.14 230.655C321.388 232.283 321.112 233.949 320.35 235.41C320.042 236.166 319.989 237.002 320.2 237.79C320.73 240.9 321.2 244.03 321.84 247.11C323.74 255.8 324.98 264.6 326.47 273.35C327.26 277.95 328.24 282.53 328.98 287.14C329.541 290.127 329.875 293.152 329.98 296.19C330.054 298.661 329.564 301.115 328.547 303.368C327.529 305.621 326.012 307.612 324.11 309.19C322.784 310.355 321.094 311.023 319.33 311.08C314.299 311.379 309.268 310.496 304.64 308.5C297.16 305.25 290.56 300.68 284.18 295.71C278.453 291.243 272.913 286.577 267.56 281.71C267.127 281.317 266.687 280.933 266.24 280.56C264.98 279.49 264.42 279.64 264.24 281.17C263.73 284.64 263.24 288.12 262.77 291.59C261.697 299.11 260.613 306.63 259.52 314.15C259.23 316.15 258.89 318.07 258.59 320.04C258.46 320.89 258.81 321.29 259.77 321.3C262.58 321.3 265.39 321.3 268.2 321.3C268.79 321.3 269.37 321.3 269.96 321.3C271.04 321.3 271.76 321.82 271.7 322.53C271.64 323.24 271.01 323.69 270.25 323.74C269.32 323.81 268.38 323.88 267.45 323.88C254.82 323.88 242.2 323.77 229.57 323.75C216.47 323.75 203.37 323.75 190.27 323.75C175.41 323.75 160.55 323.68 145.7 323.69C142.7 323.69 139.62 323.84 136.58 324.02C133.914 324.319 131.219 324.228 128.58 323.75C127.072 323.54 125.545 323.506 124.03 323.65C121.69 323.65 119.36 323.73 117.03 323.8C116.85 323.8 116.64 324.01 116.5 324.16C116.16 324.52 116.5 324.85 116.68 325.06C117.19 325.54 117.78 325.93 118.3 326.4C120.24 328.17 120.3 329.47 118.47 331.47C117.88 332.12 117.23 332.59 116.47 331.67C116.25 331.42 115.88 331.14 115.55 331.38C113.28 333.07 110.85 332.14 108.45 331.87C108.1 331.852 107.75 331.852 107.4 331.87C106.81 331.16 106.57 331.17 105.66 331.98C104.9 330.6 104.85 330.55 104.04 331.2C103.026 332.17 101.716 332.772 100.32 332.91C98.4312 333.056 96.5367 332.711 94.82 331.91C95.22 330.75 96.87 330.91 97.24 329.73C97.36 329.34 97.94 329.73 98.01 329.97C98.56 331.56 99.8 331.52 101.1 331.34C101.304 331.335 101.505 331.289 101.691 331.204C101.876 331.118 102.042 330.996 102.179 330.845C102.316 330.693 102.42 330.515 102.486 330.322C102.551 330.128 102.576 329.924 102.56 329.72C102.56 329.28 102.56 328.72 103.09 328.62C103.81 328.53 104.03 329.13 104.19 329.72C104.285 330.063 104.409 330.398 104.56 330.72C104.56 330.8 104.75 330.89 104.82 330.86C104.89 330.83 105.28 330.71 105.34 330.56C105.565 330.081 105.659 329.552 105.614 329.025C105.568 328.498 105.384 327.993 105.08 327.56C104.476 326.713 103.807 325.914 103.08 325.17C100.927 323.152 99.6194 320.394 99.42 317.45C99.42 316.75 99.24 316.06 99.24 315.36C99.093 308.715 99.3301 302.067 99.95 295.45C100.504 291.868 101.642 288.402 103.32 285.19C103.573 284.674 103.911 284.204 104.32 283.8C105.362 282.698 106.219 281.435 106.86 280.06L107.93 279.57L108.78 280.86C108.143 281.468 107.754 282.291 107.69 283.17C108.813 282.572 109.806 281.756 110.61 280.77ZM112.84 282.1C110.45 283.73 108.14 285.51 105.63 286.91C105.057 287.16 104.547 287.533 104.136 288.004C103.724 288.474 103.422 289.029 103.25 289.63C102.91 290.97 102.25 292.23 102.4 293.68C102.142 294.038 101.963 294.448 101.877 294.881C101.791 295.314 101.799 295.76 101.9 296.19C101.123 299.481 100.787 302.86 100.9 306.24C100.734 306.379 100.619 306.569 100.57 306.78C100.521 306.991 100.542 307.212 100.63 307.41C100.323 310.065 100.216 312.739 100.31 315.41C100.329 317.094 100.683 318.758 101.353 320.303C102.023 321.848 102.994 323.245 104.21 324.41C105.378 325.551 106.271 326.943 106.82 328.48L106.96 329.13C106.96 331.56 106.96 331.58 109.19 331.28C110.11 331.15 111 330.84 111.91 330.69C112.82 330.54 113.65 330.16 113.81 329.03C113.89 328.45 114.38 328.73 114.6 328.86C115.144 329.3 115.533 329.903 115.71 330.58C115.746 330.656 115.801 330.721 115.869 330.769C115.937 330.818 116.017 330.848 116.1 330.857C116.183 330.866 116.267 330.854 116.344 330.821C116.421 330.788 116.489 330.736 116.54 330.67C117.75 329.54 117.87 328.85 116.82 327.75C116.225 327.032 115.515 326.417 114.72 325.93C111.72 324.37 110.09 321.79 109.25 318.62C109.312 318.521 109.335 318.403 109.314 318.289C109.294 318.174 109.232 318.071 109.14 318C109.332 316.788 109.298 315.55 109.04 314.35C109.087 314.322 109.127 314.284 109.158 314.239C109.19 314.195 109.212 314.144 109.223 314.091C109.234 314.038 109.235 313.982 109.224 313.929C109.213 313.875 109.191 313.825 109.16 313.78C109.278 313.555 109.348 313.309 109.367 313.056C109.386 312.804 109.353 312.55 109.27 312.31L109.33 311.64C109.5 310.4 110.08 309.19 109.63 307.91C109.875 307.533 110.038 307.108 110.107 306.663C110.176 306.218 110.15 305.764 110.03 305.33L110.52 300.95C110.657 300.776 110.748 300.57 110.785 300.352C110.822 300.133 110.803 299.909 110.73 299.7C111.281 297.956 111.601 296.147 111.68 294.32C111.834 294.23 111.952 294.088 112.013 293.92C112.073 293.752 112.072 293.568 112.01 293.4C112.736 290.984 113.094 288.473 113.07 285.95C113.89 284.65 113.69 283.19 113.69 281.77C113.69 281.49 113.42 281.4 113.2 281.57C113.061 281.733 112.941 281.911 112.84 282.1ZM210.4 137.62C208.08 137.83 205.76 138.09 203.4 138.24C196.956 138.511 190.524 137.491 184.48 135.24C175.42 132.11 167.84 126.86 162.48 118.74C161.26 115.24 158.7 114.84 155.48 115.58C154.31 115.85 153.48 116.07 153.55 117.47C153.55 118.17 153.03 118.47 152.4 118.53L143.4 119.94C137.374 120.723 131.454 122.175 125.75 124.27C125.1 124.53 124.41 124.68 123.75 124.92C118.02 127.02 113.09 130.19 109.75 135.47C108.75 137.05 107.66 138.58 106.64 140.14C104.548 143.229 102.899 146.594 101.74 150.14C100.608 153.705 99.1383 157.154 97.35 160.44C95.1657 164.703 93.3264 169.133 91.85 173.69C91.05 176 91.24 176.22 93.85 175.69C95.241 175.491 96.6598 175.653 97.97 176.16C98.782 176.48 99.6625 176.587 100.527 176.47C101.392 176.352 102.213 176.015 102.91 175.49C104.078 174.707 105.39 174.163 106.77 173.89C109.168 173.308 111.68 173.398 114.03 174.15C115.577 174.669 117.161 175.067 118.77 175.34C121.579 175.556 124.392 174.981 126.89 173.68C129.12 172.68 131.36 171.68 133.62 170.76C135.02 170.129 136.595 169.998 138.08 170.39C139.26 170.73 140.34 171.39 140.39 172.71C140.508 174.457 140.931 176.169 141.64 177.77C141.89 178.427 142.009 179.127 141.99 179.83C141.99 182.28 141.93 184.74 141.69 187.18C141.502 190.131 140.23 192.909 138.12 194.98C136.482 196.475 134.737 197.848 132.9 199.09C132.614 199.271 132.369 199.51 132.18 199.79C131.991 200.071 131.861 200.387 131.8 200.72C131.26 203.113 130.693 205.5 130.1 207.88C129.23 211.39 128.31 214.88 127.45 218.41C126.992 220.227 126.947 222.124 127.32 223.96C127.345 224.192 127.422 224.416 127.547 224.614C127.671 224.811 127.84 224.978 128.039 225.1C128.237 225.223 128.462 225.298 128.694 225.321C128.927 225.343 129.161 225.312 129.38 225.23C130.98 224.883 132.573 224.51 134.16 224.11C140.38 222.53 146.6 220.943 152.82 219.35C159.718 217.58 166.507 215.406 173.15 212.84C174.274 212.553 175.306 211.985 176.15 211.19C175.95 210.63 175.79 210.19 175.66 209.77C172.72 200.474 172.152 190.591 174.01 181.02C177.01 166.26 184.8 154.56 197.1 145.88C201.43 142.894 206.099 140.433 211.01 138.55C211.566 138.395 212.113 138.211 212.65 138C212.77 137.95 212.84 137.57 212.78 137.4C212.72 137.23 212.45 137 212.32 137.03C211.73 137.22 211.07 137.43 210.41 137.63L210.4 137.62ZM193.4 321.4H204.98C218.44 321.4 231.897 321.4 245.35 321.4C248.16 321.4 250.97 321.3 253.77 321.28C254.55 321.28 255.19 321.06 255.34 320.22C255.94 316.89 256.48 313.54 257.09 310.22C257.89 305.86 258.09 301.4 259.25 297.09C259.866 295.197 260.223 293.229 260.31 291.24C260.318 288.683 260.583 286.134 261.1 283.63C261.42 281.91 261.69 280.17 262.02 278.45C262.126 277.996 262.102 277.521 261.95 277.081C261.797 276.64 261.524 276.252 261.16 275.96C259.87 274.78 258.63 273.53 257.45 272.24C254.6 269.14 251.97 265.82 248.94 262.91C243.71 257.91 238.46 252.91 233.52 247.56C233.183 247.166 232.746 246.87 232.255 246.703C231.764 246.535 231.238 246.503 230.73 246.61C219.731 247.94 208.602 245.58 199.09 239.9C198.339 239.377 197.475 239.037 196.568 238.909C195.661 238.78 194.737 238.866 193.87 239.16C185.43 241.86 176.87 244.36 168.45 246.98C164.33 248.25 160.25 249.65 156.15 250.98C154.26 251.59 152.35 252.13 150.47 252.75C143.85 255.067 137.021 256.741 130.08 257.75C129.39 257.84 128.72 258.1 128.08 258.21C127.19 258.35 126.97 258.93 126.98 259.7C126.98 260.29 126.98 260.87 126.98 261.45C127.38 266.7 127.8 271.94 128.18 277.18C128.42 280.44 128.55 283.71 128.8 286.98C129.387 294.553 130 302.123 130.64 309.69C130.91 312.95 131.2 316.21 131.57 319.46C131.76 321.11 132.13 321.39 133.82 321.4C138.727 321.4 143.633 321.4 148.54 321.4C154.62 321.4 160.7 321.34 166.77 321.34C172.84 321.34 179.16 321.39 185.35 321.42L193.4 321.4ZM239.75 110.86C239.603 111.112 239.486 111.381 239.4 111.66C238.4 119.72 234.1 125.74 227.56 130.27C224.254 132.486 220.713 134.327 217 135.76C216.567 135.912 216.146 136.096 215.74 136.31C215.63 136.38 215.64 136.69 215.65 136.89C215.671 136.943 215.704 136.99 215.748 137.027C215.792 137.064 215.844 137.089 215.9 137.1C216.7 136.99 217.5 136.91 218.28 136.72C225.687 135.211 233.331 135.304 240.699 136.992C248.068 138.681 254.989 141.926 261 146.51C262.658 147.614 264.084 149.03 265.2 150.68C265.546 151.293 266.069 151.788 266.7 152.1C267.629 152.598 268.42 153.32 269 154.2C275.631 162.154 279.746 171.901 280.82 182.2C282.437 196.405 278.888 210.717 270.82 222.52C270.56 222.91 270.3 223.3 270.01 223.67C269.44 224.401 269.137 225.304 269.15 226.23C269.08 228.44 268.77 230.65 268.53 232.86C268.24 235.53 267.93 238.2 267.62 240.86C267.515 241.435 267.562 242.027 267.757 242.578C267.952 243.129 268.287 243.619 268.73 244C270.91 245.95 273.02 248 275.13 250C275.372 250.253 275.685 250.427 276.028 250.498C276.371 250.57 276.727 250.535 277.05 250.4C281.16 249.07 285.29 247.83 289.37 246.4C293 245.14 296.57 243.68 300.17 242.33C303.01 241.27 305.89 240.33 308.72 239.2C311.574 238.158 314.343 236.894 317 235.42C319.3 234.09 319.87 232.08 318.56 229.83C318.083 228.906 317.443 228.076 316.67 227.38C316.253 227.064 315.913 226.658 315.676 226.192C315.439 225.726 315.31 225.213 315.3 224.69C315.222 224.11 315.095 223.538 314.92 222.98C311.86 210.62 308.85 198.24 305.73 185.89C303.689 177.246 301.134 168.73 298.08 160.39C295.86 154.6 293.27 148.98 290.92 143.25C288.709 137.834 285.739 132.76 282.1 128.18C278.763 124.09 274.621 120.73 269.93 118.31C268.896 117.771 267.806 117.345 266.68 117.04C262.12 115.652 257.376 114.961 252.61 114.99C250.61 114.99 248.72 114.13 246.7 114.7C246.28 114.82 245.93 114.18 245.97 113.7C246.07 112.5 245.33 111.98 244.36 111.75C242.85 111.5 241.47 110.75 239.71 110.86H239.75ZM121.13 229C121.4 230.63 121.65 232 121.85 233.4C122.54 238.14 123.37 242.89 121.85 247.63C121.65 248.18 121.671 248.786 121.91 249.32C122.836 251.468 123.572 253.693 124.11 255.97C124.129 256.114 124.178 256.252 124.256 256.375C124.333 256.498 124.436 256.602 124.558 256.681C124.68 256.76 124.817 256.812 124.961 256.832C125.105 256.853 125.251 256.842 125.39 256.8C126.057 256.7 126.747 256.587 127.46 256.46C135.365 254.923 143.159 252.862 150.79 250.29C155.79 248.65 160.86 247.39 165.79 245.69C170.97 243.92 176.27 242.48 181.52 240.9C183.79 240.373 186.024 239.705 188.21 238.9C191.22 237.629 194.368 236.713 197.59 236.17C199.88 235.73 202.16 235.17 204.43 234.63C205.673 234.307 206.963 234.209 208.24 234.34C210.685 234.647 213.164 234.532 215.57 234C224.608 232.043 233.248 228.563 241.12 223.71C248.003 219.241 254.02 213.563 258.88 206.95C259.726 205.831 260.466 204.636 261.09 203.38C262.037 201.628 262.667 199.722 262.95 197.75C262.947 197.575 262.908 197.403 262.834 197.244C262.759 197.085 262.653 196.944 262.52 196.83C262.374 196.735 262.198 196.697 262.026 196.725C261.854 196.753 261.699 196.844 261.59 196.98C261.35 197.23 261.13 197.51 260.9 197.77C258.39 200.7 255.9 203.69 253.34 206.54C251.939 207.947 250.453 209.266 248.89 210.49C248.587 210.687 248.246 210.82 247.89 210.88C247.722 210.932 247.542 210.93 247.375 210.875C247.208 210.819 247.063 210.713 246.96 210.57C246.84 210.445 246.772 210.278 246.772 210.105C246.772 209.932 246.84 209.765 246.96 209.64C247.385 209.085 247.887 208.594 248.45 208.18C250.88 206.7 252.69 204.55 254.65 202.56C258.013 199.134 260.957 195.321 263.42 191.2C264.429 189.736 264.912 187.974 264.79 186.2C264.731 185.675 264.515 185.18 264.171 184.779C263.827 184.377 263.37 184.089 262.86 183.95C261.86 183.77 261.4 184.48 260.94 185.18C260.798 185.369 260.668 185.566 260.55 185.77C258.916 188.743 256.935 191.512 254.65 194.02C251.65 197.61 248.59 201.16 245.25 204.44C244.683 205.184 243.895 205.729 243 206C242.896 206.013 242.791 206.003 242.691 205.972C242.591 205.941 242.498 205.889 242.42 205.82C242.19 205.56 241.98 205.16 242.27 204.88C243.1 204.08 244.08 203.42 244.85 202.58C247.53 199.64 250.23 196.71 252.75 193.65C255.207 190.823 257.331 187.722 259.08 184.41C259.447 183.685 259.758 182.933 260.01 182.16C260.154 181.719 260.132 181.241 259.947 180.816C259.763 180.39 259.43 180.047 259.01 179.85C258.664 179.631 258.251 179.544 257.846 179.607C257.441 179.669 257.073 179.876 256.81 180.19C255.876 181.083 255.152 182.173 254.69 183.38C253.742 185.521 252.485 187.513 250.96 189.29C248.385 192.48 245.493 195.402 242.33 198.01C241.75 198.5 241.33 199.34 240.33 199.08C239.8 198.94 240.15 197.81 241.07 196.71C241.44 196.26 241.82 195.81 242.22 195.38C244.69 192.73 247.16 190.07 249.66 187.45C250.797 186.251 251.769 184.906 252.55 183.45C253.04 182.523 253.413 181.539 253.66 180.52C253.781 180.064 253.748 179.581 253.567 179.146C253.387 178.71 253.068 178.346 252.66 178.11C252.328 177.864 251.92 177.744 251.507 177.771C251.095 177.799 250.706 177.972 250.41 178.26C248.341 179.579 246.429 181.129 244.71 182.88C243.959 183.775 243.158 184.626 242.31 185.43C238.87 188.6 235.39 191.72 231.92 194.87C229.535 196.945 226.949 198.778 224.2 200.34C222.381 201.44 220.226 201.848 218.13 201.49C216.13 201.18 215.13 199.75 214.48 198.08C214.18 197.374 214.109 196.592 214.278 195.844C214.447 195.095 214.846 194.419 215.42 193.91C216.291 192.958 217.345 192.193 218.52 191.66C219.59 191.18 220.66 190.72 221.73 190.26C222.724 189.895 223.535 189.156 223.99 188.2C224.052 187.984 224.035 187.754 223.94 187.55C223.81 187.24 223.6 187.25 223.38 187.55C223.31 187.64 223.19 187.69 223.12 187.78C222.567 188.476 221.823 188.996 220.98 189.275C220.136 189.553 219.229 189.58 218.37 189.35C217.452 189.126 216.61 188.662 215.932 188.004C215.253 187.347 214.763 186.52 214.51 185.61C214.35 185.12 214.51 184.41 213.76 184.24C210.33 185.36 208.14 187.9 206.31 190.83C204.88 193.11 203.63 195.5 202.15 197.74C199.485 202.034 195.754 205.565 191.32 207.99C186.085 210.832 180.594 213.176 174.92 214.99C169.11 216.75 163.31 218.51 157.52 220.34C145.594 224.027 133.438 226.92 121.13 229ZM278.34 253C279.04 253.64 279.34 254 279.71 254.25L293.11 264.44C293.85 265.01 294.62 265.54 295.36 266.12C295.46 266.181 295.547 266.261 295.614 266.357C295.681 266.453 295.727 266.562 295.75 266.677C295.773 266.792 295.771 266.91 295.745 267.024C295.719 267.138 295.67 267.246 295.6 267.34C295.435 267.512 295.216 267.622 294.98 267.653C294.744 267.684 294.504 267.633 294.3 267.51C293.294 266.922 292.323 266.278 291.39 265.58C288.3 263.27 285.23 260.93 282.15 258.58C275.14 253.297 268.686 247.312 262.89 240.72C260.97 238.54 259.26 236.16 257.33 233.99C255.89 232.296 254.554 230.516 253.33 228.66C252.776 227.98 252.415 227.163 252.287 226.295C252.158 225.428 252.266 224.541 252.6 223.73C253.275 221.851 253.537 219.849 253.37 217.86C253.37 217.55 253.37 217.07 252.93 217.07C252.6 217.086 252.284 217.209 252.03 217.42C250.52 218.71 249.03 220.08 247.53 221.33C240.44 227.07 232.36 230.91 223.77 233.79C222.7 234.15 221.46 234.19 220.59 235.08C220.79 236.65 222.24 237.19 223.18 238.08C223.814 238.597 224.522 239.015 225.28 239.32C228.442 240.855 231.298 242.953 233.71 245.51C235.015 247.009 236.44 248.401 237.97 249.67C240.224 251.523 242.371 253.503 244.4 255.6C252.4 263.46 259.73 271.95 268.4 279.16C275.59 285.16 282.82 291.08 290.21 296.82C296.605 301.762 303.794 305.58 311.47 308.11C313.707 308.789 316.046 309.067 318.38 308.93C319.324 308.929 320.242 308.616 320.99 308.04C324.99 304.93 327.63 301.1 327.26 295.8C326.997 290.77 326.43 285.761 325.56 280.8C324.99 277.8 324.37 274.8 324.01 271.8C323.43 266.92 322.5 262.1 321.56 257.28C320.367 251.207 319.18 245.13 318 239.05C317.73 237.66 317.41 237.51 316.08 238.05C312.32 239.63 308.54 241.18 304.78 242.79C301.45 244.22 298.03 245.36 294.62 246.57C290.23 248.12 285.93 249.93 281.49 251.38C280.409 251.857 279.357 252.398 278.34 253ZM201.74 22.37C201.35 22.86 200.82 23.62 200.19 24.29C197.581 27.1514 194.356 29.384 190.76 30.82C187.93 31.91 185.12 33.07 182.37 34.34C177.58 36.56 174.58 40.55 172.23 45.09C171.753 46.1557 171.594 47.336 171.77 48.49C172.235 53.2603 173.156 57.9752 174.52 62.57C175.41 65.9673 176.788 69.2177 178.61 72.22C183.61 80.07 189.82 86.52 198.16 90.83C201.23 92.42 204.07 92.55 206.99 90.5C209.407 88.848 211.691 87.009 213.82 85C217.47 81.48 220.24 77.29 223.21 73.23C226.67 68.2263 229.278 62.6848 230.93 56.83C231.173 56.1784 231.267 55.4803 231.203 54.7877C231.138 54.0951 230.919 53.4259 230.56 52.83C229.27 50.5985 228.358 48.1691 227.86 45.64C227.63 44.64 227.24 43.64 226.94 42.64C225.791 38.7918 223.337 35.4643 220 33.23C217.43 31.3943 214.629 29.9049 211.67 28.8C208.678 27.7529 205.981 26.0001 203.81 23.69C203.575 23.339 203.269 23.0405 202.913 22.8133C202.557 22.5861 202.158 22.4352 201.74 22.37ZM167.37 121.37C168.839 123.479 170.619 125.354 172.65 126.93C178.14 131.39 184.65 133.64 191.32 135.44C193.915 136.155 196.581 136.584 199.27 136.72C208.82 137.15 217.5 134.36 225.57 129.48C229.226 127.334 232.243 124.251 234.31 120.55C234.57 120.08 234.93 119.55 234.26 118.89L221.9 120.68C218.55 121.17 215.13 121.47 212.48 123.99C212.34 124.12 212.04 124.09 211.82 124.13C211.6 124.17 210.82 123.44 211 123.13C211.217 122.594 211.537 122.105 211.94 121.69C213.028 120.801 214.293 120.153 215.65 119.79C219.264 118.859 222.94 118.191 226.65 117.79C229.21 117.5 231.76 117.2 234.32 116.95C234.912 116.966 235.488 116.759 235.935 116.37C236.381 115.981 236.665 115.439 236.73 114.85C236.83 114.3 237.27 113.85 236.93 113.06C236.36 112.92 235.69 112.71 235.01 112.58C231.328 111.852 227.841 110.353 224.78 108.18C221.453 105.958 218.912 102.741 217.52 98.99C216.32 95.77 216.03 92.39 215.59 88.99C215.509 88.2928 215.466 87.5918 215.46 86.89C215.46 86.6 215.4 86.4 215.14 86.38C214.927 86.3375 214.706 86.3656 214.51 86.46C214.138 86.7518 213.802 87.0876 213.51 87.46C211.4 90.36 208.51 92.32 205.57 94.27C204.748 94.8409 203.811 95.226 202.825 95.3987C201.839 95.5714 200.827 95.5275 199.86 95.27C198.725 95.0109 197.626 94.6111 196.59 94.08C194.498 93.038 192.574 91.6898 190.88 90.08C189.34 88.51 187.88 86.89 186.32 85.28C185.83 85.9573 185.571 86.7741 185.58 87.61C185.169 90.9685 184.367 94.2675 183.19 97.44C181.858 101.324 179.505 104.777 176.38 107.44C172.973 110.463 169.138 112.967 165 114.87C164.37 115.15 163.62 115.25 163.4 116.14C163.892 116.76 164.318 117.431 164.67 118.14C165.28 119.79 166.5 119.97 168.03 119.95C173.638 119.762 179.252 119.973 184.83 120.58C186.103 120.744 187.363 120.998 188.6 121.34C189.12 121.468 189.603 121.715 190.011 122.063C190.419 122.41 190.74 122.847 190.95 123.34C191.071 123.541 191.126 123.774 191.106 124.008C191.086 124.241 190.993 124.463 190.84 124.64C190.68 124.813 190.464 124.925 190.229 124.954C189.995 124.983 189.758 124.929 189.56 124.8C189.351 124.693 189.167 124.543 189.02 124.36C188.02 123.21 186.64 123 185.24 122.73C179.53 121.62 173.78 121.94 167.36 121.37H167.37ZM257 167.31C255.914 166.859 254.853 166.352 253.82 165.79C252.953 165.195 252.122 164.551 251.33 163.86C250.996 163.538 250.631 163.25 250.24 163C249.917 162.883 249.563 162.883 249.24 163C249.12 163 249 163.42 249.03 163.61C249.34 165.23 249.198 166.905 248.62 168.45C248.19 169.59 247.62 170.76 246.31 170.79C245 170.82 244.58 169.68 244.31 168.67C243.75 166.84 242.52 165.41 241.56 163.82C241.363 163.387 241.018 163.039 240.588 162.837C240.157 162.636 239.669 162.594 239.21 162.72C238.703 162.879 238.17 162.935 237.641 162.885C237.112 162.835 236.598 162.68 236.13 162.43C235.387 161.854 234.489 161.511 233.551 161.445C232.613 161.379 231.676 161.593 230.86 162.06C230.559 162.237 230.206 162.307 229.86 162.26C229.08 162.007 228.237 162.025 227.468 162.309C226.698 162.594 226.048 163.13 225.62 163.83C225.43 164.09 225.04 164.2 224.73 164.37C224.484 164.529 224.198 164.613 223.905 164.613C223.612 164.613 223.326 164.529 223.08 164.37C222.775 164.19 222.529 163.924 222.373 163.606C222.217 163.288 222.157 162.932 222.2 162.58C222.409 161.189 222.99 159.879 223.88 158.79C224.63 157.86 225.71 157.98 226.77 157.89C229.36 157.67 231.15 156.39 231.69 153.7C231.78 153.24 231.85 152.78 231.95 152.32C232.058 151.861 232.281 151.436 232.597 151.087C232.914 150.737 233.314 150.473 233.76 150.32C234.443 149.975 235.211 149.836 235.972 149.922C236.732 150.007 237.451 150.312 238.04 150.8C239.43 151.877 240.656 153.151 241.68 154.58C242.049 155.178 242.61 155.633 243.27 155.873C243.931 156.113 244.653 156.122 245.32 155.9C246.68 155.6 248.07 155.39 249.46 155.21C251.457 155.027 253.468 155.05 255.46 155.28C257.2 155.41 258.71 154.94 259.37 153.07C259.928 151.688 260.922 150.526 262.2 149.76C260.71 148.59 259.31 147.55 257.98 146.44C257.449 145.994 256.818 145.683 256.14 145.534C255.463 145.384 254.76 145.4 254.09 145.58C250.38 146.272 246.546 145.745 243.16 144.08C242.203 143.647 241.226 143.263 240.23 142.93C236.352 141.456 232.056 141.527 228.23 143.13C226.824 143.719 225.315 144.022 223.79 144.02C222.04 144.02 220.28 143.91 218.53 143.82C216.671 143.561 214.778 143.722 212.99 144.29C212.181 144.653 211.284 144.776 210.407 144.645C209.529 144.513 208.708 144.134 208.04 143.55C207.732 143.276 207.342 143.112 206.931 143.085C206.52 143.058 206.111 143.169 205.77 143.4C202.439 145.11 199.298 147.168 196.4 149.54C196.228 149.694 196.08 149.873 195.96 150.07C195.9 150.16 195.85 150.35 195.9 150.4C195.95 150.45 196.24 150.74 196.39 150.71C197.07 150.59 197.75 150.42 198.39 150.25C200.39 149.73 202.33 149.56 203.88 151.35C204.41 151.97 205.08 151.82 205.8 151.79C206.863 151.671 207.932 151.949 208.801 152.572C209.671 153.194 210.28 154.116 210.51 155.16C210.866 156.269 211.143 157.402 211.34 158.55C211.461 159.241 211.381 159.953 211.11 160.6C210.11 162.65 208.43 163.35 206.69 161.53C206.121 160.937 205.643 160.263 205.27 159.53C204.666 158.388 203.764 157.431 202.66 156.76C200.88 155.59 200.1 155.44 198.66 156.9C197.49 158.057 195.95 158.765 194.31 158.9C193.39 159.02 192.47 159.15 191.54 159.25C191.247 159.244 190.956 159.303 190.688 159.423C190.42 159.542 190.182 159.718 189.99 159.94C188.81 161.35 188.231 163.167 188.38 165C189.83 163.84 191.04 162.94 192.19 162C193.19 161.18 194.09 160.65 195.33 161.44C195.736 161.672 196.184 161.819 196.648 161.872C197.112 161.925 197.582 161.884 198.03 161.75C198.832 161.585 199.655 161.545 200.47 161.63C201.527 161.739 202.529 162.151 203.358 162.817C204.186 163.482 204.805 164.372 205.14 165.38C206.03 167.57 204.47 169.38 202.14 169.02C201.59 168.93 201.09 168.48 200.49 168.87C200.49 171.05 200.49 171.69 199.57 172.4C197.65 173.93 195.7 175.5 192.93 174.32C192.18 174 191.62 174.41 191.39 175.21C191.29 175.537 191.216 175.871 191.17 176.21C190.87 179 190.57 181.79 190.31 184.58C190.15 186.32 189.52 187.13 187.87 187.47C187.534 187.584 187.168 187.572 186.841 187.436C186.513 187.299 186.246 187.049 186.09 186.73C185.72 186 185.42 185.24 185.01 184.53C184.879 184.337 184.707 184.175 184.507 184.055C184.306 183.935 184.082 183.86 183.85 183.836C183.618 183.811 183.383 183.837 183.162 183.912C182.941 183.987 182.739 184.109 182.57 184.27C182.15 184.675 181.855 185.192 181.72 185.76C181.11 187.76 181.65 189.71 182.1 191.64C182.36 192.75 182.63 192.88 184.1 192.95C185.73 193.04 186.29 193.4 186.65 194.79C187.22 196.94 187.29 198.97 184.96 200.25C185.58 201.51 186.18 202.65 186.72 203.81C187.184 204.997 187.82 206.109 188.61 207.11C191.51 206.16 194.08 204.86 195.91 202.25C195.5 201.48 195.02 200.68 194.62 199.84C193.701 198.07 193.028 196.182 192.62 194.23C192.16 191.58 193.06 188.9 195.21 188.29C197.36 187.68 197.6 186.54 197.4 184.78C197.345 184.313 197.365 183.84 197.46 183.38C197.587 182.507 197.957 181.687 198.528 181.015C199.099 180.343 199.849 179.846 200.69 179.58C202.45 179.01 203.69 180.03 204.64 181.2C205.59 182.37 206.4 183.67 207.29 184.9C207.58 185.3 208.03 185.57 208.47 185.17C209.32 184.39 210.47 183.97 211.11 182.87C209.05 179.49 208.44 175.72 208.11 171.87C208.022 170.579 208.281 169.287 208.86 168.13C209.158 167.428 209.627 166.811 210.223 166.336C210.82 165.861 211.526 165.543 212.277 165.41C213.028 165.277 213.8 165.333 214.523 165.574C215.247 165.815 215.899 166.233 216.42 166.79C217.312 167.72 218.078 168.762 218.7 169.89C219.394 171.335 220.278 172.681 221.33 173.89C222.07 173.71 221.92 173.15 222.06 172.77C222.834 170.658 224.329 168.888 226.28 167.77C229.39 165.85 232.73 165.84 236.12 166.38C239.96 167 240.94 168.09 241.72 171.99C241.72 172.22 241.78 172.45 241.84 172.68C242.48 175.48 242.84 175.77 245.68 174.74C247.083 174.149 248.597 173.867 250.118 173.912C251.64 173.956 253.134 174.328 254.5 175C255.565 175.492 256.727 175.738 257.9 175.72C258.198 175.742 258.494 175.651 258.729 175.466C258.964 175.281 259.121 175.015 259.17 174.72C259.22 174.49 259.202 174.251 259.118 174.031C259.035 173.811 258.89 173.619 258.7 173.48C257.84 172.87 256.91 172.37 256.07 171.74C254.25 170.39 254.26 169.35 256.07 167.96C256.22 167.8 256.53 167.62 257 167.31ZM129.34 321.31C129.34 319.07 129.44 317.09 129.34 315.13C129.24 313.17 128.8 310.96 128.63 308.87C127.84 299.09 126.63 289.35 126.27 279.53C126.14 276.15 125.83 272.77 125.61 269.39C125.61 268.95 125.69 268.33 125.08 268.32C124.633 268.394 124.223 268.612 123.91 268.94C123.231 269.743 122.746 270.69 122.49 271.71C121.82 273.26 121.03 274.57 119.27 275.16C118.553 275.411 117.915 275.848 117.421 276.426C116.927 277.004 116.596 277.702 116.46 278.45C115.843 280.704 115.356 282.991 115 285.3C114.46 289 114 292.7 113.29 296.37C112.07 302.32 111.47 308.37 110.82 314.37C110.628 315.764 110.695 317.181 111.02 318.55C111.72 321.19 112.12 321.46 114.88 321.32C115.81 321.32 116.75 321.26 117.68 321.26L129.34 321.31ZM278.67 181.37C277.656 183.447 276.817 185.604 276.16 187.82C275.41 189.82 274.69 191.75 273.91 193.7C273.6 194.589 273.046 195.372 272.31 195.96C272.184 196.093 272.015 196.179 271.833 196.202C271.651 196.226 271.466 196.186 271.31 196.09C271.12 195.973 270.984 195.786 270.93 195.57C270.89 194.757 270.907 193.941 270.98 193.13C271.07 192.32 271.4 191.47 270.98 190.71C270.26 189.33 270.72 187.97 270.88 186.59C270.96 185.89 271.09 185.2 271.11 184.5C271.11 184.07 271.11 183.5 270.55 183.36C270.268 183.272 269.962 183.3 269.7 183.436C269.437 183.573 269.24 183.808 269.15 184.09C268.742 184.931 268.379 185.792 268.06 186.67C267.44 188.31 266.9 189.98 266.23 191.6C265.31 193.84 264.03 195.93 264.36 198.6C264.48 199.6 263.86 200.6 263.51 201.6C262.738 203.689 261.652 205.648 260.29 207.41C258.81 209.41 257.29 211.29 255.66 213.14C255.282 213.499 255.017 213.962 254.9 214.471C254.783 214.979 254.817 215.511 255 216C255.895 218.812 255.842 221.841 254.85 224.62C254.567 225.387 254.497 226.216 254.649 227.019C254.8 227.822 255.167 228.569 255.71 229.18C256.44 230.09 257.14 231.03 257.89 231.93C257.971 232.052 258.079 232.153 258.206 232.226C258.334 232.298 258.476 232.339 258.622 232.346C258.768 232.353 258.914 232.325 259.048 232.265C259.181 232.205 259.298 232.114 259.39 232C259.82 231.6 260.28 231.24 260.7 230.84C266.99 225.016 271.929 217.886 275.17 209.95C278.892 200.913 280.101 191.038 278.67 181.37ZM51.67 221.57C52.03 214.77 47.8 211.15 42.98 210.85C38.9 210.59 35.09 211.39 32.17 214.58C31.273 215.517 30.4474 216.52 29.7 217.58C27.5143 220.775 26.1946 224.482 25.87 228.34C25.5503 230.693 25.6553 233.084 26.18 235.4C29.28 232.73 32.32 230.63 36.62 231.89C36.62 230.73 36.56 229.8 36.62 228.89C36.7082 227.495 36.8751 226.106 37.12 224.73C37.3929 223.234 38.0867 221.846 39.12 220.73C39.7777 219.89 40.7228 219.324 41.7733 219.139C42.8238 218.954 43.9055 219.165 44.81 219.73C45.74 220.21 46.65 220.73 47.59 221.19C47.98 221.38 48.51 221.64 48.85 221.19C50 219.52 50.6 221.24 51.7 221.57H51.67ZM95.49 195.12C97.2356 195.24 98.9884 195.037 100.66 194.52C101.222 194.351 101.714 194.004 102.062 193.532C102.41 193.059 102.595 192.487 102.59 191.9C102.734 190.145 102.306 188.391 101.37 186.9C100.123 184.928 98.5308 183.197 96.67 181.79C95.2369 180.795 93.6288 180.079 91.93 179.68C90.04 179.2 89.07 179.58 88.15 181.26C87.4686 182.475 86.9188 183.759 86.51 185.09C85.9021 187.472 84.6045 189.622 82.78 191.27C82.2614 191.736 81.8013 192.263 81.41 192.84C81.1488 193.16 81.0216 193.569 81.0551 193.981C81.0887 194.393 81.2804 194.776 81.59 195.05C81.9054 195.39 82.2653 195.686 82.66 195.93C82.92 196.09 83.2 196.32 83.6 196.09C83.7455 195.997 83.862 195.866 83.9362 195.71C84.0105 195.555 84.0395 195.381 84.02 195.21C84.08 193.85 84.29 193.48 85.2 193.52C86.3611 193.572 87.5106 193.774 88.62 194.12C90.8591 194.787 93.1836 195.124 95.52 195.12H95.49ZM129.56 200.06C126.26 201.39 123.84 203.84 121.45 206.32C121.236 206.596 121.064 206.903 120.94 207.23C119.899 209.202 119.428 211.425 119.58 213.65C119.93 217.71 120.37 221.76 120.78 225.82C120.777 225.971 120.808 226.121 120.87 226.258C120.933 226.396 121.026 226.517 121.143 226.613C121.259 226.709 121.396 226.778 121.543 226.814C121.689 226.85 121.842 226.852 121.99 226.82C122.92 226.784 123.844 226.66 124.75 226.45C124.895 226.435 125.033 226.383 125.151 226.298C125.269 226.212 125.363 226.098 125.423 225.965C125.483 225.832 125.506 225.686 125.492 225.541C125.477 225.397 125.425 225.258 125.34 225.14C124.904 223.926 124.8 222.617 125.04 221.35C125.241 218.326 125.764 215.333 126.6 212.42C127.573 208.947 128.573 205.473 129.6 202C129.737 201.694 129.806 201.363 129.803 201.028C129.799 200.693 129.723 200.363 129.58 200.06H129.56ZM224.5 183.3C222.9 180.7 221.35 178.3 219.92 175.84C218.623 173.631 217.187 171.507 215.62 169.48C215.346 169.105 215.049 168.748 214.73 168.41C214.551 168.176 214.318 167.988 214.051 167.863C213.784 167.738 213.491 167.679 213.196 167.692C212.901 167.705 212.614 167.789 212.359 167.936C212.104 168.084 211.888 168.291 211.73 168.54C211.037 169.336 210.576 170.309 210.4 171.35C209.785 174.938 210.496 178.627 212.4 181.73C212.541 181.983 212.767 182.177 213.038 182.28C213.309 182.382 213.607 182.386 213.88 182.29C219.56 181.24 220 181.29 224.52 183.3H224.5ZM225.69 184.97C225.87 189.07 225.09 190.46 221.83 192.12C221.21 192.44 220.55 192.69 219.91 192.98C219.151 193.261 218.412 193.595 217.7 193.98C215.34 195.49 215.63 196.72 217.02 198.58C217.268 198.908 217.587 199.177 217.951 199.367C218.316 199.557 218.719 199.664 219.13 199.68C220.534 199.76 221.929 199.411 223.13 198.68C225.623 197.365 227.969 195.789 230.13 193.98C230.7 193.48 231.54 193.11 231.55 191.98C229.38 190.08 227.74 187.55 225.71 185L225.69 184.97ZM85.37 227.35C85.65 225.9 85.94 224.67 86.1 223.42C86.2092 222.38 86.2593 221.335 86.25 220.29C86.32 214.71 85.54 209.15 85.84 203.56C85.84 203.29 85.84 202.8 85.37 202.9C85.1 202.96 84.85 203.29 84.68 203.56C84.5078 203.871 84.3894 204.209 84.33 204.56C82.9634 210.92 81.6034 217.283 80.25 223.65C80.0982 224.323 80.0145 225.01 80 225.7C79.989 226.113 80.1394 226.515 80.4195 226.819C80.6995 227.124 81.0871 227.307 81.5 227.33C82.79 227.4 84 227.35 85.37 227.35ZM235.65 188.75C238.03 187.45 239.4 185.5 241.19 184.03C241.376 183.887 241.505 183.684 241.556 183.456C241.608 183.227 241.577 182.988 241.47 182.78C240.497 180.788 239.263 178.935 237.8 177.27C237.407 176.842 236.883 176.557 236.31 176.46C235.822 176.41 235.328 176.476 234.871 176.655C234.413 176.833 234.005 177.117 233.68 177.485C233.354 177.853 233.121 178.292 232.999 178.768C232.878 179.244 232.871 179.741 232.98 180.22C233.219 181.591 233.553 182.945 233.98 184.27C234.46 185.71 235 187.11 235.66 188.75H235.65ZM222.94 240.64C221.397 239.466 219.988 238.124 218.74 236.64C218.498 236.309 218.16 236.061 217.772 235.928C217.383 235.796 216.964 235.786 216.57 235.9C213.365 236.562 210.085 236.788 206.82 236.57C204.558 236.55 202.307 236.887 200.15 237.57C201.886 238.376 203.776 238.796 205.69 238.8C206.85 238.8 208.01 239 209.17 239.09C211.85 239.303 214.486 239.896 217 240.85C217.947 241.242 218.968 241.427 219.993 241.39C221.018 241.354 222.023 241.098 222.94 240.64ZM202 194.12L206.36 187.41C206.511 187.232 206.599 187.01 206.612 186.777C206.624 186.544 206.561 186.313 206.43 186.12C205.467 184.528 204.315 183.057 203 181.74C202.838 181.571 202.643 181.436 202.427 181.344C202.211 181.253 201.979 181.205 201.745 181.205C201.511 181.205 201.279 181.253 201.063 181.344C200.847 181.436 200.652 181.571 200.49 181.74C199.94 182.17 199.521 182.745 199.28 183.4C198.732 184.699 198.619 186.141 198.96 187.51C199.46 189.915 200.499 192.175 202 194.12ZM196.83 201.31C198.247 199.873 199.505 198.288 200.58 196.58C200.796 196.304 200.919 195.967 200.932 195.616C200.944 195.266 200.846 194.921 200.65 194.63C199.65 193.18 198.76 191.69 197.76 190.26C197.1 189.33 196.24 189.33 195.45 190.26C194.815 190.95 194.367 191.791 194.148 192.702C193.929 193.614 193.947 194.567 194.2 195.47C194.809 197.537 195.708 199.506 196.87 201.32L196.83 201.31ZM177.67 211.07C178.35 210.87 178.67 210.76 179.01 210.67C179.79 210.46 180.75 210.46 181.22 209.78C181.69 209.1 180.88 208.33 180.69 207.6C180.449 206.467 180.388 205.302 180.51 204.15C180.578 203.8 180.568 203.44 180.482 203.095C180.395 202.749 180.234 202.427 180.01 202.15C178.46 200.59 176.75 199.22 174.8 197.47C175.248 202.099 176.225 206.662 177.71 211.07H177.67ZM232.46 74.44C232.22 72.27 231.91 69.51 231.59 66.75C231.557 66.5246 231.468 66.3112 231.33 66.13C231.2 65.95 230.99 65.74 230.8 65.73C230.61 65.72 230.4 65.92 230.25 66.08C230.096 66.2558 229.977 66.4595 229.9 66.68C228.61 70.11 228.83 73.74 228.58 77.3C228.52 78.18 229.21 78.6 230.27 78.68C231.89 78.8 232.39 78.38 232.46 76.8C232.48 76.2 232.46 75.62 232.46 74.44ZM173.46 70.54C173.46 68.69 173.46 66.83 173.46 64.98C173.468 64.894 173.459 64.8073 173.432 64.7251C173.405 64.643 173.362 64.5672 173.305 64.5025C173.248 64.4378 173.178 64.3855 173.1 64.349C173.021 64.3124 172.936 64.2924 172.85 64.29C172.68 64.2794 172.511 64.3257 172.369 64.4216C172.228 64.5176 172.123 64.6577 172.07 64.82C170.945 68.1038 170.079 71.4708 169.48 74.89C169.468 75.0064 169.468 75.1236 169.48 75.24C169.535 75.8191 169.79 76.361 170.2 76.7733C170.61 77.1855 171.151 77.4424 171.73 77.5C172.73 77.6 173.44 76.83 173.5 75.42C173.49 73.78 173.44 72.16 173.44 70.53L173.46 70.54ZM260 234.45C261.42 236.03 262.64 237.45 263.89 238.75C264.111 238.991 264.414 239.141 264.74 239.17C265.14 239.17 265.22 238.75 265.26 238.4C265.53 236.22 265.82 234.04 266.02 231.85C266.1 230.98 266.49 230.08 265.85 228.97L260 234.45ZM170.13 52.71C170.065 55.1575 169.706 57.5883 169.06 59.95C168.847 60.6401 168.839 61.3773 169.038 62.0716C169.237 62.7659 169.634 63.3873 170.18 63.86C170.8 63.27 171.28 62.77 171.81 62.33C172.34 61.89 172.49 61.65 172.35 61.16C171.59 58.65 171.46 56 170.13 52.71ZM218.86 183.11C218.386 183.026 217.898 183.058 217.439 183.202C216.979 183.347 216.561 183.6 216.22 183.94C216.045 184.091 215.915 184.288 215.844 184.509C215.774 184.729 215.765 184.965 215.82 185.19C216.01 185.77 216.336 186.295 216.771 186.723C217.206 187.15 217.738 187.467 218.321 187.646C218.904 187.826 219.522 187.862 220.122 187.753C220.722 187.644 221.287 187.393 221.77 187.02C223.12 185.88 222.97 184.6 221.46 183.73C220.663 183.298 219.766 183.088 218.86 183.12V183.11ZM232.86 65.11C235.26 62.83 235.22 60.5 232.31 57.75L230.31 63.35L232.86 65.11ZM80.88 234C81.9282 233.531 82.8679 232.85 83.64 232C84.0431 231.591 84.3805 231.122 84.64 230.61C84.99 230.02 84.64 229.53 83.92 229.51C82.5 229.51 82.15 229.61 81.8 230.72C81.45 231.83 80.75 232.79 80.88 234ZM139.19 190.26C139.07 190.06 139 189.78 138.83 189.69C138.724 189.647 138.61 189.631 138.496 189.643C138.383 189.655 138.274 189.695 138.18 189.76C137.28 190.76 136.39 191.85 135.58 192.94C135.48 193.07 135.73 193.61 135.95 193.8C136.074 193.919 136.22 194.011 136.381 194.07C136.542 194.129 136.713 194.154 136.884 194.144C137.055 194.133 137.222 194.088 137.375 194.01C137.527 193.932 137.662 193.823 137.77 193.69C138.578 192.731 139.073 191.548 139.19 190.3V190.26ZM95.48 178.26C95.72 178.08 95.66 177.94 95.48 177.7C95.4193 177.607 95.3384 177.529 95.2435 177.472C95.1485 177.415 95.0419 177.379 94.9315 177.369C94.821 177.358 94.7097 177.373 94.6056 177.411C94.5015 177.449 94.4073 177.51 94.33 177.59C93.97 177.84 94.04 178.14 94.33 178.35C94.62 178.56 95.11 178.9 95.48 178.34V178.26Z" fill="#433F40"/>
<path d="M86.3701 287.76C85.3701 286 86.7701 284.46 86.0601 283.32C85.3501 282.18 83.8801 281.65 82.8601 280.72C80.6819 278.9 79.1118 276.457 78.3601 273.72C78.0354 272.716 78.0111 271.638 78.2901 270.62C78.4701 270.07 78.8101 269.43 79.4901 269.52C80.9301 269.7 81.4901 268.95 81.8901 267.74C82.2901 266.53 82.9901 266.52 83.6801 267.37C84.3972 268.28 85.0648 269.228 85.6801 270.21C86.2691 271.36 87.1225 272.354 88.1701 273.11C88.6168 273.387 88.9848 273.775 89.2387 274.236C89.4926 274.696 89.6239 275.214 89.6201 275.74C89.8139 277.613 89.5603 279.505 88.8801 281.26C87.6101 284.58 87.2801 287.76 88.8801 291.09C89.2719 292.32 89.418 293.614 89.3101 294.9C89.4901 300.16 89.6101 305.41 89.7601 310.67C89.8062 313.014 89.5097 315.352 88.8801 317.61C88.7401 318.12 88.7201 318.52 89.2001 318.79C89.5113 318.958 89.7596 319.222 89.9075 319.543C90.0554 319.864 90.0949 320.225 90.0201 320.57C89.6701 323.51 90.3801 326.39 90.5101 329.3C90.5101 329.72 90.8501 330.19 90.1501 330.67C88.2401 328.6 88.1501 325.9 87.6501 323.37C85.2301 322.93 52.7201 322.71 48.5401 323.09C48.3401 324.01 49.2001 324.18 49.6601 324.61C50.1201 325.04 50.7801 325.46 51.2901 325.94C51.726 326.29 52.0764 326.735 52.3146 327.241C52.5528 327.747 52.6726 328.3 52.6649 328.86C52.6571 329.419 52.5221 329.969 52.2701 330.468C52.018 330.967 51.6555 331.402 51.2101 331.74C50.691 332.209 50.0432 332.512 49.3501 332.61C46.5501 332.75 43.7401 332.85 40.9401 332.75C39.4901 332.7 38.4501 331.49 37.5601 330.47C36.3408 329.173 35.6613 327.46 35.6601 325.68C35.6369 320.999 34.9947 316.342 33.7501 311.83C33.5488 310.68 33.4252 309.517 33.3801 308.35C33.2214 307.077 33.3165 305.786 33.6598 304.55C34.003 303.314 34.5878 302.159 35.3801 301.15C37.3765 298.516 38.4643 295.305 38.4801 292C38.4427 291.55 38.3486 291.106 38.2001 290.68C38.2001 290.59 38.0501 290.45 37.9801 290.46C37.9101 290.47 37.4101 290.46 37.3401 290.59C36.8315 291.513 36.3839 292.468 36.0001 293.45C34.9727 296.458 33.1889 299.151 30.8201 301.27C26.9401 304.64 25.5401 309.18 24.6501 313.93C24.2566 316.36 24.1759 318.83 24.4101 321.28C24.4011 321.749 24.5575 322.207 24.8518 322.572C25.1462 322.938 25.5597 323.189 26.0201 323.28C26.4701 323.39 26.9301 323.49 27.3701 323.63C27.929 323.783 28.4716 323.991 28.9901 324.25C31.1701 325.48 32.6501 328.11 32.0801 329.67C31.5148 330.746 30.6728 331.651 29.6409 332.292C28.6091 332.934 27.4248 333.289 26.2101 333.32C25.4182 333.217 24.6134 333.285 23.8501 333.52C23.1861 333.748 22.4813 333.835 21.7818 333.772C21.0822 333.71 20.4036 333.502 19.7901 333.16C19.6401 333.08 19.5901 332.76 19.5601 332.55C19.549 332.491 19.5518 332.43 19.5684 332.371C19.5849 332.313 19.6147 332.26 19.6555 332.215C19.6962 332.171 19.7467 332.136 19.803 332.114C19.8594 332.093 19.92 332.084 19.9801 332.09C20.9801 332.09 22.0701 332.26 23.1101 332.23C24.1501 332.2 24.5201 331.54 24.4401 330.59C24.2374 329.561 23.8621 328.574 23.3301 327.67C23.2768 327.453 23.3091 327.224 23.4201 327.03C23.5045 326.878 23.6452 326.766 23.8118 326.717C23.9783 326.669 24.1574 326.688 24.3101 326.77C26.0901 327.43 26.3901 328.01 26.1401 330.28C26.0301 331.28 26.4701 331.78 27.4601 331.71C27.5762 331.727 27.694 331.727 27.8101 331.71C28.5501 331.42 29.6901 331.71 30.0201 330.94C30.211 330.449 30.278 329.918 30.2152 329.395C30.1524 328.872 29.9618 328.372 29.6601 327.94C29.3871 327.409 29.0113 326.938 28.5547 326.553C28.0981 326.169 27.5697 325.879 27.0001 325.7C26.6601 325.62 26.3301 325.49 26.0001 325.39C22.7701 324.39 22.5101 324.08 22.3001 320.85C22.0195 314.863 23.4448 308.919 26.4101 303.71C27.1466 302.376 28.1034 301.175 29.2401 300.16C31.9343 297.679 33.9043 294.513 34.9401 291C35.8101 288.13 37.5201 285.77 39.1501 283.36C39.7609 282.501 40.5392 281.775 41.438 281.225C42.3368 280.675 43.3376 280.313 44.3801 280.16C50.2595 278.931 56.3792 279.654 61.8101 282.22C65.217 283.753 68.7253 285.049 72.3101 286.1C76.8644 287.467 81.6226 288.029 86.3701 287.76ZM62.2301 284.76C62.0091 285.065 61.8054 285.382 61.6201 285.71C59.2481 290.684 55.9021 295.132 51.7801 298.79C50.1201 300.26 48.5501 301.79 47.0001 303.43C45.9936 304.263 45.2905 305.406 45.0001 306.68C44.6101 309.91 43.9301 313.12 44.6101 316.42C45.7301 321.85 46.2901 321.23 50.2201 321.21C62.0301 321.21 73.8301 321.05 85.6401 320.96C86.1901 320.96 86.7901 321.04 87.2201 320.5C87.0428 320.013 86.9707 319.493 87.0086 318.976C87.0466 318.459 87.1936 317.956 87.4401 317.5C88.1961 316.029 88.3847 314.331 87.9701 312.73C87.8821 312.272 87.8585 311.804 87.9001 311.34C87.8068 305.733 87.7168 300.123 87.6301 294.51C87.6578 293.692 87.6244 292.873 87.5301 292.06C87.2601 290.46 86.6501 289.98 84.9101 289.98C78.9368 290.044 73.0132 288.89 67.5001 286.59C65.8201 285.87 64.0001 285.38 62.2201 284.78L62.2301 284.76ZM42.6501 302C42.2913 301.916 41.9182 301.916 41.5594 302C41.2005 302.083 40.8655 302.247 40.5801 302.48C39.5902 303.092 38.52 303.563 37.4001 303.88C35.6101 304.27 35.1901 304.75 35.4001 306.39C35.5667 308.129 35.8608 309.854 36.2801 311.55C37.6071 315.436 38.1906 319.538 38.0001 323.64C37.9243 324.337 37.9513 325.041 38.0801 325.73C38.7201 328.57 40.0801 330.86 44.0801 330.73C45.6001 330.73 47.0801 330.61 48.6301 330.51C49.0914 330.483 49.5462 330.389 49.9801 330.23C50.1998 330.149 50.3961 330.015 50.5516 329.841C50.7071 329.666 50.817 329.455 50.8714 329.227C50.9259 329 50.9232 328.762 50.8636 328.536C50.8041 328.309 50.6895 328.101 50.5301 327.93C49.5901 327.07 48.5301 326.28 47.5301 325.51C45.959 324.291 44.7662 322.65 44.0901 320.78C42.7694 317.401 42.3926 313.727 43.0001 310.15C43.4801 307.33 42.9201 304.69 42.6501 302Z" fill="#433F40"/>
<path d="M108.71 183.76C108.763 183.237 108.857 182.719 108.99 182.21C109.144 181.581 109.465 181.005 109.919 180.542C110.374 180.08 110.944 179.749 111.571 179.584C112.198 179.419 112.857 179.427 113.48 179.606C114.103 179.784 114.666 180.128 115.11 180.6C115.553 180.987 115.857 181.508 115.978 182.083C116.099 182.659 116.029 183.258 115.78 183.79C115.448 184.54 114.969 185.216 114.371 185.777C113.773 186.339 113.069 186.775 112.3 187.06C110.39 187.79 109.09 187.06 108.79 184.98C108.75 184.64 108.75 184.28 108.71 183.76ZM110.62 182.34C109.48 183.29 109.77 184.34 110.26 185.47C110.464 185.742 110.764 185.925 111.1 185.981C111.435 186.037 111.779 185.962 112.06 185.77C112.55 185.36 112.26 184.92 111.93 184.64C111.347 183.967 110.902 183.185 110.62 182.34Z" fill="#433F40"/>
<path d="M105.12 209.94C103.805 209.821 102.529 209.43 101.373 208.793C100.216 208.157 99.2039 207.287 98.4 206.24C98.3152 206.156 98.2503 206.055 98.2102 205.943C98.17 205.831 98.1557 205.712 98.1682 205.593C98.1807 205.475 98.2197 205.361 98.2823 205.26C98.345 205.159 98.4296 205.074 98.53 205.01C98.6861 204.935 98.8569 204.896 99.03 204.896C99.203 204.896 99.3738 204.935 99.53 205.01C99.94 205.21 100.23 205.63 100.62 205.87C102.8 207.19 104.91 208.74 107.73 208.07C107.94 208.07 108.42 208.41 108.48 208.67C108.478 208.837 108.437 209.002 108.36 209.151C108.284 209.3 108.174 209.43 108.04 209.53C107.29 210 106.43 209.85 105.12 209.94Z" fill="#433F40"/>
<path d="M107.8 279.47L106.73 279.96C106.767 279.856 106.824 279.761 106.898 279.68C106.972 279.599 107.062 279.534 107.161 279.489C107.261 279.443 107.369 279.418 107.479 279.414C107.588 279.411 107.698 279.43 107.8 279.47Z" fill="#433F40"/>
<path d="M105.55 331.91C106.46 331.1 106.7 331.09 107.29 331.8L105.55 331.91Z" fill="#433F40"/>
<path d="M121.13 229C133.426 226.892 145.569 223.972 157.48 220.26C163.26 218.43 169.07 216.67 174.88 214.91C180.554 213.096 186.045 210.753 191.28 207.91C195.714 205.485 199.445 201.954 202.11 197.66C203.59 195.42 204.84 193.03 206.27 190.75C208.1 187.83 210.27 185.28 213.72 184.16C214.51 184.33 214.31 185.04 214.47 185.53C214.722 186.441 215.213 187.267 215.892 187.925C216.57 188.582 217.412 189.047 218.33 189.27C219.188 189.5 220.096 189.474 220.939 189.195C221.783 188.916 222.527 188.396 223.08 187.7C223.15 187.61 223.27 187.56 223.34 187.47C223.55 187.21 223.77 187.21 223.9 187.47C223.994 187.674 224.012 187.905 223.95 188.12C223.495 189.076 222.683 189.815 221.69 190.18C220.62 190.64 219.54 191.1 218.48 191.58C217.305 192.113 216.251 192.879 215.38 193.83C214.806 194.339 214.407 195.015 214.238 195.764C214.069 196.512 214.14 197.294 214.44 198C215.13 199.68 216.08 201.11 218.09 201.41C220.186 201.768 222.34 201.36 224.16 200.26C226.909 198.698 229.495 196.865 231.88 194.79C235.34 191.65 238.82 188.52 242.27 185.35C243.118 184.546 243.919 183.695 244.67 182.8C246.389 181.049 248.301 179.499 250.37 178.18C250.666 177.892 251.055 177.719 251.467 177.691C251.88 177.664 252.288 177.784 252.62 178.03C253.028 178.267 253.347 178.631 253.527 179.066C253.708 179.502 253.74 179.984 253.62 180.44C253.372 181.459 253 182.443 252.51 183.37C251.729 184.826 250.757 186.171 249.62 187.37C247.11 189.99 244.62 192.65 242.18 195.3C241.78 195.73 241.4 196.18 241.03 196.63C240.11 197.74 239.77 198.87 240.29 199C241.29 199.25 241.72 198.42 242.29 197.93C245.453 195.322 248.345 192.4 250.92 189.21C252.445 187.433 253.702 185.442 254.65 183.3C255.112 182.093 255.836 181.003 256.77 180.11C257.033 179.797 257.401 179.589 257.806 179.527C258.211 179.464 258.624 179.551 258.97 179.77C259.39 179.967 259.723 180.31 259.907 180.736C260.091 181.161 260.114 181.639 259.97 182.08C259.717 182.853 259.407 183.605 259.04 184.33C257.291 187.642 255.167 190.743 252.71 193.57C250.18 196.64 247.48 199.57 244.81 202.5C244.04 203.35 243.06 204.01 242.23 204.8C241.94 205.08 242.15 205.48 242.38 205.74C242.458 205.809 242.551 205.861 242.651 205.892C242.751 205.923 242.856 205.933 242.96 205.92C243.867 205.672 244.672 205.144 245.26 204.41C248.6 201.12 251.65 197.58 254.66 193.99C256.945 191.483 258.926 188.713 260.56 185.74C260.678 185.536 260.808 185.339 260.95 185.15C261.41 184.45 261.89 183.74 262.87 183.92C263.38 184.059 263.836 184.348 264.18 184.749C264.525 185.15 264.74 185.645 264.8 186.17C264.922 187.944 264.439 189.706 263.43 191.17C260.967 195.291 258.023 199.105 254.66 202.53C252.66 204.53 250.89 206.67 248.46 208.15C247.897 208.564 247.395 209.056 246.97 209.61C246.85 209.735 246.782 209.902 246.782 210.075C246.782 210.249 246.85 210.415 246.97 210.54C247.073 210.683 247.218 210.789 247.385 210.845C247.552 210.901 247.732 210.902 247.9 210.85C248.256 210.79 248.597 210.657 248.9 210.46C250.463 209.236 251.949 207.917 253.35 206.51C255.95 203.66 258.35 200.67 260.91 197.74C261.14 197.47 261.36 197.2 261.6 196.95C261.708 196.814 261.864 196.723 262.036 196.695C262.208 196.668 262.384 196.705 262.53 196.8C262.662 196.914 262.769 197.056 262.843 197.214C262.917 197.373 262.957 197.545 262.96 197.72C262.677 199.692 262.047 201.598 261.1 203.35C260.475 204.606 259.736 205.801 258.89 206.92C254.03 213.533 248.013 219.211 241.13 223.68C233.269 228.541 224.64 232.031 215.61 234C213.204 234.532 210.725 234.647 208.28 234.34C207.003 234.209 205.713 234.308 204.47 234.63C202.2 235.18 199.93 235.73 197.63 236.17C194.408 236.713 191.26 237.629 188.25 238.9C186.064 239.706 183.829 240.374 181.56 240.9C176.31 242.48 171.02 243.9 165.83 245.69C160.83 247.39 155.76 248.69 150.83 250.29C143.199 252.862 135.405 254.923 127.5 256.46C126.833 256.587 126.143 256.7 125.43 256.8C125.291 256.842 125.144 256.853 125.001 256.833C124.857 256.812 124.719 256.761 124.598 256.682C124.476 256.603 124.373 256.498 124.295 256.375C124.218 256.252 124.168 256.114 124.15 255.97C123.612 253.694 122.876 251.468 121.95 249.32C121.711 248.786 121.689 248.18 121.89 247.63C123.4 242.89 122.58 238.14 121.89 233.4C121.64 232 121.4 230.65 121.13 229Z" fill="#FBFCFC"/>
<path d="M278.34 253C279.36 252.449 280.412 251.958 281.49 251.53C285.93 250.09 290.23 248.28 294.62 246.72C298.03 245.51 301.46 244.37 304.78 242.94C308.53 241.33 312.31 239.78 316.08 238.2C317.4 237.64 317.72 237.79 318 239.2C319.193 245.28 320.38 251.357 321.56 257.43C322.51 262.25 323.43 267.07 324.01 271.95C324.37 274.95 325.01 277.95 325.56 280.95C326.43 285.911 326.997 290.92 327.26 295.95C327.62 301.25 324.98 305.08 320.99 308.19C320.242 308.766 319.324 309.079 318.38 309.08C316.046 309.217 313.707 308.94 311.47 308.26C303.794 305.73 296.605 301.913 290.21 296.97C282.83 291.23 275.6 285.29 268.4 279.31C259.74 272.1 252.4 263.6 244.4 255.75C242.371 253.653 240.224 251.673 237.97 249.82C236.44 248.551 235.015 247.16 233.71 245.66C231.298 243.103 228.442 241.006 225.28 239.47C224.522 239.165 223.814 238.747 223.18 238.23C222.24 237.3 220.79 236.76 220.59 235.23C221.46 234.34 222.69 234.3 223.77 233.94C232.36 231.06 240.45 227.22 247.53 221.48C249.07 220.23 250.53 218.86 252.03 217.57C252.284 217.359 252.6 217.236 252.93 217.22C253.42 217.22 253.36 217.7 253.37 218.01C253.537 219.999 253.275 222.001 252.6 223.88C252.266 224.692 252.158 225.578 252.287 226.446C252.415 227.313 252.776 228.13 253.33 228.81C254.554 230.666 255.89 232.446 257.33 234.14C259.27 236.31 260.97 238.68 262.89 240.87C268.686 247.463 275.14 253.447 282.15 258.73C285.23 261.05 288.3 263.4 291.39 265.73C292.323 266.428 293.294 267.072 294.3 267.66C294.504 267.784 294.744 267.834 294.98 267.803C295.216 267.772 295.435 267.662 295.6 267.49C295.67 267.396 295.719 267.289 295.745 267.174C295.771 267.06 295.773 266.942 295.75 266.827C295.727 266.712 295.681 266.603 295.614 266.507C295.547 266.412 295.46 266.331 295.36 266.27C294.63 265.69 293.86 265.16 293.11 264.59L279.71 254.4C279.35 253.93 279 253.59 278.34 253Z" fill="#FBFCFC"/>
<path d="M201.74 22.3701C202.163 22.4314 202.568 22.5805 202.93 22.8078C203.291 23.0351 203.601 23.3357 203.84 23.6901C206.011 26.0002 208.707 27.753 211.7 28.8001C214.648 29.9073 217.439 31.3967 220 33.2301C223.331 35.4704 225.778 38.8012 226.92 42.6501C227.21 43.6501 227.61 44.6501 227.84 45.6501C228.338 48.1792 229.25 50.6086 230.54 52.8401C230.899 53.436 231.118 54.1052 231.182 54.7978C231.246 55.4904 231.153 56.1885 230.91 56.8401C229.258 62.695 226.65 68.2364 223.19 73.2401C220.19 77.3001 217.45 81.4901 213.8 85.0101C211.68 87.0214 209.407 88.8637 207 90.5201C204.09 92.5201 201.24 92.4301 198.17 90.8501C189.83 86.5401 183.57 80.0801 178.62 72.2401C176.798 69.2379 175.42 65.9874 174.53 62.5901C173.166 57.9953 172.245 53.2804 171.78 48.5101C171.604 47.3561 171.763 46.1758 172.24 45.1101C174.58 40.5601 177.58 36.5801 182.38 34.3601C185.13 33.0901 187.94 31.9301 190.77 30.8401C194.366 29.4041 197.59 27.1715 200.2 24.3101C200.82 23.6201 201.35 22.8601 201.74 22.3701ZM210.42 74.5601C208.42 73.1001 206.75 71.8601 204.84 71.6301C202.703 71.282 200.527 71.245 198.38 71.5201C196.27 71.8901 194.53 73.4101 192.65 74.5701C194.82 77.5701 197.74 78.4501 201.17 78.7101C205 79.0001 207.4 76.7101 210.42 74.5601ZM220.34 50.8201C220.34 50.7401 220.29 50.5601 220.23 50.5401C219.91 50.4501 219.48 50.2501 219.28 50.3801C218.634 50.865 218.017 51.3859 217.43 51.9401C216.152 53.1556 214.463 53.8441 212.7 53.8682C210.937 53.8923 209.23 53.2502 207.92 52.0701C207.39 51.6301 206.92 51.0701 206.42 50.6501C206.325 50.5967 206.219 50.5686 206.11 50.5686C206.001 50.5686 205.894 50.5967 205.8 50.6501C205.58 50.8901 205.3 51.2801 205.36 51.5201C205.564 52.3235 206.074 53.0157 206.78 53.4501C207.758 54.0696 208.793 54.5952 209.87 55.0201C210.32 55.115 210.744 55.3074 211.112 55.5839C211.48 55.8603 211.783 56.214 212 56.6201C212.25 57.1501 212.76 56.9501 213.12 56.6201C214.68 55.0501 214.93 54.9801 217.78 55.2701C218.17 55.2701 218.57 55.0801 218.49 54.7501C218.18 53.4601 219.16 52.8801 219.81 52.1001C220.08 51.7101 220.43 51.3701 220.33 50.8201H220.34ZM187.87 43.4501C189.458 43.4054 191.045 43.5701 192.59 43.9401C194.066 44.2449 195.507 44.7007 196.89 45.3001C196.988 45.3627 197.098 45.4027 197.213 45.4172C197.328 45.4317 197.445 45.4204 197.555 45.384C197.666 45.3475 197.766 45.287 197.85 45.2068C197.934 45.1265 197.999 45.0286 198.04 44.9201C198.117 44.6989 198.12 44.4589 198.05 44.2356C197.98 44.0123 197.839 43.8175 197.65 43.6801C197.48 43.5256 197.288 43.3975 197.08 43.3001C195.029 42.1951 192.771 41.5285 190.448 41.3426C188.126 41.1567 185.791 41.4555 183.59 42.2201C183.147 42.3655 182.734 42.589 182.37 42.8801C182.171 43.0023 182.021 43.1901 181.946 43.4111C181.872 43.6321 181.876 43.8723 181.96 44.0901C181.995 44.2008 182.055 44.3023 182.135 44.387C182.214 44.4717 182.312 44.5375 182.42 44.5797C182.528 44.6219 182.645 44.6393 182.761 44.6307C182.876 44.6222 182.989 44.5878 183.09 44.5301C184.528 43.681 186.196 43.3034 187.86 43.4501H187.87ZM186.59 53.2801C187.59 53.5901 188.94 53.4801 189.5 54.9701C189.532 55.0829 189.597 55.1838 189.685 55.261C189.773 55.3381 189.882 55.3881 189.998 55.405C190.114 55.4219 190.233 55.4049 190.34 55.3562C190.446 55.3074 190.537 55.2289 190.6 55.1301C190.832 54.8064 191.13 54.5363 191.475 54.3379C191.82 54.1395 192.204 54.0175 192.6 53.9801C194.085 53.6738 195.464 52.9843 196.6 51.9801C197.48 51.3201 197.83 50.2201 197.28 49.9801C196.45 49.5901 196 50.2801 195.53 50.7201C193.18 52.9101 190.53 52.9901 187.77 51.7201C186.82 51.2822 185.895 50.7915 185 50.2501C184.6 50.0201 184.26 49.6901 183.88 49.4201C183.5 49.1501 182.97 49.1301 182.71 49.6001C182.628 49.7542 182.586 49.9258 182.586 50.1001C182.586 50.2744 182.628 50.446 182.71 50.6001C183.49 51.5401 184.65 52.0901 184.93 53.5401C185.08 54.2101 185.89 53.4701 186.58 53.2801H186.59ZM198.69 65.6701C198.496 63.3633 198.563 61.0419 198.89 58.7501C198.99 57.5901 199.13 56.4301 199.21 55.2701C199.21 54.6001 198.71 53.8301 198.36 53.9501C198.143 54.0232 197.951 54.1557 197.806 54.3325C197.662 54.5093 197.569 54.7233 197.54 54.9501C197.036 58.1782 196.732 61.4345 196.63 64.7001C196.618 65.1649 196.685 65.6283 196.83 66.0701C196.896 66.3638 197.039 66.6345 197.245 66.8542C197.451 67.074 197.711 67.2348 198 67.3201C198.847 67.5474 199.738 67.5508 200.586 67.3299C201.435 67.109 202.211 66.6715 202.84 66.0601C202.889 65.9604 202.914 65.851 202.914 65.7401C202.914 65.6292 202.889 65.5198 202.84 65.4201C202.76 65.2401 202.5 65.0001 202.35 65.0201C201.22 65.1901 200.09 65.4201 198.69 65.6801V65.6701ZM213.56 43.3401C215.631 43.1511 217.716 43.4774 219.63 44.2901C219.728 44.3546 219.839 44.3962 219.955 44.4117C220.072 44.4272 220.19 44.4163 220.302 44.3798C220.413 44.3433 220.515 44.2821 220.599 44.2008C220.684 44.1194 220.749 44.0201 220.79 43.9101C221.04 43.3401 220.53 43.0601 220.22 42.8001C219.304 42.0747 218.215 41.5992 217.06 41.4201C214.762 41.0197 212.414 40.9995 210.11 41.3601C208.754 41.6557 207.436 42.1018 206.18 42.6901C205.681 42.9679 205.245 43.3458 204.9 43.8001C204.85 43.9028 204.823 44.0157 204.823 44.1301C204.823 44.2445 204.85 44.3574 204.9 44.4601C204.949 44.5576 205.019 44.6425 205.106 44.7084C205.192 44.7743 205.293 44.8194 205.4 44.8401C205.862 44.8686 206.324 44.7898 206.75 44.6101C208.857 43.5592 211.217 43.1225 213.56 43.3501V43.3401Z" fill="#FBFCFC"/>
<path d="M167.36 121.37C173.78 121.95 179.53 121.62 185.19 122.72C186.58 122.99 187.96 123.2 188.97 124.35C189.117 124.533 189.301 124.683 189.51 124.79C189.708 124.919 189.945 124.973 190.179 124.944C190.414 124.915 190.63 124.804 190.79 124.63C190.943 124.453 191.037 124.232 191.056 123.998C191.076 123.765 191.021 123.531 190.9 123.33C190.691 122.837 190.369 122.4 189.961 122.053C189.553 121.706 189.07 121.458 188.55 121.33C187.313 120.988 186.053 120.734 184.78 120.57C179.207 119.984 173.6 119.793 168 120C166.48 120 165.26 119.83 164.64 118.19C164.288 117.481 163.862 116.811 163.37 116.19C163.59 115.3 164.37 115.19 164.97 114.92C169.141 113.057 173.013 110.587 176.46 107.59C179.586 104.928 181.938 101.474 183.27 97.5902C184.447 94.4177 185.249 91.1187 185.66 87.7602C185.651 86.9243 185.91 86.1075 186.4 85.4302C187.93 87.0402 189.4 88.6602 190.96 90.2302C192.654 91.84 194.578 93.1882 196.67 94.2302C197.706 94.7613 198.805 95.161 199.94 95.4202C200.907 95.6777 201.919 95.7216 202.905 95.5489C203.891 95.3762 204.828 94.9911 205.65 94.4202C208.57 92.4702 211.49 90.5102 213.59 87.6102C213.882 87.2378 214.218 86.902 214.59 86.6102C214.786 86.5158 215.007 86.4877 215.22 86.5302C215.48 86.5302 215.53 86.7502 215.54 87.0402C215.546 87.742 215.589 88.443 215.67 89.1402C216.11 92.5002 216.41 95.8702 217.6 99.1402C218.992 102.892 221.533 106.108 224.86 108.33C227.921 110.503 231.408 112.002 235.09 112.73C235.77 112.86 236.43 113.06 237.01 113.21C237.35 113.97 236.9 114.46 236.81 115C236.745 115.589 236.461 116.131 236.015 116.52C235.568 116.909 234.992 117.116 234.4 117.1C231.84 117.35 229.28 117.65 226.73 117.94C223.02 118.341 219.344 119.01 215.73 119.94C214.373 120.303 213.108 120.951 212.02 121.84C211.617 122.255 211.298 122.744 211.08 123.28C210.93 123.56 211.58 124.28 211.9 124.28C212.22 124.28 212.42 124.28 212.56 124.14C215.21 121.62 218.62 121.32 221.98 120.83L234.34 119.04C235.01 119.71 234.65 120.23 234.39 120.7C232.323 124.401 229.306 127.484 225.65 129.63C217.57 134.51 208.9 137.3 199.35 136.87C196.661 136.735 193.996 136.305 191.4 135.59C184.72 133.79 178.22 131.59 172.73 127.08C170.656 125.466 168.845 123.539 167.36 121.37ZM200.3 122.28C201.258 122.238 202.186 121.937 202.985 121.409C203.785 120.88 204.426 120.145 204.84 119.28C204.913 119.119 204.925 118.937 204.873 118.768C204.822 118.598 204.71 118.454 204.56 118.36C204.29 118.12 203.96 117.97 203.63 118.22C202.99 118.71 202.39 119.27 201.73 119.73C201.228 120.137 200.601 120.359 199.955 120.359C199.309 120.359 198.682 120.137 198.18 119.73C197.762 119.344 197.317 118.986 196.85 118.66C196.745 118.609 196.631 118.579 196.514 118.572C196.398 118.565 196.281 118.581 196.17 118.619C196.06 118.657 195.958 118.716 195.87 118.794C195.783 118.871 195.711 118.965 195.66 119.07C195.59 119.217 195.554 119.378 195.554 119.54C195.554 119.703 195.59 119.863 195.66 120.01C196.17 120.758 196.866 121.36 197.68 121.756C198.494 122.153 199.397 122.33 200.3 122.27V122.28Z" fill="#FBFCFC"/>
<path d="M257 167.31C256.53 167.62 256.22 167.79 255.94 168.01C254.16 169.4 254.16 170.43 255.94 171.79C256.78 172.42 257.71 172.92 258.57 173.53C258.759 173.669 258.905 173.86 258.988 174.08C259.071 174.3 259.089 174.54 259.04 174.77C258.991 175.065 258.833 175.331 258.599 175.516C258.364 175.701 258.068 175.791 257.77 175.77C256.597 175.788 255.435 175.542 254.37 175.05C253.004 174.377 251.51 174.006 249.988 173.961C248.466 173.917 246.953 174.199 245.55 174.79C242.68 175.79 242.35 175.53 241.71 172.73C241.66 172.5 241.64 172.27 241.59 172.04C240.82 168.14 239.83 167.04 235.99 166.43C232.6 165.89 229.26 165.9 226.15 167.82C224.198 168.938 222.704 170.708 221.93 172.82C221.79 173.2 221.93 173.75 221.2 173.94C220.148 172.73 219.263 171.385 218.57 169.94C217.948 168.812 217.182 167.769 216.29 166.84C215.769 166.283 215.117 165.865 214.393 165.624C213.67 165.383 212.897 165.327 212.147 165.46C211.396 165.593 210.69 165.911 210.093 166.386C209.496 166.861 209.028 167.478 208.73 168.18C208.151 169.337 207.892 170.629 207.98 171.92C208.33 175.76 208.98 179.53 210.98 182.92C210.35 184.02 209.19 184.44 208.34 185.22C207.9 185.62 207.45 185.35 207.16 184.95C206.27 183.72 205.49 182.4 204.51 181.25C203.53 180.1 202.32 179.06 200.56 179.63C199.719 179.895 198.969 180.393 198.398 181.065C197.827 181.737 197.456 182.557 197.33 183.43C197.235 183.89 197.215 184.363 197.27 184.83C197.47 186.59 197.27 187.74 195.08 188.34C192.89 188.94 192.08 191.63 192.49 194.28C192.898 196.232 193.571 198.12 194.49 199.89C194.89 200.73 195.36 201.53 195.78 202.3C193.95 204.91 191.39 206.21 188.48 207.16C187.69 206.159 187.053 205.047 186.59 203.86C186.05 202.7 185.46 201.56 184.83 200.3C187.16 199.02 187.09 196.99 186.52 194.84C186.15 193.45 185.6 193.09 183.97 193C182.54 192.92 182.27 192.79 181.97 191.69C181.52 189.76 180.97 187.82 181.59 185.81C181.725 185.242 182.02 184.725 182.44 184.32C182.609 184.159 182.811 184.037 183.032 183.962C183.253 183.887 183.488 183.861 183.72 183.886C183.952 183.91 184.176 183.985 184.376 184.105C184.577 184.225 184.748 184.387 184.88 184.58C185.29 185.28 185.6 186.05 185.96 186.78C186.116 187.098 186.383 187.349 186.71 187.485C187.038 187.622 187.404 187.634 187.74 187.52C189.39 187.18 190.02 186.37 190.18 184.63C190.44 181.84 190.74 179.05 191.04 176.26C191.086 175.921 191.159 175.587 191.26 175.26C191.49 174.46 192.05 174.05 192.8 174.37C195.56 175.55 197.52 173.98 199.44 172.45C200.34 171.73 200.38 171.09 200.36 168.92C200.96 168.53 201.46 168.99 202.01 169.07C204.36 169.43 205.92 167.63 205.01 165.43C204.675 164.422 204.056 163.532 203.228 162.866C202.399 162.201 201.397 161.789 200.34 161.68C199.525 161.595 198.702 161.635 197.9 161.8C197.452 161.934 196.982 161.975 196.518 161.922C196.054 161.869 195.606 161.722 195.2 161.49C193.96 160.7 193.02 161.23 192.06 162.05C190.91 163.05 189.71 163.94 188.25 165.05C188.101 163.217 188.68 161.4 189.86 159.99C190.052 159.768 190.29 159.592 190.558 159.472C190.826 159.353 191.117 159.294 191.41 159.3C192.34 159.21 193.26 159.07 194.18 158.95C195.82 158.815 197.36 158.107 198.53 156.95C200.01 155.49 200.78 155.63 202.53 156.81C203.634 157.481 204.536 158.438 205.14 159.58C205.512 160.313 205.991 160.987 206.56 161.58C208.3 163.4 209.96 162.7 210.98 160.65C211.251 160.003 211.331 159.291 211.21 158.6C211.013 157.452 210.736 156.319 210.38 155.21C210.149 154.166 209.541 153.244 208.671 152.622C207.802 151.999 206.733 151.721 205.67 151.84C204.95 151.84 204.28 152.02 203.75 151.4C202.2 149.61 200.27 149.78 198.26 150.3C197.59 150.47 196.91 150.65 196.26 150.76C196.12 150.76 195.91 150.58 195.77 150.45C195.63 150.32 195.77 150.21 195.83 150.12C195.95 149.923 196.098 149.744 196.27 149.59C199.168 147.218 202.309 145.16 205.64 143.45C205.981 143.218 206.389 143.108 206.801 143.135C207.212 143.162 207.602 143.326 207.91 143.6C208.578 144.183 209.399 144.563 210.277 144.695C211.154 144.826 212.05 144.703 212.86 144.34C214.648 143.772 216.541 143.611 218.4 143.87C220.15 143.97 221.9 144.07 223.66 144.07C225.184 144.072 226.694 143.769 228.1 143.18C231.926 141.577 236.222 141.506 240.1 142.98C241.095 143.313 242.073 143.697 243.03 144.13C246.416 145.795 250.25 146.321 253.96 145.63C254.63 145.45 255.333 145.434 256.01 145.583C256.687 145.733 257.319 146.044 257.85 146.49C259.18 147.6 260.58 148.64 262.07 149.81C260.792 150.576 259.798 151.738 259.24 153.12C258.57 154.99 257.07 155.46 255.33 155.33C253.338 155.1 251.327 155.076 249.33 155.26C247.94 155.44 246.56 155.65 245.19 155.95C244.523 156.172 243.801 156.162 243.14 155.923C242.48 155.683 241.919 155.228 241.55 154.63C240.526 153.2 239.3 151.927 237.91 150.85C237.321 150.362 236.602 150.057 235.842 149.971C235.081 149.886 234.313 150.025 233.63 150.37C233.184 150.523 232.784 150.787 232.467 151.137C232.151 151.486 231.928 151.911 231.82 152.37C231.72 152.83 231.65 153.29 231.56 153.75C231.02 156.44 229.23 157.75 226.64 157.94C225.58 158.03 224.5 157.94 223.75 158.84C222.86 159.929 222.279 161.239 222.07 162.63C222.026 162.982 222.087 163.338 222.243 163.656C222.399 163.974 222.645 164.24 222.95 164.42C223.196 164.579 223.482 164.663 223.775 164.663C224.068 164.663 224.354 164.579 224.6 164.42C224.91 164.25 225.3 164.14 225.49 163.88C225.917 163.18 226.568 162.644 227.338 162.359C228.107 162.074 228.95 162.057 229.73 162.31C230.076 162.357 230.428 162.287 230.73 162.11C231.546 161.643 232.483 161.429 233.421 161.495C234.359 161.56 235.257 161.903 236 162.48C236.468 162.73 236.982 162.885 237.511 162.935C238.04 162.984 238.573 162.928 239.08 162.77C239.538 162.644 240.027 162.685 240.457 162.887C240.888 163.089 241.233 163.437 241.43 163.87C242.43 165.46 243.62 166.87 244.18 168.72C244.49 169.72 245.03 170.87 246.18 170.84C247.33 170.81 248.06 169.64 248.49 168.5C249.068 166.955 249.209 165.28 248.9 163.66C248.9 163.46 248.99 163.08 249.11 163.05C249.433 162.933 249.787 162.933 250.11 163.05C250.501 163.3 250.866 163.588 251.2 163.91C251.992 164.601 252.823 165.245 253.69 165.84C254.766 166.389 255.871 166.879 257 167.31ZM225.81 152.64C225.713 153.074 225.66 153.516 225.65 153.96C225.65 154.42 225.85 154.89 226.39 155.01C226.617 155.06 226.853 155.038 227.067 154.946C227.28 154.855 227.46 154.699 227.58 154.5C228.89 152.59 229.836 150.454 230.37 148.2C230.509 147.638 230.566 147.058 230.54 146.48C230.546 146.129 230.42 145.789 230.187 145.528C229.953 145.266 229.629 145.103 229.28 145.07C228.827 144.965 228.357 144.963 227.904 145.064C227.451 145.166 227.026 145.368 226.662 145.657C226.298 145.945 226.003 146.312 225.8 146.729C225.597 147.147 225.491 147.605 225.49 148.07C225.47 149.71 225.71 151.32 225.81 152.64Z" fill="#A2D2FD"/>
<path d="M278.67 181.37C280.082 191.024 278.863 200.881 275.14 209.9C271.899 217.836 266.96 224.966 260.67 230.79C260.24 231.19 259.78 231.55 259.36 231.95C259.268 232.064 259.151 232.155 259.018 232.215C258.884 232.275 258.739 232.303 258.592 232.296C258.446 232.289 258.304 232.248 258.176 232.176C258.049 232.103 257.941 232.002 257.86 231.88C257.11 230.99 256.41 230.05 255.68 229.13C255.137 228.519 254.77 227.772 254.619 226.969C254.467 226.166 254.537 225.337 254.82 224.57C255.811 221.809 255.874 218.8 255 216C254.834 215.504 254.817 214.971 254.952 214.466C255.087 213.96 255.368 213.506 255.76 213.16C257.38 211.31 258.91 209.39 260.39 207.43C261.752 205.668 262.838 203.709 263.61 201.62C263.96 200.62 264.61 199.57 264.46 198.62C264.13 195.98 265.41 193.89 266.33 191.62C266.99 190 267.53 188.33 268.16 186.69C268.479 185.812 268.843 184.951 269.25 184.11C269.34 183.828 269.537 183.593 269.8 183.456C270.062 183.32 270.368 183.292 270.65 183.38C271.21 183.56 271.22 184.09 271.21 184.52C271.21 185.22 271.06 185.91 270.98 186.61C270.82 187.98 270.36 189.34 271.08 190.73C271.47 191.49 271.14 192.33 271.08 193.15C271.007 193.961 270.99 194.777 271.03 195.59C271.084 195.807 271.22 195.993 271.41 196.11C271.566 196.207 271.751 196.246 271.933 196.223C272.115 196.199 272.284 196.113 272.41 195.98C273.146 195.392 273.7 194.609 274.01 193.72C274.79 191.77 275.51 189.8 276.26 187.84C276.883 185.621 277.69 183.457 278.67 181.37ZM264.1 208.65C264.4 208.65 264.66 208.65 264.8 208.53C266.248 207.4 267.51 206.051 268.54 204.53C268.72 204.237 268.858 203.921 268.95 203.59C269.005 203.398 269.013 203.195 268.973 202.999C268.933 202.803 268.847 202.62 268.722 202.464C268.596 202.308 268.435 202.185 268.252 202.104C268.069 202.023 267.87 201.988 267.67 202C267.383 201.99 267.096 202.041 266.83 202.152C266.564 202.262 266.326 202.429 266.13 202.64C264.936 204.178 264.096 205.96 263.67 207.86C263.6 208.09 264 208.4 264.1 208.65Z" fill="#A2D2FD"/>
<path d="M129.58 200.06C129.714 200.359 129.783 200.683 129.783 201.01C129.783 201.338 129.714 201.661 129.58 201.96C128.587 205.433 127.587 208.907 126.58 212.38C125.743 215.293 125.22 218.286 125.02 221.31C124.78 222.578 124.884 223.886 125.32 225.1C125.405 225.218 125.457 225.357 125.472 225.502C125.486 225.646 125.462 225.792 125.403 225.925C125.343 226.058 125.249 226.173 125.131 226.258C125.013 226.343 124.875 226.395 124.73 226.41C123.824 226.62 122.899 226.744 121.97 226.78C121.822 226.812 121.669 226.81 121.523 226.774C121.376 226.738 121.239 226.669 121.123 226.573C121.006 226.477 120.913 226.356 120.85 226.218C120.787 226.081 120.757 225.931 120.76 225.78C120.35 221.73 119.91 217.67 119.56 213.61C119.408 211.385 119.879 209.162 120.92 207.19C121.044 206.863 121.216 206.556 121.43 206.28C123.87 203.84 126.29 201.39 129.58 200.06Z" fill="#FDA354"/>
<path d="M224.52 183.3C219.97 181.3 219.52 181.24 213.94 182.3C213.667 182.396 213.369 182.392 213.098 182.29C212.827 182.187 212.601 181.992 212.46 181.74C210.556 178.637 209.845 174.948 210.46 171.36C210.636 170.319 211.097 169.346 211.79 168.55C211.948 168.301 212.164 168.094 212.419 167.946C212.674 167.798 212.961 167.715 213.256 167.702C213.551 167.689 213.844 167.748 214.111 167.873C214.378 167.998 214.611 168.186 214.79 168.42C215.109 168.758 215.406 169.115 215.68 169.49C217.247 171.517 218.683 173.641 219.98 175.85C221.37 178.3 222.92 180.7 224.52 183.3Z" fill="#FBFCFC"/>
<path d="M225.71 185C227.71 187.58 229.38 190.11 231.54 192.09C231.54 193.2 230.7 193.57 230.12 194.09C227.959 195.899 225.613 197.475 223.12 198.79C221.919 199.521 220.524 199.87 219.12 199.79C218.709 199.774 218.306 199.667 217.941 199.477C217.576 199.287 217.258 199.018 217.01 198.69C215.62 196.83 215.34 195.6 217.69 194.09C218.402 193.705 219.141 193.371 219.9 193.09C220.54 192.8 221.2 192.55 221.82 192.23C225.11 190.46 225.89 189.07 225.71 185Z" fill="#FBFCFC"/>
<path d="M85.37 227.35C84.04 227.35 82.79 227.35 81.53 227.35C81.3211 227.342 81.1158 227.293 80.9259 227.206C80.7359 227.119 80.565 226.995 80.4229 226.842C80.2808 226.689 80.1703 226.509 80.0977 226.313C80.0251 226.117 79.9919 225.909 80 225.7C80.0032 225.004 80.0769 224.311 80.22 223.63C81.5533 217.263 82.9133 210.9 84.3 204.54C84.3593 204.189 84.4777 203.851 84.65 203.54C84.81 203.27 85.0699 202.94 85.3399 202.88C85.7799 202.78 85.82 203.27 85.81 203.54C85.51 209.13 86.29 214.69 86.22 220.27C86.2292 221.315 86.1791 222.36 86.07 223.4C85.94 224.67 85.65 225.9 85.37 227.35Z" fill="#FDA354"/>
<path d="M235.66 188.75C235.05 187.11 234.47 185.75 234.01 184.28C233.583 182.955 233.249 181.601 233.01 180.23C232.901 179.751 232.908 179.253 233.029 178.778C233.151 178.302 233.384 177.862 233.71 177.495C234.035 177.127 234.444 176.843 234.901 176.664C235.358 176.486 235.852 176.42 236.34 176.47C236.913 176.567 237.437 176.852 237.83 177.28C239.293 178.945 240.527 180.798 241.5 182.79C241.607 182.998 241.638 183.237 241.586 183.466C241.535 183.694 241.406 183.897 241.22 184.04C239.41 185.5 238 187.45 235.66 188.75Z" fill="#FBFCFC"/>
<path d="M222.94 240.64C222.024 241.102 221.02 241.361 219.995 241.401C218.97 241.44 217.949 241.259 217 240.87C214.486 239.916 211.85 239.324 209.17 239.11C208.01 239.02 206.85 238.86 205.69 238.82C203.776 238.816 201.886 238.396 200.15 237.59C202.307 236.908 204.558 236.57 206.82 236.59C210.085 236.808 213.365 236.582 216.57 235.92C216.964 235.806 217.383 235.816 217.771 235.948C218.16 236.081 218.498 236.329 218.74 236.66C219.989 238.137 221.398 239.472 222.94 240.64Z" fill="#A2D2FD"/>
<path d="M202 194.12C200.513 192.171 199.488 189.912 199 187.51C198.659 186.141 198.772 184.699 199.32 183.4C199.56 182.744 199.98 182.169 200.53 181.74C200.692 181.571 200.887 181.436 201.103 181.344C201.319 181.252 201.551 181.205 201.785 181.205C202.019 181.205 202.251 181.252 202.467 181.344C202.683 181.436 202.878 181.571 203.04 181.74C204.355 183.057 205.506 184.528 206.47 186.12C206.6 186.313 206.664 186.544 206.652 186.777C206.639 187.009 206.551 187.232 206.4 187.41L202 194.12Z" fill="#FBFCFC"/>
<path d="M196.87 201.32C195.72 199.498 194.834 197.521 194.24 195.45C193.987 194.547 193.969 193.594 194.188 192.683C194.406 191.771 194.855 190.93 195.49 190.24C196.28 189.35 197.14 189.34 197.8 190.24C198.8 191.67 199.72 193.16 200.69 194.61C200.886 194.901 200.984 195.246 200.972 195.596C200.959 195.947 200.836 196.284 200.62 196.56C199.546 198.278 198.289 199.874 196.87 201.32Z" fill="#FBFCFC"/>
<path d="M177.71 211.07C176.241 206.671 175.278 202.118 174.84 197.5C176.84 199.25 178.5 200.62 180.05 202.18C180.274 202.457 180.435 202.779 180.522 203.125C180.608 203.47 180.618 203.83 180.55 204.18C180.428 205.332 180.489 206.497 180.73 207.63C180.92 208.36 181.81 209.04 181.26 209.81C180.71 210.58 179.83 210.49 179.05 210.7C178.71 210.76 178.38 210.87 177.71 211.07Z" fill="#A2D2FD"/>
<path d="M170.13 52.71C171.46 55.96 171.59 58.64 172.35 61.15C172.5 61.64 172.2 62 171.81 62.32C171.42 62.64 170.81 63.26 170.18 63.85C169.634 63.3773 169.237 62.7559 169.038 62.0616C168.839 61.3673 168.847 60.6301 169.06 59.94C169.705 57.5815 170.064 55.1541 170.13 52.71Z" fill="#FBFCFC"/>
<path d="M218.86 183.12C219.763 183.093 220.657 183.307 221.45 183.74C222.96 184.61 223.11 185.89 221.76 187.03C221.277 187.403 220.712 187.654 220.112 187.763C219.512 187.872 218.894 187.836 218.311 187.656C217.728 187.477 217.196 187.16 216.761 186.733C216.326 186.305 216 185.78 215.81 185.2C215.755 184.975 215.764 184.739 215.834 184.519C215.905 184.298 216.035 184.101 216.21 183.95C216.552 183.608 216.972 183.354 217.433 183.21C217.895 183.065 218.384 183.035 218.86 183.12Z" fill="#FBFCFC"/>
<path d="M232.89 65.15L230.37 63.39L232.37 57.79C235.26 60.54 235.3 62.87 232.89 65.15Z" fill="#FBFCFC"/>
<path d="M80.8799 234C80.7499 232.74 81.4499 231.76 81.7799 230.69C82.1099 229.62 82.4799 229.44 83.8999 229.48C84.6399 229.48 84.9799 229.99 84.6199 230.58C84.3604 231.092 84.023 231.561 83.6199 231.97C82.8565 232.829 81.9236 233.52 80.8799 234Z" fill="#FBFCFC"/>
<path d="M109.66 308C109.54 307.1 109.3 306.18 110.06 305.42C110.18 305.854 110.206 306.308 110.137 306.753C110.068 307.198 109.905 307.623 109.66 308Z" fill="#433F40"/>
<path d="M102.4 293.69C102.4 294.57 102.7 295.49 101.9 296.2C101.799 295.77 101.791 295.324 101.877 294.891C101.963 294.457 102.142 294.048 102.4 293.69Z" fill="#433F40"/>
<path d="M210.41 137.63C211.07 137.44 211.73 137.22 212.41 137.07C212.54 137.07 212.82 137.28 212.87 137.44C212.92 137.6 212.87 137.99 212.74 138.04C212.203 138.251 211.656 138.435 211.1 138.59L210.41 137.63Z" fill="white"/>
<path d="M110.56 301C110.445 300.799 110.403 300.565 110.442 300.337C110.48 300.11 110.596 299.902 110.77 299.75C110.843 299.959 110.861 300.183 110.825 300.402C110.788 300.62 110.697 300.826 110.56 301Z" fill="#433F40"/>
<path d="M111.72 294.38L112.05 293.46C112.112 293.628 112.113 293.812 112.052 293.98C111.992 294.148 111.874 294.29 111.72 294.38Z" fill="#433F40"/>
<path d="M100.91 306.26C100.968 306.462 100.973 306.675 100.926 306.88C100.879 307.084 100.78 307.274 100.64 307.43C100.552 307.232 100.531 307.011 100.58 306.8C100.628 306.589 100.744 306.399 100.91 306.26Z" fill="#433F40"/>
<path d="M109.31 312.36C109.241 312.202 109.187 312.038 109.15 311.87C109.15 311.87 109.29 311.75 109.37 311.69L109.31 312.36Z" fill="#433F40"/>
<path d="M109.07 314.4C109.032 314.358 109.004 314.307 108.989 314.253C108.975 314.198 108.973 314.14 108.985 314.085C108.996 314.029 109.021 313.977 109.057 313.933C109.093 313.888 109.138 313.853 109.19 313.83C109.221 313.875 109.243 313.926 109.254 313.979C109.265 314.033 109.264 314.088 109.253 314.141C109.242 314.194 109.22 314.245 109.188 314.289C109.157 314.334 109.117 314.372 109.07 314.4Z" fill="#433F40"/>
<path d="M109.28 318.68C109.188 318.551 109.107 318.414 109.04 318.27C109.04 318.27 109.13 318.13 109.18 318.06C109.27 318.133 109.33 318.236 109.349 318.351C109.367 318.465 109.343 318.583 109.28 318.68Z" fill="#433F40"/>
<path d="M106.83 328.54C106.942 328.674 107.043 328.818 107.13 328.97C107.13 328.97 107.03 329.12 106.97 329.2L106.83 328.54Z" fill="#433F40"/>
<path d="M210.42 74.5599C207.42 76.7099 205.01 78.9999 201.17 78.7099C197.74 78.4499 194.82 77.6099 192.65 74.5699C194.53 73.4099 196.27 71.8899 198.38 71.5199C200.527 71.2447 202.703 71.2818 204.84 71.6299C206.75 71.8699 208.43 73.0999 210.42 74.5599Z" fill="#433F40"/>
<path d="M220.33 50.8198C220.43 51.3698 220.08 51.7098 219.79 52.0498C219.14 52.8298 218.16 53.4098 218.47 54.6998C218.55 55.0298 218.16 55.2598 217.76 55.2198C214.91 54.9198 214.66 54.9898 213.1 56.5698C212.73 56.9398 212.22 57.1398 211.98 56.5698C211.76 56.1723 211.457 55.8271 211.091 55.5578C210.725 55.2885 210.305 55.1016 209.86 55.0098C208.783 54.585 207.748 54.0593 206.77 53.4398C206.064 53.0055 205.555 52.3133 205.35 51.5098C205.29 51.2698 205.57 50.8798 205.79 50.6398C205.885 50.5864 205.991 50.5583 206.1 50.5583C206.209 50.5583 206.315 50.5864 206.41 50.6398C206.94 51.0798 207.41 51.6398 207.91 52.0598C209.22 53.2399 210.927 53.8821 212.691 53.858C214.454 53.8339 216.143 53.1453 217.42 51.9298C218.007 51.3756 218.625 50.8548 219.27 50.3698C219.46 50.2398 219.9 50.4398 220.22 50.5298C220.28 50.5598 220.3 50.7398 220.33 50.8198Z" fill="#433F40"/>
<path d="M187.86 43.4502C186.19 43.2992 184.514 43.677 183.07 44.5302C182.969 44.5878 182.857 44.6222 182.741 44.6308C182.625 44.6394 182.508 44.6219 182.4 44.5798C182.292 44.5376 182.194 44.4717 182.115 44.387C182.035 44.3023 181.975 44.2009 181.94 44.0902C181.857 43.8723 181.852 43.6321 181.927 43.4112C182.002 43.1902 182.151 43.0024 182.35 42.8802C182.714 42.589 183.127 42.3655 183.57 42.2202C185.771 41.4556 188.106 41.1568 190.429 41.3427C192.751 41.5286 195.009 42.1952 197.06 43.3002C197.268 43.3975 197.46 43.5256 197.63 43.6802C197.82 43.8176 197.96 44.0124 198.03 44.2357C198.1 44.459 198.097 44.699 198.02 44.9202C197.979 45.0287 197.914 45.1266 197.83 45.2068C197.746 45.2871 197.646 45.3476 197.536 45.384C197.425 45.4204 197.308 45.4318 197.193 45.4173C197.078 45.4028 196.968 45.3628 196.87 45.3002C195.487 44.7007 194.046 44.245 192.57 43.9402C191.028 43.5711 189.445 43.4063 187.86 43.4502Z" fill="#433F40"/>
<path d="M186.58 53.2802C185.88 53.4602 185.07 54.2002 184.94 53.5002C184.66 52.0502 183.5 51.5002 182.72 50.5602C182.639 50.4061 182.596 50.2345 182.596 50.0602C182.596 49.8859 182.639 49.7143 182.72 49.5602C182.98 49.0902 183.45 49.0702 183.89 49.3802C184.33 49.6902 184.61 49.9802 185.01 50.2102C185.898 50.7577 186.816 51.2552 187.76 51.7002C190.54 52.9302 193.17 52.8502 195.52 50.7002C195.99 50.2602 196.44 49.5702 197.27 49.9602C197.82 50.2202 197.47 51.3202 196.59 51.9602C195.454 52.9644 194.075 53.6539 192.59 53.9602C192.194 53.9975 191.81 54.1195 191.465 54.3179C191.12 54.5163 190.822 54.7865 190.59 55.1102C190.527 55.209 190.436 55.2875 190.33 55.3362C190.223 55.385 190.104 55.4019 189.988 55.3851C189.872 55.3682 189.763 55.3182 189.675 55.241C189.587 55.1639 189.522 55.0629 189.49 54.9502C188.93 53.4802 187.57 53.5902 186.58 53.2802Z" fill="#433F40"/>
<path d="M198.69 65.6799C200.1 65.4199 201.22 65.1899 202.35 65.0199C202.5 65.0199 202.76 65.2399 202.84 65.4199C202.889 65.5196 202.914 65.629 202.914 65.7399C202.914 65.8508 202.889 65.9602 202.84 66.0599C202.212 66.6712 201.435 67.1088 200.587 67.3297C199.738 67.5506 198.847 67.5472 198 67.3199C197.718 67.2365 197.463 67.0811 197.26 66.8689C197.056 66.6567 196.912 66.3951 196.84 66.1099C196.695 65.6681 196.628 65.2047 196.64 64.7399C196.742 61.4743 197.046 58.218 197.55 54.9899C197.579 54.7631 197.672 54.5491 197.817 54.3723C197.962 54.1955 198.153 54.063 198.37 53.9899C198.73 53.8599 199.26 54.6399 199.22 55.3099C199.15 56.4699 199 57.6299 198.9 58.7899C198.573 61.0715 198.502 63.3826 198.69 65.6799Z" fill="#433F40"/>
<path d="M213.56 43.3502C211.213 43.1207 208.85 43.5574 206.74 44.6102C206.314 44.7899 205.852 44.8686 205.39 44.8402C205.283 44.8194 205.182 44.7744 205.096 44.7085C205.009 44.6426 204.939 44.5576 204.89 44.4602C204.84 44.3575 204.813 44.2446 204.813 44.1302C204.813 44.0158 204.84 43.9029 204.89 43.8002C205.236 43.3459 205.671 42.968 206.17 42.6902C207.426 42.1018 208.745 41.6557 210.1 41.3602C212.404 40.9995 214.752 41.0198 217.05 41.4202C218.205 41.5993 219.294 42.0748 220.21 42.8002C220.53 43.0502 221.03 43.3402 220.78 43.9102C220.739 44.0202 220.674 44.1195 220.589 44.2008C220.505 44.2821 220.403 44.3433 220.292 44.3799C220.18 44.4164 220.062 44.4273 219.946 44.4118C219.829 44.3962 219.718 44.3547 219.62 44.2902C217.708 43.4826 215.627 43.1597 213.56 43.3502Z" fill="#433F40"/>
<path d="M200.3 122.27C199.395 122.331 198.49 122.155 197.674 121.759C196.859 121.362 196.161 120.759 195.65 120.01C195.58 119.863 195.543 119.702 195.543 119.54C195.543 119.377 195.58 119.217 195.65 119.07C195.701 118.965 195.773 118.871 195.86 118.793C195.948 118.716 196.05 118.656 196.16 118.618C196.271 118.58 196.388 118.564 196.504 118.571C196.621 118.579 196.735 118.609 196.84 118.66C197.307 118.986 197.752 119.343 198.17 119.73C198.672 120.137 199.299 120.358 199.945 120.358C200.591 120.358 201.218 120.137 201.72 119.73C202.38 119.27 202.98 118.73 203.62 118.22C203.95 117.97 204.28 118.12 204.55 118.36C204.7 118.453 204.811 118.598 204.863 118.767C204.914 118.936 204.903 119.119 204.83 119.28C204.415 120.141 203.775 120.874 202.978 121.4C202.18 121.927 201.255 122.227 200.3 122.27Z" fill="#433F40"/>
<path d="M225.81 152.64C225.71 151.32 225.47 149.71 225.49 148.1C225.491 147.635 225.598 147.177 225.8 146.759C226.003 146.342 226.298 145.975 226.662 145.687C227.026 145.398 227.451 145.196 227.904 145.094C228.357 144.993 228.828 144.995 229.28 145.1C229.629 145.133 229.953 145.296 230.187 145.558C230.42 145.819 230.547 146.159 230.54 146.51C230.566 147.088 230.509 147.668 230.37 148.23C229.836 150.484 228.89 152.62 227.58 154.53C227.46 154.729 227.28 154.885 227.067 154.976C226.854 155.068 226.617 155.09 226.39 155.04C225.85 154.91 225.7 154.45 225.65 153.99C225.658 153.536 225.711 153.083 225.81 152.64Z" fill="#433F40"/>
<path d="M264.1 208.65C263.95 208.4 263.6 208.09 263.65 207.85C264.076 205.95 264.916 204.168 266.11 202.63C266.305 202.419 266.544 202.252 266.81 202.142C267.076 202.032 267.362 201.98 267.65 201.99C267.849 201.978 268.049 202.013 268.232 202.094C268.415 202.175 268.576 202.298 268.701 202.454C268.827 202.61 268.913 202.793 268.953 202.989C268.992 203.185 268.985 203.388 268.93 203.58C268.838 203.911 268.7 204.227 268.52 204.52C267.49 206.041 266.228 207.39 264.78 208.52C264.66 208.64 264.39 208.6 264.1 208.65Z" fill="#433F40"/>
</svg>
