<svg width="520" height="355" viewBox="0 0 520 355" fill="none" xmlns="http://www.w3.org/2000/svg">
<path d="M427.126 172.546L415.921 175.613L410.725 155.085L420.52 152.842L427.126 172.546Z" fill="white" style="fill:white;fill-opacity:1;"/>
<path d="M249.326 171.617H240.188L241.064 140.523L250.202 141.058L249.326 171.617Z" fill="white" style="fill:white;fill-opacity:1;"/>
<path d="M320.8 88.0791C318.18 88.3069 315.666 89.3057 312.976 89.4721C312.117 89.5247 311.224 89.4721 310.348 89.5685L310.19 88.2543C312.555 87.6411 314.702 86.397 317.05 85.626C318.128 85.3544 319.109 84.8199 319.924 84.0577C320.844 83.1115 322.105 82.5858 323.428 82.5858C325.382 82.507 327.336 82.761 329.202 83.3218C331.699 83.9088 333.223 85.88 334.905 87.8513C333.74 87.9565 332.566 87.9565 331.401 87.8513C327.809 87.203 324.304 87.7637 320.8 88.0791Z" fill="#D0E6D2" style="fill:#D0E6D2;fill:color(display-p3 0.8157 0.9020 0.8235);fill-opacity:1;"/>
<path d="M341.222 95.2632C347.977 103.306 350.465 113.048 352.498 123.124C351.324 122.887 350.229 122.905 349.125 122.712C346.733 122.3 346.707 122.292 346.628 119.865C346.531 113.855 345.568 107.888 343.754 102.15C343.071 99.8015 342.23 97.5061 341.222 95.2632Z" fill="#D0E6D2" style="fill:#D0E6D2;fill:color(display-p3 0.8157 0.9020 0.8235);fill-opacity:1;"/>
<path d="M359.831 141.277C363.397 138.806 365.578 135.179 367.716 131.491C369.398 128.494 371.457 125.726 373.849 123.246C375.584 121.529 377.853 120.452 380.28 120.171C380.525 120.136 380.937 120.057 380.814 120.557C380.692 121.056 381.41 121.538 380.534 122.099C378.142 123.641 375.847 125.358 373.525 127.049C370.239 129.397 368.732 132.796 368.058 136.686C367.506 139.902 367.611 143.205 367.401 146.385C367.191 149.565 366.91 152.763 366.682 155.952C366.349 160.596 365.999 165.239 365.859 169.882C365.736 174.132 365.035 178.337 364.807 182.551C364.58 186.765 364.107 190.971 363.931 195.194C363.87 196.701 362.53 197.743 361.557 198.619C360.19 199.969 358.648 201.116 356.966 202.027C352.419 204.498 347.005 204.752 342.247 202.728C337.762 200.88 334.003 197.612 331.532 193.424C329.237 189.709 327.923 185.469 327.721 181.097C327.607 177.864 327.747 174.614 327.607 171.381C327.458 168.761 327.169 166.159 326.731 163.566C326.039 159.097 325.618 154.655 326.731 150.1C327.572 146.639 328.107 143.082 329.263 139.726C330.691 135.635 332.4 131.578 335.396 128.337C337.42 126.269 339.908 124.701 342.65 123.772C345.358 122.756 347.565 124.175 350.01 124.289C350.203 124.298 350.378 124.42 350.57 124.42C352.708 124.736 352.638 124.736 352.708 126.952C352.805 129.651 353.321 132.314 354.25 134.838C354.478 135.363 354.846 135.819 355.31 136.152C356.554 137.282 357.422 138.754 357.798 140.383C357.965 140.927 357.597 140.927 357.387 141.111C355.135 143.082 352.848 145.009 350.623 147.016C346.821 150.459 343.614 154.305 341.862 159.281C341.143 161.331 340.451 163.382 339.82 165.467C339.593 166.36 339.733 167.307 340.215 168.095C341.187 164.512 342.484 161.016 344.078 157.652C345.725 153.902 348.494 151.09 351.377 148.382C354.005 145.807 356.835 143.432 359.831 141.277Z" fill="#D0E6D2" style="fill:#D0E6D2;fill:color(display-p3 0.8157 0.9020 0.8235);fill-opacity:1;"/>
<path d="M259.655 296.771C258.472 296.754 257.325 296.377 256.352 295.694L253.636 295.229C254.53 294.914 255.511 294.94 256.387 295.291C258.113 295.177 259.848 295.151 261.574 295.212C266.287 294.914 270.966 294.274 275.592 293.311C277.327 292.978 278.974 291.629 278.974 290.306C279.009 287.204 280.165 284.374 280.84 281.422C280.84 281.413 280.822 281.395 280.814 281.378C280.743 281.22 280.814 281.036 280.971 280.957C281.287 280.037 281.611 279.118 281.909 278.189C281.988 277.961 282.005 277.681 282.312 277.733C282.513 277.76 282.662 277.935 282.645 278.128C282.461 280.905 284.511 282.237 286.263 283.796C286.465 283.744 286.535 283.84 286.552 284.024C288.944 285.627 291.677 286.635 294.534 286.959C297.898 287.52 301.201 287.835 304.556 286.959C306.729 286.407 308.797 285.54 310.891 284.795C312.985 284.217 314.509 282.403 314.72 280.239C314.737 278.986 314.606 277.742 314.325 276.516C314.019 275.482 314.448 274.369 315.368 273.808C316.726 272.897 318.049 271.784 318.478 270.12C319.854 265.371 320.922 260.544 321.693 255.655C322.316 250.714 322.832 245.755 323.235 240.761V238.036C323.218 235.162 323.577 232.411 323.647 229.406C323.717 226.401 322.92 223.528 322.289 220.645C321.422 216.641 320.668 212.48 319.819 208.616C318.969 204.752 318.075 200.897 317.365 197.007C316.971 194.169 316.402 191.348 315.666 188.57C315.017 186.135 314.536 183.664 314.211 181.158C313.546 177.312 313.178 173.396 312.582 169.541C311.636 164.109 310.97 158.633 310.575 153.122C310.602 151.396 310.505 149.67 310.269 147.953C309.769 145.561 309.577 143.135 309.279 140.734C308.841 137.256 307.483 133.979 307.369 130.431C307.29 128.065 306.519 125.726 306.37 123.36C306.169 120.241 305.31 117.236 305.222 114.109C305.161 111.804 304.18 109.684 303.242 107.643C302.226 105.444 301.28 103.017 298.722 102.027C296.838 101.265 294.884 100.678 292.887 100.275C288.751 99.4598 284.73 98.1194 280.927 96.297C280.2 95.9816 279.324 95.71 279.324 94.8339C279.28 92.9678 278.36 91.3732 277.992 89.621C277.992 89.5947 277.992 89.5684 277.975 89.5421C277.87 88.9026 278.299 88.3068 278.93 88.1929C279.622 88.0089 280.34 87.895 281.059 87.86C282.119 87.8162 282.575 88.1403 282.487 89.253C282.443 89.7874 282.093 90.4533 282.767 90.8738C283.442 91.2944 283.617 92.0391 284.038 92.6261C285.01 93.9928 285.597 95.5699 286.57 96.9191C286.929 97.4185 287.384 97.7689 287.805 97.1031C288.891 95.4034 290.617 94.4309 292.186 93.362C296.636 90.243 301.569 87.8687 306.791 86.353C308.508 85.8449 308.552 85.8449 308.131 87.5971C308.052 87.9563 307.982 88.3068 308.289 88.4733C308.595 88.6397 308.841 88.5258 309.165 88.4733C309.515 88.4119 309.848 88.3418 310.19 88.2542L310.348 89.5684C309.857 89.6122 309.366 89.7086 308.885 89.8926C306.983 90.611 304.968 91.0491 303.12 91.8726C301.113 92.7663 299.054 93.7212 297.609 95.5436C297.302 95.9203 296.777 96.2532 297.162 96.7351C297.548 97.217 297.898 96.5862 298.222 96.3408C299.142 95.5085 300.132 94.7551 301.192 94.098C305.774 91.9077 310.689 90.4883 315.736 89.9101C320.335 89.2968 324.961 88.9464 329.596 88.8588C334.038 88.7974 337.35 90.392 339.295 94.3783C342.528 100.695 344.438 107.599 344.919 114.669C345.147 114.985 345.209 115.379 345.086 115.738C345.209 117.455 345.287 119.138 345.463 120.89C345.533 121.547 345.489 121.845 344.7 121.845C343.281 121.924 341.906 122.335 340.688 123.054C337.735 124.491 334.897 126.147 333.03 129.082C332.295 130.221 331.664 131.438 330.945 132.586C329.263 135.46 328.002 138.561 327.213 141.785C326.302 145.053 325.636 148.418 325.005 151.773C324.374 155.497 324.471 159.299 325.294 162.979C326.065 167.578 326.398 172.231 326.293 176.883C326.311 178.854 326.065 180.843 326.468 182.788C327.353 187.133 328.992 191.286 331.313 195.054C333.442 198.611 336.544 201.476 340.241 203.333C341.871 204.2 343.605 204.805 345.393 205.138L345.174 206.951C345.147 210 345.419 213.04 345.366 216.063C345.331 218.218 345.358 220.374 345.515 222.485C345.988 227.97 345.936 233.489 345.358 238.956C344.744 244.178 343.325 249.303 342.387 254.49C341.836 257.591 341.45 260.842 341.126 263.856C340.802 266.869 340.67 269.901 340.451 272.915C340.162 276.927 339.593 280.922 339.663 284.961C339.663 285.294 339.619 285.627 339.54 285.951C338.848 289.193 338.366 292.478 337.656 295.729C336.999 298.716 336.71 301.827 336.123 304.849C336.009 306.146 335.484 307.373 334.634 308.354C334.318 308.66 333.74 309.037 333.565 308.573C332.995 307.057 331.646 307.267 330.525 306.987C329.745 306.794 328.921 306.75 328.124 306.602C324.068 305.822 319.932 305.506 315.797 305.673C313.458 305.796 311.119 305.734 308.788 305.48C303.181 304.832 297.679 303.737 292.089 302.659C286.5 301.581 280.884 300.723 275.241 300.031C271.089 299.479 266.98 298.629 262.949 297.472C261.863 297.174 260.768 296.938 259.655 296.771Z" fill="#D0E6D2" style="fill:#D0E6D2;fill:color(display-p3 0.8157 0.9020 0.8235);fill-opacity:1;"/>
<path d="M478.888 239.263L478.861 239.316C478.861 239.316 478.853 239.307 478.853 239.298L478.888 239.263Z" fill="#433F40" style="fill:#433F40;fill:color(display-p3 0.2627 0.2471 0.2510);fill-opacity:1;"/>
<path d="M397.128 115.695H397.137C397.137 115.695 397.093 115.721 397.075 115.739C397.075 115.721 397.066 115.695 397.066 115.677L397.128 115.695Z" fill="#433F40" style="fill:#433F40;fill:color(display-p3 0.2627 0.2471 0.2510);fill-opacity:1;"/>
<path d="M341.223 95.2652C341.223 95.2652 341.179 95.2031 341.152 95.1766L341.17 95.1411C341.188 95.1854 341.205 95.2209 341.223 95.2652Z" fill="#433F40" style="fill:#433F40;fill:color(display-p3 0.2627 0.2471 0.2510);fill-opacity:1;"/>
<path d="M305.038 22.2211C306.843 22.151 308.438 22.3963 309.656 23.9207C310.278 24.6216 311.206 24.9546 312.126 24.7969C314.404 24.6654 315.867 26.3826 316.989 28.1787C317.646 29.23 318.688 30.2201 318.303 31.6832C318.303 31.7358 318.609 31.8497 318.741 31.9811C319.547 32.7959 320.309 33.6632 321.089 34.4955L320.511 35.0475C318.224 32.6382 315.771 30.6669 312.407 30.0273C312.249 29.9923 312.117 29.9397 312.004 29.8609C311.688 29.6331 311.592 29.2125 311.53 28.7394C311.101 25.4978 308.333 23.0797 305.065 23.0797L305.038 22.2211Z" fill="#433F40" style="fill:#433F40;fill:color(display-p3 0.2627 0.2471 0.2510);fill-opacity:1;"/>
<path d="M284.722 55.7236L284.695 55.7415C284.695 55.7415 284.677 55.7326 284.668 55.7326C284.686 55.7236 284.704 55.7236 284.722 55.7236Z" fill="#433F40" style="fill:#433F40;fill:color(display-p3 0.2627 0.2471 0.2510);fill-opacity:1;"/>
<path d="M258.438 93.835L258.429 93.8439C258.429 93.8439 258.429 93.835 258.438 93.835Z" fill="#433F40" style="fill:#433F40;fill:color(display-p3 0.2627 0.2471 0.2510);fill-opacity:1;"/>
<path d="M475.69 241.829C471.502 242.854 467.375 244.256 462.995 244.23C462.294 244.23 461.882 244.423 461.891 245.194C461.891 249.224 461.777 253.254 461.996 257.267C462.145 260 462.215 262.734 462.294 265.458C462.241 266.799 462.381 268.139 462.723 269.427C463.301 271.074 465.833 271.416 468.172 270.4C470.967 269.129 473.964 268.341 477.021 268.052C477.713 268.078 478.344 267.649 478.59 267C478.852 266.124 479.177 265.248 479.352 264.258C479.93 261.209 479.185 258.204 479.308 255.181C479.378 253.561 479.545 251.896 479.474 250.319C479.343 247.27 479.396 244.186 479.299 241.172C479.378 240.524 479.22 239.867 478.861 239.315L478.887 239.262L478.852 239.297C478.852 239.297 478.861 239.306 478.861 239.315C478.309 240.647 477.109 241.593 475.69 241.829ZM413.94 123.719C412.565 123.456 412.495 124.043 412.53 124.99C412.653 127.968 412.267 130.938 412.241 133.909C412.206 137.842 412.39 141.767 412.801 145.666C413.774 145.666 414.414 145.351 414.554 144.422C414.755 142.827 414.913 141.224 415.149 139.63C415.658 136.265 416.227 132.919 416.989 129.598C417.445 127.635 418.049 125.708 418.777 123.824L418.794 123.789C417.173 123.921 415.553 123.894 413.94 123.719ZM412.889 112.864C412.977 113.372 413.616 113.363 414.081 113.311C416.972 113.057 419.784 112.277 422.395 111.015C427.187 108.764 431.717 105.995 435.914 102.762C435.738 102.622 435.554 102.517 435.353 102.421C429.982 100.739 424.612 99.0651 419.25 97.3654C418.759 97.1552 418.225 97.0763 417.699 97.1201C416.989 97.2603 416.359 97.4443 417.147 98.408C418.391 99.7485 418.733 101.693 418.023 103.367C417.576 104.418 416.797 105.303 417.077 106.644C417.13 107.169 417.086 107.704 416.954 108.212C416.525 109.868 415.342 111.217 413.765 111.848C413.336 112.058 412.801 112.356 412.889 112.864ZM411.303 104.69C413.625 106.162 417.322 104.085 417.051 101.641L416.989 101.658C417.278 100.712 416.35 100.16 416.166 99.3367C416.122 99.1264 415.85 99.1264 415.684 99.2491C414.282 100.3 412.486 100.747 411.303 102.167C410.471 103.192 410.506 104.138 411.303 104.69ZM414.142 147.077C412.25 147.541 410.453 147.953 408.657 148.417C408.079 148.557 407.781 148.619 408.009 149.433C408.57 151.142 408.885 152.938 409.385 154.69C410.392 158.238 411.645 161.699 412.425 165.335C413.056 168.261 414.177 171.047 414.703 174.009C415.281 176.357 415.973 178.678 416.779 180.948C417.042 181.824 417.261 181.824 417.953 181.613C421.458 180.623 425.041 179.625 428.607 178.74C429.386 178.547 429.483 178.153 429.29 177.636C428.502 175.437 428.107 173.133 427.468 170.89C426.364 167.008 425.216 163.145 424.121 159.255C422.877 154.874 421.659 150.494 420.468 146.113C420.284 145.421 420.056 145.377 419.416 145.596C418.295 145.981 417.147 146.279 415.982 146.472C415.202 146.604 415.561 147.217 415.333 147.567C415.106 147.918 415.088 148.102 415.509 148.198C416.849 148.513 416.543 149.407 416.28 150.31C416.14 151.037 415.57 151.597 414.843 151.711C414.054 151.869 413.266 151.466 412.924 150.739C412.618 150.055 412.81 149.249 413.388 148.776C413.792 148.321 414.37 147.953 414.142 147.077ZM409.604 72.6851C408.657 75.5149 409.078 77.6176 411.356 79.0019C413.634 80.3862 415.737 81.42 416.078 84.3375C416.087 84.5302 416.253 84.6792 416.446 84.6704C416.507 84.6704 416.56 84.6529 416.613 84.6178C416.744 84.5828 416.823 84.4601 416.814 84.32C416.919 82.1735 415.64 80.2022 413.643 79.4137C411.706 78.9318 410.252 77.3373 409.954 75.3572C409.437 72.9829 411.917 70.1005 414.177 70.3808C415.456 70.5736 416.683 71.0204 417.787 71.695C418.12 71.9141 418.558 71.9141 418.891 71.695C419.022 71.6162 419.223 71.4848 419.075 71.2307C418.926 70.9766 418.496 70.9153 418.198 70.924C417.874 70.9416 417.55 70.8189 417.322 70.5824C416.648 69.9603 415.719 69.6624 414.808 69.7851V69.7413C412.179 69.7413 410.199 70.8978 409.604 72.6851ZM407.133 105.732C405.819 105.426 404.443 105.75 403.401 106.609C402.498 107.152 402.2 108.317 402.744 109.219C402.866 109.43 403.033 109.614 403.234 109.763C404.829 111.147 406.905 111.83 409.008 111.664C409.437 111.699 409.875 111.699 410.305 111.664C412.933 111.305 415.815 110.201 415.815 106.757C415.815 106.328 416.069 105.881 415.255 106.074C412.521 106.757 409.805 106.319 407.133 105.732ZM398.862 104.655C400.387 103.779 401.824 102.727 403.339 101.825C404.338 101.15 405.179 100.265 405.81 99.2403C406.59 98.0576 406.45 96.4805 405.46 95.4555C404.172 94.5881 402.419 94.886 401.491 96.1301C399.484 98.5745 396.742 99.9062 393.991 101.133C390.206 102.824 388.217 105.881 387.315 109.631C386.588 112.645 386.202 115.711 384.187 118.252C383.679 118.901 382.821 119.312 382.75 120.346C384.144 119.636 385.379 118.629 386.36 117.402C387.114 116.298 388.182 115.431 389.418 114.914C392.677 113.889 394.42 111.48 395.489 108.589C396.085 106.906 397.285 105.505 398.862 104.655ZM404.47 112.181C402.796 111.778 401.105 111.243 399.423 112.47C398.091 113.442 397.802 115.002 399.116 115.974C400.807 117.052 402.726 117.718 404.724 117.911V117.946C405.241 117.884 405.722 117.832 406.196 117.762C408.351 117.525 410.234 116.202 411.189 114.257C411.487 113.661 411.759 112.671 410.453 112.978C408.333 113.486 406.441 112.654 404.47 112.181ZM401.736 110.367C400.615 107.283 401.824 105.329 405.065 104.602C406.607 104.261 407.974 104.926 409.446 104.909C409.139 103.113 410.489 100.703 412.626 99.7748C413.967 99.1615 415.097 98.1539 415.859 96.8836C416.394 96.0337 417.462 95.6658 418.409 96.0074C422.597 97.1902 426.758 98.4431 430.928 99.6784C434.433 100.721 437.937 101.807 441.442 102.806C441.854 102.92 442.318 103.358 442.87 102.85C443.913 101.851 444.99 100.887 446.094 99.9588C446.637 99.5032 446.278 99.2228 445.928 99.1965C445.139 99.0301 444.359 98.8198 443.597 98.5657C440.04 97.9262 436.763 96.4017 433.39 95.1926C429.667 93.8522 427.1 90.7419 424.217 88.245C420.257 84.8194 415.193 85.1523 412.328 88.4027C411.224 89.7081 410.287 91.1362 409.516 92.6607C408.64 94.3428 407.562 95.8147 407.396 97.9787C407.133 101.273 404.294 102.859 401.613 104.383C399.432 105.627 396.882 106.372 396.357 109.64C396.05 111.55 394.543 113.285 392.852 114.695L397.066 115.676C397.066 115.676 397.075 115.72 397.075 115.738C397.093 115.72 397.119 115.703 397.136 115.703L397.329 115.895C397.329 115.895 397.373 115.808 397.329 115.782C397.294 115.764 397.224 115.676 397.136 115.703H397.128L397.066 115.676C396.637 112.584 398.1 110.928 401.736 110.367ZM246.426 105.566C245.208 109.325 245.453 113.206 245.059 117.008C246.391 117.008 246.715 116.22 246.759 115.151C246.724 114.432 246.767 113.714 246.89 113.004C247.679 110.095 247.766 107.047 248.958 103.814C247.933 104.69 246.846 104.304 246.426 105.566ZM245.296 137.807C244.989 137.886 244.709 138.044 244.779 138.377C244.849 138.71 245.225 138.937 245.655 138.911C246.084 138.885 246.224 138.85 246.154 138.429C246.084 138.009 245.576 138.061 245.322 137.816H245.296V137.807ZM245.865 118.331C244.779 118.278 245.05 118.971 245.041 119.549V132.866H245.05C245.331 133.067 244.507 133.619 245.173 133.751C245.839 133.882 245.488 133.111 245.69 132.813C245.909 132.384 245.97 131.893 245.883 131.42C245.883 127.443 245.97 123.465 246.163 119.488C246.163 119.181 247.284 118.401 245.865 118.331ZM239.461 101.755C236.026 104.69 233.959 108.913 233.74 113.416C233.573 115.028 235.15 116.999 236.701 117.481C237.507 117.621 238.322 117.709 239.136 117.744V117.718C240.442 117.621 241.922 117.507 243.403 117.411C243.78 117.411 243.92 117.21 243.885 116.868C243.754 115.51 244.341 114.196 244.235 112.873C244.095 110.542 244.428 108.203 245.208 105.995C245.471 105.18 245.593 104.445 244.271 104.304C243.158 104.19 243.096 103.893 243.605 102.832C243.701 102.631 243.605 102.596 243.535 102.517C242.641 101.185 240.845 100.835 239.513 101.72C239.496 101.737 239.478 101.746 239.461 101.755ZM232.828 111.261C233.126 109.64 233.634 108.054 234.353 106.565C234.458 106.284 234.694 106.074 234.291 105.899C233.888 105.724 233.757 105.899 233.608 106.214C232.565 108.58 231.523 110.937 230.48 113.293V113.311L230.796 113.53C231.497 112.776 232.723 112.233 232.828 111.261ZM189.89 275.21C189.346 277.225 189.294 279.319 188.829 281.342C188.111 284.295 187.156 287.177 185.973 289.972C185.378 291.444 185.702 291.821 187.2 292.39C190.424 293.617 193.823 293.415 197.153 293.486C199.579 293.389 201.998 293.144 204.389 292.732C205.082 292.653 205.765 292.355 205.502 291.628C204.714 289.508 204.827 287.318 204.696 285.145C204.538 282.709 205.029 280.291 204.994 277.724V277.707C205.248 276.498 204.924 275.691 203.329 275.753C202.374 275.797 201.411 275.683 200.491 275.429C197.81 274.658 195.094 274.036 192.343 273.571C190.783 273.326 190.301 273.685 189.89 275.21ZM366.498 206.863C367.173 210.122 367.523 213.425 367.55 216.746C367.55 219.655 367.357 222.572 367.296 225.507C367.252 227.557 367.997 228.416 369.994 228.784C371.081 228.985 371.659 228.714 371.668 227.408C371.668 221.582 371.878 215.747 371.922 209.886C372.009 199.846 371.816 189.814 372.158 179.774C372.377 173.518 373.104 167.298 373.096 161.033V156.486C373.096 156.074 373.148 155.61 373.569 155.549C373.989 155.487 374.313 155.978 374.383 156.425C374.497 157.135 374.55 157.844 374.55 158.554C374.673 161.831 374.576 165.107 374.261 168.366C373.998 170.785 373.867 173.211 373.867 175.638C373.788 179.143 373.446 182.647 373.429 186.152C373.429 191.671 373.297 197.191 373.367 202.71C373.472 211.121 373.113 219.523 372.85 227.934C372.684 233.261 372.85 238.596 373.078 243.923C373.209 247.2 373.201 250.485 373.192 253.762C373.192 255.777 373.192 257.784 373.315 259.807C373.446 261.56 372.955 263.312 373.411 265.064C373.867 266.816 375.61 268.516 377.354 268.463C379.894 268.446 382.426 268.253 384.932 267.885C386.308 267.649 387.674 267.719 389.05 267.491C392.475 266.913 395.813 265.651 399.371 265.931C400.247 266.002 400.396 265.564 400.404 264.801C400.474 260.727 400.588 256.653 400.685 252.588C400.764 249.364 401.175 246.131 400.685 242.907C400.615 242.53 400.615 242.136 400.685 241.75C400.816 241.479 401.096 241.312 401.403 241.33C401.85 241.33 401.745 241.689 401.78 241.952C402.437 246.736 402.051 251.546 401.955 256.32C401.894 259.58 401.885 262.874 401.578 266.142C401.491 267.018 402.025 267.973 401.727 268.849C401.298 269.988 401.867 271.258 402.998 271.688C403.006 271.696 403.015 271.696 403.024 271.696C406.082 273.046 409.35 273.65 412.661 272.651C416.341 271.53 420.152 271.031 423.823 269.883C427.266 268.814 430.78 267.982 434.337 267.386C437.28 266.825 440.285 266.624 443.282 266.773C448.793 267.193 454.251 268.358 459.832 267.307C460.988 267.088 461.102 266.755 461.058 265.826C460.936 263.531 460.76 261.235 460.796 258.949C460.796 256.417 460.541 253.902 460.515 251.379C460.489 248.856 460.051 246.464 460.892 244.212C461.286 243.161 461.444 242.022 461.339 240.892C461.155 238.264 460.979 235.714 460.699 233.138C460.279 229.283 459.718 225.446 459.332 221.591C458.947 217.736 458.737 213.776 458.334 209.877C458.185 208.432 458.334 206.977 458.097 205.567C457.563 202.5 457.326 199.434 457.028 196.315C456.669 192.653 456.345 188.982 456.047 185.302C455.714 181.158 455.469 177.005 455.346 172.852C455.215 168.366 455.486 163.863 455.539 159.377C455.539 157.021 455.215 154.638 455.355 152.368C455.53 149.425 455.574 146.455 455.732 143.511C455.968 138.902 457.125 134.478 457.869 129.975C458.29 127.408 459.026 124.893 460.06 122.501C460.725 120.951 461.365 119.347 461.908 117.727C463.047 114.555 464.458 111.489 466.122 108.554C466.394 107.826 467.165 107.415 467.918 107.59C467.918 107.835 467.971 108.151 467.848 108.299C466.026 110.376 465.115 112.96 464.046 115.431C462.627 118.541 461.374 121.73 460.287 124.963C459.525 127.609 458.894 130.29 458.412 132.997C457.344 138.456 456.757 143.993 456.66 149.547C456.59 151.86 456.651 154.164 456.844 156.46C456.958 158.799 456.923 161.138 456.73 163.469C456.511 168.866 456.573 174.263 456.897 179.651C457.072 182.77 457.457 185.863 457.58 188.99C457.712 192.32 458.307 195.623 458.649 198.943C458.956 201.896 459.227 204.857 459.525 207.809C459.841 211.375 460.121 214.941 460.401 218.498C460.62 220.934 460.76 223.396 461.058 225.814C461.707 231.071 462.276 236.327 462.688 241.584C462.767 242.6 463.073 242.898 464.063 242.898C465.448 242.802 466.814 242.583 468.155 242.241C471.064 241.821 473.911 241.058 476.636 239.963C477.249 239.753 477.617 239.131 477.512 238.491C477.398 237.309 477.442 236.091 477.31 234.987C476.697 229.537 476.758 224.062 476.671 218.603C476.531 210.377 476.671 202.141 476.461 193.914C476.364 190.27 476.373 186.616 476.154 182.963C475.812 177.268 475.987 171.573 475.742 165.852C475.479 159.859 475.541 153.858 474.866 147.883C474.673 146.052 474.568 144.203 474.297 142.381C473.745 138.718 473.42 135.047 473.096 131.359C472.912 129.151 473.236 126.856 472.72 124.753C471.738 120.749 471.756 116.605 470.713 112.654C470.231 110.814 469.627 108.843 468.085 107.493C468.067 107.476 468.05 107.467 468.032 107.45C467.498 107.012 466.841 106.722 466.157 106.617C463.529 106.276 461.409 104.786 459.148 103.647C456.888 102.508 454.505 101.308 452.139 100.283C450.387 99.5382 448.819 99.4068 447.137 100.922C445.455 102.438 444.044 104.033 442.388 105.461C439.865 107.634 438.008 110.402 435.817 112.838C432.733 116.395 429.071 119.409 424.988 121.748C424.69 121.914 424.401 122.423 424.042 121.888C423.797 121.503 423.893 120.986 424.27 120.714C424.655 120.294 425.348 120.302 425.663 119.663C424.936 119.225 424.016 119.304 423.376 119.864C421.063 121.564 420.091 124.061 419.215 126.628C418.225 129.861 417.462 133.155 416.937 136.493C416.42 139.104 416.043 141.732 415.798 144.378C415.728 145.184 415.929 145.193 416.543 144.983C417.62 144.632 418.715 144.343 419.828 144.107C420.941 143.853 421.352 144.107 421.633 145.21C422.509 148.61 423.508 151.974 424.454 155.347C425.908 160.543 427.398 165.729 428.782 170.942C429.579 173.378 430.21 175.866 430.666 178.389C430.762 179.187 430.666 179.712 429.79 179.94C425.724 181.053 421.65 182.157 417.594 183.304C416.446 183.628 416.017 183.234 415.666 182.113C413.756 175.927 412.162 169.646 410.462 163.416L406.66 149.609C406.187 147.909 406.292 147.734 407.904 147.322C408.982 146.928 410.094 146.639 411.224 146.446C411.514 146.446 411.724 146.262 411.619 145.99C411.005 144.457 411.391 142.836 411.242 141.268C410.909 138.245 410.821 135.196 410.979 132.148C411.154 129.361 410.874 126.567 411.356 123.798C411.443 123.299 411.146 123.097 410.655 122.922C408.614 122.177 406.66 121.301 404.627 120.425C401.184 118.962 397.837 117.28 394.184 116.316C391.783 115.685 389.637 115.641 387.876 117.648C386.386 119.339 384.669 120.81 382.777 122.028C380.586 123.465 378.501 125.077 376.267 126.461C372.255 128.809 369.644 132.962 369.258 137.588C368.925 140.585 368.855 143.581 368.741 146.577C368.601 150.266 368.268 153.937 368.093 157.625C367.979 159.973 368.005 162.339 367.76 164.634C367.331 168.726 367.269 172.843 366.7 176.9C366.271 179.984 366.393 183.129 366.069 186.231C365.894 187.913 365.981 189.604 365.789 191.268C365.175 196.472 365.412 201.738 366.498 206.863ZM365.412 250.24C365.289 254.472 367.217 255.725 370.423 257.161C371.571 257.67 371.913 257.161 371.895 256.11C371.825 252.536 371.711 248.97 371.659 245.395C371.589 240.883 371.501 236.362 371.527 231.85C371.527 230.887 371.449 230.58 370.38 230.545C367.962 230.624 365.911 228.775 365.736 226.357C365.149 227.032 364.772 227.846 364.632 228.723C363.966 231.412 364.334 234.093 364.632 236.8C365.167 241.26 365.43 245.754 365.412 250.24ZM343.754 102.149C345.568 107.888 346.532 113.854 346.628 119.864C346.707 122.291 346.733 122.3 349.125 122.712C350.229 122.904 351.324 122.887 352.498 123.123C350.465 113.048 347.977 103.306 341.222 95.2627C341.205 95.2189 341.187 95.1839 341.17 95.1401L341.152 95.1751C341.152 95.1751 341.205 95.2365 341.222 95.2627C342.23 97.5056 343.071 99.8011 343.754 102.149ZM327.721 181.096C327.923 185.468 329.237 189.709 331.532 193.424C334.003 197.611 337.762 200.879 342.247 202.728C347.005 204.752 352.419 204.498 356.966 202.027C358.648 201.116 360.19 199.968 361.557 198.619C362.53 197.743 363.87 196.7 363.931 195.193C364.107 190.97 364.58 186.765 364.807 182.551C365.035 178.337 365.736 174.131 365.859 169.882C365.999 165.239 366.349 160.595 366.682 155.952C366.91 152.763 367.191 149.565 367.401 146.384C367.611 143.204 367.506 139.901 368.058 136.686C368.732 132.796 370.239 129.396 373.525 127.048C375.847 125.358 378.142 123.64 380.534 122.098C381.41 121.538 380.692 121.056 380.814 120.556C380.937 120.057 380.525 120.136 380.28 120.171C377.853 120.451 375.584 121.529 373.849 123.246C371.457 125.726 369.398 128.494 367.716 131.49C365.578 135.179 363.397 138.806 359.831 141.277C356.835 143.432 354.005 145.806 351.377 148.382C348.494 151.089 345.726 153.902 344.078 157.651C342.484 161.016 341.187 164.511 340.215 168.095C339.733 167.306 339.593 166.36 339.82 165.466C340.451 163.381 341.143 161.331 341.862 159.281C343.614 154.305 346.821 150.458 350.623 147.015C352.848 145.009 355.135 143.082 357.387 141.11C357.597 140.926 357.965 140.926 357.798 140.383C357.422 138.753 356.554 137.282 355.31 136.151C354.846 135.818 354.478 135.363 354.25 134.837C353.322 132.314 352.805 129.651 352.708 126.952C352.638 124.736 352.708 124.736 350.57 124.42C350.378 124.42 350.203 124.297 350.01 124.289C347.565 124.175 345.358 122.755 342.65 123.772C339.908 124.7 337.42 126.269 335.396 128.336C332.4 131.578 330.691 135.634 329.263 139.726C328.107 143.082 327.572 146.639 326.731 150.099C325.618 154.655 326.039 159.097 326.731 163.565C327.169 166.159 327.458 168.761 327.607 171.38C327.747 174.613 327.607 177.864 327.721 181.096ZM298.634 71.5023C299.098 71.7564 299.65 71.7739 300.132 71.5724C300.737 71.4147 300.737 70.9678 300.789 70.4597C300.947 68.8301 299.957 67.6035 299.493 65.9301C299.203 67.5597 299.011 68.909 298.704 70.2231C298.599 70.6787 298.205 71.1606 298.634 71.5023ZM282.285 277.514C282.364 277.558 282.452 277.558 282.531 277.514C283.074 276.927 282.338 276.541 282.312 276.042H282.285C282.285 276.541 281.882 277.049 282.285 277.514ZM278.711 59.9287C279.28 61.2692 280.542 62.1891 281.996 62.3205C283.679 62.3205 284.835 61.5583 285.15 60.0163C285.317 59.219 285.86 58.1765 284.931 57.4931C284.003 56.8097 281.742 57.3354 280.98 58.1765C280.761 58.4218 280.752 59.0526 280.183 58.7372C279.613 58.4218 280.069 58.0012 280.113 57.6157C280.192 56.8973 280.787 56.7396 281.313 56.5556C282.382 56.1176 283.512 55.8372 284.669 55.7321C284.677 55.7321 284.686 55.7408 284.695 55.7408L284.721 55.7233C284.721 55.7233 284.686 55.7233 284.669 55.7321C283.293 55.1451 281.83 55.3729 280.402 55.3553C278.211 55.3553 277.537 56.2928 278.194 58.4743C278.343 58.965 278.518 59.4468 278.711 59.9287ZM277.16 301.476C275.925 301.248 275.487 301.677 275.863 302.816C276.994 306.075 276.854 309.492 277.257 312.848H277.292C277.388 314.425 277.476 315.984 277.598 317.553C277.677 318.56 277.87 319.226 279.272 319.208C285.869 319.103 292.466 319.165 299.063 319.165H326.223C327.642 319.165 328.352 318.893 328.089 317.316C327.984 316.65 327.993 315.967 328.133 315.301C328.545 313.137 328.72 310.92 328.65 308.713C328.65 308.345 328.79 308.02 328.186 307.898C325.259 307.284 322.272 306.978 319.284 306.969C315.158 307.092 311.022 306.969 306.905 306.61C301.911 306.04 297.004 304.858 292.054 303.981C287.104 303.105 282.119 302.404 277.16 301.476ZM274.777 42.2748C272.885 45.569 272.079 49.3714 272.473 53.1387C272.578 54.5581 274.225 55.1714 274.4 56.6432C274.4 56.6432 274.567 56.7484 274.637 56.7396C275.601 56.5293 276.818 56.7396 276.976 55.2414C277.064 54.6982 277.528 54.2865 278.089 54.2689C279.561 53.9886 281.059 53.9097 282.548 54.0324C285.755 54.5493 288.611 53.6119 291.52 52.4378V52.4116C290.433 52.2363 289.934 51.2989 289.128 50.8696C287.104 49.8796 285.15 48.7494 283.293 47.4702C281.05 45.902 278.974 44.1059 277.081 42.1171C275.732 40.6365 275.793 40.5664 274.777 42.2748ZM269.354 56.5556C268.925 58.0801 269.17 59.7097 270.029 61.0326C270.554 61.5671 271.781 61.8036 271.781 61.497C271.781 60.3492 273.034 59.6659 272.613 58.4042C272 58.5269 271.29 59.3417 270.975 58.5269C270.659 57.7121 271.5 57.3266 272.21 57.0813C272.341 57.0375 272.508 57.0813 272.639 57.0813C273.025 56.9586 272.99 56.4768 272.841 56.4154C272.157 56.0124 271.404 55.7408 270.624 55.6269C269.888 55.6269 269.608 56.0212 269.354 56.5556ZM263.992 82.3224C263.563 81.3236 262.722 80.5614 261.688 80.2197V80.2372C261.539 80.9819 261.425 81.639 261.267 82.2786C260.803 84.2148 260.794 84.2148 262.722 84.2411C263.431 84.3287 264.071 83.8206 264.15 83.1197C264.185 82.8481 264.132 82.5677 263.992 82.3224ZM258.437 93.8434C259.603 92.17 260.969 90.6631 262.529 89.3489C263.168 88.8145 263.239 88.5254 262.345 88.0873C260.707 87.29 259.331 88.3852 257.833 88.5166C257.588 88.5166 257.517 88.8758 257.64 89.2262C258.148 90.7157 258.411 92.2664 258.437 93.8347C258.429 93.8347 258.429 93.8434 258.429 93.8434H258.437ZM257.675 86.081C257.123 86.0897 256.773 86.5453 256.046 86.8695C256.037 86.8695 256.019 86.8695 256.011 86.8695H256.037H256.046C256.72 86.8958 256.808 87.7807 257.316 87.4915C257.78 87.1849 257.938 86.5804 257.675 86.081ZM249.107 319.314C250.947 319.41 252.786 319.384 254.626 319.252C257.044 319.209 259.454 319.498 261.854 319.252C262.818 319.173 264.106 319.682 264.702 318.586C265.683 316.79 267.094 315.31 268.092 313.505C269.652 310.693 271.86 308.248 273.892 305.778C274.698 305.042 275.031 303.92 274.768 302.851C274.444 301.669 273.892 300.985 272.815 300.854C268.898 300.389 265.148 299.154 261.302 298.357C257.815 297.673 254.39 296.727 251.043 295.527C249.264 294.957 247.407 294.642 245.541 294.589C242.378 294.493 239.224 294.221 236.088 293.766C232.32 293.135 228.518 292.776 224.698 292.68C222.078 292.469 219.432 292.662 216.874 293.275C215.998 293.512 215.367 293.74 215.122 294.896C214.474 297.516 213.597 300.074 212.494 302.527L205.292 319.41C208.481 319.568 211.512 319.515 214.535 319.533C224.654 319.533 234.765 319.384 244.884 319.314C246.294 319.244 247.696 319.244 249.107 319.314ZM253.137 85.8006C254.504 86.4314 256.124 86.0722 257.097 84.9245C257.57 84.4339 258.069 84.0484 258.078 83.3737C258.096 82.5151 258.253 81.6653 258.551 80.8593C258.648 80.5789 258.788 80.281 258.551 80.062C258.315 79.843 258.026 80.1233 257.772 80.2022C255.091 81.1046 253.733 83.2949 252.532 85.7305C252.734 85.7393 252.935 85.7568 253.137 85.8006ZM249.746 75.6288C250.456 74.0868 250.097 72.6938 250.71 71.5373C249.79 72.685 249.431 74.192 249.746 75.6288ZM249.037 89.7694C249.843 89.6818 250.649 89.9797 251.192 90.5755C253.023 92.2226 253.251 94.6582 254.302 96.7083C254.425 96.9449 254.109 97.4706 254.74 97.383C255.371 97.2953 257.149 95.1576 257.237 94.4742C257.447 92.722 256.913 91.0661 256.554 89.3927C256.317 88.1048 255.231 87.1411 253.925 87.0535C251.84 86.887 249.641 86.4927 247.644 87.29C245.015 88.3326 242.921 90.3126 240.81 92.0561C238.181 94.1939 236.254 97.0938 233.923 99.5733C233.214 100.292 232.749 101.212 232.583 102.202C232.39 103.428 233.38 104.103 234.256 104.637C235.133 105.172 235.623 104.401 236.009 103.761C236.727 102.762 237.586 101.877 238.567 101.133C239.995 99.8711 242.124 99.8186 243.613 101.01C244.279 101.553 244.91 102.14 245.497 102.762C246.373 103.638 247.302 103.349 248.125 102.929C248.949 102.508 248.458 101.667 248.292 101.045C248.134 100.406 247.854 99.7923 247.468 99.2491C246.54 98.0313 246.732 95.9549 244.691 95.5694C244.507 95.5694 244.516 95.2715 244.63 95.0788C244.744 94.886 244.954 94.4479 245.243 94.6319C245.532 94.8159 246.18 94.7721 246.592 95.2715C248.248 97.1289 248.774 99.5032 249.886 101.65V101.606C251.025 100.914 252.077 100.09 253.032 99.1527C253.487 98.7672 253.584 98.1101 253.268 97.602C252.681 96.209 252.243 94.7458 251.682 93.3353C251.315 92.0386 250.281 91.0311 248.967 90.7069C248.695 90.6543 248.52 90.593 248.502 90.2951C248.485 89.9972 248.721 89.822 249.037 89.7694ZM251.577 102.07C250.114 103.2 249.825 104.988 249.405 106.696C248.642 109.824 248.134 112.995 247.871 116.193C250.938 115.51 253.89 114.38 256.633 112.829C259.655 111.199 262.581 109.403 265.394 107.432C267.61 105.908 269.617 104.085 271.369 102.035C272.946 100.143 274.365 98.1014 276.337 96.5419C276.994 96.0162 278.282 96.1126 278.308 95.035C278.22 94.1325 278.001 93.2477 277.66 92.4066C277.432 91.6356 277.178 90.8646 276.871 90.1111C276.109 88.245 273.174 86.1686 270.607 86.6066C266.945 87.255 264.15 89.235 261.609 91.8196C259.743 93.6857 258.446 96.06 256.308 97.6896C254.6 98.9863 253.286 100.703 251.577 102.07ZM252.234 173.527C252.234 174.315 252.015 175.086 250.833 175.034C246.811 174.885 242.79 174.815 238.768 174.727C238.129 174.823 237.542 174.377 237.454 173.737C237.437 173.623 237.437 173.509 237.454 173.387C237.454 171.144 237.454 168.892 237.594 166.658C237.98 161.778 237.594 156.88 237.954 151.992C238.146 148.864 238.164 145.736 238.006 142.6C237.919 140.129 238.479 137.685 238.146 135.214C238.085 134.758 238.444 133.873 238.909 134.031C240.17 134.46 241.274 133.611 242.457 133.821C243.333 133.987 243.675 133.654 243.561 132.735C243.412 131.131 243.447 129.51 243.657 127.907C243.929 125.279 243.719 122.65 243.727 120.022C243.727 119.146 243.316 118.682 242.396 118.857C240.687 119.111 238.961 119.155 237.244 118.988C235.606 118.909 234.169 118.384 233.415 116.693C233.1 115.992 233.012 115.247 232.758 114.546C232.618 114.152 232.618 113.609 231.882 114.213C229.192 116.474 226.214 118.331 223.463 120.521C221.123 122.405 218.67 124.14 216.112 125.699C212.94 127.609 209.856 129.729 207.754 132.91C207.14 133.838 207.333 135.135 206.422 136.02C206.01 136.546 205.712 137.141 205.546 137.772C204.346 140.953 203.969 144.326 203.277 147.62C202.62 150.739 202.628 153.989 202.006 157.108C200.929 162.496 200.859 167.972 200.254 173.395C199.939 176.103 199.982 178.827 199.571 181.535C199.159 184.242 198.695 186.905 198.458 189.595C198.221 192.285 197.827 194.755 197.582 197.322C197.039 202.255 196.522 207.187 196.031 212.129C195.777 214.696 195.637 217.28 195.374 219.847C194.971 223.772 194.253 227.68 194.112 231.605C193.937 236.555 193.674 241.496 193.412 246.438C193.377 247.971 193.263 249.495 193.07 251.011C192.351 255.392 192.325 259.904 191.957 264.354C191.738 267.053 192.343 269.786 191.563 272.467C196.18 272.537 200.324 274.842 205.055 274.658C204.573 272.8 205.055 270.89 204.845 268.937C204.749 266.764 204.766 264.582 204.915 262.401C204.985 258.362 205.458 254.34 205.318 250.301V247.55C205.318 243.739 206.308 240.033 206.466 236.231C206.475 234.61 206.685 232.998 207.105 231.43C207.911 228.661 208.446 225.823 208.7 222.949C209.147 218.919 210.452 215.064 210.715 210.972C210.82 209.325 211.687 207.687 211.591 206.084C211.328 201.887 213.019 198.032 213.343 193.932C213.632 190.05 214.219 186.178 214.614 182.288C214.789 180.369 214.614 178.468 214.771 176.541C214.929 174.613 215.367 172.782 215.481 170.872C215.674 167.613 215.542 164.336 216.068 161.095C216.436 159.5 216.436 157.844 216.068 156.241C215.963 155.855 215.77 155.163 216.419 155.006C217.067 154.848 217.295 155.54 217.338 156.022C217.566 157.45 217.566 158.904 217.338 160.324C216.997 161.655 216.795 163.013 216.725 164.38C216.848 166.465 216.787 168.542 216.55 170.609C216.129 174.447 215.91 178.284 215.735 182.122C215.604 185.092 215.166 188.027 214.973 190.988C214.658 195.649 213.221 200.143 212.932 204.796C212.818 206.925 212.055 208.905 211.959 210.99C211.635 216.247 210.04 221.284 209.48 226.515C209.085 230.151 207.894 233.716 207.605 237.414C207.263 241.733 206.51 246 206.448 250.345C206.361 256.478 205.879 262.558 205.958 268.656C205.958 271.968 206.238 275.297 206.107 278.609C205.94 282.744 205.669 286.862 206.361 291.111C207.088 290.13 208.192 289.499 209.41 289.359C211.723 289.061 213.948 288.308 216.34 288.378C219.073 288.457 221.824 287.826 224.558 288.43C226.301 288.789 228.097 288.719 229.814 288.246C229.376 287.616 228.711 287.817 228.229 287.607C227.721 287.344 227.195 287.125 226.652 286.95C224.961 286.547 223.48 285.083 223.612 283.971C223.971 280.904 224.277 277.838 224.838 274.789C225.714 270.268 226.739 265.783 227.642 261.27C228.351 257.713 228.746 254.086 229.683 250.591C231.549 244.107 232.969 237.501 233.923 230.816C234.475 226.436 235.571 222.108 236.044 217.675C236.026 217.307 236.315 216.991 236.692 216.974H236.788C237.481 216.974 237.156 217.517 237.209 217.85C237.472 219.558 236.657 221.109 236.464 222.765C236.088 226.024 235.343 229.239 234.914 232.499C234.379 236.564 233.582 240.576 232.53 244.528C231.9 246.911 230.945 249.241 230.603 251.659C229.727 257.792 228.343 263.785 227.098 269.821C226.1 274.596 225.346 279.415 224.829 284.26C226.985 283.507 229.341 283.542 231.479 284.365C235.763 285.925 240.24 286.494 244.621 287.598C247.048 288.211 249.475 288.833 251.954 289.28C254.057 289.613 256.186 289.771 258.315 289.762C261.872 289.911 265.429 289.762 268.96 289.315C271.868 288.895 274.882 287.773 277.957 290.13C277.37 287.58 278.299 285.618 278.834 283.629C280.165 278.662 281.856 273.79 283.144 268.814C283.591 267.062 284.73 265.309 283.144 263.259C281.558 261.209 281.558 258.59 281.795 256.023C282.005 253.797 281.935 251.546 282.119 249.311C282.285 247.296 282.049 245.264 282.294 243.275C282.61 240.629 282.759 237.974 282.759 235.302C282.759 231.412 283.635 227.627 283.591 223.729C283.591 221.468 283.985 219.094 283.81 216.886C283.582 213.977 284.187 211.069 283.372 208.125C282.846 206.206 282.908 203.963 282.61 201.922C282.058 198.733 281.681 195.517 281.488 192.285C281.339 187.194 280.56 182.183 280.095 177.136C279.736 173.281 278.825 169.479 278.483 165.589C278.229 162.067 277.642 158.571 276.731 155.154C276.529 154.445 276.731 153.665 276.538 152.912C276.459 152.658 276.626 151.974 277.186 151.948C277.747 151.922 277.476 152.43 277.589 152.701C278.264 154.384 278.159 156.206 278.623 157.958C279.193 160.446 279.569 162.97 279.727 165.51C279.937 167.587 280.192 169.663 280.393 171.748C280.595 173.833 281.146 175.743 281.269 177.758C281.576 181.64 282.233 185.486 282.478 189.385C282.522 192.46 282.794 195.526 283.293 198.549C283.924 201.501 283.959 204.577 284.511 207.555C285.387 212.138 284.993 216.755 285.229 221.354C285.282 222.467 284.625 223.51 284.853 224.508C285.361 226.769 284.59 228.889 284.353 231.044C284.108 233.34 284.082 235.661 283.924 237.939C283.731 240.769 284.011 243.713 283.827 246.56C283.573 250.582 283.267 254.586 283.275 258.616C283.381 260.132 283.827 261.603 284.598 262.909C285.019 262.287 284.388 261.358 285.632 261.157C286.508 261.034 287.06 259.956 288.007 259.588C288.953 259.22 289.207 259.895 289.811 260.254C287.963 261.06 286.254 261.656 285.79 263.934C285.028 267.675 283.941 271.363 283.696 275.192C283.477 276.664 283.626 278.171 284.117 279.573C285.492 282.464 288.278 284.006 291.126 285.005C293.526 285.749 296.014 286.161 298.52 286.24C303.032 286.529 307.281 284.996 311.303 283.086C313.221 282.21 313.721 280.904 313.379 278.784C312.888 275.727 312.915 272.608 313.458 269.559C313.738 267.964 313.651 266.238 312.223 265.274C309.629 263.496 306.834 262.041 303.882 260.946C302.647 260.473 301.604 259.597 300.921 258.467C305.1 259.816 309.069 261.752 312.696 264.223C314.159 265.169 314.93 266.886 314.649 268.604C314.553 269.997 314.404 271.407 314.387 272.975C315.21 272.502 315.894 271.802 316.349 270.96C317.103 269.129 317.751 267.254 318.285 265.344C319.188 262.155 319.871 258.914 320.335 255.628C320.914 251.817 321.212 247.971 321.571 244.134C321.746 242.197 322.307 240.226 321.378 238.299C321.264 238.053 321.203 237.422 321.518 237.422C322.754 237.098 321.974 236.178 322.018 235.609C322.018 235.197 321.939 234.663 321.965 234.216C322.175 231.596 322.123 228.95 321.799 226.331C321.203 221.722 319.889 217.298 319.048 212.76C318.531 209.991 317.874 207.24 317.295 204.48C316.577 201.072 315.946 197.655 315.342 194.23C314.597 190.05 313.449 185.941 312.713 181.762C311.776 176.655 311.057 171.503 310.216 166.369C309.699 164.144 309.323 161.874 309.086 159.596C308.955 155.952 308.499 152.342 308.271 148.715C308.149 145.482 307.772 142.258 307.159 139.078C306.423 135.713 306.282 132.27 305.844 128.862C305.459 125.787 305.012 122.729 304.6 119.636C304.101 115.913 303.943 112.163 302.261 108.676C301.035 106.135 300.001 103.542 296.82 102.797C294.192 102.175 291.625 101.361 288.935 100.8C285.659 99.9675 282.496 98.7409 279.517 97.1464C278.886 96.7609 278.089 96.8135 277.511 97.2691C275.942 98.4693 274.576 99.9062 273.463 101.527C271.483 104.173 269.1 106.495 266.401 108.387C264.115 109.92 261.74 111.322 259.392 112.768C256.116 114.792 252.576 116.342 248.879 117.385C248.441 117.507 247.565 117.437 247.644 118.305C247.591 119.12 247.486 119.926 247.337 120.723C247.249 124.438 247.153 128.144 247.048 131.841C247.048 132.226 247.004 132.612 246.925 132.98C246.724 133.768 247.1 134.066 247.801 134.084H250.701C252.848 134.084 252.953 134.18 252.874 136.397C252.725 140.856 252.874 145.324 252.585 149.793C252.366 152.798 252.436 155.82 252.445 158.834C252.445 163.732 252.086 168.621 252.234 173.527ZM251.034 71.476C252.856 70.0479 254.758 69.2857 257.053 70.3808C257.964 70.7488 258.727 71.4059 259.226 72.247C260.286 74.4285 260.601 76.8904 260.102 79.256C259.471 81.7704 258.735 84.2499 259.077 87.2637C259.611 86.4665 259.795 86.0284 259.611 85.3976C259.524 84.8807 259.559 84.355 259.708 83.8469C260.26 80.8768 261.285 77.9944 261.066 74.8666C260.934 73.3159 260.321 71.844 259.314 70.6524C257.772 68.7162 253.522 68.5235 251.639 70.118C251.288 70.4159 250.657 70.6787 251.034 71.476ZM251.718 136.738C251.928 135.363 251.104 135.091 250.105 135.249C249.501 135.337 248.896 135.337 248.292 135.249C246.943 135.109 246.364 136.125 246.934 137.387C247.889 139.577 247.521 140.234 245.234 140.339C244.27 140.409 243.429 139.682 243.368 138.71C243.351 138.456 243.386 138.202 243.482 137.956C243.666 137.264 244.227 136.73 244.928 136.572C245.401 136.493 245.725 136.037 245.637 135.556C245.628 135.538 245.628 135.512 245.62 135.486C245.55 134.934 245.015 135.153 244.674 135.144C243.184 135.083 241.686 135.144 240.205 134.969C239.618 134.907 239.574 135.196 239.653 135.477C239.995 136.677 239.566 137.851 239.557 139.034C239.557 143.765 239.434 148.496 239.355 153.227C239.303 156.442 239.233 159.649 239.171 162.864C239.11 166.08 239.049 169.067 238.996 172.169C238.996 172.712 238.909 173.203 239.785 173.168C242.133 173.106 244.498 173.632 246.899 173.448C247.863 173.448 248.835 173.404 249.799 173.448C250.631 173.501 250.876 173.194 250.868 172.379C250.868 169.059 250.947 165.747 251.095 162.426C251.306 157.748 251.025 153.069 251.376 148.408C251.665 144.527 251.122 140.611 251.718 136.738ZM253.671 71.2132C252.199 71.8265 251.043 72.7727 251.139 74.595C251.236 76.0669 250.763 76.8379 249.685 76.7853C248.634 76.5575 247.933 75.5587 248.064 74.4811C248.353 70.5561 251.779 67.6123 255.704 67.9014C256.633 67.9715 257.526 68.2168 258.359 68.6286C261.504 70.1355 261.662 72.9566 262.266 75.6376C262.485 76.356 262.45 77.127 262.178 77.8191C261.898 78.4499 262.178 79.1859 262.809 79.4662C262.871 79.4925 262.932 79.51 262.993 79.5276C264.106 80.027 264.938 80.9907 265.28 82.1559C265.867 84.0396 264.404 85.5027 262.152 85.5378C261.749 85.5378 260.698 84.8632 260.934 86.2124C260.943 86.3088 260.969 86.3964 260.996 86.484C261.828 86.4402 262.652 86.6855 263.326 87.1761C264.018 87.6843 264.956 87.6843 265.648 87.1761C266.91 86.4489 268.25 85.8795 269.652 85.4764C272.744 84.6879 274.909 86.1686 277.073 88.0435C278.08 86.887 279.622 86.3438 281.129 86.6154C281.786 86.8082 282.469 86.4227 282.653 85.7656C282.68 85.6955 282.688 85.6254 282.697 85.5465C282.96 83.549 283.118 81.5427 283.311 79.5363C283.311 79.1158 283.311 78.8004 282.715 78.8354C278.352 79.1684 274.506 76.0231 273.954 71.6775C273.796 70.5911 273.708 69.4872 273.699 68.3745C273.699 68.1204 273.752 67.9014 273.875 67.7437C273.997 67.5948 274.181 67.4984 274.453 67.4984C274.996 67.4984 275.241 67.8664 275.145 68.3745C274.681 70.8978 275.767 73.0092 276.897 75.0944C277.292 75.7602 277.914 76.2509 278.65 76.4699C281.891 77.6527 285.291 77.7578 288.672 77.9067C289.058 77.9067 289.303 77.8367 289.373 78.301C289.846 80.8067 289.654 83.3825 288.821 85.7831C288.05 87.877 285.904 89.1211 283.705 88.7444C284.038 91.5655 286.491 93.2652 287.06 95.876C290.652 92.5117 294.805 89.8045 299.326 87.8683C301.884 86.6767 304.513 85.6604 307.211 84.8194C308.333 84.5039 309.095 83.4701 309.077 82.3049C309.007 78.888 309.682 75.4886 309.331 71.7914C308.517 74.1745 308.517 76.5488 307.658 78.6953C307.57 79.0194 307.465 79.3436 307.343 79.6502C307.08 80.1233 306.826 80.9381 306.134 80.43C305.608 80.0445 304.381 80.1847 304.854 78.7215C305.538 76.54 306.081 74.3146 306.484 72.063C306.992 69.4872 305.818 67.4634 303.943 65.8776C302.988 65.1679 302.34 64.1253 302.121 62.9513C300.369 63.8975 300.369 63.9939 300.964 66.4558C301.402 67.7174 301.692 69.0141 301.841 70.3283C301.972 71.6863 300.973 72.8866 299.624 73.018C299.484 73.0267 299.352 73.0355 299.212 73.018C297.004 72.9566 296.584 72.2557 297.364 69.8289C297.933 68.0766 297.837 66.1492 298.634 64.4407C298.888 63.8975 298.248 63.6172 298.117 63.2142C298.178 62.9513 298.362 62.8462 298.546 62.89C300.299 63.293 301.481 62.2592 302.524 61.2078C303.882 59.8849 304.618 58.045 304.548 56.1438C304.548 55.3816 304.548 54.6194 304.451 53.8572C304.451 52.9022 303.768 52.0786 302.831 51.8947C301.779 51.6231 300.658 52.0261 300.027 52.911C298.879 54.3215 298.949 55.9774 298.345 57.5106C297.53 55.9511 298.029 54.5318 298.844 53.13V52.7795L298.555 52.911C297.223 52.8759 295.883 53.0424 294.604 53.4191C291.861 53.9448 289.163 54.6895 286.465 55.3378C286.526 56.2139 287.06 56.9849 287.866 57.3354C288.304 57.6157 288.664 57.9837 288.41 58.5181C288.156 59.0526 287.805 58.7196 287.428 58.5795C286.78 58.3429 286.649 58.7897 286.552 59.3329C286.438 60.1302 286.14 60.8924 285.676 61.5495C284.563 62.9163 283.328 64.1779 281.479 63.6785C279.473 63.1704 277.852 61.9876 277.449 59.736C277.265 59.0088 276.757 58.4042 276.074 58.0888C275.452 57.6595 274.602 57.8172 274.173 58.4393C274.05 58.6145 273.98 58.8073 273.945 59.0088C273.568 60.2704 273.253 61.5495 272.841 62.8024C272.473 63.9151 272.341 64.8876 273.445 65.7286C273.726 65.9389 274.392 66.4646 273.743 67.0341C273.586 67.1742 273.454 67.2268 273.323 67.2268C273.034 67.2268 272.797 66.9552 272.508 66.7625C271.684 66.3682 271.176 65.5271 271.194 64.616C271.386 63.3281 270.764 63.0477 269.818 62.7849C268.995 62.5921 268.39 61.8825 268.329 61.0326C268.145 59.5958 267.032 58.4042 267.453 56.8009C267.952 54.7508 269.328 53.9535 271.606 54.1726C271.097 53.7608 270.852 53.314 270.756 52.8671C270.563 51.9998 270.905 51.1149 270.983 50.379C271.15 47.5578 271.903 44.7893 273.183 42.2573C273.27 42.047 273.367 41.828 273.489 41.6265C273.971 41.022 274.707 40.3912 273.787 39.6727C272.867 38.9543 272.035 39.48 271.316 39.9619C270.256 40.7241 269.547 41.8718 269.328 43.1509C268.846 45.6041 268.057 48.1098 269.109 50.6506C269.406 51.3777 270.064 51.8246 270.318 52.543C270.361 52.6744 270.537 52.7971 270.537 52.9285C270.537 52.9898 270.493 53.0511 270.388 53.1212C270.221 53.2264 270.029 53.2614 269.836 53.2264C268.092 52.7533 266.787 51.3076 266.48 49.5204C265.981 47.1285 266.016 44.6491 266.577 42.2661C267.374 39.0857 268.968 36.1332 272.061 34.6087C273.331 33.9779 274.996 33.4961 276.319 34.9767C276.88 35.5988 277.37 35.1169 277.721 34.6263C278.991 32.874 280.849 31.884 282.697 30.929C286.202 29.1242 290.057 28.3795 293.842 27.5384C295.576 27.223 297.337 27.0303 299.098 26.9602C300.08 26.8901 300.272 26.3732 300.456 25.7249C300.929 23.666 302.778 22.2028 304.898 22.2204H305.038L305.065 23.079H304.942C303.093 23.1403 301.543 24.5071 301.271 26.3381C301.148 27.0128 301.35 26.9952 301.876 27.0566C304.618 27.223 307.29 28.0028 309.691 29.352C310.313 29.7988 310.961 30.2106 311.627 30.5786C311.644 30.5873 311.671 30.5961 311.688 30.6049C312.739 30.9991 313.546 31.849 313.861 32.9266C314.036 33.6625 314.176 34.4072 314.281 35.1519C314.588 37.3423 315.385 39.4712 314.781 41.7579C314.509 42.6428 314.606 43.589 315.07 44.3863C315.254 44.6666 315.482 45.0521 315.85 44.7104C316.726 43.9044 317.812 43.3525 317.681 41.7754C317.497 39.5413 317.637 37.2722 317.637 35.0205C318.872 36.9743 320.406 38.709 322.184 40.1809V40.1458C322.657 38.2359 321.983 36.6414 320.511 35.0468L321.089 34.4949C321.299 34.7139 321.501 34.9329 321.711 35.1519C323.463 36.9042 323.463 38.9631 322.789 41.0395C322.543 41.8455 322.675 42.7041 323.139 43.3963C324.182 45.6304 324.357 48.101 325.119 50.4052C325.995 53.1037 326.074 55.9511 326.661 58.6934C327.274 62.1628 327.555 65.6848 327.485 69.2068C327.546 72.65 327.073 76.0756 326.915 79.5188C326.81 81.7354 326.871 81.5689 329.053 82.1472C332.443 82.9445 335.221 85.3713 336.465 88.613C336.596 88.9284 336.78 89.016 336.982 89.1912C340.46 92.3365 343.465 95.9724 345.901 99.9763C348.056 103.481 349.405 107.301 350.754 111.129C352.402 115.764 353.523 120.574 354.093 125.454C354.39 127.855 354.776 130.238 355.039 132.638C355.153 133.637 355.643 134.557 356.414 135.196C357.571 136.064 358.377 137.299 358.701 138.701C358.876 139.796 359.349 139.446 359.875 139.113C362.407 137.501 363.966 135.039 365.473 132.559C367.401 129.396 369.276 126.225 371.922 123.553C372.719 122.747 373.472 121.914 374.331 121.152C375.908 119.768 377.835 119.304 379.745 118.892C379.789 118.883 379.842 118.883 379.886 118.892C382.277 119.768 382.742 117.63 383.758 116.386C385.51 114.231 385.431 111.489 386.089 108.992C387.105 105.075 389.225 101.877 392.843 100.09C395.761 98.6446 398.617 97.2165 400.93 94.9035C402.2 93.4667 404.329 93.1688 405.959 94.1851C406.563 94.4918 406.888 94.5531 407.396 93.7996C408.508 92.17 409.095 90.2426 410.462 88.7531C411.373 87.6667 412.407 86.668 413.529 85.7919C414.072 85.4064 415.062 85.3538 414.843 84.2499C414.738 83.216 414.168 82.2786 413.292 81.7091C411.89 80.833 410.305 80.3248 409.183 78.923C407.212 76.4611 407.702 71.6337 410.743 69.6712C412.775 68.2168 415.482 68.0942 417.646 69.3558C418.155 69.6011 418.742 69.6799 419.25 69.9253C419.977 70.2932 420.783 70.8014 420.257 71.7388C419.846 72.4835 419.6 73.5524 418.155 73.1319C417.278 72.8778 416.49 72.4573 415.658 72.1331C414.177 71.4147 412.381 71.9053 411.487 73.2896C410.839 74.5074 411.04 75.988 411.978 76.9868C412.363 77.5738 412.942 77.9944 413.616 78.1696C415.956 78.6953 417.498 80.1409 417.69 82.5502C417.787 83.7768 418.032 84.3024 419.443 84.4514C422.483 84.6967 424.515 86.8958 426.837 88.5604C428.668 89.8746 430.035 91.6969 431.971 92.941C433.907 94.1851 435.852 94.5356 437.797 95.3241C438.507 95.6132 439.366 95.7709 440.049 96.1126C441.801 96.9887 443.816 96.9887 445.507 97.786C447.566 98.7322 449.66 97.7159 451.701 98.4869C452.709 98.8724 453.69 99.3017 454.654 99.7835C457.554 101.247 460.533 102.57 463.371 104.164C464.633 104.707 465.947 105.11 467.296 105.364C469.171 105.855 470.591 107.406 470.906 109.316C471.143 110.463 471.782 111.453 472.168 112.592C472.939 115.063 472.755 117.595 473.175 120.075C473.412 121.485 473.911 122.817 474.148 124.236C474.516 126.426 474.367 128.617 474.603 130.825C475.059 135.039 475.243 139.279 476.031 143.467C476.312 144.965 476.031 146.516 476.382 148.04C476.899 150.134 476.645 152.307 476.907 154.445C477.17 156.583 476.864 158.896 477.039 161.095C477.197 162.987 477.039 164.906 477.547 166.772C477.582 166.965 477.582 167.166 477.547 167.35C477.091 170.758 477.468 174.175 477.643 177.566C477.827 181.202 477.713 184.846 478.038 188.491C478.414 192.758 478.134 197.086 478.134 201.387C478.134 205.129 478.02 208.878 478.134 212.611C478.265 216.001 478.511 219.392 478.335 222.774C478.195 225.446 478.677 228.1 478.414 230.773C478.23 232.569 479.115 234.277 478.765 236.152C478.721 236.739 478.984 237.3 479.457 237.633C480.631 238.439 480.701 239.709 480.71 240.953V256.329C480.841 258.791 480.841 261.244 480.71 263.697C480.517 264.959 480.219 266.194 479.834 267.395C479.185 269.804 477.1 269.602 475.339 269.769C473.228 270.102 471.169 270.689 469.206 271.521C467.358 272.178 465.518 272.923 463.441 272.152C462.285 271.828 461.435 270.838 461.269 269.646C461.137 268.604 460.585 268.551 459.902 268.7C454.645 269.865 449.45 268.989 444.219 268.446C441.792 268.183 439.33 268.244 436.921 268.63C433.662 269.182 430.385 269.629 427.187 270.443C423.771 271.32 420.415 272.415 416.946 273.072C413.476 273.729 410.313 274.956 406.818 274.447C404.995 274.237 403.243 273.58 401.727 272.546C400.527 271.591 399.966 270.049 400.273 268.542C400.352 267.763 400.159 267.473 399.292 267.473C396.69 267.412 394.088 267.754 391.591 268.49C390.224 268.875 388.822 269.094 387.403 269.156C384.021 269.427 380.621 269.76 377.231 269.769C374.331 269.813 371.939 267.5 371.895 264.591V259.597C371.895 259.089 371.816 258.87 371.212 258.8C368.654 258.511 366.358 257.083 364.956 254.919C364.247 253.78 363.94 252.439 364.08 251.099C364.317 246.289 363.581 241.549 363.125 236.8C362.784 233.673 362.898 230.519 363.476 227.417C363.695 226.471 364.299 225.656 365.14 225.165C365.754 224.771 365.745 224.289 365.806 223.755C366.201 219.69 365.806 215.616 365.806 211.551C365.78 210.508 365.57 209.483 365.184 208.51C364.685 206.802 364.387 205.041 364.308 203.254C364.089 201.51 364.01 199.758 364.054 197.997C362.862 199.232 361.601 200.406 360.278 201.501C357.79 203.385 354.89 204.638 351.815 205.155C349.677 205.54 347.504 205.532 345.393 205.137C343.605 204.804 341.871 204.2 340.241 203.332C336.544 201.475 333.442 198.61 331.313 195.053C328.992 191.286 327.353 187.133 326.468 182.787C326.065 180.842 326.311 178.854 326.293 176.882C326.398 172.23 326.065 167.578 325.294 162.978C324.471 159.299 324.374 155.496 325.005 151.773C325.636 148.417 326.302 145.053 327.213 141.785C328.002 138.561 329.263 135.459 330.945 132.586C331.664 131.438 332.295 130.22 333.031 129.081C334.897 126.146 337.735 124.49 340.688 123.053C341.906 122.335 343.281 121.923 344.7 121.844C345.489 121.844 345.533 121.546 345.463 120.889C345.287 119.137 345.209 117.455 345.086 115.738C345.209 115.379 345.147 114.984 344.919 114.669C344.438 107.599 342.528 100.695 339.295 94.3779C337.35 90.3915 334.038 88.797 329.596 88.8583C324.961 88.9459 320.335 89.2963 315.736 89.9096C310.689 90.4879 305.774 91.9072 301.192 94.0975C300.132 94.7546 299.142 95.5081 298.222 96.3404C297.898 96.5857 297.548 97.2165 297.162 96.7346C296.777 96.2528 297.302 95.9198 297.609 95.5431C299.054 93.7208 301.113 92.7658 303.12 91.8721C304.968 91.0486 306.983 90.6105 308.885 89.8921C309.366 89.7081 309.857 89.6117 310.348 89.5679C311.224 89.4716 312.117 89.5241 312.976 89.4716C315.666 89.3051 318.18 88.3063 320.8 88.0785C324.304 87.7631 327.809 87.2024 331.401 87.8507C332.566 87.9559 333.74 87.9559 334.905 87.8507C333.223 85.8795 331.699 83.9082 329.202 83.3212C327.336 82.7605 325.382 82.5064 323.428 82.5852C322.105 82.5852 320.844 83.1109 319.924 84.0571C319.109 84.8194 318.128 85.3538 317.05 85.6254C314.702 86.3964 312.556 87.6405 310.19 88.2538C309.848 88.3414 309.515 88.4115 309.165 88.4728C308.841 88.5254 308.595 88.6392 308.289 88.4728C307.982 88.3063 308.052 87.9559 308.131 87.5967C308.552 85.8444 308.508 85.8444 306.791 86.3526C301.569 87.8683 296.636 90.2426 292.186 93.3615C290.617 94.4304 288.891 95.4029 287.805 97.1026C287.385 97.7685 286.929 97.418 286.57 96.9186C285.597 95.5694 285.01 93.9924 284.038 92.6256C283.617 92.0386 283.442 91.2939 282.767 90.8734C282.093 90.4528 282.443 89.787 282.487 89.2525C282.575 88.1399 282.119 87.8157 281.059 87.8595C280.34 87.8945 279.622 88.0084 278.93 88.1924C278.299 88.3063 277.87 88.9021 277.975 89.5417C277.984 89.5679 277.984 89.5942 277.992 89.6205C278.36 91.3728 279.28 92.9673 279.324 94.8334C279.324 95.7096 280.2 95.9812 280.927 96.2966C284.73 98.1189 288.751 99.4594 292.887 100.274C294.884 100.677 296.838 101.264 298.722 102.026C301.28 103.016 302.226 105.443 303.242 107.642C304.18 109.684 305.161 111.804 305.222 114.108C305.31 117.236 306.169 120.241 306.37 123.36C306.519 125.726 307.29 128.065 307.369 130.43C307.483 133.979 308.841 137.255 309.279 140.734C309.577 143.134 309.769 145.561 310.269 147.953C310.505 149.67 310.602 151.396 310.575 153.122C310.97 158.633 311.636 164.108 312.582 169.54C313.178 173.395 313.546 177.312 314.211 181.158C314.536 183.664 315.017 186.134 315.666 188.57C316.402 191.347 316.971 194.168 317.365 197.007C318.075 200.897 318.969 204.752 319.819 208.616C320.668 212.479 321.422 216.641 322.289 220.645C322.92 223.527 323.717 226.401 323.647 229.406C323.577 232.411 323.218 235.162 323.235 238.036V240.76C322.832 245.754 322.316 250.713 321.693 255.655C320.922 260.543 319.854 265.371 318.478 270.119C318.049 271.784 316.726 272.897 315.368 273.808C314.448 274.369 314.019 275.481 314.325 276.515C314.606 277.742 314.737 278.986 314.72 280.239C314.509 282.403 312.985 284.216 310.891 284.794C308.797 285.539 306.729 286.406 304.557 286.958C301.201 287.835 297.898 287.519 294.534 286.958C291.678 286.634 288.944 285.627 286.552 284.023C286.535 283.839 286.465 283.743 286.263 283.796C284.511 282.236 282.461 280.904 282.645 278.127C282.662 277.934 282.513 277.759 282.312 277.733C282.005 277.68 281.988 277.961 281.909 278.188C281.611 279.117 281.287 280.037 280.971 280.957C280.814 281.036 280.743 281.22 280.814 281.378C280.822 281.395 280.831 281.413 280.84 281.421C280.165 284.374 279.009 287.204 278.974 290.305C278.974 291.628 277.327 292.977 275.592 293.31C270.966 294.274 266.287 294.914 261.574 295.212C259.848 295.15 258.113 295.176 256.387 295.29C255.511 294.94 254.53 294.914 253.636 295.229L256.352 295.693C257.325 296.377 258.472 296.753 259.655 296.771C260.768 296.937 261.863 297.174 262.949 297.472C266.98 298.628 271.089 299.478 275.241 300.03C280.884 300.722 286.5 301.581 292.089 302.659C297.679 303.736 303.181 304.831 308.788 305.48C311.119 305.734 313.458 305.795 315.797 305.672C319.932 305.506 324.068 305.821 328.124 306.601C328.921 306.75 329.745 306.794 330.525 306.987C331.646 307.267 332.995 307.057 333.565 308.572C333.74 309.037 334.318 308.66 334.634 308.353C335.484 307.372 336.009 306.146 336.123 304.849C336.71 301.826 336.999 298.716 337.656 295.728C338.366 292.478 338.848 289.193 339.54 285.951C339.619 285.627 339.663 285.294 339.663 284.961C339.593 280.922 340.162 276.927 340.451 272.914C340.67 269.9 340.802 266.869 341.126 263.855C341.45 260.841 341.836 257.591 342.387 254.489C343.325 249.303 344.744 244.177 345.358 238.956C345.936 233.489 345.988 227.969 345.515 222.485C345.358 220.373 345.331 218.218 345.366 216.063C345.419 213.04 345.147 210 345.174 206.951C346.05 207.082 346.269 207.468 346.391 208.379C346.873 212.041 346.716 215.747 347.18 219.401C347.416 220.715 347.487 222.055 347.39 223.378C346.628 228.635 347.057 233.962 346.33 239.21C345.804 242.96 345.244 246.701 344.429 250.407C343.702 253.727 343.299 257.118 342.79 260.491C342.344 263.408 342.133 266.352 341.827 269.252C341.608 271.346 341.538 273.484 341.406 275.613C341.205 279.021 341.161 282.446 340.775 285.828C340.443 288.737 339.715 291.593 339.198 294.484C338.743 297.043 338.322 299.61 337.937 302.185C337.674 304.384 337.052 306.522 336.079 308.511C335.282 310.088 333.451 310.263 331.979 310.912C331.392 311.245 330.709 311.367 330.043 311.271C329.876 310.587 330.341 310.342 330.831 310.106L332.873 309.116C331.997 308.441 330.893 307.889 330.166 308.301C329.438 308.713 329.859 310.053 329.876 310.973V311.262C329.614 314.171 329 317.053 329.395 320.023C329.473 320.584 328.974 321.145 328.518 320.794C327.327 319.839 325.995 320.277 324.777 320.269C314.728 320.216 304.67 320.207 294.621 320.269C291.993 320.269 289.365 320.023 286.824 320.269C283.687 320.593 280.524 320.085 277.414 320.75C276.854 320.873 276.959 320.444 276.915 320.128C276.608 317.5 275.846 315.003 275.969 312.313C276.056 310.333 275.574 308.336 275.303 305.935C274.102 307.372 273.086 308.616 272.026 309.825C269.696 312.454 268.373 315.809 266.103 318.534C265.359 319.41 265 320.654 263.808 321.162C263.44 321.329 263.063 321.688 263.186 320.777C263.256 320.225 262.503 320.488 262.135 320.488C256.913 320.461 251.691 320.461 246.478 320.488H227.204C221.351 320.531 215.507 320.733 209.681 320.715C208.323 320.715 206.965 320.715 205.607 320.768C205.301 320.768 204.88 320.523 204.731 320.961C204.459 321.662 203.916 321.232 203.504 321.329C203.662 320.891 203.259 320.453 203.504 320.023C204.03 318.928 204.538 317.833 204.994 316.712C206.08 314.083 207.027 311.367 208.236 308.826C210.067 304.936 211.67 300.941 213.177 296.937C213.536 295.982 213.457 295.746 212.45 295.842C210.846 295.991 209.287 295.842 208.017 294.695C206.466 293.24 204.512 293.608 202.76 293.915C198.099 294.896 193.28 294.896 188.61 293.915C187.603 293.766 186.622 293.459 185.702 293.021C184.65 292.583 184.151 291.374 184.589 290.323C184.598 290.288 184.615 290.253 184.633 290.218C185.842 287.265 186.858 284.242 187.69 281.158C188.155 279.178 188.374 277.137 188.742 275.131C188.786 274.106 189.303 273.151 190.152 272.564C190.503 272.362 190.485 272.012 190.477 271.688C190.415 267.754 190.853 263.802 190.967 259.913C191.107 255.155 191.843 250.459 192.045 245.711C192.22 241.558 192.387 237.405 192.553 233.243C192.693 229.826 193.298 226.427 193.666 223.019C193.885 221.004 194.086 218.989 194.235 216.965C194.524 212.847 195.111 208.764 195.304 204.629C195.435 201.44 196.18 198.312 196.329 195.106C196.566 192.67 196.934 190.243 197.424 187.843C197.748 185.679 198.02 183.462 198.3 181.333C198.852 177.18 198.817 172.984 199.422 168.831C199.763 166.483 199.676 164.073 200.035 161.717C200.596 158.054 201.288 154.401 201.665 150.721C202.269 145 203.575 139.376 205.572 133.97C206.632 131.044 208.91 129.055 211.363 127.276C212.476 126.47 213.606 125.682 214.736 124.911C218.951 122.02 223.235 119.251 227.134 115.939C228.43 114.748 229.394 113.241 229.928 111.559C230.594 109.684 231.681 108.054 232.425 106.188C232.881 104.979 232.425 104.602 231.637 103.945C231.015 105.513 230.437 106.977 229.885 108.44C229.464 109.64 228.895 110.779 228.185 111.83C227.484 112.619 227.09 113.626 227.055 114.678C227.055 115.23 226.599 115.326 226.179 115.466C225.995 115.527 225.811 115.676 225.697 115.422C225.592 115.063 225.644 114.678 225.846 114.362C227.3 110.753 229.639 107.528 230.515 103.674C230.629 103.314 230.84 102.999 231.129 102.745C231.654 102.245 231.821 101.466 231.532 100.791C229.876 103.051 228.474 105.496 227.361 108.063C226.625 109.973 225.609 111.743 224.987 113.714C224.847 114.064 224.479 114.266 224.111 114.187C221.483 113.845 220.422 115.869 219.161 117.525C217.619 119.558 216.138 121.643 214.649 123.71C214.526 123.886 214.421 124.131 214.272 124.236C214.158 124.324 214.027 124.332 213.825 124.201C213.352 123.886 213.904 123.588 213.983 123.325C214.649 121.704 215.534 120.18 216.611 118.787C217.899 116.85 219.152 114.827 221.185 113.469C221.588 113.162 222.061 112.952 222.56 112.864C223.944 112.811 224.269 111.821 224.707 110.831C226.24 107.327 227.712 103.822 229.963 100.756C230.787 99.731 231.856 98.9249 233.065 98.3993C234.248 97.821 235.019 96.4017 235.965 95.3504C237.717 93.4404 239.189 91.2589 241.397 89.9096C242.842 89.0686 244.165 88.0347 245.331 86.8257C246.321 85.9496 247.661 85.5816 248.958 85.8181C250.71 86.0459 251.586 85.2136 252.313 83.8118C253.654 81.3061 255.397 79.2034 258.446 78.8354C258.823 78.7916 258.911 78.6339 258.937 78.301C259.103 75.8654 259.138 73.4998 256.992 71.7301C256.089 70.9153 254.784 70.705 253.671 71.2132Z" fill="#433F40" style="fill:#433F40;fill:color(display-p3 0.2627 0.2471 0.2510);fill-opacity:1;"/>
<path d="M147.082 320.899C146.854 321.267 147.082 321.522 147.082 321.776C147.082 322.293 146.96 322.844 146.46 322.932C145.961 323.02 145.777 322.292 145.794 322.056C145.794 321.18 145.348 321.18 144.717 321.18C141.913 321.18 139.11 321.127 136.297 321.127C132.67 321.127 129.043 321.18 125.407 321.18H75.8009C74.4779 321.18 73.1725 321.294 71.8408 321.18C71.1049 321.118 70.9647 320.645 71.0523 320.304C71.7182 315.345 70.2726 310.552 69.9396 305.681C69.6593 301.651 69.0197 297.647 68.5291 293.626C68.4765 293.17 68.3451 292.75 68.2224 292.145C67.8019 292.583 67.4952 293.126 67.3463 293.713C66.8995 295.422 66.2774 297.078 65.4889 298.655C64.7179 300.267 64.35 302.159 63.6753 303.833C61.8092 308.59 59.9869 313.374 58.2259 318.175C57.9367 318.762 57.8053 319.41 57.8491 320.058C57.963 320.777 57.4636 321.46 56.7452 321.565C56.5525 321.592 56.3597 321.583 56.1757 321.53C55.2996 321.39 54.1519 321.005 53.3196 321.942C53.2582 322.012 53.048 321.995 52.9341 321.942C50.8314 321.53 48.6936 321.338 46.5559 321.364C44.3393 321.478 42.114 321.425 39.8886 321.443C39.5907 321.443 39.3279 321.259 39.2228 320.987C39.1351 320.777 39.2403 320.549 39.4418 320.461C39.4768 320.444 39.5119 320.435 39.5469 320.435C41.8248 320.383 41.6146 318.315 41.9913 317.062C42.8674 314.074 44.1904 311.271 45.233 308.353C46.3982 305.085 48.0453 302.019 48.8163 298.585C49.1843 296.938 50.1918 295.439 50.7701 293.819C52.1543 289.929 53.9066 286.179 55.2032 282.245C57.3147 275.805 60.1446 269.62 62.5013 263.268C62.8606 262.261 63.2723 261.271 63.7454 260.307C64.569 258.642 64.8494 256.767 64.5339 254.936C64.0959 252.019 63.9031 249.066 63.5527 246.175C63.2022 243.284 62.7992 240.34 62.4488 237.414C62.2122 235.434 62.002 233.454 61.8267 231.465C61.4763 227.575 61.2923 223.685 60.7053 219.812C60.2322 216.728 60.2322 213.574 59.7503 210.499C59.3736 208.072 59.3035 205.593 58.7077 203.192C58.5413 202.281 58.4887 201.353 58.5676 200.433C58.6902 196.473 57.7528 192.635 57.4111 188.736C57.1044 185.144 56.5349 181.587 56.0706 178.013C55.6501 174.937 55.8428 171.766 55.3785 168.699C54.844 165.195 54.5724 161.629 54.0555 158.107C53.5912 155.794 53.2933 153.455 53.1794 151.098C53.1794 145.999 52.1719 141.04 51.7075 136.02C51.4009 132.7 50.919 129.405 50.7175 126.067C50.4634 121.766 49.745 117.49 49.377 113.188C49.1405 110.464 48.8513 107.748 48.5009 105.032C48.0804 102.526 49.0529 99.9851 51.0329 98.3993C53.7051 96.1564 56.5087 94.08 59.4262 92.1701C61.3186 90.891 63.6403 90.9523 65.8657 90.9786C68.6517 90.9786 71.4641 90.8471 74.2326 91.1187C76.4054 91.329 78.5607 91.1976 80.7247 91.2677C82.8887 91.3378 85.1053 91.4517 87.2606 91.4166C89.7926 91.4166 92.3158 91.4166 94.8566 91.6006C97.3973 91.7846 99.903 91.6006 102.426 91.6444C105.72 91.6444 109.015 91.7145 112.309 91.6882C114.438 91.548 116.567 91.5831 118.687 91.7934C122.419 92.4242 126.257 93.4843 128.377 97.1815C129.586 99.2842 129.866 101.702 130.304 104.068C131.093 108.396 130.979 112.829 131.627 117.148C132.092 120.276 132.337 123.474 132.661 126.646C133.029 130.273 133.292 133.917 134.01 137.509C134.212 138.342 134.317 139.2 134.326 140.059C134.221 143.09 135.044 146.008 135.298 148.995C135.614 152.64 136.227 156.267 136.569 159.903C137.059 165.16 137.83 170.373 138.4 175.612C138.829 179.546 139.136 183.497 139.583 187.422C140.1 191.952 140.941 196.455 141.221 200.993C141.422 204.139 142.036 207.223 142.229 210.368C142.448 213.96 143.105 217.526 143.543 221.109C143.797 223.194 144.007 225.288 144.191 227.382C144.471 230.562 144.813 233.725 145.304 236.879C145.61 238.851 145.724 240.857 145.935 242.837C146.311 246.289 146.714 249.741 147.091 253.193C147.485 256.802 147.809 260.412 148.265 264.013C148.878 268.823 149.281 273.65 149.895 278.478C150.289 281.597 150.613 284.751 150.937 287.887C151.069 289.201 150.858 290.594 151.577 291.917C151.848 292.627 151.98 293.38 151.945 294.134C151.945 297.463 152.611 300.714 152.987 303.982C153.504 308.415 153.653 312.909 154.608 317.299C154.643 317.64 154.643 317.973 154.608 318.315C154.608 321.075 154.1 321.522 151.314 321.119C150.99 321.04 150.666 320.987 150.333 320.952C149.351 320.891 148.204 320.899 147.082 320.899ZM65.778 254.542C67.0659 251.23 68.4064 247.91 69.6593 244.563C70.8158 241.505 72.3752 238.588 73.3915 235.521C74.8722 231.018 76.5456 226.602 78.1839 222.16C80.2954 216.431 82.6084 210.771 84.8425 205.076C86.3056 201.344 87.7687 197.611 89.2231 193.888C89.4246 193.389 89.6874 192.942 90.3883 193.301C90.7037 193.424 91.0367 193.476 91.3696 193.467C94.6375 193.678 97.9055 193.905 101.173 194.081C101.892 194.081 102.234 194.317 102.225 195.088C102.163 198.47 102.418 201.747 100.946 205.111C98.2209 211.323 96.2146 217.832 93.7789 224.167C92.5173 227.443 91.0454 230.668 89.9152 233.971C88.9865 236.687 87.8651 239.324 86.8926 242.022C85.044 247.112 82.8449 252.089 81.154 257.232C79.4631 262.374 77.3429 267.263 75.6519 272.362C74.145 276.883 72.1475 281.246 70.4565 285.706C69.8871 287.195 69.1161 288.649 69.4052 290.384C69.7381 292.417 69.8257 294.493 70.1324 296.517C70.6756 300.109 70.9384 303.727 71.429 307.328C72.0336 311.122 72.3314 314.959 72.3052 318.806C72.3052 319.638 72.603 320.076 73.5931 320.076C83.5546 320.023 93.5161 320.076 103.478 319.997C108.095 319.997 112.721 319.778 117.338 319.743C122.884 319.699 128.438 319.743 133.984 319.743H144.699C145.47 319.743 145.935 319.743 145.645 318.613C145.234 316.843 145.006 315.038 144.971 313.225C144.901 310.719 144.366 308.283 144.191 305.795C143.99 302.93 143.569 300.083 143.183 297.235C142.886 295.001 142.851 292.732 142.5 290.524C142.062 287.738 141.808 284.935 141.519 282.149C141.203 279.117 140.783 276.095 140.485 273.063C139.942 267.596 139.118 262.155 138.619 256.68C138.181 251.87 137.349 247.104 137.051 242.276C137.086 241.461 136.989 240.655 136.762 239.876C136.315 238.859 136.875 237.747 136.437 236.923C135.833 235.775 136.192 234.584 135.999 233.419C135.763 232.008 135.736 230.431 135.535 228.994C135.141 226.226 134.895 223.448 134.571 220.68C134.151 217.079 133.774 213.469 133.345 209.868C132.714 204.568 132.179 199.25 131.592 193.941C131.268 191.023 130.962 188.097 130.672 185.179C130.217 180.483 129.525 175.814 128.999 171.161C128.614 167.771 128.316 164.363 127.86 160.998C127.44 157.879 127.063 154.752 126.73 151.633C126.178 146.516 125.547 141.417 124.978 136.309C124.268 130.343 123.646 124.376 122.998 118.401C122.568 114.45 121.885 110.516 121.718 106.521C121.657 105.338 121.315 104.19 120.72 103.165C119.651 101.466 117.916 100.301 115.936 99.9501C114.867 99.547 113.728 99.3543 112.589 99.3718C110.145 99.6522 107.683 99.6522 105.239 99.3718C103.898 99.2579 102.558 99.2404 101.217 99.3105C98.1157 99.3893 94.9967 99.3893 91.9215 99.2229C89.2932 99.0915 86.6648 99.1791 84.0364 98.9338C81.6972 98.7235 79.2791 98.8374 76.9048 98.8199H71.8058C69.852 98.8199 67.8983 98.7322 65.9533 98.706C64.4814 98.706 62.9657 98.6096 61.485 98.5921C58.7953 98.5483 56.0794 98.0664 53.3984 99.0564C52.4347 99.328 51.5673 99.8625 50.8927 100.607C49.5084 102.263 49.9027 104.112 50.113 105.916C50.6124 110.245 51.1556 114.564 51.2519 118.927C51.2957 120.127 51.4096 121.319 51.5761 122.51C51.9265 125.296 52.3558 128.074 52.68 130.86C53.0305 133.847 53.2758 136.852 53.5561 139.849C54.0205 144.229 54.2658 148.61 54.9579 152.912C55.3697 155.251 55.6413 157.608 55.7902 159.973C55.8691 161.725 56.3685 163.416 56.3597 165.23C56.2546 166.667 56.2984 168.121 56.4911 169.549C57.1833 172.914 57.3673 176.339 57.8579 179.73C58.2784 182.665 58.3485 185.661 58.8041 188.587C59.3911 192.328 59.3561 196.113 59.8993 199.854C60.2672 202.413 60.4863 204.988 60.7754 207.564C61.1609 210.929 61.4763 214.302 61.9669 217.648C62.2385 219.471 62.0808 221.293 62.2736 223.098C62.589 226.138 63.027 229.161 63.3862 232.192C63.7104 234.943 64.0083 237.694 64.2624 240.454C64.6566 244.212 65.4188 247.927 65.3838 251.73C65.2611 252.685 65.3925 253.657 65.7868 254.542H65.778ZM54.2132 97.2253C55.4223 97.4356 56.2984 97.0501 56.9467 97.2253C59.3385 97.8036 61.7304 97.1114 64.1222 97.5232C65.1472 97.7072 66.1898 97.751 67.2236 97.6371C69.7556 97.3042 72.2526 97.7598 74.7758 97.7159C78.0876 97.6546 81.4081 97.567 84.7023 97.8123C86.0953 97.9175 87.4796 97.7247 88.8814 97.935C91.0367 98.1891 93.2094 98.2591 95.3822 98.1365C97.0644 98.0927 98.7553 98.1365 100.446 98.0752C102.558 97.9875 104.687 98.2942 106.807 98.3029C109.847 98.3029 112.94 98.0489 115.91 98.6534C117.066 98.8023 118.179 99.1878 119.178 99.8011C121.272 101.334 122.63 103.656 122.936 106.232C123.278 108.571 123.208 110.928 123.541 113.241C124.198 117.77 124.513 122.344 125.17 126.873C125.617 129.949 125.635 133.094 126.134 136.16C126.87 140.69 127.124 145.263 127.79 149.793C128.105 151.957 128.167 154.173 128.5 156.32C128.955 159.246 129.104 162.199 129.534 165.081C129.963 167.963 130.164 170.767 130.488 173.606C130.839 176.637 131.224 179.668 131.584 182.709C131.96 185.889 132.337 189.078 132.705 192.258C133.012 194.887 133.327 197.576 133.581 200.24C133.897 203.192 134.168 206.154 134.457 209.106C134.808 212.322 135.22 215.528 135.579 218.744C135.894 221.547 136.297 224.333 136.516 227.154C136.762 230.291 137.261 233.401 137.611 236.529C137.944 239.473 138.19 242.425 138.487 245.36C138.926 249.198 139.451 253.035 139.889 256.872C140.327 260.71 140.652 264.302 141.055 268.017C141.414 271.302 141.852 274.57 142.211 277.856C142.623 281.667 142.956 285.487 143.394 289.289C143.928 293.897 144.577 298.488 145.146 303.097C145.768 308.415 146.329 313.742 146.898 319.06C146.96 319.655 147.161 319.769 147.678 319.761C149.176 319.673 150.666 319.673 152.164 319.761C153.723 319.909 153.75 319.033 153.504 318.008C152.786 315.038 152.873 311.963 152.225 308.967C151.577 305.97 151.629 303.044 151.191 300.118C150.604 296.228 150.315 292.312 149.842 288.422C149.457 285.487 149.255 282.525 148.966 279.59C148.615 276.419 148.195 273.256 147.836 270.084C147.476 266.913 147.345 263.951 146.846 260.955C146.092 256.391 145.847 251.773 145.234 247.191C144.839 244.256 144.638 241.295 144.305 238.351C143.858 234.374 143.306 230.413 142.912 226.427C142.614 223.431 142.158 220.461 141.939 217.456C141.668 213.715 141.019 210 140.581 206.259C140.248 203.359 139.968 200.459 139.705 197.55C139.372 193.967 138.829 190.418 138.487 186.835C138.093 182.603 137.524 178.381 137.051 174.149C136.464 168.892 135.693 163.732 135.097 158.519C134.501 153.306 134.063 148.181 133.397 143.02C132.863 138.815 132.32 134.601 131.899 130.378C131.461 125.918 131.023 121.468 130.436 117.017C129.753 111.813 129.332 106.574 128.631 101.369C128.473 99.109 127.291 97.0413 125.424 95.7622C123.734 94.6933 122.157 93.5193 119.905 93.5018C118.713 93.5018 117.425 93.0374 116.146 93.0374C113.632 93.0374 111.117 93.0375 108.603 92.9849C106.237 92.9323 103.872 92.7834 101.506 92.7396C98.2121 92.6782 94.9266 92.7396 91.6324 92.6607C88.6186 92.6607 85.6047 92.468 82.5908 92.4767C79.0863 92.4767 75.6344 92.4154 72.165 92.3628C69.046 92.319 65.9095 92.2752 62.7905 92.1613C62.6065 92.1701 62.4225 92.2139 62.2473 92.2927C59.3385 93.3529 57.1307 95.4906 54.2132 97.2253ZM42.0088 320.277C45.7148 320.426 49.0879 320.199 52.4697 320.05C52.899 320.076 53.2933 319.804 53.4159 319.384C54.5023 316.571 55.5712 313.75 56.6751 310.938C58.0506 307.433 59.3561 303.929 60.5301 300.328C61.634 296.973 63.0971 293.731 64.385 290.437C65.1385 288.5 65.5678 286.354 66.6892 284.663C67.8106 282.998 68.6079 281.141 69.0547 279.187C70.2025 273.931 72.5592 269.121 74.3816 264.127C75.7658 260.351 77.3429 256.645 78.7622 252.869C80.199 248.935 81.7936 245.054 83.0727 241.05C84.1679 237.633 85.8763 234.426 87.0153 231.018C88.7675 225.884 90.8877 220.934 92.7801 215.879C93.9103 212.865 95.0668 209.851 96.2146 206.846C97.5725 203.289 98.8955 199.714 100.324 196.183C100.709 195.237 100.578 195.044 99.5789 195.018C96.6877 194.939 93.7965 194.834 90.9228 194.589C90.327 194.536 90.2394 194.519 89.9941 195.071C89.188 196.884 88.8026 198.829 88.0403 200.669C85.7186 206.303 83.5458 211.997 81.338 217.666C79.7872 221.635 78.2453 225.604 76.7559 229.59C75.0649 234.111 73.4879 238.675 71.7444 243.17C70.001 247.664 68.056 252.054 66.4439 256.583C65.4539 259.361 64.4463 262.129 63.4563 264.906C61.5201 270.338 59.2334 275.648 57.0081 280.975C56.0356 283.288 55.6063 285.776 54.6513 288.08C52.899 292.355 51.1468 296.657 49.4471 300.941C48.5097 303.281 47.9665 305.734 47.0027 308.047C45.2768 312.051 43.6997 316.09 42.0088 320.277ZM100.893 198.242C100.543 198.952 100.157 199.6 99.8855 200.301C98.8955 202.93 97.958 205.558 96.968 208.125C95.2771 212.549 93.5424 216.956 91.8515 221.381C90.546 224.798 89.4334 228.302 87.9615 231.64C86.7086 234.461 85.7274 237.379 84.6147 240.244C83.3443 243.512 82.0389 246.788 80.97 250.153C79.2178 255.541 76.9749 260.754 74.9335 266.045C73.7595 269.077 72.6381 272.126 71.3677 275.113C69.7994 278.811 68.5816 282.63 67.1886 286.389C65.6817 290.454 64.1835 294.528 62.5539 298.541C61.3449 301.511 60.1183 304.525 59.1195 307.53C57.8491 311.35 56.167 314.994 54.8791 318.788C54.5812 319.664 54.4585 320.041 55.6501 320.067C56.57 320.067 56.7189 319.498 56.8679 318.99C57.3935 317.185 58.0244 315.397 58.6201 313.645C59.6101 310.903 60.7929 308.196 61.7391 305.445C63.7805 299.478 66.6279 293.827 68.2575 287.694C69.1336 284.391 70.9822 281.351 72.1212 278.11C73.8734 273.054 75.7658 268.052 77.7985 263.084C78.4555 261.77 79.0163 260.412 79.4894 259.019C80.1903 256.242 81.0927 253.517 82.1791 250.862C83.4494 247.761 84.5796 244.598 85.8062 241.479C86.8225 238.894 87.8038 236.266 88.6974 233.594C89.9941 229.774 91.685 226.085 93.0255 222.266C94.8828 217.009 97.0031 211.752 99.0357 206.495C100.148 203.911 101.769 201.414 100.893 198.242Z" fill="#433F40" style="fill:#433F40;fill:color(display-p3 0.2627 0.2471 0.2510);fill-opacity:1;"/>
<path d="M303.943 55.9081C303.987 56.9244 303.207 57.7917 302.191 57.8443C301.14 57.9144 300.912 58.37 301.043 59.2811C301.069 59.6666 301.069 60.0521 301.043 60.4376C301.043 60.8143 300.929 61.1035 300.5 61.1385C300.211 61.2086 299.913 61.1122 299.712 60.8932C299.457 60.569 299.545 60.3412 299.825 60.0171C300.561 59.211 300.071 58.2123 300.15 57.3011C300.176 56.4688 300.421 55.654 300.85 54.9356C301.28 54.2259 302.147 53.9193 302.927 54.1909C303.969 54.3748 303.426 55.5401 303.943 55.9081ZM302.795 55.9957C302.725 55.6365 302.962 54.918 302.287 55.1195C301.753 55.3386 301.332 55.7591 301.113 56.2935C300.868 56.8805 301.49 56.7667 301.84 56.7842C302.401 56.8192 302.971 56.8718 302.795 55.9957Z" fill="#433F40" style="fill:#433F40;fill:color(display-p3 0.2627 0.2471 0.2510);fill-opacity:1;"/>
<path d="M280.2 69.1719C280.612 69.3909 281.243 68.9879 281.331 69.6187C281.418 70.2495 280.866 70.3546 280.376 70.4247C279.219 70.6 278.071 70.7664 276.915 70.9504C276.573 71.003 276.197 71.0906 276.091 70.6525C275.977 70.3371 276.135 69.9954 276.451 69.8728C276.512 69.8465 276.582 69.8377 276.643 69.8377C277.87 69.6187 279.044 69.3909 280.2 69.1719Z" fill="#433F40" style="fill:#433F40;fill:color(display-p3 0.2627 0.2471 0.2510);fill-opacity:1;"/>
<path d="M414.142 147.086C414.37 147.962 413.791 148.339 413.38 148.768C412.801 149.241 412.609 150.047 412.915 150.731C413.257 151.458 414.046 151.852 414.834 151.703C415.561 151.581 416.131 151.02 416.271 150.301C416.543 149.425 416.849 148.505 415.5 148.19C415.079 148.094 415.141 147.848 415.325 147.559C415.509 147.27 415.193 146.595 415.973 146.464C417.138 146.262 418.286 145.973 419.407 145.588C420.047 145.369 420.284 145.413 420.459 146.105C421.624 150.503 422.842 154.884 424.112 159.247C425.216 163.128 426.364 167 427.459 170.882C428.099 173.124 428.493 175.42 429.281 177.628C429.465 178.136 429.378 178.504 428.598 178.732C425.032 179.608 421.484 180.615 417.944 181.605C417.252 181.798 417.068 181.824 416.77 180.939C415.964 178.661 415.272 176.349 414.694 174.001C414.124 171.039 413.056 168.253 412.416 165.327C411.636 161.726 410.383 158.23 409.376 154.682C408.885 152.93 408.561 151.178 408 149.425C407.729 148.61 408.07 148.549 408.649 148.409C410.453 147.997 412.249 147.55 414.142 147.086ZM419.74 167.929C419.986 167.982 420.73 167.78 420.897 168.665C421.063 169.55 420.415 169.629 419.924 169.9C419.583 170.04 419.25 170.198 418.926 170.373C418.172 170.925 417.103 171.057 416.735 172.126C416.507 172.625 416.7 173.221 417.173 173.501C417.585 173.79 418.12 173.501 418.155 173.256C418.339 171.696 419.749 171.635 420.713 171.083C422.351 170.058 422.851 167.894 421.817 166.256C421.79 166.221 421.773 166.185 421.747 166.142C421.501 165.896 421.133 165.818 420.809 165.949C419.364 166.291 417.927 166.65 416.49 167.018C415.991 167.149 415.307 167.202 415.474 167.946C415.64 168.691 416.394 168.542 416.928 168.481C417.752 168.411 418.505 167.85 419.74 167.929ZM412.801 158.292C412.81 158.73 412.95 159.159 413.213 159.518C413.467 160.018 413.415 160.964 414.361 160.605C415.307 160.245 414.659 159.544 414.457 159.133C414.072 158.335 414.3 158.257 415.071 158.038C416.7 157.661 418.286 157.1 419.898 156.662C420.362 156.539 420.993 156.548 420.774 155.882C420.555 155.216 419.951 155.392 419.513 155.506C417.524 156.031 415.552 156.636 413.564 157.161C413.082 157.196 412.723 157.617 412.758 158.099C412.758 158.16 412.775 158.23 412.793 158.292H412.801ZM414.554 164.424V164.775C414.527 165.432 415.044 165.984 415.701 166.01C415.701 166.01 415.71 166.01 415.719 166.01C416.551 166.01 416.245 165.362 416.087 164.836C415.859 164.057 416.56 163.96 417.024 163.89C417.927 163.732 418.812 163.461 419.653 163.084C420.012 162.9 420.187 162.681 420.073 162.296C419.994 161.963 419.661 161.77 419.329 161.849C419.311 161.849 419.285 161.857 419.267 161.866C417.725 162.418 416.052 162.462 414.484 161.989C414.194 161.892 413.879 162.041 413.774 162.331C413.651 162.62 413.686 162.97 414.019 163.058C414.817 163.312 414.764 163.864 414.545 164.442V164.424H414.554ZM421.817 161.025C421.545 161.183 421.239 161.288 421.239 161.709C421.239 162.269 421.563 162.444 422.045 162.453C422.526 162.462 422.675 162.322 422.667 161.884C422.658 161.446 422.237 161.218 421.808 161.034H421.817V161.025Z" fill="#928BC2" style="fill:#928BC2;fill:color(display-p3 0.5725 0.5451 0.7608);fill-opacity:1;"/>
<path d="M246.899 173.457C244.498 173.641 242.133 173.115 239.741 173.194C238.865 173.194 238.944 172.739 238.952 172.195C239.014 169.094 239.066 165.992 239.128 162.891C239.189 159.676 239.259 156.469 239.312 153.254C239.39 148.522 239.478 143.791 239.513 139.06C239.513 137.878 239.951 136.704 239.609 135.503C239.531 135.223 239.609 134.934 240.161 134.995C241.642 135.144 243.14 135.109 244.63 135.17C244.98 135.17 245.506 134.96 245.576 135.512C245.698 135.976 245.418 136.458 244.954 136.581C244.928 136.581 244.91 136.59 244.884 136.598C244.192 136.747 243.631 137.273 243.438 137.956C243.088 138.859 243.534 139.875 244.437 140.226C244.673 140.322 244.936 140.357 245.19 140.339C247.468 140.234 247.819 139.586 246.89 137.387C246.321 136.09 246.89 135.118 248.248 135.249C248.853 135.328 249.457 135.328 250.062 135.249C251.06 135.092 251.884 135.363 251.674 136.739C251.078 140.611 251.621 144.527 251.332 148.409C250.982 153.087 251.262 157.774 251.052 162.427C250.903 165.747 250.798 169.059 250.824 172.379C250.824 173.194 250.587 173.501 249.755 173.448C248.835 173.413 247.863 173.457 246.899 173.457ZM246.61 154.603C248.362 154.603 249.676 153.438 249.597 151.974C249.457 150.292 248.011 149.022 246.329 149.083C244.305 149.083 243.298 150.126 243.333 152.071C243.333 153.727 244.577 154.664 246.61 154.603ZM247.135 148.198C247.521 148.198 247.906 148.277 248.292 148.268C248.677 148.26 249.256 148.452 249.361 147.848C249.466 147.243 249.001 147.068 248.485 147.024C247.67 146.963 246.864 146.823 246.049 146.744C245.094 146.656 244.577 146.148 244.831 145.211C245.085 144.273 246.023 144.378 246.75 144.484C247.591 144.711 248.485 144.448 249.072 143.8C249.273 143.564 249.615 143.336 249.264 142.924C249.045 142.67 248.686 142.539 248.493 142.714C247.617 143.59 246.469 143.117 245.453 143.248C244.437 143.38 243.482 143.713 243.464 144.887C243.394 145.938 243.552 146.989 243.929 147.971C244.376 148.961 245.401 148.084 246.163 148.163C246.487 148.198 246.811 148.207 247.135 148.207V148.198ZM246.163 159.211C244.349 159.264 243.254 160.184 243.307 161.638C243.368 163.487 244.419 164.468 246.338 164.45C247.88 164.389 249.098 163.127 249.107 161.585C249.098 160.184 247.854 159.176 246.163 159.229V159.211ZM249.115 167.175C249.212 166.606 248.861 166.054 248.301 165.896C247.679 165.773 247.74 166.439 247.679 166.772C247.495 167.894 247.372 169.024 245.839 169.041C244.341 169.19 242.991 168.148 242.755 166.658C242.693 166.281 242.807 165.887 242.212 165.843C241.616 165.8 241.581 166.255 241.476 166.667C241.16 167.946 241.94 169.059 243.806 169.987C245.462 170.986 247.617 170.452 248.616 168.796C248.914 168.305 249.08 167.762 249.115 167.193V167.175ZM245.401 158.65C246.031 158.65 246.662 158.607 247.284 158.65C248.344 158.747 248.853 158.002 249.326 157.292C249.58 156.802 249.51 156.206 249.142 155.794C248.993 155.575 248.844 155.4 248.572 155.479C247.976 155.637 248.046 156.127 247.941 156.609C247.67 157.836 246.592 157.345 245.812 157.441C245.033 157.538 245.05 157.161 245.225 156.565C245.401 155.97 245.033 155.75 244.533 155.689C244.262 155.61 243.981 155.768 243.902 156.04C243.885 156.11 243.876 156.189 243.894 156.259C243.894 157.292 243.184 157.222 242.483 157.135C242.115 157.135 241.607 156.977 241.607 157.538C241.607 158.098 241.887 158.195 242.282 158.353C243.272 158.817 244.341 158.589 245.392 158.668V158.65H245.401Z" fill="#72BC7A" style="fill:#72BC7A;fill:color(display-p3 0.4471 0.7373 0.4784);fill-opacity:1;"/>
<path d="M295.673 269.831C297.696 270.427 299.624 271.312 301.402 272.459C303.637 274.045 305.783 275.701 308.035 277.322C308.911 277.935 309.787 278.513 310.663 279.074C310.961 279.258 311.145 279.495 311.014 279.74C310.882 279.985 310.225 279.863 310.137 279.801C308.508 278.987 306.957 278.023 305.503 276.928C302.778 274.483 299.641 272.547 296.233 271.224C295.129 270.795 293.754 271.356 292.632 272.714C291.02 274.685 289.592 276.787 288.357 279.013C288.068 279.53 287.297 279.626 287.332 280.406C287.332 280.625 286.824 280.59 286.587 280.406C286.123 280.073 286.228 279.661 286.543 279.284C287.437 278.102 288.252 276.866 288.997 275.578C290.039 274.045 291.169 272.591 292.387 271.198C293.237 270.295 294.437 269.805 295.673 269.831Z" fill="#433F40" style="fill:#433F40;fill:color(display-p3 0.2627 0.2471 0.2510);fill-opacity:1;"/>
<path d="M286.245 52.3946C286.245 52.8152 285.939 52.7977 285.632 52.7363C283.433 52.3246 281.251 51.9303 279.149 53.2182C278.842 53.4635 278.395 53.4109 278.15 53.1043C278.15 53.1043 278.141 53.0868 278.132 53.078C277.94 52.7188 278.29 52.5436 278.553 52.307C279.815 51.1681 284.239 50.949 285.693 51.7726C285.939 51.9215 286.202 52.0968 286.245 52.3946Z" fill="#433F40" style="fill:#433F40;fill:color(display-p3 0.2627 0.2471 0.2510);fill-opacity:1;"/>
<path d="M244.717 151.8C244.638 150.661 245.444 150.249 246.338 150.293C247.293 150.24 248.125 150.967 248.187 151.922C248.239 152.693 247.652 153.359 246.881 153.412C246.794 153.412 246.706 153.412 246.61 153.412C245.646 153.368 244.638 153.193 244.717 151.808V151.8Z" fill="#72BC7A" style="fill:#72BC7A;fill:color(display-p3 0.4471 0.7373 0.4784);fill-opacity:1;"/>
<path d="M245.909 163.127C245.225 163.18 244.63 162.663 244.577 161.98C244.577 161.918 244.577 161.848 244.577 161.787C244.63 160.911 245.269 160.411 246.251 160.385C247.232 160.359 247.863 160.911 247.836 161.647C247.81 162.383 247.206 163.11 245.909 163.127Z" fill="#72BC7A" style="fill:#72BC7A;fill:color(display-p3 0.4471 0.7373 0.4784);fill-opacity:1;"/>
</svg>
