<svg width="436" height="348" viewBox="0 0 436 348" fill="none" xmlns="http://www.w3.org/2000/svg">
<path d="M367.029 225.046C367.208 224.303 367.34 223.577 367.558 222.876C368.04 221.08 368.359 219.245 368.507 217.392C368.741 215.605 369.223 213.859 369.542 212.081C370.172 208.58 370.989 205.104 370.88 201.473C370.904 200.992 370.873 200.519 370.787 200.045C369.916 196.782 370.561 193.73 371.768 190.719C371.931 190.385 372.056 190.034 372.149 189.675C372.841 185.979 375.137 183.147 377.129 180.259C378.156 178.758 379.3 177.305 380.374 175.82C382.732 172.361 384.872 168.746 386.786 164.993C388.599 161.9 390.015 158.571 390.988 155.087C391.937 151.252 392.49 147.368 391.704 143.403C391.665 142.979 391.533 142.571 391.323 142.212C390.622 141.224 389.961 140.221 389.245 139.25C388.84 138.695 388.303 138.271 387.689 138.001C387.128 137.757 386.591 137.446 386.086 137.079C385.518 136.631 384.817 136.394 384.101 136.41C383.596 136.451 383.082 136.402 382.592 136.247C380.273 135.456 377.829 135.178 375.402 135.431C374.693 135.431 374.04 135.097 373.308 135.088C371.122 135.121 368.943 135.276 366.772 135.553C365.363 135.7 363.721 136.117 362.928 137.765C362.718 138.205 362.259 138.45 361.792 138.368C361.029 138.336 360.266 138.499 359.574 138.842C359.06 139.135 358.414 138.98 358.072 138.483C357.59 137.928 356.967 137.528 356.275 137.332C355.932 137.226 355.613 137.047 355.341 136.81C353.286 135.007 350.843 134.68 348.337 134.811C347.069 134.982 345.855 135.48 344.812 136.255C342.478 137.699 340.089 139.013 338.369 141.298C338.315 141.387 338.237 141.461 338.143 141.51C336.416 142.277 336.548 143.811 336.813 145.304C336.828 146.169 337.062 147.009 337.49 147.752C337.824 148.184 337.661 148.78 337.645 149.31C337.575 151.921 337.832 154.532 338.424 157.07C338.766 158.571 338.922 158.8 340.322 158.857C341.56 158.914 341.949 159.771 342.345 160.709C342.594 161.305 342.345 161.631 341.785 161.729C341.536 161.77 341.279 161.729 341.007 161.729C339.303 161.786 337.723 162.692 336.766 164.177C336.276 164.993 335.521 165.605 334.642 165.898C333.965 166.135 333.358 166.576 332.906 167.155C332.471 167.759 331.856 168.191 331.163 168.387C330.533 168.534 330.284 169.056 330.012 169.578C328.051 173.323 326.409 177.24 325.109 181.295C324.526 183.172 323.965 185.057 323.226 186.868C321.763 190.474 321.18 194.334 320.215 198.079C320.059 198.691 319.958 199.327 319.794 199.939C319.647 200.657 319.242 201.294 318.674 201.718C317.118 202.893 316.705 204.762 316.511 206.614C316.231 209.323 316.97 212.032 318.573 214.178C319.351 215.295 320.005 216.495 320.697 217.67C321.569 219.245 322.759 220.591 324.191 221.619C325.047 222.451 325.304 223.765 324.829 224.883C324.681 225.103 324.44 225.234 324.183 225.225H106.634C104.494 225.225 104.704 225.413 104.704 223.12V26.2582C104.704 25.2084 105.21 24.6807 106.222 24.6753H396.669C399.781 24.6753 399.345 24.5937 399.345 27.5555C399.345 43.7846 399.167 60.0218 399.4 76.2509C399.766 102.247 399.4 128.243 399.735 154.23C399.914 167.416 399.805 180.593 399.906 193.771C399.984 203.562 399.952 213.313 399.968 223.079V224.361C399.968 224.964 399.719 225.242 399.143 225.225H368.585C368.064 225.299 367.527 225.242 367.029 225.046ZM291.283 163.646C290.17 161.843 288.839 160.195 287.322 158.751C284.731 156.132 281.945 153.716 279.307 151.146C275.549 147.483 271.813 143.786 268.117 140.057C265.004 136.957 262.055 133.75 258.927 130.707C255.799 127.663 252.702 124.391 249.589 121.25C245.924 117.562 242.275 113.841 238.594 110.17C238.376 109.949 238.166 109.713 237.925 109.517C237.598 109.239 237.139 109.215 236.788 109.468C235.715 110.112 235.575 110.969 236.477 111.916C237.559 113.042 238.687 114.119 239.8 115.179C244.819 120.173 249.83 125.167 254.842 130.16C259.651 134.917 264.475 139.65 269.315 144.374C271.362 146.373 273.424 148.347 275.541 150.273C280.054 154.402 284.785 158.269 289.12 162.618C289.656 163.287 290.45 163.663 291.283 163.646ZM176.007 102.965C175.703 103.046 175.633 103.25 175.727 103.463C175.828 103.707 175.976 103.928 176.155 104.107C177.361 105.266 178.333 106.637 179.477 107.852C185.391 114.102 191.344 120.32 197.25 126.578C202.301 131.923 207.366 137.185 212.386 142.628C218.611 149.392 224.999 155.96 231.326 162.618C231.629 162.977 232.003 163.271 232.407 163.491C232.921 163.736 233.333 163.442 233.279 162.863C233.17 162.218 232.835 161.631 232.337 161.231C230.392 159.281 228.447 157.355 226.509 155.356C210.588 138.703 194.667 122.033 178.738 105.364C177.96 104.548 177.182 103.871 176.357 103.128C176.248 103.063 176.131 103.006 176.007 102.965Z" fill="#85BCE6" style="fill:#85BCE6;fill:color(display-p3 0.5216 0.7373 0.9020);fill-opacity:1;"/>
<path d="M400.373 25.8828C400.933 25.7604 401.338 26.1602 401.773 26.3887C411.267 31.4149 420.745 36.4655 430.254 41.4591C431.234 41.8181 431.841 42.8299 431.732 43.9069C431.694 103.74 431.694 163.581 431.732 223.414V224.377C431.732 224.981 431.491 225.266 430.915 225.242H402.147C401.423 225.307 401.151 224.964 401.159 224.214C401.159 222.402 401.12 220.583 401.12 218.771C401.12 208.629 401.322 198.479 401.065 188.345C400.692 173.78 400.956 159.216 400.879 144.651C400.793 128.528 401.019 112.405 400.754 96.2903C400.435 76.4956 400.684 56.7009 400.451 36.9061C400.451 33.6424 400.264 30.3786 400.248 27.1638C400.194 26.7313 400.233 26.2907 400.373 25.8828Z" fill="#85BCE6" style="fill:#85BCE6;fill:color(display-p3 0.5216 0.7373 0.9020);fill-opacity:1;"/>
<path d="M39.4245 233.425C39.2067 232.846 39.2067 232.202 39.4245 231.622C39.8136 230.529 39.9926 229.362 39.9537 228.195C39.9381 226.164 40.3194 224.156 41.0587 222.28C41.3466 221.602 41.8446 221.039 42.4671 220.689C44.6849 219.35 47.2139 218.698 49.7663 218.796C55.2133 218.796 60.6604 218.894 66.1075 218.796C68.7844 218.73 71.4535 218.2 74.1303 217.98C76.1146 217.849 78.0989 217.833 80.0832 217.931C81.4761 217.996 82.0909 218.951 81.6862 220.379C80.768 223.585 79.8498 226.792 79.0794 230.047C77.2663 237.636 75.6088 245.257 73.9436 252.894C73.8658 253.367 73.7413 253.824 73.5779 254.273C73.2355 254.877 73.3366 255.652 73.8269 256.141C74.4572 256.876 74.3249 257.422 73.5779 258.002C73.1499 258.279 72.6674 258.467 72.1694 258.556C70.0917 259.136 68.0296 258.556 65.9441 258.556H65.6407C61.423 258.663 57.2132 258.026 52.9956 258.271C51.0269 258.385 49.0581 258.573 47.0894 258.801C46.3813 258.777 45.6731 258.711 44.9728 258.597C41.6656 258.597 38.3429 258.377 35.0513 258.597C31.643 258.867 28.2424 258.736 24.8419 258.801C24.4917 258.842 24.1338 258.785 23.7992 258.654C22.6708 258.148 21.418 258.051 20.2352 258.393C19.5815 258.483 18.9201 258.507 18.2587 258.483C16.0721 258.483 13.8777 258.565 11.691 258.483C9.50441 258.401 7.24776 259.03 4.99888 258.883H3.93281C2.56325 258.777 1.53609 257.528 1.63725 256.092C1.66837 255.701 1.77731 255.325 1.96407 254.991C2.24421 254.395 2.84339 254.044 3.4737 254.093C7.53568 254.305 11.6054 253.848 15.6752 254.314C17.5039 254.444 19.3403 254.477 21.169 254.411C21.348 254.411 21.5269 254.24 21.7059 254.15C21.9005 254.207 22.1028 254.24 22.3051 254.24C24.982 253.955 27.6822 253.881 30.3746 254.028C31.5418 253.938 32.7168 254.028 33.8607 254.273H35.168C35.6038 254.273 35.6894 254.077 35.7127 253.726C38.2106 253.62 40.6618 254.346 43.2453 254.289C43.1208 253.628 43.0352 252.959 42.9885 252.29C43.1052 251.613 43.0508 250.919 42.8407 250.275C42.6695 249.736 42.3193 249.279 41.8602 248.977C41.3466 248.561 42.0469 247.77 41.4944 247.345C41.8368 246.619 42.6461 246.122 42.436 245.134L42.0936 244.196C42.7551 243.821 43.1286 243.054 43.0196 242.27C42.7706 241.773 42.6617 241.201 42.7162 240.638C42.7784 239.7 42.7162 238.762 42.7162 237.823C42.7162 237.309 42.6306 236.885 42.1014 236.714V236.657L41.7357 236.159C41.082 235.147 40.3039 234.233 39.4245 233.425ZM56.3884 255.007C57.7968 255.325 59.2442 254.705 60.0224 253.432C60.357 253.016 60.8394 252.755 61.353 252.722L63.6097 252.412C64.8236 252.306 65.7263 251.189 65.6251 249.924C65.6251 249.859 65.6095 249.801 65.6017 249.736C65.5161 248.994 65.2905 248.276 64.9481 247.623C64.6057 247.019 64.2633 246.587 63.5241 246.676C62.8004 246.84 62.0611 246.497 61.6954 245.82C61.4153 245.306 60.9172 245.338 60.4815 245.355C58.9563 245.265 57.4311 245.355 55.9293 245.616C55.6802 245.722 55.4001 245.722 55.1511 245.616C54.3029 244.922 53.5247 245.412 52.731 245.697C51.4626 246.154 51.3381 246.35 51.2759 247.762C51.2292 248.879 51.3303 249.997 51.5716 251.091C51.8206 252.347 52.3497 253.522 53.1279 254.518C53.8049 255.333 54.9566 254.909 55.8981 255.015H56.3884V255.007Z" fill="#B7B7B6" style="fill:#B7B7B6;fill:color(display-p3 0.7176 0.7176 0.7137);fill-opacity:1;"/>
<path d="M42.1325 236.591V236.649C42.2882 237.53 42.0314 238.452 42.4282 239.325C42.545 239.692 42.4594 240.092 42.2026 240.369C41.7668 241.038 41.0276 241.422 40.2572 241.389C39.1289 241.389 38.055 240.981 36.9345 241.006C34.0397 241.071 31.145 241.153 28.2502 241.226C27.9934 241.201 27.7366 241.283 27.5421 241.454C26.4293 241.593 25.3088 241.618 24.1882 241.528C22.6008 241.218 20.99 241.136 19.3792 241.267C18.7801 240.728 18.5855 239.831 18.9123 239.072C19.1925 237.962 19.5504 236.869 19.9784 235.808C20.2663 235.245 20.6398 234.739 21.0912 234.307C22.1106 233.32 22.8265 233.328 23.8381 234.364C24.733 235.278 26.1414 235.31 27.083 234.454C27.3865 234.176 27.7055 233.915 28.0012 233.638C28.4681 233.164 29.005 232.822 28.5381 231.9C28.2424 231.345 28.6782 231.084 29.2463 231.084C31.2695 231.002 33.2927 231.263 35.2381 231.843C35.4715 231.941 35.7127 232.014 35.9618 232.063C37.2224 232.185 38.4285 232.667 39.4479 233.466C40.3272 234.25 41.1132 235.147 41.7824 236.135L42.1325 236.591Z" fill="#F28C2B" style="fill:#F28C2B;fill:color(display-p3 0.9490 0.5490 0.1686);fill-opacity:1;"/>
<path d="M33.8683 254.232C32.7244 253.979 31.5494 253.898 30.3822 253.987C27.6898 253.841 24.9896 253.914 22.3127 254.2C22.1104 254.2 21.9081 254.167 21.7135 254.11C21.1143 254.045 20.5152 253.979 19.9082 253.922C19.3012 253.865 19.0444 253.473 18.9666 252.886C18.8655 252.054 18.9822 251.205 19.3168 250.438C19.6281 249.696 20.0016 249.108 19.7059 248.178C19.4646 247.419 20.3362 247.256 20.8887 247.036C21.8614 247.329 22.8808 247.419 23.8924 247.305C24.8028 247.207 25.721 247.248 26.6237 247.419C28.0244 247.68 29.4562 247.721 30.8724 247.542C32.8256 247.223 34.8099 247.223 36.7631 247.542C37.1677 247.623 37.5801 247.59 37.9692 247.468C38.7085 247.28 39.4711 247.207 40.2337 247.248L41.4709 247.321C42.0156 247.778 41.3231 248.57 41.8367 248.953C42.2958 249.255 42.6459 249.712 42.8171 250.25C42.7549 250.609 42.7549 250.985 42.8171 251.344C42.8171 253.057 42.039 253.792 40.3582 253.686C39.7668 253.563 39.1676 253.482 38.5684 253.441C37.6035 253.49 36.5841 253.041 35.6659 253.702C35.1834 254.175 34.5142 254.379 33.8683 254.232ZM35.7126 249.834C35.9771 249.761 36.1717 249.622 36.1795 249.304C36.1094 249.247 36.016 249.231 35.9304 249.239C35.6192 249.353 35.5881 249.573 35.7359 249.851C35.4558 249.769 35.3546 249.875 35.4324 250.169C35.3079 250.079 35.1523 250.079 35.0278 250.169C34.8566 250.242 34.592 250.291 34.7788 250.569C34.8722 250.707 35.0589 250.626 35.1601 250.569C35.2534 250.463 35.339 250.348 35.4091 250.218C35.5725 250.226 35.7126 250.095 35.7203 249.924C35.7203 249.891 35.7203 249.859 35.7126 249.834ZM31.3782 250.781C30.9425 250.667 30.4911 250.879 30.281 251.295C30.7713 251.58 31.0981 251.466 31.3704 250.813V250.781H31.3782ZM28.6158 249.532C28.4601 249.532 28.3045 249.639 28.3979 249.826C28.4835 250.014 28.6236 250.169 28.7947 250.267C28.9193 250.316 28.9815 250.087 28.9737 249.94C28.9659 249.794 28.8648 249.573 28.6158 249.573V249.532Z" fill="#F28C2B" style="fill:#F28C2B;fill:color(display-p3 0.9490 0.5490 0.1686);fill-opacity:1;"/>
<path d="M354.368 156.752C354.928 155.022 355.006 153.088 356.29 151.652C356.57 151.334 356.772 150.975 357.014 150.64C357.955 149.384 358.85 149.139 360.126 149.93C360.795 150.396 361.62 150.575 362.414 150.42C363.293 150.208 364.173 150.746 364.429 151.652C364.577 152.346 365.223 152.778 365.885 152.639C366.538 152.664 367.176 152.876 367.721 153.251C368.305 153.512 368.577 154.222 368.336 154.834C368.211 155.144 367.978 155.381 367.674 155.495C367.176 155.748 366.694 156.034 366.235 156.36C365.651 156.793 365.239 157.437 365.075 158.171C364.966 158.604 365.192 159.216 364.608 159.379C363.9 159.583 363.293 160.195 362.453 159.909C360.718 159.306 358.85 159.257 357.084 159.763C356.983 159.763 356.858 159.828 356.788 159.763C356.134 159.338 355.582 158.767 354.905 158.351C354.438 158.098 354.368 157.396 354.368 156.752Z" fill="#85BCE6" style="fill:#85BCE6;fill:color(display-p3 0.5216 0.7373 0.9020);fill-opacity:1;"/>
<path d="M40.2494 247.231C39.4868 247.191 38.7242 247.264 37.985 247.452C37.5959 247.574 37.1835 247.607 36.7789 247.525C34.8257 247.207 32.8414 247.207 30.8882 247.525C29.472 247.705 28.0402 247.664 26.6395 247.403C25.7368 247.231 24.8186 247.191 23.9081 247.288C22.8965 247.403 21.8771 247.313 20.9045 247.019C20.2975 246.652 19.4726 246.66 19.3092 245.616C19.2003 244.914 19.9473 244.669 19.8384 244.057C19.994 243.927 20.1574 243.804 20.3053 243.658C21.1846 242.776 22.0172 242.581 23.0755 243.486C23.7136 244.229 24.803 244.286 25.5034 243.617C25.55 243.576 25.589 243.535 25.6279 243.486C25.8302 243.331 26.0636 243.225 26.3049 243.16C27.0597 242.874 27.9001 242.964 28.5771 243.413C28.8961 243.658 29.293 243.788 29.6898 243.772L30.468 243.968C31.0672 244.367 31.4874 244.123 31.822 243.552C32.7013 243.201 33.5339 242.581 34.5533 243.037C34.9735 243.707 35.4171 244.196 36.2886 243.682C36.5376 243.535 36.9734 243.682 37.3236 243.755C37.6737 243.829 38.1017 243.992 38.4441 243.543C38.841 243.07 39.5024 242.98 40.0004 243.323C40.6852 243.698 41.4322 243.853 42.1248 244.188L42.4672 245.126C41.8758 245.983 41.121 246.701 40.2494 247.231Z" fill="#965B34" style="fill:#965B34;fill:color(display-p3 0.5882 0.3569 0.2039);fill-opacity:1;"/>
<path d="M34.5456 243.005C33.5262 242.548 32.6935 243.168 31.8142 243.519C31.3318 243.47 30.8415 243.617 30.4602 243.935L29.6821 243.739C29.6198 243.486 29.4408 243.282 29.1996 243.209C28.258 242.874 27.2542 242.85 26.2971 243.127C26.0559 243.193 25.8224 243.299 25.6201 243.454C24.982 244.196 23.8926 244.253 23.1922 243.584C23.1456 243.543 23.1066 243.503 23.0677 243.454C22.0094 242.548 21.1768 242.744 20.2975 243.625C20.1496 243.772 19.9862 243.894 19.8306 244.025C18.7412 243.87 18.3443 243.209 18.7801 242.238C18.9435 241.969 19.1458 241.732 19.3793 241.52H24.1727C25.2933 241.61 26.4138 241.585 27.5266 241.446C28.7249 241.642 29.9389 241.716 31.1528 241.683C32.8336 241.487 34.4989 241.601 36.1719 241.561C37.0279 241.561 37.8916 241.936 38.7398 241.707C40.2494 241.3 41.6268 241.756 43.0197 242.23C43.1286 243.013 42.7551 243.78 42.0937 244.155C41.4011 243.829 40.6541 243.674 39.9693 243.29C39.4713 242.948 38.8098 243.038 38.413 243.511C38.0317 243.454 37.6348 243.47 37.2613 243.576C36.2419 243.968 35.4638 243.095 34.5456 243.005Z" fill="#6FB64A" style="fill:#6FB64A;fill:color(display-p3 0.4353 0.7137 0.2902);fill-opacity:1;"/>
<path d="M24.165 241.52H19.3715C19.3482 241.43 19.3482 241.324 19.3715 241.234C20.9745 241.112 22.5853 241.21 24.165 241.52Z" fill="#B7B7B6" style="fill:#B7B7B6;fill:color(display-p3 0.7176 0.7176 0.7137);fill-opacity:1;"/>
<path d="M26.2815 243.127C27.2386 242.85 28.2425 242.874 29.184 243.209C29.4253 243.282 29.6042 243.486 29.6665 243.739C29.2696 243.755 28.8728 243.625 28.5537 243.38C27.8767 242.931 27.0363 242.842 26.2815 243.127Z" fill="#B7B7B6" style="fill:#B7B7B6;fill:color(display-p3 0.7176 0.7176 0.7137);fill-opacity:1;"/>
<path d="M34.5454 243.005C35.4792 243.086 36.2574 243.959 37.2767 243.576V243.723C36.9266 243.723 36.4986 243.502 36.2418 243.649C35.3936 244.163 34.9501 243.682 34.5454 243.005Z" fill="#B7B7B6" style="fill:#B7B7B6;fill:color(display-p3 0.7176 0.7176 0.7137);fill-opacity:1;"/>
<path d="M30.4446 243.943C30.8261 243.625 31.3167 243.478 31.7994 243.527C31.4334 244.123 31.0519 244.343 30.4446 243.943Z" fill="#B7B7B6" style="fill:#B7B7B6;fill:color(display-p3 0.7176 0.7176 0.7137);fill-opacity:1;"/>
<path d="M62.5592 251.058C62.3258 251.033 62.1157 250.895 61.9834 250.691C61.4776 250.03 61.5787 249.075 62.209 248.545C62.2791 248.488 62.3569 248.431 62.4347 248.39C62.8393 248.137 63.3374 248.137 63.742 248.39C64.2089 248.724 64.0533 249.206 63.921 249.671C63.8198 250.405 63.2595 250.976 62.5592 251.058Z" fill="#B7B7B6" style="fill:#B7B7B6;fill:color(display-p3 0.7176 0.7176 0.7137);fill-opacity:1;"/>
<path d="M353.209 302.234C353.294 303.458 353.52 304.674 353.862 305.849C354.43 308.606 354.975 311.364 355.504 314.13C355.535 314.555 355.714 314.946 356.01 315.24C357.379 316.423 357.722 318.071 357.823 319.801C357.893 321.025 357.823 322.257 357.59 323.457C357.099 326.092 357.309 328.768 357.247 331.428C357.247 331.959 357.169 332.481 357.107 333.011C356.975 333.786 357.06 334.586 357.356 335.312C357.839 336.446 357.901 337.727 357.527 338.91C357.201 340.077 357.092 341.293 357.193 342.501C357.317 344.81 356.664 345.764 354.594 346.58C351.629 347.731 348.446 348.147 345.302 347.812C340.634 347.306 335.965 347.258 331.405 346.229C330.665 346.025 329.965 345.715 329.311 345.299C328.969 345.144 328.736 344.818 328.689 344.434C328.689 343.202 327.911 341.987 328.689 340.714C328.953 340.249 328.798 339.539 328.992 339.008C329.366 337.817 330.315 336.92 331.49 336.667C332.377 336.43 333.288 336.316 334.206 336.324C335.288 336.381 336.346 335.981 337.14 335.198C338.198 334.202 339.287 333.24 340.423 332.342C340.984 331.95 341.178 331.192 340.89 330.555C339.513 325.602 338.213 320.633 336.93 315.656C336.657 314.587 336.634 313.437 336.393 312.392C335.381 307.423 334.626 302.405 334.136 297.355C333.755 294.034 333.506 290.688 333.124 287.367C332.712 283.834 332.245 280.31 331.879 276.76C331.373 271.954 330.767 267.173 330.144 262.383C329.56 258.328 329.187 254.24 329.031 250.144C329.016 247.59 328.697 245.045 328.09 242.572C327.708 241.03 327.444 239.455 327.311 237.872C327.21 236.877 326.611 236.02 326.533 235.008C326.448 234.707 326.385 234.397 326.339 234.078C326.487 232.748 325.958 231.435 324.946 230.619C324.533 230.154 323.95 229.884 323.343 229.876C317.491 229.933 311.639 229.933 305.78 229.876C304.535 229.819 303.321 230.309 302.434 231.223C299.726 233.776 296.987 236.387 293.493 237.75C291.042 238.778 288.443 239.374 285.805 239.496C284.544 239.496 283.283 239.708 282.023 239.692C281.245 239.692 281.081 240.035 281.112 240.745C281.143 241.454 281.112 242.017 281.112 242.654C281.112 242.866 281.175 243.119 281.112 243.282C279.867 245.428 280.661 247.753 280.575 249.997C280.498 252.013 280.435 254.036 280.311 256.043C280.217 257.52 280.256 259.005 280.023 260.49C279.883 261.396 280.295 262.424 280.326 263.42C280.498 264.505 280 265.59 279.081 266.12C278.537 266.422 278.49 266.847 278.498 267.434C278.498 268.332 278.544 269.262 277.821 269.963C277.525 270.249 277.642 270.665 277.642 271.032V287.522C277.642 288.338 277.922 288.657 278.677 288.681C279.432 288.706 279.984 288.844 280.645 288.901C281.595 288.983 282.497 289.081 282.653 290.37C282.7 290.745 283.019 290.835 283.338 290.868C283.844 290.917 284.342 291.031 284.847 291.047C286.404 291.047 287.882 291.741 288.925 292.948C293.765 298.897 298.815 304.674 303.212 311.013C303.609 311.568 303.873 312.213 303.99 312.898C304.434 315.403 304.722 317.949 304.838 320.495C304.838 321.262 304.667 321.572 303.959 321.596C303.663 321.596 303.36 321.751 303.064 321.751C299.952 321.751 296.886 322.298 293.781 322.086C292.668 322.012 291.54 322.086 290.427 322.135C289.509 322.216 288.614 321.816 288.038 321.058C284.723 316.978 280.256 315.754 275.424 315.982C271.323 316.178 267.23 316.537 263.129 316.864C260.561 317.076 257.986 317.435 255.348 317.427C253.324 317.533 251.317 317.778 249.325 318.153C245.457 318.667 241.582 319.181 237.715 319.711C237.014 319.809 236.329 320.013 235.629 320.144C231.583 320.878 227.513 321.351 223.443 321.882C220.424 322.282 217.389 322.379 214.37 322.649C211.094 322.934 207.779 322.779 204.487 322.787C202.153 322.787 199.818 322.877 197.484 322.69C194.76 322.469 192.037 322.69 189.321 321.874C188.465 321.735 187.609 321.653 186.745 321.629C181.539 320.797 176.38 319.63 171.307 318.137C167.883 317.198 164.498 316.064 160.973 315.566C160.77 315.566 160.545 315.403 160.389 315.46C158.218 316.276 155.86 315.901 153.674 316.676C150.506 317.802 147.184 318.202 143.915 318.887C139.176 319.891 134.336 319.989 129.613 321.049C129.263 321.123 128.905 321.156 128.547 321.147C125.247 321.164 121.956 321.425 118.695 321.923C117.481 322.078 116.268 322.143 115.046 322.11C112.151 322.02 109.28 322.477 106.401 322.6C105.233 322.6 104.074 322.51 102.922 322.339C100.541 322.102 98.1598 322.11 95.7709 322.094C93.2263 322.094 90.7129 321.621 88.1839 321.441C86.363 321.311 84.5343 321.302 82.7368 321.213C79.4841 321.049 76.2858 320.446 73.0643 320.054C71.7103 319.891 70.3641 319.581 68.9945 319.556C66.7612 319.409 64.5435 319.132 62.3413 318.74C60.8472 318.553 59.3998 317.973 57.9058 317.647C56.0071 317.239 54.0617 317.304 52.163 316.962C49.5639 316.505 46.9493 316.26 44.3814 315.73C40.903 314.873 37.2535 315.207 33.9619 316.676C33.3938 316.921 32.888 317.288 32.4678 317.761C31.4718 318.969 30.2656 319.989 29.5342 321.425C29.1062 322.233 28.3047 322.738 27.4254 322.755C23.2311 323.138 19.0057 323.016 14.8348 322.396C13.582 322.241 13.0995 321.686 13.2318 320.372C13.5041 317.68 13.8699 314.995 14.2123 312.311C14.3134 311.846 14.5235 311.413 14.8348 311.062C16.2121 309.153 17.5972 307.244 19.1069 305.441C22.3518 301.548 25.5967 297.656 28.8261 293.748C30.3824 291.798 32.6857 290.68 35.1136 290.688C35.7672 290.688 36.3431 290.786 36.5843 289.783C36.8255 288.779 37.8449 289.154 38.553 289.056C38.8565 288.24 38.4285 287.261 39.0199 286.543C39.1133 286.405 39.0977 286.217 38.9732 286.103C38.3585 285.368 38.6075 284.471 38.5452 283.655C38.2651 280.163 38.5997 276.679 38.5452 273.186C38.5297 272.811 38.5608 272.444 38.6308 272.077C38.9265 271.302 38.7787 270.42 38.2573 269.792C37.7904 269.27 38.1717 268.438 37.9461 267.703C37.1134 267.54 36.2652 267.491 35.4248 267.556C31.1527 267.654 26.8962 267.018 22.8265 265.672C20.7177 265.043 18.78 263.901 17.177 262.334C16.2199 261.388 15.1694 260.531 14.1267 259.683C13.0839 258.834 11.7922 259.054 10.625 259.095C8.2049 259.185 5.79261 258.965 3.37254 259.038C1.95629 258.981 0.859094 257.732 0.913564 256.256C0.952472 255.244 1.52831 254.338 2.40763 253.914C3.01459 253.62 3.67602 253.49 4.33746 253.522C8.7107 253.791 13.0917 253.522 17.465 253.645C18.2431 253.645 18.5699 253.424 18.5077 252.559C18.3521 251.548 18.6011 250.503 19.1925 249.687C19.6749 249.1 18.9123 248.569 19.2392 248.055C19.6905 247.321 19.3714 246.717 19.0446 246.032C18.78 245.477 19.2936 244.726 18.5699 244.163C18.0408 243.747 18.2276 242.98 18.461 242.368C18.6944 241.96 18.7878 241.487 18.7256 241.014C18.3676 239.162 18.8423 237.244 20.0173 235.808C20.6009 234.853 21.4024 234.07 22.3518 233.532C22.6942 233.442 22.9043 233.075 22.8187 232.724C22.8031 232.65 22.772 232.585 22.7331 232.52C22.2895 231.549 22.2584 230.423 22.6553 229.427C22.8498 228.709 22.523 227.942 21.8771 227.624C21.5036 227.469 21.1846 227.184 20.9978 226.808C19.6438 224.132 18.4377 221.374 17.3794 218.551C16.8502 217.033 17.107 216.103 18.1575 215.287C18.9201 214.561 20.1029 214.618 20.7955 215.41C20.8188 215.442 20.8499 215.475 20.8733 215.508C21.6437 216.495 22.274 217.596 22.7486 218.771C23.5268 220.501 24.2116 222.288 24.9197 224.05C25.2854 224.695 25.3633 225.486 25.122 226.196C24.9275 226.743 25.1921 227.355 25.7212 227.559C25.7523 227.575 25.7835 227.583 25.8146 227.592C26.8807 228 27.7055 228.905 28.0401 230.039C28.1957 230.635 28.7716 230.994 29.3474 230.855C31.5729 230.57 33.8296 230.774 35.9773 231.451C36.4676 231.631 36.701 231.451 36.8255 230.912C37.3157 228.742 37.8605 226.588 38.3818 224.426C38.7476 222.875 39.1055 221.325 39.4557 219.775C39.9148 217.849 41.5723 216.503 43.4632 216.511C49.6884 216.446 55.8592 216.332 62.0534 216.217C67.8895 216.111 73.7257 215.989 79.5697 215.858C80.5657 215.858 81.5151 215.393 82.5578 215.752C83.6939 215.964 84.5187 216.993 84.5343 218.2C84.5576 219.057 84.4409 219.905 84.1841 220.721C82.8146 226.498 81.375 232.267 80.0054 238.044C78.7059 243.511 77.4453 248.986 76.2158 254.477C75.8423 255.733 75.3209 256.941 74.6595 258.067C74.1693 258.907 73.2588 259.373 72.325 259.266H68.6599C67.8973 259.193 67.1347 259.479 66.5822 260.033C65.9286 260.694 65.1271 261.2 64.4734 261.861C61.9211 264.439 58.7617 265.631 55.3768 266.373C52.9334 266.863 50.4666 267.181 47.9843 267.328C47.2839 267.385 46.9649 267.589 47.0271 268.364C47.0738 268.895 47.1205 269.539 46.7548 269.898C45.9766 270.649 46.179 271.53 46.3657 272.346C46.6069 273.439 46.5369 274.565 46.677 275.683L58.8473 274.312C64.6446 273.627 70.4497 272.95 76.2469 272.248C82.0442 271.546 87.7403 270.82 93.4831 270.135C97.6696 269.637 101.864 269.221 106.05 268.715C109.832 268.258 113.598 267.72 117.373 267.263C119.793 266.969 122.22 266.749 124.648 266.447C127.473 266.128 130.29 265.786 133.115 265.435C136.336 265.035 139.566 264.619 142.787 264.227C145.659 263.885 148.538 263.566 151.417 263.248C151.946 263.191 152.273 263.012 152.265 262.375C152.304 260.547 152.965 258.801 154.117 257.431C154.709 256.574 154.95 255.505 154.794 254.461C154.662 252.135 153.759 250.022 153.378 247.778C153.168 246.252 153.238 244.702 153.588 243.209C154.102 240.5 154.545 237.766 154.102 234.984C154.008 234.225 154.273 233.475 154.817 232.969C156.397 231.304 158.957 231.255 160.591 232.871C161.144 233.515 161.362 234.405 161.167 235.245C161.012 237.481 161.066 239.725 161.331 241.944C161.408 242.735 161.541 243.527 161.743 244.294C162.381 246.595 162.015 248.822 161.455 251.058C161.198 252.029 161.004 253.016 160.872 254.02C160.801 255.57 161.183 257.112 161.976 258.426C162.327 259.136 162.7 259.838 162.988 260.572C163.455 261.755 163.432 261.788 164.684 261.633C171.237 260.817 177.796 260.001 184.348 259.234C188.535 258.736 192.729 258.295 196.924 257.79C201.818 257.21 206.705 256.582 211.6 255.995C217.397 255.301 223.202 254.648 228.999 253.946C234.594 253.269 240.189 252.527 245.784 251.85C249.924 251.352 254.064 250.919 258.234 250.438C262.016 250.006 265.806 249.622 269.58 249.083C270.413 248.847 271.3 249.051 271.961 249.63C272.047 248.635 272.156 247.868 272.179 247.101C272.202 246.334 272.825 245.869 272.957 245.24C273.09 244.612 272.265 244.106 272.272 243.372C272.272 242.523 272.226 241.675 272.125 240.826C272.039 240.01 271.697 239.888 271.035 239.872C268.039 239.823 265.059 239.529 262.086 239.162C260.577 238.998 259.075 238.705 257.612 238.28C255.706 237.693 253.978 236.583 252.616 235.066C251.503 233.972 250.5 232.765 249.62 231.459C249.052 230.48 247.986 229.95 246.905 230.08C243.737 230.26 240.555 229.982 237.388 230.08C235.115 230.154 232.851 229.999 230.587 230.08C228.112 230.203 225.63 230.137 223.155 230.137C215.988 230.137 208.829 230.194 201.663 230.137C196.215 230.08 190.823 230.137 185.407 230.088C178.349 230.088 171.283 230.137 164.218 230.154C151.246 230.154 138.282 230.154 125.31 230.154H103.124C102.868 230.17 102.603 230.17 102.346 230.154C101.234 229.982 100.844 229.525 100.844 228.359V215.736C100.844 208.058 100.86 200.372 100.891 192.686C100.891 183.555 100.907 174.433 100.93 165.303C100.93 156.654 100.868 148.013 100.93 139.364C100.93 135.284 100.992 131.204 100.985 127.076C100.985 122.629 101.023 118.174 100.985 113.727C100.985 108.309 101.07 102.883 101.078 97.4653V21.7786C101.078 21.2891 100.549 20.8322 100.907 20.4405C101.265 20.0489 102.066 20.1876 102.665 20.1876C112.276 20.1223 121.886 20.1876 131.457 19.9999C138.258 19.8693 145.052 19.8857 151.853 19.7959C160.342 19.6817 168.824 19.747 177.314 19.698C184.714 19.6572 192.099 19.543 199.507 19.4859C204.339 19.4859 209.172 19.4451 214.012 19.4287C217.903 19.4287 221.793 19.4777 225.731 19.3716C237.528 19.0697 249.325 19.2003 261.121 19.0697C269.837 18.9718 278.552 18.8984 287.268 18.8413C295.757 18.7923 304.247 18.8902 312.737 18.7352C320.191 18.5965 327.646 18.6373 335.101 18.5149C342.221 18.3925 349.349 18.5149 356.469 18.4496H364.5C374.919 18.1967 385.346 18.3109 395.766 18.1559C398.202 18.1069 400.606 18.7025 402.769 19.8857C407.602 22.464 412.496 24.9282 417.368 27.425C422.877 30.24 428.394 33.0468 433.919 35.8292C434.744 36.025 435.32 36.8001 435.296 37.6895C435.234 45.5878 435.234 53.4943 435.226 61.3926V83.7412C435.226 93.5325 435.211 103.299 435.18 113.042V126.537C435.024 138.98 435.055 151.415 435.016 163.858C435.016 177.077 434.907 190.295 434.861 203.513C434.861 206.973 434.861 210.424 434.806 213.884C434.705 218.363 434.861 222.859 434.907 227.33C434.907 228.62 434.907 228.636 433.639 228.644H423.865C415.516 228.709 407.174 228.816 398.824 228.864C389.922 228.922 381.02 228.93 372.11 228.954H367.55C366.468 228.954 366.391 229.207 366.64 230.333C367.208 232.724 366.966 235.245 365.955 237.464C365.83 237.677 365.776 237.93 365.815 238.183C366.142 239.953 365.714 241.683 365.519 243.421C365.114 247.068 364.935 250.764 364.601 254.371C364.398 257.61 364.033 260.833 363.504 264.023C363.371 264.864 363.278 265.704 363.239 266.553C363.044 268.837 362.515 271.065 362.259 273.341C362.165 273.872 362.321 274.41 362.679 274.794C363.161 275.218 363.441 275.838 363.457 276.499C363.278 278.009 364.087 279.045 364.733 280.203C365.083 280.979 365.317 281.803 365.418 282.651C366.103 285.377 367.06 288.02 368.274 290.533C370.203 294.817 372.328 298.995 374.655 303.05C376.312 306.085 378.148 309.063 378.927 312.523C379.308 314.204 379.923 315.811 380.763 317.296C381.541 318.683 382.055 320.201 383.292 321.278C383.72 321.735 383.969 322.347 383.985 322.991C384.156 324.697 383.907 326.418 383.269 328.001C382.856 329.258 382.366 330.49 381.798 331.681C380.46 334.382 379.666 337.311 378.429 340.053C377.176 342.819 375.09 345.071 372.499 346.466C371.332 347.111 370.032 347.47 368.709 347.502C367.527 347.568 366.383 347.07 365.597 346.14C364.998 345.511 364.912 344.508 364.336 344.051C363.683 343.569 363.216 342.851 363.021 342.044C362.694 340.632 362.788 339.155 363.301 337.809C363.706 336.658 364.188 335.541 364.741 334.464C365.822 332.391 365.854 330.074 366.056 327.797C366.056 327.691 366.04 327.585 366.001 327.487C364.219 322.926 363.037 318.104 360.617 313.812C359.302 311.356 357.862 308.974 356.306 306.673C355.457 305.481 354.749 304.176 353.971 302.911C353.8 302.601 353.528 302.364 353.209 302.234ZM376.756 322.453C375.658 323.399 374.764 324.574 374.118 325.904C373.542 327.153 373.044 328.434 372.608 329.739C371.285 333.305 369.97 336.862 367.659 339.914C366.85 340.942 366.188 342.084 365.682 343.308C365.332 344.206 365.379 344.402 366.134 345.21C366.601 343.292 367.464 341.505 368.671 339.979C370.04 338.127 371.168 336.095 372.017 333.925C372.919 331.559 373.837 329.201 374.693 326.81C375.254 325.325 376.04 323.946 377.028 322.73C378.195 321.849 379.432 321.066 380.724 320.389C378.966 320.193 377.806 321.196 376.756 322.453ZM341.427 152.142C339.816 152.011 339.599 151.783 339.56 150.134V148.853C339.56 147.327 338.914 146.601 337.225 146.161C337.249 146.422 337.319 146.683 337.42 146.928C338.097 147.956 338.229 149.278 337.762 150.428C337.669 150.844 337.638 151.277 337.684 151.701C337.747 153.463 338.003 155.201 338.462 156.898C338.603 158.155 339.591 159.126 340.797 159.191C341.98 159.216 342.976 160.138 343.131 161.37C343.863 160.538 344.859 160.007 345.933 159.869C346.789 159.746 347.653 159.689 348.493 159.518C350.361 159.134 352.29 159.183 354.158 158.702C353.8 157.527 353.792 157.502 352.952 157.82C351.839 158.204 350.656 158.318 349.489 158.155C347.637 157.951 346.088 156.58 345.598 154.695C345.435 153.724 345.022 152.819 344.4 152.076C344.011 152.639 343.917 153.357 343.388 153.708C342.735 154.116 342.229 155.087 341.272 154.524C340.634 154.165 340.704 153.439 341.396 152.125C342.019 151.44 342.307 150.485 342.174 149.547C341.536 150.289 341.832 151.334 341.427 152.133V152.142ZM26.9818 235.661C26.5305 235.669 26.0714 235.743 25.6356 235.865C24.9197 236.02 24.1805 235.702 23.7836 235.049C23.5813 234.747 23.4023 234.429 23.1766 234.062C21.3635 235.082 20.0407 236.861 19.5349 238.958C19.1069 240.745 19.4337 241.128 21.169 241.104C27.7055 241.022 34.2498 241.291 40.7863 240.981C42.2882 240.908 42.2726 240.981 42.296 239.349C42.3193 238.28 42.0158 237.228 41.44 236.347C40.7474 235.294 39.837 234.413 38.7865 233.76C35.7594 231.794 32.4211 231.484 28.8883 231.802C29.4486 233.107 28.8338 233.956 27.9856 234.739C27.6588 235.041 27.2075 235.164 26.974 235.629V235.661H26.9818ZM266.008 290.9C269.899 290.9 273.79 290.974 277.681 290.974C278.793 290.9 279.906 290.9 281.019 290.974C281.284 290.974 281.556 290.974 281.665 290.688C281.774 290.403 281.501 290.125 281.229 289.995C281.05 289.905 280.856 289.856 280.653 289.84C277.167 289.595 273.65 289.383 270.187 289.424C269.603 289.424 269.098 289.513 268.919 290.24C268.887 290.623 268.561 290.909 268.195 290.876C268.086 290.868 267.977 290.827 267.884 290.762C268.568 288.069 268.81 288.542 270.926 288.469C272.14 288.428 273.354 288.469 274.537 288.469C274.591 288.347 274.63 288.224 274.654 288.094V270.959C274.654 270.584 274.708 270.143 274.389 269.923C273.533 269.319 273.541 268.421 273.541 267.475C273.541 266.814 273.541 266.21 272.763 265.957C272.125 265.753 272.047 265.076 271.985 264.513C271.844 263.452 271.922 262.375 272.21 261.347C272.514 260.343 272.327 259.895 271.37 259.625C270.047 259.242 268.685 259.046 267.316 259.054C263.308 259.111 259.69 260.686 256.141 262.359C251.075 264.807 246.274 267.785 241.193 270.192C237.785 271.832 234.244 273.137 230.602 274.092C227.7 274.851 224.735 275.324 221.747 275.495C219.155 275.699 216.549 275.667 213.965 275.398C211.296 275.047 208.674 274.492 206.044 273.937C203.709 273.447 201.375 272.982 199.087 272.305C195.725 271.147 192.278 270.273 188.776 269.694C186.66 269.36 184.512 269.376 182.403 269.743C179.687 270.396 177.057 271.375 174.567 272.681C173.306 273.358 171.96 273.864 170.575 274.182C168.334 274.655 166.015 274.451 163.883 273.578C163.883 273.839 163.844 273.994 163.844 274.149V287.425C163.867 287.849 163.867 288.281 163.844 288.706C163.86 289.342 163.377 289.864 162.77 289.881C162.739 289.881 162.7 289.881 162.669 289.881C160.132 289.954 157.595 290.068 155.059 290.166C154.6 290.166 154.148 290.068 153.72 289.889C153.004 289.717 152.522 289.024 152.569 288.257C152.569 286.625 152.569 285.066 152.483 283.467C152.421 281.427 152.327 279.388 152.25 277.405C152.117 277.34 152.055 277.291 152.032 277.307C148.849 279.796 145.339 280.122 141.628 278.939C139.348 278.229 137.114 277.372 134.795 276.777C132.266 276.148 129.644 276.124 127.107 276.703C123.248 277.568 119.466 278.792 115.816 280.367C112.206 281.901 108.509 283.198 104.743 284.259C101.101 285.238 97.4128 285.988 93.6854 286.503C91.063 286.878 88.4251 287.041 85.7794 286.992H78.6125C77.0484 286.968 75.4921 286.87 73.9436 286.682C69.3525 286.103 64.917 284.675 60.3492 283.998C55.6802 283.304 51.1669 283.712 47.1906 286.886C46.4591 287.465 46.7081 288.053 46.5992 288.673C46.4669 289.415 47.0894 289.138 47.3773 289.293C47.6652 289.448 48.0699 289.57 48.1555 289.962C48.4512 290.9 49.1671 290.843 49.8908 290.835H126.461C135.021 290.835 143.62 290.892 152.203 290.9C159.058 290.9 165.914 290.843 172.77 290.843C182.107 290.843 191.375 290.892 200.682 290.9C221.498 290.9 242.321 290.9 263.137 290.9C264.094 291.031 265.051 291.031 266.008 290.9ZM359.037 139.062C359.644 138.311 360.539 137.895 361.473 137.936C361.831 137.92 362.165 137.732 362.383 137.43C363.9 135.741 366.017 134.786 368.227 134.795C373.814 134.55 379.409 135.194 384.817 136.696C387.984 137.479 390.615 139.796 391.875 142.946C392.887 145.394 392.653 148.037 392.288 150.518C391.338 155.854 389.572 161.003 387.051 165.743C384.358 170.81 381.261 175.616 377.783 180.128C375.651 182.951 373.985 186.134 372.865 189.544C372.017 192.049 371.316 194.603 370.764 197.19C370.624 197.696 370.624 198.242 370.764 198.748C371.34 200.747 371.464 202.86 371.13 204.917C370.74 208.18 370.351 211.444 369.752 214.708C368.927 219.024 368.538 223.438 367.091 227.608C367.044 227.755 367.044 227.91 367.324 228.114H368.398L395.852 227.991H398.902C399.338 227.991 399.571 227.828 399.563 227.347V226.384C399.563 222.035 399.563 217.686 399.47 213.329C399.377 209.502 399.423 205.684 399.408 201.857V173.397C399.408 167.008 399.33 160.619 399.299 154.23C399.299 145.769 399.299 137.308 399.229 128.855C399.229 123.698 399.128 118.549 399.112 113.352C399.065 96.6576 399.026 79.9634 398.995 63.2774V44.0783C398.995 39.7783 398.832 35.4783 398.91 31.1864C398.972 27.5392 398.754 23.9001 398.91 20.2528C398.972 19.0371 398.91 19.0126 397.735 19.0126C395.447 19.0126 393.159 19.0126 390.864 19.0126C381.113 19.1024 371.371 19.184 361.62 19.2655C356.485 19.2655 351.341 19.2655 346.205 19.3227C336.431 19.4043 326.65 19.5266 316.876 19.6164C311.383 19.6654 305.889 19.6572 300.395 19.7062C293.859 19.7551 287.322 19.7062 280.778 19.8857C276.887 20.0162 272.996 19.8857 269.105 19.8857C256.818 19.9509 244.531 19.9673 232.244 20.1386C227.669 20.2039 223.093 20.1386 218.517 20.2365C208.067 20.3997 197.616 20.2773 187.165 20.4895C180.66 20.62 174.147 20.62 167.634 20.6282C159.58 20.6282 151.526 20.6853 143.464 20.7995C135.939 20.9056 128.407 20.9301 120.898 20.9545H102.222C101.981 21.5828 101.872 22.2682 101.903 22.9454C102.066 25.8828 102.082 28.8365 101.996 31.7658C101.887 35.4701 101.996 39.1745 101.911 42.887C101.778 47.7827 101.911 52.7681 101.911 57.7045C101.911 69.2827 101.887 80.8528 101.848 92.431C101.848 102.026 101.848 111.63 101.786 121.226V137.495C101.786 144.423 101.841 151.366 101.841 158.269C101.841 163.809 101.77 169.342 101.763 174.882V228.016C101.763 228.783 102.121 229.177 102.837 229.199H171.688C174.17 229.199 176.653 229.199 179.135 229.109C180.948 229.06 182.784 229.199 184.582 229.183C188.426 229.183 192.278 229.003 196.114 229.101C198.846 229.166 201.561 229.101 204.3 229.15C206.822 229.199 209.358 229.019 211.88 229.109C215.662 229.24 219.436 229.028 223.217 229.158C226.385 229.264 229.567 229.068 232.734 229.06C235.715 229.06 238.703 229.207 241.675 229.117C242.99 229.077 244.313 229.346 245.613 229.028C246.873 228.767 248.173 228.807 249.418 229.15C249.472 229.15 249.519 229.15 249.574 229.15C253.005 229.15 256.437 229.093 259.869 229.077H278.397C283.065 229.077 287.657 229.028 292.287 229.077C296.917 229.126 301.484 228.979 306.083 229.077C311.53 229.166 316.931 229.15 322.362 229.183C323.211 229.183 323.965 228.595 324.207 227.738C324.362 226.107 324.798 224.605 325.039 223.039C325.102 222.655 325.125 222.378 324.658 222.174C322.611 221.186 320.884 219.604 319.678 217.613C318.121 215.304 316.565 213.052 316.09 210.139C315.53 206.491 315.919 203.228 319.125 200.984C319.452 200.739 319.647 200.347 319.662 199.931C319.927 198.25 320.222 196.578 320.542 194.913C322.028 186.966 324.603 179.288 328.191 172.116C328.728 170.786 329.584 169.619 330.665 168.73C331.342 168.256 331.91 167.661 332.564 167.179C334.113 166.11 335.568 164.895 336.914 163.565C338.089 162.316 339.708 161.933 341.311 161.549C341.575 161.492 341.988 161.549 342.026 161.141C342.065 160.733 341.785 160.464 341.419 160.325C340.844 160.113 340.26 159.942 339.661 159.82C338.945 159.73 338.338 159.216 338.105 158.498C337.21 155.666 336.385 152.786 337.031 149.759C337.225 149.196 337.202 148.584 336.984 148.037C336.167 146.512 336.26 144.774 335.84 143.142C335.669 142.489 335.614 142.138 334.836 142.179C334.058 142.22 333.786 141.771 333.957 140.931C334.105 140.368 334.369 139.853 334.735 139.413C335.327 138.621 335.996 137.887 336.719 137.218C335.941 136.786 335.825 136.28 336.393 135.66C336.704 135.309 337.031 134.974 337.373 134.664C339.023 133.318 340.883 132.29 342.867 131.629C345.443 130.625 348.314 130.927 350.648 132.445C351.473 132.959 352.298 133.775 353.17 133.84C354.936 133.979 355.854 135.162 356.881 136.345C357.66 137.12 357.971 138.271 359.037 139.062ZM433.74 227.804C433.865 227.583 433.903 227.543 433.903 227.502C433.903 222.973 433.857 218.453 433.865 213.925C433.865 208.915 433.935 203.913 433.966 198.903C434.012 192.408 434.028 185.913 434.02 179.41V164.936C434.02 160.489 434.098 156.042 434.114 151.595C434.152 136.671 434.23 121.748 434.269 106.824C434.3 92.4636 434.316 78.1031 434.316 63.7343C434.316 60.7725 434.316 57.8024 434.378 54.8406C434.518 49.3493 434.378 43.858 434.503 38.3667C434.619 37.5671 434.16 36.8001 433.421 36.5635C432.083 35.9189 430.775 35.2172 429.46 34.54C423.593 31.5455 417.726 28.551 411.858 25.5646C408.357 23.7695 404.855 21.95 401.369 20.1631C400.886 19.9183 400.489 19.4043 399.812 19.543V57.0763C399.812 60.34 399.766 63.5385 399.867 66.7533C399.945 69.1359 399.929 71.5103 399.945 73.8846C400.015 85.0875 399.945 96.2904 399.991 107.493C399.991 115.269 400.069 123.045 400.092 130.829C400.092 138.752 400.022 146.667 400.194 154.589C400.287 158.832 400.194 163.067 400.264 167.302C400.357 172.948 400.264 178.603 400.264 184.257C400.264 192.196 400.365 200.135 400.396 208.074V226.629C400.396 227.983 400.396 228.024 401.727 228.049C403.859 228.049 405.991 227.983 408.123 227.983H416.465C420.379 227.983 424.285 227.951 428.2 227.893C430.129 227.747 431.997 227.804 433.74 227.804ZM302.675 312.107C301.741 310.499 300.675 308.974 299.492 307.554C296.38 303.662 293.267 299.802 290.155 295.927C289.392 294.931 288.552 294.009 287.641 293.161C286.015 291.725 283.999 291.904 282.124 291.839C277.323 291.667 272.514 291.961 267.705 291.839C265.028 291.765 262.351 291.839 259.674 291.839H237.395C231.248 291.839 225.108 291.79 218.961 291.79H35.1603C32.997 291.716 30.9271 292.679 29.5264 294.409C28.2191 295.976 26.8962 297.526 25.6356 299.101C22.6319 302.772 19.4104 306.281 16.6712 310.173C16.4845 310.434 16.1888 310.671 16.3055 310.989C16.4222 311.307 16.9047 311.283 17.2471 311.299H17.7062C32.0476 311.34 46.3968 311.389 60.7383 311.43C73.2666 311.43 85.7871 311.487 98.3155 311.625C105.233 311.699 112.151 311.625 119.077 311.625C126.002 311.625 133.519 311.674 140.741 311.748C149.876 311.846 159.004 311.748 168.139 311.748C172.248 311.748 176.349 311.862 180.458 311.87C189.796 311.87 199.188 311.87 208.557 311.935C220.447 312.058 232.345 311.935 244.235 312.115C248.585 312.188 252.951 312.197 257.309 312.197C272.093 312.197 286.816 312.278 301.57 312.319C301.951 312.417 302.356 312.335 302.675 312.107ZM356.204 317.002C355.831 317.133 355.87 317.361 355.823 317.557C355.776 317.753 355.699 317.965 355.45 317.973C355.185 317.973 354.959 317.786 354.905 317.516C354.866 317.361 354.843 317.206 354.85 317.043C354.78 313.983 354.018 311.046 353.372 308.068C352.29 303.14 351.427 298.171 350.781 293.161C350.462 290.713 350.392 288.175 350.104 285.695C349.73 282.521 349.481 279.33 349.403 276.148C349.178 270.73 349.217 265.304 349.52 259.895C349.769 256.549 349.792 253.188 350.446 249.891C350.539 249.418 350.236 248.529 350.859 248.553C351.637 248.553 351.286 249.5 351.232 249.973C350.952 252.421 350.711 254.917 350.539 257.414C350.111 263.999 350.057 270.6 350.368 277.185C350.648 283.614 351.24 290.027 352.142 296.392C352.275 297.33 352.539 298.252 352.921 299.117C354.033 301.63 355.38 304.021 356.952 306.248C360.158 310.85 362.741 315.893 364.632 321.229C365.13 322.632 365.55 324.068 366.033 325.562C366.375 325.194 366.585 324.705 366.624 324.191C367.55 320.429 369.978 317.264 373.293 315.517C374.25 315.02 375.285 314.71 376.343 314.612C376.997 314.514 377.612 314.938 378.397 314.759C378.04 312.441 377.308 310.197 376.234 308.141C374.865 305.538 373.472 302.944 372.056 300.357C368.811 294.458 365.698 288.493 364.219 281.77C364.126 281.411 364.009 281.06 363.862 280.717C363.69 280.269 363.527 279.853 362.936 279.812C362.344 279.771 362.064 279.347 362.352 278.694C362.912 277.503 362.648 276.075 361.706 275.185C361.286 274.704 361.122 274.027 361.278 273.39C361.854 270.314 362.165 267.197 362.609 264.105C363.185 260.107 363.566 256.092 363.877 252.07C364.111 249.002 364.414 245.942 364.733 242.882C364.858 241.667 365.06 240.435 365.091 239.235C365.122 238.036 364.624 237.734 363.535 237.93C362.679 238.085 362.982 238.86 362.866 239.325C362.461 240.957 362.508 240.957 360.889 241.022C358.36 241.038 355.839 240.826 353.349 240.386C351.948 240.182 351.59 239.57 351.668 238.085C351.668 237.742 351.979 237.391 351.629 236.999C350.415 237.114 349.201 236.494 347.909 236.787C347.909 237.383 347.909 237.913 347.832 238.419C347.715 239.749 347.707 239.765 346.493 239.757C345.629 239.757 344.773 239.708 343.917 239.586C341.692 239.325 339.443 239.341 337.225 239.627C335.428 239.79 335.155 239.733 334.891 237.921C334.805 237.277 334.618 237.105 334.035 237.22C332.743 237.53 331.428 237.652 330.105 237.587C328.035 237.464 328.012 237.456 328.362 239.61C328.455 240.182 328.549 240.753 328.673 241.324C329.016 242.825 329.272 244.343 329.451 245.869C329.786 248.831 329.84 251.817 330.136 254.779C330.611 259.47 331.202 264.146 331.879 268.813C332.393 272.379 332.657 275.985 333.047 279.575C333.747 286.021 334.439 292.467 335.186 298.905C335.583 302.34 335.965 305.783 336.564 309.178C337.21 313.151 338.073 317.084 339.147 320.952C340.237 324.656 340.96 328.475 342.26 332.122C342.968 334.129 344.127 335.761 346.345 336.202C347.302 336.34 348.283 336.177 349.154 335.745C350.96 334.896 352.812 334.162 354.703 333.558C356.15 333.191 356.181 333.15 356.259 331.567C356.275 331.249 356.275 330.922 356.259 330.604C356.173 327.838 356.329 325.072 356.71 322.331C357.107 320.544 356.936 318.667 356.204 317.002ZM334.797 169.978C335.661 171.088 336.447 172.271 337.132 173.511C338.525 175.943 339.248 178.725 339.233 181.556C339.318 185.171 338.743 188.769 337.552 192.163C335.996 196.243 335.365 200.559 334.517 204.819C333.724 208.874 332.727 212.888 331.521 216.829C331.218 217.898 330.782 218.926 330.23 219.881C329.607 220.885 328.883 222.027 327.646 222.206C326.409 222.386 325.942 223.177 325.794 224.377C325.67 225.372 325.405 226.351 325.242 227.347C324.938 228.677 325.413 230.08 326.456 230.904C327.055 231.402 327.35 232.21 327.234 233.001C327.234 234.119 327.428 235.221 327.802 236.265C327.825 236.436 327.957 236.559 328.121 236.551C328.292 236.559 328.44 236.42 328.448 236.241C328.448 236.2 328.448 236.167 328.432 236.126C328.051 234.853 328.595 233.458 327.973 232.218C327.825 232.03 327.856 231.753 328.035 231.598C328.105 231.541 328.191 231.508 328.276 231.5C328.852 231.288 329.444 231.133 330.043 231.035C332.665 230.823 335.264 230.309 337.91 230.423C341.349 230.578 344.812 230.537 348.236 230.945C352.127 231.402 356.018 231.761 359.908 232.022C361.519 232.112 363.293 232.406 364.577 230.782C364.64 230.708 364.733 230.668 364.826 230.668C365.371 230.831 365.48 230.619 365.527 230.048C365.628 229.427 365.799 228.816 366.033 228.236C366.694 226.343 367.231 224.401 367.636 222.427C368.336 218.404 369.06 214.39 369.651 210.351C370.157 207.528 370.414 204.656 370.429 201.783C370.429 200.853 370.476 199.858 369.752 199.115C369.472 198.83 369.628 198.544 369.682 198.234C370.141 195.623 370.787 193.045 371.612 190.532C372.717 186.982 373.005 183.221 372.452 179.533C372.437 178.57 372.172 177.623 371.674 176.807C371.542 176.93 371.425 177.069 371.316 177.215C368.842 181.458 364.655 184.29 359.947 184.885C357.224 185.416 354.415 184.942 351.987 183.555C350.01 182.331 348.182 180.863 346.54 179.182C344.563 177.256 342.719 175.192 340.579 173.47C338.774 172.091 336.836 170.916 334.797 169.978ZM42.8329 312.327V312.245H32.1488C26.8106 312.245 21.4647 312.245 16.1265 312.172C15.2783 312.172 14.9593 312.523 14.8893 313.323C14.6869 315.493 14.2278 317.631 14.1111 319.85C14.0333 321.278 14.1111 321.417 15.504 321.637C17.5661 321.947 19.6438 322.102 21.7293 322.102C23.5968 322.175 25.4644 322.143 27.332 321.996C27.939 321.996 28.4992 321.629 28.7638 321.049C29.6042 319.418 30.9816 318.292 32.1566 316.97C32.6312 316.488 33.1993 316.113 33.814 315.86C36.4442 314.677 39.3234 314.261 42.1559 314.644C45.2685 314.987 48.3811 315.681 51.4938 316.08C54.1084 316.415 56.7619 316.431 59.3454 317.092C60.6449 317.533 61.9833 317.867 63.3295 318.096C65.9519 318.357 68.5587 318.732 71.1889 318.985C73.8191 319.238 76.5193 319.728 79.1884 320.07C83.725 320.658 88.3239 320.389 92.8528 321.074C95.0706 321.335 97.3116 321.433 99.545 321.343C102.198 321.343 104.805 321.849 107.467 321.727C109.023 321.653 110.486 321.384 112.011 321.351C115.521 321.417 119.022 321.164 122.493 320.601C123.248 320.486 124.01 320.429 124.773 320.429C126.703 320.421 128.632 320.291 130.547 320.038C132.142 319.752 133.753 319.499 135.364 319.369C138.562 319.116 141.698 318.463 144.857 317.965C147.363 317.614 149.845 317.092 152.288 316.399C154.421 315.754 156.615 315.403 158.786 314.954C160.218 314.604 161.712 314.628 163.136 315.028C166.49 316.089 169.929 316.766 173.299 317.769C177.866 319.173 182.528 320.185 187.251 320.805C188.971 321.017 190.652 321.433 192.371 321.572C194.846 321.776 197.336 321.816 199.818 321.939C201.133 322.004 202.433 321.702 203.764 321.865C207.055 322.257 210.37 321.914 213.646 321.8C217.07 321.686 220.517 321.433 223.941 320.984C226.867 320.625 229.801 320.258 232.711 319.842C236.602 319.287 240.493 318.553 244.43 317.949C249.955 317.084 255.519 316.643 261.075 316.129C264.911 315.779 268.755 315.566 272.599 315.313C274.879 315.093 277.175 315.142 279.439 315.452C282.762 315.852 285.844 317.468 288.147 320.005C288.847 320.846 289.882 321.294 290.94 321.221C294.909 321.221 298.87 321.058 302.831 320.894C303.671 320.894 303.842 320.544 303.827 319.744C303.733 317.884 303.531 316.04 303.228 314.204C303.119 313.388 302.807 313.184 302.053 313.184C293.15 313.184 284.241 313.184 275.338 313.135H250.437C245.216 313.135 240.002 313.037 234.781 312.996C231.139 312.996 227.497 312.915 223.887 312.923C211.522 312.923 199.157 312.906 186.792 312.866C176.676 312.866 166.56 312.866 156.444 312.768C152.46 312.719 148.483 312.645 144.499 312.629C129.543 312.556 114.587 312.515 99.6306 312.507H76.2858C72.9709 312.507 69.6559 312.352 66.341 312.335C58.5127 312.311 50.6767 312.335 42.8329 312.335V312.327ZM52.5832 254.093C50.9491 251.646 51.1358 249.198 51.1358 246.75C51.1358 245.934 51.3459 245.42 52.2019 245.306C55.0422 245.004 57.9058 244.898 60.7616 244.996C61.2363 244.922 61.6954 245.191 61.8899 245.648C62.1234 246.301 62.5981 246.277 63.1272 246.277C64.3878 246.195 65.5551 247.003 65.9675 248.259C66.66 250.161 65.7574 252.29 63.9365 253.024C63.4852 253.204 62.9949 253.286 62.5125 253.261C61.3686 253.147 60.9562 253.685 60.4192 254.558C63.9443 254.722 67.3448 254.901 70.7454 255.015C72.6052 255.081 72.5896 255.015 73.0176 253.131C74.9396 244.645 76.8695 236.159 78.8071 227.681C79.2895 225.56 79.8187 223.447 80.2 221.309C80.4723 219.783 80.1066 219.416 78.6437 219.277C78.2468 219.187 77.8499 219.147 77.4453 219.138C75.0641 219.408 72.6752 219.277 70.294 219.383C64.0143 219.661 57.7424 219.897 51.4626 220.028C49.2293 220.077 47.0038 220.191 44.7705 220.248C43.7122 220.158 42.7551 220.909 42.545 222.002C42.3893 222.614 42.1481 223.21 42.0003 223.83C41.3544 226.506 40.7863 229.207 40.0626 231.859C39.7047 232.691 39.9848 233.67 40.7163 234.16C42.6383 235.678 43.5799 238.207 43.1364 240.687C43.043 241.332 42.8562 241.887 43.4321 242.417C43.72 242.678 43.79 243.111 43.5955 243.454C43.0508 244.269 43.1052 245.265 42.7084 246.064C42.0781 247.354 41.9691 248.414 43.0119 249.5C43.4165 249.997 43.611 250.634 43.5643 251.287C43.5643 251.874 43.5643 252.461 43.5021 253.041C43.5021 253.481 43.5021 253.734 44.0157 253.783C46.7392 254.012 49.4783 254.036 52.5832 254.093ZM373.456 184.559C373.946 184.477 374.016 184.151 374.18 183.898C374.888 182.788 375.526 181.63 376.32 180.634C378.32 178.023 380.141 175.273 381.985 172.548C384.965 168.167 387.424 163.418 389.292 158.408C390.537 155.136 391.354 151.709 391.72 148.209C391.93 146.503 391.688 144.782 391.035 143.207C389.875 140.433 387.541 138.393 384.739 137.675C379.238 136.157 373.557 135.513 367.877 135.774C366.142 135.855 364.492 136.573 363.208 137.789C365.815 138.442 367.534 139.853 367.877 142.546C368.344 145.973 368.289 149.245 364.461 150.705C364.85 151.587 365.636 152.199 366.546 152.337C367.659 152.598 368.795 152.729 369.931 152.737C370.951 152.713 371.962 152.77 372.974 152.909C374.678 153.17 376.374 153.545 378.071 153.88C378.265 153.92 378.46 153.986 378.647 154.075C378.849 154.149 378.966 154.361 378.927 154.581C378.903 154.802 378.717 154.973 378.499 154.948C378.234 154.924 377.977 154.883 377.721 154.826C376.032 154.491 374.343 154.1 372.647 153.822C371.355 153.627 370.056 153.594 368.756 153.724C370.095 155.014 371.534 155.356 372.873 155.952C374.001 156.417 375.153 156.825 376.304 157.241C376.608 157.347 376.95 157.47 376.865 157.853C376.748 158.383 376.32 158.163 375.993 158.114C375.892 158.09 375.798 158.057 375.705 158.008C373.908 157.29 371.993 156.833 370.328 155.821C369.597 155.267 368.585 155.397 367.994 156.107C366.671 157.38 365.488 158.791 364.461 160.334C364.811 160.668 365.239 160.897 365.387 161.247C365.721 162.235 366.647 162.863 367.643 162.781C367.947 162.83 368.243 162.904 368.53 163.002C370.001 163.206 371.137 164.446 371.27 165.988C371.324 166.633 371.62 167.22 372.102 167.62C372.896 168.322 373.324 169.374 373.246 170.459C373.223 171.953 372.974 173.429 372.507 174.841C372.289 175.257 372.25 175.747 372.406 176.187C373.168 178.227 373.526 180.414 373.448 182.601C373.448 183.229 373.456 183.898 373.456 184.559ZM271.782 255.546C271.191 256.239 270.335 256.615 269.448 256.566C267.58 256.745 265.72 256.998 263.861 257.218C258.725 257.847 253.589 258.475 248.445 259.103C244.267 259.609 240.088 260.091 235.909 260.58L223.964 261.984C221.63 262.261 219.334 262.563 217.023 262.799C214.907 263.052 212.79 263.305 210.674 263.55C207.6 263.901 204.526 264.219 201.452 264.586C197.562 265.051 193.718 265.574 189.842 266.022L179.726 267.173C176.505 267.54 173.275 267.915 170.054 268.34C168.194 268.584 166.326 268.78 164.459 268.992C164.093 269.033 163.727 269.058 163.587 269.49C163.089 270.902 163.782 272.468 165.128 272.991C165.268 273.048 165.416 273.088 165.564 273.113C167.416 273.505 169.322 273.48 171.159 273.031C172.707 272.534 174.209 271.897 175.649 271.13C178.294 269.784 181.15 268.96 184.076 268.682C187.765 268.364 191.336 269.107 194.885 270.078C198.122 270.959 201.297 272.069 204.596 272.689C207.491 273.235 210.355 273.937 213.265 274.418C215.988 274.786 218.735 274.851 221.467 274.614C226.688 274.304 231.839 273.17 236.734 271.244C242.127 269.164 247.138 266.226 252.212 263.46C255.62 261.576 259.199 260.042 262.888 258.883C264.88 258.206 266.989 258.034 269.059 258.377C269.977 258.557 270.918 258.597 271.907 258.703C272.016 257.651 271.977 256.582 271.782 255.546ZM319.405 202.134C319.281 202.175 319.11 202.183 319.016 202.281C317.359 203.84 316.542 206.157 316.83 208.474C317.382 213.729 320.222 217.621 324.043 220.77C325.382 222.019 327.436 221.896 328.627 220.493C328.689 220.419 328.743 220.346 328.798 220.273C329.638 219.196 330.261 217.955 330.619 216.617C331.661 213.231 332.572 209.804 333.296 206.32C334.152 201.571 335.249 196.863 336.579 192.237C337.357 189.789 338.206 187.464 338.33 184.893C338.501 181.466 338.525 178.088 336.852 174.955C336.05 173.225 334.953 171.675 333.615 170.362C332.012 168.95 331.194 169.056 330.043 170.835C328.876 172.769 327.872 174.8 327.039 176.914C325.708 180.136 324.557 183.433 323.592 186.795C321.359 193.861 320.238 201.269 320.293 208.719C320.293 209.094 320.285 209.461 320.254 209.837C320.246 209.992 320.114 210.114 319.958 210.098H319.942C319.794 210.073 319.662 210 319.561 209.894C319.374 209.682 319.429 209.388 319.429 209.127C319.429 207.16 319.164 205.194 319.592 203.236C319.732 202.86 319.654 202.436 319.405 202.126V202.134ZM46.5447 282.358C46.6069 283.508 46.4669 284.659 46.14 285.752C46.1089 285.907 46.1478 286.07 46.249 286.193C46.4124 286.38 46.6069 286.282 46.7704 286.135C47.2139 285.695 47.6964 285.303 48.2099 284.96C51.7117 282.953 55.7347 282.203 59.68 282.823C62.0144 283.116 64.3489 283.728 66.6834 284.259C71.1733 285.409 75.78 285.997 80.4023 286.013C83.8495 285.94 87.2968 286.013 90.7518 285.76C94.1523 285.466 97.5295 284.952 100.868 284.226C106.432 283.027 111.871 281.24 117.1 278.906C120.547 277.495 124.104 276.401 127.73 275.642C129.784 275.21 131.901 275.21 133.955 275.642C136.749 276.189 139.402 277.274 142.118 278.09C144.95 279.045 148.04 278.735 150.639 277.217C151.829 276.532 152.553 275.202 152.499 273.782C152.475 273.04 152.499 272.289 152.561 271.546C152.678 270.73 152.405 270.494 151.658 270.592C149.697 270.845 147.767 271.049 145.767 271.277C142.74 271.62 139.713 271.954 136.694 272.322C132.617 272.811 128.547 273.333 124.469 273.823C121.294 274.198 118.112 274.516 114.937 274.892C111.046 275.349 107.155 275.863 103.311 276.328C100.09 276.711 96.8603 277.038 93.631 277.429C88.7441 278.017 83.8651 278.653 78.9783 279.233C74.0914 279.812 68.9945 280.35 64.0143 280.946C59.0341 281.542 53.9527 282.186 48.9181 282.798C48.101 282.945 47.2606 282.798 46.5447 282.358ZM332.906 168.126C336.4 169.284 339.622 171.202 342.353 173.764C344.594 175.845 346.75 178.031 348.952 180.169C353.022 184.118 357.714 185.163 362.889 183.131C368.064 181.099 371.402 177.346 372.351 171.504C372.538 170.37 372.507 169.17 371.573 168.411C370.849 167.816 370.406 166.926 370.344 165.964C370.258 164.919 369.511 164.062 368.523 163.875C367.822 163.581 367.052 163.548 366.336 163.793C367.068 164.136 366.282 165.556 367.768 165.229C368.118 165.156 368.009 165.768 367.838 165.988C367.192 166.804 366.266 167.318 365.262 167.424C362.936 167.587 360.593 167.334 358.352 166.665C354.897 165.776 351.668 164.217 348.291 163.083C345.497 162.039 342.454 162.006 339.645 162.985C338.346 163.402 337.217 164.242 336.416 165.392C338.237 165.817 339.925 166.086 341.56 166.616C345.302 167.816 348.757 169.701 352.267 171.455C352.905 171.773 353.567 172.051 354.205 172.361C354.454 172.483 354.625 172.687 354.524 172.989C354.422 173.291 354.22 173.258 354.018 173.209C353.769 173.16 353.528 173.079 353.294 172.973C352.189 172.442 351.084 171.904 349.995 171.341C346.034 169.309 342.019 167.432 337.638 166.567C335.91 166.143 334.105 166.747 332.93 168.134H332.906V168.126ZM302.146 229.942H291.54C288.061 229.942 284.536 230.031 281.05 230.031C277.564 230.031 274.117 229.966 270.646 229.966C267.176 229.966 263.705 229.966 260.234 230.072C256.764 230.178 253.418 229.876 249.9 230.129C250.764 231.622 251.815 232.993 253.013 234.209C254.616 235.996 256.725 237.212 259.02 237.677C263.915 238.639 268.895 239.039 273.875 238.868C275.852 238.803 277.836 238.713 279.813 238.705H284.077C286.77 238.68 289.439 238.248 292.014 237.416C295.991 236.143 298.924 233.262 301.982 230.562C302.045 230.513 302.045 230.374 302.169 229.95H302.146V229.942ZM65.843 259.315H58.0614C50.451 259.315 42.8484 259.177 35.2381 259.226C29.8921 259.226 24.554 259.152 19.2158 259.128C17.9319 259.128 16.6479 259.258 15.0215 259.348L18.5155 262.44C19.2158 263.069 20.0018 263.583 20.8499 263.966C23.7447 265.28 26.8262 266.112 29.9699 266.414C34.5299 266.773 39.1055 266.83 43.6733 266.577C47.4785 266.398 51.2837 266.316 55.0266 265.476C57.8124 264.856 60.5515 264.072 62.8082 262.024C63.7108 261.184 64.6524 260.392 65.8663 259.332L65.843 259.315ZM162.63 269.319C159.751 269.637 156.988 269.955 154.218 270.249C153.666 270.306 153.44 270.526 153.44 271.13C153.44 272.452 153.339 273.766 153.284 275.088C153.105 279.29 153.471 283.484 153.487 287.677C153.487 289.016 153.681 289.211 155.043 289.187C157.378 289.146 159.712 288.991 162.047 288.983C162.934 288.983 163.019 288.534 163.011 287.808V276.344C162.941 274.01 162.747 271.693 162.63 269.319ZM162.366 261.853C162.334 260.858 162.008 259.895 161.44 259.095C160.42 257.145 159.696 255.13 160.226 252.853C160.366 252.241 160.529 251.629 160.654 251.009C161.128 248.667 161.486 246.399 160.887 243.943C160.195 241.046 160.023 238.044 160.381 235.082C160.552 234.209 160.078 233.336 159.269 233.05C158.576 232.716 157.79 232.618 157.043 232.781C155.564 233.018 154.934 233.834 155.09 235.4C155.308 238.044 155.105 240.704 154.498 243.282C154.024 245.306 154.094 247.419 154.701 249.402C155.035 250.471 155.3 251.556 155.479 252.665C155.837 254.909 155.961 257.096 154.242 258.948C153.58 259.772 153.207 260.817 153.191 261.894C153.105 262.922 153.191 263.061 154.125 262.946C156.848 262.571 159.556 262.212 162.366 261.853ZM368.694 346.556C368.997 346.572 369.309 346.572 369.612 346.556C369.861 346.515 370.11 346.442 370.344 346.344C373.378 345.34 375.9 343.104 377.347 340.143C377.697 339.433 377.977 338.69 378.304 337.964C379.191 335.998 379.681 333.884 380.677 331.934C381.588 330.147 382.288 328.262 382.779 326.304C383.168 325.203 383.23 323.995 382.957 322.853C382.623 321.8 382.249 321.523 381.168 321.564C380.709 321.572 380.265 321.702 379.868 321.947C378.413 322.714 377.184 323.889 376.335 325.349C375.814 326.378 375.37 327.446 374.997 328.54C373.332 333.231 371.604 337.882 368.53 341.832C367.721 342.868 367.208 344.132 367.044 345.462C366.959 346.189 367.184 346.597 367.931 346.58L368.694 346.556ZM344.478 144.202C345.201 145.173 345.474 145.304 346.773 145.394C348.236 145.492 349.707 145.598 351.162 145.753C351.668 145.81 352.547 145.671 352.493 146.381C352.438 147.091 351.629 146.658 351.185 146.642C349.466 146.577 347.738 146.422 346.018 146.299C345.707 146.299 345.365 146.299 345.24 146.675C345.209 146.944 345.334 147.213 345.559 147.352C345.801 147.556 346.057 147.719 346.337 147.85C347.653 148.413 349.045 148.764 350.462 148.878C351.52 149.008 352.586 149.025 353.652 148.927C353.909 148.927 354.189 148.927 354.197 149.269C354.205 149.547 354.002 149.783 353.738 149.8C353.434 149.841 353.131 149.857 352.827 149.849C351.909 149.849 350.999 149.783 350.08 149.767C349.8 149.767 349.434 149.645 349.302 150.077C349.17 150.51 349.473 150.665 349.699 150.893C350.314 151.448 351.084 151.799 351.893 151.88C353.637 152.076 355.372 151.505 356.695 150.298C357.667 149.359 358.912 148.788 360.228 148.666C361.013 148.641 361.69 148.078 361.893 147.287C362.399 145.94 362.492 144.464 362.181 143.052C361.893 141.689 361.278 140.604 359.807 140.416C359.107 140.294 358.461 139.919 358.01 139.339C357.473 138.621 356.71 138.124 355.862 137.936C352.944 137.446 349.964 137.683 347.147 138.63C346.734 138.76 346.26 138.891 346.267 139.527C346.976 139.853 347.746 139.992 348.516 139.919H351.411C351.676 139.919 351.964 140.009 351.94 140.335C351.901 140.612 351.668 140.816 351.403 140.8H350.485C349.263 140.8 348.049 140.865 346.828 140.849C346.221 140.898 345.622 141.004 345.03 141.159C344.657 141.183 344.353 141.502 344.345 141.893C344.345 142.367 344.734 142.456 345.038 142.636C345.419 142.783 345.832 142.84 346.236 142.807C348.112 142.954 349.995 142.807 351.862 143.101C352.158 143.15 352.547 143.101 352.547 143.533C352.547 143.966 352.228 144.031 351.893 144.015C351.559 143.998 351.115 144.015 350.672 143.958C349.053 143.778 347.435 143.713 345.808 143.77C345.373 143.762 344.843 143.688 344.478 144.186V144.202ZM36.9578 254.526H35.3237L3.57486 254.73C2.72667 254.599 1.93295 255.219 1.81623 256.117C1.80066 256.215 1.80066 256.313 1.80066 256.411C1.74619 257.382 2.30647 257.994 3.40367 258.132C5.67589 258.312 7.96367 258.361 10.2437 258.279C15.5663 258.328 20.8811 258.369 26.2037 258.353C29.5731 258.353 32.9347 258.516 36.3197 258.353C36.9189 258.353 36.9967 258.124 36.9889 257.626C36.95 256.615 36.9578 255.668 36.9578 254.526ZM37.9772 254.681C37.9383 255.562 37.8838 256.411 37.8527 257.251C37.8138 258.336 37.8527 258.361 38.8876 258.385H72.4962C73.4767 258.328 74.0525 257.839 74.107 257.047C74.1615 256.256 73.6012 255.929 72.5896 255.864H70.6053C65.6951 255.66 60.7772 255.456 55.867 255.236C51.8128 255.056 47.7664 254.82 43.7122 254.665C41.8524 254.616 39.9926 254.681 37.9772 254.681ZM272.981 253.122H272.918C272.918 255.032 272.872 256.941 272.918 258.834C272.957 260.148 273.354 260.556 274.545 260.654C275.556 260.743 276.576 260.776 277.587 260.776C279.027 260.776 279.229 260.572 279.33 259.022C279.416 257.643 279.486 256.264 279.509 254.877C279.556 252.266 279.556 249.663 279.579 247.052C279.579 246.236 279.198 245.852 278.404 245.746C277.299 245.648 276.179 245.648 275.074 245.746C273.416 245.803 273.027 246.162 272.981 247.86C272.934 249.557 272.973 251.36 272.973 253.098V253.122H272.981ZM45.6342 278.906C45.6887 276.728 45.6031 274.549 45.3775 272.379C45.2685 271.62 44.9806 271.367 44.3114 271.391C42.9963 271.448 41.6812 271.514 40.3739 271.522C39.7358 271.522 39.5257 271.75 39.4635 272.436C39.0744 276.515 39.3934 280.595 39.2534 284.724C39.2378 285.23 39.5957 285.662 40.0704 285.711C41.2999 286.062 42.5839 286.144 43.8367 285.931C45.323 285.646 45.5876 285.303 45.6265 283.688C45.6654 282.072 45.6265 280.358 45.6265 278.906H45.6342ZM354.827 156.996C354.827 158.367 355.154 158.718 356.383 158.857C358.508 159.012 360.624 159.306 362.718 159.722C363.325 159.901 363.97 159.624 364.274 159.044C365.223 157.6 366.375 156.303 367.682 155.201C368.25 154.777 368.219 154.385 367.799 153.928C367.589 153.627 367.278 153.423 366.92 153.365C365.675 153.308 364.546 152.607 363.893 151.497C363.675 151.073 363.2 150.869 362.764 151.016C361.558 151.358 360.266 150.991 359.395 150.053C359.115 149.71 358.625 149.669 358.298 149.955C358.298 149.955 358.29 149.963 358.282 149.971C357.675 150.273 357.232 150.852 357.076 151.538C356.78 153.17 356.119 154.695 355.146 156.001C354.975 156.319 354.726 156.597 354.827 156.996ZM344.711 161.264C347.155 161.704 349.551 162.414 351.855 163.385C354.749 164.634 357.745 165.613 360.803 166.323C362.29 166.665 363.823 166.722 365.332 166.494C366.422 166.331 366.461 166.249 366.11 165.205C365.9 164.552 365.714 163.891 365.465 163.255C365.052 161.786 363.854 160.717 362.406 160.529C360.072 160.268 357.8 159.803 355.457 159.762C352.664 159.722 349.925 160.309 347.155 160.578C346.314 160.587 345.481 160.823 344.75 161.264H344.711ZM57.1121 245.885C55.618 245.909 54.1239 246.007 52.6377 246.187C52.233 246.269 51.984 246.334 51.9762 246.823C51.8828 248.52 52.0151 250.218 52.3809 251.874C52.6143 252.951 53.4469 253.767 54.4819 253.946C55.5635 254.216 56.6841 254.314 57.7968 254.232C59.0341 254.077 60.1313 253.685 60.7538 252.339C61.4542 250.626 61.6487 248.733 61.3141 246.905C61.1974 246.089 60.7772 245.852 60.069 245.877C59.1197 245.901 58.1548 245.885 57.1121 245.885ZM329.21 341.701C329.28 342.052 329.327 342.403 329.342 342.762C329.257 344.443 330.292 345.038 331.552 345.21C333.109 345.454 334.665 345.83 336.221 346.025C337.778 346.221 339.373 346.025 340.89 346.319C343.637 346.841 346.446 347.013 349.232 346.809C351.006 346.703 352.757 346.303 354.415 345.626C356.088 344.924 356.492 344.083 356.236 342.362C347.147 345.299 338.159 344.802 329.21 341.701ZM21.6359 249.997C19.5426 250.128 19.3014 250.365 19.3014 252.388C19.3014 253.28 19.7086 253.723 20.5231 253.718C27.4254 253.718 34.3276 253.628 41.2299 253.661C42.4671 253.661 42.6383 253.139 42.7239 252.184C42.7473 251.654 42.685 251.123 42.545 250.609C42.4905 250.063 42.0314 249.663 41.51 249.72C41.5022 249.72 41.4944 249.72 41.4789 249.72C40.0549 249.72 38.6308 249.72 37.2068 249.761C36.8566 249.761 36.4831 249.712 36.2341 250.071C35.3626 251.319 34.2031 251.335 32.9658 250.887C32.46 250.609 31.8375 250.813 31.5652 251.344C31.5652 251.36 31.5496 251.368 31.5496 251.384C30.5925 253.016 28.8883 252.674 28.328 250.666C28.1179 249.908 27.8534 249.777 27.2231 249.761C26.1492 249.761 25.1687 249.761 24.8886 251.189C24.8652 251.295 24.8185 251.393 24.7563 251.474C24.3828 252.233 23.4957 252.527 22.772 252.135C22.4529 251.964 22.2039 251.67 22.0794 251.319C21.9082 250.887 21.7604 250.446 21.6359 249.997ZM30.3512 247.003V247.044C32.0243 247.044 33.6973 247.003 35.3704 247.044C36.8333 247.142 38.2962 247.125 39.7592 246.995C40.6385 246.97 41.44 246.456 41.8524 245.64C42.0158 245.289 42.0547 244.824 41.619 244.702C40.4984 244.286 39.4323 243.576 38.1406 244.253C37.0745 244.824 35.7906 244.726 34.8101 244.008C34.0475 243.429 32.997 243.462 32.2733 244.098C31.2461 244.979 29.7754 244.979 28.7482 244.098C28.0557 243.511 27.0596 243.511 26.3671 244.098C24.4295 245.355 23.7213 245.208 22.3362 243.845C22.0561 243.568 21.7526 243.364 21.418 243.706C20.7721 244.351 19.6749 244.857 19.8617 245.861C20.0484 246.864 21.1768 246.831 22.0172 246.946C22.6241 247.019 23.2311 247.06 23.8381 247.052C25.9858 247.011 28.1802 247.003 30.359 247.003H30.3512ZM277.151 244.8L278.435 244.686C279.805 244.571 280.093 244.286 280.179 242.874C280.225 242.132 280.179 241.389 280.28 240.655C280.381 239.92 280.046 239.472 279.346 239.594C278.039 239.823 276.724 239.529 275.455 239.716C274.622 239.839 273.463 239.333 273.035 240.075C272.607 240.818 272.973 241.822 273.035 242.711C273.121 244.041 273.673 244.579 274.949 244.661L277.151 244.8ZM276.163 261.828V261.902H273.572C273.331 261.902 273.105 261.902 272.949 262.212C272.413 263.371 272.778 264.774 273.813 265.476C274.218 265.712 274.467 266.161 274.451 266.651V268.283C274.412 268.601 274.552 268.919 274.801 269.099C275.455 269.539 276.28 269.613 276.996 269.286C277.712 269.05 277.494 268.34 277.525 267.777V266.659C277.502 266.218 277.743 265.81 278.132 265.639C279.245 265.198 279.408 264.284 279.361 263.191C279.299 261.828 279.361 261.82 277.953 261.853C277.377 261.837 276.77 261.828 276.163 261.828ZM22.8187 247.957C22.165 247.884 21.5114 247.786 20.8499 247.762C20.4998 247.762 20.0718 247.762 20.0718 248.292C20.0173 248.594 20.2119 248.88 20.4998 248.937C20.5854 248.953 20.671 248.945 20.7488 248.92C22.0016 248.684 22.5074 249.418 22.7798 250.552C22.842 250.756 22.9354 250.944 23.0677 251.107C23.3867 251.523 23.7369 251.58 24.056 251.107C24.2116 250.895 24.3283 250.658 24.3906 250.397C24.5773 249.279 25.3555 248.994 26.2659 248.92C26.8184 248.871 27.3787 248.88 27.939 248.871C28.6471 248.871 29.0984 249.165 29.1529 249.965C29.1529 250.242 29.2151 250.52 29.3085 250.781C29.6587 251.597 30.4135 251.784 30.8104 251.025C31.4874 249.736 32.3667 249.728 33.495 250.169C34.1097 250.405 34.9035 250.528 35.3081 249.834C35.8217 248.953 36.5065 248.896 37.3547 248.888C38.4052 248.888 39.4557 248.52 40.514 248.888C40.6151 248.912 40.7163 248.912 40.8175 248.888C41.1365 248.871 41.3933 248.594 41.3933 248.259C41.3933 247.745 40.9886 247.9 40.7319 247.941C38.9732 248.251 37.1912 248.333 35.417 248.161C32.8258 247.892 30.2423 248.047 27.6355 247.982C26.0325 247.868 24.4295 248.129 22.8187 247.933V247.957ZM275.494 279.29V287.759C275.494 288.469 275.689 288.746 276.358 288.673C277.027 288.6 276.871 288.134 276.871 287.718C276.871 285.001 276.871 282.276 276.871 279.559V271.114C276.871 270.616 276.739 270.298 276.179 270.298C275.619 270.298 275.533 270.632 275.541 271.114C275.494 273.847 275.486 276.556 275.486 279.265V279.29H275.494ZM30.6547 242.124H20.8655C20.4609 242.075 20.0484 242.14 19.6749 242.311C19.2236 242.499 19.0057 243.037 19.1847 243.511C19.4804 244.057 19.9628 243.821 20.3208 243.437C20.422 243.315 20.5309 243.201 20.6398 243.094C21.2079 242.417 22.1884 242.352 22.8342 242.948C22.8809 242.997 22.9276 243.037 22.9743 243.094C24.3283 244.22 24.3361 244.22 25.8924 243.258C26.904 242.474 28.2969 242.499 29.2852 243.315C30.0244 243.927 31.0749 243.927 31.8142 243.315C32.8336 242.45 34.2809 242.401 35.3548 243.201C36.0551 243.772 37.0123 243.853 37.7904 243.405C38.7709 242.899 39.9226 242.899 40.903 243.405C41.2299 243.551 41.5567 243.682 41.8991 243.78C42.2026 243.902 42.5527 243.747 42.6772 243.429C42.8407 243.046 42.5994 242.85 42.3115 242.687C41.689 242.319 40.9886 242.132 40.2805 242.14C37.0278 242.14 33.8296 242.124 30.6547 242.124ZM335.871 237.065C335.817 238.697 335.801 238.949 337.536 238.697C339.536 238.386 341.575 238.362 343.583 238.607C344.439 238.737 345.295 238.713 346.143 238.843C346.991 238.974 347.147 238.59 347.155 237.856C347.162 237.122 347.154 236.665 346.283 236.518C345.279 236.412 344.268 236.412 343.264 236.518C340.781 236.502 338.299 236.681 335.84 237.065H335.871ZM28.1957 232.985C27.8378 231.573 27.2386 230.235 26.4293 229.044C26.3437 228.922 26.1959 228.758 26.0792 228.75C25.231 228.75 24.873 228.065 24.4762 227.453C24.2194 227.053 23.9392 226.849 23.4723 227.143C23.1299 227.282 22.9587 227.681 23.091 228.04C23.1144 228.097 23.1377 228.155 23.1766 228.204C23.4723 228.824 23.4723 229.566 23.1766 230.186C22.8031 231.239 23.8381 234.103 24.7329 234.788C24.9431 234.951 25.1687 235.131 25.4099 234.935C25.6512 234.739 25.48 234.446 25.371 234.225C24.9897 233.475 24.5929 232.732 24.1882 231.998C24.0404 231.802 24.0715 231.516 24.2583 231.353C24.2816 231.337 24.2972 231.32 24.3205 231.312C24.5151 231.223 24.7407 231.312 24.8419 231.508C25.0909 231.908 25.3555 232.324 25.5656 232.724C25.8924 233.368 26.1881 234.038 26.4994 234.698C27.5265 234.111 27.5188 234.119 27.0752 233.246C26.6317 232.373 26.297 231.614 25.8924 230.798C25.7912 230.635 25.8379 230.415 25.9936 230.317C26.0169 230.301 26.0403 230.292 26.0636 230.276C26.2037 230.235 26.3515 230.26 26.4682 230.358C26.6783 230.586 26.8573 230.847 27.0129 231.125C27.3164 231.802 27.4954 232.544 28.1646 233.001L28.1957 232.985ZM355.598 237.62C354.897 237.62 354.135 237.66 353.38 237.62C352.625 237.579 352.602 237.987 352.602 238.484C352.602 239.145 352.975 239.447 353.543 239.512C355.201 239.716 356.858 239.994 358.523 240.043C359.434 240.043 360.336 240.141 361.247 240.182C362.157 240.222 362.118 239.504 362.243 238.917C362.406 238.158 361.908 238.215 361.465 238.158C359.512 237.815 357.543 237.644 355.566 237.636L355.598 237.62ZM38.9888 267.785C38.9888 269.792 39.0588 270.037 40.405 270.233C41.8602 270.477 43.3387 270.437 44.7783 270.118C45.8521 269.874 46.2256 269.229 46.1245 268.07C46.0856 267.605 45.9144 267.401 45.4786 267.426L38.9888 267.785ZM39.5491 288.91H44.9962C45.2452 288.91 45.5798 288.999 45.7043 288.755C45.9455 288.224 45.9455 287.612 45.7043 287.082C45.5253 286.552 45.074 286.543 44.6927 286.674C43.5099 286.976 42.296 287.09 41.082 287C39.5335 287 39.4868 287.057 39.5491 288.893V288.91ZM342.034 233.515V233.989C341.972 235.963 341.964 235.62 343.676 235.62C344.174 235.71 344.649 235.359 344.734 234.829C344.75 234.739 344.75 234.649 344.734 234.568V232.185C344.734 231.59 344.501 231.508 344.019 231.484C341.956 231.41 341.956 231.394 342.026 233.515H342.034ZM351.567 232.218V235.425C351.567 235.637 351.567 235.898 351.808 235.947C352.524 236.2 353.279 236.306 354.033 236.257C354.236 236.208 354.384 236.028 354.399 235.816C354.539 234.764 354.446 233.695 354.127 232.691C353.963 232.112 352.928 232.495 352.298 232.332C352.057 232.291 351.816 232.267 351.574 232.251V232.218H351.567ZM338.338 231.084C337.622 231.59 337.101 231.239 336.556 231.198C336.011 231.157 335.926 231.32 335.941 231.818C335.965 233.181 336.058 234.543 336.221 235.898C336.517 235.898 336.774 235.955 337 235.898C338.268 235.833 338.307 235.792 338.322 234.388C338.361 233.515 338.354 232.487 338.354 231.125L338.338 231.084ZM355.208 232.699C354.959 233.736 355.263 234.731 355.208 235.718C355.208 236.216 355.45 236.339 355.846 236.371C356.197 236.387 356.547 236.436 356.889 236.51C357.527 236.673 357.761 236.241 357.776 235.751C357.776 234.821 358.111 233.752 357.628 232.993C357.286 232.446 356.313 232.814 355.629 232.699C355.489 232.691 355.348 232.691 355.208 232.699ZM341.303 233.515C341.287 233.197 341.287 232.879 341.303 232.561C341.404 231.745 341.093 231.361 340.283 231.459C340.128 231.484 339.98 231.484 339.824 231.459C339.046 231.345 338.937 231.794 339.046 232.406C339.171 233.026 339.21 233.662 339.163 234.299C339.054 235.637 339.163 235.718 340.423 235.71C341.077 235.71 341.349 235.482 341.295 234.788C341.272 234.331 341.303 233.94 341.303 233.515ZM348.462 235.694L350.119 235.979C350.648 236.061 350.859 235.767 350.843 235.253C350.843 234.935 350.781 234.625 350.773 234.307C350.726 232.882 349.948 232.087 348.438 231.924L348.462 235.694ZM363.978 232.61C363.379 232.708 362.834 232.781 362.29 232.879C361.908 232.944 361.558 233.116 361.698 233.605C362.01 234.682 361.465 235.678 361.465 236.706C361.659 236.885 361.916 236.975 362.173 236.959C363.371 237.057 363.418 237.016 363.729 235.8C363.932 234.747 364.009 233.679 363.978 232.61ZM345.388 231.794V234.919C345.365 235.18 345.52 235.433 345.762 235.506C346.804 235.988 347.474 235.62 347.668 234.437C348.065 231.949 347.878 231.72 345.388 231.818V231.794ZM366.935 143.142C365.931 143.623 364.959 143.362 364.017 143.468C363.371 143.542 363.185 143.737 363.146 144.398C363.044 144.929 363.371 145.451 363.877 145.565C363.924 145.573 363.978 145.581 364.033 145.581C364.725 145.696 365.441 145.696 366.134 145.581C367.239 145.435 367.394 145.198 367.192 144.015C367.145 143.819 367.052 143.574 366.935 143.166V143.142ZM358.57 232.895V236.494C360.71 236.771 360.905 236.616 360.975 234.397C361.021 233.907 360.967 233.409 360.803 232.944C360.119 233.23 359.465 232.699 358.578 232.944V232.887L358.57 232.895ZM335.288 233.711H335.179V232.128C335.179 231.443 334.836 231.361 334.299 231.427C333.762 231.492 333.373 231.369 333.397 232.12V235.294C333.397 235.849 333.568 236.339 334.299 236.241C335.031 236.143 335.327 235.906 335.249 235.139C335.249 234.69 335.256 234.25 335.295 233.801V233.711H335.288ZM362.523 140.539C362.897 141.942 363.675 142.592 364.858 142.489C365.208 142.489 365.566 142.489 365.908 142.44C366.25 142.391 366.78 142.44 366.725 141.787C366.671 141.134 366.492 140.637 365.908 140.645C364.803 140.743 363.706 140.343 362.515 140.629V140.539H362.523ZM47.424 290.672V290.321C46.3268 289.864 45.1518 289.677 43.9768 289.783C42.8173 289.783 41.6423 289.954 40.5062 289.987C37.7437 290.068 37.7437 290.052 37.059 290.664H47.424V290.672ZM332.471 231.679C331.48 231.75 330.984 232.253 330.984 233.189V235.09C330.984 236.542 331.241 236.722 332.759 236.347C332.307 234.943 332.72 233.393 332.463 231.769V231.679H332.471ZM367.005 146.275C366.079 146.405 365.145 146.463 364.212 146.438C363.146 146.25 363.13 146.267 362.803 147.344C362.733 147.564 362.57 147.817 362.803 148.086C363.402 148.16 364.002 148.25 364.609 148.307C366.126 148.543 366.881 148.021 366.997 146.365V146.275H367.005ZM61.8433 252.045C62.8938 252.568 64.1544 252.225 64.8236 251.229C65.3761 250.332 65.4306 249.19 64.9792 248.235C64.5123 247.443 63.6486 247.019 62.777 247.142C62.528 247.142 62.2557 247.215 62.279 247.582C62.3024 247.949 62.5047 247.9 62.707 247.941C62.9093 247.982 62.9171 247.941 63.0105 247.941C64.2244 248.292 64.7769 248.994 64.668 250.03C64.559 251.066 63.8898 251.597 62.6214 251.727C62.3257 251.686 62.0378 251.809 61.8433 252.045ZM366.103 232.626C366.025 232.128 366.165 231.631 365.947 231.182C365.838 230.953 365.791 230.635 365.48 230.635C365.169 230.635 365.177 230.945 365.107 231.19C364.616 232.822 364.772 234.552 364.453 236.216C364.375 236.64 364.647 236.779 364.951 236.861C365.254 236.942 365.496 236.706 365.573 236.363C365.807 235.131 365.963 233.882 366.04 232.626H366.103ZM341.77 153.219C342.275 153.431 342.859 153.219 343.131 152.721C343.941 151.277 344.073 149.531 343.497 147.972C343.419 147.768 343.225 147.638 343.015 147.67C342.68 147.744 342.68 148.021 342.758 148.29C343.349 150.004 342.952 151.921 341.731 153.219H341.77ZM330.121 234.96V232.593C330.121 232.169 329.911 232.038 329.545 232.12C329.311 232.177 329.093 232.169 329.078 232.561C329.047 233.768 329.078 234.976 329.164 236.175C329.164 236.616 329.483 236.649 329.794 236.64C330.105 236.632 330.284 236.42 330.222 236.028C330.16 235.637 330.136 235.098 330.121 234.96ZM360.002 139.233C361.558 140.294 363.216 139.339 364.819 139.641C363.27 138.532 361.652 138.785 360.002 139.233ZM360.461 149.726C362.017 150.485 363.309 149.947 364.601 149.457C363.239 148.984 361.76 149.082 360.461 149.718V149.726ZM62.777 250.903C63.4073 250.903 63.9521 250.397 63.882 249.875C63.8587 249.328 63.4151 248.904 62.886 248.928H62.8704C61.96 249.018 62.4891 249.94 62.2323 250.438C62.0456 250.764 62.4969 250.846 62.777 250.862V250.903ZM22.3129 222.623C21.5347 222.623 21.2546 222.884 21.1846 223.438C21.1145 223.993 21.846 224.556 22.2895 224.524C22.7331 224.491 22.8732 224.132 22.8732 223.757C22.8732 223.153 22.8109 222.623 22.3362 222.582L22.3129 222.623ZM21.1534 219.759C21.1534 219.196 20.5932 218.42 20.2041 218.486C19.815 218.551 19.3092 218.73 19.3014 219.302C19.3948 219.889 19.885 220.322 20.4531 220.313C20.8966 220.322 21.1534 220.15 21.169 219.718L21.1534 219.759ZM61.1585 217.882C61.1585 217.441 60.8316 217.384 60.5826 217.286C60.2636 217.18 59.9212 217.36 59.82 217.694C59.82 217.711 59.8123 217.727 59.8045 217.743C59.7033 217.996 59.82 218.282 60.0535 218.38C60.108 218.404 60.1624 218.412 60.2247 218.42C60.6371 218.502 61.0495 218.257 61.1818 217.841L61.1585 217.882Z" fill="#534D4D" style="fill:#534D4D;fill:color(display-p3 0.3255 0.3020 0.3020);fill-opacity:1;"/>
<path d="M31.1216 216.152C31.3551 216.503 31.3862 216.968 31.1916 217.344C30.6314 218.861 30.7948 220.567 31.6274 221.937C32.7557 224.002 32.4756 226.017 31.4251 227.992C31.3862 228.073 31.2539 228.098 31.0983 228.188C30.7403 227.673 30.7403 226.972 31.0983 226.458C31.6741 225.136 31.5729 223.602 30.8181 222.378C30.1256 221.13 29.8532 219.669 30.04 218.233C30.0944 217.409 30.4835 216.642 31.1216 216.152Z" fill="#534D4D" style="fill:#534D4D;fill:color(display-p3 0.3255 0.3020 0.3020);fill-opacity:1;"/>
<path d="M38.6697 0.0175781C39.5334 0.13995 40.4672 -0.0313704 41.3854 0.833388C40.4127 1.00471 39.4089 0.711016 38.6697 0.0175781Z" fill="#534D4D" style="fill:#534D4D;fill:color(display-p3 0.3255 0.3020 0.3020);fill-opacity:1;"/>
<path d="M367.083 201C367.106 201.473 366.935 201.939 366.608 202.265C364.71 205.088 362.484 207.65 359.978 209.886C358.119 211.607 356.134 213.174 354.041 214.577C352.944 215.23 351.769 215.728 350.539 216.046C350.314 216.144 350.057 216.03 349.964 215.793C349.956 215.769 349.948 215.744 349.94 215.72C349.893 215.499 350.096 215.353 350.267 215.247C350.392 215.165 350.532 215.092 350.672 215.034C355.177 213.403 358.453 210.049 361.815 206.72C363.433 205.104 364.881 203.309 366.126 201.367C366.266 201.147 366.406 200.91 366.671 200.845C366.935 200.78 367.083 200.878 367.083 201Z" fill="#534D4D" style="fill:#534D4D;fill:color(display-p3 0.3255 0.3020 0.3020);fill-opacity:1;"/>
<path d="M58.108 239.749C58.2558 240.916 57.6022 241.805 57.2286 242.784C57.1664 242.988 56.9563 243.103 56.7617 243.037C56.7617 243.037 56.7462 243.037 56.7384 243.037C56.4349 242.931 56.396 242.67 56.4894 242.393C56.5828 242.115 56.7618 241.707 56.894 241.356C57.5088 240.149 57.3376 238.664 56.466 237.644C55.6412 236.567 55.6412 235.025 56.466 233.948C56.6372 233.768 56.8707 233.556 57.1353 233.695C57.3998 233.833 57.2987 234.127 57.1353 234.347C56.4505 235.269 56.5439 236.583 57.3454 237.391C57.929 238.019 58.2091 238.892 58.108 239.757V239.749Z" fill="#534D4D" style="fill:#534D4D;fill:color(display-p3 0.3255 0.3020 0.3020);fill-opacity:1;"/>
<path d="M363.184 174.229C362.951 174.245 362.725 174.245 362.492 174.229C362.188 174.229 361.838 174.155 361.83 173.739C361.823 173.323 362.173 173.429 362.391 173.388C363.169 173.266 363.893 173.029 364.632 172.972C367.013 172.776 368.453 171.234 369.713 169.358C369.807 169.178 369.923 168.999 370.056 168.844C370.172 168.762 370.305 168.729 370.445 168.738C370.639 169.186 370.725 169.668 371.223 169.937C371.402 170.027 371.091 170.386 370.935 170.59C369.449 172.524 367.371 173.323 365.161 173.805C364.523 174.049 363.861 174.196 363.184 174.229Z" fill="#534D4D" style="fill:#534D4D;fill:color(display-p3 0.3255 0.3020 0.3020);fill-opacity:1;"/>
<path d="M158.421 237.743C158.483 238.469 158.149 238.69 157.713 238.714C157.276 238.739 157.136 238.379 157.09 237.988C156.996 237.645 157.191 237.285 157.518 237.196C157.557 237.187 157.588 237.179 157.627 237.171C157.977 237.089 158.328 237.318 158.413 237.685C158.413 237.702 158.413 237.726 158.421 237.743Z" fill="#534D4D" style="fill:#534D4D;fill:color(display-p3 0.3255 0.3020 0.3020);fill-opacity:1;"/>
<path d="M26.9663 235.686C26.9663 236.217 28.3289 235.792 27.6904 236.788C27.558 237 27.4334 237.286 27.1142 237.155C26.795 237.025 26.9429 236.813 26.8962 236.617C26.8261 236.282 27.4802 236.029 26.9818 235.67L26.9663 235.686Z" fill="#534D4D" style="fill:#534D4D;fill:color(display-p3 0.3255 0.3020 0.3020);fill-opacity:1;"/>
<path d="M31.7524 232.814C31.9704 232.814 32.1651 232.879 32.1884 233.14C32.2273 233.695 31.7991 233.81 31.4098 233.957C31.2229 233.989 31.036 233.859 31.0049 233.663C31.0049 233.646 31.0049 233.638 31.0049 233.622C31.036 233.108 31.3864 232.928 31.7602 232.814H31.7524Z" fill="#534D4D" style="fill:#534D4D;fill:color(display-p3 0.3255 0.3020 0.3020);fill-opacity:1;"/>
<path d="M34.1644 233.801C34.6316 233.801 34.7173 234.168 34.8341 234.503C34.8886 234.666 34.7251 234.813 34.5771 234.829C34.219 234.903 33.8686 234.65 33.8063 234.274C33.8063 234.266 33.8063 234.25 33.8063 234.242C33.7829 234.021 33.9386 233.825 34.1489 233.801C34.1567 233.801 34.1645 233.801 34.1722 233.801H34.1644Z" fill="#534D4D" style="fill:#534D4D;fill:color(display-p3 0.3255 0.3020 0.3020);fill-opacity:1;"/>
<path d="M37.6589 234.413C37.5421 234.797 37.363 235.172 36.8803 235.18C36.6934 235.164 36.5532 234.992 36.5688 234.797C36.5688 234.772 36.5688 234.756 36.5766 234.731C36.5922 234.348 36.8803 234.046 37.2462 234.021C37.4487 233.997 37.6278 234.144 37.6589 234.356C37.6589 234.372 37.6589 234.397 37.6589 234.413Z" fill="#534D4D" style="fill:#534D4D;fill:color(display-p3 0.3255 0.3020 0.3020);fill-opacity:1;"/>
<path d="M32.5307 235.8C32.5385 236.192 32.2582 236.519 31.8844 236.551C31.6197 236.551 31.5107 236.355 31.5185 236.16C31.5185 235.776 31.791 235.458 32.1569 235.417C32.4295 235.36 32.4684 235.604 32.5307 235.8Z" fill="#534D4D" style="fill:#534D4D;fill:color(display-p3 0.3255 0.3020 0.3020);fill-opacity:1;"/>
<path d="M35.4878 236.779C35.3165 237.122 35.0907 237.384 34.6702 237.237C34.4833 237.171 34.3198 236.992 34.4288 236.763C34.5456 236.461 34.8493 236.282 35.153 236.339C35.3554 236.355 35.5034 236.535 35.4878 236.747C35.4878 236.755 35.4878 236.763 35.4878 236.779Z" fill="#534D4D" style="fill:#534D4D;fill:color(display-p3 0.3255 0.3020 0.3020);fill-opacity:1;"/>
<path d="M62.6369 256.158H63.6874C63.9986 256.174 64.2399 256.443 64.2243 256.769C64.2243 256.778 64.2243 256.786 64.2243 256.794C64.2243 257.169 64.092 257.43 63.7263 257.438C62.8703 257.438 62.0143 257.438 61.1662 257.381C60.8705 257.381 60.5436 257.202 60.5514 256.818C60.5592 256.435 60.8938 256.215 61.2751 256.198C61.6564 256.182 62.1778 256.198 62.6291 256.198V256.158H62.6369Z" fill="#534D4D" style="fill:#534D4D;fill:color(display-p3 0.3255 0.3020 0.3020);fill-opacity:1;"/>
<path d="M67.8272 257.422C67.3759 257.447 66.9323 257.447 66.481 257.422C66.2164 257.406 66.0141 257.169 66.0296 256.892C66.0296 256.639 66.2008 256.525 66.3876 256.443C67.298 256.149 68.263 256.1 69.2045 256.28C69.508 256.329 69.7181 256.631 69.6792 256.949C69.6792 256.957 69.6792 256.965 69.6792 256.973C69.6559 257.251 69.4458 257.463 69.1812 257.471H67.835V257.422H67.8272Z" fill="#534D4D" style="fill:#534D4D;fill:color(display-p3 0.3255 0.3020 0.3020);fill-opacity:1;"/>
</svg>
