<svg width="47" height="37" viewBox="0 0 47 37" fill="none" xmlns="http://www.w3.org/2000/svg">
<g id="Group 43">
<path id="Vector (Stroke)" fill-rule="evenodd" clip-rule="evenodd" d="M1.80769 5.44775C2.80605 5.44775 3.61538 6.26076 3.61538 7.26366V29.0546C3.61538 30.0178 3.99629 30.9416 4.67431 31.6227C5.35232 32.3038 6.27191 32.6864 7.23077 32.6864H39.7692C40.7281 32.6864 41.6477 32.3038 42.3257 31.6227C43.0037 30.9416 43.3846 30.0178 43.3846 29.0546V7.26366C43.3846 6.26076 44.1939 5.44775 45.1923 5.44775C46.1907 5.44775 47 6.26076 47 7.26366V29.0546C47 30.981 46.2382 32.8285 44.8822 34.1907C43.5261 35.5529 41.687 36.3182 39.7692 36.3182H7.23077C5.31305 36.3182 3.47388 35.5529 2.11784 34.1907C0.761812 32.8285 0 30.981 0 29.0546V7.26366C0 6.26076 0.809331 5.44775 1.80769 5.44775Z" fill="#491273"/>
<path id="Vector (Stroke)_2" fill-rule="evenodd" clip-rule="evenodd" d="M2.11784 2.12747C3.47388 0.765273 5.31305 0 7.23077 0H39.7692C41.687 0 43.5261 0.765272 44.8822 2.12747C46.2382 3.48967 47 5.3372 47 7.26364C47 7.88967 46.679 8.47155 46.1506 8.80341L27.3325 20.6213L27.3323 20.6215C26.1831 21.343 24.8552 21.7256 23.5 21.7256C22.1448 21.7256 20.8169 21.343 19.6677 20.6215L19.6675 20.6213L0.849432 8.80341C0.321002 8.47155 0 7.88967 0 7.26364C0 5.3372 0.761812 3.48967 2.11784 2.12747ZM7.23077 3.63182C6.27191 3.63182 5.35232 4.01446 4.67431 4.69555C4.21933 5.1526 3.89814 5.71892 3.73606 6.3331L21.5838 17.5417C22.1584 17.9024 22.8224 18.0937 23.5 18.0937C24.1776 18.0937 24.8416 17.9024 25.4162 17.5417L43.2639 6.3331C43.1019 5.71892 42.7807 5.1526 42.3257 4.69555C41.6477 4.01446 40.7281 3.63182 39.7692 3.63182H7.23077Z" fill="#491273"/>
</g>
</svg>
